<svg width="165" height="119" viewBox="0 0 165 119" fill="none" xmlns="http://www.w3.org/2000/svg">
<path d="M39.7008 108.019C39.7008 108.582 36.4047 109.035 32.341 109.035C28.2772 109.035 24.9812 108.582 24.9812 108.019C24.9812 107.457 28.2772 107.003 32.341 107.003C36.4047 107.003 39.7008 107.457 39.7008 108.019Z" fill="#FDF9E7"/>
<path d="M56.1815 118.137C70.5865 118.137 82.264 116.522 82.264 114.53C82.264 112.538 70.5865 110.924 56.1815 110.924C41.7766 110.924 30.099 112.538 30.099 114.53C30.099 116.522 41.7766 118.137 56.1815 118.137Z" fill="#F05D48"/>
<path d="M123.674 116.903C140.819 116.903 154.718 114.982 154.718 112.612C154.718 110.241 140.819 108.32 123.674 108.32C106.528 108.32 92.6296 110.241 92.6296 112.612C92.6296 114.982 106.528 116.903 123.674 116.903Z" fill="#F05D48"/>
<path d="M83.8514 109.672C102.97 109.672 118.469 107.53 118.469 104.888C118.469 102.246 102.97 100.104 83.8514 100.104C64.7327 100.104 49.2338 102.246 49.2338 104.888C49.2338 107.53 64.7327 109.672 83.8514 109.672Z" fill="#F05D48"/>
<path d="M162.706 103.833C162.706 105.054 155.537 106.048 146.689 106.048C137.846 106.048 130.673 105.058 130.673 103.833C130.673 102.611 137.842 101.617 146.689 101.617C155.532 101.617 162.706 102.607 162.706 103.833Z" fill="#F05D48"/>
<path d="M24.4307 97.134C16.1861 95.2413 8.45332 88.7737 4.37658 81.2203C0.304172 73.6668 -1.27448 64.5564 1.14121 56.3139C3.55256 48.0714 10.2835 40.9802 18.6408 39.1965C28.811 37.0247 39.0679 42.6593 46.8354 49.6065C50.0101 52.4456 53.0026 55.5682 56.676 57.7139C60.3537 59.8552 64.9552 60.9106 68.8759 59.2621C73.5815 57.2821 75.9972 52.1621 78.2871 47.583C83.9251 36.3051 91.324 25.7425 101.073 17.7922C110.823 9.83748 123.066 4.63031 135.617 4.67392C143.437 4.70008 151.599 6.97223 157.046 12.6112C163.951 19.759 165.156 30.9148 163.096 40.6619C161.036 50.409 156.218 59.3013 152.388 68.4902C148.559 77.679 145.653 87.7925 147.704 97.5396L24.4307 97.134Z" fill="#F05D48"/>
<path d="M76.7255 37.0159C79.1108 33.0778 81.1796 28.878 82.0947 24.3643C83.2917 18.4593 82.2681 12.2273 78.2001 7.62193C72.4666 1.13694 60.6658 -1.93765 52.5817 1.2983C49.2509 2.63281 46.3581 5.43264 45.5948 8.95207C44.2981 14.9094 48.8172 20.0642 51.6189 24.8178C53.1238 27.3734 54.2471 30.3477 54.3555 33.3438C54.4552 36.2047 52.6727 38.8475 53.1064 41.7346C53.3493 43.3569 54.3208 44.8092 55.5785 45.8602C58.3281 48.1585 62.214 48.9959 65.6619 48.1106C70.9921 46.7455 74.054 41.4293 76.7255 37.0159Z" fill="#F05D48"/>
<path d="M64.5129 19.192H5.33506C5.2223 19.192 5.12688 19.2836 5.12688 19.4014V66.1133C5.12688 66.2267 5.21796 66.3227 5.33506 66.3227H64.5129C64.6256 66.3227 64.721 66.2311 64.721 66.1133V19.4014C64.721 19.288 64.6256 19.192 64.5129 19.192ZM46.5709 42.5502H41.0586V37.1642H46.5709V42.5502ZM46.9872 37.1642H52.4995V42.5502H46.9872V37.1642ZM34.718 42.9688V48.3548H29.2057V42.9688H34.718ZM29.2057 42.5502V37.1642H34.718V42.5502H29.2057V42.5502ZM35.1343 42.9688H40.6466V48.3548H35.1343V42.9688ZM35.1343 42.5502V37.1642H40.6466V42.5502H35.1343V42.5502ZM41.0586 36.7499V31.3639H46.5709V36.7499H41.0586V36.7499ZM40.6466 36.7499H35.1343V31.3639H40.6466V36.7499ZM34.718 36.7499H29.2057V31.3639H34.718V36.7499V36.7499ZM28.7893 36.7499H23.2771V31.3639H28.7893V36.7499ZM28.7893 37.1642V42.5502H23.2771V37.1642H28.7893ZM22.865 42.5502H17.3528V37.1642H22.865V42.5502ZM16.9364 42.5502H11.4241V37.1642H16.9364V42.5502ZM16.9364 42.9688V48.3548H11.4241V42.9688H16.9364ZM17.3528 42.9688H22.865V48.3548H17.3528V42.9688ZM23.2771 42.9688H28.7893V48.3548H23.2771V42.9688ZM28.7893 48.7691V54.1551H23.2771V48.7691H28.7893ZM29.2057 48.7691H34.718V54.1551H29.2057V48.7691ZM35.1343 48.7691H40.6466V54.1551H35.1343V48.7691ZM41.0586 48.7691H46.5709V54.1551H41.0586V48.7691ZM41.0586 48.3505V42.9688H46.5709V48.3548H41.0586V48.3505ZM46.9872 42.9688H52.4995V48.3548H46.9872V42.9688ZM52.9115 42.9688H58.4238V48.3548H52.9115V42.9688ZM52.9115 42.5502V37.1642H58.4238V42.5502H52.9115V42.5502ZM52.9115 36.7499V31.3639H58.4238V36.7499H52.9115V36.7499ZM52.4995 36.7499H46.9872V31.3639H52.4995V36.7499V36.7499ZM46.9872 30.9452V25.5636H52.4995V30.9496H46.9872V30.9452ZM46.5709 30.9452H41.0586V25.5636H46.5709V30.9452ZM40.6466 30.9452H35.1343V25.5636H40.6466V30.9452ZM34.718 30.9452H29.2057V25.5636H34.718V30.9452V30.9452ZM28.7893 30.9452H23.2771V25.5636H28.7893V30.9452ZM22.865 30.9452H17.3528V25.5636H22.865V30.9452ZM22.865 31.3639V36.7499H17.3528V31.3639H22.865ZM16.9364 36.7499H11.4241V31.3639H16.9364V36.7499ZM11.0078 36.7499H5.54323V31.3639H11.0078V36.7499ZM11.0078 37.1642V42.5502H5.54323V37.1642H11.0078ZM11.0078 42.9688V48.3548H5.54323V42.9688H11.0078ZM11.0078 48.7691V54.1551H5.54323V48.7691H11.0078ZM11.4241 48.7691H16.9364V54.1551H11.4241V48.7691ZM17.3528 48.7691H22.865V54.1551H17.3528V48.7691ZM22.865 54.5694V59.9554H17.3528V54.5694H22.865ZM23.2771 54.5694H28.7893V59.9554H23.2771V54.5694ZM29.2057 54.5694H34.718V59.9554H29.2057V54.5694ZM35.1343 54.5694H40.6466V59.9554H35.1343V54.5694ZM41.0586 54.5694H46.5709V59.9554H41.0586V54.5694ZM46.9872 54.5694H52.4995V59.9554H46.9872V54.5694ZM46.9872 54.1551V48.7691H52.4995V54.1551H46.9872ZM52.9115 48.7691H58.4238V54.1551H52.9115V48.7691ZM58.8401 48.7691H64.3047V54.1551H58.8401V48.7691ZM58.8401 48.3505V42.9688H64.3047V48.3548H58.8401V48.3505ZM58.8401 42.5502V37.1642H64.3047V42.5502H58.8401V42.5502ZM58.8401 36.7499V31.3639H64.3047V36.7499H58.8401V36.7499ZM58.8401 30.9452V25.5636H64.3047V30.9496H58.8401V30.9452ZM58.4238 30.9452H52.9115V25.5636H58.4238V30.9452ZM52.9115 25.1449V19.6107H58.4238V25.1449H52.9115ZM52.4995 25.1449H46.9872V19.6107H52.4995V25.1449V25.1449ZM46.5709 25.1449H41.0586V19.6107H46.5709V25.1449ZM40.6466 25.1449H35.1343V19.6107H40.6466V25.1449ZM34.718 25.1449H29.2057V19.6107H34.718V25.1449V25.1449ZM28.7893 25.1449H23.2771V19.6107H28.7893V25.1449ZM22.865 25.1449H17.3528V19.6107H22.865V25.1449ZM16.9364 25.1449H11.4241V19.6107H16.9364V25.1449ZM16.9364 25.5636V30.9496H11.4241V25.5636H16.9364ZM11.0078 30.9452H5.54323V25.5636H11.0078V30.9452ZM5.54323 54.5694H11.0078V59.9554H5.54323V54.5694ZM11.4241 54.5694H16.9364V59.9554H11.4241V54.5694ZM16.9364 60.3741V65.9083H11.4241V60.3741H16.9364ZM17.3528 60.3741H22.865V65.9083H17.3528V60.3741ZM23.2771 60.3741H28.7893V65.9083H23.2771V60.3741ZM29.2057 60.3741H34.718V65.9083H29.2057V60.3741ZM35.1343 60.3741H40.6466V65.9083H35.1343V60.3741ZM41.0586 60.3741H46.5709V65.9083H41.0586V60.3741ZM46.9872 60.3741H52.4995V65.9083H46.9872V60.3741ZM52.9115 60.3741H58.4238V65.9083H52.9115V60.3741ZM52.9115 59.9554V54.5694H58.4238V59.9554H52.9115ZM58.8401 54.5694H64.3047V59.9554H58.8401V54.5694ZM64.3047 25.1449H58.8401V19.6107H64.3047V25.1449ZM11.0078 19.6107V25.1449H5.54323V19.6107H11.0078ZM5.54323 60.3741H11.0078V65.9083H5.54323V60.3741ZM58.8401 65.9083V60.3741H64.3047V65.9083H58.8401Z" fill="#E7DFC2"/>
<path d="M29.5351 32.5502C29.5351 32.5502 30.8579 44.4256 37.4197 46.4927L49.4938 43.0867C49.4938 43.0867 42.2858 39.7504 41.5485 32.5502H29.5351Z" fill="#FEDEA6"/>
<path d="M23.2773 43.5273C23.2773 43.5273 22.2711 57.0468 17.2749 59.3974L8.08056 55.5204C8.08056 55.5204 13.5712 51.7262 14.1306 43.5273H23.2773Z" fill="#F7F4E3"/>
<path d="M54.3264 23.0984L46.2851 25.4496L49.0677 35.0726L57.109 32.7214L54.3264 23.0984Z" fill="#F7F4E3"/>
<path d="M53.9083 24.0518L47.1496 26.028L48.9466 32.2423L55.7053 30.2661L53.9083 24.0518Z" fill="#FDFDFD"/>
<path d="M31.4757 52.2895L25.2897 50.5848L23.2734 57.9829L29.4594 59.6877L31.4757 52.2895Z" fill="#D2CDB8"/>
<path d="M30.8253 52.7428L25.6264 51.3101L24.3231 56.0921L29.522 57.5249L30.8253 52.7428Z" fill="#E7DFC2"/>
<path d="M128.574 48.5553C127.694 48.5553 126.809 48.5509 125.929 48.5509C125.495 48.5509 125.079 48.9347 125.1 49.3839C125.122 49.8374 125.465 50.2169 125.929 50.2169C126.809 50.2169 127.694 50.2212 128.574 50.2212C129.008 50.2212 129.424 49.8374 129.402 49.3882C129.381 48.939 129.038 48.5596 128.574 48.5553Z" fill="#CCC6AD"/>
<path d="M154.47 70.6881C146.351 63.4312 138.232 56.1787 130.113 48.9218C128.921 47.8577 127.156 49.6195 128.357 50.688L152.713 72.4544C153.902 73.5229 155.667 71.761 154.47 70.6881Z" fill="#CCC6AD"/>
<path d="M158.122 101.482H155.78C153.633 100.863 150.207 100.466 146.343 100.466C142.478 100.466 139.057 100.867 136.905 101.482H134.564C134.455 102.114 134.564 102.999 134.564 102.999C134.564 104.399 139.837 105.533 146.338 105.533C152.844 105.533 158.113 104.399 158.113 102.999C158.334 102.062 158.122 101.482 158.122 101.482Z" fill="#CCC6AD"/>
<path d="M158.122 101.482C158.122 102.882 152.853 104.02 146.352 104.02C139.846 104.02 134.577 102.882 134.577 101.482C134.577 100.087 139.851 98.9484 146.352 98.9484C146.824 98.9484 147.288 98.9527 147.744 98.9658C148.165 98.9789 148.577 98.992 148.984 99.0138C154.219 99.2667 158.122 100.283 158.122 101.482Z" fill="#E7DFC2"/>
<path d="M148.984 99.0094L147.765 101.12L147.743 101.155V98.9658C148.16 98.9788 148.576 98.9876 148.984 99.0094Z" fill="#E7DFC2"/>
<path d="M152.701 71.2464L145.345 100.488C144.951 102.049 147.349 102.716 147.744 101.151C150.194 91.4035 152.649 81.6564 155.099 71.9093C155.494 70.348 153.096 69.6851 152.701 71.2464Z" fill="#E7DFC2"/>
<path d="M155.016 70.1384C146.898 62.8815 138.779 55.629 130.66 48.3721C129.467 47.308 127.702 49.0699 128.903 50.1427L153.26 71.9091C154.448 72.9732 156.213 71.2113 155.016 70.1384Z" fill="#E7DFC2"/>
<path d="M105.511 48.5511C105.511 48.5511 112.615 36.92 121.809 42.463C131.004 48.006 124.151 59.7853 124.151 59.7853L105.511 48.5511Z" fill="#E7DFC2"/>
<path d="M124.15 59.7899C123.639 60.649 120.382 59.6678 116.379 57.5657C115.515 57.1121 114.618 56.6062 113.707 56.0567C112.796 55.5072 111.929 54.949 111.126 54.3995C107.397 51.8395 105.003 49.4148 105.514 48.5556C105.992 47.7575 108.85 48.5513 112.48 50.3655C113.581 50.915 114.761 51.5604 115.962 52.2887C117.164 53.0127 118.282 53.7497 119.289 54.4737C122.576 56.8287 124.623 58.9874 124.15 59.7899Z" fill="#C1B894"/>
<path d="M119.28 54.4647C118.946 55.9519 117.827 57.1425 116.378 57.5611C116.01 57.6702 115.615 57.7269 115.207 57.7269C113.195 57.7269 111.517 56.2964 111.122 54.3906C111.065 54.1115 111.035 53.8193 111.035 53.5227C111.035 52.2537 111.59 51.1241 112.475 50.3566C113.577 50.9061 114.756 51.5515 115.958 52.2798C117.155 53.0081 118.273 53.7452 119.28 54.4647Z" fill="#FAC978"/>
<path d="M129.285 47.2339C126.618 47.2339 126.614 51.4032 129.285 51.4032C131.952 51.4032 131.957 47.2339 129.285 47.2339Z" fill="#E7DFC2"/>
<path d="M129.285 48.4593C128.188 48.4593 128.184 50.1776 129.285 50.1776C130.387 50.1776 130.387 48.4593 129.285 48.4593Z" fill="#E7DFC2"/>
<path d="M153.673 68.7605C150.242 68.7605 150.238 74.1203 153.673 74.1203C157.103 74.1203 157.107 68.7605 153.673 68.7605Z" fill="#E7DFC2"/>
<path d="M153.672 70.3566C152.284 70.3566 152.28 72.5285 153.672 72.5285C155.06 72.5285 155.064 70.3566 153.672 70.3566Z" fill="#E7DFC2"/>
<path d="M39.6926 95.8041H24.9903C24.9903 95.8041 24.5913 104.64 29.002 107.771C29.3663 108.028 29.8217 108.163 30.2857 108.163H32.3414H34.3971C34.8612 108.163 35.3166 108.028 35.6809 107.771C40.0916 104.644 39.6926 95.8041 39.6926 95.8041Z" fill="#536969"/>
<path d="M39.7011 95.8081C39.7011 96.0698 37.2985 96.2966 34.0631 96.3533C33.5123 96.3664 32.9312 96.3707 32.337 96.3707C31.8296 96.3707 31.3395 96.3664 30.8581 96.3576C27.5056 96.3097 24.9815 96.0785 24.9815 95.8081C24.9815 95.5595 27.1196 95.3458 30.0731 95.2717C30.7844 95.2543 31.5477 95.2455 32.3413 95.2455C32.9658 95.2455 33.573 95.2499 34.1498 95.263C37.3375 95.324 39.7011 95.5465 39.7011 95.8081Z" fill="#405050"/>
<path d="M41.8004 98.3943C41.0198 97.448 39.7534 97.2779 38.6041 97.3171C37.5415 97.352 37.5372 99.018 38.6041 98.9831C39.4411 98.9569 40.3389 98.9787 40.7682 99.8161C41.1672 100.584 41.0978 101.582 40.7075 102.341C39.775 104.173 37.6456 104.679 35.7547 104.421C35.3123 104.36 34.9263 104.849 34.9263 105.254C34.9263 105.756 35.308 106.026 35.7547 106.087C37.7931 106.362 40.0353 105.8 41.4318 104.199C42.8109 102.616 43.2056 100.1 41.8004 98.3943Z" fill="#536969"/>
<path opacity="0.5" d="M36.4875 90.8235C35.3729 91.9487 34.1716 93.2352 34.1369 94.827C34.1325 95.0058 34.1456 95.1846 34.1542 95.3678C34.1759 95.7472 34.1976 96.1266 34.0718 96.4581C33.521 96.4712 32.9399 96.4755 32.3457 96.4755C31.8383 96.4755 31.3482 96.4712 30.8668 96.4624C30.5502 96.1703 30.2813 95.7865 30.0775 95.3765C29.865 94.984 29.7088 94.5697 29.6134 94.199C29.4313 93.4969 29.4183 92.7468 29.6004 92.0446C30.0731 90.2086 31.7212 88.7084 31.6865 86.8157C31.6648 85.5902 30.9275 84.4999 30.1078 83.5971C29.2838 82.6988 28.334 81.892 27.7182 80.8366C26.6643 79.0398 26.7857 76.6019 28.0651 74.9621C29.3402 73.3224 31.7212 72.6289 33.6468 73.3878C35.5768 74.151 36.8605 76.3402 36.5222 78.3943C36.301 79.7332 35.4813 81.1026 36.0018 82.3586C36.288 83.0433 36.9125 83.5099 37.4373 84.0376C38.1659 84.779 38.7297 85.7515 38.7514 86.7938C38.7861 88.3813 37.6021 89.6984 36.4875 90.8235Z" fill="#54C1BB"/>
<path d="M47.0349 97.7358C47.0349 97.7358 37.6801 60.4569 41.8739 55.9519C46.0677 51.4469 80.9369 49.3623 84.7578 52.8511C88.5786 56.34 88.2707 97.6878 88.2707 97.6878L47.0349 97.7358Z" fill="#54C1BB"/>
<path d="M84.7619 52.8512C84.6448 52.7466 84.4973 52.6419 84.3238 52.546C72.7528 51.8264 52.0742 53.8456 48.9039 57.2516C45.1828 61.2551 52.1393 91.0939 53.744 97.7272L88.2705 97.6879C88.2705 97.6879 88.5827 56.3401 84.7619 52.8512Z" fill="#8DD1CD"/>
<path d="M95.3226 66.7062C95.3226 66.7062 102.518 88.4421 104.452 88.9828C106.386 89.5236 126.206 93.2785 126.206 93.2785L125.239 98.1412C125.239 98.1412 101.091 98.9 95.3226 94.7918C89.5501 90.6837 95.3226 66.7062 95.3226 66.7062Z" fill="#DDBB8F"/>
<path d="M95.3226 66.7062C95.3226 66.7062 89.5501 90.6837 95.3226 94.7918C97.5345 96.3662 102.44 97.2254 107.653 97.6876L109.049 90.6837L108.85 90.5616L108.702 89.8856C106.555 89.4538 104.942 89.1137 104.456 88.9785C102.518 88.4421 95.3226 66.7062 95.3226 66.7062Z" fill="#405050"/>
<path d="M111.101 90.3654C110.168 91.3554 109.539 92.5853 109.188 93.8718C108.837 95.1583 108.75 96.4972 108.815 97.823C108.824 97.9669 108.676 98.1239 108.529 98.1588C108.381 98.1937 108.225 98.1631 108.073 98.1413C107.922 98.1195 107.757 98.1108 107.627 98.1893C107.497 98.2678 107.423 98.4204 107.284 98.4771C107.106 98.5469 106.915 98.4466 106.738 98.3812C106.352 98.2373 105.922 98.2678 105.51 98.2373C105.098 98.2111 104.647 98.1021 104.409 97.7794C104.235 97.5482 104.209 97.2473 104.187 96.9638C104.088 95.6468 104.001 94.2512 104.621 93.0693C105.016 92.3192 105.666 91.7043 106.005 90.9324C106.169 90.5573 106.252 90.1517 106.477 89.8072C106.699 89.4627 107.119 89.1836 107.536 89.2752C107.882 89.3537 108.125 89.6633 108.464 89.7592C108.772 89.8421 109.093 89.7374 109.409 89.7026C110.077 89.6284 110.676 89.8596 111.101 90.3654Z" fill="#536969"/>
<path d="M59.4511 97.7356H96.0377C95.0142 90.592 94.0644 82.6853 94.1728 78.5859C94.2639 75.2278 95.3178 66.7585 95.3178 66.7585C94.9144 66.2788 85.8805 59.2443 78.5251 59.4624C66.0476 59.8374 59.707 68.6992 59.707 68.6992C59.707 68.6992 60.1277 75.2714 60.4356 78.6862C60.8042 82.7507 60.1233 90.6182 59.4511 97.7356Z" fill="#F7F4E3"/>
<path d="M94.1685 79.3578C94.1685 79.07 94.1685 78.7952 94.1772 78.5335C94.2639 75.3063 95.2397 67.3734 95.3178 66.7498C94.9361 66.3137 88.435 61.2417 82.0033 59.8243L82.0597 66.0302C82.0597 66.0302 84.4537 80.797 85.5119 97.6832H96.0334C95.0749 90.9802 94.1815 83.6142 94.1685 79.3578Z" fill="#405050"/>
<path d="M82.8449 58.9347L88.6217 65.8471L84.3368 64.5518L82.0556 66.0302L79.4577 59.506L82.8449 58.9347Z" fill="#536969"/>
<path d="M59.4511 97.6878H76.2091C74.4917 82.5809 73.9322 68.2546 73.9322 68.2546L72.05 60.4395C63.8618 62.8556 59.707 68.6515 59.707 68.6515C59.707 68.6515 60.1277 75.2237 60.4356 78.6385C60.8042 82.703 60.1233 90.5661 59.4511 97.6878Z" fill="#405050"/>
<path d="M73.4338 58.9347L69.9035 60.4349L66.7592 69.4014L72.1197 66.5012L73.9369 68.2544L73.4338 58.9347Z" fill="#536969"/>
<path d="M59.7117 68.6534C59.7117 68.6534 45.7987 93.2806 48.8086 97.4978C51.8184 101.715 78.6946 105.823 78.6946 105.823L79.8005 100.354C79.8005 100.354 60.2321 94.9815 59.8288 93.442L60.3232 87.271C60.3189 87.271 61.9322 70.8557 59.7117 68.6534Z" fill="#FDBCA0"/>
<path d="M59.8245 93.4399L60.3189 87.2689C60.3189 87.2689 61.9322 70.8536 59.7117 68.6469C59.7117 68.6469 45.7987 93.2742 48.8086 97.4914C49.7801 98.852 53.2496 100.204 57.4955 101.412L58.8096 100.954L61.3944 94.4604C60.4707 94.0461 59.8895 93.6928 59.8245 93.4399Z" fill="#405050"/>
<path d="M64.5386 95.1798C62.3832 97.1031 60.952 99.8331 60.5877 102.707C60.0195 102.716 59.4948 102.48 59.0264 102.158C58.4756 102.533 57.747 102.45 57.0921 102.35C56.8319 102.31 56.5413 102.254 56.3895 102.04C56.2898 101.9 56.2724 101.722 56.2551 101.551C56.19 100.88 56.1249 100.195 56.2854 99.541C56.4415 98.9042 56.8015 98.3373 57.1571 97.7834C57.773 96.8283 58.3888 95.8689 59.0047 94.9138C59.2172 94.5867 59.4297 94.2509 59.7376 94.0154C60.0456 93.7756 60.4619 93.6447 60.8262 93.7756C61.0517 93.8584 61.2339 94.0285 61.4464 94.1419C61.802 94.3294 62.2184 94.3425 62.6174 94.3294C63.0164 94.3163 63.424 94.2771 63.81 94.3818C64.196 94.4864 64.4562 94.783 64.5386 95.1798Z" fill="#536969"/>
<path d="M60.3666 72.7247C60.3102 78.0584 60.1064 83.392 59.7507 88.7169C59.651 90.2302 59.5339 91.7436 59.4081 93.2569C59.3734 93.6624 60.0066 93.6494 60.0413 93.2438C60.4837 87.9276 60.7743 82.5983 60.9174 77.2646C60.9564 75.747 60.9824 74.2293 60.9998 72.716C61.0041 72.3017 60.3709 72.3148 60.3666 72.7247Z" fill="#A1B8B8"/>
<path d="M78.6903 105.817C78.6903 105.817 89.3852 110.195 89.871 109.301C90.3567 108.412 85.2868 106.72 85.2868 106.72C85.2868 106.72 92.3951 108.168 92.5816 107.435C92.7681 106.707 85.9287 104.884 85.9287 104.884C85.9287 104.884 94.0952 106.384 94.1949 105.529C94.2947 104.674 86.9912 103.069 86.9912 103.069C86.9912 103.069 93.8523 103.462 93.9 102.838C93.9824 101.717 79.7962 100.348 79.7962 100.348L78.6903 105.817Z" fill="#FDBCA0"/>
<path d="M80.8151 100.457C80.8151 100.457 86.271 98.4683 86.8218 98.9001C87.3726 99.3318 84.4148 101.508 84.4148 101.508L80.8151 100.457Z" fill="#FDBCA0"/>
<path d="M64.7209 94.6088H36.4786C36.1793 94.6088 36.0015 94.853 36.0839 95.1539L40.9977 113.109C41.0801 113.41 41.388 113.654 41.6873 113.654H69.9296C70.2288 113.654 70.4066 113.41 70.3242 113.109L65.4104 95.1539C65.3324 94.853 65.0201 94.6088 64.7209 94.6088Z" fill="#E7DFC2"/>
<path d="M68.2032 113.436L64.031 98.198C63.9616 97.9407 63.6971 97.7357 63.4455 97.7357H39.4795C39.2236 97.7357 39.0761 97.9407 39.1455 98.198L43.3177 113.436C43.3133 113.427 43.3437 113.536 43.3784 113.649H68.2682L68.2032 113.436Z" fill="#F7F4E3"/>
<path d="M38.5297 95.9564C38.5297 96.3271 38.2304 96.6237 37.8661 96.6237C37.4975 96.6237 37.2026 96.3228 37.2026 95.9564C37.2026 95.5901 37.5018 95.2892 37.8661 95.2892C38.2304 95.2892 38.5297 95.5901 38.5297 95.9564Z" fill="#405050"/>
<path d="M38.1744 95.9564C38.1744 96.1265 38.0357 96.266 37.8665 96.266C37.6974 96.266 37.5586 96.1265 37.5586 95.9564C37.5586 95.7863 37.6974 95.6467 37.8665 95.6467C38.0357 95.6467 38.1744 95.7863 38.1744 95.9564Z" fill="#576E6E"/>
<path d="M62.9169 97.9451H38.9508C38.695 97.9451 38.5475 98.1501 38.6169 98.4074L42.789 113.645C42.7847 113.628 42.9192 114.107 42.9192 114.107H67.8046L67.6789 113.645L63.5067 98.4074C63.433 98.1501 63.1728 97.9451 62.9169 97.9451Z" fill="#EBB254"/>
<path d="M67.6743 113.645L64.9898 103.833H40.0999L42.7845 113.645C42.7802 113.628 42.9146 114.107 42.9146 114.107H67.8001L67.6743 113.645Z" fill="#FEDEA6"/>
<path d="M62.9642 116.467H38.0917L42.9274 114.107H67.7999L62.9642 116.467Z" fill="#EBB254"/>
<path d="M94.6805 68.9304L145.384 60.4568C146.212 60.3172 146.967 60.9714 146.963 61.8261L146.746 94.1769C146.741 94.8311 146.29 95.3893 145.662 95.5202L96.1985 105.812C94.9841 106.1 93.5399 105.324 93.5399 103.532V70.2911C93.5443 69.6195 94.0257 69.0438 94.6805 68.9304Z" fill="#FEDEA6"/>
<path d="M96.9749 68.8386L145.384 60.7662C146.212 60.6266 146.967 61.2764 146.963 62.1225L146.755 94.2291C146.75 94.8745 146.299 95.4284 145.67 95.5592L97.4693 105.516C96.6279 105.69 95.8386 105.045 95.8386 104.177V70.1906C95.8429 69.5146 96.32 68.9476 96.9749 68.8386Z" fill="#FAC978"/>
<path d="M118.855 85.6726L116.049 101.669L131.297 98.5205L118.855 85.6726Z" fill="#EBB254"/>
<path d="M118.221 114.949L111.529 112.664C110.458 112.297 110.523 110.753 111.62 110.479L122.966 107.622C123.165 107.574 123.369 107.578 123.564 107.635L130.152 109.615C131.241 109.942 131.228 111.495 130.135 111.804L118.893 114.966C118.672 115.027 118.438 115.023 118.221 114.949Z" fill="#EBB254"/>
<path d="M128.231 84.1463C128.101 83.5445 127.524 83.1564 126.922 83.2654L119.783 84.565C119.249 84.661 118.859 85.1276 118.85 85.6727L118.551 115.062L133.904 110.74L128.231 84.1463ZM126.405 106.999C124.254 107.221 122.255 104.879 121.938 101.765C121.622 98.6558 123.109 95.9519 125.26 95.7338C127.412 95.5114 129.411 97.8533 129.728 100.967C130.044 104.077 128.557 106.776 126.405 106.999Z" fill="#FEDEA6"/>
<path d="M124.216 31.377C116.951 31.377 111.04 25.4327 111.04 18.1279C111.04 10.823 116.951 4.87878 124.216 4.87878C131.48 4.87878 137.391 10.823 137.391 18.1279C137.391 25.4327 131.48 31.377 124.216 31.377ZM124.216 8.63371C119.007 8.63371 114.77 12.8945 114.77 18.1322C114.77 23.3699 119.007 27.6307 124.216 27.6307C129.424 27.6307 133.661 23.3699 133.661 18.1322C133.661 12.8945 129.424 8.63371 124.216 8.63371Z" fill="#F5E2D5"/>
<path d="M119.28 21.4727L118.694 20.3693L123.686 17.7047L125.794 9.77179L126.995 10.0945L124.749 18.5551L119.28 21.4727Z" fill="#F5E2D5"/>
<path d="M90.3389 29.1817C89.9891 28.4584 88.9988 26.6688 86.9399 25.7525C85.5452 25.132 84.3065 25.1986 83.018 25.2681C80.6386 25.3959 78.893 26.1487 77.4778 26.7743C75.9565 27.4471 74.3768 28.1451 72.7019 29.682C70.8997 31.335 70.1278 32.9111 68.9 35.4197C68.3103 36.6239 68.0833 37.3484 68.202 38.1645C68.3059 38.8809 68.5963 39.114 68.6741 40.0203C68.7002 40.3195 68.7448 41.182 68.3865 42.1205C67.9846 43.173 67.5298 43.1314 66.7575 44.4052C66.1841 45.3511 65.7659 46.0417 65.8507 46.9018C65.8869 47.2688 66.2486 47.9721 66.9724 49.3789C67.3309 50.0764 67.4933 50.3517 67.5174 50.8253C67.5277 51.0383 67.5677 51.8158 66.9817 52.4178C66.4203 52.9943 65.6803 53.0049 65.5277 53.0036C65.4944 53.6043 65.7883 54.1679 66.2843 54.4454C66.8926 54.7864 67.7047 54.6412 68.2072 54.0694C68.001 54.2725 67.699 54.6182 67.4727 55.1202C67.2928 55.519 67.0311 56.0985 67.1898 56.7155C67.3376 57.2911 67.6935 57.2848 67.9609 58.0757C68.076 58.4161 68.18 58.7382 68.0396 59.0599C67.8215 59.5588 67.1821 59.6752 67.0836 59.6918C67.4877 60.0896 68.0951 60.1961 68.5969 59.9602C69.0606 59.7421 69.3589 59.2677 69.3605 58.7455C69.3766 59.0418 69.4773 60.2718 70.4818 61.2226C71.8956 62.5607 73.811 62.1269 73.9553 62.0914C73.2139 62.1844 72.5728 61.8015 72.4142 61.2699C72.2849 60.836 72.4884 60.3424 72.7953 60.0719C73.2062 59.7092 73.5471 59.9721 74.1456 59.5941C74.1964 59.5621 74.9328 59.0846 74.8798 58.5433C74.8459 58.196 74.5141 58.0917 74.546 57.8088C74.5756 57.5498 74.8848 57.3737 75.242 57.2153C76.3592 56.7196 77.324 56.6564 77.324 56.6564C79.173 56.5346 80.1366 56.4716 80.584 57.0658C80.8131 57.3707 80.6563 57.5154 80.7891 59.0005C80.8823 60.0441 80.9293 60.5662 81.1437 61.0463C81.6739 62.2337 82.8051 62.7501 82.9011 62.7922C84.5058 63.4965 86.0287 62.631 86.1949 62.5323C85.4622 62.3042 84.729 62.0756 83.9964 61.8471C84.0452 61.852 84.6677 61.9036 85.0389 61.4417C85.3704 61.0284 85.3578 60.3832 84.9729 59.9111C85.1966 59.9538 86.3327 60.1473 87.4221 59.4173C88.4228 58.7474 88.7101 57.7516 88.7738 57.5058C88.3472 57.7608 87.883 57.633 87.7443 57.3653C87.6241 57.1344 87.7352 56.7776 87.9568 56.6436C88.2826 56.4466 88.585 56.8923 89.0275 56.7914C89.5056 56.6821 89.499 56.0822 90.2827 54.9469C90.5553 54.5513 90.7323 54.2949 91.0367 54.0259C91.7977 53.3521 92.3564 53.4853 92.9312 53.0963C93.9729 52.3916 93.9972 50.6985 94.0094 49.8707C94.036 48.0719 93.3132 47.6666 93.4207 46.0538C93.4942 44.9552 93.8861 44.2843 94.2604 43.4608C94.5376 42.8488 95.9954 39.5305 95.8111 36.1424C95.5839 31.9673 92.9795 29.8259 92.7441 29.6503C92.3344 29.3456 91.8941 29.2095 91.8941 29.2095C91.7927 29.1783 91.5065 29.0968 91.1246 29.089C90.8004 29.0827 90.5297 29.1321 90.3389 29.1817Z" fill="#405050"/>
<path d="M73.8272 60.7163C73.2262 60.2363 74.944 58.1186 75.0686 56.8639L75.0498 56.2874L75.0791 56.8351L81.304 59.067L82.1661 62.1061L82.1661 65.5806L77.8294 66.0161L73.66 64.6263C73.66 63.2365 73.66 59.067 73.8272 60.7163Z" fill="#F0D5B1"/>
<path d="M81.6902 60.4568C79.4122 60.9054 76.8261 58.9464 75.0499 56.8948C75.1767 55.9348 75.3855 55.7405 75.5102 54.4858L75.5207 54.457L81.0965 57.3838L81.6902 60.4568Z" fill="#E4C398"/>
<path d="M72.3494 42.2292C72.2171 42.8446 71.5878 45.9682 72.5708 49.7378C72.9156 51.0581 74.7995 58.2826 79.788 59.1172C85.0173 59.9926 89.2945 53.116 89.7941 52.3125C91.594 49.4189 92.0253 46.6511 92.1475 45.6522C92.8991 39.4918 92.4906 33.0877 84.9978 31.7548C77.3861 30.4005 73.7281 35.7948 72.3494 42.2292Z" fill="#F0D5B1"/>
<path d="M72.2307 44.13C72.1822 42.5776 71.8745 41.4648 71.6411 40.8035C71.4353 40.2196 71.1864 39.7053 70.6774 39.4262C70.5616 39.3628 70.2057 39.1678 69.8235 39.2748C69.3806 39.3991 69.1236 39.8672 68.9146 40.3936C68.2572 42.0525 68.3112 43.7128 68.3423 44.2643C68.3706 44.7721 68.5882 45.6975 69.024 47.5483C69.2049 48.3156 69.3557 48.8932 69.8697 49.2725C69.9347 49.3204 70.4144 49.6641 70.9926 49.5892C71.8079 49.4835 72.5429 48.5822 72.6815 47.3583C72.531 46.2825 72.3811 45.2061 72.2307 44.13Z" fill="#F0D5B1"/>
<path d="M85.1699 48.6712C85.6267 49.6868 85.9579 50.6669 86.2089 51.7574C86.3261 52.4944 85.3879 52.8698 84.7861 52.7699C84.2111 52.7134 83.6637 52.4181 83.3369 51.9817C83.8018 52.2723 84.3084 52.3875 84.8034 52.3798C85.1566 52.3613 85.7716 52.2201 85.7114 51.8087C85.4859 50.8015 85.2343 49.7211 85.1699 48.6712Z" fill="#B59B76"/>
<path d="M86.2726 42.8205C86.2424 42.7237 87.3876 42.2069 88.6303 41.9127C89.3969 41.731 90.062 41.6665 90.5529 41.6452C90.6428 41.641 90.7315 41.6602 90.811 41.7016C91.0144 41.8074 91.2395 41.9447 91.4697 42.124C91.9507 42.4989 92.2705 42.9128 92.4754 43.2369C92.4958 43.2693 92.4602 43.3077 92.4261 43.2903C92.3281 43.2399 92.2294 43.1891 92.13 43.1381C90.9929 42.5486 90.9081 42.4664 90.6903 42.3717C90.203 42.1602 89.3473 42.3034 87.656 42.5983C86.6486 42.7742 86.2889 42.8738 86.2726 42.8205Z" fill="#405050"/>
<path d="M84.9707 42.331C85.0323 42.2505 84.1342 41.3713 83.0685 40.6678C82.4111 40.2335 81.8084 39.9443 81.3547 39.7554C81.2722 39.7206 81.1823 39.7081 81.093 39.7196C80.8656 39.749 80.6074 39.8006 80.3296 39.8898C79.7486 40.0764 79.3064 40.3551 79.0026 40.589C78.9723 40.6125 78.9925 40.6608 79.0301 40.6561C79.1398 40.6425 79.2503 40.6288 79.3609 40.6146C80.6317 40.4525 80.7391 40.4045 80.9767 40.3905C81.5066 40.3593 82.2605 40.788 83.7476 41.6466C84.6332 42.1578 84.9367 42.375 84.9707 42.331Z" fill="#405050"/>
<path d="M69.7903 48.2514C69.7123 48.6917 69.9389 49.1004 70.2969 49.1639C70.655 49.2274 71.0087 48.9216 71.0868 48.4813C71.1649 48.0409 70.9379 47.6321 70.5798 47.5687C70.2218 47.5052 69.8684 47.811 69.7903 48.2514Z" fill="white"/>
<path d="M70.2277 49.2336C70.3656 49.5162 70.5533 50.042 70.5341 50.7768C70.5187 51.3575 70.3386 51.8579 70.0625 52.0827C69.9468 52.1774 69.8273 52.212 69.6972 52.1889C69.5799 52.1681 69.4855 52.104 69.4176 51.999C69.3163 51.8438 69.1802 51.45 69.4019 50.5551C69.5487 49.9643 69.9673 49.4854 70.2277 49.2336ZM70.2916 48.8388C70.2916 48.8388 69.398 49.5141 69.1552 50.4943C68.821 51.8447 69.2017 52.3596 69.6531 52.4396C70.2776 52.5504 70.7621 51.7935 70.7891 50.7841C70.8218 49.5262 70.2916 48.8388 70.2916 48.8388Z" fill="white"/>
<path d="M70.3683 52.0728L70.0807 51.3151L69.9243 51.3744L70.2119 52.1321L70.3683 52.0728Z" fill="white"/>
<path d="M69.8524 51.3595L69.7264 51.2501L69.1946 51.8621L69.3206 51.9716L69.8524 51.3595Z" fill="white"/>
<path d="M69.8352 51.0635L69.8543 50.8974L69.1271 50.8138L69.108 50.9799L69.8352 51.0635Z" fill="white"/>
<path d="M70.7231 51.1448L70.7422 50.9786L70.0803 50.9025L70.0612 51.0687L70.7231 51.1448Z" fill="white"/>
<path d="M70.664 50.0991L70.5381 49.9896L70.0062 50.6017L70.1322 50.7111L70.664 50.0991Z" fill="white"/>
<path d="M69.9213 50.5891L69.6336 49.8314L69.4773 49.8908L69.7649 50.6485L69.9213 50.5891Z" fill="white"/>
<path d="M82.6863 46.8679C82.9656 45.2925 82.0158 43.8009 80.8508 43.3023C79.5057 42.7268 78.0609 43.6008 77.8515 43.7422C77.1147 44.239 76.8008 44.9314 76.6056 45.2968C76.847 45.6997 77.5435 46.7385 78.8542 47.245C80.7322 47.9709 82.3999 47.0352 82.6863 46.8679Z" fill="#B59B76"/>
<path d="M82.6665 46.9797C82.716 45.5075 81.9444 44.2034 80.7743 43.7335C79.4234 43.191 78.099 43.9844 77.8917 44.108C77.1659 44.5427 76.7655 45.131 76.5772 45.457C76.8248 45.8247 77.5374 46.773 78.8529 47.2524C80.7378 47.9396 82.384 47.1252 82.6665 46.9797Z" fill="white"/>
<path d="M78.8181 45.501C78.6549 46.4214 79.2688 47.2999 80.1892 47.4632C81.1096 47.6264 81.9881 47.0125 82.1513 46.0921C82.3145 45.1717 81.7007 44.2932 80.7803 44.13C79.8599 43.9667 78.9814 44.5806 78.8181 45.501Z" fill="#756754"/>
<path d="M80.0836 45.9822C80.0085 46.4056 80.2913 46.8099 80.7148 46.885C81.1378 46.96 81.5424 46.6776 81.6175 46.2542C81.6926 45.8307 81.4098 45.4265 80.9867 45.3514C80.5629 45.2763 80.1587 45.5587 80.0836 45.9822Z" fill="#3B342A"/>
<path d="M79.827 45.766C79.799 45.924 79.9045 46.075 80.0626 46.1031C80.2206 46.1311 80.3713 46.0255 80.3993 45.8674C80.4274 45.7094 80.3218 45.5584 80.1641 45.5304C80.0058 45.5019 79.8551 45.6075 79.827 45.766Z" fill="white"/>
<path d="M76.5772 45.457C76.8241 45.2278 77.0554 44.9734 77.3331 44.7842C77.599 44.5955 77.8846 44.4471 78.182 44.3418C79.3658 43.9113 80.7178 44.1739 81.6366 45.0371C82.1571 45.5161 82.5649 46.225 82.67 46.9594C82.8704 46.1631 82.5792 45.2998 82.0464 44.6525C80.5378 42.8244 77.4306 43.1807 76.5772 45.457Z" fill="#443119"/>
<path d="M77.2856 44.4669C76.9291 44.2922 76.6099 43.9967 76.4599 43.6221C76.5354 43.9293 76.7213 44.2004 76.9515 44.4156C77.03 44.4883 77.11 44.5544 77.2063 44.6166L77.2856 44.4669Z" fill="#443119"/>
<path d="M76.9929 44.7959C76.6781 44.7322 76.328 44.5965 76.166 44.2975C76.2499 44.5512 76.4771 44.728 76.706 44.8509C76.785 44.8926 76.863 44.9295 76.9523 44.9605L76.9929 44.7959Z" fill="#443119"/>
<path d="M76.7117 45.1263C76.5355 45.1322 76.3408 45.0886 76.1972 44.9771C76.1473 44.9394 76.1065 44.8897 76.0702 44.8359C76.1379 45.0291 76.3132 45.1652 76.5005 45.2379C76.5661 45.2632 76.6282 45.2829 76.7036 45.2959L76.7117 45.1263Z" fill="#443119"/>
<path d="M86.2529 47.6224C86.4059 46.1095 87.6614 44.9923 88.8564 44.8391C90.2356 44.6617 91.3287 45.8356 91.4841 46.0193C92.0283 46.6645 92.1355 47.3792 92.2197 47.7638C91.894 48.0696 90.9876 48.8385 89.6582 48.9614C87.7528 49.1376 86.4715 47.8496 86.2529 47.6224Z" fill="#B59B76"/>
<path d="M86.2418 47.7296C86.5782 46.371 87.6225 45.3785 88.814 45.2528C90.1899 45.1074 91.195 46.1762 91.3523 46.3433C91.9028 46.9292 92.1165 47.5711 92.2037 47.9175C91.8814 48.1895 90.9843 48.8717 89.6572 48.9688C87.7554 49.1078 86.4622 47.9363 86.2418 47.7296Z" fill="white"/>
<path d="M88.0938 47.2449C88.0065 48.1006 88.6304 48.8645 89.4859 48.9514C90.3417 49.0384 91.1059 48.4148 91.1928 47.5594C91.2794 46.7035 90.6562 45.9393 89.8003 45.8528C88.9441 45.7658 88.1804 46.389 88.0938 47.2449Z" fill="#756754"/>
<path d="M89.3216 47.582C89.2814 47.9756 89.5686 48.3272 89.9622 48.3671C90.3558 48.4073 90.7074 48.1205 90.7472 47.7268C90.7875 47.3328 90.5003 46.9812 90.1063 46.9413C89.7122 46.9014 89.3611 47.1883 89.3216 47.582Z" fill="#3B342A"/>
<path d="M89.109 47.2388C89.094 47.3859 89.2011 47.5171 89.3483 47.5318C89.4957 47.547 89.6266 47.4397 89.6417 47.2927C89.6567 47.1459 89.5495 47.0147 89.4021 46.9996C89.2557 46.985 89.1241 47.0917 89.109 47.2388Z" fill="white"/>
<path d="M92.2045 47.9177C92.0385 47.6441 91.8929 47.3514 91.6882 47.1069C91.4941 46.8655 91.2713 46.6554 91.0268 46.482C90.0561 45.7813 88.7518 45.6706 87.6885 46.221C87.0881 46.524 86.5309 47.0663 86.2441 47.7104C86.2676 46.9301 86.7581 46.2167 87.4133 45.7635C89.2668 44.4831 92.015 45.615 92.2045 47.9177Z" fill="#443119"/>
<path d="M91.8137 46.8289C92.1851 46.7617 92.5534 46.5745 92.7885 46.2708C92.6394 46.5321 92.3989 46.7318 92.1327 46.8688C92.0415 46.9148 91.9515 46.9546 91.8483 46.9867L91.8137 46.8289Z" fill="#443119"/>
<path d="M91.9956 47.2058C92.3004 47.2292 92.6555 47.1962 92.8815 46.9649C92.7385 47.1749 92.4852 47.2775 92.2445 47.3307C92.1607 47.3481 92.0798 47.3614 91.9905 47.3668L91.9956 47.2058Z" fill="#443119"/>
<path d="M92.1669 47.5808C92.3265 47.6323 92.5161 47.6428 92.6762 47.5779C92.732 47.5563 92.7817 47.5215 92.8286 47.4817C92.717 47.6408 92.5214 47.7199 92.331 47.7373C92.2654 47.7435 92.2029 47.7457 92.1307 47.7378L92.1669 47.5808Z" fill="#443119"/>
<path d="M70.5413 40.4352C70.7128 40.6715 70.9292 41.0314 71.0479 41.5059C71.1911 42.0814 71.0798 42.3802 71.2433 42.9009C71.3286 43.1727 71.5002 43.541 71.8832 43.9319C72.0098 43.3955 72.1368 42.8592 72.2634 42.3224C72.2942 43.019 72.349 43.7514 72.4335 44.5148C72.5895 45.9142 72.8232 47.1984 73.0921 48.3543C73.2667 47.0405 73.496 45.9593 73.6887 45.1696C74.09 43.5244 74.3457 43.0894 74.7174 42.7576C75.2483 42.2845 75.8465 42.1737 76.6509 42.0248C78.0825 41.7597 78.35 42.1218 79.6738 41.9281C80.5025 41.807 81.6001 41.6464 82.4306 40.8352C83.1213 40.16 82.9733 39.6735 83.9032 38.5967C84.384 38.0401 84.827 37.7035 85.2216 37.4069C85.9035 36.895 87.0887 36.1377 88.8252 35.6414C89.0992 36.8627 89.498 38.2574 90.0885 39.7569C90.5541 40.939 91.0599 41.9864 91.5571 42.8965C91.233 43.4222 90.6631 44.5086 90.5977 45.9851C90.5031 48.1131 91.9606 50.2248 92.3036 50.6958C92.2652 50.2477 92.4612 49.0889 92.9768 48.0308C93.3524 47.2595 93.3609 46.6965 93.5238 46.0771C93.6495 45.6933 95.7562 38.9149 91.4591 33.9888C88.9405 31.1005 85.593 30.4231 84.9823 30.3091C84.175 30.158 81.1727 29.6874 77.9873 31.2198C75.3328 32.4969 73.944 34.4936 72.759 36.1989C71.6306 37.8221 70.9512 39.3398 70.5413 40.4352Z" fill="#405050"/>
<path d="M73.7482 41.3835C73.6225 41.6437 72.398 44.0634 69.5491 44.6043C66.6619 45.1523 64.618 43.2942 64.4157 43.1032C66.1864 42.5809 66.9378 41.7682 67.2975 41.1256C67.9073 40.0364 67.5668 39.1196 68.3957 37.3125C68.8182 36.3918 69.1047 35.7663 69.5734 35.6655C70.2392 35.522 71.4353 36.4013 73.7482 41.3835Z" fill="#405050"/>
<path d="M84.2761 55.12C84.2668 55.0695 84.2472 55.063 84.2472 55.063C84.2472 55.063 83.412 55.0369 82.4081 54.799C80.9502 54.4536 79.8803 53.8609 79.8803 53.8609C79.8803 53.8609 80.4632 56.0408 81.8989 56.2575C83.0261 56.4282 84.3481 55.5241 84.2761 55.12Z" fill="white"/>
</svg>
