<svg width="182" height="191" viewBox="0 0 182 191" fill="none" xmlns="http://www.w3.org/2000/svg">
<mask id="mask0_9_3812" style="mask-type:luminance" maskUnits="userSpaceOnUse" x="12" y="32" width="158" height="138">
<path d="M78.7412 34.4003C70.0308 36.3715 61.4237 40.1395 54.4433 45.7433C53.3386 46.6299 52.2087 47.6173 51.1075 48.6786C48.5644 51.1297 46.1744 53.9732 44.6048 56.8727C41.3059 62.9657 41.0344 71.6645 42.0267 78.3162C42.712 82.9132 45.6979 89.2945 44.2316 93.946C42.2452 100.247 31.782 99.9901 26.6764 101.568C21.9841 103.018 17.5341 106.585 15.1404 110.927C7.79831 124.248 16.6288 131.385 21.0464 137.342C26.0676 144.114 15.1267 152.303 21.4106 159.06C27.9816 166.126 35.8957 169.061 49.0324 169.061C75.06 169.061 80.8881 171.1 116.956 168.548C123.789 168.065 132.896 166.509 139.707 165.779C149.988 164.677 175.347 155.764 168.731 138.903C163.834 126.428 138.125 128.348 146.741 111.296C152.376 100.142 162.971 84.6627 149.796 74.8088C140.229 67.6536 134.105 63.5446 128.553 52.7257C122.475 40.881 113.945 34.4635 100.517 33.3359C97.8489 33.1117 95.1672 32.9778 92.4896 32.9778C87.8716 32.9784 83.2618 33.377 78.7412 34.4003Z" fill="white"/>
</mask>
<g mask="url(#mask0_9_3812)">
<path d="M175.346 32.9785H7.79785V171.101H175.346V32.9785Z" fill="url(#paint0_linear_9_3812)" fill-opacity="0.08"/>
</g>
<path d="M135.69 122.043C134.675 114.522 147.849 113.861 146.597 120.963C149.493 116.222 157.616 120.878 155.371 126.248C157.742 125.826 159.632 127.724 160.516 129.723C161.609 132.191 160.805 133.961 159.121 135.965C161.392 135.939 163.786 137.892 163.935 140.191C164.151 143.516 163.612 144.509 161.792 146.28C164.298 146.523 165.067 149.521 164.996 151.743C164.885 155.149 163.164 155.903 160.133 156.459C156.566 157.113 153.604 157.144 149.991 156.714C146.969 156.352 143.716 155.285 140.584 155.312C135.46 155.355 130.362 154.738 125.299 154.034C121.881 153.56 117.081 153.846 114.857 150.836C113.054 148.393 112.415 145.285 113.609 142.486C114.259 140.959 117.608 136.769 119.555 139.457C116.778 137.246 116.765 135.089 117.615 132.554C118.469 130.008 121.477 127.775 124.07 129.088C122.336 125.794 123.863 122.273 126.945 120.167C126.945 120.167 132.467 116.557 135.69 122.043Z" fill="#808AFF"/>
<path d="M95.7717 143.621C91.1523 138.589 98.4663 131.674 103.459 135.681C99.2976 127.611 113.838 123.048 114.376 131.58C118.031 127.003 126.377 129.443 124.528 135.753C131.581 133.678 134.973 142.785 130.713 146.137C134.393 147.001 135.035 152.435 132.376 154.517C129.974 156.398 124.014 155.954 120.875 155.955C116.732 155.955 112.532 155.708 108.496 155.378C103.915 155.002 96.7278 156.383 92.9276 153.085C91.2418 151.621 89.3601 150.299 90.2117 146.151C90.5428 144.539 94.1998 141.026 95.7717 143.621Z" fill="#AEB4FC"/>
<path d="M147.148 150.17C144.628 147.394 148.618 143.579 151.341 145.79C149.071 141.337 157.003 138.819 157.296 143.527C159.29 141.001 163.842 142.347 162.834 145.829C166.681 144.684 168.531 149.71 166.207 151.558C168.214 152.035 168.565 155.033 167.115 156.181C165.804 157.22 162.554 156.975 160.841 156.975C158.581 156.975 156.289 156.839 154.089 156.656C151.59 156.449 147.669 157.211 145.596 155.391C144.676 154.584 143.651 153.855 144.116 151.566C144.296 150.677 146.29 148.738 147.148 150.17Z" fill="#AEB4FC"/>
<path d="M8 161C8 153.267 44.9372 147 90.4998 147C136.062 147 173 153.267 173 161" fill="#808AFF"/>
<path d="M173 161C173 169.285 136.062 176 90.4998 176C44.9372 176 8 169.285 8 161" fill="#808AFF"/>
<path fill-rule="evenodd" clip-rule="evenodd" d="M79 130C87.8264 134.313 96.832 134.171 106 130L92.5311 151L79 130Z" fill="#60A0BF"/>
<path fill-rule="evenodd" clip-rule="evenodd" d="M96.7414 150C96.7191 150.002 94.306 149.986 94.2837 149.984C64.7051 145.98 75.9732 131.299 76.7259 115.933C76.7529 115.423 76.7662 114.91 76.7662 114.399C76.7662 111.951 76.5048 109.571 76.1585 107.283C76.0889 106.811 76.0156 106.343 75.9373 105.88C74.409 96.5846 72.1143 88.8855 81.7266 84.2266C83.0472 83.5837 84.5931 83.0011 86.3961 82.4795C88.3042 81.9265 90.5343 81.436 93.1376 81.0112C93.1574 81.009 93.1775 81.0022 93.1979 81C93.2202 81.0022 93.2403 81.009 93.2601 81.0112C95.9191 81.4475 98.1897 81.9489 100.124 82.5156C118.708 87.959 110.264 99.6581 110.264 114.069C110.264 129.982 127.303 145.863 96.7414 150Z" fill="#F2EDE4"/>
<path fill-rule="evenodd" clip-rule="evenodd" d="M133.813 121.866L134.327 123.99L133.877 124.477C133.09 125.331 132.619 126.262 132.395 127.415L132.149 128.674L131 130.565L131.059 130.589C131.641 130.817 132.276 130.628 132.649 130.116L133.722 128.643L134.901 128.58L134.87 132.054L134.145 133.759L134.015 133.821C133.575 134.031 133.32 134.476 133.357 134.972L133.358 135L137.462 134.088C138.068 133.952 138.541 133.605 138.862 133.06L139.224 132.443C139.559 131.874 139.742 131.325 139.818 130.665L139.923 129.761C140.088 128.321 139.991 127.061 139.608 125.665L138.247 120.706C137.835 119.2 133.447 120.347 133.813 121.866Z" fill="#F29D72"/>
<path fill-rule="evenodd" clip-rule="evenodd" d="M100 82.7422C100 86.1983 96.8665 89 93.0011 89C92.9586 89 92.9166 89 92.875 88.9984C89.066 88.9396 86 86.1612 86 82.7422C86 82.6848 86.0019 82.626 86.005 82.569C87.9492 81.9874 90.2229 81.4707 92.875 81.022V81C92.8958 81.0033 92.9169 81.0069 92.9377 81.0102C92.9585 81.0069 92.98 81.0033 93.0011 81V81.022C95.7106 81.4809 98.0255 82.0107 99.9969 82.6077C100 82.6529 100 82.6982 100 82.7422Z" fill="#D9C9AC"/>
<path fill-rule="evenodd" clip-rule="evenodd" d="M98.6566 85.2652C97.4199 88.0089 93.6583 88.0065 93.3664 87.9993C92.9277 87.9922 89.4839 87.8709 88.3425 85.2602C87.9248 84.311 87.9629 83.369 88.0741 82.7151C88.1097 82.5018 88.1527 82.3203 88.1932 82.1776C88.1932 82.1679 88.1957 82.1629 88.1981 82.1558C88.9028 81.9015 89.4866 81.5141 89.947 81.0297C90.9177 80.0102 91.3354 78.557 91.1718 77H95.8255C95.6927 78.4314 96.0202 79.8722 96.9056 80.8941C97.2782 81.325 97.7523 81.681 98.3291 81.9282C98.4885 82.001 98.6451 82.0759 98.8017 82.1558C98.8065 82.1726 98.8111 82.1922 98.8135 82.209C98.8327 82.2792 98.8492 82.347 98.8635 82.4148C99.1124 83.5312 99.0076 84.4829 98.6566 85.2652Z" fill="#DDB58A"/>
<path fill-rule="evenodd" clip-rule="evenodd" d="M112.072 166.21C112.703 166.585 113.424 166.924 114.219 167.207C118.106 168.588 122.314 168.119 123.615 166.16C124.915 164.201 122.818 161.492 118.93 160.11C117.353 159.55 115.722 159.294 114.256 159.318C113.19 159.336 112.265 158.949 111.534 158.179C111.338 157.973 111.114 157.785 110.866 157.622C109.122 156.479 106.777 156.956 105.626 158.689C104.475 160.422 104.956 162.753 106.7 163.897C107.04 164.121 107.405 164.282 107.778 164.384C109.362 164.818 110.663 165.372 112.072 166.21Z" fill="#141414"/>
<path fill-rule="evenodd" clip-rule="evenodd" d="M101.391 154L109.423 157.731C112.419 159.123 110.862 164.084 107.139 162.785L98 159.597L101.391 154Z" fill="#DDB58A"/>
<path fill-rule="evenodd" clip-rule="evenodd" d="M104 154.486L100.123 161C100.123 161 99.7786 160.975 99.6011 160.948C88.1043 159.108 76.19 154.811 64.8466 147.954C60.042 145.05 55.5823 141.832 51.4968 138.374C49.7358 136.882 48.6986 135.097 48.2564 133.245C46.6024 126.344 53.1898 118.536 61.1228 121.741C66.0562 123.735 70.9628 126.18 75.7674 129.085C86.9433 135.839 96.2563 144.285 103.332 153.534C103.439 153.674 103.546 153.812 103.65 153.952C103.781 154.126 104 154.486 104 154.486Z" fill="#66A986"/>
<path fill-rule="evenodd" clip-rule="evenodd" d="M103 152.984L99.3783 159C99.3783 159 99.0357 158.976 98.8594 158.949C87.4316 157.141 75.589 152.916 64.3159 146.175C59.5401 143.32 55.1072 140.157 51.0437 136.757C49.7229 135.652 48.8104 134.378 48.2549 133.038C46.6108 126.254 53.1587 118.578 61.0441 121.729C65.9479 123.688 70.825 126.092 75.6008 128.948C86.7096 135.589 95.9667 143.891 103 152.984Z" fill="#93BFA8"/>
<path fill-rule="evenodd" clip-rule="evenodd" d="M74.9288 164.21C74.2978 164.586 73.5771 164.924 72.782 165.206C68.8936 166.588 64.6871 166.12 63.3857 164.16C62.0846 162.201 64.1823 159.492 68.0704 158.11C69.6476 157.549 71.2779 157.294 72.7447 157.318C73.8106 157.336 74.7347 156.949 75.4669 156.179C75.6631 155.973 75.8861 155.785 76.1348 155.622C77.878 154.479 80.2238 154.956 81.3743 156.689C82.5245 158.422 82.0441 160.753 80.3009 161.897C79.96 162.12 79.5956 162.282 79.222 162.384C77.6392 162.818 76.3381 163.372 74.9288 164.21Z" fill="#141414"/>
<path fill-rule="evenodd" clip-rule="evenodd" d="M84.8701 152L77.4555 155.731C74.6901 157.122 76.1276 162.084 79.5645 160.785L88 157.597L84.8701 152Z" fill="#DDB58A"/>
<path fill-rule="evenodd" clip-rule="evenodd" d="M138.999 129.703C139.028 132.269 137.985 134.894 135.495 136.944C131.402 140.319 126.934 143.454 122.121 146.287C110.756 152.974 98.8201 157.165 87.3026 158.959C87.1879 158.978 86.9593 159 86.9593 159L83 152.482C83 152.482 83.1581 152.25 83.2459 152.136C83.2799 152.093 83.314 152.047 83.3502 152.003C90.4655 142.878 99.8711 134.54 111.179 127.885C115.993 125.052 120.908 122.667 125.851 120.723C132.925 117.941 138.931 123.665 138.999 129.703Z" fill="#66A986"/>
<path fill-rule="evenodd" clip-rule="evenodd" d="M139 129.7C138.777 131.939 137.699 134.164 135.515 135.952C131.396 139.324 126.901 142.461 122.056 145.29C110.62 151.976 98.6093 156.165 87.0188 157.959C86.9037 157.978 86.6733 158 86.6733 158L83 151.995C90.1601 142.872 99.625 134.536 111.005 127.883C115.849 125.051 120.795 122.667 125.768 120.723C132.887 117.942 138.931 123.664 139 129.7Z" fill="#93BFA8"/>
<path fill-rule="evenodd" clip-rule="evenodd" d="M81.8813 84.0383C81.9216 84.0249 81.9594 84.0115 82 84C73.583 90.4446 78.594 95.4646 79.49 105.787C79.1274 106.459 77.9698 106.726 76.3013 107.079C75.916 107.162 75.502 107.25 75.0653 107.346C72.1143 108.007 68.0748 109.162 64.0422 112.699C61.5185 114.91 57.1524 119.293 54.837 121.72C52.5015 124.174 47.307 123.082 48.0771 118.595C50.1799 106.326 64.3196 89.5729 81.8813 84.0383Z" fill="#F2EDE4"/>
<path fill-rule="evenodd" clip-rule="evenodd" d="M53.1871 121.866L52.674 123.99L53.1231 124.477C53.9104 125.331 54.3807 126.262 54.6053 127.415L54.8508 128.674L56 130.565L55.9412 130.589C55.3591 130.817 54.7239 130.628 54.3509 130.116L53.2788 128.643L52.0991 128.58L52.1293 132.054L52.855 133.759L52.9843 133.821C53.4248 134.031 53.6795 134.476 53.6434 134.972L53.6416 135L49.5382 134.088C48.9317 133.952 48.4583 133.605 48.1382 133.06L47.7756 132.443C47.4414 131.874 47.2575 131.325 47.1816 130.665L47.0777 129.761C46.9122 128.321 47.0084 127.061 47.3916 125.665L48.7522 120.706C49.1652 119.2 53.5538 120.347 53.1871 121.866Z" fill="#DDB58A"/>
<path fill-rule="evenodd" clip-rule="evenodd" d="M105 84.0003C122.614 89.486 136.814 106.295 138.923 118.596C139.692 123.083 134.503 124.173 132.169 121.721C129.856 119.293 125.493 114.912 122.975 112.702C115.769 106.378 108.552 107.669 107.542 105.792C108.436 95.4688 113.426 90.4495 105.001 84L105 84.0003Z" fill="#F2EDE4"/>
<path fill-rule="evenodd" clip-rule="evenodd" d="M133.813 121.866L134.326 123.99L133.877 124.477C133.089 125.331 132.619 126.262 132.395 127.415L132.149 128.674L131 130.565L131.059 130.589C131.641 130.817 132.277 130.628 132.649 130.116L133.721 128.643L134.901 128.58L134.871 132.054L134.145 133.759L134.015 133.821C133.575 134.031 133.32 134.476 133.356 134.972L133.358 135L137.462 134.088C138.068 133.952 138.541 133.605 138.861 133.06L139.225 132.443C139.559 131.874 139.742 131.325 139.818 130.665L139.922 129.761C140.088 128.321 139.991 127.061 139.608 125.665L138.248 120.706C137.835 119.2 133.446 120.347 133.813 121.866Z" fill="#DDB58A"/>
<path d="M99 82.3663C98.5667 82.6109 98.0228 82.887 97.3763 83.1391C96.6069 83.4413 95.2492 83.9599 93.3935 83.9984C92.8318 84.008 91.2451 83.996 89.377 83.2928C88.8446 83.0938 88.3827 82.8704 88 82.6639C88.0363 82.4526 88.0801 82.2726 88.1215 82.1312C88.1215 82.1216 88.1239 82.1167 88.1264 82.1096C88.8449 81.8576 89.4401 81.4737 89.9094 80.9936C90.8991 79.9833 91.325 78.5431 91.1582 77H95.9027C95.7673 78.4186 96.1012 79.8465 97.0039 80.8593C97.3838 81.2863 97.8671 81.6391 98.4552 81.8841C98.6176 81.9562 98.7773 82.0304 98.9369 82.1096C98.9419 82.1263 98.9466 82.1457 98.9491 82.1623C98.9683 82.232 98.9854 82.2991 99 82.3663Z" fill="#CD9C67"/>
<path d="M82.242 65.4688C81.8717 64.3716 81.3808 63.6348 81.0406 63.2015C80.66 62.7163 80.2835 62.2483 79.6638 62.0787C79.474 62.0266 78.8912 61.8672 78.4713 62.24C78.1289 62.5439 78.0441 63.0682 78.0129 63.6395C77.9446 64.8803 78.1403 66.142 78.7698 68.1342C79.4062 70.1496 79.8093 70.7671 80.2054 71.1994C80.8373 71.8888 81.3379 71.9827 81.5895 71.9964C81.7513 72.005 82.0837 72.0177 82.3987 71.7816C83.0251 71.3127 83.0024 70.2991 82.9991 70.2186C82.7467 68.6359 82.4941 67.0522 82.242 65.4688Z" fill="#DDB58A"/>
<path d="M105.115 71.558C105.301 71.7151 105.631 71.9427 106.077 71.9925C106.233 72.0097 106.866 72.0571 107.783 71.3212C109.813 69.6923 109.942 66.8632 109.993 65.7325C110.017 65.2082 110.015 64.3355 109.424 63.6196C109.266 63.4281 108.957 63.0643 108.462 63.0074C108.061 62.9616 107.741 63.1387 107.521 63.2642C106.673 63.7476 106.374 64.5926 106.274 64.9425C106.274 64.9425 104.546 70.3732 105.115 71.558Z" fill="#DDB58A"/>
<path d="M106.472 56.4118C106.073 54.9047 105.671 53.3886 104.48 51.9071C101.183 47.8092 94.7241 47.5657 90.7235 48.3635C88.9827 48.7105 85.9594 49.3138 83.6897 51.787C81.2413 54.4548 81.1366 57.7006 81.0132 61.517C80.8933 65.2214 81.6035 67.8106 82.6939 71.7875C83.1236 73.3541 83.9181 75.9518 85.806 78.5145C86.6328 79.6365 87.3885 80.3714 88.3891 80.917C89.5927 81.5729 90.656 81.6858 92.1862 81.8476C93.8017 82.0187 95.3687 82.1846 97.1661 81.5174C97.3832 81.4367 98.2646 81.0996 99.3337 80.2962C102.533 77.8919 104.727 73.3292 105.351 71.968C105.351 71.968 108.131 61.0365 106.472 56.4118Z" fill="#DDB58A"/>
<path d="M105.724 66.1287C106.578 64.6916 107.472 62.8449 108.113 60.6049C108.619 58.8328 109.297 56.3726 108.859 53.2892C108.586 51.3597 108.285 49.239 106.52 47.9145C105.134 46.8735 103.519 46.8321 102.738 46.8696C102.767 46.1096 102.608 45.5512 102.489 45.2272C101.636 42.9087 98.9601 42.2371 98.6072 42.1543C98.066 42.0269 97.6208 42.0052 97.3002 42.0009C94.7732 41.9671 92.2472 42.9378 90.4452 43.8337C90.4452 43.8337 87.3022 45.1468 84.2245 47.3675C83.6148 47.8075 82.622 48.5708 82.383 49.806C82.3066 50.2021 82.3271 50.5442 82.3581 50.7764C81.9663 50.9123 80.3997 51.5054 79.5464 53.1652C79.2298 53.7804 79.0819 54.4078 79.0236 55.4794C78.8371 58.9016 79.8106 61.6533 80.0189 62.2227C80.4626 63.4361 81.241 65.1616 82.6318 67C82.3833 66.0664 82.1685 64.7192 82.4827 63.1932C82.6247 62.5028 82.768 62.2948 83.4283 60.5055C84.1438 58.5665 84.5019 57.5973 84.6973 56.7232C84.917 55.7418 85.1044 54.2531 84.797 52.2942C86.1099 52.5062 87.5501 52.6553 89.102 52.6924C94.3661 52.8179 98.7453 51.6033 101.818 50.4033C101.737 52.0196 101.821 54.8275 103.161 57.9179C103.924 59.6772 104.875 61.0225 105.674 61.9739C105.691 63.3585 105.707 64.7434 105.724 66.1287Z" fill="#111010"/>
<path d="M86.2513 49.0236C87.1745 49.0101 88.2413 48.9415 89.4132 48.7677C90.7271 48.5726 91.8733 48.2905 92.8263 48C91.9519 48.6931 91.078 49.3861 90.2035 50.0792C91.1822 50.0363 92.2685 49.9404 93.4371 49.7592C95.1976 49.4866 96.7286 49.0859 98 48.6718C96.8833 49.2812 95.3148 49.9882 93.3293 50.4628C90.2507 51.1987 87.6043 51.0328 86 50.8146C87.2097 50.3242 88.4188 49.8339 89.6291 49.3433C88.503 49.2368 87.3771 49.1303 86.2513 49.0236Z" fill="#484443"/>
<path d="M83.682 53C83.9168 53.854 84.1188 55.0744 83.9177 56.5211C83.6319 58.5754 82.6666 60.1189 82 61C82.3505 59.6943 82.679 58.3296 82.9756 56.9093C83.2565 55.5641 83.4896 54.2594 83.682 53Z" fill="#484443"/>
<path d="M81.8562 56C81.9836 56.6187 82.1031 57.6184 81.8562 58.809C81.659 59.7607 81.296 60.503 81 61C81.0501 60.2666 81.1369 59.4725 81.2762 58.6289C81.4342 57.6711 81.6369 56.7925 81.8562 56Z" fill="#484443"/>
<path d="M104.189 52.7738C103.803 53.9815 104.099 55.1393 104.277 55.8316C104.693 57.4512 105.521 58.49 106 59C105.643 58.2916 105.221 57.2904 104.92 56.0157C104.534 54.3825 104.501 52.957 104.54 52C104.437 52.1717 104.3 52.4309 104.189 52.7738Z" fill="#484443"/>
<path d="M86 64.1429C86 64.1429 86.2017 66.1032 88.6005 65.9957C90.9993 65.8882 91 64 91 64C90.9006 64.1146 90.0451 65.0723 88.5969 65.1869C86.9229 65.3195 86.0427 64.1998 86 64.1429Z" fill="#331D09"/>
<path d="M97 64.1429C97 64.1429 97.2017 66.1032 99.6007 65.9957C102 65.8882 102 64 102 64C101.9 64.1146 101.045 65.0723 99.5967 65.1869C97.9228 65.3195 97.043 64.1998 97 64.1429Z" fill="#331D09"/>
<path d="M92.6281 74.303C90.8439 75.1711 88.7846 75.2314 87 74.4667C88.7754 74.7666 90.6258 74.2883 92.058 73.1292C92.7953 72.5892 93.4286 73.8907 92.6281 74.303Z" fill="black"/>
<path d="M94.942 73.1292C96.3746 74.2883 98.2241 74.7666 100 74.4667C98.2156 75.2314 96.1569 75.1711 94.3719 74.303C93.572 73.891 94.2034 72.5892 94.942 73.1292Z" fill="black"/>
<path d="M94.6034 78C94.5562 78 94.5071 77.9914 94.4602 77.9731C94.1405 77.8497 93.8038 77.8056 93.4646 77.7877C93.1459 77.7877 92.8324 77.8433 92.5321 77.9523C92.3264 78.0265 92.0995 77.9214 92.0241 77.7177C91.9494 77.5133 92.0544 77.2873 92.26 77.2127C92.6472 77.0721 93.0525 77.0004 93.4639 77H93.4696C93.9074 77 94.3371 77.0807 94.7474 77.2389C94.952 77.3181 95.052 77.5459 94.973 77.7489C94.9116 77.905 94.7622 78 94.6034 78Z" fill="#987957"/>
<path d="M96 58.1378L96.1526 60.2203C96.1526 60.2203 101.063 58.9926 105 61C105 61 102.164 57.2428 96 58.1378Z" fill="#542525"/>
<path d="M92 59.1131L91.8228 60.5456C91.8228 60.5456 86.9465 59.6541 83 61C83 61 85.871 58.4389 92 59.1131Z" fill="#542525"/>
<path d="M93.7454 63C94.2241 63.749 94.5864 64.9522 94.9297 65.767C95.6014 67.5619 96.8705 69.901 95.0948 71.5047C94.2314 72.1638 92.8089 72.1807 92 71.4616C93.4865 72.105 95.306 71.7588 95.599 70.0854C95.9647 68.6116 95.0765 67.2578 94.6439 65.8609C94.373 65.0228 93.8674 63.8643 93.7454 63Z" fill="#987957"/>
<path d="M90 75C90 75 92.9442 77.25 97 75C97 75 93.995 76.0661 90 75Z" fill="#652B28"/>
<path fill-rule="evenodd" clip-rule="evenodd" d="M76.5679 116C76.5945 115.487 76.6082 114.974 76.6082 114.461C76.6082 112.005 76.3466 109.618 76 107.322C76.4308 105.14 77.8684 98 77.8684 98C78.3611 104.021 77.3686 114.137 76.5679 116Z" fill="#D9C9AC"/>
<path fill-rule="evenodd" clip-rule="evenodd" d="M110.618 117C110.591 116.468 110.544 115.65 110.544 115.118C110.544 112.565 110.651 110.071 111 107.685C110.566 105.418 109.117 98 109.117 98C108.621 104.256 109.811 115.064 110.618 117Z" fill="#D9C9AC"/>
<mask id="mask1_9_3812" style="mask-type:alpha" maskUnits="userSpaceOnUse" x="0" y="0" width="182" height="229">
<path d="M0 10C0 4.47716 4.47715 0 10 0H95H171.754C177.372 0 181.888 4.62663 181.751 10.2429L176.672 219.243C176.54 224.67 172.103 229 166.675 229H10C4.47717 229 0 224.523 0 219V10Z" fill="#8E97FD"/>
</mask>
<g mask="url(#mask1_9_3812)">
<g clip-path="url(#clip0_9_3812)">
<path d="M155.99 105.955L167.136 102.22L161.548 85.8198L150.403 89.5555C149.966 89.7012 149.73 90.1707 149.881 90.6038L154.933 105.433C155.08 105.866 155.553 106.101 155.99 105.955Z" fill="#3F4553"/>
<path d="M155.998 105.632L167.421 101.803L162.038 86.0061L150.615 89.8349C150.334 89.928 150.183 90.2315 150.276 90.5148L155.312 105.296C155.41 105.575 155.717 105.725 155.998 105.632Z" fill="#DDDDE3"/>
<path d="M156.239 105.551L167.662 101.722L162.279 85.925L150.856 89.7538C150.574 89.8469 150.423 90.1505 150.517 90.4338L155.553 105.215C155.651 105.494 155.957 105.648 156.239 105.551Z" fill="#E2E5FF"/>
<path d="M156.855 105.664L168.001 101.928L162.414 85.5325L151.268 89.2681C150.832 89.4139 150.595 89.8833 150.746 90.3164L155.798 105.146C155.945 105.579 156.419 105.81 156.855 105.664Z" fill="#4E5567"/>
<path d="M161.789 85.7419L161.549 85.8223L167.136 102.222L167.376 102.142L161.789 85.7419Z" fill="#3F4553"/>
<path d="M163.381 98.5526L163.63 98.0264L164.152 98.2935L160.071 86.3175C159.998 86.107 159.814 86.1232 159.602 86.1961C159.39 86.2689 159.23 86.3661 159.304 86.5765L163.381 98.5526Z" fill="#93BFA8"/>
<path d="M138.339 90.0901L145.84 81.2698L144.324 80.0017L136.822 88.822L138.339 90.0901Z" fill="#3F4553"/>
<path d="M136.821 88.8191L138.335 90.0859L136.147 91.2799C136.074 91.3203 135.976 91.2353 136 91.1584L136.821 88.8191Z" fill="#F2EDE4"/>
<path d="M136.152 91.2837L136.744 90.9599L136.229 90.5269L136.009 91.1582C135.98 91.2351 136.078 91.3201 136.152 91.2837Z" fill="#3F4553"/>
<path d="M137.836 89.67L145.337 80.8496L144.823 80.4191L137.321 89.2394L137.836 89.67Z" fill="#4E5567"/>
</g>
<g clip-path="url(#clip1_9_3812)">
<path d="M55.5028 5C45.8335 5 38 12.8335 38 22.5028C38 32.1665 45.8335 40.0055 55.5028 40.0055C65.1665 40.0055 73.0055 32.172 73.0055 22.5028C73 12.8335 65.1665 5 55.5028 5ZM55.5028 37.0452C47.4708 37.0452 40.9603 30.5347 40.9603 22.5028C40.9603 14.4708 47.4708 7.96031 55.5028 7.96031C63.5347 7.96031 70.0452 14.4708 70.0452 22.5028C70.0452 30.5347 63.5347 37.0452 55.5028 37.0452Z" fill="#808AFF"/>
<path d="M68.9208 28.1095C72.0194 20.6996 68.5243 12.1808 61.1144 9.08217C53.7045 5.98359 45.1856 9.47863 42.087 16.8886C38.9885 24.2985 42.4835 32.8173 49.8934 35.9159C57.3034 39.0145 65.8222 35.5194 68.9208 28.1095Z" fill="#AEB4FC"/>
<path d="M55.5311 9.26147C54.5113 9.26147 54.5058 10.8491 55.5311 10.8491C56.5565 10.8491 56.5565 9.26147 55.5311 9.26147Z" fill="#808AFF"/>
<path d="M68.738 22.5294C68.738 21.5096 67.1504 21.504 67.1504 22.5294C67.1504 23.5548 68.738 23.5548 68.738 22.5294Z" fill="#808AFF"/>
<path d="M55.4686 35.7383C56.4885 35.7383 56.494 34.1506 55.4686 34.1506C54.4488 34.1506 54.4433 35.7383 55.4686 35.7383Z" fill="#808AFF"/>
<path d="M42.2617 22.4696C42.2617 23.4894 43.8494 23.4949 43.8494 22.4696C43.8494 21.4497 42.2617 21.4442 42.2617 22.4696Z" fill="#808AFF"/>
<path d="M61.7544 26.7528C61.6607 26.7528 61.5669 26.7307 61.4843 26.6756L55.2274 22.9545C55.0675 22.8608 54.9683 22.6844 54.9683 22.497V12.497C54.9683 12.2048 55.2053 11.9678 55.4975 11.9678C55.7897 11.9678 56.0267 12.2048 56.0267 12.497V22.1993L62.0245 25.766C62.2781 25.9148 62.3608 26.2401 62.2064 26.4937C62.1127 26.6591 61.9363 26.7528 61.7544 26.7528Z" fill="#808AFF"/>
</g>
<path d="M20.6207 58.4064L20.2715 56.4254L18.2463 56.7705C17.925 55.8456 17.4013 55.0311 16.7239 54.3685L17.9111 52.705L16.249 51.5522L15.0688 53.2088C14.2168 52.7947 13.2671 52.5669 12.2754 52.5738L11.9193 50.5652L9.915 50.9103L10.2642 52.912C9.32839 53.2296 8.50434 53.7472 7.83392 54.4168L6.15091 53.2434L4.98467 54.8862L6.6607 56.0527C6.24169 56.8948 6.01124 57.8335 6.01822 58.8137L4 59.1588L4.34917 61.1398L6.37438 60.7947C6.69562 61.7196 7.21938 62.5341 7.89677 63.1968L6.70959 64.8603L8.37165 66.013L9.55186 64.3564C10.4038 64.7706 11.3536 64.9983 12.3452 64.9914L12.7014 67.0001L14.7057 66.6549L14.3565 64.6532C15.2923 64.3357 16.1163 63.818 16.7867 63.1485L18.4697 64.3219L19.636 62.6791L17.96 61.5126C18.379 60.6705 18.6094 59.7317 18.6024 58.7516L20.6207 58.4064ZM12.6316 60.6221C11.605 60.8016 10.6273 60.1183 10.4457 59.1036C10.2642 58.0889 10.9555 57.1226 11.9821 56.9431C13.0087 56.7636 13.9864 57.447 14.1679 58.4617C14.3495 59.4763 13.6651 60.4427 12.6316 60.6221Z" fill="#9BA3FF"/>
<path d="M39.7278 54.4099V51.918H37.1788C36.9903 50.717 36.5224 49.6126 35.838 48.6601L37.6467 46.8723L35.8659 45.1122L34.0642 46.893C33.1074 46.2097 31.9971 45.7334 30.782 45.5332V43H28.2609V45.5194C27.0458 45.7058 25.9215 46.1683 24.9647 46.8447L23.156 45.0569L21.3752 46.8171L23.177 48.5979C22.4856 49.5436 22.0037 50.6411 21.8012 51.8421H19.2383V54.3339H21.7872C21.9758 55.535 22.4437 56.6394 23.1281 57.5919L21.3194 59.3797L23.1001 61.1398L24.9019 59.359C25.8586 60.0423 26.969 60.5186 28.1841 60.7187V63.252H30.7051V60.7325C31.9203 60.5462 33.0376 60.0837 34.0013 59.4073L35.81 61.195L37.5908 59.4349L35.7891 57.654C36.4805 56.7084 36.9623 55.6109 37.1648 54.4099H39.7278V54.4099ZM29.483 55.4452C28.1911 55.4452 27.1366 54.4098 27.1366 53.126C27.1366 51.849 28.1841 50.8067 29.483 50.8067C30.775 50.8067 31.8295 51.8421 31.8295 53.126C31.8225 54.4029 30.775 55.4452 29.483 55.4452Z" fill="#AEB4FC"/>
<g opacity="0.3">
<path d="M157.995 35.8971L139.266 31.6877C139.082 31.6477 138.966 31.4642 139.009 31.2808L141.367 20.7805C141.407 20.5971 141.591 20.4803 141.774 20.5237L160.503 24.7365C160.687 24.7765 160.803 24.96 160.76 25.1434L158.398 35.6436C158.358 35.8238 158.178 35.9405 157.995 35.8971Z" fill="#ECECEC"/>
<path d="M139.319 31.4408C139.269 31.4308 139.239 31.3807 139.253 31.334L141.614 20.8338C141.624 20.7838 141.674 20.7537 141.721 20.7671L160.45 24.9799C160.5 24.9899 160.53 25.0399 160.517 25.0866L158.155 35.5868C158.145 35.6369 158.095 35.6669 158.048 35.6535L139.319 31.4408Z" fill="#F5F4F5"/>
<path d="M157.867 24.1406L144.414 21.1152L144.359 21.3593L157.812 24.3846L157.867 24.1406Z" fill="#706F6E"/>
<path d="M143.105 22.625L142.485 22.4849C142.408 22.4682 142.358 22.3915 142.375 22.3115L142.472 21.8745C142.488 21.7978 142.565 21.7478 142.645 21.7644L143.265 21.9045C143.342 21.9212 143.392 21.9979 143.375 22.078L143.279 22.5149C143.259 22.5917 143.182 22.6417 143.105 22.625Z" fill="#585857"/>
<path d="M142.511 22.3615C142.501 22.3581 142.495 22.3481 142.498 22.3381L142.595 21.9012C142.598 21.8912 142.608 21.8845 142.618 21.8878L143.238 22.0279C143.248 22.0313 143.255 22.0413 143.252 22.0513L143.155 22.4882C143.152 22.4982 143.142 22.5049 143.132 22.5016L142.511 22.3615Z" fill="#5E5E5D"/>
<path d="M144.242 22.8787L143.622 22.7386C143.545 22.7219 143.495 22.6452 143.512 22.5651L143.609 22.1282C143.625 22.0515 143.702 22.0014 143.782 22.0181L144.403 22.1582C144.479 22.1749 144.529 22.2516 144.513 22.3316L144.416 22.7686C144.396 22.8486 144.319 22.8953 144.242 22.8787Z" fill="#585857"/>
<path d="M143.648 22.6183C143.638 22.615 143.632 22.605 143.635 22.595L143.732 22.158C143.735 22.148 143.745 22.1413 143.755 22.1447L144.376 22.2848C144.386 22.2881 144.392 22.2981 144.389 22.3081L144.292 22.7451C144.289 22.7551 144.279 22.7617 144.269 22.7584L143.648 22.6183Z" fill="#5E5E5D"/>
<path d="M145.38 23.1353L144.759 22.9952C144.683 22.9785 144.633 22.9018 144.649 22.8217L144.746 22.3848C144.763 22.3081 144.839 22.258 144.919 22.2747L145.54 22.4148C145.617 22.4315 145.667 22.5082 145.65 22.5882L145.553 23.0252C145.533 23.1019 145.456 23.1519 145.38 23.1353Z" fill="#585857"/>
<path d="M144.786 22.8717C144.776 22.8684 144.77 22.8584 144.773 22.8484L144.87 22.4114C144.873 22.4014 144.883 22.3947 144.893 22.3981L145.513 22.5382C145.523 22.5415 145.53 22.5515 145.527 22.5615L145.43 22.9985C145.427 23.0085 145.417 23.0152 145.407 23.0118L144.786 22.8717Z" fill="#5E5E5D"/>
<path d="M146.517 23.3887L145.897 23.2486C145.82 23.2319 145.77 23.1552 145.787 23.0751L145.884 22.6382C145.9 22.5615 145.977 22.5114 146.057 22.5281L146.677 22.6682C146.754 22.6849 146.804 22.7616 146.788 22.8417L146.691 23.2786C146.671 23.3587 146.594 23.4087 146.517 23.3887Z" fill="#585857"/>
<path d="M145.924 23.1286C145.914 23.1252 145.907 23.1152 145.911 23.1052L146.007 22.6683C146.011 22.6583 146.021 22.6516 146.031 22.6549L146.651 22.795C146.661 22.7983 146.668 22.8084 146.664 22.8184L146.568 23.2553C146.564 23.2653 146.554 23.272 146.544 23.2687L145.924 23.1286Z" fill="#5E5E5D"/>
<path d="M147.651 23.6455L147.031 23.5054C146.954 23.4887 146.904 23.412 146.921 23.332L147.017 22.895C147.034 22.8183 147.111 22.7683 147.191 22.7849L147.811 22.925C147.888 22.9417 147.938 23.0184 147.921 23.0985L147.825 23.5354C147.808 23.6155 147.731 23.6622 147.651 23.6455Z" fill="#585857"/>
<path d="M147.061 23.3854C147.051 23.3821 147.044 23.3721 147.048 23.3621L147.144 22.9251C147.148 22.9151 147.158 22.9084 147.168 22.9118L147.788 23.0518C147.798 23.0552 147.805 23.0652 147.802 23.0752L147.705 23.5122C147.702 23.5222 147.691 23.5288 147.681 23.5255L147.061 23.3854Z" fill="#5E5E5D"/>
<path d="M148.789 23.9024L148.168 23.7623C148.092 23.7456 148.042 23.6689 148.058 23.5888L148.155 23.1519C148.172 23.0751 148.249 23.0251 148.329 23.0418L148.949 23.1819C149.026 23.1986 149.076 23.2753 149.059 23.3553L148.962 23.7923C148.946 23.869 148.869 23.919 148.789 23.9024Z" fill="#585857"/>
<path d="M148.198 23.6388C148.188 23.6355 148.182 23.6255 148.185 23.6155L148.282 23.1785C148.285 23.1685 148.295 23.1618 148.305 23.1652L148.925 23.3053C148.935 23.3086 148.942 23.3186 148.939 23.3286L148.842 23.7656C148.839 23.7756 148.829 23.7822 148.819 23.7789L148.198 23.6388Z" fill="#5E5E5D"/>
<path d="M149.927 24.156L149.306 24.0159C149.229 23.9992 149.179 23.9225 149.196 23.8425L149.293 23.4055C149.309 23.3288 149.386 23.2788 149.466 23.2954L150.087 23.4355C150.163 23.4522 150.213 23.5289 150.197 23.609L150.1 24.0459C150.083 24.126 150.003 24.176 149.927 24.156Z" fill="#585857"/>
<path d="M149.336 23.8959C149.326 23.8926 149.319 23.8826 149.323 23.8725L149.419 23.4356C149.423 23.4256 149.433 23.4189 149.443 23.4223L150.063 23.5623C150.073 23.5657 150.08 23.5757 150.076 23.5857L149.98 24.0226C149.976 24.0327 149.966 24.0393 149.956 24.036L149.336 23.8959Z" fill="#5E5E5D"/>
<path d="M151.064 24.4128L150.443 24.2728C150.367 24.2561 150.317 24.1794 150.333 24.0993L150.43 23.6624C150.447 23.5856 150.523 23.5356 150.603 23.5523L151.224 23.6924C151.301 23.7091 151.351 23.7858 151.334 23.8658L151.237 24.3028C151.217 24.3828 151.14 24.4295 151.064 24.4128Z" fill="#585857"/>
<path d="M150.473 24.1525C150.463 24.1492 150.457 24.1391 150.46 24.1291L150.557 23.6922C150.56 23.6822 150.57 23.6755 150.58 23.6788L151.2 23.8189C151.21 23.8223 151.217 23.8323 151.214 23.8423L151.117 24.2792C151.114 24.2892 151.104 24.2959 151.094 24.2926L150.473 24.1525Z" fill="#5E5E5D"/>
<path d="M152.201 24.6697L151.581 24.5296C151.504 24.5129 151.454 24.4362 151.471 24.3561L151.568 23.9192C151.584 23.8425 151.661 23.7924 151.741 23.8091L152.362 23.9492C152.438 23.9659 152.488 24.0426 152.472 24.1227L152.375 24.5596C152.355 24.6363 152.278 24.6864 152.201 24.6697Z" fill="#585857"/>
<path d="M151.607 24.4062C151.597 24.4028 151.591 24.3928 151.594 24.3828L151.691 23.9459C151.694 23.9358 151.704 23.9292 151.714 23.9325L152.335 24.0726C152.345 24.0759 152.351 24.0859 152.348 24.0959L152.251 24.5329C152.248 24.5429 152.238 24.5496 152.228 24.5462L151.607 24.4062Z" fill="#5E5E5D"/>
<path d="M153.339 24.9231L152.718 24.783C152.642 24.7663 152.592 24.6896 152.608 24.6096L152.705 24.1726C152.722 24.0959 152.798 24.0459 152.878 24.0625L153.499 24.2026C153.575 24.2193 153.626 24.296 153.609 24.3761L153.512 24.813C153.492 24.8931 153.415 24.9431 153.339 24.9231Z" fill="#585857"/>
<path d="M152.745 24.663C152.735 24.6597 152.728 24.6496 152.731 24.6396L152.828 24.2027C152.831 24.1927 152.841 24.186 152.851 24.1893L153.472 24.3294C153.482 24.3328 153.489 24.3428 153.485 24.3528L153.388 24.7897C153.385 24.7997 153.375 24.8064 153.365 24.8031L152.745 24.663Z" fill="#5E5E5D"/>
<path d="M154.476 25.1799L153.855 25.0398C153.779 25.0232 153.729 24.9465 153.745 24.8664L153.842 24.4294C153.859 24.3527 153.936 24.3027 154.016 24.3194L154.636 24.4595C154.713 24.4761 154.763 24.5529 154.746 24.6329L154.649 25.0699C154.629 25.1499 154.553 25.1966 154.476 25.1799Z" fill="#585857"/>
<path d="M153.882 24.9198C153.872 24.9165 153.865 24.9065 153.869 24.8965L153.965 24.4595C153.969 24.4495 153.979 24.4428 153.989 24.4462L154.609 24.5863C154.619 24.5896 154.626 24.5996 154.622 24.6096L154.526 25.0466C154.522 25.0566 154.512 25.0633 154.502 25.0599L153.882 24.9198Z" fill="#5E5E5D"/>
<path d="M155.613 25.4368L154.993 25.2967C154.916 25.28 154.866 25.2033 154.883 25.1232L154.979 24.6863C154.996 24.6096 155.073 24.5595 155.153 24.5762L155.773 24.7163C155.85 24.733 155.9 24.8097 155.883 24.8897L155.787 25.3267C155.767 25.4034 155.69 25.4535 155.613 25.4368Z" fill="#585857"/>
<path d="M155.02 25.1732C155.01 25.1699 155.003 25.1599 155.006 25.1499L155.103 24.7129C155.106 24.7029 155.116 24.6963 155.126 24.6996L155.747 24.8397C155.757 24.843 155.763 24.853 155.76 24.863L155.663 25.3C155.66 25.31 155.65 25.3167 155.64 25.3133L155.02 25.1732Z" fill="#5E5E5D"/>
<path d="M156.751 25.6902L156.13 25.5501C156.054 25.5334 156.004 25.4567 156.02 25.3767L156.117 24.9397C156.134 24.863 156.21 24.8129 156.29 24.8296L156.911 24.9697C156.988 24.9864 157.038 25.0631 157.021 25.1432L156.924 25.5801C156.904 25.6602 156.827 25.7102 156.751 25.6902Z" fill="#585857"/>
<path d="M156.157 25.4301C156.147 25.4267 156.14 25.4167 156.143 25.4067L156.24 24.9698C156.244 24.9598 156.254 24.9531 156.264 24.9564L156.884 25.0965C156.894 25.0999 156.901 25.1099 156.897 25.1199L156.801 25.5568C156.797 25.5668 156.787 25.5735 156.777 25.5702L156.157 25.4301Z" fill="#5E5E5D"/>
<path d="M157.888 25.947L157.268 25.8069C157.191 25.7903 157.141 25.7135 157.158 25.6335L157.254 25.1965C157.271 25.1198 157.348 25.0698 157.428 25.0865L158.048 25.2266C158.125 25.2432 158.175 25.3199 158.158 25.4L158.061 25.837C158.041 25.917 157.965 25.9637 157.888 25.947Z" fill="#585857"/>
<path d="M157.294 25.6872C157.284 25.6838 157.278 25.6738 157.281 25.6638L157.378 25.2269C157.381 25.2168 157.391 25.2102 157.401 25.2135L158.022 25.3536C158.032 25.3569 158.038 25.3669 158.035 25.377L157.938 25.8139C157.935 25.8239 157.925 25.8306 157.915 25.8273L157.294 25.6872Z" fill="#5E5E5D"/>
<path d="M159.022 26.2039L158.402 26.0638C158.325 26.0471 158.275 25.9704 158.292 25.8903L158.389 25.4534C158.405 25.3767 158.482 25.3266 158.562 25.3433L159.182 25.4834C159.259 25.5001 159.309 25.5768 159.292 25.6568L159.196 26.0938C159.179 26.1705 159.102 26.2205 159.022 26.2039Z" fill="#585857"/>
<path d="M158.432 25.9406C158.422 25.9372 158.415 25.9272 158.418 25.9172L158.515 25.4803C158.518 25.4703 158.528 25.4636 158.538 25.4669L159.159 25.607C159.169 25.6104 159.176 25.6204 159.172 25.6304L159.075 26.0673C159.072 26.0773 159.062 26.084 159.052 26.0807L158.432 25.9406Z" fill="#5E5E5D"/>
<path d="M142.471 22.6351L143.238 22.8086C143.325 22.8286 143.382 22.9153 143.362 23.0054L143.192 23.7592C143.171 23.8459 143.085 23.9026 142.995 23.8826L142.228 23.7092C142.141 23.6892 142.084 23.6024 142.104 23.5124L142.274 22.7585C142.294 22.6718 142.381 22.6151 142.471 22.6351Z" fill="#585857"/>
<path d="M142.258 23.5855C142.238 23.5821 142.225 23.5588 142.228 23.5388L142.398 22.7849C142.401 22.7649 142.425 22.7516 142.445 22.7549L143.212 22.9284C143.232 22.9317 143.245 22.955 143.242 22.975L143.072 23.7289C143.069 23.7489 143.045 23.7622 143.025 23.7589L142.258 23.5855Z" fill="#5E5E5D"/>
<path d="M143.782 22.9317L144.549 23.1051C144.636 23.1251 144.693 23.2119 144.673 23.3019L144.503 24.0558C144.483 24.1425 144.396 24.1992 144.306 24.1792L143.539 24.0057C143.452 23.9857 143.395 23.899 143.415 23.8089L143.585 23.0551C143.605 22.965 143.692 22.9117 143.782 22.9317Z" fill="#585857"/>
<path d="M143.569 23.8823C143.549 23.879 143.535 23.8556 143.539 23.8356L143.709 23.0818C143.712 23.0618 143.735 23.0484 143.755 23.0518L144.523 23.2252C144.543 23.2286 144.556 23.2519 144.553 23.2719L144.382 24.0258C144.379 24.0458 144.356 24.0591 144.336 24.0558L143.569 23.8823Z" fill="#5E5E5D"/>
<path d="M145.093 23.2255L145.86 23.3989C145.947 23.4189 146.004 23.5056 145.984 23.5957L145.814 24.3495C145.794 24.4363 145.707 24.493 145.617 24.4729L144.85 24.2995C144.763 24.2795 144.706 24.1928 144.726 24.1027L144.896 23.3489C144.916 23.2622 145.006 23.2054 145.093 23.2255Z" fill="#585857"/>
<path d="M144.88 24.1758C144.86 24.1724 144.846 24.1491 144.85 24.1291L145.02 23.3753C145.023 23.3552 145.046 23.3419 145.066 23.3452L145.834 23.5187C145.854 23.522 145.867 23.5454 145.864 23.5654L145.694 24.3192C145.69 24.3392 145.667 24.3526 145.647 24.3492L144.88 24.1758Z" fill="#5E5E5D"/>
<path d="M146.404 23.5189L147.171 23.6924C147.258 23.7124 147.315 23.7991 147.295 23.8892L147.125 24.643C147.105 24.7297 147.018 24.7864 146.928 24.7664L146.161 24.593C146.074 24.5729 146.017 24.4862 146.037 24.3962L146.207 23.6423C146.227 23.5556 146.317 23.4989 146.404 23.5189Z" fill="#585857"/>
<path d="M146.191 24.4727C146.171 24.4693 146.157 24.446 146.161 24.426L146.331 23.6721C146.334 23.6521 146.357 23.6388 146.377 23.6421L147.145 23.8156C147.165 23.8189 147.178 23.8422 147.175 23.8623L147.005 24.6161C147.001 24.6361 146.978 24.6494 146.958 24.6461L146.191 24.4727Z" fill="#5E5E5D"/>
<path d="M147.715 23.816L148.482 23.9894C148.569 24.0094 148.625 24.0961 148.605 24.1862L148.435 24.94C148.415 25.0268 148.328 25.0835 148.238 25.0634L147.471 24.89C147.384 24.87 147.328 24.7833 147.348 24.6932L147.518 23.9394C147.541 23.8493 147.628 23.7959 147.715 23.816Z" fill="#585857"/>
<path d="M147.501 24.7664C147.481 24.763 147.468 24.7397 147.471 24.7197L147.641 23.9658C147.645 23.9458 147.668 23.9325 147.688 23.9358L148.455 24.1093C148.475 24.1126 148.489 24.1359 148.485 24.156L148.315 24.9098C148.312 24.9298 148.288 24.9431 148.268 24.9398L147.501 24.7664Z" fill="#5E5E5D"/>
<path d="M149.026 24.1095L149.793 24.2829C149.88 24.303 149.936 24.3897 149.916 24.4797L149.746 25.2336C149.726 25.3203 149.639 25.377 149.549 25.357L148.782 25.1835C148.696 25.1635 148.639 25.0768 148.659 24.9867L148.829 24.2329C148.852 24.1462 148.939 24.0895 149.026 24.1095Z" fill="#585857"/>
<path d="M148.812 25.0601C148.792 25.0567 148.778 25.0334 148.782 25.0134L148.952 24.2595C148.955 24.2395 148.979 24.2262 148.999 24.2295L149.766 24.403C149.786 24.4063 149.799 24.4296 149.796 24.4497L149.626 25.2035C149.622 25.2235 149.599 25.2368 149.579 25.2335L148.812 25.0601Z" fill="#5E5E5D"/>
<path d="M150.337 24.406L151.104 24.5795C151.191 24.5995 151.247 24.6862 151.227 24.7763L151.057 25.5301C151.037 25.6168 150.95 25.6735 150.86 25.6535L150.093 25.4801C150.007 25.4601 149.95 25.3733 149.97 25.2833L150.14 24.5295C150.163 24.4394 150.25 24.386 150.337 24.406Z" fill="#585857"/>
<path d="M150.123 25.3567C150.103 25.3534 150.089 25.33 150.093 25.31L150.263 24.5562C150.266 24.5362 150.29 24.5228 150.31 24.5261L151.077 24.6996C151.097 24.7029 151.11 24.7263 151.107 24.7463L150.937 25.5001C150.933 25.5201 150.91 25.5335 150.89 25.5301L150.123 25.3567Z" fill="#5E5E5D"/>
<path d="M151.651 24.6998L152.418 24.8733C152.505 24.8933 152.561 24.98 152.541 25.0701L152.371 25.8239C152.351 25.9106 152.264 25.9673 152.174 25.9473L151.407 25.7739C151.321 25.7539 151.264 25.6671 151.284 25.5771L151.454 24.8232C151.474 24.7365 151.561 24.6798 151.651 24.6998Z" fill="#585857"/>
<path d="M151.434 25.6504C151.414 25.6471 151.4 25.6237 151.404 25.6037L151.574 24.8499C151.577 24.8299 151.601 24.8165 151.621 24.8198L152.388 24.9933C152.408 24.9966 152.421 25.02 152.418 25.04L152.248 25.7938C152.244 25.8138 152.221 25.8272 152.201 25.8238L151.434 25.6504Z" fill="#5E5E5D"/>
<path d="M152.961 24.993L153.728 25.1665C153.815 25.1865 153.872 25.2732 153.852 25.3633L153.682 26.1171C153.662 26.2038 153.575 26.2605 153.485 26.2405L152.718 26.0671C152.631 26.0471 152.574 25.9603 152.594 25.8703L152.764 25.1165C152.784 25.0297 152.871 24.973 152.961 24.993Z" fill="#585857"/>
<path d="M152.748 25.947C152.728 25.9437 152.715 25.9203 152.718 25.9003L152.888 25.1465C152.892 25.1265 152.915 25.1131 152.935 25.1165L153.702 25.2899C153.722 25.2933 153.736 25.3166 153.732 25.3366L153.562 26.0905C153.559 26.1105 153.535 26.1238 153.515 26.1205L152.748 25.947Z" fill="#5E5E5D"/>
<path d="M154.272 25.2901L155.039 25.4635C155.126 25.4835 155.183 25.5703 155.163 25.6603L154.993 26.4142C154.973 26.5009 154.886 26.5576 154.796 26.5376L154.029 26.3641C153.942 26.3441 153.885 26.2574 153.905 26.1673L154.076 25.4135C154.096 25.3234 154.182 25.2701 154.272 25.2901Z" fill="#585857"/>
<path d="M154.059 26.2407C154.039 26.2374 154.025 26.214 154.029 26.194L154.199 25.4402C154.202 25.4202 154.226 25.4068 154.246 25.4102L155.013 25.5836C155.033 25.587 155.046 25.6103 155.043 25.6303L154.873 26.3842C154.869 26.4042 154.846 26.4175 154.826 26.4142L154.059 26.2407Z" fill="#5E5E5D"/>
<path d="M155.583 25.5836L156.351 25.7571C156.437 25.7771 156.494 25.8638 156.474 25.9539L156.304 26.7077C156.284 26.7944 156.197 26.8511 156.107 26.8311L155.343 26.6577C155.257 26.6376 155.2 26.5509 155.22 26.4609L155.39 25.707C155.407 25.6203 155.493 25.5636 155.583 25.5836Z" fill="#585857"/>
<path d="M155.37 26.5344C155.35 26.5311 155.337 26.5077 155.34 26.4877L155.51 25.7339C155.513 25.7139 155.537 25.7005 155.557 25.7039L156.324 25.8773C156.344 25.8807 156.357 25.904 156.354 25.924L156.18 26.6779C156.177 26.6979 156.154 26.7112 156.134 26.7079L155.37 26.5344Z" fill="#5E5E5D"/>
<path d="M156.894 25.8807L157.661 26.0541C157.748 26.0741 157.804 26.1608 157.784 26.2509L157.614 27.0047C157.594 27.0915 157.508 27.1482 157.418 27.1281L156.65 26.9547C156.564 26.9347 156.507 26.848 156.527 26.7579L156.697 26.0041C156.717 25.914 156.807 25.8606 156.894 25.8807Z" fill="#585857"/>
<path d="M156.681 26.8313C156.661 26.828 156.648 26.8046 156.651 26.7846L156.821 26.0308C156.824 26.0108 156.848 25.9974 156.868 26.0008L157.635 26.1742C157.655 26.1775 157.668 26.2009 157.665 26.2209L157.495 26.9747C157.491 26.9947 157.468 27.0081 157.448 27.0047L156.681 26.8313Z" fill="#5E5E5D"/>
<path d="M158.205 26.1739L158.972 26.3474C159.059 26.3674 159.116 26.4541 159.096 26.5442L158.925 27.298C158.905 27.3847 158.819 27.4414 158.729 27.4214L157.961 27.248C157.875 27.228 157.818 27.1412 157.838 27.0512L158.011 26.2974C158.028 26.2106 158.118 26.1539 158.205 26.1739Z" fill="#585857"/>
<path d="M157.991 27.1248C157.971 27.1214 157.958 27.0981 157.961 27.0781L158.132 26.3242C158.135 26.3042 158.158 26.2909 158.178 26.2942L158.945 26.4677C158.965 26.471 158.979 26.4943 158.975 26.5144L158.805 27.2682C158.802 27.2882 158.779 27.3015 158.759 27.2982L157.991 27.1248Z" fill="#5E5E5D"/>
<path d="M142.194 23.8558L142.961 24.0293C143.048 24.0493 143.105 24.136 143.085 24.2261L142.915 24.9799C142.895 25.0666 142.808 25.1233 142.718 25.1033L141.951 24.9299C141.864 24.9099 141.807 24.8231 141.827 24.7331L142.001 23.9792C142.021 23.8925 142.107 23.8358 142.194 23.8558Z" fill="#585857"/>
<path d="M141.981 24.8064C141.961 24.8031 141.947 24.7797 141.951 24.7597L142.121 24.0059C142.124 23.9859 142.148 23.9725 142.168 23.9759L142.935 24.1493C142.955 24.1526 142.968 24.176 142.965 24.196L142.795 24.9498C142.791 24.9698 142.768 24.9832 142.748 24.9798L141.981 24.8064Z" fill="#5E5E5D"/>
<path d="M143.509 24.1526L144.276 24.3261C144.363 24.3461 144.419 24.4328 144.399 24.5229L144.229 25.2767C144.209 25.3634 144.122 25.4201 144.032 25.4001L143.265 25.2267C143.178 25.2067 143.122 25.1199 143.142 25.0299L143.312 24.276C143.332 24.186 143.419 24.1326 143.509 24.1526Z" fill="#585857"/>
<path d="M143.292 25.1033C143.272 25.0999 143.258 25.0766 143.262 25.0566L143.432 24.3027C143.435 24.2827 143.459 24.2694 143.479 24.2727L144.246 24.4462C144.266 24.4495 144.279 24.4729 144.276 24.4929L144.106 25.2467C144.102 25.2667 144.079 25.2801 144.059 25.2767L143.292 25.1033Z" fill="#5E5E5D"/>
<path d="M144.82 24.4462L145.587 24.6196C145.674 24.6396 145.73 24.7263 145.71 24.8164L145.54 25.5702C145.52 25.657 145.433 25.7137 145.343 25.6937L144.576 25.5202C144.489 25.5002 144.433 25.4135 144.453 25.3234L144.623 24.5696C144.643 24.4829 144.73 24.4262 144.82 24.4462Z" fill="#585857"/>
<path d="M144.606 25.3967C144.586 25.3934 144.573 25.37 144.576 25.35L144.746 24.5962C144.75 24.5762 144.773 24.5628 144.793 24.5662L145.56 24.7396C145.58 24.743 145.594 24.7663 145.59 24.7863L145.42 25.5402C145.417 25.5602 145.393 25.5735 145.373 25.5702L144.606 25.3967Z" fill="#5E5E5D"/>
<path d="M146.13 24.7396L146.897 24.9131C146.984 24.9331 147.041 25.0198 147.021 25.1099L146.851 25.8637C146.831 25.9504 146.744 26.0071 146.654 25.9871L145.887 25.8137C145.8 25.7936 145.743 25.7069 145.763 25.6169L145.933 24.863C145.953 24.7763 146.04 24.7196 146.13 24.7396Z" fill="#585857"/>
<path d="M145.917 25.6904C145.897 25.6871 145.883 25.6637 145.887 25.6437L146.057 24.8899C146.06 24.8699 146.084 24.8566 146.104 24.8599L146.871 25.0333C146.891 25.0367 146.904 25.06 146.901 25.08L146.731 25.8339C146.727 25.8539 146.704 25.8672 146.684 25.8639L145.917 25.6904Z" fill="#5E5E5D"/>
<path d="M147.442 25.0367L148.209 25.2101C148.296 25.2301 148.352 25.3168 148.332 25.4069L148.162 26.1607C148.142 26.2475 148.055 26.3042 147.965 26.2841L147.198 26.1107C147.112 26.0907 147.055 26.004 147.075 25.9139L147.245 25.1601C147.265 25.07 147.355 25.0166 147.442 25.0367Z" fill="#585857"/>
<path d="M147.228 25.9873C147.208 25.984 147.194 25.9606 147.198 25.9406L147.368 25.1868C147.371 25.1668 147.395 25.1534 147.415 25.1568L148.182 25.3302C148.202 25.3335 148.215 25.3569 148.212 25.3769L148.042 26.1307C148.038 26.1507 148.015 26.1641 147.995 26.1608L147.228 25.9873Z" fill="#5E5E5D"/>
<path d="M148.752 25.33L149.519 25.5034C149.606 25.5234 149.663 25.6101 149.643 25.7002L149.473 26.454C149.453 26.5408 149.366 26.5975 149.276 26.5774L148.509 26.404C148.422 26.384 148.365 26.2973 148.385 26.2072L148.555 25.4534C148.575 25.3666 148.666 25.3099 148.752 25.33Z" fill="#585857"/>
<path d="M148.539 26.2808C148.519 26.2774 148.505 26.2541 148.509 26.2341L148.679 25.4802C148.682 25.4602 148.706 25.4469 148.726 25.4502L149.493 25.6237C149.513 25.627 149.526 25.6503 149.523 25.6704L149.353 26.4242C149.349 26.4442 149.326 26.4575 149.306 26.4542L148.539 26.2808Z" fill="#5E5E5D"/>
<path d="M150.063 25.627L150.83 25.8004C150.917 25.8205 150.973 25.9072 150.953 25.9972L150.783 26.7511C150.763 26.8378 150.677 26.8945 150.587 26.8745L149.819 26.701C149.733 26.681 149.676 26.5943 149.696 26.5042L149.866 25.7504C149.889 25.6604 149.976 25.607 150.063 25.627Z" fill="#585857"/>
<path d="M149.849 26.5776C149.829 26.5743 149.816 26.551 149.819 26.5309L149.989 25.7771C149.993 25.7571 150.016 25.7438 150.036 25.7471L150.803 25.9205C150.823 25.9239 150.837 25.9472 150.833 25.9672L150.663 26.7211C150.66 26.7411 150.637 26.7544 150.617 26.7511L149.849 26.5776Z" fill="#5E5E5D"/>
<path d="M151.374 25.9203L152.141 26.0937C152.228 26.1137 152.284 26.2005 152.264 26.2905L152.094 27.0444C152.074 27.1311 151.988 27.1878 151.898 27.1678L151.13 26.9943C151.044 26.9743 150.987 26.8876 151.007 26.7975L151.177 26.0437C151.2 25.957 151.287 25.9003 151.374 25.9203Z" fill="#585857"/>
<path d="M151.16 26.8711C151.14 26.8678 151.127 26.8444 151.13 26.8244L151.3 26.0706C151.303 26.0506 151.327 26.0372 151.347 26.0405L152.114 26.214C152.134 26.2173 152.147 26.2407 152.144 26.2607L151.974 27.0145C151.97 27.0345 151.947 27.0479 151.927 27.0445L151.16 26.8711Z" fill="#5E5E5D"/>
<path d="M152.685 26.214L153.452 26.3874C153.539 26.4074 153.595 26.4942 153.575 26.5842L153.405 27.3381C153.385 27.4248 153.299 27.4815 153.209 27.4615L152.441 27.288C152.355 27.268 152.298 27.1813 152.318 27.0912L152.488 26.3374C152.511 26.2507 152.598 26.194 152.685 26.214Z" fill="#585857"/>
<path d="M152.471 27.1646C152.451 27.1612 152.438 27.1379 152.441 27.1179L152.611 26.364C152.614 26.344 152.638 26.3307 152.658 26.334L153.425 26.5075C153.445 26.5108 153.458 26.5341 153.455 26.5542L153.285 27.308C153.281 27.328 153.258 27.3413 153.238 27.338L152.471 27.1646Z" fill="#5E5E5D"/>
<path d="M153.995 26.5108L154.763 26.6842C154.849 26.7042 154.906 26.791 154.886 26.881L154.716 27.6349C154.696 27.7216 154.609 27.7783 154.519 27.7583L153.752 27.5848C153.665 27.5648 153.609 27.4781 153.629 27.388L153.799 26.6342C153.822 26.5441 153.909 26.4908 153.995 26.5108Z" fill="#585857"/>
<path d="M153.782 27.4614C153.762 27.4581 153.749 27.4347 153.752 27.4147L153.922 26.6609C153.925 26.6409 153.949 26.6275 153.969 26.6309L154.736 26.8043C154.756 26.8077 154.769 26.831 154.766 26.851L154.596 27.6049C154.593 27.6249 154.569 27.6382 154.549 27.6349L153.782 27.4614Z" fill="#5E5E5D"/>
<path d="M155.309 26.8046L156.077 26.978C156.163 26.998 156.22 27.0847 156.2 27.1748L156.03 27.9286C156.01 28.0154 155.923 28.0721 155.833 28.052L155.066 27.8786C154.979 27.8586 154.922 27.7719 154.943 27.6818L155.113 26.928C155.133 26.8413 155.219 26.7845 155.309 26.8046Z" fill="#585857"/>
<path d="M155.093 27.7551C155.073 27.7518 155.059 27.7284 155.063 27.7084L155.233 26.9546C155.236 26.9346 155.259 26.9212 155.279 26.9246L156.047 27.098C156.067 27.1014 156.08 27.1247 156.077 27.1447L155.906 27.8986C155.903 27.9186 155.88 27.9319 155.86 27.9286L155.093 27.7551Z" fill="#5E5E5D"/>
<path d="M156.62 27.1014L157.388 27.2748C157.474 27.2948 157.531 27.3815 157.511 27.4716L157.341 28.2254C157.321 28.3122 157.234 28.3689 157.144 28.3488L156.377 28.1754C156.29 28.1554 156.234 28.0687 156.254 27.9786L156.424 27.2248C156.444 27.1347 156.53 27.0813 156.62 27.1014Z" fill="#585857"/>
<path d="M156.407 28.052C156.387 28.0487 156.374 28.0253 156.377 28.0053L156.548 27.2515C156.551 27.2315 156.574 27.2181 156.594 27.2215L157.361 27.3949C157.381 27.3982 157.395 27.4216 157.391 27.4416L157.221 28.1954C157.218 28.2154 157.195 28.2288 157.175 28.2255L156.407 28.052Z" fill="#5E5E5D"/>
<path d="M157.931 27.3949L158.699 27.5683C158.785 27.5884 158.842 27.6751 158.822 27.7651L158.652 28.519C158.632 28.6057 158.545 28.6624 158.455 28.6424L157.688 28.4689C157.601 28.4489 157.545 28.3622 157.565 28.2721L157.735 27.5183C157.755 27.4316 157.841 27.3749 157.931 27.3949Z" fill="#585857"/>
<path d="M157.718 28.3455C157.698 28.3421 157.685 28.3188 157.688 28.2988L157.858 27.5449C157.861 27.5249 157.885 27.5116 157.905 27.5149L158.672 27.6884C158.692 27.6917 158.705 27.715 158.702 27.7351L158.532 28.4889C158.529 28.5089 158.505 28.5222 158.485 28.5189L157.718 28.3455Z" fill="#5E5E5D"/>
<path d="M141.921 25.0765L142.688 25.25C142.775 25.27 142.832 25.3567 142.812 25.4468L142.642 26.2006C142.622 26.2873 142.535 26.344 142.445 26.324L141.678 26.1506C141.591 26.1306 141.534 26.0438 141.554 25.9538L141.724 25.1999C141.748 25.1132 141.835 25.0565 141.921 25.0765Z" fill="#585857"/>
<path d="M141.707 26.0271C141.687 26.0238 141.674 26.0004 141.677 25.9804L141.847 25.2266C141.851 25.2066 141.874 25.1932 141.894 25.1966L142.661 25.37C142.681 25.3733 142.695 25.3967 142.691 25.4167L142.521 26.1705C142.518 26.1905 142.494 26.2039 142.474 26.2005L141.707 26.0271Z" fill="#5E5E5D"/>
<path d="M143.232 25.37L143.999 25.5434C144.086 25.5634 144.142 25.6502 144.122 25.7402L143.952 26.4941C143.932 26.5808 143.846 26.6375 143.755 26.6175L142.988 26.444C142.902 26.424 142.845 26.3373 142.865 26.2472L143.035 25.4934C143.058 25.4067 143.145 25.3533 143.232 25.37Z" fill="#585857"/>
<path d="M143.018 26.3242C142.998 26.3209 142.985 26.2975 142.988 26.2775L143.158 25.5237C143.162 25.5037 143.185 25.4903 143.205 25.4937L143.972 25.6671C143.992 25.6705 144.006 25.6938 144.002 25.7138L143.832 26.4676C143.829 26.4877 143.806 26.501 143.785 26.4977L143.018 26.3242Z" fill="#5E5E5D"/>
<path d="M144.542 25.6669L145.309 25.8403C145.396 25.8603 145.453 25.9471 145.433 26.0371L145.263 26.7909C145.243 26.8777 145.156 26.9344 145.066 26.9144L144.299 26.7409C144.212 26.7209 144.155 26.6342 144.175 26.5441L144.346 25.7903C144.369 25.7036 144.456 25.6469 144.542 25.6669Z" fill="#585857"/>
<path d="M144.329 26.6174C144.309 26.6141 144.296 26.5907 144.299 26.5707L144.469 25.8169C144.473 25.7969 144.496 25.7836 144.516 25.7869L145.283 25.9603C145.303 25.9637 145.317 25.987 145.313 26.007L145.143 26.7609C145.14 26.7809 145.117 26.7942 145.097 26.7909L144.329 26.6174Z" fill="#5E5E5D"/>
<path d="M145.857 25.9606L146.624 26.134C146.711 26.154 146.768 26.2408 146.748 26.3308L146.578 27.0846C146.558 27.1714 146.471 27.2281 146.381 27.2081L145.614 27.0346C145.527 27.0146 145.47 26.9279 145.49 26.8378L145.66 26.084C145.68 25.9973 145.767 25.9406 145.857 25.9606Z" fill="#585857"/>
<path d="M145.64 26.9111C145.62 26.9078 145.607 26.8845 145.61 26.8644L145.78 26.1106C145.784 26.0906 145.807 26.0773 145.827 26.0806L146.594 26.254C146.614 26.2574 146.628 26.2807 146.624 26.3007L146.454 27.0546C146.451 27.0746 146.428 27.0879 146.408 27.0846L145.64 26.9111Z" fill="#5E5E5D"/>
<path d="M147.168 26.2576L147.935 26.4311C148.022 26.4511 148.078 26.5378 148.058 26.6279L147.888 27.3817C147.868 27.4684 147.782 27.5251 147.691 27.5051L146.924 27.3316C146.838 27.3116 146.781 27.2249 146.801 27.1349L146.971 26.381C146.991 26.291 147.078 26.2376 147.168 26.2576Z" fill="#585857"/>
<path d="M146.954 27.208C146.934 27.2047 146.921 27.1813 146.924 27.1613L147.094 26.4075C147.098 26.3875 147.121 26.3741 147.141 26.3775L147.908 26.5509C147.928 26.5542 147.942 26.5776 147.938 26.5976L147.768 27.3514C147.765 27.3715 147.742 27.3848 147.722 27.3815L146.954 27.208Z" fill="#5E5E5D"/>
<path d="M148.479 26.5509L149.246 26.7243C149.333 26.7444 149.389 26.8311 149.369 26.9211L149.199 27.675C149.179 27.7617 149.093 27.8184 149.003 27.7984L148.235 27.6249C148.149 27.6049 148.092 27.5182 148.112 27.4281L148.282 26.6743C148.302 26.5876 148.389 26.5309 148.479 26.5509Z" fill="#585857"/>
<path d="M148.265 27.5015C148.245 27.4981 148.232 27.4748 148.235 27.4548L148.405 26.7009C148.408 26.6809 148.432 26.6676 148.452 26.6709L149.219 26.8444C149.239 26.8477 149.252 26.8711 149.249 26.8911L149.079 27.6449C149.075 27.6649 149.052 27.6783 149.032 27.6749L148.265 27.5015Z" fill="#5E5E5D"/>
<path d="M149.79 26.8444L150.557 27.0178C150.644 27.0378 150.7 27.1245 150.68 27.2146L150.51 27.9684C150.49 28.0551 150.404 28.1119 150.314 28.0918L149.546 27.9184C149.46 27.8984 149.403 27.8117 149.423 27.7216L149.593 26.9678C149.613 26.881 149.7 26.8277 149.79 26.8444Z" fill="#585857"/>
<path d="M149.576 27.7983C149.556 27.795 149.543 27.7717 149.546 27.7516L149.716 26.9978C149.719 26.9778 149.743 26.9645 149.763 26.9678L150.53 27.1412C150.55 27.1446 150.563 27.1679 150.56 27.1879L150.39 27.9418C150.386 27.9618 150.363 27.9751 150.343 27.9718L149.576 27.7983Z" fill="#5E5E5D"/>
<path d="M151.1 27.1412L151.868 27.3146C151.954 27.3346 152.011 27.4213 151.991 27.5114L151.821 28.2652C151.801 28.3519 151.714 28.4087 151.624 28.3886L150.857 28.2152C150.77 28.1952 150.714 28.1085 150.734 28.0184L150.904 27.2646C150.924 27.1745 151.014 27.1211 151.1 27.1412Z" fill="#585857"/>
<path d="M150.887 28.0918C150.867 28.0885 150.854 28.0651 150.857 28.0451L151.027 27.2913C151.03 27.2713 151.054 27.2579 151.074 27.2613L151.841 27.4347C151.861 27.438 151.874 27.4614 151.871 27.4814L151.701 28.2352C151.698 28.2552 151.674 28.2686 151.654 28.2652L150.887 28.0918Z" fill="#5E5E5D"/>
<path d="M152.411 27.4347L153.178 27.6081C153.265 27.6282 153.322 27.7149 153.302 27.8049L153.131 28.5588C153.111 28.6455 153.025 28.7022 152.935 28.6822L152.167 28.5087C152.081 28.4887 152.024 28.402 152.044 28.3119L152.214 27.5581C152.234 27.4714 152.324 27.4147 152.411 27.4347Z" fill="#585857"/>
<path d="M152.198 28.3853C152.178 28.3819 152.164 28.3586 152.168 28.3386L152.338 27.5847C152.341 27.5647 152.364 27.5514 152.384 27.5547L153.151 27.7282C153.171 27.7315 153.185 27.7548 153.182 27.7749L153.008 28.5287C153.005 28.5487 152.981 28.562 152.961 28.5587L152.198 28.3853Z" fill="#5E5E5D"/>
<path d="M153.722 27.7315L154.489 27.9049C154.576 27.9249 154.633 28.0117 154.613 28.1017L154.442 28.8556C154.422 28.9423 154.336 28.999 154.246 28.979L153.479 28.8055C153.392 28.7855 153.335 28.6988 153.355 28.6087L153.525 27.8549C153.549 27.7648 153.635 27.7115 153.722 27.7315Z" fill="#585857"/>
<path d="M153.508 28.6821C153.488 28.6788 153.475 28.6588 153.478 28.6354L153.648 27.8816C153.651 27.8616 153.675 27.8482 153.695 27.8516L154.462 28.025C154.482 28.0284 154.495 28.0517 154.492 28.0717L154.322 28.8256C154.319 28.8456 154.295 28.8589 154.275 28.8556L153.508 28.6821Z" fill="#5E5E5D"/>
<path d="M155.033 28.0253L155.8 28.1987C155.887 28.2187 155.944 28.3055 155.924 28.3955L155.754 29.1493C155.734 29.2361 155.647 29.2928 155.557 29.2728L154.79 29.0993C154.703 29.0793 154.646 28.9926 154.666 28.9025L154.836 28.1487C154.86 28.062 154.946 28.0053 155.033 28.0253Z" fill="#585857"/>
<path d="M154.819 28.9758C154.799 28.9725 154.786 28.9491 154.789 28.9291L154.959 28.1753C154.963 28.1553 154.986 28.142 155.006 28.1453L155.773 28.3187C155.793 28.3221 155.806 28.3454 155.803 28.3654L155.633 29.1193C155.63 29.1393 155.606 29.1526 155.586 29.1493L154.819 28.9758Z" fill="#5E5E5D"/>
<path d="M156.344 28.3187L157.111 28.4922C157.197 28.5122 157.254 28.5989 157.234 28.689L157.064 29.4428C157.044 29.5295 156.957 29.5862 156.867 29.5662L156.1 29.3928C156.013 29.3727 155.957 29.286 155.977 29.196L156.147 28.4421C156.17 28.3554 156.257 28.2987 156.344 28.3187Z" fill="#585857"/>
<path d="M156.13 29.2727C156.11 29.2694 156.097 29.246 156.1 29.226L156.27 28.4722C156.274 28.4522 156.297 28.4388 156.317 28.4422L157.084 28.6156C157.104 28.6189 157.117 28.6423 157.114 28.6623L156.944 29.4128C156.941 29.4328 156.917 29.4462 156.897 29.4428L156.13 29.2727Z" fill="#5E5E5D"/>
<path d="M157.658 28.6155L158.425 28.789C158.512 28.809 158.569 28.8957 158.549 28.9858L158.379 29.7396C158.359 29.8263 158.272 29.883 158.182 29.863L157.415 29.6896C157.328 29.6695 157.271 29.5828 157.291 29.4928L157.461 28.7389C157.481 28.6489 157.568 28.5955 157.658 28.6155Z" fill="#585857"/>
<path d="M157.441 29.5662C157.421 29.5628 157.408 29.5395 157.411 29.5195L157.581 28.7656C157.585 28.7456 157.608 28.7323 157.628 28.7356L158.395 28.9091C158.415 28.9124 158.428 28.9358 158.425 28.9558L158.255 29.7096C158.252 29.7296 158.228 29.7429 158.208 29.7396L157.441 29.5662Z" fill="#5E5E5D"/>
<path d="M141.647 26.2975L142.414 26.4709C142.501 26.4909 142.558 26.5777 142.538 26.6677L142.368 27.4216C142.348 27.5083 142.261 27.565 142.171 27.545L141.404 27.3715C141.317 27.3515 141.26 27.2648 141.28 27.1747L141.451 26.4209C141.471 26.3342 141.561 26.2775 141.647 26.2975Z" fill="#585857"/>
<path d="M141.434 27.248C141.414 27.2447 141.4 27.2214 141.404 27.2014L141.574 26.4475C141.577 26.4275 141.601 26.4142 141.621 26.4175L142.388 26.591C142.408 26.5943 142.421 26.6176 142.418 26.6376L142.248 27.3915C142.244 27.4115 142.221 27.4248 142.201 27.4215L141.434 27.248Z" fill="#5E5E5D"/>
<path d="M142.958 26.5909L143.726 26.7644C143.812 26.7844 143.869 26.8711 143.849 26.9612L143.679 27.715C143.659 27.8017 143.572 27.8584 143.482 27.8384L142.715 27.665C142.628 27.645 142.571 27.5582 142.591 27.4682L142.762 26.7144C142.782 26.6276 142.872 26.5709 142.958 26.5909Z" fill="#585857"/>
<path d="M142.745 27.5415C142.725 27.5382 142.712 27.5148 142.715 27.4948L142.885 26.741C142.888 26.721 142.912 26.7076 142.932 26.711L143.699 26.8844C143.719 26.8877 143.732 26.9111 143.729 26.9311L143.559 27.6849C143.555 27.7049 143.532 27.7183 143.512 27.715L142.745 27.5415Z" fill="#5E5E5D"/>
<path d="M144.269 26.8877L145.037 27.0612C145.123 27.0812 145.18 27.1679 145.16 27.258L144.99 28.0118C144.97 28.0985 144.883 28.1552 144.793 28.1352L144.026 27.9618C143.939 27.9418 143.882 27.855 143.902 27.765L144.076 27.0112C144.096 26.9211 144.183 26.8677 144.269 26.8877Z" fill="#585857"/>
<path d="M144.056 27.8381C144.036 27.8348 144.023 27.8115 144.026 27.7914L144.196 27.0376C144.199 27.0176 144.223 27.0043 144.243 27.0076L145.01 27.181C145.03 27.1844 145.043 27.2077 145.04 27.2277L144.87 27.9816C144.866 28.0016 144.843 28.0149 144.823 28.0116L144.056 27.8381Z" fill="#5E5E5D"/>
<path d="M145.58 27.1815L146.347 27.355C146.434 27.375 146.491 27.4617 146.471 27.5518L146.3 28.3056C146.28 28.3923 146.194 28.449 146.104 28.429L145.336 28.2556C145.25 28.2355 145.193 28.1488 145.213 28.0588L145.383 27.3049C145.406 27.2182 145.493 27.1615 145.58 27.1815Z" fill="#585857"/>
<path d="M145.367 28.1321C145.347 28.1287 145.334 28.1054 145.337 28.0854L145.507 27.3316C145.51 27.3115 145.534 27.2982 145.554 27.3015L146.321 27.475C146.341 27.4783 146.354 27.5017 146.351 27.5217L146.181 28.2755C146.177 28.2955 146.154 28.3089 146.134 28.3055L145.367 28.1321Z" fill="#5E5E5D"/>
<path d="M151.591 28.5323L146.884 27.4749C146.797 27.4549 146.714 27.5083 146.694 27.595L146.511 28.4055C146.497 28.4656 146.534 28.5256 146.594 28.5389L151.344 29.6063C151.43 29.6263 151.521 29.5696 151.541 29.4829L151.711 28.7291C151.734 28.6423 151.681 28.5523 151.591 28.5323Z" fill="#585857"/>
<path d="M146.641 28.4187L146.821 27.6215C146.824 27.6049 146.844 27.5915 146.861 27.5982L151.567 28.6556C151.587 28.6589 151.601 28.6822 151.597 28.7022L151.427 29.4561C151.424 29.4761 151.4 29.4894 151.38 29.4861L146.641 28.4187Z" fill="#5E5E5D"/>
<path d="M152.138 28.6556L152.905 28.8291C152.992 28.8491 153.049 28.9358 153.029 29.0259L152.858 29.7797C152.838 29.8664 152.752 29.9231 152.662 29.9031L151.895 29.7297C151.808 29.7097 151.751 29.6229 151.771 29.5329L151.941 28.7791C151.961 28.6923 152.048 28.6356 152.138 28.6556Z" fill="#585857"/>
<path d="M151.924 29.6062C151.904 29.6029 151.891 29.5795 151.894 29.5595L152.064 28.8057C152.068 28.7857 152.091 28.7723 152.111 28.7757L152.878 28.9491C152.898 28.9524 152.911 28.9758 152.908 28.9958L152.738 29.7496C152.735 29.7696 152.711 29.783 152.691 29.7796L151.924 29.6062Z" fill="#5E5E5D"/>
<path d="M153.449 28.9524L154.216 29.1259C154.302 29.1459 154.359 29.2326 154.339 29.3227L154.169 30.0765C154.149 30.1632 154.062 30.2199 153.972 30.1999L153.205 30.0265C153.118 30.0065 153.062 29.9197 153.082 29.8297L153.252 29.0758C153.272 28.9858 153.362 28.9324 153.449 28.9524Z" fill="#585857"/>
<path d="M153.235 29.9031C153.215 29.8997 153.202 29.8764 153.205 29.8564L153.375 29.1026C153.379 29.0825 153.402 29.0692 153.422 29.0725L154.189 29.246C154.209 29.2493 154.222 29.2727 154.219 29.2927L154.049 30.0465C154.046 30.0665 154.022 30.0799 154.002 30.0765L153.235 29.9031Z" fill="#5E5E5D"/>
<path d="M154.759 29.2462L155.526 29.4197C155.613 29.4397 155.67 29.5264 155.65 29.6165L155.48 30.3703C155.46 30.457 155.373 30.5137 155.283 30.4937L154.516 30.3203C154.429 30.3002 154.372 30.2135 154.392 30.1235L154.562 29.3696C154.582 29.2829 154.672 29.2262 154.759 29.2462Z" fill="#585857"/>
<path d="M154.546 30.1968C154.526 30.1934 154.512 30.1701 154.516 30.1501L154.686 29.3963C154.689 29.3762 154.712 29.3629 154.732 29.3662L155.5 29.5397C155.52 29.543 155.533 29.5664 155.53 29.5864L155.36 30.3402C155.356 30.3602 155.336 30.3736 155.313 30.3702L154.546 30.1968Z" fill="#5E5E5D"/>
<path d="M156.07 29.5394L156.837 29.7129C156.924 29.7329 156.981 29.8196 156.961 29.9097L156.791 30.6635C156.771 30.7502 156.684 30.8069 156.594 30.7869L155.827 30.6135C155.74 30.5935 155.683 30.5067 155.703 30.4167L155.873 29.6628C155.897 29.5761 155.983 29.5194 156.07 29.5394Z" fill="#585857"/>
<path d="M155.857 30.4902C155.837 30.4869 155.823 30.4636 155.827 30.4435L155.997 29.6897C156 29.6697 156.023 29.6564 156.043 29.6597L156.811 29.8331C156.831 29.8365 156.844 29.8598 156.841 29.8798L156.671 30.6337C156.667 30.6537 156.644 30.667 156.624 30.6637L155.857 30.4902Z" fill="#5E5E5D"/>
<path d="M157.381 29.8365L158.148 30.0099C158.235 30.0299 158.292 30.1167 158.272 30.2067L158.102 30.9605C158.082 31.0473 157.995 31.104 157.905 31.084L157.138 30.9105C157.051 30.8905 156.994 30.8038 157.014 30.7137L157.184 29.9599C157.208 29.8698 157.294 29.8165 157.381 29.8365Z" fill="#585857"/>
<path d="M157.168 30.7871C157.148 30.7838 157.134 30.7604 157.138 30.7404L157.308 29.9866C157.311 29.9666 157.335 29.9532 157.355 29.9566L158.122 30.13C158.142 30.1333 158.155 30.1567 158.152 30.1767L157.982 30.9305C157.978 30.9506 157.955 30.9639 157.935 30.9606L157.168 30.7871Z" fill="#5E5E5D"/>
<path d="M151.354 30.6602L147.504 29.7963C147.331 29.7563 147.157 29.8664 147.121 30.0398L146.657 32.0978C146.617 32.2713 146.727 32.4447 146.901 32.4814L150.75 33.3453C150.923 33.3853 151.097 33.2753 151.133 33.1018L151.597 31.0438C151.637 30.8703 151.527 30.7002 151.354 30.6602Z" fill="#EDEDED"/>
<path d="M151.384 30.5368L147.534 29.6729C147.294 29.6195 147.054 29.7696 147.001 30.0098L146.537 32.0678C146.484 32.3079 146.634 32.5481 146.874 32.6015L150.723 33.4654C150.963 33.5187 151.204 33.3686 151.257 33.1285L151.721 31.0705C151.774 30.8303 151.624 30.5935 151.384 30.5368ZM151.137 33.1018C151.097 33.2752 150.927 33.3853 150.753 33.3453L146.904 32.4814C146.731 32.4414 146.621 32.2713 146.661 32.0978L147.124 30.0398C147.164 29.8663 147.334 29.7563 147.508 29.7963L151.357 30.6602C151.53 30.7002 151.64 30.8703 151.6 31.0438L151.137 33.1018Z" fill="#9D9B9B"/>
<path d="M146.888 31.0837L146.661 32.0977C146.621 32.2712 146.731 32.4446 146.905 32.4813L150.754 33.3452C150.927 33.3853 151.101 33.2752 151.137 33.1017L151.364 32.0877L146.888 31.0837Z" fill="#DFDFDE"/>
<path d="M149.109 31.5809L146.888 31.0806L146.661 32.0946C146.621 32.268 146.731 32.4415 146.905 32.4782L148.812 32.9084L149.109 31.5809Z" fill="#D9D9DA"/>
<path d="M160.59 24.753L141.691 20.5036C141.581 20.4769 141.504 20.3735 141.514 20.2601L143.492 9.44633C143.519 9.14946 143.799 8.946 144.089 9.01271L163.338 13.3422C163.629 13.4089 163.795 13.7125 163.692 13.9926L160.853 24.6096C160.813 24.7164 160.703 24.7797 160.59 24.753Z" fill="#E3E1E1"/>
<path d="M142.338 19.4662L144.163 10.3369C144.189 10.0567 144.453 9.86325 144.726 9.92662L162.368 13.8926C162.642 13.9526 162.798 14.2428 162.702 14.5063L160.447 23.5356C160.367 23.7557 160.137 23.8791 159.906 23.8291L142.702 19.9599C142.472 19.9098 142.318 19.6964 142.338 19.4662Z" fill="#C7C7C6"/>
<path d="M142.465 19.4795L144.289 10.3435C144.309 10.14 144.499 9.99991 144.699 10.0466L162.348 14.0159C162.544 14.0592 162.661 14.2694 162.591 14.4595L160.33 23.4954C160.273 23.6556 160.106 23.7456 159.939 23.7089L142.725 19.8364C142.561 19.7997 142.448 19.6463 142.465 19.4795Z" fill="#C6E6F2"/>
<path opacity="0.24" d="M142.738 18.6057C143.065 18.0186 143.512 17.4649 144.006 17.0046C145.286 15.8138 147.071 15.1567 148.752 14.7965C150.733 14.3696 152.951 13.4957 154.966 13.6724C157.761 13.9126 159.653 14.3395 162.301 15.2501L162.591 14.4596C162.661 14.2695 162.548 14.0594 162.348 14.016L144.699 10.0467C144.503 10.0034 144.309 10.1435 144.289 10.3436L142.495 19.1494C142.555 18.9526 142.651 18.7624 142.738 18.6057Z" fill="#B6E0ED"/>
<path d="M157.851 24.1393L144.402 21.114L144.409 20.8872L157.968 23.9359L157.851 24.1393Z" fill="#585857"/>
<path d="M153.472 11.5477C153.492 11.4643 153.575 11.411 153.659 11.431C153.742 11.451 153.796 11.5344 153.776 11.6178C153.756 11.7011 153.672 11.7545 153.589 11.7345C153.505 11.7178 153.452 11.6344 153.472 11.5477Z" fill="#3C3C3B"/>
<path d="M153.515 11.5576C153.529 11.4975 153.589 11.4608 153.649 11.4742C153.709 11.4875 153.746 11.5476 153.732 11.6076C153.719 11.6676 153.659 11.7043 153.599 11.691C153.539 11.6776 153.502 11.6176 153.515 11.5576Z" fill="#585857"/>
<path d="M153.579 11.5744C153.585 11.551 153.609 11.5344 153.632 11.541C153.655 11.5477 153.672 11.5711 153.665 11.5944C153.659 11.6178 153.635 11.6344 153.612 11.6278C153.589 11.6211 153.572 11.5977 153.579 11.5744Z" fill="#B6E0ED"/>
</g>
<path d="M148.191 54.3512C149.088 50.5597 152.879 48.2213 156.651 49.1218C160.427 50.0224 162.756 53.8293 161.859 57.6157C161.227 60.2765 159.168 62.2209 156.691 62.8298C156.549 63.2084 156.284 65.5058 155.81 66.2427C155.596 66.5752 155.326 66.6315 154.913 66.5445C154.582 67.7265 153.195 68.8113 152.054 68.7038C151.254 68.6271 150.673 68.0745 150.413 67.3325C150.209 66.7543 150.046 66.0891 149.944 65.4444C149.394 65.4291 149.129 65.3728 149.154 64.856C149.2 63.9606 150.168 61.4943 150.204 61.1156C148.446 59.4424 147.59 56.8943 148.191 54.3512Z" fill="#FDFFFC"/>
<path d="M151.845 54.0956C151.952 53.7118 152.329 53.456 152.727 53.5532C153.099 53.6402 153.379 54.0546 153.267 54.4384C153.201 54.6738 153.027 54.8631 152.818 54.9501C152.971 55.9427 153.165 56.92 153.246 57.9229C153.323 58.8542 153.399 59.765 153.603 60.6706C154.709 59.0077 155.81 57.3498 157.028 55.7688C156.691 55.4464 156.946 54.7249 157.512 54.858C158.179 55.0166 157.935 56.0604 157.262 55.9018C157.257 55.9018 157.252 55.8967 157.247 55.8916C155.983 57.6876 154.745 59.5091 153.715 61.4535C153.603 61.6633 153.297 61.6173 153.226 61.4023C152.89 60.3995 152.793 59.3761 152.722 58.3272C152.64 57.1963 152.421 56.086 152.329 54.9603C151.988 54.8477 151.743 54.4589 151.845 54.0956Z" fill="#AEB4FC"/>
<path d="M160.331 47.9145C161.752 47.2084 163.179 46.4971 164.601 45.7859C164.897 45.6426 165.167 46.0673 164.871 46.2259C163.485 46.9935 162.094 47.7559 160.708 48.5234C160.3 48.7485 159.923 48.1192 160.331 47.9145Z" fill="#808AFF"/>
<path d="M157.655 42.4907C157.772 42.2297 158.109 42.419 158.083 42.6544C157.91 44.128 157.365 45.6324 156.936 47.0548C156.829 47.4028 156.294 47.2851 156.381 46.9218C156.733 45.4584 157.038 43.8671 157.655 42.4907Z" fill="#808AFF"/>
<path d="M151.03 42.0608C151.397 42.3832 151.621 42.8949 151.85 43.3247C152.09 43.775 152.304 44.2355 152.508 44.7011C152.671 45.0797 152.044 45.2793 151.886 44.8904C151.698 44.4146 151.494 43.954 151.259 43.4986C151.061 43.1047 150.77 42.7209 150.653 42.2962C150.587 42.0659 150.862 41.9073 151.03 42.0608Z" fill="#808AFF"/>
</g>
<path d="M24.4344 87.0365C20.5027 87.429 17.6385 90.8903 18.037 94.7675C18.4356 98.6447 21.945 101.469 25.8766 101.076C29.8083 100.683 32.6725 97.2219 32.274 93.3447C31.876 89.468 28.366 86.6435 24.4344 87.0365Z" fill="#8E97FD"/>
<path d="M22.5672 92.6078C22.3165 92.1463 22.0874 91.6731 21.8779 91.1977C21.9073 91.1599 21.9366 91.1226 21.966 91.0847C22.1822 91.5523 22.4165 92.016 22.6688 92.4692C22.6343 92.5154 22.6005 92.561 22.5672 92.6078Z" fill="#A9B0FF"/>
<path d="M31.4678 97.3795C31.4599 97.3934 31.452 97.4073 31.4446 97.4218C27.9448 98.5902 25.2748 96.7132 23.4238 94.0144C23.4605 93.9632 23.4983 93.9131 23.5356 93.863C25.3764 96.5066 27.973 98.3625 31.4678 97.3795Z" fill="#A9B0FF"/>
<path d="M20.873 88.4025C20.8832 88.3958 20.8928 88.3886 20.903 88.3813C21.1717 89.1919 21.4962 90.0452 21.8795 90.893C21.8507 90.9292 21.8225 90.966 21.7943 91.0022C21.4166 90.1215 21.1101 89.2358 20.873 88.4025Z" fill="#A9B0FF"/>
<path d="M23.316 93.8541C23.0852 93.5079 22.8684 93.1499 22.6641 92.7831C22.6985 92.7363 22.7324 92.689 22.7674 92.6428C22.9745 93.0052 23.1936 93.3598 23.4256 93.7022C23.3889 93.7528 23.3522 93.8035 23.316 93.8541Z" fill="#A9B0FF"/>
<path d="M19.793 89.3849L19.8076 89.3682C20.1029 90.2961 20.4726 91.2909 20.9219 92.2768C20.8954 92.3202 20.8695 92.363 20.844 92.4065C20.3981 91.3783 20.0476 90.3412 19.793 89.3849Z" fill="#A9B0FF"/>
<path d="M30.5702 98.6677C30.5578 98.6822 30.5448 98.6967 30.5318 98.7112C27.0433 99.9158 24.3732 98.0988 22.5127 95.4407C22.5454 95.3834 22.5782 95.3266 22.6115 95.2693C24.4641 97.8862 27.0698 99.6964 30.5702 98.6677Z" fill="#A9B0FF"/>
<path d="M22.5088 95.1221C22.4766 95.1794 22.4439 95.2367 22.4117 95.2946C22.1735 94.945 21.9494 94.5826 21.7383 94.2108C21.7693 94.1573 21.8004 94.1045 21.832 94.051C22.0448 94.4184 22.2706 94.7764 22.5088 95.1221Z" fill="#A9B0FF"/>
<path d="M21.7391 93.886C21.708 93.9389 21.6775 93.9923 21.6476 94.0463C21.3857 93.572 21.1452 93.0844 20.9268 92.594C20.9539 92.55 20.9804 92.5049 21.0075 92.4609C21.2321 92.9425 21.4754 93.4206 21.7391 93.886Z" fill="#A9B0FF"/>
<path d="M22.7568 90.1852C22.7896 90.1518 22.8223 90.1195 22.8551 90.0867C23.0684 90.5392 23.2987 90.9874 23.5466 91.4249C23.5087 91.465 23.4703 91.5045 23.4331 91.5457C23.1887 91.1009 22.9629 90.6445 22.7568 90.1852Z" fill="#A9B0FF"/>
<path d="M31.9339 96.3182C31.9271 96.3382 31.9197 96.3577 31.913 96.3778C28.6158 97.3035 26.079 95.5066 24.293 92.9375C24.3342 92.8919 24.3754 92.8468 24.4172 92.8022C26.1908 95.3089 28.6548 97.0758 31.9339 96.3182Z" fill="#A9B0FF"/>
<path d="M21.8516 87.7958C21.8691 87.7863 21.8866 87.7779 21.9041 87.769C22.1507 88.4654 22.4369 89.1841 22.7655 89.8966C22.7333 89.9278 22.7017 89.9595 22.6706 89.9913C22.3477 89.2542 22.0751 88.5111 21.8516 87.7958Z" fill="#A9B0FF"/>
<path d="M23.5332 91.7245C23.571 91.6833 23.6094 91.6427 23.6478 91.6021C23.8544 91.9578 24.0734 92.3051 24.3037 92.6397C24.2625 92.6842 24.2213 92.7287 24.1807 92.7738C23.9521 92.4354 23.7364 92.0841 23.5332 91.7245Z" fill="#A9B0FF"/>
<path d="M22.5672 92.607C22.6005 92.5602 22.6344 92.5146 22.6688 92.4689C22.9104 92.1449 23.1656 91.836 23.4326 91.5459C23.4698 91.5053 23.5077 91.4652 23.546 91.4251C25.3665 89.5135 27.7656 88.4909 30.7545 89.6627L30.7686 89.6794C27.7853 88.683 25.4405 89.7228 23.6476 91.6016C23.6093 91.6422 23.5709 91.6829 23.5331 91.7241C23.2661 92.0135 23.0109 92.3208 22.7687 92.6426C22.7337 92.6888 22.6993 92.7361 22.6654 92.7829C22.3696 93.187 22.0925 93.6118 21.8334 94.0499C21.8023 94.1033 21.7707 94.1562 21.7397 94.2096C20.8969 95.6709 20.2517 97.2685 19.7843 98.7175C19.777 98.7086 19.7696 98.7008 19.7617 98.6925C20.167 97.2123 20.7947 95.5568 21.6477 94.0454C21.6782 93.992 21.7086 93.9385 21.7391 93.8851C21.9948 93.4436 22.2709 93.0139 22.5672 92.607Z" fill="#A9B0FF"/>
<path d="M22.6708 89.9915C22.7019 89.9597 22.7335 89.928 22.7657 89.8968C24.3914 88.2914 26.4569 87.4002 28.9699 88.0871C29.0162 88.116 29.0614 88.145 29.1071 88.1745C26.5455 87.5583 24.4817 88.4751 22.8543 90.0866C22.8216 90.1195 22.7888 90.1518 22.7561 90.1852C22.48 90.4663 22.2164 90.7675 21.9658 91.0842C21.9359 91.1215 21.9071 91.1594 21.8777 91.1972C21.5684 91.5975 21.2777 92.0216 21.0067 92.4614C20.9796 92.5054 20.9531 92.5499 20.926 92.5945C20.0098 94.1119 19.3138 95.8009 18.8154 97.3312C18.8081 97.3178 18.8007 97.3044 18.7939 97.2905C19.2303 95.7257 19.9122 93.9739 20.8442 92.4074C20.8701 92.364 20.8961 92.3206 20.9221 92.2777C21.1919 91.8335 21.4826 91.406 21.7931 91.0024C21.8213 90.9662 21.8501 90.9294 21.8783 90.8933C22.1301 90.5748 22.3937 90.2731 22.6708 89.9915Z" fill="#A9B0FF"/>
<path d="M23.3166 93.8547C23.3527 93.8034 23.3894 93.7528 23.4261 93.7027C23.6649 93.3776 23.9161 93.067 24.1803 92.7741C24.2209 92.7291 24.2615 92.6845 24.3033 92.64C26.1147 90.7028 28.507 89.644 31.4926 90.7779L31.5033 90.7974C28.5324 89.8399 26.1994 90.9076 24.4168 92.8031C24.375 92.8476 24.3338 92.8927 24.2926 92.9384C24.0278 93.2295 23.7755 93.539 23.5356 93.8624C23.4984 93.9125 23.4611 93.9626 23.4238 94.0139C23.1354 94.4147 22.865 94.8355 22.6115 95.2686C22.5782 95.3259 22.5455 95.3827 22.5128 95.4401C21.7479 96.7822 21.1484 98.234 20.6996 99.5767C20.6878 99.5672 20.6765 99.5583 20.6641 99.5489C21.0603 98.1778 21.6423 96.6787 22.4117 95.2936C22.4439 95.2358 22.4761 95.1784 22.5088 95.1211C22.7594 94.6841 23.0281 94.2594 23.3166 93.8547Z" fill="#A9B0FF"/>
<path d="M35.7422 78.1301C35.7354 77.9569 35.4622 77.9564 35.469 78.1301C35.4944 78.7558 35.2867 79.3959 35.0355 79.9632C34.7425 80.6245 34.3417 81.2613 33.8032 81.7557C33.5915 81.9499 33.3454 82.1214 33.079 82.2322C33.0976 82.2044 33.1151 82.1754 33.1315 82.1465C33.276 81.8898 33.311 81.602 33.2698 81.3148C33.1828 80.708 32.6449 80.3289 32.0477 80.3156C31.5458 80.3044 30.9672 80.5393 30.7691 81.0231C30.5162 81.6404 31.2038 82.2194 31.6949 82.4549C31.8766 82.5417 32.0561 82.5951 32.2322 82.6191C32.1747 82.6519 32.1165 82.6825 32.0584 82.7109C31.4849 82.9915 30.8363 83.129 30.2063 83.2186C29.8535 83.2687 29.4905 83.3016 29.1321 83.3021C28.956 83.3021 28.956 83.5715 29.1321 83.5715C29.6661 83.571 30.2046 83.5036 30.7285 83.4034C31.3556 83.2837 32.0059 83.1012 32.5416 82.7471C32.6048 82.7054 32.6663 82.6608 32.725 82.6129C33.6875 82.4599 34.4987 81.5102 34.9666 80.6969C35.2122 80.2699 35.4109 79.8134 35.5537 79.343C35.6734 78.9539 35.7586 78.5387 35.7422 78.1301ZM32.1532 82.3313C31.8145 82.2561 31.5029 82.0624 31.263 81.8186C31.1671 81.7212 31.0762 81.5959 31.0327 81.4796C31.0152 81.4334 30.9994 81.3571 30.9972 81.3359C30.9949 81.3098 30.9949 81.2831 30.9955 81.2569C30.9972 81.2129 30.9949 81.2341 31.0039 81.1912C31.0231 81.0977 31.0728 81.0108 31.127 80.9474C31.2066 80.8544 31.2771 80.8049 31.3816 80.7453C31.5904 80.6284 31.836 80.5778 32.0798 80.5855C32.3158 80.5933 32.5585 80.6757 32.7335 80.8383C32.935 81.0253 33.022 81.2998 33.0163 81.5714C33.0095 81.8904 32.8413 82.1498 32.6071 82.3558C32.4586 82.3719 32.3068 82.3652 32.1532 82.3313Z" fill="#AEB4FC"/>
<defs>
<linearGradient id="paint0_linear_9_3812" x1="91.6231" y1="28.0183" x2="91.6231" y2="168.228" gradientUnits="userSpaceOnUse">
<stop stop-color="#F5F6FF"/>
<stop offset="0.4118" stop-color="#D9DBF9"/>
<stop offset="0.7063" stop-color="#CACEFA"/>
<stop offset="0.8516" stop-color="#C6CAFF"/>
<stop offset="0.9639" stop-color="#C9CDFF"/>
<stop offset="1" stop-color="#A8AEF3"/>
</linearGradient>
<clipPath id="clip0_9_3812">
<rect width="32" height="26" fill="white" transform="translate(136 80)"/>
</clipPath>
<clipPath id="clip1_9_3812">
<rect width="35" height="35" fill="white" transform="translate(38 5)"/>
</clipPath>
</defs>
</svg>
