<?xml version="1.0" encoding="utf-8"?>
<!-- Generator: Adobe Illustrator 16.0.0, SVG Export Plug-In . SVG Version: 6.00 Build 0)  -->
<!DOCTYPE svg PUBLIC "-//W3C//DTD SVG 1.1//EN" "http://www.w3.org/Graphics/SVG/1.1/DTD/svg11.dtd">
<svg version="1.1" id="Layer_1" xmlns="http://www.w3.org/2000/svg" xmlns:xlink="http://www.w3.org/1999/xlink" x="0px" y="0px"
	 width="703.289px" height="662px" viewBox="0 0 703.289 662" enable-background="new 0 0 703.289 662" xml:space="preserve">
<g>
	<defs>
		<path id="SVGID_1_" d="M305.825,39.346c-35.836,8.127-71.248,23.661-99.968,46.764c-4.545,3.655-9.194,7.726-13.724,12.101
			c-10.464,10.105-20.296,21.828-26.754,33.782c-13.573,25.12-14.69,60.981-10.607,88.405c2.819,18.952,15.104,45.261,9.072,64.437
			c-8.173,25.978-51.221,24.919-72.228,31.424c-19.305,5.978-37.613,20.683-47.461,38.584
			c-30.208,54.92,6.124,84.342,24.298,108.899c20.659,27.921-24.355,61.68,1.499,89.539c27.035,29.127,59.596,41.229,113.644,41.229
			c107.084,0,131.063,8.408,279.457-2.112c28.114-1.991,65.578-8.407,93.602-11.415c42.301-4.543,146.635-41.291,119.411-110.801
			c-20.145-51.43-125.917-43.518-90.471-113.819c23.185-45.981,66.776-109.799,12.57-150.423
			c-39.361-29.498-64.557-46.439-87.398-91.042c-25.009-48.832-60.103-75.289-115.352-79.938
			c-10.976-0.924-22.007-1.476-33.025-1.476C343.39,33.484,324.424,35.127,305.825,39.346"/>
	</defs>
	<clipPath id="SVGID_2_">
		<use xlink:href="#SVGID_1_"  overflow="visible"/>
	</clipPath>
	
		<linearGradient id="SVGID_3_" gradientUnits="userSpaceOnUse" x1="-130" y1="857.0039" x2="-129" y2="857.0039" gradientTransform="matrix(0 578.426 578.426 0 -495354.5938 75208.3828)">
		<stop  offset="0" style="stop-color:#E3F4FF"/>
		<stop  offset="0.4118" style="stop-color:#E3F4FF"/>
		<stop  offset="0.7063" style="stop-color:#E1F3FF"/>
		<stop  offset="0.8516" style="stop-color:#D9F0FF"/>
		<stop  offset="0.9639" style="stop-color:#CCEAFF"/>
		<stop  offset="1" style="stop-color:#C6E7FF"/>
	</linearGradient>
	<rect x="13.947" y="33.484" clip-path="url(#SVGID_2_)" fill="url(#SVGID_3_)" width="689.342" height="569.434"/>
</g>
<g>
	<defs>
		<rect id="SVGID_4_" x="-130" y="-143" width="1000" height="1000"/>
	</defs>
	<clipPath id="SVGID_5_">
		<use xlink:href="#SVGID_4_"  overflow="visible"/>
	</clipPath>
	<path clip-path="url(#SVGID_5_)" fill="#99CCE0" d="M539.784,420.965c-4.14-31.271,49.599-34.018,44.49-4.49
		c11.816-19.709,44.95-0.356,35.794,21.973c9.673-1.755,17.384,6.135,20.989,14.447c4.456,10.261,1.176,17.619-5.693,25.951
		c9.264-0.109,19.032,8.011,19.639,17.566c0.879,13.823-1.318,17.956-8.741,25.317c10.222,1.009,13.358,13.474,13.066,22.71
		c-0.447,14.163-7.471,17.295-19.834,19.606c-14.551,2.721-26.633,2.851-41.373,1.061c-12.326-1.501-25.598-5.938-38.373-5.826
		c-20.901,0.18-41.697-2.387-62.352-5.313c-13.943-1.973-33.526-0.782-42.597-13.299c-7.353-10.155-9.962-23.074-5.092-34.715
		c2.653-6.347,16.315-23.765,24.261-12.589c-11.331-9.193-11.384-18.161-7.917-28.703c3.483-10.583,15.758-19.866,26.335-14.408
		c-7.074-13.696-0.846-28.333,11.727-37.09C504.113,413.164,526.636,398.156,539.784,420.965"/>
	<path clip-path="url(#SVGID_5_)" fill="#BDDEEF" d="M375.298,511.568c-19.005-21.116,11.087-50.128,31.626-33.314
		c-17.119-33.863,42.702-53.009,44.916-17.209c15.036-19.204,49.374-8.968,41.768,17.51c29.013-8.707,42.97,29.506,25.443,43.569
		c15.139,3.623,17.783,26.422,6.844,35.159c-9.884,7.891-34.404,6.03-47.317,6.032c-17.045,0.001-34.325-1.033-50.929-2.421
		c-18.846-1.574-48.417,4.219-64.051-9.621c-6.935-6.14-14.676-11.688-11.173-29.093
		C353.786,515.419,368.831,500.678,375.298,511.568"/>
	<path clip-path="url(#SVGID_5_)" fill="#BDDEEF" d="M588.816,538.38c-10.223-11.357,5.963-26.963,17.011-17.919
		c-9.209-18.216,22.972-28.516,24.161-9.258c8.09-10.332,26.559-4.825,22.467,9.419c15.61-4.685,23.118,15.873,13.688,23.435
		c8.143,1.95,9.566,14.215,3.683,18.913c-5.317,4.246-18.506,3.245-25.454,3.247c-9.168,0.001-18.466-0.556-27.393-1.304
		c-10.141-0.848-26.047,2.271-34.458-5.176c-3.731-3.302-7.893-6.285-6.007-15.648C577.244,540.453,585.335,532.521,588.816,538.38"
		/>
	<path clip-path="url(#SVGID_5_)" fill="#99CCE0" d="M693.22,585.135c0,33.993-151.877,61.546-339.222,61.546
		c-187.343,0-339.221-27.553-339.221-61.546c0-33.991,151.878-61.54,339.221-61.54C541.343,523.595,693.22,551.144,693.22,585.135"
		/>
	<path clip-path="url(#SVGID_5_)" fill-rule="evenodd" clip-rule="evenodd" fill="#60A0BF" d="M308.211,455.454
		c35.859,17.622,72.446,17.044,109.691,0l-54.718,85.809L308.211,455.454z"/>
	<path clip-path="url(#SVGID_5_)" fill-rule="evenodd" clip-rule="evenodd" fill="#CC3399" d="M365.488,492.594
		c0.085,0.007,0.171,0.021,0.256,0.033c-0.085,0.013-0.171,0.021-0.256,0.033V492.594z"/>
	<path clip-path="url(#SVGID_5_)" fill-rule="evenodd" clip-rule="evenodd" fill="#CC3399" d="M365.745,254.013
		c-0.086,0.013-0.171,0.033-0.256,0.046v-0.085C365.574,253.987,365.659,254,365.745,254.013"/>
	<path clip-path="url(#SVGID_5_)" fill-rule="evenodd" clip-rule="evenodd" fill="#5190B7" d="M380.452,538.654
		c-0.093,0.009-10.11-0.056-10.203-0.065c-122.791-16.52-76.014-77.08-72.888-140.47c0.111-2.105,0.167-4.22,0.167-6.326
		c0-10.101-1.085-19.915-2.523-29.356c-0.288-1.948-0.594-3.878-0.918-5.788c-6.345-38.346-15.871-70.106,24.033-89.325
		c5.482-2.653,11.9-5.055,19.386-7.207c7.921-2.282,17.178-4.304,27.985-6.057c0.083-0.009,0.166-0.037,0.25-0.046
		c0.093,0.009,0.176,0.037,0.259,0.046c11.039,1.8,20.463,3.868,28.495,6.206c77.146,22.456,42.093,70.717,42.093,130.165
		C436.588,456.073,507.324,521.587,380.452,538.654"/>
	<path clip-path="url(#SVGID_5_)" fill-rule="evenodd" clip-rule="evenodd" fill="#CC3399" d="M366.001,253.974v0.086
		c-0.085-0.014-0.171-0.033-0.257-0.047C365.831,254,365.917,253.987,366.001,253.974"/>
	<path clip-path="url(#SVGID_5_)" fill-rule="evenodd" clip-rule="evenodd" fill="#CC3399" d="M365.745,492.627
		c0.085-0.013,0.171-0.026,0.257-0.033v0.066C365.916,492.646,365.83,492.64,365.745,492.627"/>
	<path clip-path="url(#SVGID_5_)" fill-rule="evenodd" clip-rule="evenodd" fill="#F29D72" d="M530.921,422.718l2.206,8.9
		l-1.932,2.042c-3.385,3.577-5.407,7.481-6.372,12.313l-1.056,5.275l-4.94,7.929l0.253,0.1c2.502,0.956,5.233,0.164,6.836-1.981
		l4.61-6.177l5.071-0.261l-0.13,14.558l-3.12,7.15l-0.556,0.26c-1.894,0.878-2.988,2.742-2.833,4.823l0.009,0.116l17.64-3.824
		c2.607-0.566,4.642-2.021,6.02-4.306l1.559-2.587c1.436-2.383,2.227-4.688,2.553-7.45l0.447-3.792
		c0.712-6.036,0.298-11.316-1.35-17.166l-5.85-20.784C548.209,411.542,529.345,416.352,530.921,422.718"/>
	<path clip-path="url(#SVGID_5_)" fill-rule="evenodd" clip-rule="evenodd" fill="#4080A0" d="M394.509,260.793
		c0,13.526-12.764,24.492-28.507,24.492c-0.171,0-0.342,0-0.513-0.007c-15.514-0.23-28.001-11.104-28.001-24.485
		c0-0.224,0.007-0.454,0.02-0.678c7.918-2.277,17.179-4.298,27.981-6.055v-0.086c0.085,0.013,0.171,0.026,0.256,0.039
		c0.086-0.013,0.171-0.026,0.257-0.039v0.086c11.038,1.796,20.464,3.87,28.494,6.206
		C394.509,260.444,394.509,260.622,394.509,260.793"/>
	<path clip-path="url(#SVGID_5_)" fill-rule="evenodd" clip-rule="evenodd" fill="#BC956B" d="M387.73,271.23
		c-5.211,11.33-21.061,11.32-22.291,11.29c-1.85-0.03-16.36-0.53-21.17-11.31c-1.76-3.92-1.6-7.81-1.13-10.51
		c0.15-0.88,0.33-1.63,0.5-2.22c0-0.04,0.01-0.06,0.02-0.09c2.97-1.05,5.43-2.65,7.37-4.65c4.09-4.21,5.85-10.21,5.16-16.64h19.61
		c-0.56,5.91,0.82,11.86,4.55,16.08c1.57,1.78,3.57,3.25,6,4.27c0.67,0.3,1.33,0.61,1.99,0.94c0.021,0.07,0.04,0.15,0.05,0.22
		c0.08,0.29,0.15,0.57,0.21,0.85C389.65,264.07,389.21,268,387.73,271.23"/>
	<path clip-path="url(#SVGID_5_)" fill-rule="evenodd" clip-rule="evenodd" fill="#141414" d="M442.71,604.11
		c2.679,1.603,5.731,3.046,9.104,4.254c16.483,5.891,34.322,3.893,39.837-4.463c5.516-8.359-3.377-19.913-19.862-25.807
		c-6.688-2.392-13.6-3.484-19.816-3.382c-4.521,0.079-8.439-1.571-11.542-4.855c-0.832-0.881-1.78-1.683-2.833-2.377
		c-7.393-4.877-17.337-2.84-22.216,4.552c-4.877,7.39-2.84,17.336,4.553,22.215c1.444,0.954,2.988,1.642,4.572,2.079
		C431.222,598.175,436.736,600.535,442.71,604.11"/>
	<path clip-path="url(#SVGID_5_)" fill-rule="evenodd" clip-rule="evenodd" fill="#CCA279" d="M399.667,553.581l31.057,15.185
		c11.582,5.661,5.563,25.851-8.834,20.565l-35.335-12.975L399.667,553.581z"/>
	<path clip-path="url(#SVGID_5_)" fill-rule="evenodd" clip-rule="evenodd" fill="#C6C6C6" d="M408.52,555.18l-15.96,26.24
		c0,0-1.42-0.1-2.149-0.21c-47.33-7.41-96.38-24.72-143.08-52.34c-19.78-11.7-38.14-24.66-54.96-38.59
		c-7.25-6.011-11.52-13.2-13.34-20.66c-6.81-27.8,20.31-59.25,52.97-46.34c20.31,8.029,40.51,17.88,60.29,29.58
		c46.01,27.21,84.35,61.229,113.479,98.489c0.44,0.561,0.881,1.12,1.311,1.681C407.62,553.73,408.52,555.18,408.52,555.18"/>
	<path clip-path="url(#SVGID_5_)" fill-rule="evenodd" clip-rule="evenodd" fill="#DDDDDD" d="M405.77,551.35l-15,24.65
		c0,0-1.42-0.1-2.149-0.21c-47.33-7.41-96.38-24.72-143.07-52.34c-19.78-11.7-38.14-24.66-54.97-38.59
		c-5.47-4.53-9.25-9.75-11.55-15.24c-6.81-27.8,20.31-59.25,52.97-46.34c20.31,8.029,40.51,17.88,60.29,29.58
		C338.3,480.07,376.64,514.09,405.77,551.35"/>
	<path clip-path="url(#SVGID_5_)" fill-rule="evenodd" clip-rule="evenodd" fill="#141414" d="M289.822,597.775
		c-2.626,1.574-5.624,2.99-8.933,4.172c-16.18,5.784-33.685,3.824-39.099-4.38c-5.414-8.202,3.314-19.542,19.494-25.325
		c6.563-2.349,13.347-3.419,19.45-3.317c4.436,0.076,8.281-1.543,11.328-4.768c0.816-0.863,1.745-1.649,2.779-2.333
		c7.254-4.785,17.015-2.785,21.802,4.468c4.787,7.254,2.788,17.015-4.466,21.803c-1.419,0.934-2.934,1.612-4.489,2.041
		C301.1,591.95,295.686,594.267,289.822,597.775"/>
	<path clip-path="url(#SVGID_5_)" fill-rule="evenodd" clip-rule="evenodd" fill="#CCA279" d="M332.066,548.186l-30.48,14.899
		c-11.368,5.558-5.459,25.372,8.67,20.185l34.678-12.734L332.066,548.186z"/>
	<path clip-path="url(#SVGID_5_)" fill-rule="evenodd" clip-rule="evenodd" fill="#C6C6C6" d="M553.52,454.97
		c0.12,10.601-4.17,21.44-14.399,29.91c-16.82,13.94-35.18,26.89-54.96,38.59c-46.7,27.62-95.75,44.931-143.08,52.34
		c-0.47,0.08-1.41,0.171-1.41,0.171L323.4,549.06c0,0,0.65-0.96,1.01-1.43c0.14-0.18,0.28-0.37,0.43-0.55
		c29.24-37.69,67.891-72.13,114.36-99.62c19.78-11.7,39.979-21.55,60.29-29.58C528.56,406.39,553.24,430.03,553.52,454.97"/>
	<path clip-path="url(#SVGID_5_)" fill-rule="evenodd" clip-rule="evenodd" fill="#DDDDDD" d="M553.52,454.97
		c-0.909,9.25-5.31,18.44-14.229,25.83c-16.82,13.931-35.18,26.891-54.96,38.58c-46.7,27.62-95.75,44.93-143.08,52.34
		c-0.47,0.08-1.41,0.17-1.41,0.17l-15-24.81c29.24-37.69,67.891-72.13,114.36-99.62c19.78-11.7,39.979-21.55,60.29-29.58
		C528.56,406.39,553.24,430.03,553.52,454.97"/>
	<path clip-path="url(#SVGID_5_)" fill-rule="evenodd" clip-rule="evenodd" fill="#5190B7" d="M318.12,267.323
		c0.167-0.056,0.324-0.111,0.492-0.158c-34.868,26.603-14.109,47.325-10.398,89.937c-1.503,2.772-6.298,3.877-13.209,5.333
		c-1.595,0.343-3.311,0.705-5.12,1.104c-12.225,2.728-28.958,7.495-45.664,22.096c-10.454,9.127-28.541,27.224-38.132,37.24
		c-9.675,10.13-31.194,5.621-28.003-12.901C186.796,359.328,245.371,290.169,318.12,267.323"/>
	<path clip-path="url(#SVGID_5_)" fill-rule="evenodd" clip-rule="evenodd" fill="#9E64D0" d="M318.75,267.119
		c-0.046,0.02-0.093,0.028-0.139,0.046c0.019-0.018,0.037-0.027,0.056-0.046H318.75z"/>
	<path clip-path="url(#SVGID_5_)" fill-rule="evenodd" clip-rule="evenodd" fill="#CCA279" d="M200.57,422.718l-2.206,8.9
		l1.931,2.042c3.385,3.577,5.407,7.481,6.372,12.313l1.056,5.275l4.94,7.929l-0.253,0.1c-2.502,0.956-5.233,0.164-6.836-1.981
		l-4.61-6.177l-5.071-0.261l0.13,14.558l3.12,7.15l0.555,0.26c1.894,0.878,2.989,2.742,2.833,4.823l-0.008,0.116l-17.64-3.824
		c-2.607-0.566-4.642-2.021-6.019-4.306l-1.559-2.587c-1.436-2.383-2.227-4.688-2.553-7.45l-0.447-3.792
		c-0.712-6.036-0.298-11.316,1.349-17.166l5.85-20.784C183.281,411.542,202.146,416.352,200.57,422.718"/>
	<path clip-path="url(#SVGID_5_)" fill-rule="evenodd" clip-rule="evenodd" fill="#5190B7" d="M412.736,267.118
		c73.039,22.652,131.926,92.063,140.672,142.857c3.189,18.525-18.328,23.026-28.01,12.903c-9.589-10.023-27.68-28.115-38.124-37.242
		c-29.882-26.113-59.808-20.784-63.996-28.532c3.707-42.629,24.4-63.355-10.539-89.987H412.736z"/>
	<path clip-path="url(#SVGID_5_)" fill-rule="evenodd" clip-rule="evenodd" fill="#CCA279" d="M531.347,422.718l2.206,8.9
		l-1.931,2.042c-3.386,3.577-5.407,7.481-6.373,12.313l-1.055,5.275l-4.94,7.929l0.253,0.1c2.503,0.956,5.234,0.164,6.836-1.981
		l4.611-6.177l5.07-0.261l-0.13,14.558l-3.119,7.15l-0.557,0.26c-1.894,0.878-2.988,2.742-2.833,4.823l0.009,0.116l17.641-3.824
		c2.605-0.566,4.641-2.021,6.018-4.306l1.561-2.587c1.437-2.383,2.225-4.688,2.552-7.45l0.448-3.792
		c0.711-6.036,0.298-11.316-1.35-17.166l-5.85-20.784C548.636,411.542,529.771,416.352,531.347,422.718"/>
	<path clip-path="url(#SVGID_5_)" fill="#987957" d="M388.6,259.46c-1.789,1.02-4.039,2.17-6.71,3.22
		c-3.18,1.26-8.79,3.42-16.459,3.58c-2.32,0.04-8.88-0.01-16.6-2.94c-2.2-0.83-4.11-1.76-5.69-2.62c0.15-0.88,0.33-1.63,0.5-2.22
		c0-0.04,0.01-0.06,0.02-0.09c2.97-1.05,5.43-2.65,7.37-4.65c4.09-4.21,5.85-10.21,5.16-16.64h19.61
		c-0.56,5.91,0.82,11.86,4.55,16.08c1.57,1.78,3.57,3.25,6,4.27c0.671,0.3,1.33,0.61,1.99,0.94c0.021,0.07,0.04,0.15,0.05,0.22
		C388.47,258.9,388.54,259.18,388.6,259.46"/>
	<path clip-path="url(#SVGID_5_)" fill="#BC956B" d="M320.926,190.411c-1.754-4.429-4.078-7.401-5.689-9.151
		c-1.802-1.958-3.586-3.846-6.521-4.531c-0.899-0.21-3.658-0.854-5.648,0.651c-1.621,1.226-2.024,3.341-2.172,5.648
		c-0.323,5.007,0.603,10.098,3.584,18.138c3.015,8.134,4.924,10.626,6.8,12.37c2.992,2.782,5.364,3.161,6.555,3.216
		c0.767,0.035,2.34,0.086,3.833-0.866c2.967-1.892,2.858-5.983,2.844-6.307C323.317,203.19,322.121,196.8,320.926,190.411"/>
	<path clip-path="url(#SVGID_5_)" fill="#BC956B" d="M414.169,216.01c0.7,0.656,1.942,1.607,3.627,1.814
		c0.585,0.072,2.976,0.27,6.432-2.803c7.647-6.801,8.133-18.611,8.327-23.332c0.09-2.188,0.083-5.832-2.145-8.821
		c-0.595-0.799-1.761-2.318-3.627-2.556c-1.508-0.192-2.717,0.548-3.545,1.072c-3.196,2.019-4.325,5.547-4.7,7.007
		C418.538,188.391,412.025,211.063,414.169,216.01"/>
	<path clip-path="url(#SVGID_5_)" fill="#BC956B" d="M418.005,153.839c-1.585-6.207-3.18-12.45-7.914-18.55
		c-13.1-16.875-38.764-17.878-54.66-14.592c-6.917,1.429-18.93,3.913-27.949,14.098c-9.728,10.986-10.145,24.352-10.635,40.067
		c-0.476,15.255,2.345,25.917,6.678,42.294c1.707,6.451,4.865,17.149,12.366,27.701c3.285,4.62,6.289,7.646,10.265,9.893
		c4.782,2.702,9.006,3.166,15.087,3.833c6.42,0.705,12.646,1.388,19.786-1.36c0.864-0.332,4.367-1.72,8.615-5.029
		c12.711-9.902,21.429-28.69,23.908-34.296C413.553,217.898,424.602,172.883,418.005,153.839"/>
	<path clip-path="url(#SVGID_5_)" fill="#111010" d="M417.507,192.845c3.572-6.013,7.314-13.741,9.996-23.115
		c2.121-7.415,4.955-17.711,3.123-30.612c-1.145-8.075-2.405-16.948-9.787-22.491c-5.803-4.356-12.557-4.529-15.827-4.373
		c0.12-3.179-0.543-5.517-1.041-6.872c-3.569-9.702-14.767-12.512-16.243-12.859c-2.264-0.532-4.127-0.624-5.47-0.642
		c-10.572-0.141-21.142,3.921-28.683,7.67c0,0-13.152,5.494-26.03,14.786c-2.551,1.841-6.705,5.035-7.705,10.204
		c-0.32,1.657-0.234,3.089-0.104,4.06c-1.64,0.569-8.195,3.051-11.766,9.996c-1.324,2.575-1.943,5.2-2.187,9.684
		c-0.78,14.32,3.294,25.834,4.165,28.217c1.856,5.077,5.114,12.298,10.933,19.991c-1.04-3.907-1.939-9.544-0.624-15.93
		c0.594-2.888,1.193-3.759,3.956-11.246c2.994-8.113,4.492-12.17,5.31-15.826c0.92-4.107,1.704-10.337,0.417-18.534
		c5.493,0.888,11.519,1.511,18.013,1.666c22.028,0.525,40.353-4.557,53.207-9.579c-0.339,6.763,0.014,18.513,5.623,31.445
		c3.191,7.361,7.17,12.99,10.516,16.972C417.368,181.253,417.438,187.049,417.507,192.845"/>
	<path clip-path="url(#SVGID_5_)" fill="#484443" d="M334.886,121.678c4.014-0.066,8.651-0.401,13.744-1.249
		c5.713-0.952,10.694-2.33,14.838-3.749c-3.801,3.384-7.601,6.768-11.402,10.152c4.256-0.209,8.977-0.678,14.057-1.562
		c7.653-1.331,14.309-3.288,19.835-5.31c-4.854,2.977-11.673,6.429-20.304,8.746c-13.381,3.593-24.886,2.783-31.861,1.718
		c5.258-2.394,10.516-4.789,15.775-7.184C344.674,122.719,339.78,122.199,334.886,121.678"/>
	<path clip-path="url(#SVGID_5_)" fill="#484443" d="M325.462,138.077c0.726,3.435,1.352,8.343,0.729,14.161
		c-0.885,8.261-3.872,14.469-5.935,18.013c1.085-5.251,2.102-10.739,3.02-16.452C324.146,148.388,324.867,143.141,325.462,138.077"
		/>
	<path clip-path="url(#SVGID_5_)" fill="#484443" d="M319.215,150.155c0.48,2.499,0.931,6.539,0,11.349
		c-0.744,3.845-2.112,6.844-3.228,8.851c0.189-2.963,0.516-6.171,1.041-9.58C317.625,156.907,318.388,153.356,319.215,150.155"/>
	<path clip-path="url(#SVGID_5_)" fill="#484443" d="M410.166,136.203c-2.07,5.12-0.481,10.028,0.469,12.963
		c2.223,6.866,6.654,11.27,9.215,13.432c-1.911-3.004-4.167-7.248-5.778-12.651c-2.065-6.923-2.239-12.967-2.031-17.024
		C411.486,133.65,410.753,134.75,410.166,136.203"/>
	<path clip-path="url(#SVGID_5_)" fill="#331D09" d="M337.297,184.258c0,0,0.777,7.116,10.014,6.726
		c9.237-0.39,9.24-7.245,9.24-7.245c-0.382,0.416-3.678,3.893-9.254,4.309C340.85,188.529,337.461,184.464,337.297,184.258"/>
	<path clip-path="url(#SVGID_5_)" fill="#331D09" d="M381.011,184.258c0,0,0.777,7.116,10.015,6.726
		c9.236-0.39,9.239-7.245,9.239-7.245c-0.382,0.416-3.678,3.893-9.254,4.309C384.564,188.529,381.175,184.464,381.011,184.258"/>
	<path clip-path="url(#SVGID_5_)" d="M364.044,225.111c-7.249,3.125-15.615,3.342-22.863,0.59
		c7.212,1.079,14.728-0.642,20.547-4.815C364.724,218.942,367.297,223.627,364.044,225.111"/>
	<path clip-path="url(#SVGID_5_)" d="M371.688,220.887c5.82,4.173,13.333,5.894,20.547,4.815c-7.249,2.752-15.612,2.535-22.863-0.59
		C366.123,223.63,368.687,218.943,371.688,220.887"/>
	<path clip-path="url(#SVGID_5_)" fill="#987957" d="M370.499,241.033c-0.169,0-0.343-0.031-0.511-0.096
		c-1.136-0.442-2.336-0.6-3.54-0.664c-1.135,0.001-2.251,0.2-3.319,0.59c-0.733,0.266-1.54-0.11-1.808-0.84
		c-0.267-0.732,0.109-1.541,0.84-1.808c1.378-0.503,2.819-0.759,4.283-0.761h0.02c1.558,0,3.087,0.288,4.547,0.855
		c0.726,0.283,1.084,1.099,0.802,1.825C371.596,240.692,371.063,241.033,370.499,241.033"/>
	<path clip-path="url(#SVGID_5_)" fill="#542525" d="M375.875,160.074l0.612,7.828c0,0,19.701-4.616,35.501,2.931
		C411.988,170.833,400.606,156.709,375.875,160.074"/>
	<path clip-path="url(#SVGID_5_)" fill="#542525" d="M361.426,161.512l-0.713,7.819c0,0-19.64-4.865-35.535,2.48
		C325.178,171.811,336.739,157.833,361.426,161.512"/>
	<path clip-path="url(#SVGID_5_)" fill="#987957" d="M368.639,178.206c1.781,3.014,3.131,7.854,4.411,11.131
		c2.502,7.22,7.229,16.63,0.614,23.08c-3.217,2.652-8.516,2.72-11.527-0.173c5.536,2.588,12.314,1.195,13.404-5.536
		c1.361-5.929-1.944-11.375-3.559-16.994C370.975,186.343,369.092,181.683,368.639,178.206"/>
	<path clip-path="url(#SVGID_5_)" fill="#652B28" d="M352.08,230.652c0,0,12.305,7.378,29.257,0
		C381.337,230.652,368.777,234.147,352.08,230.652"/>
	<path clip-path="url(#SVGID_5_)" fill-rule="evenodd" clip-rule="evenodd" fill="#4080A0" d="M297.361,398.119
		c0.111-2.106,0.167-4.22,0.167-6.326c0-10.101-1.085-19.915-2.523-29.356c1.787-8.974,7.75-38.334,7.75-38.334
		C304.799,348.863,300.682,390.457,297.361,398.119"/>
	<path clip-path="url(#SVGID_5_)" fill-rule="evenodd" clip-rule="evenodd" fill="#4080A0" d="M437.06,399.984
		c-0.111-2.106-0.303-5.345-0.303-7.45c0-10.102,0.438-19.974,1.876-29.417c-1.787-8.973-7.75-38.333-7.75-38.333
		C428.838,349.544,433.738,392.322,437.06,399.984"/>
	<g clip-path="url(#SVGID_5_)">
		<defs>
			<path id="SVGID_6_" d="M-264.731,458.489c-0.266,1.007-0.455,1.724-0.633,2.372c0,0-8.995,32.783-32.112,64.878
				c-11.951,16.593-40.54,50-83.744,76.596c-95.88,59.023-223.915,59.992-264.337,59.077
				c-129.15-2.921-239.714-44.863-298.387-92.779c-30.788-25.143-51.83-54.896-51.83-54.896
				c-9.608-13.586-27.765-48.348-42.364-95.155c-15.686-50.293-19.206-102.742,14.656-134.984
				c81.492-77.596,159.137-8.424,174.656-92.114c14.309-77.185,68.838-152.138,168.075-127.972
				c127.402,31.024,113.329,118.839,175.872,112.265c62.55-6.573,169.543-55.732,188.888,37.355
				c19.345,93.08-71.301,172.916-13.578,166.322C-290.232,374.952-239.995,364.949-264.731,458.489"/>
		</defs>
		<clipPath id="SVGID_7_">
			<use xlink:href="#SVGID_6_"  overflow="visible"/>
		</clipPath>
		<path clip-path="url(#SVGID_7_)" fill="#D2F0FF" d="M-61.544,498.255c-16.485,28.615-39.334,53.176-64.835,73.998
			c-52.655,42.648-115.507,70.907-179.709,91.456c0.79-0.249,1.577-0.498,2.363-0.756c-205.215,0.123-413.09,0.23-608.148,0.148
			c0.261,0.094,0.521,0.188,0.782,0.279c-86.531-30.827-174.758-84.183-210.688-172.75
			C-991.018,489.308-304.029,456.033-61.544,498.255"/>
		<path clip-path="url(#SVGID_7_)" fill="#BDDEEF" d="M-67.588,508.14c-15.854,24.457-36.261,45.714-58.791,64.113
			c-50.201,40.692-109.779,68.241-170.803,88.572c-206.233,6.213-417.851,0.311-614.691,2.28c-3.947-1.408-7.881-2.857-11.793-4.351
			c-26.126-9.949-51.569-21.779-75.642-36.012c-13.145-7.767-25.862-16.266-37.969-25.563
			C-750.854,524.815-223.042,510.747-67.588,508.14"/>
	</g>
</g>
</svg>
