<?xml version="1.0" encoding="utf-8"?>
<!-- Generator: Adobe Illustrator 16.0.0, SVG Export Plug-In . SVG Version: 6.00 Build 0)  -->
<!DOCTYPE svg PUBLIC "-//W3C//DTD SVG 1.1//EN" "http://www.w3.org/Graphics/SVG/1.1/DTD/svg11.dtd">
<svg version="1.1" id="Layer_1" xmlns="http://www.w3.org/2000/svg" xmlns:xlink="http://www.w3.org/1999/xlink" x="0px" y="0px"
	 width="333px" height="243px" viewBox="0 0 333 243" enable-background="new 0 0 333 243" xml:space="preserve">
<g>
	<defs>
		<rect id="SVGID_1_" width="333" height="243"/>
	</defs>
	<clipPath id="SVGID_2_">
		<use xlink:href="#SVGID_1_"  overflow="visible"/>
	</clipPath>
	<g clip-path="url(#SVGID_2_)">
		<defs>
			<rect id="SVGID_3_" width="333" height="243"/>
		</defs>
		<clipPath id="SVGID_4_">
			<use xlink:href="#SVGID_3_"  overflow="visible"/>
		</clipPath>
		<path clip-path="url(#SVGID_4_)" fill="#F9F0E3" d="M170.242,240.597c39.226,0,71.024-1.239,71.024-2.77
			s-31.799-2.771-71.024-2.771c-39.227,0-71.026,1.24-71.026,2.771S131.015,240.597,170.242,240.597"/>
		<g opacity="0.5" clip-path="url(#SVGID_4_)" enable-background="new    ">
			<g>
				<defs>
					<rect id="SVGID_5_" x="0.195" y="229.081" width="90.173" height="6.849"/>
				</defs>
				<clipPath id="SVGID_6_">
					<use xlink:href="#SVGID_5_"  overflow="visible"/>
				</clipPath>
				<path clip-path="url(#SVGID_6_)" fill="#F9EAD4" d="M45.282,235.93c24.901,0,45.087-1.533,45.087-3.425
					c0-1.891-20.186-3.424-45.087-3.424c-24.901,0-45.087,1.533-45.087,3.424C0.194,234.396,20.38,235.93,45.282,235.93"/>
			</g>
		</g>
		<path clip-path="url(#SVGID_4_)" fill="#F9F0E3" d="M328.659,240.604c0,1.156-15.35,2.088-34.286,2.088
			s-34.285-0.932-34.285-2.088c0-1.155,15.349-2.086,34.285-2.086C313.303,238.518,328.659,239.448,328.659,240.604"/>
		<polygon clip-path="url(#SVGID_4_)" fill="#E7CCA8" points="245.568,74.824 243.984,77.557 247.144,77.557 		"/>
		<polygon clip-path="url(#SVGID_4_)" fill="#E7CCA8" points="245.568,79.84 243.984,82.574 247.144,82.574 		"/>
		<polygon clip-path="url(#SVGID_4_)" fill="#E7CCA8" points="248.844,76.881 247.376,79.84 250.304,79.84 		"/>
		<polygon clip-path="url(#SVGID_4_)" fill="#E7CCA8" points="7.618,91.131 6.034,93.872 9.194,93.872 		"/>
		<polygon clip-path="url(#SVGID_4_)" fill="#E7CCA8" points="7.618,96.147 6.034,98.881 9.194,98.881 		"/>
		<polygon clip-path="url(#SVGID_4_)" fill="#E7CCA8" points="10.895,93.188 9.428,96.147 12.354,96.147 		"/>
		<polygon clip-path="url(#SVGID_4_)" fill="#E7CCA8" points="242.408,195.9 240.832,198.634 243.984,198.634 		"/>
		<polygon clip-path="url(#SVGID_4_)" fill="#E7CCA8" points="242.408,200.909 240.832,203.65 243.984,203.65 		"/>
		<polygon clip-path="url(#SVGID_4_)" fill="#E7CCA8" points="245.684,197.951 244.224,200.909 247.144,200.909 		"/>
		<path clip-path="url(#SVGID_4_)" fill="none" stroke="#FFFFFF" stroke-miterlimit="10" d="M180.142,55.507
			c0,1.927-1.554,3.482-3.479,3.482s-3.48-1.555-3.48-3.482c0-1.927,1.556-3.482,3.48-3.482
			C178.58,52.025,180.142,53.588,180.142,55.507z"/>
		<path clip-path="url(#SVGID_4_)" fill="#FEE6C6" d="M330.482,203.636h-72.108c-1.068,0-1.932-0.864-1.932-1.934
			s0.863-1.935,1.932-1.935h72.108c1.067,0,1.932,0.865,1.932,1.935S331.55,203.636,330.482,203.636"/>
		<path clip-path="url(#SVGID_4_)" fill="#FEE6C6" d="M268.333,237.827c-1.083,0-1.976-0.662-2.021-1.505l-1.873-33.879h7.786
			l-1.874,33.879C270.301,237.165,269.415,237.827,268.333,237.827"/>
		<path clip-path="url(#SVGID_4_)" fill="#FEE6C6" d="M321.221,237.827c-1.083,0-1.976-0.662-2.02-1.505l-1.874-33.879h7.787
			l-1.874,33.879C323.189,237.165,322.303,237.827,321.221,237.827"/>
		<path clip-path="url(#SVGID_4_)" fill="#FEE6C6" d="M294.432,237.827c-1.083,0-1.976-0.662-2.02-1.505l-1.874-33.879h7.787
			l-1.874,33.879C296.407,237.165,295.514,237.827,294.432,237.827"/>
		<path clip-path="url(#SVGID_4_)" fill="#F9D8AC" d="M310.608,192.997c1.038-4.631-1.872-9.228-6.499-10.265
			c-4.627-1.039-9.22,1.874-10.258,6.505c-1.036,4.631,1.872,9.227,6.5,10.265C304.979,200.541,309.571,197.628,310.608,192.997"/>
		<path clip-path="url(#SVGID_4_)" fill="#F9D8AC" d="M306.555,184.057H297.7c-0.494,0-0.894-0.399-0.894-0.894
			s0.399-0.895,0.894-0.895h8.854c0.494,0,0.894,0.4,0.894,0.895S307.049,184.057,306.555,184.057"/>
		<path clip-path="url(#SVGID_4_)" fill="#F9D8AC" d="M298.311,167.99c0.313,0.146,0.683,0.698,0.807,1.461
			c0.123,0.764-0.037,1.418-0.298,1.644c-0.306-0.139-0.684-0.697-0.807-1.462C297.889,168.87,298.071,168.223,298.311,167.99"/>
		
			<rect x="299.114" y="171.001" transform="matrix(0.986 -0.167 0.167 0.986 -24.7723 52.4098)" clip-path="url(#SVGID_4_)" fill="#F9D8AC" width="0.181" height="4.965"/>
		<path clip-path="url(#SVGID_4_)" fill="#F9D8AC" d="M300.889,170.884c-0.334-0.021-0.886,0.29-1.293,0.908
			c-0.406,0.626-0.515,1.287-0.377,1.622c0.326,0.029,0.887-0.291,1.293-0.909C300.926,171.887,301.013,171.218,300.889,170.884"/>
		<path clip-path="url(#SVGID_4_)" fill="#F9D8AC" d="M296.792,171.56c0.313-0.131,0.93-0.015,1.519,0.443s0.9,1.054,0.879,1.418
			c-0.298,0.138-0.93,0.014-1.519-0.444C297.083,172.519,296.785,171.916,296.792,171.56"/>
		<path clip-path="url(#SVGID_4_)" fill="#F9D8AC" d="M297.185,173.959c0.313-0.131,0.93-0.007,1.519,0.443
			c0.588,0.458,0.899,1.055,0.879,1.418c-0.298,0.138-0.93,0.015-1.52-0.443C297.475,174.919,297.177,174.315,297.185,173.959"/>
		<path clip-path="url(#SVGID_4_)" fill="#F9D8AC" d="M301.289,173.29c-0.335-0.022-0.887,0.291-1.293,0.909
			c-0.407,0.618-0.516,1.286-0.378,1.621c0.327,0.028,0.886-0.291,1.293-0.909C301.318,174.286,301.412,173.617,301.289,173.29"/>
		
			<rect x="299.898" y="175.792" transform="matrix(0.9868 -0.1618 0.1618 0.9868 -24.889 50.879)" clip-path="url(#SVGID_4_)" fill="#F9D8AC" width="0.181" height="4.966"/>
		<path clip-path="url(#SVGID_4_)" fill="#F9D8AC" d="M301.681,175.675c-0.334-0.021-0.886,0.291-1.293,0.909
			c-0.406,0.625-0.516,1.286-0.378,1.621c0.327,0.029,0.887-0.284,1.293-0.909C301.71,176.678,301.804,176.009,301.681,175.675"/>
		<path clip-path="url(#SVGID_4_)" fill="#F9D8AC" d="M297.577,176.351c0.312-0.131,0.93-0.015,1.518,0.443s0.901,1.055,0.879,1.418
			c-0.298,0.138-0.93,0.015-1.518-0.443C297.867,177.311,297.57,176.707,297.577,176.351"/>
		<path clip-path="url(#SVGID_4_)" fill="#F9D8AC" d="M297.976,178.757c0.313-0.131,0.931-0.007,1.52,0.444
			c0.588,0.458,0.899,1.054,0.879,1.418c-0.298,0.138-0.93,0.014-1.519-0.444S297.962,179.106,297.976,178.757"/>
		<path clip-path="url(#SVGID_4_)" fill="#F9D8AC" d="M302.073,178.081c-0.334-0.022-0.887,0.291-1.293,0.909
			s-0.516,1.287-0.377,1.621c0.325,0.028,0.886-0.291,1.293-0.909C302.11,179.084,302.197,178.408,302.073,178.081"/>
		
			<rect x="300.689" y="180.582" transform="matrix(0.9868 -0.1618 0.1618 0.9868 -25.6534 51.0701)" clip-path="url(#SVGID_4_)" fill="#F9D8AC" width="0.181" height="4.966"/>
		<path clip-path="url(#SVGID_4_)" fill="#F9D8AC" d="M305.996,171.531c0.247,0.218,0.421,0.785,0.297,1.446
			c-0.123,0.661-0.479,1.142-0.799,1.243c-0.247-0.211-0.421-0.785-0.305-1.446C305.32,172.12,305.691,171.647,305.996,171.531"/>
		
			<rect x="302.959" y="176.225" transform="matrix(0.1809 -0.9835 0.9835 0.1809 76.5112 444.5011)" clip-path="url(#SVGID_4_)" fill="#F9D8AC" width="4.318" height="0.183"/>
		<path clip-path="url(#SVGID_4_)" fill="#F9D8AC" d="M307.521,174.715c-0.313-0.123-0.923-0.043-1.512,0.327
			c-0.581,0.379-0.893,0.887-0.863,1.2c0.298,0.131,0.922,0.044,1.511-0.327C307.238,175.537,307.528,175.021,307.521,174.715"/>
		<path clip-path="url(#SVGID_4_)" fill="#F9D8AC" d="M303.432,173.959c0.334-0.007,0.878,0.284,1.292,0.844
			c0.415,0.56,0.523,1.148,0.386,1.433c-0.326,0.014-0.878-0.284-1.292-0.845C303.402,174.832,303.315,174.243,303.432,173.959"/>
		<path clip-path="url(#SVGID_4_)" fill="#F9D8AC" d="M303.054,176.046c0.334-0.008,0.879,0.283,1.293,0.843
			c0.414,0.561,0.523,1.149,0.386,1.433c-0.327,0.015-0.88-0.283-1.293-0.844C303.025,176.918,302.93,176.329,303.054,176.046"/>
		<path clip-path="url(#SVGID_4_)" fill="#F9D8AC" d="M307.136,176.794c-0.312-0.123-0.922-0.043-1.511,0.328
			c-0.581,0.378-0.893,0.886-0.864,1.199c0.298,0.131,0.922,0.044,1.511-0.327C306.853,177.623,307.151,177.1,307.136,176.794"/>
		
			<rect x="302.2" y="180.381" transform="matrix(0.1809 -0.9835 0.9835 0.1809 71.8017 447.1586)" clip-path="url(#SVGID_4_)" fill="#F9D8AC" width="4.318" height="0.182"/>
		<path clip-path="url(#SVGID_4_)" fill="#F9D8AC" d="M306.758,178.866c-0.312-0.123-0.922-0.043-1.511,0.327
			c-0.581,0.378-0.894,0.887-0.864,1.199c0.298,0.132,0.923,0.044,1.511-0.326C306.475,179.695,306.766,179.179,306.758,178.866"/>
		<path clip-path="url(#SVGID_4_)" fill="#F9D8AC" d="M302.669,178.118c0.334-0.008,0.879,0.283,1.293,0.843
			c0.414,0.561,0.523,1.149,0.385,1.432c-0.327,0.016-0.879-0.282-1.293-0.843C302.64,178.99,302.553,178.401,302.669,178.118"/>
		
			<rect x="301.431" y="184.534" transform="matrix(0.1805 -0.9836 0.9836 0.1805 67.2064 449.9082)" clip-path="url(#SVGID_4_)" fill="#F9D8AC" width="4.318" height="0.181"/>
		<path clip-path="url(#SVGID_4_)" fill="#FEE6C6" d="M312.083,130.338c0.378,0.24,0.777,1.004,0.821,2.014
			c0.05,1.004-0.263,1.825-0.625,2.079c-0.378-0.218-0.777-1.003-0.828-2.013C311.407,131.414,311.741,130.607,312.083,130.338"/>
		
			<rect x="312.311" y="134.338" transform="matrix(0.9988 -0.0491 0.0491 0.9988 -6.3804 15.5129)" clip-path="url(#SVGID_4_)" fill="#FEE6C6" width="0.239" height="6.463"/>
		<path clip-path="url(#SVGID_4_)" fill="#FEE6C6" d="M314.988,134.468c-0.429-0.08-1.185,0.24-1.809,0.982
			c-0.625,0.741-0.857,1.592-0.727,2.042c0.422,0.095,1.184-0.24,1.809-0.981C314.879,135.769,315.097,134.919,314.988,134.468"/>
		<path clip-path="url(#SVGID_4_)" fill="#FEE6C6" d="M309.591,134.73c0.422-0.117,1.206,0.122,1.896,0.799
			c0.689,0.677,1.01,1.498,0.923,1.963c-0.407,0.131-1.206-0.123-1.896-0.799C309.816,136.017,309.519,135.188,309.591,134.73"/>
		<path clip-path="url(#SVGID_4_)" fill="#FEE6C6" d="M309.744,137.892c0.421-0.115,1.205,0.124,1.896,0.801
			c0.69,0.676,1.01,1.497,0.922,1.963c-0.406,0.131-1.205-0.124-1.896-0.8C309.969,139.179,309.678,138.35,309.744,137.892"/>
		<path clip-path="url(#SVGID_4_)" fill="#FEE6C6" d="M315.141,137.63c-0.429-0.08-1.184,0.24-1.809,0.982
			c-0.625,0.74-0.857,1.592-0.726,2.043c0.421,0.094,1.184-0.24,1.808-0.982C315.032,138.932,315.25,138.081,315.141,137.63"/>
		
			<rect x="312.603" y="140.684" transform="matrix(0.9988 -0.0489 0.0489 0.9988 -6.6661 15.471)" clip-path="url(#SVGID_4_)" fill="#FEE6C6" width="0.24" height="6.464"/>
		<path clip-path="url(#SVGID_4_)" fill="#FEE6C6" d="M315.293,140.785c-0.428-0.08-1.184,0.24-1.808,0.981
			c-0.625,0.741-0.857,1.593-0.728,2.043c0.422,0.095,1.185-0.239,1.81-0.981C315.184,142.087,315.402,141.229,315.293,140.785"/>
		<path clip-path="url(#SVGID_4_)" fill="#FEE6C6" d="M309.896,141.047c0.422-0.116,1.205,0.124,1.896,0.8
			c0.69,0.677,1.01,1.497,0.923,1.963c-0.407,0.132-1.206-0.124-1.896-0.8C310.121,142.327,309.824,141.498,309.896,141.047"/>
		<path clip-path="url(#SVGID_4_)" fill="#FEE6C6" d="M310.049,144.21c0.421-0.117,1.206,0.123,1.896,0.799
			c0.689,0.676,1.009,1.498,0.922,1.963c-0.407,0.131-1.206-0.123-1.896-0.799C310.274,145.496,309.976,144.668,310.049,144.21"/>
		<path clip-path="url(#SVGID_4_)" fill="#FEE6C6" d="M315.446,143.948c-0.43-0.08-1.185,0.24-1.81,0.98
			c-0.624,0.742-0.856,1.594-0.726,2.043c0.421,0.096,1.184-0.239,1.809-0.98C315.337,145.249,315.555,144.399,315.446,143.948"/>
		
			<rect x="312.922" y="146.973" transform="matrix(0.9986 -0.053 0.053 0.9986 -7.5191 16.798)" clip-path="url(#SVGID_4_)" fill="#FEE6C6" width="0.24" height="6.463"/>
		<path clip-path="url(#SVGID_4_)" fill="#FEE6C6" d="M317.502,199.681h-6.756c-2.695,0-4.823-2.305-4.605-4.995l3.509-43.147h8.941
			l3.509,43.147C322.325,197.376,320.196,199.681,317.502,199.681"/>
		<path clip-path="url(#SVGID_4_)" fill="#FEE6C6" d="M319.514,151.669h-10.779c-0.633,0-1.141-0.509-1.141-1.142
			s0.508-1.142,1.141-1.142h10.779c0.633,0,1.141,0.509,1.141,1.142C320.654,151.153,320.146,151.669,319.514,151.669"/>
		<path clip-path="url(#SVGID_4_)" fill="#FEE6C6" d="M315.475,160.226c0.103-3.62,0.283-7.24,0.473-10.854
			c0.188-3.614,0.442-7.228,0.668-10.84c0.275-3.613,0.522-7.228,0.836-10.832l0.479-5.409c0.189-1.803,0.35-3.606,0.553-5.409
			c-0.043,1.81-0.132,3.62-0.196,5.43l-0.276,5.425c-0.188,3.612-0.442,7.226-0.668,10.84c-0.284,3.613-0.522,7.226-0.836,10.832
			C316.194,153.014,315.874,156.62,315.475,160.226"/>
		<path clip-path="url(#SVGID_4_)" fill="#FEE6C6" d="M315.816,156.082c-0.545-7.234-0.756-14.475-0.887-21.716
			c-0.102-7.241-0.115-14.482,0.203-21.73c0.545,7.233,0.756,14.474,0.887,21.715C316.114,141.593,316.129,148.834,315.816,156.082"
			/>
		<path clip-path="url(#SVGID_4_)" fill="#FEE6C6" d="M314.894,162.872c0.45-3.599,0.974-7.183,1.519-10.76
			c0.537-3.584,1.14-7.153,1.707-10.73c0.625-3.57,1.22-7.14,1.874-10.702l0.995-5.343c0.355-1.773,0.689-3.555,1.067-5.329
			c-0.218,1.795-0.479,3.591-0.719,5.387l-0.792,5.372c-0.537,3.585-1.14,7.154-1.707,10.731c-0.625,3.57-1.22,7.139-1.874,10.702
			C316.303,155.769,315.642,159.324,314.894,162.872"/>
		<circle clip-path="url(#SVGID_4_)" fill="none" stroke="#FEE6C6" stroke-miterlimit="10" cx="312.794" cy="112.745" r="0.762"/>
		<circle clip-path="url(#SVGID_4_)" fill="none" stroke="#FEE6C6" stroke-miterlimit="10" cx="317.647" cy="109.044" r="1.832"/>
		<circle clip-path="url(#SVGID_4_)" fill="none" stroke="#FEE6C6" stroke-miterlimit="10" cx="321.33" cy="117.877" r="0.604"/>
		<circle clip-path="url(#SVGID_4_)" fill="none" stroke="#FEE6C6" stroke-miterlimit="10" cx="322.826" cy="130.906" r="0.567"/>
		<circle clip-path="url(#SVGID_4_)" fill="none" stroke="#FEE6C6" stroke-miterlimit="10" cx="308.894" cy="125.126" r="0.989"/>
		<rect x="259.986" y="171.095" clip-path="url(#SVGID_4_)" fill="#F9D8AC" width="25.177" height="27.452"/>
		<rect x="262.812" y="174.17" clip-path="url(#SVGID_4_)" fill="#FEE6C6" width="19.532" height="21.301"/>
		<rect x="27.493" y="45.831" clip-path="url(#SVGID_4_)" fill="#FEE6C6" width="4.053" height="179.382"/>
		<path clip-path="url(#SVGID_4_)" fill="#FEE6C6" d="M50.199,231.764H8.846c0-4.428,9.261-8.012,20.68-8.012
			S50.199,227.336,50.199,231.764"/>
		<polygon clip-path="url(#SVGID_4_)" fill="#FEE6C6" points="57.964,48.295 1.074,48.295 2.127,44.603 2.337,43.875 4.248,37.187 
			4.458,36.459 14.875,0 45.616,0 54.935,36.459 55.124,37.187 56.831,43.875 57.02,44.603 		"/>
		<polygon clip-path="url(#SVGID_4_)" fill="#E5CAA6" points="4.808,38.822 2.868,42.181 6.739,42.181 		"/>
		<polygon clip-path="url(#SVGID_4_)" fill="#E5CAA6" points="9.195,42.181 7.255,38.822 11.134,38.822 		"/>
		<polygon clip-path="url(#SVGID_4_)" fill="#E5CAA6" points="13.066,38.822 11.134,42.181 15.005,42.181 		"/>
		<polygon clip-path="url(#SVGID_4_)" fill="#E5CAA6" points="17.461,42.181 15.522,38.822 19.393,38.822 		"/>
		<polygon clip-path="url(#SVGID_4_)" fill="#E5CAA6" points="21.333,38.822 19.394,42.181 23.265,42.181 		"/>
		<polygon clip-path="url(#SVGID_4_)" fill="#E5CAA6" points="25.72,42.181 23.781,38.822 27.659,38.822 		"/>
		<polygon clip-path="url(#SVGID_4_)" fill="#E5CAA6" points="29.592,38.822 27.66,42.181 31.531,42.181 		"/>
		<polygon clip-path="url(#SVGID_4_)" fill="#E5CAA6" points="33.979,42.181 32.047,38.822 35.918,38.822 		"/>
		<polygon clip-path="url(#SVGID_4_)" fill="#E5CAA6" points="37.858,38.822 35.919,42.181 39.79,42.181 		"/>
		<polygon clip-path="url(#SVGID_4_)" fill="#E5CAA6" points="42.245,42.181 40.306,38.822 44.177,38.822 		"/>
		<polygon clip-path="url(#SVGID_4_)" fill="#E5CAA6" points="46.117,38.822 44.178,42.181 48.056,42.181 		"/>
		<polygon clip-path="url(#SVGID_4_)" fill="#E5CAA6" points="50.504,42.181 48.572,38.822 52.443,38.822 		"/>
		<polygon clip-path="url(#SVGID_4_)" fill="#E5CAA6" points="54.376,38.822 52.444,42.181 56.315,42.181 		"/>
		<polygon clip-path="url(#SVGID_4_)" fill="#E5CAA6" points="55.124,37.187 4.248,37.187 4.459,36.459 54.935,36.459 		"/>
		<polygon clip-path="url(#SVGID_4_)" fill="#E5CAA6" points="57.02,44.602 2.127,44.602 2.338,43.875 56.831,43.875 		"/>
		<path clip-path="url(#SVGID_4_)" fill="#66A986" d="M64.385,154.707c1.482-5.743,4.671-10.876,7.947-15.82
			c2.905-4.391,5.949-8.76,9.784-12.365c3.835-3.613,8.564-6.457,13.765-7.256c-1.271,4.101-2.542,8.201-3.814,12.301
			c-1.271,4.101-2.585,8.287-5.091,11.771c-2.623,3.635-6.422,6.295-10.475,8.2c-4.06,1.905-8.404,3.104-12.726,4.297"/>
		<path clip-path="url(#SVGID_4_)" fill="#66A986" d="M64.654,154.781c2.187-7.772,6.937-14.839,11.731-21.258
			c2.477-3.323,5.201-6.449,8.499-8.972c1.562-1.2,9.53-6.485,10.322-3.992c0.349,1.105-1.584,5.097-1.911,6.151
			c-0.61,1.97-1.205,3.94-1.83,5.903c-1.17,3.686-2.441,7.416-4.714,10.585c-5.346,7.423-14.673,10.062-23.041,12.374
			c-0.334,0.095-0.196,0.618,0.145,0.523c8.179-2.261,17.056-4.806,22.641-11.684c5.514-6.783,7.134-16.946,9.654-25.074
			c0.066-0.211-0.145-0.371-0.334-0.335c-7.867,1.44-13.961,6.609-18.777,12.768c-5.31,6.789-10.554,14.495-12.908,22.871
			C64.029,154.97,64.552,155.115,64.654,154.781"/>
		<path clip-path="url(#SVGID_4_)" fill="#80B996" d="M55.669,174.01c5.738-12.271,11.47-24.551,17.208-36.823
			c0.298-0.633-0.646-1.185-0.944-0.553c-5.739,12.272-11.47,24.552-17.208,36.823C54.434,174.09,55.371,174.643,55.669,174.01"/>
		<path clip-path="url(#SVGID_4_)" fill="#80B996" d="M56.497,147.598c0.334-12.86,5.186-25.86,8.419-38.226
			c0.087-0.342-0.436-0.488-0.523-0.146c-3.247,12.432-8.099,25.438-8.434,38.372C55.945,147.947,56.49,147.947,56.497,147.598"/>
		<path clip-path="url(#SVGID_4_)" fill="#66A986" d="M47.838,150.288c-5.477-4.871-10.997-9.793-15.29-15.74
			c-4.286-5.947-7.3-13.079-7.061-20.407c3.494,5.547,10.874,7.619,14.513,13.071c1.199,1.796,1.918,3.868,2.623,5.911
			c1.975,5.722,3.958,11.45,5.934,17.172"/>
		<path clip-path="url(#SVGID_4_)" fill="#66A986" d="M48.027,150.099c-5.746-5.11-11.586-10.287-15.951-16.685
			c-2.172-3.184-3.952-6.667-5.07-10.36c-0.582-1.919-0.974-3.882-1.163-5.874c-0.16-1.716-0.668-2.334,0.603-1.28
			c1.802,1.498,3.349,3.112,5.281,4.479c2.651,1.868,5.455,3.62,7.453,6.23c2.578,3.365,3.624,7.902,4.997,11.872
			c1.373,3.962,2.739,7.925,4.111,11.887c0.117,0.327,0.64,0.188,0.524-0.146c-1.526-4.404-3.044-8.804-4.569-13.209
			c-1.199-3.476-2.136-7.307-4.308-10.339c-3.777-5.278-10.533-7.284-14.222-12.679c-0.146-0.218-0.509-0.145-0.509,0.139
			c-0.116,15.602,11.629,26.725,22.431,36.343C47.903,150.717,48.296,150.331,48.027,150.099"/>
		<path clip-path="url(#SVGID_4_)" fill="#80B996" d="M37.19,123.556c8.956,18.255,14.84,37.819,17.433,57.993
			c0.087,0.685,1.177,0.698,1.09,0c-2.615-20.371-8.535-40.102-17.586-58.546C37.822,122.37,36.878,122.923,37.19,123.556"/>
		<path clip-path="url(#SVGID_4_)" fill="#66A986" d="M53.351,107.197C48.869,91.472,49,74.46,53.729,58.8
			c3.29,4.733,5.811,10.003,7.438,15.529c1.816,6.157,2.521,12.708,1.453,19.04s-3.988,12.432-8.673,16.816"/>
		<path clip-path="url(#SVGID_4_)" fill="#66A986" d="M53.613,107.125c-2.295-8.302-3.429-16.859-3.232-25.474
			c0.109-4.617,0.573-9.219,1.416-13.763c0.363-1.955,0.799-3.896,1.293-5.823c0.85-3.279,1.446-1.658,2.709,0.523
			c8.405,14.453,10.867,34.759-2.055,47.409c-0.254,0.247,0.131,0.632,0.385,0.385c14.324-14.024,10.038-36.641-0.175-51.719
			c-0.13-0.19-0.428-0.168-0.501,0.065c-4.656,15.871-4.779,32.599-0.378,48.542C53.184,107.605,53.708,107.46,53.613,107.125"/>
		<path clip-path="url(#SVGID_4_)" fill="#80B996" d="M66.027,150.288c-1.191-7.91,1.351-16.024,5.47-22.879
			c4.118-6.856,9.748-12.658,15.326-18.387c1.359,10.92-0.959,22.269-6.486,31.778c-1.518,2.617-3.32,5.141-5.731,6.965
			c-2.412,1.825-5.521,2.901-8.492,2.363"/>
		<path clip-path="url(#SVGID_4_)" fill="#80B996" d="M66.303,150.288c-1.039-8.266,1.445-16.264,5.76-23.279
			c2.194-3.563,4.809-6.841,7.577-9.975c1.256-1.417,2.549-2.813,3.857-4.187c0.559-0.589,1.111-1.331,1.75-1.825
			c0.981-0.756,0.857-1.287,1.482-0.182c0.596,1.04,0.196,3.701,0.182,4.886c-0.022,1.832-0.138,3.664-0.349,5.489
			c-0.48,4.013-1.431,7.997-2.855,11.784c-2.811,7.496-8.092,17.943-17.607,16.86c-0.349-0.037-0.342,0.509,0,0.545
			c8.716,0.996,13.888-7.445,16.946-14.366c3.763-8.498,5.063-17.804,4.032-27.015c-0.022-0.219-0.284-0.378-0.465-0.197
			c-10.94,11.254-23.005,24.493-20.869,41.462C65.802,150.629,66.347,150.637,66.303,150.288"/>
		<path clip-path="url(#SVGID_4_)" fill="#80B996" d="M57.557,136.147c-0.676-9.671,1.271-19.383,4.453-28.543
			c3.181-9.16,7.583-17.833,11.971-26.485c2.912,9.895,3.842,20.531,1.387,30.549s-8.521,19.339-17.39,24.588"/>
		<path clip-path="url(#SVGID_4_)" fill="#80B996" d="M57.833,136.147c-0.574-9.968,1.358-19.76,4.678-29.125
			c1.765-4.98,3.886-9.829,6.16-14.598c1.089-2.298,2.222-4.573,3.363-6.841c0.131-0.262,1.285-3.105,1.561-3.09
			c0.916,0.036,0.974,1.81,1.163,2.603c4.394,18.604,0.37,40.283-16.918,50.927c-0.298,0.181-0.021,0.653,0.276,0.472
			C77.09,124.82,79.894,100.895,74.25,81.047c-0.058-0.218-0.392-0.283-0.501-0.065c-8.738,17.237-17.608,35.303-16.46,55.166
			C57.311,136.496,57.855,136.504,57.833,136.147"/>
		<path clip-path="url(#SVGID_4_)" fill="#80B996" d="M51.681,101.331c4.351,25.351,5.114,51.152,2.303,76.721
			c-0.08,0.698,1.017,0.691,1.089,0c2.819-25.663,2.02-51.566-2.339-77.012C52.611,100.349,51.565,100.64,51.681,101.331"/>
		<path clip-path="url(#SVGID_4_)" fill="#80B996" d="M53.496,109.596c-4.177-3.49-7.816-9.415-8.797-14.766
			c-0.98-5.35-0.69-10.854-0.355-16.285c0.341-5.43,0.726-10.912-0.059-16.299c4.075,5.489,7.504,11.457,10.199,17.746
			c2.041,4.762,3.675,9.786,3.857,14.962c0.182,5.176-1.213,10.556-4.634,14.446"/>
		<path clip-path="url(#SVGID_4_)" fill="#80B996" d="M53.693,109.408c-6.755-5.962-9.349-13.85-9.385-22.683
			c-0.015-4.093,0.356-8.171,0.559-12.25c0.102-2.043,0.175-4.086,0.146-6.129c-0.008-0.589-0.567-4.703-0.204-4.922
			c1.308-0.785,10.555,19.39,11.07,20.873c2.891,8.281,3.516,17.753-2.36,24.915c-0.218,0.269,0.159,0.654,0.385,0.385
			c11.644-14.191-0.422-35.217-9.385-47.481c-0.138-0.189-0.545-0.16-0.509,0.138c1.213,9.516-0.85,19.019-0.101,28.542
			c0.581,7.423,3.784,14.053,9.392,18.997C53.569,110.026,53.955,109.64,53.693,109.408"/>
		<path clip-path="url(#SVGID_4_)" fill="#80B996" d="M47.358,146.928c2.107-7.408,0.864-17.506-2.666-24.354
			c-3.53-6.841-9.029-12.504-15.13-17.201c0.334,7.895,0.944,15.9,3.573,23.352C35.772,136.183,40.305,143.373,47.358,146.928"/>
		<path clip-path="url(#SVGID_4_)" fill="#80B996" d="M47.621,147.002c4.402-16.874-5.012-31.756-17.862-41.818
			c-0.167-0.131-0.479-0.066-0.465,0.196c0.669,15.086,3.109,33.851,17.927,41.789c0.313,0.167,0.582-0.306,0.276-0.473
			c-6.733-3.606-11.055-10.012-13.721-17.026c-1.373-3.614-2.252-7.401-2.833-11.218c-0.392-2.588-0.639-5.191-0.821-7.801
			c-0.058-0.851-0.225-1.788-0.159-2.639c0.094-1.236-0.378-1.592,0.842-1.309c1.228,0.284,3.233,2.763,4.126,3.614
			c1.322,1.257,2.586,2.58,3.777,3.962c2.659,3.082,5.005,6.514,6.596,10.272c2.934,6.907,3.697,15.028,1.794,22.306
			C47.01,147.198,47.533,147.343,47.621,147.002"/>
		<path clip-path="url(#SVGID_4_)" fill="#FEE6C6" d="M78.143,204.835c0,12.301-4.772,23.018-11.826,28.594H44.076
			c-7.054-5.576-11.826-16.293-11.826-28.594c0-11.494,4.17-21.606,10.467-27.437h24.952
			C73.974,183.229,78.143,193.334,78.143,204.835"/>
		<polygon clip-path="url(#SVGID_4_)" fill="none" stroke="#E6CAA6" stroke-miterlimit="10" points="44.853,189.27 38.882,199.63 
			50.831,199.63 		"/>
		<polygon clip-path="url(#SVGID_4_)" fill="none" stroke="#E6CAA6" stroke-width="0.5" stroke-miterlimit="10" points="
			44.853,191.8 41.061,198.372 48.645,198.372 		"/>
		<polygon clip-path="url(#SVGID_4_)" fill="none" stroke="#E6CAA6" stroke-width="0.75" stroke-miterlimit="10" points="
			53.482,223.287 46.263,227.46 46.263,219.121 		"/>
		<polygon clip-path="url(#SVGID_4_)" fill="none" stroke="#E6CAA6" stroke-width="0.5" stroke-miterlimit="10" points="
			51.085,223.287 47.46,225.381 47.46,221.193 		"/>
		<polygon clip-path="url(#SVGID_4_)" fill="none" stroke="#E6CAA6" stroke-miterlimit="10" points="63.608,180.444 57.826,190.47 
			69.397,190.47 		"/>
		<polygon clip-path="url(#SVGID_4_)" fill="none" stroke="#E6CAA6" stroke-width="0.5" stroke-miterlimit="10" points="
			63.608,184.247 61.116,188.565 66.107,188.565 		"/>
		<polygon clip-path="url(#SVGID_4_)" fill="none" stroke="#E6CAA6" stroke-miterlimit="10" points="63.608,224.472 56.969,209.197 
			70.254,209.197 		"/>
		<polygon clip-path="url(#SVGID_4_)" fill="none" stroke="#E6CAA6" stroke-width="0.5" stroke-miterlimit="10" points="
			63.608,220.75 59.396,211.059 67.828,211.059 		"/>
		<circle clip-path="url(#SVGID_4_)" fill="none" stroke="#E6CAA6" stroke-miterlimit="10" cx="43.437" cy="211.56" r="1.845"/>
		<circle clip-path="url(#SVGID_4_)" fill="none" stroke="#E6CAA6" stroke-miterlimit="10" cx="63.608" cy="199.288" r="2.966"/>
		<circle clip-path="url(#SVGID_4_)" fill="none" stroke="#E6CAA6" stroke-miterlimit="10" cx="51.667" cy="183.738" r="1.156"/>
		<g opacity="0.25" clip-path="url(#SVGID_4_)">
			<g>
				<defs>
					<rect id="SVGID_7_" x="43.074" y="179.114" width="35.07" height="54.314"/>
				</defs>
				<clipPath id="SVGID_8_">
					<use xlink:href="#SVGID_7_"  overflow="visible"/>
				</clipPath>
				<g opacity="0.25" clip-path="url(#SVGID_8_)" enable-background="new    ">
					<g>
						<defs>
							<rect id="SVGID_9_" x="43.074" y="179.114" width="35.07" height="54.314"/>
						</defs>
						<clipPath id="SVGID_10_">
							<use xlink:href="#SVGID_9_"  overflow="visible"/>
						</clipPath>
						<path clip-path="url(#SVGID_10_)" fill="#FEE6C6" d="M69.34,179.114c-3.981,19.68-13.104,38.306-26.266,53.457
							c0.327,0.291,0.661,0.589,1.002,0.857h22.242c7.053-5.576,11.826-16.293,11.826-28.594
							C78.144,194.388,74.701,185.097,69.34,179.114"/>
					</g>
				</g>
			</g>
		</g>
		<path clip-path="url(#SVGID_4_)" fill="#F9D8AC" d="M67.632,177.398H42.762c-0.756,0-1.366-0.611-1.366-1.367v-0.283
			c0-0.756,0.61-1.367,1.366-1.367h24.871c0.755,0,1.366,0.611,1.366,1.367v0.283C69.005,176.787,68.388,177.398,67.632,177.398"/>
		<path clip-path="url(#SVGID_4_)" fill="#66A986" d="M69.216,144.85c0.697-2.369,1.576-4.689,2.557-6.965
			c0.973-2.275,2.092-4.493,3.29-6.66c1.221-2.158,2.528-4.26,3.966-6.273c0.727-1.003,1.46-1.999,2.223-2.973
			c0.785-0.96,1.562-1.912,2.397-2.828c-0.348,0.509-0.704,1.018-1.068,1.512l-1.045,1.527c-0.698,1.018-1.381,2.043-2.042,3.074
			c-1.322,2.079-2.6,4.173-3.799,6.318c-1.213,2.137-2.331,4.325-3.421,6.536C71.192,140.335,70.197,142.589,69.216,144.85"/>
		<path clip-path="url(#SVGID_4_)" fill="#66A986" d="M51.768,103.345c-0.399-2.232-0.719-4.472-1.024-6.711
			c-0.313-2.239-0.574-4.485-0.836-6.725c-0.239-2.246-0.479-4.492-0.668-6.746l-0.276-3.381c-0.065-1.127-0.152-2.261-0.196-3.388
			c0.203,1.113,0.363,2.232,0.552,3.352l0.472,3.359c0.313,2.239,0.574,4.485,0.836,6.732c0.239,2.246,0.479,4.493,0.668,6.754
			C51.492,98.83,51.667,101.084,51.768,103.345"/>
		<path clip-path="url(#SVGID_4_)" fill="#66A986" d="M34.72,116.031c1.235,1.926,2.332,3.933,3.363,5.976
			c1.039,2.043,1.954,4.136,2.811,6.268c0.836,2.13,1.606,4.289,2.259,6.484c0.32,1.098,0.632,2.202,0.915,3.308
			c0.262,1.112,0.531,2.225,0.742,3.352l-1.083-3.25c-0.356-1.083-0.726-2.159-1.104-3.235c-0.77-2.145-1.554-4.281-2.397-6.39
			c-0.828-2.116-1.729-4.21-2.637-6.296C36.659,120.16,35.693,118.103,34.72,116.031"/>
		<path clip-path="url(#SVGID_4_)" fill="#66A986" d="M60.833,126.885c1.14-2.77,2.274-5.532,3.341-8.324
			c1.068-2.792,2.121-5.583,3.066-8.412c1.002-2.813,1.896-5.663,2.767-8.513c0.436-1.425,0.857-2.857,1.271-4.296l1.228-4.319
			c-0.254,1.476-0.574,2.937-0.886,4.406c-0.342,1.461-0.705,2.915-1.075,4.362c-0.77,2.901-1.671,5.758-2.622,8.6
			c-1.003,2.821-2.056,5.635-3.24,8.39C63.506,121.52,62.243,124.239,60.833,126.885"/>
		<path clip-path="url(#SVGID_4_)" fill="#5C6193" d="M196.936,97.652h-55.009c-13.322,0-24.123,10.811-24.123,24.144v59.026
			h103.263v-59.026C221.067,108.463,210.265,97.652,196.936,97.652"/>
		<rect x="130.021" y="167.83" clip-path="url(#SVGID_4_)" fill="#4E5567" width="78.821" height="12.992"/>
		<rect x="123.913" y="180.822" clip-path="url(#SVGID_4_)" fill="#8E97FD" width="84.929" height="33.021"/>
		<path clip-path="url(#SVGID_4_)" fill="#3F414E" d="M215.568,218.736h-92.265c-2.703,0-4.889-2.188-4.889-4.894h102.043
			C220.457,216.548,218.263,218.736,215.568,218.736"/>
		<polygon clip-path="url(#SVGID_4_)" fill="#3F414E" points="120.862,234.025 117.804,234.025 123.302,218.736 127.581,218.736 		
			"/>
		<polygon clip-path="url(#SVGID_4_)" fill="#3F414E" points="218.009,234.025 221.067,234.025 215.568,218.736 211.29,218.736 		
			"/>
		<path clip-path="url(#SVGID_4_)" fill="#4E5567" d="M109.044,107.125c-2.957-1.97-5.441-4.776-6.611-8.135
			c-1.169-3.359-0.907-7.285,1.076-10.237c1.983-2.951,5.767-4.711,9.232-3.918c0.145-4.682,4.445-8.092,8.608-10.236
			c4.583-2.363,9.37-3.73,14.055-1.585c2.608,1.199,5.354,3.148,6.734,5.67c1.38,2.516,2.201,5.293,3,8.056
			c3.276-1.949,7.736-1.651,10.728,0.712c2.993,2.363,4.308,6.638,3.175,10.28c3.704-1.57,8.193-2.268,11.6-0.124
			c3.581,2.254,4.816,6.885,5.063,11.116c0.211,3.635-0.153,7.489-2.216,10.484c-2.44,3.548-6.763,5.22-10.853,6.565
			c-7.075,2.318-14.36,4.26-21.806,4.478c-7.445,0.218-15.116-1.396-21.218-5.663c-6.108-4.268-10.416-11.422-10.198-18.873"/>
		<path clip-path="url(#SVGID_4_)" fill="#3F4553" d="M105.143,112.417c-3.705,0.197-7.22,2.545-8.826,5.897
			c-1.605,3.351-1.242,7.56,0.916,10.578c-3.08,0.043-6.066,1.875-7.504,4.602s-1.257,6.224,0.443,8.79
			c1.438,2.167,3.785,3.577,6.218,4.493c6.748,2.537,14.419,1.679,21.116-0.989c3.85-1.534,7.547-3.708,10.14-6.936
			c2.594-3.228,3.945-7.641,2.826-11.633c-0.785-2.784-2.68-5.146-4.918-6.964c-2.244-1.818-4.837-3.148-7.416-4.435
			c-4.446-2.218-9.102-4.413-14.07-4.5"/>
		<path clip-path="url(#SVGID_4_)" fill="#8E97FD" d="M126.971,161.251h-21.385c-6.748,0-12.218-5.474-12.218-12.228
			c0-6.755,5.47-12.229,12.218-12.229h16.947c2.455,0,4.445,1.992,4.445,4.45v20.007H126.971z"/>
		<path clip-path="url(#SVGID_4_)" fill="#8E97FD" d="M130.022,213.843h-14.23c-4.961,0-8.986-4.027-8.986-8.993v-68.063h14.23
			c4.961,0,8.986,4.028,8.986,8.993V213.843z"/>
		<path clip-path="url(#SVGID_4_)" fill="#FFFFFF" d="M132.535,75.878c1.932-0.458,4.111-0.109,5.826,1.069
			c0.842,0.589,1.583,1.352,2.055,2.261c0.283,0.429,0.429,0.923,0.61,1.388c0.138,0.48,0.233,0.982,0.313,1.462
			c-0.24-0.444-0.393-0.909-0.64-1.331c-0.254-0.414-0.457-0.85-0.762-1.221c-0.53-0.785-1.221-1.44-1.991-1.97
			c-0.762-0.538-1.634-0.924-2.542-1.193C134.489,76.096,133.53,75.922,132.535,75.878"/>
		<path clip-path="url(#SVGID_4_)" fill="#FFFFFF" d="M164.874,99.818c2.033-0.036,4.14,0.72,5.68,2.181
			c0.393,0.357,0.704,0.793,1.018,1.215c0.247,0.472,0.537,0.916,0.675,1.424c0.204,0.488,0.269,1.011,0.349,1.52
			c0.051,0.516,0.029,1.032,0.016,1.534c-0.227-0.996-0.451-1.97-0.888-2.843c-0.398-0.887-0.966-1.679-1.67-2.333
			c-0.689-0.669-1.504-1.215-2.376-1.658C166.784,100.437,165.854,100.066,164.874,99.818"/>
		<path clip-path="url(#SVGID_4_)" fill="#FFFFFF" d="M152.634,89.146c0.45,0.065,0.879,0.225,1.293,0.429
			c0.414,0.204,0.792,0.473,1.126,0.785c0.334,0.32,0.61,0.713,0.799,1.134c0.196,0.422,0.269,0.894,0.254,1.345
			c-0.145-0.429-0.269-0.85-0.508-1.214c-0.233-0.363-0.487-0.705-0.807-1.003C154.174,90.026,153.433,89.553,152.634,89.146"/>
		<path clip-path="url(#SVGID_4_)" fill="#3F4553" d="M163.689,120.691c0.916-3.33,0.618-7.095-1.314-9.96
			c-1.932-2.864-5.637-4.595-8.978-3.722c1.024-2.407-0.458-5.278-2.623-6.754c-2.157-1.476-4.83-1.934-7.387-2.515
			c-7.511-1.709-14.709-4.799-21.123-9.066c-3.247-2.16-3.785-1.672-5.317-5.155c-0.916,1.345-2.71,3.533-2.761,5.198
			c-2.898-2.646-8.709-2.922-10.685,0.029c-1.983,2.952-2.244,6.878-1.075,10.237c1.17,3.358,3.654,6.165,6.61,8.135l0.363-1.41
			c-0.217,7.451,4.09,14.605,10.199,18.873c6.109,4.267,13.779,5.881,21.218,5.663c6.864-0.203,13.59-1.868,20.142-3.948
			C162.171,124.573,163.137,122.705,163.689,120.691"/>
		<path clip-path="url(#SVGID_4_)" fill="none" stroke="#8C96FF" stroke-miterlimit="10" d="M123.419,145.78v59.63h-11.622v-50.295
			h-3.189c-3.363,0-6.087-2.727-6.087-6.092c0-3.366,2.724-6.094,6.087-6.094h11.963C122.148,142.93,123.419,144.202,123.419,145.78
			z"/>
		<path clip-path="url(#SVGID_4_)" fill="#8E97FD" d="M135.593,96.438c-0.487-3.81,1.925-7.256,5.382-7.699
			c3.465-0.444,6.669,2.275,7.163,6.085c0.486,3.809-1.925,7.256-5.383,7.699C139.29,102.967,136.087,100.24,135.593,96.438"/>
		<path clip-path="url(#SVGID_4_)" fill="#8E97FD" d="M135.593,96.44c0.487,3.809,3.697,6.536,7.162,6.085
			c1.438-0.182,2.688-0.894,3.632-1.919c-4.3-2.763-5.056-9.619-5.194-11.88c-0.072,0.008-0.138,0.008-0.21,0.015
			C137.518,89.184,135.106,92.63,135.593,96.44"/>
		<path clip-path="url(#SVGID_4_)" fill="#FDBCA0" d="M126.361,112.178l2.44,11.006l8.557,2.443c0,0,3.058-3.061,3.058-3.672
			c0-0.611-4.278-12.228-4.278-12.228L126.361,112.178z"/>
		<path clip-path="url(#SVGID_4_)" fill="#DF8370" d="M136.13,109.735l-9.777,2.443l0.836,3.758c1.75,0.757,3.726,1.316,5.978,1.593
			c1.227,0.152,2.491-0.08,3.566-0.706c0.552-0.319,1.068-0.712,1.562-1.126C137.22,112.694,136.13,109.735,136.13,109.735"/>
		<path clip-path="url(#SVGID_4_)" fill="#FDBCA0" d="M112.915,90.164c0,0-1.22,23.853,20.165,25.074
			c6.719-2.442,10.997-11.617,9.777-18.96c-1.221-7.335-9.167-19.571-20.775-15.9C115.973,82.828,112.915,90.164,112.915,90.164"/>
		<path clip-path="url(#SVGID_4_)" fill="#3F4553" d="M129.026,92.657c-0.117-0.092,0.836-1.671,2.091-3.062
			c0.774-0.858,1.525-1.49,2.1-1.926c0.105-0.079,0.227-0.13,0.358-0.146c0.334-0.042,0.72-0.064,1.148-0.039
			c0.893,0.051,1.625,0.285,2.142,0.506c0.051,0.022,0.04,0.098-0.015,0.106c-0.161,0.021-0.323,0.042-0.485,0.062
			c-1.865,0.237-2.036,0.208-2.378,0.275c-0.764,0.15-1.678,1.036-3.476,2.803C129.442,92.287,129.09,92.707,129.026,92.657"/>
		<path clip-path="url(#SVGID_4_)" fill="#FDBCA0" d="M180.738,117.689l15.537-19.012c0.617-0.756,0.959-1.701,0.959-2.682v-5.162
			c0-0.393,0.254-0.749,0.625-0.872c0.595-0.197,1.205,0.247,1.205,0.872v3.62l5.499-9.785l7.328-0.611l-9.776,17.121
			l-14.665,25.686L180.738,117.689z"/>
		<path clip-path="url(#SVGID_4_)" fill="#FDBCA0" d="M249.17,100.56l25.664,8.564l7.895-6.659
			c2.957-2.494,7.293-2.734,10.366-0.385c1.78,1.359,2.717,3.271,0.675,5.823c-4.888,6.114-18.943,12.839-18.943,12.839
			l-28.721-6.114L249.17,100.56z"/>
		<g opacity="0.5" clip-path="url(#SVGID_4_)" enable-background="new    ">
			<g>
				<defs>
					<rect id="SVGID_11_" x="246.12" y="100.567" width="14.694" height="17.1"/>
				</defs>
				<clipPath id="SVGID_12_">
					<use xlink:href="#SVGID_11_"  overflow="visible"/>
				</clipPath>
				<path clip-path="url(#SVGID_12_)" fill="#DF8370" d="M246.12,114.628l14.259,3.039c0.915-5.14,0.203-10.331-0.458-13.515
					l-10.743-3.585L246.12,114.628z"/>
			</g>
		</g>
		<path clip-path="url(#SVGID_4_)" fill="#739BE0" d="M170.351,144.595c0,0,32.172-35.776,46.562-47.99
			c2.396-2.035,5.506-3.024,8.644-2.77c10.62,0.858,32.782,4.893,32.782,4.893s4.278,15.9-3.669,25.075
			c-4.888-0.61-26.883-4.893-26.883-4.893l-44.607,48.92L170.351,144.595z"/>
		<path clip-path="url(#SVGID_4_)" fill="#FDBCA0" d="M255.89,131.749l20.774,23.235l17.324,2.974
			c3.218,0.552,5.237,3.955,3.959,6.964c-0.828,1.942-2.812,4.56-7.228,3.52c-10.388-2.443-20.165-5.503-20.165-5.503
			l-24.442-19.571L255.89,131.749z"/>
		<g opacity="0.5" clip-path="url(#SVGID_4_)" enable-background="new    ">
			<g>
				<defs>
					<rect id="SVGID_13_" x="246.112" y="131.749" width="22.575" height="25.3"/>
				</defs>
				<clipPath id="SVGID_14_">
					<use xlink:href="#SVGID_13_"  overflow="visible"/>
				</clipPath>
				<path clip-path="url(#SVGID_14_)" fill="#DF8370" d="M268.688,146.064l-12.798-14.315l-9.777,11.618l17.085,13.682
					C266.015,154.134,268.405,150.419,268.688,146.064"/>
			</g>
		</g>
		<g opacity="0.2" clip-path="url(#SVGID_4_)" enable-background="new    ">
			<g>
				<defs>
					<rect id="SVGID_15_" x="171.861" y="100.473" width="84.188" height="67.357"/>
				</defs>
				<clipPath id="SVGID_16_">
					<use xlink:href="#SVGID_15_"  overflow="visible"/>
				</clipPath>
				<path clip-path="url(#SVGID_16_)" fill="#739BE0" d="M216.774,103.679l-44.913,43.642l11.324,20.509l44.607-48.92
					c0,0,21.995,4.282,26.883,4.893c0.509-0.582,0.959-1.2,1.373-1.832c-7.99-6.536-17.526-14.039-24.631-19.281
					C226.943,99.397,220.754,99.811,216.774,103.679"/>
			</g>
		</g>
		<path clip-path="url(#SVGID_4_)" fill="#97B8FF" d="M152.634,164.159c0,0,10.998,15.899,26.884,14.067
			c14.832-1.716,31.257-23.147,42.82-41.41c1.185-1.875,3.835-2.086,5.311-0.437c9.094,10.2,25.19,25.336,25.19,25.336
			s15.276-7.335,15.276-18.96c-4.213-5.06-21.792-23.206-32.304-33.988c-4.531-4.653-11.868-5.053-16.888-0.93l-49.19,40.421
			L152.634,164.159z"/>
		<g opacity="0.5" clip-path="url(#SVGID_4_)">
			<g>
				<defs>
					<rect id="SVGID_17_" x="152.634" y="129.928" width="107.447" height="48.446"/>
				</defs>
				<clipPath id="SVGID_18_">
					<use xlink:href="#SVGID_17_"  overflow="visible"/>
				</clipPath>
				<g opacity="0.5" clip-path="url(#SVGID_18_)" enable-background="new    ">
					<g>
						<defs>
							<rect id="SVGID_19_" x="152.634" y="129.928" width="107.447" height="48.446"/>
						</defs>
						<clipPath id="SVGID_20_">
							<use xlink:href="#SVGID_19_"  overflow="visible"/>
						</clipPath>
						<path clip-path="url(#SVGID_20_)" fill="#97B8FF" d="M179.518,178.227c14.832-1.716,31.257-23.147,42.82-41.41
							c1.185-1.876,3.835-2.086,5.311-0.437c9.094,10.2,25.19,25.336,25.19,25.336s3.56-1.716,7.242-4.791
							c-8.187-8.157-16.859-15.819-25.968-22.922c-2.949-2.298-6.451-4.668-10.119-3.941c-3.189,0.641-5.434,3.425-7.387,6.027
							c-4.229,5.627-8.448,11.254-12.677,16.881c-4.611,6.145-9.485,12.505-16.394,15.856c-5.891,2.85-12.959,3.17-19.082,0.866
							c-4.751-1.789-8.877-5.148-11.673-9.379l-4.148,3.853C152.634,164.159,163.632,180.059,179.518,178.227"/>
					</g>
				</g>
			</g>
		</g>
		<path clip-path="url(#SVGID_4_)" fill="#8E97FD" d="M211.9,161.251h21.384c6.749,0,12.218-5.474,12.218-12.228
			c0-6.755-5.469-12.229-12.218-12.229h-16.946c-2.455,0-4.446,1.992-4.446,4.45v20.007H211.9z"/>
		<path clip-path="url(#SVGID_4_)" fill="#8E97FD" d="M208.842,213.843h14.229c4.962,0,8.985-4.027,8.985-8.993v-68.063h-14.229
			c-4.961,0-8.985,4.028-8.985,8.993V213.843z"/>
		<path clip-path="url(#SVGID_4_)" fill="none" stroke="#8C96FF" stroke-miterlimit="10" d="M214.922,145.78v59.63h11.622v-50.295
			h3.189c3.362,0,6.087-2.727,6.087-6.092c0-3.366-2.725-6.094-6.087-6.094h-11.965C216.193,142.93,214.922,144.202,214.922,145.78z
			"/>
		<path clip-path="url(#SVGID_4_)" fill="#FFFFFE" d="M118.414,101.171l-10.387,3.061c0,0,3.058,10.396,18.334,17.121l1.83-0.611
			c0,0,8.55,4.791,10.693-3.417c3.457-1.207,7.808-2.21,11.215-2.901c3.523-0.712,7.177-0.152,10.322,1.571l12.218,6.71
			c1.155,0.632,2.601,0.363,3.45-0.647l8.317-9.879l8.483,6.39l-11.76,18.735c-0.763,1.223-2.339,1.651-3.617,0.989l-11.434-5.932
			l6.719,10.396c0,0-0.61,18.96-20.164,21.403c-6.719-6.726-15.276-15.289-20.164-18.96c-4.889-3.672-20.775-14.068-25.053-18.351
			c-4.279-4.281-15.276-19.571-15.886-27.517c0-4.283,24.442-7.336,24.442-7.336L118.414,101.171z"/>
		<path clip-path="url(#SVGID_4_)" fill="#F2F2F2" d="M114.506,125.031c-12.77-8.76-18.181-20.203-20.469-28.077
			c-1.54,0.734-2.506,1.534-2.506,2.385c0.61,7.953,11.607,23.235,15.886,27.518c4.278,4.281,20.164,14.678,25.053,18.35
			c0.871,0.654,1.866,1.468,2.934,2.399C132.796,142.065,127.058,133.646,114.506,125.031"/>
		<path clip-path="url(#SVGID_4_)" fill="#97B8FF" d="M154.414,124.464c0.508-0.145,1.031-0.225,1.561-0.269
			c0.531-0.052,1.061-0.043,1.598,0.008c1.061,0.101,2.136,0.37,3.102,0.894c0.973,0.494,1.831,1.25,2.455,2.145
			c0.349,0.429,0.574,0.931,0.828,1.411c0.24,0.486,0.371,1.018,0.56,1.526l-0.051-0.102c0.595,0.807,1.147,1.649,1.721,2.472
			c0.574,0.828,1.112,1.672,1.649,2.53c-0.675-0.749-1.344-1.505-1.976-2.276c-0.632-0.777-1.293-1.541-1.903-2.334l-0.022-0.021
			l-0.036-0.08c-0.196-0.466-0.349-0.953-0.574-1.411c-0.247-0.436-0.45-0.901-0.777-1.287c-0.269-0.421-0.632-0.763-0.981-1.126
			c-0.392-0.306-0.762-0.64-1.213-0.873c-0.864-0.502-1.823-0.865-2.84-1.039C156.506,124.457,155.46,124.377,154.414,124.464"/>
		<path clip-path="url(#SVGID_4_)" fill="#3F4553" d="M198.12,100.567l7.228-22.682c0.189-0.589,0.727-0.996,1.352-1.011
			l12.966-0.342c0.995-0.029,1.721,0.931,1.431,1.883l-7.206,23.563c-0.195,0.632-0.792,1.054-1.453,1.032l-12.986-0.531
			C198.491,102.421,197.83,101.483,198.12,100.567"/>
		<path clip-path="url(#SVGID_4_)" fill="#4E5567" d="M196.9,100.568l7.227-22.683c0.189-0.589,0.727-0.996,1.351-1.011
			l12.967-0.341c0.996-0.029,1.722,0.93,1.431,1.883l-7.205,23.562c-0.196,0.632-0.792,1.054-1.453,1.032l-12.988-0.53
			C197.263,102.421,196.609,101.484,196.9,100.568"/>
		<path clip-path="url(#SVGID_4_)" fill="#F2EDE4" d="M217.522,80.226l-4.831,15.783l-0.69,2.269l-0.326,1.068
			c-0.117,0.378-0.407,0.662-0.756,0.778c-0.138,0.044-0.276,0.065-0.421,0.058l-2.71-0.109l-7.83-0.32
			c-0.785-0.036-1.315-0.799-1.082-1.541l3.741-11.748l1.416-4.442l0.712-2.225c0.029-0.094,0.072-0.189,0.131-0.269
			c0.203-0.327,0.559-0.538,0.958-0.552l0.378-0.008l10.148-0.269C217.166,78.677,217.754,79.455,217.522,80.226"/>
		<g opacity="0.35" clip-path="url(#SVGID_4_)">
			<g>
				<defs>
					<rect id="SVGID_21_" x="204.876" y="78.968" width="7.815" height="19.309"/>
				</defs>
				<clipPath id="SVGID_22_">
					<use xlink:href="#SVGID_21_"  overflow="visible"/>
				</clipPath>
				<g opacity="0.35" clip-path="url(#SVGID_22_)" enable-background="new    ">
					<g>
						<defs>
							<rect id="SVGID_23_" x="204.876" y="78.968" width="7.815" height="19.309"/>
						</defs>
						<clipPath id="SVGID_24_">
							<use xlink:href="#SVGID_23_"  overflow="visible"/>
						</clipPath>
						<path clip-path="url(#SVGID_24_)" fill="#FFFFFF" d="M212.691,96.009l-0.69,2.268l-7.125-18.749
							c0.203-0.328,0.559-0.538,0.958-0.553l0.378-0.007L212.691,96.009z"/>
					</g>
				</g>
			</g>
		</g>
		<g opacity="0.35" clip-path="url(#SVGID_4_)">
			<g>
				<defs>
					<rect id="SVGID_25_" x="202.617" y="82.021" width="8.302" height="18.162"/>
				</defs>
				<clipPath id="SVGID_26_">
					<use xlink:href="#SVGID_25_"  overflow="visible"/>
				</clipPath>
				<g opacity="0.35" clip-path="url(#SVGID_26_)" enable-background="new    ">
					<g>
						<defs>
							<rect id="SVGID_27_" x="202.617" y="82.021" width="8.302" height="18.162"/>
						</defs>
						<clipPath id="SVGID_28_">
							<use xlink:href="#SVGID_27_"  overflow="visible"/>
						</clipPath>
						<path clip-path="url(#SVGID_28_)" fill="#FFFFFF" d="M210.919,100.124c-0.138,0.044-0.276,0.065-0.421,0.058l-2.71-0.109
							l-5.171-13.609l1.416-4.443L210.919,100.124z"/>
					</g>
				</g>
			</g>
		</g>
		<path clip-path="url(#SVGID_4_)" fill="#3F4553" d="M115.748,104.69c2.521-5.729,3.189-12.258,1.889-18.387
			c0.908,2.916,4.082,4.566,7.111,4.951c3.029,0.386,6.102-0.152,9.152,0c3.051,0.153,6.349,1.229,7.889,3.868
			c0.283,0.48,0.596,1.076,1.148,1.12c0.69,0.058,1.096-0.756,1.242-1.432c1.126-5.068-0.952-10.629-4.911-13.988
			c-3.958-3.359-9.566-4.529-14.629-3.388s-9.523,4.471-12.385,8.797c-1.794,2.712-3.007,5.845-3.189,9.095
			c-0.181,3.242,0.719,6.594,2.746,9.131c0.501,0.625,1.119,1.229,1.903,1.403c0.785,0.175,1.743-0.269,1.867-1.069"/>
		<path clip-path="url(#SVGID_4_)" fill="#8E97FD" d="M115.679,111.997c3.758-0.767,6.136-4.667,5.312-8.711
			c-0.824-4.045-4.538-6.701-8.296-5.935c-3.757,0.767-6.136,4.668-5.312,8.712C108.207,110.107,111.922,112.764,115.679,111.997"/>
		<path clip-path="url(#SVGID_4_)" fill="#8E97FD" d="M111.441,101.672c-4.126-12.591,1.038-17.339,1.271-17.644l0.152-0.015h0.037
			l0.152-0.007c-0.174,0.24-2.252,5.947,1.141,16.3L111.441,101.672z"/>
		<path clip-path="url(#SVGID_4_)" fill="#8E97FD" d="M120.15,108.71c-10.678,2.835-12.436-2.886-12.414-7.016
			c-0.508,1.331-0.654,2.843-0.341,4.377c0.828,4.049,4.539,6.703,8.295,5.939C117.629,111.603,119.198,110.367,120.15,108.71"/>
		<path clip-path="url(#SVGID_4_)" fill="#DF8370" d="M129.746,107.559c1.587,1.024,3.404,1.028,5.044-0.181
			c0.535-0.385,1.045-0.869,1.53-1.431c-0.845,1.502-2.105,2.54-3.392,2.771C131.796,108.94,130.619,108.525,129.746,107.559"/>
		<path clip-path="url(#SVGID_4_)" fill="#DF8370" d="M130.489,98.405c0.804,0.873,1.637,1.681,2.516,2.469
			c0.277,0.245,0.605,0.484,0.843,0.75c0.11,0.127,0.167,0.239,0.172,0.37c0.011,0.147-0.072,0.308-0.129,0.443
			c-0.504,0.978-1.759,1.443-2.824,1.456c1.171,0.298,2.62-0.15,3.242-1.245c0.611-1.029-0.312-1.584-1.008-2.135
			C132.391,99.781,131.477,99.036,130.489,98.405"/>
		<path clip-path="url(#SVGID_4_)" fill="#BC9A75" d="M276.76-40.37c-0.101-1.894-0.045-5.866,2.204-10.01
			c1.108-2.041,3.555-6.549,8.634-7.806c6.34-1.571,11.543,3.223,12.306,3.949c3.96,3.768,4.56,8.544,4.684,9.918
			c-2.025,1.61-5.884,4.226-11.388,5.418C285.471-37.227,279.204-39.378,276.76-40.37"/>
		<path clip-path="url(#SVGID_4_)" fill="#442B0D" d="M304.234-42.41c-7.313,6.067-18.312,6.482-26.758,2.626l-0.402-0.185
			c-0.128-0.075-0.293-0.064-0.313-0.401c0.25-0.23,0.356-0.112,0.5-0.08l0.417,0.123l0.836,0.23
			c6.019,1.547,12.558,1.07,18.266-1.31c2.055-0.826,3.812-1.949,5.588-3.352C303.92-45.95,305.753-43.666,304.234-42.41"/>
		<path clip-path="url(#SVGID_4_)" fill="#442B0D" d="M304.69-44.194c0.276,1.15,1.505,2.029,2.521,2.636
			c0.413,0.232,0.847,0.436,1.294,0.625c-0.483-0.027-0.971-0.072-1.46-0.153c-1.609-0.314-3.276-0.889-4.215-2.377
			C302.37-44.693,304.188-45.411,304.69-44.194"/>
		<path clip-path="url(#SVGID_4_)" fill="#442B0D" d="M303.13-42.633c0.276,1.15,1.504,2.029,2.52,2.636
			c0.413,0.232,0.848,0.436,1.295,0.625c-0.483-0.027-0.972-0.072-1.46-0.153c-1.609-0.314-3.276-0.889-4.216-2.377
			C300.809-43.132,302.628-43.85,303.13-42.633"/>
		<path clip-path="url(#SVGID_4_)" fill="#442B0D" d="M301.371-41.028c0.329,1.152,1.683,1.902,2.773,2.371
			c-1.574-0.087-3.473-0.53-4.267-2.087C299.278-42.046,301.453-42.456,301.371-41.028"/>
		<path clip-path="url(#SVGID_4_)" fill="#BC9A75" d="M240.858-23.12c0.102-1.894,0.045-5.866-2.204-10.01
			c-1.107-2.041-3.554-6.549-8.633-7.806c-6.34-1.571-11.543,3.223-12.307,3.949c-3.959,3.768-4.56,8.544-4.684,9.918
			c2.026,1.61,5.885,4.226,11.389,5.418C232.147-19.977,238.414-22.128,240.858-23.12"/>
		<path clip-path="url(#SVGID_4_)" fill="#442B0D" d="M213.385-25.16c7.313,6.067,18.311,6.482,26.758,2.626l0.401-0.185
			c0.129-0.075,0.293-0.064,0.314-0.401c-0.25-0.23-0.357-0.112-0.5-0.08l-0.417,0.123l-0.836,0.23
			c-6.02,1.547-12.558,1.07-18.266-1.31c-2.056-0.826-3.813-1.949-5.588-3.352C213.698-28.7,211.865-26.416,213.385-25.16"/>
		<path clip-path="url(#SVGID_4_)" fill="#442B0D" d="M212.928-26.944c-0.275,1.15-1.504,2.029-2.52,2.636
			c-0.414,0.232-0.848,0.436-1.295,0.625c0.483-0.027,0.971-0.072,1.461-0.153c1.608-0.314,3.275-0.889,4.215-2.377
			C215.248-27.443,213.43-28.161,212.928-26.944"/>
		<path clip-path="url(#SVGID_4_)" fill="#442B0D" d="M214.488-25.383c-0.275,1.15-1.504,2.029-2.52,2.636
			c-0.413,0.232-0.848,0.436-1.294,0.625c0.483-0.027,0.972-0.072,1.46-0.153c1.609-0.314,3.275-0.889,4.215-2.377
			C216.81-25.882,214.99-26.6,214.488-25.383"/>
		<path clip-path="url(#SVGID_4_)" fill="#442B0D" d="M216.248-23.778c-0.329,1.152-1.684,1.902-2.773,2.371
			c1.573-0.087,3.473-0.53,4.266-2.087C218.34-24.796,216.166-25.206,216.248-23.778"/>
		<path clip-path="url(#SVGID_4_)" fill="#3F4553" d="M138.414,95.013c-1.273,1.699-3.64,2.362-5.676,1.964l-0.097-0.019
			c-0.032-0.009-0.067,0.002-0.089-0.07c0.042-0.064,0.071-0.043,0.104-0.044l0.097,0.005l0.194,0.006
			c1.388,0.023,2.783-0.421,3.9-1.236c0.403-0.286,0.726-0.622,1.039-1.019C138.161,94.26,138.679,94.661,138.414,95.013"/>
		<path clip-path="url(#SVGID_4_)" fill="#3F4553" d="M138.42,94.601c0.12,0.236,0.432,0.362,0.685,0.441
			c0.102,0.029,0.206,0.051,0.314,0.069c-0.107,0.019-0.215,0.035-0.326,0.043c-0.366,0.015-0.758-0.023-1.039-0.297
			C137.89,94.613,138.248,94.363,138.42,94.601"/>
		<path clip-path="url(#SVGID_4_)" fill="#3F4553" d="M138.162,95.022c0.12,0.236,0.432,0.362,0.685,0.441
			c0.102,0.029,0.206,0.051,0.314,0.069c-0.107,0.019-0.215,0.035-0.326,0.043c-0.366,0.015-0.758-0.023-1.039-0.297
			C137.632,95.034,137.99,94.784,138.162,95.022"/>
		<path clip-path="url(#SVGID_4_)" fill="#3F4553" d="M137.863,95.462c0.131,0.233,0.465,0.325,0.726,0.371
			c-0.346,0.063-0.782,0.065-1.036-0.232C137.355,95.35,137.806,95.148,137.863,95.462"/>
		<path clip-path="url(#SVGID_4_)" fill="#3F4553" d="M122.348,102.247c2.114,0.188,4.19-1.13,5.254-2.911l0.051-0.085
			c0.014-0.03,0.045-0.049,0.007-0.114c-0.076-0.01-0.08,0.025-0.103,0.049l-0.061,0.076l-0.124,0.148
			c-0.911,1.048-2.174,1.789-3.526,2.076c-0.482,0.109-0.948,0.125-1.453,0.092C121.957,101.556,121.909,102.209,122.348,102.247"/>
		<path clip-path="url(#SVGID_4_)" fill="#3F4553" d="M122.037,101.977c0.095,0.247-0.019,0.564-0.129,0.804
			c-0.047,0.095-0.101,0.188-0.159,0.28c0.086-0.067,0.17-0.137,0.249-0.214c0.256-0.262,0.49-0.579,0.474-0.972
			C122.4,101.59,121.975,101.689,122.037,101.977"/>
		<path clip-path="url(#SVGID_4_)" fill="#3F4553" d="M122.522,102.065c0.095,0.247-0.019,0.564-0.129,0.804
			c-0.047,0.095-0.101,0.188-0.159,0.28c0.086-0.067,0.17-0.137,0.249-0.214c0.256-0.262,0.49-0.579,0.474-0.972
			C122.885,101.68,122.46,101.779,122.522,102.065"/>
		<path clip-path="url(#SVGID_4_)" fill="#3F4553" d="M123.049,102.138c0.086,0.253-0.068,0.563-0.209,0.788
			c0.278-0.216,0.571-0.538,0.52-0.925C123.306,101.685,122.854,101.886,123.049,102.138"/>
		<path clip-path="url(#SVGID_4_)" fill="#3F4553" d="M126.924,93.716c-0.004-0.149-1.84-0.323-3.705-0.142
			c-1.15,0.111-2.105,0.337-2.797,0.54c-0.127,0.037-0.24,0.106-0.331,0.201c-0.233,0.243-0.48,0.541-0.715,0.899
			c-0.49,0.749-0.738,1.475-0.868,2.022c-0.013,0.055,0.055,0.092,0.093,0.051c0.113-0.117,0.226-0.234,0.339-0.352
			c1.301-1.358,1.379-1.512,1.637-1.747c0.575-0.525,1.832-0.732,4.321-1.125C126.379,93.83,126.926,93.797,126.924,93.716"/>
	</g>
</g>
</svg>
