<svg width="415" height="551" viewBox="0 0 415 551" fill="none" xmlns="http://www.w3.org/2000/svg">
<circle cx="207.102" cy="269.982" r="246" fill="#9AA2FD"/>
<circle cx="207.102" cy="269.982" r="246" fill="#949DFF"/>
<circle cx="207.102" cy="269.982" r="211" fill="#9AA2FD"/>
<circle cx="207.102" cy="269.982" r="211" fill="#99A1FF"/>
<circle cx="207.102" cy="269.982" r="177" fill="#9AA2FD"/>
<circle cx="207.102" cy="269.982" r="177" fill="#9EA6FF"/>
<path d="M296.502 78.9824C294.931 70.7551 286.248 66.5558 282.102 65.4845C292.051 62.9135 296.72 70.8408 297.811 75.1259C308.808 68.9554 315.92 72.9833 318.102 75.7686C309.724 73.1976 300.211 76.8399 296.502 78.9824Z" fill="#B4BAFF"/>
<path d="M61.9023 94.9824C60.9423 90.2811 55.6356 87.8815 53.1023 87.2693C59.1823 85.8002 62.0356 90.3301 62.7023 92.7787C69.4223 89.2527 73.769 91.5544 75.1023 93.146C69.9823 91.6768 64.169 93.7581 61.9023 94.9824Z" fill="#B4BAFF"/>
<circle cx="207.102" cy="269.982" r="142" fill="#A3ABFF"/>
<rect x="-1.89771" y="308.982" width="416" height="266" fill="#8C96FF"/>
<path d="M345.351 116.008C297.351 102.508 304.351 143.008 314.351 143.008C318.459 143.008 326.975 144.008 337.351 144.008H368.851C408.851 144.008 420.351 141.341 420.851 140.508C424.351 114.008 403.185 116.508 391.851 119.508C393.685 109.674 391.751 89.8076 369.351 89.0076C346.95 88.2076 344.017 106.674 345.351 116.008Z" fill="#B4BAFF"/>
<path d="M7.85802 40.7698C-13.1694 34.8816 -10.1031 52.5463 -5.7224 52.5463C-3.92261 52.5463 -0.191839 52.9824 4.35374 52.9824H18.1532C35.6761 52.9824 40.714 51.8193 40.9333 51.4558C42.4666 39.8975 33.1939 40.9879 28.229 42.2964C29.0322 38.0075 28.1851 29.3423 18.3719 28.9934C8.55868 28.6445 7.27381 36.699 7.85802 40.7698Z" fill="#A6ADFB"/>
<circle cx="39.1023" cy="17.9824" r="6" fill="#A6ADFB"/>
<circle cx="3" cy="3" r="3" transform="matrix(1 0 0 -1 27.1023 6.98242)" fill="#A6ADFB"/>
<path d="M73.1858 275.982L-2.39771 308.982H427.602L354.101 275.982H73.1858Z" fill="#8C96FF"/>
<path d="M188.694 192.637L174.414 215.837L201.804 248.367H229.424L255.174 215.287L239.234 192.637H188.694Z" fill="#3F4553"/>
<path d="M174.414 215.837C174.414 215.837 112.984 220.587 97.5738 236.677C82.1638 252.767 89.4138 270.237 104.424 270.237C132.054 270.237 190.514 271.927 218.174 270.237L219.824 232.567L174.414 215.837Z" fill="#3F4553"/>
<path d="M253.584 215.037C253.584 215.037 317.914 220.587 333.324 236.677C348.734 252.767 339.854 263.427 326.474 270.237C307.644 279.827 239.774 278.237 204.574 266.587L211.084 232.567L253.584 215.037Z" fill="#3F4553"/>
<path d="M256.414 246.637L252.064 235.397L257.484 232.987C257.484 232.987 256.734 226.337 263.364 225.057C269.994 223.777 277.894 228.057 285.594 224.607C292.694 221.427 301.384 218.497 309.494 222.897C310.694 223.547 311.254 224.977 310.844 226.277L310.814 226.377C310.404 227.687 309.124 228.497 307.754 228.357C304.894 228.067 299.794 228.127 294.754 231.177C286.064 236.457 256.414 246.637 256.414 246.637Z" fill="#FEBBA0"/>
<path d="M307.024 247.277C307.024 247.277 264.094 239.647 173.664 238.467L164.934 250.307C164.934 250.307 187.434 263.167 208.554 267.817C229.674 272.467 302.584 287.107 335.144 264.557L307.024 247.277Z" fill="#3F4553"/>
<path d="M208.554 267.827C186.904 262.827 164.254 250.007 164.254 250.007L165.604 247.717" stroke="#6E758F" stroke-width="1.5925" stroke-miterlimit="10" stroke-linecap="round"/>
<path d="M173.664 238.467C173.664 238.467 273.014 236.197 299.524 251.577" stroke="#6E758F" stroke-width="1.5925" stroke-miterlimit="10" stroke-linecap="round"/>
<path d="M124.894 244.907C124.894 244.907 143.034 236.407 155.434 241.977" stroke="#6E758F" stroke-width="1.5925" stroke-miterlimit="10" stroke-linecap="round"/>
<path d="M167.024 248.347L173.654 238.247L167.024 234.657C167.024 234.657 164.704 228.847 158.204 227.047C151.694 225.257 147.064 228.147 139.654 224.107C132.824 220.377 124.384 216.787 115.964 220.537C114.724 221.087 114.044 222.467 114.354 223.797L114.374 223.897C114.684 225.237 115.894 226.137 117.264 226.107C120.134 226.037 125.224 226.497 130.004 229.937C138.254 235.877 167.024 248.347 167.024 248.347Z" fill="#FEBBA0"/>
<path d="M224.104 238.827L251.264 236.157" stroke="#6E758F" stroke-width="1.5925" stroke-miterlimit="10" stroke-linecap="round"/>
<path d="M189.564 227.057L204.714 238.027" stroke="#6E758F" stroke-width="1.5925" stroke-miterlimit="10" stroke-linecap="round"/>
<path d="M185.654 77.7667C186.294 84.0267 191.744 88.5867 197.824 87.9667C203.904 87.3467 208.314 81.7667 207.674 75.5167C207.034 69.2567 201.584 64.6967 195.504 65.3167C189.434 65.9267 185.024 71.5067 185.654 77.7667Z" fill="#3F4553"/>
<path d="M208.364 82.3167C208.364 82.3167 189.044 79.3967 186.004 61.1667C183.324 45.0567 194.134 32.1467 205.984 29.9167C205.994 29.9167 234.464 73.7967 208.364 82.3167Z" fill="#3F4553"/>
<path d="M208.804 31.6468C207.384 32.3468 206.034 33.2668 204.804 34.4568C193.794 45.0468 200.764 65.6068 210.624 74.8868C216.084 80.0168 224.064 82.4068 231.034 79.7868C241.224 75.9568 244.414 64.4168 242.344 54.1368C240.804 46.4768 236.554 39.2468 230.284 34.7468C224.014 30.2568 215.544 28.3568 208.804 31.6468Z" fill="#FDBCA0"/>
<path d="M206.974 68.6868C205.044 70.5968 201.684 71.3768 199.104 70.4668C196.524 69.5568 194.404 67.1268 193.734 64.3068C193.134 61.7768 193.784 58.8968 195.644 57.3468C197.504 55.7968 200.854 55.8968 202.444 57.9068L206.974 68.6868Z" fill="#FDBCA0"/>
<path d="M204.154 61.9668L206.184 98.3068C206.454 105.027 211.904 110.367 218.624 110.497C226.384 110.657 232.474 103.877 231.484 96.1768L227.384 62.4368L204.154 61.9668Z" fill="#FDBCA0"/>
<path d="M230.144 85.2167L229.634 80.2367C229.634 80.2367 219.634 83.3067 210.624 74.8767C210.624 74.8867 215.814 84.3567 230.144 85.2167Z" fill="#DF8370"/>
<path d="M200.184 56.4768C213.204 55.8068 225.084 47.0668 231.644 35.8068C231.644 35.8068 219.664 24.4368 202.154 31.0868C187.644 36.5868 200.184 56.4768 200.184 56.4768Z" fill="#3F4553"/>
<path d="M201.614 64.8368C200.114 64.9868 198.804 64.1768 198.684 63.0268C198.594 62.1568 199.204 61.3468 200.144 60.9268" stroke="#444359" stroke-width="1.1144" stroke-miterlimit="10" stroke-linecap="round"/>
<path d="M232.894 61.9968C233.194 61.0868 233.714 60.3668 234.294 59.6868L234.574 60.5668C233.914 60.3168 233.554 59.9368 233.184 59.5668C232.834 59.1768 232.524 58.7868 232.244 58.3668C231.684 57.5368 231.214 56.6568 230.874 55.7268C231.574 56.4368 232.214 57.1668 232.884 57.8668C233.224 58.2068 233.544 58.5568 233.894 58.8568C234.224 59.1468 234.614 59.4468 234.884 59.5168L235.694 59.7068L235.164 60.3968C234.624 61.1068 234.024 61.7668 233.194 62.2468C233.094 62.3068 232.974 62.2668 232.914 62.1768C232.884 62.1068 232.884 62.0468 232.894 61.9968Z" fill="#444359"/>
<path d="M235.824 65.1768C235.424 65.9968 234.744 66.7068 233.864 67.1368C232.994 67.5868 231.914 67.6768 230.954 67.3968C229.974 67.1268 229.214 66.4868 228.564 65.8268C228.274 65.4668 227.984 65.0968 227.744 64.7168C227.534 64.3068 227.314 63.9068 227.154 63.4868C227.524 63.7668 227.844 64.0668 228.164 64.3668L229.154 65.1868C229.854 65.6468 230.514 66.1468 231.274 66.3268C232.004 66.5568 232.784 66.5468 233.554 66.3368C234.314 66.1168 235.074 65.6868 235.824 65.1768Z" fill="#444359"/>
<path d="M225.354 52.1066C225.744 53.2666 225.964 54.4666 225.884 55.7566C225.834 56.3866 225.684 57.0766 225.214 57.6866C224.734 58.3066 223.924 58.5766 223.214 58.5566C222.484 58.5466 221.764 58.2266 221.274 57.7766C220.764 57.3266 220.364 56.8066 220.064 56.2566C219.464 55.1466 219.084 53.9866 218.894 52.7666C218.864 52.5766 218.994 52.3966 219.184 52.3566C219.364 52.3266 219.524 52.4366 219.574 52.5966L219.584 52.6166C219.924 53.6966 220.374 54.7866 220.954 55.7266C221.534 56.6366 222.324 57.4766 223.254 57.4466C223.714 57.4666 224.144 57.3466 224.404 57.0166C224.694 56.6966 224.834 56.1766 224.914 55.6466C225.064 54.5766 224.964 53.3966 224.784 52.2666V52.2466C224.754 52.0866 224.874 51.9266 225.034 51.9066C225.164 51.8866 225.304 51.9766 225.354 52.1066Z" fill="#444359"/>
<path d="M239.874 49.8367C240.204 50.8167 240.384 51.8167 240.364 52.8867C240.354 53.4167 240.254 53.9967 239.914 54.5467C239.584 55.1267 238.844 55.4867 238.204 55.4567C237.534 55.4467 236.924 55.0967 236.534 54.6867C236.134 54.2667 235.824 53.8167 235.594 53.3367C235.144 52.3767 234.864 51.3967 234.724 50.3667C234.694 50.1767 234.834 49.9967 235.034 49.9667C235.204 49.9467 235.364 50.0467 235.414 50.2067L235.424 50.2267C235.714 51.1267 236.064 52.0467 236.514 52.8467C236.964 53.6267 237.574 54.3767 238.244 54.3367C238.584 54.3467 238.854 54.2467 239.034 53.9667C239.234 53.6867 239.334 53.2567 239.394 52.8067C239.494 51.9067 239.414 50.9167 239.304 49.9767V49.9567C239.284 49.7967 239.404 49.6467 239.564 49.6167C239.694 49.6167 239.834 49.7067 239.874 49.8367Z" fill="#444359"/>
<path d="M250.674 101.607C250.584 95.507 230.804 90.627 230.804 90.627C229.564 91.997 227.434 94.3069 218.464 94.3069C209.884 94.3069 206.454 92.087 205.114 90.627H196.624C194.734 90.627 193.004 91.707 192.214 93.427C175.204 130.637 184.764 172.197 188.684 192.627C189.044 194.507 224.544 193.237 240.554 194.507C244.014 194.797 251.014 123.777 250.674 101.607Z" fill="#FEE6C6"/>
<path d="M209.364 154.227C211.124 140.007 213.274 131.477 214.924 134.277C216.384 136.757 215.574 149.197 213.384 161.197C213.394 161.197 208.614 160.317 209.364 154.227Z" fill="#FEBBA0"/>
<path d="M220.984 154.227C219.224 140.007 217.074 131.477 215.424 134.277C213.964 136.757 214.774 149.197 216.964 161.197C216.954 161.197 221.734 160.317 220.984 154.227Z" fill="#FEBBA0"/>
<path d="M279.604 150.697H257.254L260.804 173.397L220.244 153.607C220.104 152.087 219.914 150.207 219.684 148.217C218.154 148.217 216.614 148.217 215.084 148.197C215.094 149.927 215.124 151.097 215.124 151.097C215.124 151.097 214.334 161.537 216.144 165.017C219.584 171.637 254.774 192.957 264.544 195.487C265.154 195.647 265.764 195.767 266.374 195.847C275.804 197.177 282.054 191.887 281.984 182.367L279.604 150.697Z" fill="#FEBBA0"/>
<path d="M210.264 148.117C209.914 150.357 209.604 152.517 209.364 154.227L169.974 172.467L171.634 150.707H149.284L146.914 182.397C146.854 191.917 153.104 197.197 162.524 195.877C163.134 195.787 163.744 195.667 164.354 195.517C174.124 192.987 206.854 175.297 213.844 164.977C215.914 161.927 214.934 151.657 214.934 151.657C214.934 151.657 214.934 150.237 214.894 148.217C213.354 148.187 211.814 148.157 210.264 148.117Z" fill="#FEBBA0"/>
<path d="M177.354 163.117C186.094 137.267 186.024 137.247 196.754 90.637C189.574 91.127 188.834 89.957 183.174 92.897C166.194 101.717 150.204 130.687 145.494 163.117H177.354Z" fill="#FEE6C6"/>
<path d="M255.174 160.567C250.034 142.257 230.804 90.6368 230.804 90.6368C250.034 89.9868 276.274 115.057 282.554 157.217L255.174 160.567Z" fill="#FEE6C6"/>
<path d="M250.684 120.137L246.634 153.417" stroke="#EED2AD" stroke-width="1.5925" stroke-miterlimit="10" stroke-linecap="round"/>
<path d="M181.034 125.597L184.254 161.197" stroke="#EED2AD" stroke-width="1.5925" stroke-miterlimit="10" stroke-linecap="round"/>
</svg>
