<svg width="186" height="105" viewBox="0 0 186 105" fill="none" xmlns="http://www.w3.org/2000/svg">
<path fill-rule="evenodd" clip-rule="evenodd" d="M0.628985 54.1912C5.38601 63.3736 12.788 77.6618 38.5739 73.2328C59.3331 69.6672 65.4598 80.7504 71.2047 91.143C72.1709 92.8907 73.1262 94.619 74.1385 96.2547C75.5903 98.6004 78.2295 99.8481 80.9882 99.8481H84C88.9706 99.8481 93 95.8186 93 90.8481V40.8643C93 37.2257 90.8091 33.945 87.4481 32.551L12.4481 1.44304C6.5217 -1.01508 0 3.34033 0 9.75631V51.6191C0 52.5143 0.217174 53.3963 0.628985 54.1912V54.1912ZM185.371 54.1912C180.614 63.3736 173.212 77.6618 147.426 73.2328C126.667 69.6672 120.54 80.7504 114.795 91.143C113.829 92.8907 112.874 94.619 111.861 96.2547C110.41 98.6004 107.77 99.8481 105.012 99.8481H102C97.0294 99.8481 93 95.8186 93 90.8481V40.8643C93 37.2257 95.1909 33.945 98.5519 32.551L173.552 1.44304C179.478 -1.01508 186 3.34033 186 9.75631V51.6191C186 52.5143 185.783 53.3963 185.371 54.1912V54.1912Z" fill="#F4A17C"/>
<path d="M110.175 13.4984C110.175 13.4984 111.297 13.6232 112.258 14.4828C113.219 15.3424 114.105 13.1513 112.515 12.7039C110.928 12.2565 110.175 13.4984 110.175 13.4984Z" fill="#F5E2D5"/>
<path d="M109.108 13.398C109.108 13.398 109.841 12.5465 111.098 12.2401C112.354 11.9337 111.018 9.97858 109.754 11.0307C108.492 12.0856 109.108 13.398 109.108 13.398Z" fill="#F5E2D5"/>
<path d="M94.4582 18.4878C94.4582 18.4878 93.6783 19.2959 93.4976 20.5677C93.317 21.8367 91.218 20.7195 92.1484 19.3664C93.0762 18.0133 94.4582 18.4878 94.4582 18.4878Z" fill="#F5E2D5"/>
<path d="M95.2141 17.7339C95.2141 17.7339 94.1003 17.5468 92.9372 18.1108C91.7741 18.6748 91.5332 16.3265 93.1862 16.3292C94.8364 16.3319 95.2141 17.7339 95.2141 17.7339Z" fill="#F5E2D5"/>
<path d="M111.392 25.15C113.827 21.1764 112.55 15.9993 108.54 13.5867C104.53 11.1741 99.3047 12.4395 96.8698 16.4131C94.4349 20.3868 95.712 25.5639 99.7223 27.9765C103.733 30.3891 108.957 29.1237 111.392 25.15Z" fill="#F5E2D5"/>
<path d="M97.5481 19.3473C97.4031 19.3853 97.2471 19.3229 97.1732 19.1873C97.0883 19.03 97.1458 18.8321 97.3073 18.748L99.4227 17.6172L98.0051 17.5684C97.8245 17.563 97.6822 17.4112 97.6877 17.2322C97.6931 17.0532 97.8464 16.9122 98.027 16.9176L100.654 17.0071C100.802 17.0125 100.928 17.1156 100.963 17.2593C100.996 17.403 100.931 17.5495 100.799 17.62L97.6165 19.3202C97.5946 19.331 97.5727 19.3392 97.5481 19.3473Z" fill="#3F4553"/>
<path d="M108.873 16.2614C108.848 16.2668 108.823 16.2722 108.796 16.2722L105.34 16.3807C105.192 16.3861 105.058 16.2912 105.014 16.1502C104.97 16.0092 105.028 15.8573 105.153 15.7787L107.488 14.3361C107.641 14.2412 107.844 14.2873 107.939 14.4391C108.035 14.591 107.989 14.7917 107.835 14.8866L106.536 15.6892L108.774 15.6187C108.955 15.6133 109.108 15.7543 109.113 15.9333C109.116 16.0905 109.015 16.2207 108.873 16.2614Z" fill="#3F4553"/>
<path d="M97.4056 20.8118C99.2063 24.1011 102.403 25.9748 105.347 25.1722C108.289 24.3695 110.071 21.1372 109.921 17.4005L108.785 17.5171C105.148 17.8886 101.609 18.8621 98.3005 20.3969L97.4056 20.8118Z" fill="#3F4553"/>
<path d="M108.949 21.6226C107.674 21.2077 106.062 21.1725 104.417 21.6226C102.74 22.0809 101.352 22.9513 100.474 23.9818C101.965 24.939 103.651 25.3078 105.263 24.8685C106.894 24.4211 108.164 23.2306 108.949 21.6226Z" fill="#4E5567"/>
<path d="M52.4972 53.6533C53.7982 49.1869 51.1987 44.5212 46.6911 43.2321C42.1835 41.943 37.4747 44.5188 36.1738 48.9852C34.8728 53.4515 37.4723 58.1173 41.9799 59.4063C46.4875 60.6954 51.1963 58.1196 52.4972 53.6533Z" fill="#F5E2D5"/>
<path d="M39.995 46.2092C39.8554 46.1523 39.7706 46.0086 39.7952 45.8567C39.8253 45.6804 39.9923 45.5584 40.1729 45.5882L42.5456 45.9679L41.4509 45.0757C41.3114 44.9618 41.2922 44.7558 41.4071 44.6175C41.5221 44.4792 41.7301 44.4602 41.8696 44.5741L43.9003 46.2309C44.0152 46.3231 44.0508 46.4831 43.9906 46.616C43.9304 46.7488 43.7853 46.8275 43.6403 46.8031L40.0689 46.2336C40.0415 46.2255 40.0169 46.2201 39.995 46.2092Z" fill="#3F4553"/>
<path d="M50.8763 50.5886C50.8517 50.5778 50.8298 50.5669 50.8079 50.5507L48.0001 48.5521C47.8796 48.4654 47.8331 48.3108 47.8851 48.1725C47.9371 48.0342 48.0767 47.9501 48.2245 47.9637L50.9612 48.2267C51.1418 48.243 51.2732 48.403 51.2567 48.582C51.2403 48.7609 51.0788 48.8911 50.8982 48.8748L49.3739 48.7284L51.1938 50.0219C51.3416 50.1276 51.3744 50.3283 51.2677 50.4747C51.1746 50.6022 51.0132 50.6456 50.8763 50.5886Z" fill="#3F4553"/>
<path d="M45.4057 54.8567C44.166 54.8567 43.0603 54.5801 42.097 54.0296C39.5601 52.5789 38.9745 49.7642 38.9498 49.6448C38.906 49.4252 39.0511 49.211 39.2728 49.1676C39.4944 49.1242 39.7106 49.2679 39.7544 49.4876C39.7599 49.512 40.299 52.0664 42.5157 53.33C44.1304 54.252 46.2431 54.2818 48.7965 53.4195C49.0127 53.3463 49.2453 53.4602 49.3164 53.6744C49.3903 53.8859 49.2754 54.1191 49.0592 54.1896C47.7374 54.6316 46.5168 54.8567 45.4057 54.8567Z" fill="#3F4553"/>
<path d="M95.5861 77.4519C99.2337 73.8376 99.2337 67.9778 95.5861 64.3635C91.9385 60.7493 86.0245 60.7493 82.3769 64.3635C78.7293 67.9778 78.7294 73.8376 82.377 77.4519C86.0246 81.0661 91.9385 81.0661 95.5861 77.4519Z" fill="#F5E2D5"/>
<path d="M83.7197 73.9359C83.7197 73.9359 89.7267 70.5381 95.5148 69.7165C95.5148 69.7165 97.176 75.1399 91.6424 77.2387C86.845 79.0583 83.7197 73.9359 83.7197 73.9359Z" fill="#3F4553"/>
<path d="M84.9048 71.3218C84.7078 71.3218 84.5162 71.2161 84.4177 71.0289L83.0548 68.4203C82.9153 68.1546 83.022 67.8265 83.2902 67.6882C83.5584 67.5499 83.8895 67.6556 84.0291 67.9214L85.392 70.53C85.5315 70.7957 85.4248 71.1239 85.1566 71.2622C85.0745 71.3028 84.9897 71.3218 84.9048 71.3218Z" fill="#3F4553"/>
<path d="M92.1679 68.7105C91.9162 68.7105 91.689 68.5369 91.6343 68.282L90.9994 65.3127C90.9364 65.0199 91.1252 64.7324 91.4208 64.6701C91.7164 64.6077 92.0065 64.7948 92.0694 65.0877L92.7043 68.0569C92.7673 68.3498 92.5784 68.6372 92.2829 68.6996C92.2418 68.7077 92.2035 68.7105 92.1679 68.7105Z" fill="#3F4553"/>
<path d="M93.112 76.1567C92.6084 74.9283 90.8487 74.4266 89.1301 75.0395C88.1777 75.3811 87.4388 75.994 87.0365 76.6854C88.2817 77.3064 89.8307 77.5857 91.6095 76.9105C92.187 76.6936 92.6796 76.4387 93.112 76.1567Z" fill="#4E5567"/>
<path d="M143.018 46.9196C147.757 44.9021 149.949 39.4595 147.913 34.7632C145.877 30.0669 140.384 27.8952 135.644 29.9127C130.905 31.9301 128.713 37.3727 130.749 42.0691C132.785 46.7654 138.278 48.9371 143.018 46.9196Z" fill="#F5E2D5"/>
<path d="M140.522 40.4767C137.296 40.4767 134.846 38.6165 134.811 38.5894C134.693 38.4972 134.671 38.3263 134.764 38.2097C134.857 38.0931 135.03 38.0714 135.147 38.1636C135.344 38.3155 140.027 41.8596 144.904 38.5514C145.03 38.4673 145.199 38.4999 145.284 38.6219C145.369 38.7466 145.339 38.9148 145.213 38.9988C143.593 40.097 141.978 40.4767 140.522 40.4767Z" fill="#3F4553"/>
<path d="M143.185 35.5632C143.185 36.1327 142.961 36.5964 142.681 36.5964C142.402 36.5964 142.178 36.1354 142.178 35.5632C142.178 34.9911 142.402 34.5301 142.681 34.5301C142.961 34.5301 143.185 34.9938 143.185 35.5632Z" fill="#3F4553"/>
<path d="M138.349 35.3653C138.349 35.9348 138.125 36.3985 137.846 36.3985C137.567 36.3985 137.342 35.9375 137.342 35.3653C137.342 34.7959 137.567 34.3322 137.846 34.3322C138.125 34.3322 138.349 34.7931 138.349 35.3653Z" fill="#3F4553"/>
<path d="M115.71 102.889C128.298 102.889 138.503 100.604 138.503 97.7853C138.503 94.9668 128.298 92.6819 115.71 92.6819C103.122 92.6819 92.9177 94.9668 92.9177 97.7853C92.9177 100.604 103.122 102.889 115.71 102.889Z" fill="#F4A17C"/>
<path opacity="0.5" d="M115.71 102.889C128.298 102.889 138.503 100.604 138.503 97.7853C138.503 94.9668 128.298 92.6819 115.71 92.6819C103.122 92.6819 92.9177 94.9668 92.9177 97.7853C92.9177 100.604 103.122 102.889 115.71 102.889Z" fill="#F4A17C"/>
<path d="M113.946 30.3215C113.946 30.3215 112.2 30.1642 112.041 28.5914C111.883 27.0186 116.012 25.05 118.631 24.9713C121.253 24.8927 123.793 27.7264 123.793 30.0069C123.793 32.2874 124.19 35.5143 126.174 36.1434C128.158 36.7726 129.51 40.6286 128.317 42.0441C127.126 43.4596 127.206 43.4596 128.396 44.7205C129.586 45.9787 128.555 48.1833 127.761 48.6551C126.967 49.127 124.584 49.8347 119.264 49.3629C113.944 48.891 110.766 44.0914 110.528 42.1227C110.29 40.1567 112.115 38.8172 112.75 37.9521C113.385 37.0871 112.274 36.3794 112.353 35.433C112.433 34.4893 113.623 33.7029 113.941 32.9138C114.264 32.1302 113.946 30.3215 113.946 30.3215Z" fill="#3F4553"/>
<path d="M122.515 49.653C121.581 49.653 120.503 49.6069 119.255 49.4957C113.678 48.9995 110.618 43.9666 110.396 42.139C110.202 40.5445 111.297 39.3676 112.093 38.508C112.318 38.2667 112.509 38.0579 112.646 37.8735C112.966 37.4342 112.772 37.041 112.547 36.5827C112.37 36.2248 112.189 35.856 112.225 35.4248C112.274 34.8256 112.717 34.3103 113.147 33.8141C113.431 33.4833 113.7 33.1714 113.823 32.8677C114.083 32.2251 113.888 30.8231 113.831 30.4408C113.431 30.373 112.052 30.034 111.907 28.6023C111.869 28.2308 112.036 27.8348 112.397 27.4254C113.544 26.1319 116.513 24.8954 118.628 24.833C119.824 24.8005 121.102 25.3564 122.153 26.3678C123.251 27.4227 123.932 28.8165 123.932 30.0069C123.932 31.981 124.23 35.3842 126.22 36.016C127.263 36.3468 128.229 37.5589 128.683 39.1019C129.055 40.3682 128.959 41.5017 128.429 42.1335C127.35 43.4134 127.35 43.4134 128.398 44.5171L128.505 44.6283C129.099 45.2547 129.129 46.0411 129.053 46.5888C128.913 47.5867 128.325 48.4816 127.84 48.7717C127.43 49.0104 126.018 49.653 122.515 49.653ZM118.735 25.1042C118.702 25.1042 118.669 25.1042 118.634 25.1069C116.617 25.1666 113.683 26.3814 112.599 27.6071C112.288 27.9569 112.145 28.285 112.175 28.5778C112.32 30.0232 113.94 30.1859 113.957 30.1886C114.02 30.194 114.069 30.2401 114.08 30.2998C114.094 30.3757 114.4 32.1573 114.072 32.9708C113.932 33.3152 113.65 33.6433 113.352 33.9904C112.953 34.4568 112.537 34.9367 112.495 35.4492C112.465 35.8072 112.632 36.1407 112.791 36.4661C113.035 36.9569 113.284 37.464 112.868 38.0362C112.723 38.2341 112.526 38.4484 112.296 38.6951C111.535 39.5168 110.492 40.6421 110.67 42.1118C110.884 43.8826 113.858 48.75 119.283 49.2327C125.139 49.7534 127.203 48.8368 127.698 48.5439C128.119 48.2945 128.653 47.462 128.782 46.5563C128.85 46.0655 128.823 45.3659 128.305 44.8181L128.201 44.7069C127.074 43.5192 127.019 43.3945 128.223 41.9627C128.697 41.3987 128.773 40.3601 128.426 39.1805C128.076 37.9847 127.233 36.6234 126.143 36.279C123.987 35.5957 123.667 32.0596 123.667 30.0123C123.667 28.8924 123.018 27.5745 121.973 26.5685C120.993 25.633 119.822 25.1042 118.735 25.1042Z" fill="#3F4553"/>
<path d="M126.611 42.9688C126.562 42.9688 126.532 42.9634 126.524 42.9606C126.45 42.9444 126.403 42.8712 126.42 42.7979C126.436 42.7247 126.51 42.6786 126.584 42.6949C126.587 42.6949 126.718 42.7166 126.882 42.5973C127.093 42.4454 127.372 42.0631 127.512 41.0896C127.692 39.8368 125.689 38.1935 123.571 36.4553C122.629 35.6825 121.655 34.8826 120.801 34.0636C117.972 31.3492 117.572 28.1386 117.567 28.1061C117.558 28.0329 117.613 27.9651 117.687 27.9569C117.755 27.9488 117.829 28.003 117.838 28.0762C117.84 28.1061 118.232 31.2272 120.99 33.8684C121.836 34.6792 122.805 35.4764 123.743 36.2438C126.018 38.1095 127.982 39.7229 127.78 41.1248C127.654 41.9953 127.4 42.5675 127.022 42.8251C126.855 42.9471 126.702 42.9688 126.611 42.9688Z" fill="#AC9B8F"/>
<path d="M113.114 29.0334C112.227 29.0334 111.945 28.6918 111.932 28.6728C111.885 28.6131 111.896 28.5291 111.956 28.483C112.014 28.4369 112.101 28.4477 112.148 28.5074C112.151 28.5101 112.608 29.0172 114.296 28.5969C116.07 28.1576 117.876 26.7394 117.892 26.7231C117.953 26.677 118.037 26.6851 118.084 26.7448C118.13 26.8044 118.122 26.8885 118.062 26.9346C117.985 26.9943 116.193 28.4043 114.362 28.8572C113.853 28.9873 113.442 29.0334 113.114 29.0334Z" fill="#AC9B8F"/>
<path d="M105.607 95.0276C105.607 95.0276 106.79 96.5651 108.111 97.2891C109.433 98.0131 111.806 97.5142 111.122 95.7977C110.438 94.0812 109.343 93.1755 108.522 92.861C107.701 92.5437 105.566 93.3545 105.607 95.0276Z" fill="#E49621"/>
<path d="M109.455 97.7473C108.968 97.7473 108.464 97.6362 108.046 97.4084C106.713 96.6789 105.547 95.174 105.498 95.1116C105.481 95.0899 105.47 95.0601 105.47 95.0329C105.454 94.3198 105.81 93.6717 106.478 93.2053C107.151 92.7362 108.051 92.5328 108.571 92.7334C108.982 92.8907 110.383 93.5741 111.248 95.7488C111.491 96.359 111.39 96.9013 110.963 97.2728C110.605 97.5873 110.041 97.7473 109.455 97.7473ZM105.744 94.9814C105.928 95.2119 107.006 96.5298 108.177 97.1725C108.993 97.6172 110.21 97.5684 110.785 97.0694C111.125 96.7738 111.196 96.3535 110.996 95.8492C110.172 93.7774 108.856 93.1348 108.473 92.9883C108.092 92.8419 107.301 92.9666 106.636 93.4303C106.3 93.6608 105.744 94.1706 105.744 94.9814Z" fill="#3F4553"/>
<path d="M107.29 96.7005L107.304 96.7412C107.561 96.9446 107.832 97.1344 108.111 97.2862C109.433 98.0102 111.806 97.5113 111.122 95.7948C108.979 94.4878 107.29 96.7005 107.29 96.7005Z" fill="#F1BD54"/>
<path d="M109.455 97.7473C108.968 97.7473 108.464 97.6362 108.046 97.4084C107.783 97.2647 107.507 97.0776 107.219 96.8498C107.197 96.8335 107.181 96.8091 107.173 96.782L107.159 96.7386C107.145 96.6979 107.154 96.6518 107.181 96.6166C107.2 96.5949 108.968 94.3198 111.193 95.6783C111.218 95.6946 111.237 95.7163 111.248 95.7434C111.491 96.3535 111.39 96.8959 110.963 97.2674C110.605 97.5873 110.041 97.7473 109.455 97.7473ZM107.468 96.7006C107.715 96.8904 107.953 97.0477 108.177 97.1725C108.993 97.6172 110.21 97.5684 110.785 97.0694C111.114 96.782 111.193 96.3779 111.012 95.8926C109.225 94.8323 107.794 96.3156 107.468 96.7006Z" fill="#3F4553"/>
<path d="M108.111 97.2891C109.351 97.967 111.513 97.5738 111.215 96.1068C110.771 96.5759 109.887 97.1508 108.659 96.7007C107.34 96.2207 106.209 94.9055 105.741 94.3008C105.654 94.5205 105.599 94.7618 105.607 95.0276C105.607 95.0276 106.789 96.5651 108.111 97.2891Z" fill="#F1BD54"/>
<path d="M109.455 97.7446C108.965 97.7446 108.459 97.6334 108.045 97.4057C106.713 96.6762 105.547 95.1712 105.498 95.1089C105.481 95.0872 105.47 95.0574 105.47 95.0302C105.465 94.7672 105.511 94.5042 105.615 94.2493C105.634 94.2032 105.676 94.1706 105.725 94.1652C105.771 94.1571 105.821 94.1788 105.851 94.2167C106.278 94.7672 107.408 96.0986 108.705 96.5732C109.967 97.0342 110.81 96.3345 111.113 96.0119C111.149 95.9739 111.201 95.9603 111.25 95.9739C111.299 95.9875 111.338 96.0281 111.346 96.0769C111.45 96.5922 111.278 97.045 110.859 97.3487C110.503 97.6145 109.989 97.7446 109.455 97.7446ZM105.744 94.9814C105.927 95.2119 107.006 96.5298 108.177 97.1725C108.94 97.5901 110.098 97.5738 110.7 97.1345C110.963 96.9447 111.1 96.6979 111.105 96.3996C110.659 96.7793 109.8 97.2647 108.609 96.8308C107.386 96.3834 106.316 95.2309 105.79 94.5855C105.76 94.7157 105.744 94.8458 105.744 94.9814Z" fill="#3F4553"/>
<path d="M125.432 94.9706C125.432 94.9706 124.25 96.5081 122.928 97.2322C121.606 97.9562 119.233 97.4572 119.918 95.7407C120.602 94.0243 121.696 93.1186 122.518 92.804C123.339 92.4867 125.473 93.2975 125.432 94.9706Z" fill="#E49621"/>
<path d="M121.585 97.6905C120.999 97.6905 120.435 97.5278 120.074 97.2132C119.647 96.8417 119.546 96.3021 119.789 95.6893C120.654 93.5172 122.058 92.8339 122.466 92.6739C122.986 92.4732 123.886 92.6766 124.559 93.1457C125.227 93.6094 125.586 94.2602 125.566 94.9734C125.566 95.0005 125.555 95.0303 125.539 95.052C125.49 95.1171 124.324 96.6221 122.991 97.3488C122.575 97.5766 122.072 97.6905 121.585 97.6905ZM122.939 92.8691C122.791 92.8691 122.666 92.8881 122.564 92.9261C122.181 93.0725 120.868 93.7179 120.041 95.7869C119.841 96.2913 119.912 96.7116 120.252 97.0071C120.826 97.5088 122.044 97.5549 122.86 97.1102C124.031 96.4702 125.109 95.1523 125.293 94.9219C125.293 94.1111 124.737 93.6013 124.401 93.3681C123.911 93.0264 123.352 92.8691 122.939 92.8691Z" fill="#3F4553"/>
<path d="M123.749 96.6436L123.735 96.6843C123.478 96.8877 123.207 97.0775 122.928 97.2294C121.606 97.9534 119.233 97.4544 119.917 95.7379C122.06 94.4282 123.749 96.6436 123.749 96.6436Z" fill="#F1BD54"/>
<path d="M121.584 97.6905C120.999 97.6905 120.435 97.5278 120.074 97.2132C119.647 96.8417 119.545 96.3021 119.789 95.6892C119.8 95.6621 119.819 95.6377 119.844 95.6242C122.069 94.2656 123.839 96.538 123.856 96.5624C123.883 96.5977 123.891 96.6438 123.878 96.6844L123.864 96.7251C123.856 96.7522 123.839 96.7739 123.817 96.7902C123.53 97.018 123.251 97.2051 122.991 97.3488C122.575 97.5766 122.071 97.6905 121.584 97.6905ZM120.027 95.8303C119.846 96.3157 119.926 96.7224 120.254 97.0071C120.829 97.5088 122.047 97.5549 122.862 97.1102C123.087 96.9882 123.325 96.8309 123.571 96.6383C123.243 96.256 121.811 94.7754 120.027 95.8303Z" fill="#3F4553"/>
<path d="M122.928 97.2322C121.688 97.9101 119.526 97.5169 119.825 96.0499C120.268 96.519 121.152 97.0939 122.381 96.6437C123.7 96.1638 124.83 94.8486 125.298 94.2439C125.386 94.4635 125.44 94.7049 125.432 94.9706C125.432 94.9706 124.25 96.5081 122.928 97.2322Z" fill="#F1BD54"/>
<path d="M121.584 97.6879C121.051 97.6879 120.536 97.555 120.175 97.2947C119.756 96.991 119.584 96.5381 119.688 96.0229C119.699 95.9741 119.734 95.9334 119.784 95.9198C119.833 95.9063 119.888 95.9198 119.92 95.9578C120.224 96.2805 121.067 96.9774 122.329 96.5191C123.626 96.0446 124.759 94.7131 125.183 94.1627C125.213 94.1247 125.262 94.1057 125.309 94.1111C125.358 94.1166 125.399 94.1491 125.418 94.1952C125.52 94.4501 125.569 94.7131 125.564 94.9762C125.564 95.006 125.553 95.0331 125.536 95.0548C125.487 95.1199 124.321 96.6249 122.988 97.3516C122.581 97.5767 122.074 97.6879 121.584 97.6879ZM119.931 96.3401C119.94 96.6384 120.074 96.8852 120.336 97.075C120.939 97.5143 122.096 97.5306 122.86 97.113C124.031 96.473 125.109 95.1551 125.293 94.9246C125.293 94.7918 125.276 94.6589 125.243 94.5287C124.718 95.1714 123.648 96.3266 122.425 96.774C121.237 97.2052 120.377 96.7198 119.931 96.3401Z" fill="#3F4553"/>
<path d="M116.168 36.035C116.168 36.035 115.851 38.6327 115.613 39.1832C115.375 39.7337 112.436 39.891 111.166 40.3628C109.896 40.8346 107.195 43.1179 105.528 44.6906C103.861 46.2634 102.351 50.434 102.351 50.9845C102.351 51.5349 104.017 49.4117 105.528 47.9148C107.036 46.4207 110.372 44.5307 110.372 44.5307C110.372 44.5307 111.565 50.3852 111.724 51.017C111.883 51.6461 111.721 52.6955 111.721 52.9314C111.721 53.1674 108.385 58.9107 107.83 63.7104C107.274 68.51 108.306 77.6376 108.306 77.6376C108.306 77.6376 106.48 81.179 106.322 85.1137C106.163 89.0483 105.29 93.6907 105.369 94.0053C105.449 94.3198 105.211 94.9489 105.607 95.0276C106.004 95.1062 106.322 94.0053 107.274 93.7694C108.226 93.5334 109.496 94.1626 109.658 93.5334C109.816 92.9043 109.658 91.6461 109.816 89.992C109.975 88.3406 112.597 81.5722 112.756 79.2917C112.914 77.0112 114.819 65.8363 115.219 65.2859C115.616 64.7354 115.616 64.7354 115.616 64.7354C115.616 64.7354 116.012 63.7917 116.25 64.814C116.489 65.8363 116.25 75.9862 116.727 77.483C117.203 78.9771 120.955 89.0158 121.431 90.1954C121.907 91.3749 120.875 92.7932 121.193 93.4223C121.51 94.0514 122.383 93.8155 123.177 93.8155C123.971 93.8155 124.797 94.9706 125.432 94.9706C126.067 94.9706 126.275 94.0514 126.275 93.0291C126.275 92.0068 123.475 82.0468 123.317 79.6062C123.158 77.1657 122.602 75.2784 122.602 75.2784C122.602 75.2784 123.634 64.0276 123.396 61.5871C123.158 59.1466 121.094 52.9314 121.094 52.9314L122.523 45.1625C122.523 45.1625 126.891 47.603 128.399 49.569C129.907 51.5349 130.941 51.4563 130.78 49.8835C130.621 48.3107 126.888 43.6683 124.904 41.621C122.92 39.5764 120.219 39.9696 119.425 39.4191C118.631 38.8687 119.108 33.4399 119.108 33.4399L116.168 36.035Z" fill="#FED9CE"/>
<path d="M105.651 95.1685C105.629 95.1685 105.605 95.1658 105.583 95.1604C105.2 95.0844 105.224 94.6777 105.244 94.3821C105.252 94.2547 105.26 94.1218 105.238 94.0377C105.205 93.9103 105.26 93.4873 105.441 92.2073C105.698 90.3824 106.086 87.6246 106.188 85.1082C106.338 81.404 107.975 78.0036 108.169 77.6131C108.095 76.9487 107.165 68.293 107.696 63.6967C108.142 59.8434 110.394 55.3339 111.242 53.6364C111.42 53.2812 111.573 52.9748 111.587 52.9151C111.584 52.8744 111.595 52.7687 111.606 52.6304C111.645 52.2101 111.708 51.5104 111.593 51.0522C111.45 50.4827 110.484 45.7644 110.276 44.7475C109.589 45.1488 106.913 46.7379 105.624 48.0151C105.098 48.5357 104.551 49.1377 104.067 49.6692C102.865 50.9871 102.562 51.2854 102.34 51.2013C102.293 51.1823 102.214 51.1335 102.214 50.9898C102.214 50.3715 103.738 46.1955 105.432 44.5957C106.79 43.3157 109.723 40.7559 111.116 40.2407C111.653 40.0427 112.466 39.899 113.254 39.7607C114.198 39.5953 115.375 39.3892 115.484 39.1343C115.711 38.6083 116.026 36.0512 116.029 36.024C116.032 35.9915 116.048 35.9617 116.073 35.94L119.012 33.3422C119.053 33.3042 119.116 33.2988 119.165 33.3232C119.214 33.3476 119.244 33.4018 119.239 33.4561C119.058 35.5251 118.968 38.9445 119.499 39.3133C119.737 39.4787 120.211 39.5574 120.761 39.6496C121.976 39.8529 123.637 40.1322 124.997 41.5342C126.973 43.5706 130.744 48.2293 130.911 49.8753C131.004 50.8054 130.681 51.0766 130.479 51.1552C129.961 51.3586 129.181 50.8244 128.284 49.6557C126.976 47.95 123.429 45.8485 122.616 45.382L121.229 52.9287C121.409 53.471 123.297 59.2197 123.527 61.5816C123.76 63.9706 122.802 74.538 122.736 75.2729C122.802 75.5061 123.3 77.3284 123.448 79.6035C123.538 80.981 124.504 84.8912 125.282 88.0341C125.908 90.5722 126.406 92.5788 126.406 93.0344C126.406 94.374 126.059 95.1115 125.427 95.1115C125.082 95.1115 124.721 94.8404 124.34 94.5557C123.949 94.2628 123.544 93.9564 123.172 93.9564C123.002 93.9564 122.827 93.9672 122.657 93.9781C122.017 94.0187 121.354 94.0594 121.064 93.4873C120.9 93.1646 121.029 92.7144 121.177 92.1938C121.352 91.5728 121.549 90.8705 121.3 90.2522C120.818 89.0591 117.077 79.0476 116.593 77.529C116.308 76.6314 116.275 72.8459 116.245 69.5052C116.226 67.3195 116.209 65.2587 116.114 64.8492C116.034 64.5129 115.958 64.4777 115.958 64.4777C115.914 64.4858 115.802 64.6431 115.739 64.7923C115.736 64.8031 115.731 64.8112 115.725 64.8194L115.328 65.3698C114.978 65.8552 113.068 76.7942 112.893 79.3052C112.802 80.5851 111.948 83.2642 111.193 85.6288C110.591 87.5107 110.025 89.2896 109.953 90.0109C109.874 90.8298 109.874 91.562 109.874 92.1531C109.874 92.7605 109.874 93.2432 109.792 93.574C109.671 94.054 109.119 93.9862 108.533 93.9157C108.136 93.8669 107.687 93.8127 107.31 93.9076C106.82 94.0296 106.505 94.4092 106.251 94.7156C106.048 94.9543 105.873 95.1685 105.651 95.1685ZM110.372 44.3977C110.391 44.3977 110.41 44.4004 110.43 44.4086C110.471 44.4275 110.498 44.4628 110.506 44.5062C110.517 44.5658 111.702 50.3661 111.858 50.9844C111.984 51.486 111.918 52.2155 111.88 52.6521C111.869 52.7795 111.858 52.8771 111.858 52.9314C111.858 53.0046 111.806 53.113 111.486 53.7557C110.643 55.4424 108.407 59.9194 107.967 63.7266C107.419 68.4557 108.432 77.5317 108.443 77.6239C108.445 77.651 108.44 77.6782 108.429 77.6999C108.41 77.7351 106.615 81.2603 106.459 85.119C106.357 87.649 105.969 90.4149 105.711 92.2453C105.588 93.113 105.484 93.8615 105.503 93.9754C105.534 94.0974 105.525 94.252 105.514 94.3984C105.495 94.7265 105.506 94.8702 105.635 94.8946C105.731 94.9109 105.887 94.7211 106.04 94.5367C106.303 94.2167 106.664 93.7801 107.244 93.6364C107.674 93.5306 108.147 93.5876 108.566 93.6391C109.124 93.7069 109.466 93.734 109.526 93.5008C109.603 93.2025 109.603 92.7361 109.603 92.1477C109.603 91.5538 109.603 90.8135 109.682 89.9811C109.754 89.2299 110.301 87.5216 110.933 85.542C111.683 83.1937 112.534 80.5308 112.622 79.2835C112.758 77.3094 114.65 65.8444 115.109 65.2071L115.498 64.6675C115.555 64.5346 115.731 64.1848 115.988 64.2011C116.229 64.2201 116.33 64.5428 116.385 64.7814C116.486 65.218 116.502 67.1053 116.524 69.4943C116.552 72.6507 116.584 76.5799 116.858 77.4368C117.342 78.9526 121.078 88.9506 121.56 90.141C121.844 90.8461 121.623 91.627 121.447 92.2561C121.322 92.7036 121.201 93.1266 121.319 93.3571C121.527 93.7693 122.047 93.7367 122.649 93.6988C122.827 93.6879 123.005 93.6771 123.183 93.6771C123.648 93.6771 124.088 94.0106 124.515 94.3306C124.857 94.5882 125.183 94.8322 125.435 94.8322C126.073 94.8322 126.141 93.5686 126.141 93.0263C126.141 92.6033 125.599 90.4095 125.024 88.091C124.203 84.7746 123.276 81.0162 123.183 79.6143C123.027 77.2199 122.479 75.3353 122.474 75.3163C122.468 75.3 122.468 75.2837 122.468 75.2675C122.479 75.1536 123.497 64.0004 123.262 61.6006C123.029 59.2035 120.985 53.0371 120.966 52.9748C120.958 52.9531 120.958 52.9314 120.96 52.907L122.389 45.138C122.397 45.0946 122.424 45.0594 122.466 45.0404C122.507 45.0214 122.553 45.0241 122.591 45.0458C122.772 45.1461 127 47.5216 128.511 49.4875C129.444 50.7051 130.104 51.0088 130.386 50.8976C130.607 50.8108 130.703 50.4475 130.648 49.897C130.49 48.3351 126.707 43.6737 124.811 41.7159C123.514 40.379 121.902 40.1078 120.725 39.9099C120.117 39.8068 119.639 39.7282 119.351 39.5275C118.61 39.0123 118.85 35.037 118.949 33.7625L116.305 36.1C116.259 36.4769 115.974 38.7086 115.747 39.2347C115.585 39.6062 114.715 39.777 113.311 40.0211C112.537 40.1566 111.732 40.2976 111.22 40.4875C110.046 40.924 107.499 43.0229 105.629 44.7855C104.039 46.285 102.644 50.0949 102.507 50.8813C102.764 50.6915 103.347 50.0543 103.87 49.4794C104.357 48.9452 104.907 48.3405 105.438 47.8171C106.943 46.3257 110.175 44.4899 110.312 44.4113C110.326 44.4031 110.35 44.3977 110.372 44.3977Z" fill="#3F4553"/>
<path d="M121.19 93.4224C121.507 94.0515 122.38 93.8156 123.174 93.8156C123.967 93.8156 124.794 94.9707 125.429 94.9707C126.064 94.9707 126.272 94.0515 126.272 93.0292C126.272 92.0069 123.472 82.0469 123.313 79.6064C123.155 77.1659 122.599 75.2785 122.599 75.2785C122.599 75.2785 123.631 64.0278 123.393 61.5873C123.354 61.1995 123.27 60.7141 123.155 60.1772L109.091 58.8214C108.511 60.3968 108.015 62.1079 107.829 63.7132C107.274 68.5129 108.305 77.6404 108.305 77.6404C108.305 77.6404 106.48 81.1819 106.321 85.1165C106.162 89.0511 105.289 93.6935 105.369 94.0081C105.448 94.3226 105.21 94.9518 105.607 95.0304C106.004 95.109 106.321 94.0081 107.274 93.7722C108.226 93.5363 109.496 94.1654 109.657 93.5363C109.816 92.9071 109.657 91.6489 109.816 89.9948C109.975 88.3434 112.596 81.575 112.755 79.2945C112.914 77.014 114.819 65.8392 115.218 65.2887C115.615 64.7382 115.615 64.7382 115.615 64.7382C115.615 64.7382 116.012 63.7946 116.25 64.8169C116.488 65.8392 116.25 75.989 116.726 77.4858C117.202 78.98 120.954 89.0186 121.431 90.1982C121.907 91.375 120.872 92.7933 121.19 93.4224Z" fill="#3F4553"/>
<path d="M105.651 95.1686C105.629 95.1686 105.605 95.1659 105.583 95.1605C105.199 95.0845 105.224 94.6778 105.243 94.3822C105.251 94.2548 105.26 94.1219 105.238 94.0378C105.205 93.9104 105.26 93.4874 105.44 92.2074C105.698 90.3825 106.086 87.6247 106.187 85.1083C106.338 81.4041 107.974 78.0037 108.169 77.6132C108.095 76.9488 107.164 68.2931 107.695 63.6968C107.86 62.2732 108.286 60.6164 108.965 58.7724C108.987 58.7155 109.042 58.6802 109.107 58.6829L123.171 60.0388C123.232 60.0442 123.281 60.0876 123.292 60.1445C123.415 60.7194 123.494 61.1994 123.533 61.5709C123.765 63.9599 122.807 74.5273 122.742 75.2622C122.807 75.4954 123.305 77.3176 123.453 79.5927C123.544 80.9702 124.51 84.8805 125.287 88.0233C125.914 90.5615 126.412 92.5681 126.412 93.0237C126.412 94.3632 126.064 95.1008 125.432 95.1008C125.087 95.1008 124.726 94.8296 124.345 94.5449C123.954 94.2521 123.549 93.9456 123.177 93.9456C123.007 93.9456 122.832 93.9565 122.662 93.9673C122.022 94.008 121.36 94.0487 121.07 93.4765C120.905 93.1538 121.034 92.7037 121.182 92.183C121.357 91.5621 121.554 90.8597 121.305 90.2415C120.823 89.0483 117.082 79.0368 116.598 77.5183C116.313 76.6207 116.28 72.8352 116.25 69.4944C116.231 67.3088 116.215 65.2479 116.119 64.8385C116.04 64.5022 115.963 64.467 115.963 64.467C115.919 64.4751 115.807 64.6324 115.744 64.7815C115.741 64.7924 115.736 64.8005 115.73 64.8086L115.333 65.3591C114.983 65.8445 113.073 76.7834 112.898 79.2944C112.808 80.5743 111.954 83.2535 111.198 85.6181C110.596 87.5 110.03 89.2788 109.959 90.0001C109.879 90.8191 109.879 91.5512 109.879 92.1424C109.879 92.7498 109.879 93.2297 109.797 93.5633C109.677 94.0433 109.124 93.9755 108.538 93.905C108.141 93.8562 107.693 93.8019 107.315 93.8968C106.825 94.0189 106.51 94.3985 106.256 94.7049C106.048 94.9544 105.873 95.1686 105.651 95.1686ZM109.187 58.965C108.538 60.7492 108.128 62.3518 107.966 63.7267C107.419 68.4558 108.432 77.5318 108.442 77.624C108.445 77.6511 108.44 77.6783 108.429 77.7C108.41 77.7352 106.614 81.2604 106.458 85.1191C106.357 87.6491 105.969 90.415 105.711 92.2454C105.588 93.1132 105.484 93.8616 105.503 93.9755C105.533 94.0975 105.525 94.2521 105.514 94.3985C105.495 94.7266 105.506 94.8703 105.635 94.8947C105.73 94.911 105.886 94.7212 106.04 94.5368C106.302 94.2168 106.664 93.7802 107.244 93.6365C107.673 93.5308 108.147 93.5877 108.566 93.6392C109.124 93.707 109.466 93.7341 109.526 93.5009C109.603 93.2026 109.603 92.7362 109.603 92.1478C109.603 91.5539 109.603 90.8136 109.682 89.9812C109.753 89.23 110.301 87.5217 110.933 85.5421C111.683 83.1938 112.534 80.531 112.621 79.2836C112.758 77.3095 114.649 65.8445 115.109 65.2072L115.498 64.6676C115.555 64.5348 115.73 64.1849 115.988 64.2012C116.228 64.2202 116.33 64.5429 116.384 64.7815C116.486 65.2181 116.502 67.1054 116.524 69.4944C116.551 72.6508 116.584 76.58 116.858 77.4369C117.342 78.9528 121.078 88.9507 121.559 90.1411C121.844 90.8462 121.622 91.6271 121.447 92.2563C121.321 92.7037 121.201 93.1267 121.319 93.3572C121.527 93.7694 122.047 93.7368 122.649 93.6989C122.827 93.688 123.004 93.6772 123.182 93.6772C123.648 93.6772 124.088 94.0107 124.515 94.3307C124.857 94.5883 125.183 94.8324 125.435 94.8324C126.072 94.8324 126.141 93.5687 126.141 93.0264C126.141 92.6034 125.599 90.4096 125.024 88.0911C124.203 84.7747 123.275 81.0163 123.182 79.6144C123.026 77.2173 122.479 75.3354 122.474 75.3164C122.468 75.3001 122.468 75.2838 122.468 75.2676C122.479 75.1537 123.497 64.0006 123.262 61.6007C123.229 61.259 123.158 60.8225 123.048 60.3018L109.187 58.965Z" fill="#3F4553"/>
<path d="M124.904 41.6236C122.92 39.579 120.219 39.9722 119.425 39.4218C118.845 39.0204 118.943 36.024 119.036 34.4323L118.525 33.955L116.168 36.0376C116.168 36.0376 115.851 38.6354 115.613 39.1858C115.375 39.7363 112.435 39.8936 111.166 40.3654C109.915 40.8291 107.285 43.0446 105.613 44.6119L107.258 46.5155C108.749 45.4525 110.372 44.536 110.372 44.536C110.372 44.536 111.565 50.3905 111.724 51.0223C111.883 51.6514 111.721 52.7009 111.721 52.9368C111.721 53.1103 109.901 56.2911 108.727 59.8733C111.004 60.9118 115.487 62.0914 123.338 61.1532C122.933 58.4849 121.092 52.9341 121.092 52.9341L122.52 45.1651C122.52 45.1651 123.894 45.9325 125.366 46.9521L127.638 44.7773C126.669 43.5571 125.659 42.4019 124.904 41.6236Z" fill="#9776A5"/>
<path d="M117.928 61.6305C113.385 61.6305 110.459 60.8089 108.672 59.9927C108.609 59.9628 108.579 59.8923 108.599 59.8272C109.455 57.2159 110.662 54.7971 111.242 53.6365C111.42 53.2812 111.573 52.9721 111.587 52.9125C111.584 52.8718 111.595 52.766 111.606 52.6277C111.644 52.2074 111.707 51.5078 111.592 51.0495C111.45 50.4801 110.484 45.7618 110.276 44.7449C109.827 45.0052 108.536 45.7726 107.34 46.6214C107.282 46.662 107.203 46.6539 107.156 46.5997L105.512 44.6988C105.465 44.6445 105.468 44.5632 105.522 44.5117C106.962 43.1613 109.759 40.7397 111.122 40.2354C111.658 40.0374 112.471 39.8937 113.259 39.7554C114.203 39.59 115.38 39.3839 115.49 39.129C115.717 38.6029 116.031 36.0431 116.034 36.0187C116.037 35.9861 116.053 35.9563 116.078 35.9346L118.434 33.8521C118.486 33.806 118.568 33.806 118.62 33.8548L119.132 34.332C119.162 34.3591 119.179 34.3998 119.176 34.4378C118.979 37.7243 119.217 39.11 119.507 39.308C119.745 39.4734 120.219 39.552 120.769 39.6442C121.984 39.8476 123.645 40.1269 125.005 41.5288C125.796 42.3423 126.819 43.5246 127.747 44.6934C127.791 44.7476 127.786 44.8262 127.736 44.875L125.465 47.0498C125.418 47.0959 125.344 47.1013 125.292 47.0634C124.138 46.2634 123.035 45.6153 122.624 45.3794L121.237 52.926C121.39 53.3897 123.095 58.5907 123.478 61.1343C123.483 61.1695 123.475 61.2075 123.451 61.2373C123.426 61.2671 123.396 61.2861 123.358 61.2888C121.332 61.5275 119.529 61.6305 117.928 61.6305ZM108.897 59.7974C111.291 60.8604 115.689 61.9098 123.182 61.0339C122.745 58.3575 120.982 53.0291 120.963 52.9748C120.955 52.9531 120.955 52.9314 120.957 52.907L122.386 45.1381C122.394 45.0947 122.422 45.0594 122.463 45.0404C122.504 45.0215 122.55 45.0242 122.589 45.0459C122.602 45.054 123.927 45.7943 125.353 46.7759L127.454 44.7639C126.554 43.6358 125.569 42.5023 124.805 41.7159C123.508 40.3791 121.896 40.1079 120.719 39.9099C120.112 39.8069 119.633 39.7283 119.346 39.5276C118.872 39.1995 118.719 37.502 118.897 34.4812L118.525 34.1314L116.3 36.0973C116.253 36.4742 115.968 38.706 115.741 39.232C115.58 39.6035 114.71 39.7744 113.306 40.0184C112.531 40.154 111.727 40.295 111.215 40.4848C110.085 40.9051 107.641 42.9009 105.802 44.6147L107.282 46.3258C108.735 45.3008 110.29 44.4195 110.303 44.4113C110.342 44.3896 110.388 44.3869 110.429 44.4059C110.47 44.4249 110.498 44.4601 110.506 44.5035C110.517 44.5632 111.702 50.3635 111.858 50.9817C111.984 51.4834 111.918 52.2128 111.88 52.6494C111.869 52.7769 111.858 52.8745 111.858 52.9287C111.858 53.0019 111.806 53.1104 111.486 53.7531C110.919 54.8974 109.745 57.2484 108.897 59.7974Z" fill="#3F4553"/>
<path d="M121.037 39.8283C120.317 39.7036 119.732 39.6303 119.425 39.4188C118.845 39.0175 118.943 36.0211 119.037 34.4293L118.525 33.9521L116.168 36.0347C116.168 36.0347 115.851 38.6324 115.613 39.1829C115.52 39.3944 115.025 39.549 114.381 39.6846C114.91 41.2573 116.07 44.0721 117.594 44.0721C119.078 44.0748 120.386 41.4228 121.037 39.8283Z" fill="#FED9CE"/>
<path d="M117.594 44.2106C115.993 44.2106 114.814 41.404 114.25 39.7282C114.239 39.6902 114.242 39.6523 114.261 39.617C114.28 39.5845 114.313 39.5601 114.351 39.5519C115.219 39.3703 115.446 39.2211 115.487 39.1289C115.714 38.6028 116.029 36.043 116.032 36.0186C116.034 35.9861 116.051 35.9563 116.075 35.9346L118.432 33.852C118.484 33.8059 118.566 33.8059 118.618 33.8547L119.13 34.332C119.16 34.3591 119.176 34.3998 119.173 34.4377C118.976 37.7243 119.214 39.1099 119.505 39.3079C119.743 39.4733 120.219 39.5519 120.769 39.6441L121.059 39.6929C121.1 39.7011 121.136 39.7255 121.155 39.7607C121.174 39.796 121.177 39.8394 121.163 39.8773C120.356 41.8542 119.08 44.2106 117.594 44.2106ZM114.559 39.7851C115.027 41.141 116.166 43.9367 117.594 43.9367C118.949 43.9367 120.189 41.4962 120.845 39.9316L120.725 39.9099C120.118 39.8068 119.636 39.7282 119.349 39.5275C118.875 39.1994 118.722 37.5019 118.9 34.4811L118.528 34.1313L116.303 36.0973C116.256 36.4742 115.971 38.7059 115.744 39.232C115.643 39.457 115.298 39.6197 114.559 39.7851Z" fill="#3F4553"/>
<path d="M119.02 34.7169C118.727 34.7358 118.404 34.8091 118.177 34.866C117.849 34.9474 117.214 35.2917 116.609 35.647L116.171 36.0347C116.171 36.0347 116.042 37.0923 115.886 38.0007C116.434 37.8055 118.024 37.1899 118.971 36.2951C118.973 35.7364 118.995 35.186 119.02 34.7169Z" fill="#C6FF00"/>
<path d="M119.02 34.7169C118.727 34.7358 118.404 34.8091 118.177 34.866C117.849 34.9474 117.214 35.2917 116.609 35.647L116.171 36.0347C116.171 36.0347 116.042 37.0923 115.886 38.0007C116.434 37.8055 118.024 37.1899 118.971 36.2951C118.973 35.7364 118.995 35.186 119.02 34.7169Z" fill="#BFB2AA"/>
<path d="M115.928 75.0885C124.62 75.0885 131.666 68.1065 131.666 59.4937C131.666 50.8809 124.62 43.8988 115.928 43.8988C107.235 43.8988 100.189 50.8809 100.189 59.4937C100.189 68.1065 107.235 75.0885 115.928 75.0885Z" fill="#FA6E5A"/>
<path d="M121.102 72.4582C112.411 72.4582 105.364 65.4756 105.364 56.8633C105.364 51.8494 107.755 47.3914 111.466 44.5388C104.948 46.4451 100.189 52.4162 100.189 59.4937C100.189 68.1059 107.236 75.0885 115.927 75.0885C119.559 75.0885 122.9 73.8656 125.563 71.8209C124.148 72.2331 122.651 72.4582 121.102 72.4582Z" fill="#E3604D"/>
<path d="M104.885 53.7234C104.608 53.7234 104.356 53.5335 104.293 53.2569C104.217 52.9315 104.422 52.6089 104.75 52.5356L109.091 51.5459L106.584 50.7703C106.264 50.67 106.086 50.3338 106.184 50.0165C106.283 49.6992 106.625 49.523 106.945 49.6206L111.595 51.0605C111.858 51.1418 112.033 51.3859 112.022 51.6598C112.011 51.9309 111.819 52.1614 111.551 52.2238L105.021 53.7125C104.975 53.7206 104.928 53.7234 104.885 53.7234Z" fill="#3F4553"/>
<path d="M126.641 53.7234C126.595 53.7234 126.546 53.718 126.499 53.7071L120.273 52.2184C120.005 52.1533 119.816 51.9201 119.808 51.649C119.8 51.3778 119.978 51.1337 120.243 51.0551L125.128 49.6152C125.451 49.5203 125.788 49.702 125.883 50.022C125.979 50.3419 125.796 50.6755 125.476 50.7704L122.755 51.573L126.787 52.5357C127.112 52.6143 127.315 52.9397 127.235 53.2624C127.164 53.539 126.915 53.7234 126.641 53.7234Z" fill="#3F4553"/>
<path d="M103.905 56.2724C105.492 63.0245 110.273 67.9299 115.927 67.9299C121.581 67.9299 126.365 63.0245 127.949 56.2724L125.861 55.928C119.181 54.8216 112.378 54.8352 105.703 55.9687L103.905 56.2724Z" fill="#3F4553"/>
<path d="M124.124 63.339C122.049 61.975 119.189 61.1317 116.026 61.1317C112.802 61.1317 109.893 62.0129 107.81 63.423C110.002 65.8608 112.832 67.3387 115.927 67.3387C119.061 67.3387 121.921 65.8283 124.124 63.339Z" fill="#4E5567"/>
<path d="M113.867 29.4536C113.867 29.4536 113.311 31.105 112.835 32.0514C112.359 32.9951 113.073 35.9074 113.629 36.7724C114.184 37.6375 115.216 37.4802 115.613 37.4016C116.01 37.3229 117.756 36.222 118.393 35.5929C119.028 34.9638 119.346 34.6492 119.346 34.6492C119.346 34.6492 119.663 34.6492 119.981 34.0201C120.298 33.391 119.028 31.9755 117.917 30.2427C116.806 28.5127 116.33 28.5913 116.33 28.5913L113.867 29.4536Z" fill="#FED9CE"/>
<path d="M115.016 37.5996C114.193 37.5996 113.749 37.2091 113.514 36.843C112.942 35.9509 112.206 32.9951 112.712 31.9891C113.18 31.0644 113.733 29.4265 113.738 29.4103C113.752 29.3696 113.782 29.3398 113.823 29.3262L116.286 28.4612C116.401 28.4422 116.932 28.4503 118.035 30.1695C118.33 30.6305 118.634 31.0617 118.927 31.4793C119.77 32.6806 120.378 33.5483 120.107 34.0798C119.833 34.6221 119.543 34.7469 119.414 34.7767L118.492 35.6905C117.841 36.3359 116.067 37.4531 115.643 37.5372C115.41 37.5806 115.202 37.5996 115.016 37.5996ZM113.976 29.5594C113.87 29.874 113.385 31.2624 112.958 32.1111C112.504 33.0087 113.227 35.8939 113.747 36.6993C114.1 37.2497 114.721 37.4396 115.591 37.2687C115.933 37.2009 117.663 36.1271 118.3 35.4953L119.253 34.5516C119.277 34.5272 119.313 34.5109 119.349 34.5109C119.346 34.5109 119.595 34.4838 119.86 33.9578C120.057 33.57 119.428 32.6724 118.7 31.6339C118.407 31.2135 118.103 30.7797 117.802 30.316C116.883 28.8842 116.426 28.7405 116.352 28.7269L113.976 29.5594Z" fill="#3F4553"/>
<path d="M114.425 33.3775C114.408 33.3775 114.392 33.3748 114.376 33.3694C113.546 33.0521 113.62 32.8379 113.642 32.7701C113.697 32.6047 114.335 31.6719 114.529 31.3899C114.573 31.3275 114.658 31.3112 114.718 31.3546C114.781 31.398 114.797 31.4821 114.753 31.5417C114.389 32.0705 113.998 32.6617 113.913 32.8244C113.982 32.8949 114.225 33.0223 114.471 33.1172C114.543 33.1443 114.578 33.223 114.551 33.2935C114.532 33.3423 114.48 33.3775 114.425 33.3775Z" fill="#3F4553"/>
<path d="M117.197 32.1382C117.145 32.1382 117.096 32.1083 117.074 32.0595C116.948 31.7938 116.784 31.6257 116.584 31.5579C116.316 31.4684 116.067 31.585 116.064 31.585C115.996 31.6175 115.914 31.5904 115.881 31.5253C115.848 31.4575 115.875 31.3762 115.941 31.3436C115.955 31.3355 116.294 31.1728 116.674 31.303C116.945 31.3952 117.164 31.6121 117.323 31.9456C117.356 32.0134 117.326 32.0948 117.257 32.1273C117.236 32.1327 117.216 32.1382 117.197 32.1382Z" fill="#3F4553"/>
<path d="M114.261 31.3844C114.217 31.3844 114.176 31.3654 114.149 31.3275C114.146 31.322 114.017 31.1512 113.826 31.1295C113.703 31.116 113.566 31.1729 113.426 31.2949C113.369 31.3437 113.284 31.341 113.232 31.2841C113.183 31.2271 113.185 31.1431 113.243 31.0915C113.443 30.9126 113.648 30.8367 113.859 30.8583C114.173 30.8936 114.365 31.1566 114.37 31.1675C114.414 31.2298 114.398 31.3139 114.337 31.3573C114.316 31.3763 114.288 31.3844 114.261 31.3844Z" fill="#3F4553"/>
<path d="M117.633 31.2759C117.575 31.2759 117.523 31.2407 117.504 31.1837C117.121 30.0882 116.445 30.2401 116.418 30.2482C116.344 30.2645 116.27 30.2238 116.251 30.1506C116.231 30.0774 116.275 30.0042 116.346 29.9852C116.355 29.9825 117.291 29.752 117.761 31.0942C117.786 31.1647 117.748 31.2434 117.676 31.2678C117.663 31.2732 117.646 31.2759 117.633 31.2759Z" fill="#3F4553"/>
<path d="M113.609 30.7361C113.587 30.7361 113.568 30.7307 113.549 30.7225C113.481 30.69 113.453 30.6086 113.489 30.5408C113.642 30.2344 113.847 30.0527 114.099 29.9958C114.482 29.909 114.822 30.1612 114.835 30.1721C114.895 30.2182 114.906 30.3022 114.86 30.3619C114.813 30.4215 114.728 30.4324 114.668 30.3863C114.666 30.3836 114.414 30.1992 114.157 30.2588C113.99 30.2968 113.847 30.4324 113.732 30.6602C113.708 30.709 113.658 30.7361 113.609 30.7361Z" fill="#3F4553"/>
<path d="M113.935 33.9957C113.935 33.9957 114.912 34.3727 116.163 33.673C116.163 33.673 115.512 34.6411 114.751 34.7496C113.99 34.8553 113.935 33.9957 113.935 33.9957Z" fill="#3F4553"/>
<path d="M105.093 45.1922C105.093 45.1922 101.653 48.053 101.103 49.8943C100.553 51.7355 100.966 55.9603 100.898 57.2538C100.829 58.5472 101.724 59.979 102.135 60.2529C102.548 60.5268 102.616 60.0495 102.548 59.5722C102.479 59.095 102.479 56.6409 102.479 56.6409C102.479 56.6409 103.098 58.4116 103.166 58.0727C103.235 57.731 103.235 57.1182 102.961 56.1637C102.687 55.2091 101.998 53.8479 102.066 53.574C102.135 53.3001 104.335 49.2136 104.68 47.9174" fill="#FED9CE"/>
<path d="M102.345 60.4672C102.269 60.4672 102.173 60.4401 102.058 60.3642C101.626 60.0795 100.687 58.6043 100.758 57.2458C100.777 56.8607 100.755 56.2018 100.728 55.4371C100.665 53.6338 100.577 51.1635 100.969 49.8564C101.524 47.9989 104.858 45.2059 105 45.0893C105.057 45.0405 105.145 45.0486 105.191 45.1056C105.241 45.1625 105.233 45.2493 105.175 45.2954C105.142 45.3225 101.762 48.1535 101.229 49.9324C100.851 51.1987 100.936 53.6419 100.999 55.4289C101.026 56.199 101.048 56.8661 101.029 57.262C100.963 58.504 101.825 59.8896 102.206 60.1418C102.285 60.1933 102.34 60.2042 102.356 60.1961C102.408 60.1635 102.46 59.9547 102.408 59.5941C102.34 59.1141 102.337 56.7468 102.337 56.6438C102.337 56.5787 102.386 56.5217 102.452 56.5109C102.518 56.5 102.583 56.538 102.605 56.6004C102.75 57.018 102.934 57.4871 103.062 57.7637C103.076 57.4464 103.038 56.942 102.827 56.2045C102.709 55.7923 102.507 55.2933 102.329 54.8541C102.033 54.1219 101.883 53.7314 101.929 53.5443C101.954 53.4467 102.132 53.0915 102.531 52.2997C103.199 50.9736 104.313 48.7555 104.546 47.8878C104.565 47.8145 104.641 47.7712 104.713 47.7901C104.786 47.8091 104.83 47.8823 104.811 47.9555C104.573 48.8504 103.492 50.998 102.778 52.419C102.49 52.9911 102.219 53.528 102.197 53.6094C102.173 53.7287 102.403 54.2955 102.586 54.751C102.767 55.1984 102.969 55.7028 103.092 56.1285C103.402 57.2051 103.358 57.8261 103.3 58.0999C103.273 58.2328 103.177 58.2491 103.147 58.2518C103.065 58.2572 102.953 58.2653 102.619 57.4166C102.624 58.1759 102.641 59.2578 102.682 59.5507C102.72 59.811 102.748 60.272 102.504 60.4211C102.468 60.4482 102.414 60.4672 102.345 60.4672Z" fill="#3F4553"/>
<path d="M102.321 60.3641C102.266 60.3641 102.211 60.3288 102.192 60.2746C102.187 60.2638 101.749 59.0571 101.532 57.5494C101.522 57.4762 101.574 57.4057 101.647 57.3948C101.721 57.384 101.792 57.4355 101.803 57.5087C102.017 58.9866 102.447 60.1661 102.449 60.1797C102.474 60.2502 102.438 60.3288 102.367 60.3532C102.351 60.3614 102.334 60.3641 102.321 60.3641Z" fill="#3F4553"/>
<path d="M101.831 60.0388C101.782 60.0388 101.732 60.0117 101.708 59.9629C101.688 59.9277 101.262 59.0681 100.988 57.6607C100.974 57.5875 101.023 57.517 101.097 57.5007C101.171 57.4872 101.242 57.5332 101.259 57.6092C101.524 58.9786 101.951 59.8327 101.954 59.8409C101.987 59.9087 101.959 59.99 101.894 60.0226C101.872 60.0361 101.85 60.0388 101.831 60.0388Z" fill="#3F4553"/>
<path d="M127.772 45.1922C127.772 45.1922 131.212 48.053 131.762 49.8943C132.312 51.7355 131.899 55.9603 131.967 57.2538C132.036 58.5472 131.141 59.979 130.73 60.2529C130.32 60.5268 130.249 60.0495 130.317 59.5722C130.386 59.095 130.386 56.6409 130.386 56.6409C130.386 56.6409 129.767 58.4116 129.699 58.0727C129.63 57.7337 129.63 57.1182 129.904 56.1637C130.18 55.2091 130.867 53.8479 130.799 53.574C130.73 53.3001 128.53 49.2136 128.185 47.9174" fill="#FED9CE"/>
<path d="M130.52 60.4672C130.451 60.4672 130.399 60.4455 130.358 60.4211C130.118 60.272 130.145 59.811 130.181 59.5507C130.222 59.2578 130.238 58.1732 130.243 57.4166C129.91 58.2626 129.803 58.2572 129.715 58.2518C129.685 58.2491 129.589 58.2328 129.562 58.0999C129.507 57.8261 129.461 57.2051 129.77 56.1285C129.893 55.7028 130.096 55.1984 130.276 54.751C130.46 54.2955 130.687 53.7287 130.662 53.6094C130.64 53.5308 130.369 52.9884 130.082 52.4163C129.368 50.9953 128.287 48.8477 128.051 47.9555C128.032 47.8823 128.076 47.8091 128.15 47.7901C128.221 47.7712 128.298 47.8145 128.317 47.8878C128.547 48.7528 129.663 50.9736 130.328 52.2969C130.728 53.0915 130.906 53.4467 130.93 53.5443C130.977 53.7314 130.826 54.1219 130.531 54.8541C130.353 55.2933 130.153 55.7923 130.033 56.2045C129.819 56.942 129.781 57.4464 129.797 57.7637C129.926 57.4844 130.107 57.018 130.254 56.6004C130.276 56.538 130.339 56.5 130.408 56.5109C130.473 56.5217 130.523 56.5787 130.523 56.6438C130.523 56.7441 130.523 59.1114 130.451 59.5941C130.399 59.9547 130.451 60.1635 130.503 60.1961C130.52 60.2069 130.575 60.1961 130.654 60.1418C131.034 59.8896 131.896 58.504 131.831 57.262C131.809 56.8661 131.833 56.199 131.861 55.4289C131.924 53.6446 132.009 51.1987 131.631 49.9324C131.097 48.1535 127.72 45.3252 127.685 45.2954C127.627 45.2466 127.619 45.1625 127.668 45.1056C127.717 45.0486 127.802 45.0405 127.86 45.0893C128.002 45.2059 131.335 47.9989 131.891 49.8564C132.282 51.1635 132.195 53.6338 132.132 55.4371C132.104 56.2018 132.083 56.8634 132.102 57.2458C132.173 58.6043 131.234 60.0795 130.802 60.3642C130.69 60.4428 130.596 60.4672 130.52 60.4672Z" fill="#3F4553"/>
<path d="M130.525 60.2557C130.514 60.2557 130.503 60.2557 130.489 60.2502C130.416 60.2312 130.372 60.158 130.391 60.0848C130.396 60.0685 130.823 58.4144 130.823 57.3135C130.823 57.2376 130.884 57.1779 130.96 57.1779C131.037 57.1779 131.097 57.2376 131.097 57.3135C131.097 58.4497 130.676 60.0848 130.656 60.1526C130.643 60.215 130.585 60.2557 130.525 60.2557Z" fill="#3F4553"/>
<path d="M131.015 60.2015C130.999 60.2015 130.985 60.1987 130.968 60.1933C130.897 60.1689 130.862 60.0903 130.886 60.0198C130.892 60.0035 131.532 58.2545 131.532 57.5847C131.532 57.5088 131.592 57.4491 131.669 57.4491C131.746 57.4491 131.806 57.5088 131.806 57.5847C131.806 58.3006 131.171 60.0388 131.144 60.112C131.124 60.1689 131.07 60.2015 131.015 60.2015Z" fill="#3F4553"/>
<path d="M67.8676 103.016C80.2614 103.016 90.3086 100.674 90.3086 97.7851C90.3086 94.8962 80.2614 92.5543 67.8676 92.5543C55.4738 92.5543 45.4267 94.8962 45.4267 97.7851C45.4267 100.674 55.4738 103.016 67.8676 103.016Z" fill="#F4A17C"/>
<path d="M69.1619 103.018C82.2818 103.018 92.9176 100.683 92.9176 97.8032C92.9176 94.9232 82.2818 92.5885 69.1619 92.5885C56.042 92.5885 45.4063 94.9232 45.4063 97.8032C45.4063 100.683 56.042 103.018 69.1619 103.018Z" fill="#F4A17C"/>
<path d="M58.4378 94.149C58.4378 94.149 55.11 95.8817 54.4833 96.7793C53.8566 97.6769 54.6913 98.39 55.942 98.4768C57.1926 98.5636 62.3404 96.8471 62.8056 96.6247C63.2736 96.4024 62.9342 95.0547 62.5949 94.3605C62.2583 93.6636 58.4378 94.149 58.4378 94.149Z" fill="#E49621"/>
<path d="M56.0378 98.615C55.9995 98.615 55.9639 98.615 55.9311 98.6123C55.1019 98.5553 54.4478 98.2272 54.2207 97.7608C54.1112 97.5331 54.0455 97.1643 54.3685 96.7033C55.0088 95.7895 58.2354 94.1028 58.3722 94.0296C58.3859 94.0214 58.4023 94.016 58.4188 94.016C59.0728 93.932 62.3541 93.5577 62.7154 94.3007C62.9042 94.6885 63.0684 95.2173 63.1341 95.6484C63.2244 96.2477 63.1341 96.6165 62.8604 96.7467C62.4007 96.9663 57.4856 98.615 56.0378 98.615ZM58.479 94.2791C58.1916 94.4309 55.1703 96.0308 54.5929 96.8551C54.3931 97.1399 54.352 97.4056 54.467 97.6415C54.6503 98.0212 55.2196 98.2896 55.9503 98.3411C57.1818 98.4306 62.283 96.7223 62.7455 96.5026C62.8878 96.4348 62.9343 96.1311 62.8659 95.6891C62.8057 95.2824 62.6497 94.7834 62.4718 94.4173C62.2693 93.9997 60.0252 94.0865 58.479 94.2791Z" fill="#3F4553"/>
<path d="M62.9777 95.5236C61.6586 96.0958 58.0188 97.6387 56.7626 97.7987C55.7391 97.9289 54.7977 97.5465 54.2777 97.2726C54.1929 97.9262 54.9318 98.4061 55.9416 98.4766C57.1923 98.5634 62.34 96.8469 62.8052 96.6246C63.0625 96.4998 63.0734 96.0334 62.9777 95.5236Z" fill="#F1BD54"/>
<path d="M56.0375 98.615C55.9992 98.615 55.9636 98.615 55.9308 98.6123C55.2302 98.5635 54.6555 98.3276 54.3544 97.9642C54.182 97.7554 54.1081 97.5114 54.1382 97.2565C54.1437 97.2131 54.1711 97.1724 54.2121 97.1534C54.2504 97.1317 54.2997 97.1317 54.338 97.1534C54.806 97.4002 55.7419 97.7934 56.7436 97.6659C57.997 97.5059 61.7873 95.8925 62.9203 95.4017C62.9586 95.3854 63.0024 95.3854 63.038 95.4071C63.0736 95.4261 63.1009 95.4613 63.1091 95.502C63.2378 96.1772 63.1529 96.6084 62.8628 96.7467C62.4003 96.9663 57.4852 98.615 56.0375 98.615ZM54.4174 97.4951C54.4393 97.6008 54.4885 97.6985 54.5652 97.7934C54.8142 98.0944 55.3314 98.2977 55.9472 98.3411C57.1787 98.4306 62.2799 96.7223 62.7424 96.5026C62.882 96.4348 62.9258 96.142 62.8683 95.7189C61.3221 96.386 57.986 97.7798 56.7764 97.9344C55.8377 98.051 54.9565 97.7473 54.4174 97.4951Z" fill="#3F4553"/>
<path d="M74.5546 94.149C74.5546 94.149 77.8824 95.8817 78.5091 96.7793C79.1358 97.6769 78.3011 98.39 77.0505 98.4768C75.7998 98.5636 70.6521 96.8471 70.1868 96.6247C69.7189 96.4024 70.0582 95.0547 70.3976 94.3605C70.7369 93.6636 74.5546 94.149 74.5546 94.149Z" fill="#E49621"/>
<path d="M76.9574 98.615C75.507 98.615 70.5946 96.9663 70.1293 96.7467C69.8584 96.6165 69.7654 96.2478 69.8557 95.6485C69.9214 95.2173 70.0856 94.6885 70.2744 94.3008C70.6356 93.5551 73.9169 93.932 74.571 94.016C74.5874 94.0188 74.6038 94.0242 74.6175 94.0296C74.7544 94.1001 77.9837 95.7868 78.6213 96.7033C78.9443 97.1643 78.8813 97.5331 78.7691 97.7609C78.542 98.23 77.8879 98.5554 77.0587 98.6123C77.0286 98.6123 76.993 98.615 76.9574 98.615ZM72.1162 94.1191C71.287 94.1191 70.6274 94.2004 70.5207 94.4174C70.3428 94.7834 70.1868 95.2824 70.1266 95.6891C70.0582 96.1311 70.1047 96.4349 70.247 96.5026C70.6986 96.7196 75.5726 98.3466 76.9465 98.3466C76.982 98.3466 77.0121 98.3466 77.0423 98.3439C77.7729 98.2924 78.3394 98.0239 78.5255 97.6443C78.6405 97.4084 78.5967 97.1426 78.3997 96.8579C77.8249 96.0335 74.8009 94.4336 74.5135 94.2818C73.7746 94.1869 72.8743 94.1191 72.1162 94.1191Z" fill="#3F4553"/>
<path d="M70.0167 95.5237C71.3358 96.0959 74.9756 97.6388 76.2317 97.7988C77.2552 97.929 78.1967 97.5467 78.7166 97.2728C78.8015 97.9263 78.0626 98.4063 77.0527 98.4768C75.802 98.5635 70.6543 96.847 70.1891 96.6247C69.9291 96.4999 69.9181 96.0335 70.0167 95.5237Z" fill="#F1BD54"/>
<path d="M76.957 98.6151C75.5065 98.6151 70.5942 96.9664 70.1289 96.7467C69.8389 96.6084 69.754 96.1773 69.8826 95.5021C69.8908 95.4614 69.9155 95.4261 69.9538 95.4072C69.9921 95.3882 70.0332 95.3855 70.0715 95.4017C71.2045 95.8925 74.9975 97.506 76.2482 97.666C77.2498 97.7934 78.1858 97.4002 78.6538 97.1535C78.6948 97.1318 78.7413 97.1318 78.7796 97.1535C78.8207 97.1752 78.8481 97.2131 78.8535 97.2565C78.8864 97.5114 78.8125 97.7555 78.6373 97.9643C78.3363 98.3276 77.7616 98.5635 77.061 98.6124C77.0282 98.6124 76.9926 98.6151 76.957 98.6151ZM70.1235 95.719C70.0633 96.142 70.1098 96.4349 70.2494 96.5027C70.7009 96.7196 75.575 98.3439 76.9488 98.3466C76.9844 98.3466 77.0145 98.3466 77.0446 98.3439C77.6603 98.3005 78.1776 98.0944 78.4266 97.7961C78.5032 97.7039 78.5525 97.6036 78.5744 97.4979C78.038 97.75 77.1595 98.0565 76.2126 97.9372C75.003 97.7799 71.6697 96.3861 70.1235 95.719Z" fill="#3F4553"/>
<path d="M60.0851 60.2176C60.0851 60.2176 57.0556 73.2066 56.6341 75.0613C56.2127 76.9161 55.9034 79.0014 56.396 80.2488C56.8887 81.4962 58.4677 93.7367 58.4677 93.7367L63.0052 94.9624C63.0052 94.9624 63.0627 87.0985 62.9121 84.0072C62.7616 80.9159 62.5865 77.0083 62.5865 77.0083L67.4085 65.1013L68.2049 66.1453L71.8146 76.8185L69.6909 94.7075L74.0067 93.5876C74.0067 93.5876 77.7149 82.2093 78.3198 79.842C78.9218 77.4747 79.2119 75.883 78.7412 74.7956C78.2705 73.7082 75.2163 61.5734 75.2163 61.5734L60.0851 60.2176Z" fill="#3F4553"/>
<path d="M63.0025 95.0953C62.9915 95.0953 62.9778 95.0926 62.9669 95.0899L58.4294 93.8642C58.3774 93.8506 58.3364 93.8045 58.3309 93.7503C58.3145 93.6283 56.7464 81.5125 56.2675 80.2949C55.857 79.2509 55.9308 77.529 56.5001 75.0288C56.9161 73.1957 59.921 60.3153 59.9511 60.1851C59.9675 60.12 60.0277 60.0739 60.0961 60.0794L75.2218 61.4352C75.2793 61.4406 75.3286 61.4813 75.3423 61.5382C75.3724 61.6603 78.3992 73.6757 78.8617 74.7387C79.3351 75.8288 79.0806 77.3826 78.4457 79.8719C77.8491 82.2175 74.1682 93.5117 74.1326 93.6256C74.119 93.6689 74.0834 93.7042 74.0369 93.715L69.7211 94.835C69.6773 94.8458 69.6308 94.835 69.5952 94.8051C69.5596 94.7753 69.5432 94.7319 69.5487 94.6858L71.6696 76.8294L68.0763 66.205L67.4387 65.3698L62.7233 77.0301C62.7398 77.3934 62.904 81.0623 63.049 83.9991C63.1995 87.0579 63.142 94.8838 63.142 94.9624C63.142 95.0058 63.1229 95.0438 63.0873 95.0682C63.0627 95.0872 63.0326 95.0953 63.0025 95.0953ZM58.5909 93.6283L62.8684 94.7834C62.8766 93.6011 62.9122 86.8057 62.7753 84.0099C62.6248 80.9186 62.4497 77.0111 62.4497 77.0111C62.4497 76.9921 62.4524 76.9731 62.4606 76.9541L67.2827 65.0472C67.3018 65.0011 67.3429 64.9685 67.3921 64.9631C67.4441 64.9577 67.4907 64.9766 67.5208 65.0173L68.3171 66.0613C68.3254 66.0722 68.3336 66.0857 68.3363 66.0993L71.946 76.7725C71.9515 76.7914 71.9542 76.8104 71.9515 76.8321L69.8497 94.5231L73.9 93.471C74.2147 92.5056 77.6165 82.044 78.1857 79.8041C78.8042 77.3745 79.056 75.8613 78.6154 74.8445C78.1611 73.8005 75.4134 62.9103 75.1069 61.6955L60.1946 60.3587C59.8936 61.6521 57.1651 73.3476 56.771 75.0858C56.2155 77.5317 56.1361 79.2021 56.5274 80.1946C56.9982 81.404 58.4349 92.427 58.5909 93.6283Z" fill="#3F4553"/>
<path d="M71.1437 91.9903C71.1383 91.9903 71.1328 91.9903 71.1273 91.9903C71.0534 91.9822 70.9987 91.9144 71.0069 91.8385C71.0233 91.7083 72.586 78.7953 72.6681 78.074C72.7119 77.7052 72.7228 77.594 72.9773 77.5805C73.0977 77.5751 73.3523 77.5615 73.9105 77.19C74.0446 77.1005 74.1322 77.0354 74.187 76.9921C74.1131 76.9921 74.02 76.9948 73.9406 76.9975C73.6013 77.0083 73.1361 77.0246 72.8049 76.8809C72.0359 76.5473 70.0053 69.8224 69.6057 68.4747C69.5838 68.4042 69.6249 68.3282 69.6988 68.3065C69.7699 68.2849 69.8465 68.3255 69.8684 68.3987C71.0096 72.2439 72.4656 76.4362 72.9144 76.6314C73.1908 76.7507 73.6205 76.7372 73.9324 76.7263C74.2909 76.7155 74.4907 76.7073 74.5455 76.87C74.592 77.011 74.4798 77.1385 74.0665 77.4151C73.4453 77.83 73.1415 77.8462 72.9937 77.8517C72.9883 77.8517 72.9828 77.8517 72.9773 77.8517C72.9664 77.9005 72.9554 77.9954 72.9445 78.1038C72.8624 78.8279 71.297 91.7409 71.2806 91.871C71.2724 91.9388 71.2122 91.9903 71.1437 91.9903Z" fill="#4E5567"/>
<path d="M62.7394 89.1541C62.671 89.1541 62.6108 89.1026 62.6026 89.0348L62.4877 88.0668C62.4795 87.9935 62.5342 87.9258 62.6081 87.9176C62.682 87.9095 62.7504 87.9637 62.7586 88.0369L62.8735 89.005C62.8817 89.0782 62.827 89.146 62.7531 89.1541C62.7504 89.1541 62.7449 89.1541 62.7394 89.1541Z" fill="#4E5567"/>
<path d="M62.4577 86.7406C62.3893 86.7406 62.3291 86.6891 62.3208 86.6213L61.3001 77.9358C61.1194 77.8979 60.7007 77.8057 60.1506 77.6538C60.0521 77.6267 59.8441 77.5697 59.8359 77.407C59.825 77.2254 60.0412 77.1386 60.5174 76.9488C60.8868 76.8023 61.3493 76.6179 61.7708 76.3549C62.2743 76.0431 63.4703 73.4507 65.0493 69.2449C65.0767 69.1744 65.1533 69.1391 65.2245 69.1662C65.2956 69.1934 65.3312 69.2693 65.3038 69.3398C64.1544 72.3986 62.6328 76.138 61.9131 76.5854C61.4697 76.8593 60.9771 77.0572 60.6159 77.201C60.4599 77.2633 60.2902 77.3311 60.1835 77.3826C60.1944 77.3854 60.2054 77.3881 60.2191 77.3935C60.9498 77.5941 61.4424 77.6891 61.4478 77.6918C61.5053 77.7026 61.5518 77.7514 61.5573 77.8084L62.589 86.5915C62.5973 86.6647 62.5425 86.7325 62.4686 86.7406C62.4686 86.7406 62.4632 86.7406 62.4577 86.7406Z" fill="#4E5567"/>
<path d="M65.7006 68.0109C65.6842 68.0109 65.6705 68.0082 65.6541 68.0028C65.5829 67.9784 65.5473 67.8997 65.572 67.8292C65.7581 67.3194 65.8675 67.0076 65.8675 67.0076C65.8922 66.9371 65.9715 66.8991 66.0427 66.9235C66.1139 66.9479 66.1522 67.0266 66.1275 67.0971C66.1275 67.0971 66.0181 67.4089 65.832 67.9214C65.8101 67.9757 65.7581 68.0109 65.7006 68.0109Z" fill="#4E5567"/>
<path d="M69.2501 39.0825C69.2501 39.0825 61.9076 37.8867 58.9492 37.3606C55.9908 36.8346 53.4484 36.3383 53.4484 36.3383L52.1594 40.4302C52.1594 40.4302 58.0297 42.3881 59.5759 42.8463C61.1221 43.3046 61.7324 43.5541 61.7324 43.5541C61.7324 43.5541 61.9349 53.4327 61.3 55.5587C60.6651 57.6847 59.2365 61.9583 59.2365 61.9583L66.8008 66.156L68.3196 63.8348L68.4373 66.0285C68.4373 66.0285 70.8155 65.8902 72.9584 65.2096C75.1012 64.5289 76.3984 63.71 76.3984 63.71L74.6989 56.3126L77.0169 46.7702C77.0169 46.7702 88.6971 44.4706 88.7655 43.7249C88.834 42.9792 87.1591 40.2458 87.1591 40.2458L71.3328 39.2235L69.2501 39.0825Z" fill="#FFF9F1"/>
<path d="M66.8014 66.2944C66.7795 66.2944 66.7548 66.289 66.7357 66.2781L59.1714 62.0805C59.114 62.0479 59.0866 61.9801 59.1085 61.9205C59.1222 61.8771 60.5453 57.6252 61.172 55.5236C61.7604 53.5495 61.618 44.6471 61.5989 43.6492C61.3854 43.5678 60.7478 43.3346 59.5382 42.9767C58.0083 42.5238 52.1764 40.5796 52.119 40.5606C52.0478 40.5362 52.0095 40.4629 52.0314 40.3924L53.3204 36.3005C53.3423 36.2354 53.4079 36.1921 53.4764 36.2083C53.501 36.2137 56.0516 36.71 58.9744 37.2279C61.8616 37.7404 69.0153 38.9064 69.2671 38.9498L71.3443 39.0936L87.1706 40.1159C87.2144 40.1186 87.2554 40.143 87.2801 40.1809C87.4525 40.4657 88.9768 42.9767 88.9057 43.7441C88.8865 43.942 88.8537 44.3081 82.8986 45.6667C80.2796 46.2632 77.6359 46.7947 77.1324 46.8951L74.8418 56.3236L76.5331 63.6885C76.5467 63.7454 76.5221 63.8024 76.4728 63.8322C76.4592 63.8403 75.1346 64.6701 73 65.348C70.8654 66.026 68.4707 66.1724 68.4461 66.1724C68.4105 66.1751 68.375 66.1615 68.3476 66.1371C68.3202 66.1127 68.3038 66.0802 68.3011 66.0422L68.2053 64.2634L66.9163 66.2348C66.8889 66.2727 66.8451 66.2944 66.8014 66.2944ZM59.4013 61.8988L66.7548 65.9799L68.2025 63.7671C68.2354 63.7183 68.2956 63.6966 68.3531 63.7102C68.4105 63.7264 68.4516 63.7753 68.4543 63.8349L68.5665 65.8904C69.1029 65.8497 71.1062 65.6626 72.9151 65.0877C74.7159 64.5155 75.9255 63.8376 76.243 63.6505L74.5654 56.3507C74.5599 56.329 74.5599 56.31 74.5654 56.2883L76.8834 46.7459C76.897 46.6944 76.9381 46.6564 76.9901 46.6456C82.4416 45.5718 88.3747 44.178 88.6347 43.7061C88.6813 43.1611 87.5619 41.1788 87.0803 40.3843L71.3251 39.3674L69.2398 39.2237C69.2343 39.2237 69.2315 39.2237 69.2261 39.221C69.1522 39.2102 61.8507 38.017 58.9251 37.4991C56.3581 37.0435 54.0812 36.6042 53.542 36.5012L52.3297 40.3518C53.1945 40.6392 58.2136 42.3069 59.6148 42.7245C61.1501 43.1801 61.7604 43.4268 61.785 43.4377C61.8342 43.4594 61.8671 43.5055 61.8698 43.5597C61.878 43.9637 62.0641 53.4844 61.4319 55.605C60.86 57.5167 59.6285 61.2236 59.4013 61.8988Z" fill="#3F4553"/>
<path d="M66.6803 38.5729L66.3601 43.256L70.238 41.751L74.3595 44.902L74.2281 38.7465L66.6803 38.5729Z" fill="white"/>
<path d="M74.3598 45.0375C74.3297 45.0375 74.2996 45.0267 74.2749 45.0104L70.2164 41.9082L66.4097 43.3861C66.3659 43.4024 66.3166 43.3969 66.2783 43.3698C66.24 43.3427 66.2208 43.2966 66.2236 43.2505L66.5438 38.5675C66.5492 38.4942 66.6177 38.4427 66.6833 38.44L74.2284 38.6136C74.3023 38.6163 74.3598 38.6732 74.3625 38.7464L74.4939 44.9019C74.4939 44.9534 74.4665 45.0023 74.42 45.0267C74.4008 45.0321 74.3817 45.0375 74.3598 45.0375ZM70.2383 41.6154C70.2684 41.6154 70.2985 41.6262 70.3232 41.6425L74.2175 44.6199L74.0943 38.8793L66.8092 38.7112L66.5109 43.0526L70.1891 41.6262C70.2055 41.6181 70.2219 41.6154 70.2383 41.6154Z" fill="#3F4553"/>
<path d="M68.4703 63.5257C68.4676 63.5257 68.4621 63.5257 68.4594 63.5257C68.3828 63.5203 68.328 63.4552 68.3335 63.3793L69.8551 45.4442C69.8606 45.3683 69.929 45.3168 70.0029 45.3195C70.0795 45.3249 70.1342 45.39 70.1288 45.4659L68.6072 63.401C68.5989 63.4742 68.5387 63.5257 68.4703 63.5257Z" fill="#3F4553"/>
<path d="M77.0173 46.9085C76.9899 46.9085 76.9626 46.9003 76.9407 46.884C76.8859 46.8461 76.864 46.7756 76.8942 46.7132L78.725 42.8843C78.7578 42.8165 78.8399 42.7894 78.9084 42.8192C78.9768 42.8518 79.0069 42.9331 78.974 43.0009L77.5181 46.0434L80.8405 42.5209C80.8925 42.4667 80.9773 42.464 81.0348 42.5155C81.0895 42.567 81.0923 42.6511 81.0403 42.7081L77.1186 46.8678C77.0912 46.8949 77.0529 46.9085 77.0173 46.9085Z" fill="#3F4553"/>
<path d="M61.7328 43.6924C61.6918 43.6924 61.6507 43.6734 61.6234 43.6382L58.6185 39.728C58.5719 39.6683 58.5829 39.5842 58.6431 39.5381C58.7033 39.492 58.7881 39.5029 58.8347 39.5625L61.2101 42.6511L60.3809 40.6499C60.3535 40.5821 60.3864 40.5008 60.4548 40.4737C60.5232 40.4465 60.6053 40.4791 60.6327 40.5469L61.856 43.5026C61.8806 43.565 61.856 43.6382 61.7985 43.6707C61.7793 43.6843 61.7547 43.6924 61.7328 43.6924Z" fill="#3F4553"/>
<path d="M68.4595 38.9526L69.9893 45.4552L72.7315 39.3187L71.3303 39.2292L69.2477 39.0854C69.2504 39.0827 68.9521 39.0339 68.4595 38.9526Z" fill="white"/>
<path d="M69.9895 45.5907C69.9841 45.5907 69.9813 45.5907 69.9759 45.5907C69.9184 45.5853 69.8691 45.5446 69.8554 45.4877L68.3256 38.9851C68.3147 38.9417 68.3284 38.8956 68.3585 38.8603C68.3886 38.8251 68.4351 38.8115 68.4816 38.8197L69.2725 38.9498L72.7426 39.183C72.7864 39.1857 72.8275 39.2102 72.8521 39.2481C72.874 39.2861 72.8795 39.3322 72.8603 39.3729L70.1182 45.5094C70.0935 45.5582 70.0443 45.5907 69.9895 45.5907ZM68.6403 39.1207L70.0306 45.0294L72.5292 39.4406L69.2397 39.2183L68.6403 39.1207Z" fill="#3F4553"/>
<path d="M68.4595 38.9526L69.9893 45.4552L72.7315 39.3187L71.3303 39.2292L69.2477 39.0854C69.2504 39.0827 68.9521 39.0339 68.4595 38.9526Z" fill="#C6FF00"/>
<path d="M68.4595 38.9526L69.9893 45.4552L72.7315 39.3187L71.3303 39.2292L69.2477 39.0854C69.2504 39.0827 68.9521 39.0339 68.4595 38.9526Z" fill="#FED9CE"/>
<path d="M91.6618 42.2419C91.6618 42.2419 91.7959 43.3238 91.1883 43.7984C90.5835 44.2729 88.0247 45.0946 87.3077 44.6688C86.5907 44.2431 85.5754 41.9897 85.9722 40.4033C86.369 38.8197 88.7663 39.4082 88.7663 39.4082C88.7663 39.4082 91.109 40.1512 91.6618 42.2419Z" fill="white"/>
<path d="M87.9066 44.9211C87.6302 44.9211 87.3976 44.8804 87.2388 44.7855C86.4397 44.3109 85.4463 41.9491 85.8404 40.3709C86.0183 39.6604 86.593 39.2482 87.507 39.175C88.1721 39.1235 88.7741 39.2672 88.7988 39.2753C88.9055 39.3079 91.229 40.0671 91.7927 42.204C91.7954 42.2094 91.7954 42.2148 91.7954 42.2229C91.8009 42.269 91.9295 43.3862 91.2727 43.9015C90.7966 44.2784 89.0095 44.9211 87.9066 44.9211ZM87.8053 39.438C87.1348 39.438 86.3084 39.6143 86.1031 40.4359C85.7172 41.9762 86.7353 44.1699 87.3784 44.5523C88.027 44.9373 90.5065 44.1591 91.1031 43.6927C91.6148 43.2913 91.5355 42.3639 91.5273 42.2663C90.9963 40.2814 88.7468 39.5465 88.7249 39.5384C88.7167 39.5357 88.3034 39.438 87.8053 39.438Z" fill="#575C69"/>
<path d="M89.494 43.3889C88.3719 43.4513 87.384 42.654 87.0994 41.5775C86.3851 38.855 84.6445 32.4473 83.9822 32.008C83.1393 31.4521 82.4935 31.3111 82.5044 30.7959C82.5154 30.2834 82.5592 28.2279 82.5592 28.2279C82.5592 28.2279 82.9341 27.6693 83.1831 28.19C83.4322 28.7079 83.372 29.1173 83.372 29.1173C83.372 29.1173 83.7852 27.9703 83.7414 27.6097C83.6976 27.249 83.6128 26.2728 83.6183 26.0152C83.6237 25.7576 83.9658 25.5352 84.4721 26.0586C84.9784 26.5819 85.9664 27.7073 85.7748 28.2415C85.5832 28.7757 85.2411 31.4141 85.2411 31.4141C85.2411 31.4141 91.5793 40.6338 91.4589 41.4528C91.3713 42.0412 90.8596 43.313 89.494 43.3889Z" fill="#FED9CE"/>
<path d="M89.3708 43.5272C88.2624 43.5272 87.2635 42.7381 86.968 41.61C85.5066 36.0375 84.3325 32.4012 83.9083 32.1192C83.6648 31.9592 83.4376 31.8344 83.2379 31.7232C82.7288 31.4412 82.3594 31.2379 82.3703 30.7931L82.4251 28.2252C82.4251 28.2008 82.4333 28.1737 82.447 28.152C82.4688 28.1167 82.6796 27.813 82.9505 27.832C83.0983 27.8428 83.2187 27.9432 83.309 28.1303C83.3665 28.2496 83.4075 28.3662 83.4404 28.4719C83.5416 28.1221 83.6237 27.7723 83.6073 27.6259C83.5635 27.2761 83.4787 26.2863 83.4842 26.0125C83.4869 25.8443 83.5909 25.6952 83.7469 25.6355C83.8837 25.5813 84.1765 25.5542 84.5734 25.9664C85.1645 26.5765 86.1223 27.6883 85.9061 28.2903C85.7337 28.7648 85.4354 31.0155 85.3862 31.3843C86.5137 33.0249 91.7189 40.6555 91.5985 41.4772C91.4999 42.1497 90.9334 43.4458 89.5076 43.5245C89.4556 43.5272 89.4118 43.5272 89.3708 43.5272ZM82.6933 28.274L82.6413 30.7986C82.6358 31.067 82.8739 31.2107 83.3692 31.4873C83.5745 31.6012 83.8071 31.7287 84.0589 31.8941C84.702 32.3171 86.1388 37.3744 87.2334 41.5422C87.5071 42.5917 88.454 43.3103 89.4857 43.2533C90.7364 43.1828 91.2345 42.0358 91.3221 41.4365C91.4042 40.8779 87.5646 35.0423 85.1262 31.4928C85.107 31.4656 85.0988 31.4331 85.1043 31.4006C85.118 31.2921 85.4491 28.7431 85.6434 28.1981C85.7584 27.8754 85.2603 27.0727 84.3708 26.1535C84.1273 25.9013 83.9385 25.8498 83.8399 25.8877C83.777 25.9121 83.7524 25.9718 83.7524 26.0179C83.7469 26.2619 83.8262 27.2164 83.8728 27.5934C83.9193 27.9757 83.5416 29.0414 83.4978 29.1634C83.4732 29.2285 83.4048 29.2665 83.3364 29.2502C83.268 29.2339 83.2242 29.1688 83.2351 29.0983C83.2351 29.0956 83.2844 28.7187 83.06 28.2469C83.0189 28.1601 82.9697 28.1059 82.9286 28.1032C82.8711 28.095 82.7589 28.1926 82.6933 28.274Z" fill="#3F4553"/>
<path d="M84.7293 29.2123C84.7156 29.2123 84.7019 29.2096 84.691 29.2069C84.6198 29.1852 84.576 29.1093 84.6007 29.0388L84.8962 28.0599C84.8333 27.9189 84.6581 27.5067 84.639 27.1298C84.628 26.921 84.7129 26.826 84.784 26.7827C84.9674 26.6715 85.2246 26.8125 85.2739 26.8396C85.3396 26.8776 85.3587 26.9616 85.3204 27.024C85.2821 27.0891 85.1973 27.1108 85.1343 27.0728C85.0522 27.024 84.9482 26.9996 84.9236 27.0132C84.9236 27.0132 84.9044 27.0348 84.9099 27.1162C84.9318 27.5175 85.1617 27.9866 85.1644 27.9921C85.1809 28.0219 85.1836 28.0572 85.1726 28.0897L84.8607 29.1201C84.8415 29.1744 84.7868 29.2123 84.7293 29.2123Z" fill="#263238"/>
<path d="M84.2613 29.0902C84.2503 29.0902 84.2394 29.0902 84.2284 29.0875C84.1545 29.0685 84.1108 28.9953 84.1272 28.9248L84.3571 27.9947C84.2886 27.8483 84.108 27.3846 84.2148 26.8965C84.264 26.6768 84.3625 26.5304 84.5103 26.4653C84.7128 26.3731 84.9126 26.4789 84.9345 26.4897C85.0002 26.525 85.0248 26.609 84.9892 26.6741C84.9537 26.7392 84.8716 26.7636 84.8031 26.7283C84.8004 26.7256 84.6992 26.6768 84.6225 26.7121C84.5432 26.7473 84.5021 26.8639 84.483 26.9534C84.3762 27.4361 84.6198 27.9106 84.6225 27.916C84.6389 27.9459 84.6417 27.9784 84.6335 28.011L84.3926 28.9899C84.379 29.0495 84.3215 29.0902 84.2613 29.0902Z" fill="#263238"/>
<path d="M83.87 29.063C83.8618 29.063 83.8536 29.063 83.8454 29.0602C83.7715 29.0467 83.7223 28.9762 83.7332 28.903L83.9549 27.6637C83.9193 27.5227 83.7715 26.9099 83.7496 26.4706C83.7387 26.2645 83.8235 26.1425 83.8974 26.0747C84.1054 25.8821 84.4475 25.9201 84.4858 25.9255C84.5597 25.9364 84.6144 26.0015 84.6035 26.0774C84.5953 26.1506 84.5268 26.2048 84.4502 26.194C84.3791 26.1859 84.1793 26.1831 84.0808 26.2726C84.037 26.3133 84.0178 26.373 84.0206 26.457C84.0452 26.918 84.2231 27.6203 84.2258 27.6258C84.2313 27.6447 84.2313 27.6637 84.2285 27.6827L84.0014 28.9491C83.9932 29.0169 83.9357 29.063 83.87 29.063Z" fill="#263238"/>
<path d="M72.4791 40.4791C81.8515 40.4791 89.4494 32.9507 89.4494 23.664C89.4494 14.3773 81.8515 6.84888 72.4791 6.84888C63.1067 6.84888 55.5088 14.3773 55.5088 23.664C55.5088 32.9507 63.1067 40.4791 72.4791 40.4791Z" fill="#FA6E5A"/>
<path opacity="0.3" d="M60.7666 22.9808C61.106 14.8132 67.2745 8.25093 75.1316 7.05779C74.4912 6.95746 73.8398 6.88967 73.1776 6.86255C63.8126 6.48021 55.909 13.6906 55.5204 22.9672C55.1345 32.2466 62.4114 40.0779 71.7736 40.463C72.8957 40.5091 73.9931 40.444 75.0631 40.2813C66.6669 38.9743 60.4081 31.6039 60.7666 22.9808Z" fill="#AC3E2F"/>
<path d="M62.1953 25.1746C62.1953 25.1746 74.65 23.5503 84.9564 26.1074C84.9564 26.1074 83.9904 36.3576 73.2297 36.1216C63.9003 35.9183 62.1953 25.1746 62.1953 25.1746Z" fill="#3F4553"/>
<path d="M73.7467 19.8489C73.339 19.8489 72.9859 19.5507 72.9339 19.1385C72.6739 17.1345 70.8349 15.6241 68.6537 15.6241C66.7107 15.6241 65.0002 16.839 64.4939 18.5744C64.3681 19.0056 63.911 19.2551 63.4759 19.1303C63.0408 19.0056 62.789 18.5555 62.9149 18.1216C63.6237 15.6919 65.9827 13.9971 68.6537 13.9971C71.6559 13.9971 74.1956 16.1177 74.5623 18.9324C74.6197 19.3771 74.3023 19.7866 73.8535 19.8435C73.8179 19.8462 73.7823 19.8489 73.7467 19.8489Z" fill="#3F4553"/>
<path d="M85.7036 21.7796C85.2602 21.7796 84.8962 21.4298 84.8826 20.9878C84.8333 19.2008 83.3473 17.7094 81.4261 17.5196C79.7157 17.3514 78.0983 18.268 77.4962 19.7513C77.3265 20.1689 76.8476 20.3695 76.4289 20.2041C76.0074 20.036 75.8049 19.5642 75.9719 19.1466C76.8449 16.9935 79.1519 15.6594 81.5876 15.9007C84.327 16.1719 86.4479 18.3412 86.5218 20.9417C86.5355 21.3918 86.177 21.7661 85.7227 21.7769C85.72 21.7796 85.7118 21.7796 85.7036 21.7796Z" fill="#3F4553"/>
<path d="M63.8155 25.4893C63.9168 25.8961 64.6694 28.1224 69.0645 28.3041C73.903 28.502 78.736 28.8789 81.251 28.803C82.7562 28.7569 83.476 27.4743 83.8126 26.4493C76.1936 24.7219 67.6195 25.1612 63.8155 25.4893Z" fill="white"/>
<path d="M76.4481 35.3C76.4508 32.8893 73.84 30.8501 70.5259 30.7145C68.6895 30.6386 67.0229 31.1674 65.8625 32.0595C67.5264 33.9496 69.9375 35.4763 73.3967 35.5522C74.5187 35.5766 75.5313 35.4817 76.4481 35.3Z" fill="#4E5567"/>
<path d="M57.9503 94.2085L63.3717 95.8952L63.4155 93.6797L57.7314 92.5191L57.9503 94.2085Z" fill="#4E5567"/>
<path d="M63.3721 96.0306C63.3584 96.0306 63.3447 96.0279 63.3311 96.0252L57.9096 94.3386C57.8577 94.3223 57.8221 94.2789 57.8139 94.2274L57.5949 92.5353C57.5895 92.4919 57.6059 92.4485 57.6387 92.4187C57.6716 92.3889 57.7153 92.3753 57.7591 92.3862L63.4433 93.5467C63.5089 93.5603 63.5527 93.6172 63.5527 93.6823L63.5089 95.8978C63.5089 95.9411 63.487 95.9791 63.4515 96.0062C63.4296 96.0225 63.4022 96.0306 63.3721 96.0306ZM58.0738 94.1053L63.238 95.7106L63.2763 93.7881L57.8905 92.6872L58.0738 94.1053Z" fill="#3F4553"/>
<path d="M69.0862 94.5366L69.7539 96.4999L75.0932 94.3468L74.6909 92.5164L69.0862 94.5366Z" fill="#4E5567"/>
<path d="M69.7539 96.6328C69.7347 96.6328 69.7156 96.6274 69.6964 96.6193C69.6608 96.603 69.6362 96.5759 69.6225 96.5406L68.9548 94.5801C68.9301 94.5096 68.9685 94.4336 69.0369 94.4092L74.6416 92.389C74.68 92.3755 74.721 92.3782 74.7538 92.3972C74.7894 92.4161 74.8141 92.4487 74.8223 92.4866L75.2246 94.317C75.2382 94.3821 75.2027 94.4472 75.1425 94.4716L69.8032 96.622C69.7895 96.6301 69.7703 96.6328 69.7539 96.6328ZM69.2586 94.618L69.836 96.3183L74.9345 94.2655L74.5896 92.6982L69.2586 94.618Z" fill="#3F4553"/>
<path d="M49.1855 37.8629C49.1855 37.8629 48.8215 38.8906 49.3114 39.4845C49.8013 40.0784 52.122 41.4206 52.9129 41.1549C53.7038 40.8919 55.1816 38.9015 55.1378 37.2718C55.0913 35.6393 52.6228 35.7071 52.6228 35.7071C52.6228 35.7071 50.1762 35.9376 49.1855 37.8629Z" fill="white"/>
<path d="M52.6798 41.3226C51.6563 41.3226 49.6421 40.097 49.2042 39.5682C48.6733 38.9255 49.0373 37.8625 49.0537 37.8164C49.0564 37.811 49.0592 37.8056 49.0619 37.8002C50.0745 35.8288 52.5074 35.582 52.6087 35.5712C53.5227 35.5522 55.2332 35.8694 55.2742 37.266C55.3207 38.8903 53.8402 40.9864 52.9562 41.282C52.8769 41.3091 52.7838 41.3226 52.6798 41.3226ZM49.3109 37.9141C49.2808 38.009 49.0044 38.8957 49.4177 39.3973C49.8993 39.9803 52.1544 41.263 52.8714 41.0271C53.5829 40.7884 55.0471 38.8631 55.0033 37.2768C54.9622 35.7989 52.6524 35.845 52.6278 35.845C52.6114 35.845 50.2578 36.0891 49.3109 37.9141Z" fill="#3F4553"/>
<path d="M50.4905 39.289C51.5742 39.5873 52.7099 39.0178 53.2189 38.0253C54.5025 35.517 57.584 29.6246 58.3256 29.3371C59.2698 28.971 59.9293 28.971 60.0306 28.4667C60.1318 27.9623 60.5314 25.9475 60.5314 25.9475C60.5314 25.9475 60.2851 25.3238 59.9321 25.7794C59.579 26.2322 59.5489 26.6471 59.5489 26.6471C59.5489 26.6471 59.3929 25.4404 59.5133 25.0961C59.6338 24.7544 59.9266 23.8161 59.9759 23.564C60.0251 23.3118 59.7405 23.0216 59.1329 23.4257C58.5254 23.8297 57.3185 24.7191 57.3897 25.2832C57.4636 25.8472 57.2255 28.4965 57.2255 28.4965C57.2255 28.4965 49.0455 36.1624 48.988 36.9895C48.947 37.5779 49.1714 38.9256 50.4905 39.289Z" fill="#FED9CE"/>
<path d="M51.0788 39.5059C50.8708 39.5059 50.6628 39.4788 50.4548 39.4218C49.0782 39.0422 48.8046 37.6592 48.8511 36.9786C48.9086 36.1488 55.6381 29.7954 57.094 28.4314C57.1269 28.0599 57.3184 25.7983 57.2528 25.2994C57.1707 24.6676 58.3474 23.7836 59.0535 23.3117C59.5324 22.9945 59.8088 23.084 59.932 23.1653C60.0716 23.2575 60.14 23.4229 60.1071 23.591C60.0551 23.8595 59.7568 24.8086 59.6392 25.1421C59.5899 25.2831 59.5954 25.6411 59.62 26.0044C59.672 25.9068 59.7377 25.8038 59.8198 25.698C59.9457 25.5353 60.0852 25.4621 60.233 25.4838C60.4985 25.5218 60.6408 25.8634 60.6545 25.9014C60.6627 25.9258 60.6654 25.9502 60.6599 25.9773L60.1646 28.491C60.077 28.9276 59.6747 29.0469 59.1164 29.2151C58.8975 29.2801 58.6485 29.3561 58.3748 29.4618C57.8986 29.6462 55.9692 32.9518 53.342 38.085C52.8905 38.969 51.9983 39.5059 51.0788 39.5059ZM50.5287 39.1588C51.5221 39.4327 52.6031 38.931 53.0984 37.9629C55.0634 34.1232 57.5565 29.4862 58.2763 29.2096C58.5582 29.1012 58.8127 29.0252 59.0371 28.9575C59.5817 28.7948 59.8444 28.7053 59.8964 28.4395L60.389 25.961C60.3452 25.8688 60.2631 25.755 60.1974 25.7468C60.1537 25.7387 60.0989 25.7821 60.0387 25.858C59.7158 26.2702 59.6829 26.6498 59.6829 26.6525C59.6775 26.723 59.62 26.7773 59.5488 26.7773C59.4695 26.78 59.4175 26.7285 59.4093 26.6579C59.3929 26.5305 59.2533 25.4079 59.3819 25.0445C59.5078 24.6866 59.7924 23.77 59.8389 23.5314C59.8471 23.4853 59.8389 23.4229 59.7815 23.385C59.6939 23.328 59.4996 23.3361 59.2068 23.5314C58.1394 24.2418 57.4799 24.9198 57.5237 25.2587C57.5976 25.8309 57.3704 28.3907 57.3622 28.5019C57.3595 28.5344 57.3431 28.567 57.3212 28.5887C54.174 31.539 49.1658 36.4308 49.1275 36.9922C49.081 37.5996 49.3218 38.828 50.5287 39.1588Z" fill="#3F4553"/>
<path d="M58.4926 26.5929C58.4898 26.5929 58.4871 26.5929 58.4871 26.5929C58.4105 26.5902 58.353 26.5251 58.3585 26.4519C58.3585 26.4437 58.3941 25.7062 58.3749 25.3455C58.353 24.955 58.9387 23.5341 59.0071 23.3741C59.0344 23.3036 59.1165 23.2711 59.185 23.3009C59.2534 23.328 59.289 23.4094 59.2589 23.4772C59.0153 24.0629 58.6349 25.0825 58.6486 25.332C58.6677 25.7062 58.6322 26.4356 58.6322 26.4654C58.6267 26.5359 58.5665 26.5929 58.4926 26.5929Z" fill="#263238"/>
<path d="M58.038 26.4409L57.7644 26.4355C57.7644 26.4355 57.7835 25.6437 57.7972 25.3481C57.8109 25.0471 58.1147 24.1143 58.1475 24.0112C58.1694 23.9407 58.2488 23.9001 58.3199 23.9245C58.3911 23.9462 58.4321 24.0248 58.4075 24.0953C58.3172 24.3719 58.0791 25.1366 58.0681 25.3617C58.0572 25.6545 58.038 26.4409 58.038 26.4409Z" fill="#263238"/>
</svg>
