<svg width="382" height="296" viewBox="0 0 382 296" fill="none" xmlns="http://www.w3.org/2000/svg">
<mask id="mask0_17_3" style="mask-type:alpha" maskUnits="userSpaceOnUse" x="0" y="0" width="382" height="296">
<rect width="382" height="296" rx="10" fill="url(#paint0_linear_17_3)"/>
</mask>
<g mask="url(#mask0_17_3)">
<path d="M387.292 -80.5674H-0.435547V368.351H387.292V-80.5674Z" fill="#F2EFE4"/>
<path d="M-0.435547 -15.5608V368.351H387.292V7.84706L-0.435547 -15.5608Z" fill="#F2EBD6"/>
<path d="M-0.435547 140.265V368.351H387.292V70.5649L-0.435547 140.265Z" fill="#F2E8C8"/>
<path d="M31.2847 133.245L43.5796 133.283C46.375 129.424 51.5393 126.825 57.438 126.845C66.2032 126.884 73.3575 132.624 73.6654 139.741L53.4345 139.664L41.3528 139.625L23.2539 139.567C23.396 136.057 26.9258 133.245 31.2847 133.245Z" fill="#F7F9ED"/>
<path d="M154.21 40.0379C152.789 30.6127 142.981 23.3014 131.089 23.3014C125.309 23.3014 120.026 25.0468 115.951 27.8976C109.579 17.9488 96.8574 11.1611 82.1698 11.1611C66.4873 11.1611 53.0079 18.9185 47.1566 30.0115C46.3038 29.8952 45.4272 29.8176 44.5507 29.8176C37.0411 29.8176 30.8108 34.2199 29.4604 40.0379H154.21V40.0379Z" fill="#F7F9ED"/>
<path d="M210.97 93.3335C204.242 99.7334 190.004 98.7055 190.004 98.7055C190.004 98.7055 186.64 87.3216 193.368 80.9217C200.096 74.5219 214.334 75.5498 214.334 75.5498C214.334 75.5498 217.674 86.9337 210.97 93.3335Z" fill="#CC691E"/>
<path d="M158.331 265.353C148.997 268.921 136.513 263.22 136.513 263.22C136.513 263.22 139.142 251.7 148.476 248.132C157.81 244.563 170.294 250.265 170.294 250.265C170.294 250.265 167.665 261.785 158.331 265.353Z" fill="#FE9A4F"/>
<path d="M38.6331 276.983L441.829 273.633L348.346 127.118C346.705 124.556 343.575 122.719 340.05 122.673C338.051 122.642 336.015 123.121 334.242 124.155L314.256 135.762C311.635 137.275 308.222 137.476 305.375 136.272L290.649 130.051C287.331 128.647 283.334 128.832 280.241 130.545L38.6519 265.051V276.983H38.6331Z" fill="#F2D88A"/>
<path d="M353.115 147.277C337.465 147.277 323.38 152.803 313.632 161.602C304.751 168.733 299.246 178.658 299.246 189.648C299.246 192.01 299.51 194.325 300 196.563C289.705 200.206 282.201 208.109 280.73 217.556C278.637 217.201 276.469 217.015 274.244 217.015C266.099 217.015 258.67 219.5 252.975 223.575C249.072 216.383 240.286 211.366 230.067 211.366C223.788 211.366 218.075 213.265 213.663 216.382C210.288 208.31 200.954 202.49 189.943 202.49C182.25 202.49 175.368 205.331 170.768 209.791C165.677 203.895 157.324 200.036 147.84 200.036C146.822 200.036 145.803 200.083 144.804 200.175C136.64 186.545 119.538 177.161 99.7595 177.161C89.7286 177.161 80.3765 179.584 72.5328 183.752C71.0433 182.27 69.4594 180.881 67.7625 179.569C62.5962 175.339 56.2798 172.051 49.2091 170.076C43.1944 168.239 36.6894 167.22 29.9016 167.22C-0.530427 167.22 -25.2117 187.425 -25.2117 212.338C-25.2117 237.251 -0.530427 257.457 29.9016 257.457C43.0247 257.457 55.0731 253.69 64.5383 247.423C73.5887 254.74 86.0142 259.278 99.7595 259.278C115.183 259.278 128.985 253.567 138.186 244.599C141.203 245.509 144.446 246.019 147.84 246.019C157.324 246.019 165.696 242.16 170.768 236.264C175.368 240.724 182.25 243.565 189.943 243.565C196.222 243.565 201.935 241.666 206.347 238.548C209.722 246.621 219.055 252.44 230.067 252.44C234.686 252.44 239.023 251.39 242.737 249.6C246.075 261.331 258.915 270.083 274.263 270.083C290.761 270.083 304.355 259.973 306.373 246.914C308.466 247.269 310.634 247.454 312.859 247.454C325.19 247.454 335.9 241.805 341.368 233.485C345.158 234.18 349.08 234.566 353.133 234.566C382.566 234.566 406.437 215.024 406.437 190.929C406.418 166.819 382.547 147.277 353.115 147.277Z" fill="#FE9A4F"/>
<path d="M353.115 147.277C337.465 147.277 323.38 152.803 313.632 161.602C304.751 168.733 299.246 178.658 299.246 189.648C299.246 192.01 299.51 194.325 300 196.563C289.705 200.206 282.201 208.109 280.73 217.556C278.637 217.201 276.469 217.015 274.244 217.015C266.099 217.015 258.67 219.5 252.975 223.575C249.072 216.383 240.286 211.366 230.067 211.366C223.788 211.366 218.075 213.265 213.663 216.382C210.288 208.31 200.954 202.49 189.943 202.49C182.25 202.49 175.368 205.331 170.768 209.791C165.677 203.895 157.324 200.036 147.84 200.036C146.822 200.036 145.803 200.083 144.804 200.175C136.64 186.545 119.538 177.161 99.7595 177.161C89.7286 177.161 80.3765 179.584 72.5328 183.752C71.0433 182.27 69.4594 180.881 67.7625 179.569C62.5962 175.339 56.2798 172.051 49.2091 170.076C43.1944 168.239 36.6894 167.22 29.9016 167.22C-0.530427 167.22 -25.2117 187.425 -25.2117 212.338C-25.2117 237.251 -0.530427 257.457 29.9016 257.457C43.0247 257.457 55.0731 253.69 64.5383 247.423C73.5887 254.74 86.0142 259.278 99.7595 259.278C115.183 259.278 128.985 253.567 138.186 244.599C141.203 245.509 144.446 246.019 147.84 246.019C157.324 246.019 165.696 242.16 170.768 236.264C175.368 240.724 182.25 243.565 189.943 243.565C196.222 243.565 201.935 241.666 206.347 238.548C209.722 246.621 219.055 252.44 230.067 252.44C234.686 252.44 239.023 251.39 242.737 249.6C246.075 261.331 258.915 270.083 274.263 270.083C290.761 270.083 304.355 259.973 306.373 246.914C308.466 247.269 310.634 247.454 312.859 247.454C325.19 247.454 335.9 241.805 341.368 233.485C345.158 234.18 349.08 234.566 353.133 234.566C382.566 234.566 406.437 215.024 406.437 190.929C406.418 166.819 382.547 147.277 353.115 147.277Z" fill="url(#paint1_linear_17_3)"/>
<path d="M353.68 257.148L349.872 56.2849H328.151L327.265 102.669L318.912 99.0106L284.784 67.9697L270.021 78.8518L306.486 112.023L326.925 120.945L324.342 257.148H353.68Z" fill="#9E4927"/>
<path opacity="0.61" d="M353.68 257.148L349.872 56.2849H328.151L327.265 102.669L318.912 99.0106L284.784 67.9697L270.021 78.8518L306.486 112.023L326.925 120.945L324.342 257.148H353.68Z" fill="url(#paint2_linear_17_3)"/>
<path d="M391.655 9.79268C386.074 8.61957 380.38 8.68131 375.232 9.73093C378.344 8.46521 380.795 6.47402 381.907 3.94258C384.321 -1.53705 379.607 -7.38714 371.367 -9.11593C369.934 -9.4092 368.501 -9.56356 367.068 -9.59443C369.689 -11.74 371.744 -14.2714 373.007 -17.1116C378.136 -28.7346 368.143 -41.1293 350.683 -44.7876C339.483 -47.1492 327.944 -45.3124 319.742 -40.6354C317.875 -47.3499 310.635 -53.2 300.227 -55.3918C286.161 -58.3555 271.454 -53.5241 266.345 -44.556C258.765 -51.9034 246.358 -56.7039 232.292 -56.7039C209.195 -56.7039 190.453 -43.7688 190.453 -27.8239C190.453 -25.8327 190.736 -23.8878 191.302 -22.0201C190.698 -22.051 190.114 -22.0818 189.51 -22.0818C172.201 -22.0818 158.173 -12.3883 158.173 -0.441124C158.173 7.98671 165.169 15.2569 175.331 18.8379C165.018 23.376 158.173 31.3253 158.173 40.4015C158.173 54.525 174.766 65.9782 195.223 65.9782C200.22 65.9782 204.99 65.2836 209.346 64.0488C208.912 65.1138 208.648 66.2252 208.648 67.3829C208.648 74.051 216.473 79.4535 226.127 79.4535C230.577 79.4535 234.63 78.2958 237.723 76.3973C234.291 79.8703 232.274 84.0687 232.274 88.5914C232.274 100.539 246.302 110.232 263.611 110.232C280.92 110.232 294.948 100.539 294.948 88.5914C294.948 86.8008 294.589 85.072 294.005 83.405C302.018 82.556 309.032 79.6387 313.84 75.4248C318.969 77.9408 325.229 79.4535 331.998 79.4535C349.307 79.4535 363.335 69.76 363.335 57.8128C363.335 55.1888 362.618 52.6882 361.374 50.3574C364.9 48.6132 367.804 46.2978 369.764 43.5194C371.669 44.2912 373.724 44.9395 375.93 45.4026C390.694 48.5051 406.174 43.0564 410.51 33.2239C414.885 23.376 406.437 12.8952 391.655 9.79268Z" fill="#CC691E"/>
<path d="M391.655 9.79268C386.074 8.61957 380.38 8.68131 375.232 9.73093C378.344 8.46521 380.795 6.47402 381.907 3.94258C384.321 -1.53705 379.607 -7.38714 371.367 -9.11593C369.934 -9.4092 368.501 -9.56356 367.068 -9.59443C369.689 -11.74 371.744 -14.2714 373.007 -17.1116C378.136 -28.7346 368.143 -41.1293 350.683 -44.7876C339.483 -47.1492 327.944 -45.3124 319.742 -40.6354C317.875 -47.3499 310.635 -53.2 300.227 -55.3918C286.161 -58.3555 271.454 -53.5241 266.345 -44.556C258.765 -51.9034 246.358 -56.7039 232.292 -56.7039C209.195 -56.7039 190.453 -43.7688 190.453 -27.8239C190.453 -25.8327 190.736 -23.8878 191.302 -22.0201C190.698 -22.051 190.114 -22.0818 189.51 -22.0818C172.201 -22.0818 158.173 -12.3883 158.173 -0.441124C158.173 7.98671 165.169 15.2569 175.331 18.8379C165.018 23.376 158.173 31.3253 158.173 40.4015C158.173 54.525 174.766 65.9782 195.223 65.9782C200.22 65.9782 204.99 65.2836 209.346 64.0488C208.912 65.1138 208.648 66.2252 208.648 67.3829C208.648 74.051 216.473 79.4535 226.127 79.4535C230.577 79.4535 234.63 78.2958 237.723 76.3973C234.291 79.8703 232.274 84.0687 232.274 88.5914C232.274 100.539 246.302 110.232 263.611 110.232C280.92 110.232 294.948 100.539 294.948 88.5914C294.948 86.8008 294.589 85.072 294.005 83.405C302.018 82.556 309.032 79.6387 313.84 75.4248C318.969 77.9408 325.229 79.4535 331.998 79.4535C349.307 79.4535 363.335 69.76 363.335 57.8128C363.335 55.1888 362.618 52.6882 361.374 50.3574C364.9 48.6132 367.804 46.2978 369.764 43.5194C371.669 44.2912 373.724 44.9395 375.93 45.4026C390.694 48.5051 406.174 43.0564 410.51 33.2239C414.885 23.376 406.437 12.8952 391.655 9.79268Z" fill="url(#paint3_linear_17_3)"/>
<path d="M85.6185 167.205L68.0645 210.671L56.4686 181.93L40.5361 242.345L112.072 232.698L85.6185 167.205Z" fill="#CC691E"/>
<path d="M290.818 217.756L281.145 241.697L263.516 198.03L238.57 259.818H312.218L290.818 217.756Z" fill="#CC691E"/>
<path d="M126.497 209.545C124.8 209.545 123.103 209.56 121.406 209.591C86.6373 210.27 52.7171 218.528 22.5302 232.636L-171.582 323.382H347.233V318.134L276.866 260.528C236.987 227.882 182.892 209.545 126.497 209.545Z" fill="#FEC956"/>
<path d="M126.497 209.545C124.8 209.545 123.103 209.56 121.406 209.591C86.6373 210.27 52.7171 218.528 22.5302 232.636L-171.582 323.382H347.233V318.134L276.866 260.528C236.987 227.882 182.892 209.545 126.497 209.545Z" fill="url(#paint4_linear_17_3)"/>
<path d="M327.66 215.92C258.783 269.728 141.184 282.694 66.4239 285.133C46.5318 285.781 26.7717 287.973 7.44534 291.817L-151.465 323.383H553.581L411.377 215.071C402.647 208.418 391.711 204.019 379.926 202.429C360.864 199.867 341.632 205.007 327.66 215.92Z" fill="#CE4C52"/>
<path d="M327.66 215.92C258.783 269.728 141.184 282.694 66.4239 285.133C46.5318 285.781 26.7717 287.973 7.44534 291.817L-151.465 323.383H553.581L411.377 215.071C402.647 208.418 391.711 204.019 379.926 202.429C360.864 199.867 341.632 205.007 327.66 215.92Z" fill="url(#paint5_linear_17_3)"/>
<path d="M79.8684 347.971C90.2764 342.97 98.1767 336.379 87.2408 330.266C85.6004 329.356 85.6569 327.38 87.3727 326.546C94.7639 322.981 108.981 314.538 104.078 304.273C104.078 304.273 101.457 299.195 89.6165 298.809C87.731 298.747 86.3923 297.281 86.826 295.783C88.9377 288.405 92.8596 269.821 81.0186 264.65C75.5318 262.257 68.7251 263.878 65.1992 268.061C62.6915 271.055 60.0518 275.594 59.2788 281.922C59.2788 281.922 59.8821 286.244 52.7926 281.366C45.7031 276.489 38.0291 277.646 35.446 287.217C32.8629 296.787 32.2783 306.619 27.8474 308.055C23.4165 309.49 15.7802 305.832 11.0476 312.685C7.35201 318.041 12.1223 333.693 34.2958 346.412C47.796 354.176 65.5952 354.824 79.8684 347.971Z" fill="#EB7D41"/>
<rect x="-0.772949" y="202.404" width="383.545" height="91.8372" fill="url(#paint6_linear_17_3)"/>
</g>
<defs>
<linearGradient id="paint0_linear_17_3" x1="191" y1="-9.41154e-08" x2="191" y2="563.636" gradientUnits="userSpaceOnUse">
<stop stop-color="#FF7C6B"/>
<stop offset="1" stop-color="#FAC978"/>
</linearGradient>
<linearGradient id="paint1_linear_17_3" x1="187.38" y1="126.737" x2="190.189" y2="224.192" gradientUnits="userSpaceOnUse">
<stop offset="0.4372" stop-color="#FFF459" stop-opacity="0.53"/>
<stop offset="0.9596" stop-color="#FFF459" stop-opacity="0"/>
</linearGradient>
<linearGradient id="paint2_linear_17_3" x1="302.539" y1="24.1346" x2="320.552" y2="181.704" gradientUnits="userSpaceOnUse">
<stop stop-color="#040006"/>
<stop offset="1" stop-color="#040006" stop-opacity="0"/>
</linearGradient>
<linearGradient id="paint3_linear_17_3" x1="110.811" y1="96.6007" x2="254.318" y2="-10.9894" gradientUnits="userSpaceOnUse">
<stop offset="0.4372" stop-color="#FFF459" stop-opacity="0.53"/>
<stop offset="0.9596" stop-color="#FFF459" stop-opacity="0"/>
</linearGradient>
<linearGradient id="paint4_linear_17_3" x1="81.3523" y1="184.302" x2="83.6" y2="254.998" gradientUnits="userSpaceOnUse">
<stop offset="0.4372" stop-color="#FFE9B1" stop-opacity="0.53"/>
<stop offset="0.9596" stop-color="#FFE9B1" stop-opacity="0"/>
</linearGradient>
<linearGradient id="paint5_linear_17_3" x1="173.45" y1="215.257" x2="189.395" y2="308.471" gradientUnits="userSpaceOnUse">
<stop offset="0.4372" stop-color="#FFF459" stop-opacity="0.53"/>
<stop offset="0.9596" stop-color="#FFF459" stop-opacity="0"/>
</linearGradient>
<linearGradient id="paint6_linear_17_3" x1="265.905" y1="294.241" x2="265.905" y2="210.199" gradientUnits="userSpaceOnUse">
<stop stop-color="#CC691E"/>
<stop offset="1" stop-color="#BD8022" stop-opacity="0"/>
</linearGradient>
</defs>
</svg>
