<?xml version="1.0" encoding="utf-8"?>
<!-- Generator: Adobe Illustrator 16.0.0, SVG Export Plug-In . SVG Version: 6.00 Build 0)  -->
<!DOCTYPE svg PUBLIC "-//W3C//DTD SVG 1.1//EN" "http://www.w3.org/Graphics/SVG/1.1/DTD/svg11.dtd">
<svg version="1.1" id="Layer_1" xmlns="http://www.w3.org/2000/svg" xmlns:xlink="http://www.w3.org/1999/xlink" x="0px" y="0px"
	 width="630px" height="634px" viewBox="0 0 630 634" enable-background="new 0 0 630 634" xml:space="preserve">
<g>
	<defs>
		<polyline id="SVGID_1_" points="-188,-201 812,-201 812,799 -188,799 		"/>
	</defs>
	<clipPath id="SVGID_2_">
		<use xlink:href="#SVGID_1_"  overflow="visible"/>
	</clipPath>
	<path clip-path="url(#SVGID_2_)" fill="#E3F4FF" d="M596.765,314.966c0,59.88-11.12,83.199-19.199,123.29
		c-9.12,61.229-56.811,107.06-112.761,136.399c-0.17,0.101-0.34,0.19-0.51,0.271c-34.68,18.109-72.49,29.89-106.24,35.08
		c-0.64,0.1-1.279,0.199-1.91,0.279c-0.67,0.11-1.34,0.21-2,0.29c-1.22,0.17-2.42,0.33-3.63,0.48c-1.43,0.18-2.85,0.35-4.27,0.51
		c-2.07,0.24-4.13,0.44-6.16,0.62c-10.04,0.859-20.43,1-31.04,0.45c-22.48-1.15-45.96-5.37-69.27-12.351
		c-104.19-31.17-205.19-117.27-200.14-229.68c23.26-17.45,29.1,4.4,50.31-11.72c15.69-13.54,42.73-21.341,42.73-21.341
		c-16.86-13.409-52.04-31.06-83.12,4.08c26.65-53.35,33.65-17.17,63.19-35.859c8.76-9.92,13.54-11.43,30.06-8.63
		c34.73,7.49,20.08-40.82,50.39-36.12c0,0-6.19-7.28-22.71-7.39s-19.41,16.24-37.81,11.56c-11.92-3.04-28.44-2.39-44.77,1.2
		c-4.69,1.03-9.37,2.3-13.92,3.8c18.61-41.39,70.21-47.01,84.65-82.68c10.87-27.01,21.62-57.95,37.7-84.89
		c5.26-8.82,11.1-17.21,17.7-24.89c21.88-25.6,52.52-44.62,99.359-48.54c100.521-8.39,127.98,46.61,164.181,76.93
		c1.24,1.04,2.49,2.05,3.76,3.03c-2.75,5.56-4.34,12.13-4.34,19.17c0,20.08,12.91,36.36,28.84,36.36c9.48,0,17.9-5.77,23.16-14.68
		c12.97,14.23,25.54,31.06,36.26,50.18c-0.189,0.04-0.38,0.09-0.57,0.15c-15.75,4.54-22.43,23.01-30.54,31.5
		c-8.09,8.49-23.409,11.23-23.409,11.23s10.14,16.09,31.949,18.14c10.25,0.96,19.051-2.87,26.61-7.52
		c-5.88,10.68-4.29,18.04-12.33,27.6c-9.39,11.18-23.39,15.07-35.39,34.49c-12.01,19.42-9.641,40.02-9.641,40.02
		c3.311-3.359,8.061-7.85,14.2-12.64c5.38-4.21,15.87-12.29,29.811-17.86c12.09-4.819,21.83-5.779,24.979-6.24
		c4.78-0.699,10.16-2.539,15.82-5.319C596.755,314.136,596.765,314.556,596.765,314.966"/>
	<path clip-path="url(#SVGID_2_)" fill="#FFFFFF" d="M528.995,149.996c-5.26,8.91-13.681,14.68-23.16,14.68
		c-15.93,0-28.84-16.28-28.84-36.36c0-7.04,1.59-13.61,4.34-19.17C481.335,109.146,526.625,147.365,528.995,149.996"/>
	<path clip-path="url(#SVGID_2_)" fill="#FFFFFF" d="M193.195,261.016c-30.31-4.7-15.66,43.609-50.39,36.12
		c-16.52-2.8-21.3-1.29-30.06,8.63c-29.54,18.689-36.54-17.49-63.19,35.859c31.08-35.14,66.26-17.489,83.12-4.08
		c0,0-27.04,7.801-42.73,21.341c-21.21,16.12-27.05-5.73-50.31,11.72c0,0,0.92-11.7,4.11-27.76c4.45-22.36,13.3-53.19,30.24-72.66
		c4.55-1.5,9.23-2.77,13.92-3.8c16.33-3.59,32.85-4.24,44.77-1.2c18.4,4.68,21.29-11.67,37.81-11.56
		S193.195,261.016,193.195,261.016"/>
	<path clip-path="url(#SVGID_2_)" fill="#FFFFFF" d="M596.765,314.966c0-0.41-0.01-0.83-0.02-1.24
		c-5.66,2.78-11.04,4.62-15.82,5.319c-3.149,0.461-12.89,1.421-24.979,6.24c-13.94,5.57-24.431,13.65-29.811,17.86
		c-6.14,4.79-10.89,9.28-14.2,12.64c0,0-2.369-20.6,9.641-40.02c12-19.42,26-23.31,35.39-34.49c8.04-9.56,6.45-16.92,12.33-27.6
		c-7.56,4.65-16.36,8.48-26.61,7.52c-21.81-2.05-31.949-18.14-31.949-18.14s15.319-2.74,23.409-11.23
		c8.11-8.49,14.79-26.96,30.54-31.5c0.19-0.06,0.381-0.11,0.57-0.15C565.255,200.175,598.715,275.285,596.765,314.966"/>
	<path clip-path="url(#SVGID_2_)" fill="#99CCE0" d="M110.32,511.937c21.433-8.965,44.873,13.805,44.873,13.805
		s-20.094-20.76-20.515-50.231c-0.304-20.993,18.215-51.494,24.722-52.537c6.51-1.043,24.307,18.572,28.611,55.888
		c2.01,17.414-6.713,43.589-6.713,43.589s15.423-35.553,48.384-36.223c2.537,8.707-6.436,27.831-13.158,39.18
		c-5.833,9.852-20.474,27.129-52.178,23.305C125.309,544.002,109.834,512.141,110.32,511.937"/>
	<path clip-path="url(#SVGID_2_)" fill="#FFFFFF" d="M151.962,437.938c2.648,5.777,5.375,11.391,8.701,16.796
		c-0.293-8.887-0.747-17.969-0.062-26.778c0.062-0.799,1.178-0.799,1.241,0c0.413,5.309,0.391,10.689,0.32,16.065
		c0.606-1.135,1.136-2.308,1.543-3.546c0.625-1.912,0.421-3.861,0.655-5.819l0.415-0.058c1.437,3.518-0.375,7.735-2.629,10.654
		c-0.051,3.685-0.114,7.365-0.06,11.018c0.134,9.114,0.489,18.224,1.117,27.321c3.397-9.951,7.707-19.385,10.534-29.57l0.429,0.055
		c-1.363,10.459-6.235,20.803-10.732,30.26l-0.177,0.103l0.035,0.584c0.84,11.671,2.243,23.375,4.606,34.863
		c6.415-10.819,10.725-21.738,14.546-33.717c0.087-0.274,0.47-0.16,0.421,0.117c-1.999,11.672-7.308,25.004-14.755,34.29
		l-0.065,0.031c1.594,7.615,3.609,15.131,6.181,22.475c0.125,0.354-0.429,0.502-0.559,0.154
		c-6.461-17.602-9.641-36.017-11.32-54.634c-0.918-10.154-1.322-20.35-1.586-30.54c-0.016-0.76-0.043-1.53-0.071-2.297
		c-3.91-5.187-7.441-11.4-8.972-17.723L151.962,437.938z"/>
	<path clip-path="url(#SVGID_2_)" fill="#FFFFFF" d="M117.197,512.713c3.761,2.607,7.085,5.788,10.861,8.406
		c2.846,1.974,5.825,3.753,8.848,5.453c-2.64-2.48-5.144-5.236-7.339-8.093l0.321-0.247c3.08,2.425,5.467,5.766,8.06,8.685
		l0.025,0.261c1.271,0.703,2.55,1.398,3.832,2.082c5.803,3.098,11.827,5.843,17.696,8.854c-3.587-3.042-6.675-6.626-10.458-9.48
		c-0.248-0.188-0.041-0.555,0.247-0.422c4.918,2.276,8.305,7.057,12.131,10.729l0.079,0.203c2.232,1.182,4.438,2.409,6.588,3.724
		c0.381,0.23,0.049,0.763-0.339,0.581c-9.424-4.395-18.869-8.893-28.052-13.775c-7.821-4.154-17.631-9.166-22.986-16.476
		C116.505,512.912,116.912,512.515,117.197,512.713"/>
	<path clip-path="url(#SVGID_2_)" fill="#FFFFFF" d="M177.851,540.281c1.312-0.853,2.605-1.724,3.9-2.597l0.003-0.021
		c1.982-3.811,4.766-7.23,6.778-11.087c2.246-4.302,4.093-8.907,5.326-13.608l0.361,0.101c-0.738,4.942-2.707,9.514-4.866,13.991
		c-1.386,2.863-3.015,6.382-5.239,9.006c4.728-3.27,9.315-6.697,13.685-10.41c3.085-8.269,6.3-16.492,9.394-24.76
		c0.111-0.299,0.578-0.184,0.486,0.131c-2.374,8.006-5.046,16.246-8.827,23.739c2.393-2.072,4.721-4.226,6.969-6.494
		c2.439-2.455,4.715-5.057,6.863-7.762l-0.103-0.229c1.396-5.377,3.425-10.867,5.404-16.063l0.334,0.093
		c-1.686,4.854-2.466,10.519-4.82,15.14c1.485-1.931,2.925-3.899,4.266-5.934c3.088-4.685,4.652-10.032,7.485-14.771
		c0.147-0.25,0.614-0.163,0.581,0.159c-0.475,4.87-3.623,9.855-6.108,13.954c-3.324,5.494-7.498,10.47-11.892,15.127
		c-6.35,6.738-13.712,12.952-21.634,18.015c2.857-0.245,5.665-0.331,8.53-1.07c3.737-0.962,7.205-2.887,10.578-4.71
		c0.274-0.149,0.506,0.25,0.245,0.422c-5.856,3.772-13.55,7.563-20.752,6.208c-2.205,1.36-4.44,2.656-6.719,3.827
		C177.819,540.812,177.604,540.444,177.851,540.281"/>
	<path clip-path="url(#SVGID_2_)" fill="#FFFFFF" d="M142.666,482.761c4.114,6.051,6.944,13.106,10.488,19.513
		c4.09,7.396,8.808,14.18,14.212,20.676l-0.233,0.233c-5.614-5.529-9.937-12.221-13.911-18.983
		c-3.965-6.749-8.182-13.938-10.971-21.26C142.152,482.685,142.527,482.565,142.666,482.761"/>
	<path clip-path="url(#SVGID_2_)" fill="#FFFFFF" d="M144.667,453.3c5.977,11.404,10.586,23.177,17.387,34.173l-0.297,0.231
		c-7.97-9.767-12.753-22.683-17.492-34.235L144.667,453.3z"/>
	<path clip-path="url(#SVGID_2_)" fill="#FFFFFF" d="M134.458,531.004c2.493,0.468,4.905,1.363,7.295,2.2
		c2.68,0.935,5.437,1.542,8.134,2.396l-0.049,0.386c-5.084-0.092-10.796-2.868-15.434-4.783L134.458,531.004z"/>
	<path clip-path="url(#SVGID_2_)" fill="#FFFFFF" d="M117.737,517.518c1.502,0.564,2.83,1.54,4.256,2.276
		c1.523,0.786,3.058,1.505,4.519,2.4c0.22,0.133,0.076,0.526-0.182,0.429c-2.857-1.103-6.814-2.319-8.783-4.777L117.737,517.518z"/>
	<path clip-path="url(#SVGID_2_)" fill="#FFFFFF" d="M208.019,518.229c2.577-1.78,5.418-3.117,7.984-4.932
		c2.917-2.061,5.53-4.587,7.988-7.164c0.241-0.256,0.594,0.117,0.377,0.375c-4.076,4.878-9.885,10.382-16.216,12.036
		L208.019,518.229z"/>
	<path clip-path="url(#SVGID_2_)" fill="#99CCE0" d="M282.958,526.751c-17.171-7.183-35.95,11.059-35.95,11.059
		s16.099-16.631,16.436-40.242c0.243-16.817-14.593-41.253-19.806-42.089c-5.215-0.835-19.472,14.88-22.921,44.774
		c-1.61,13.951,5.379,34.92,5.379,34.92s-12.356-28.482-38.763-29.02c-2.032,6.976,5.156,22.296,10.541,31.39
		c4.674,7.891,16.403,21.732,41.802,18.67C270.95,552.439,283.347,526.914,282.958,526.751"/>
	<path clip-path="url(#SVGID_2_)" fill="#FFFFFF" d="M249.598,467.469c-2.121,4.628-4.306,9.125-6.971,13.455
		c0.235-7.119,0.598-14.395,0.05-21.453c-0.05-0.64-0.944-0.64-0.994,0c-0.331,4.254-0.313,8.564-0.257,12.872
		c-0.485-0.91-0.909-1.849-1.236-2.841c-0.5-1.532-0.337-3.095-0.524-4.663l-0.333-0.046c-1.151,2.818,0.3,6.197,2.106,8.535
		c0.042,2.953,0.091,5.9,0.048,8.827c-0.107,7.302-0.392,14.599-0.894,21.888c-2.722-7.972-6.175-15.53-8.44-23.689l-0.343,0.043
		c1.092,8.38,4.995,16.666,8.598,24.242l0.141,0.083l-0.028,0.468c-0.672,9.35-1.797,18.727-3.69,27.93
		c-5.139-8.668-8.592-17.414-11.653-27.012c-0.07-0.22-0.377-0.129-0.337,0.094c1.601,9.351,5.855,20.031,11.82,27.471l0.052,0.026
		c-1.277,6.101-2.891,12.121-4.951,18.004c-0.101,0.285,0.343,0.402,0.448,0.124c5.176-14.102,7.723-28.854,9.068-43.77
		c0.735-8.135,1.06-16.303,1.271-24.466c0.013-0.609,0.035-1.227,0.056-1.84c3.133-4.156,5.962-9.134,7.189-14.199L249.598,467.469z
		"/>
	<path clip-path="url(#SVGID_2_)" fill="#FFFFFF" d="M277.449,527.373c-3.013,2.089-5.676,4.637-8.701,6.734
		c-2.28,1.582-4.667,3.007-7.088,4.368c2.115-1.986,4.121-4.194,5.879-6.483l-0.257-0.198c-2.467,1.943-4.38,4.619-6.458,6.958
		l-0.019,0.209c-1.018,0.563-2.043,1.12-3.07,1.669c-4.65,2.48-9.476,4.68-14.177,7.093c2.874-2.437,5.348-5.309,8.378-7.596
		c0.199-0.15,0.033-0.444-0.197-0.337c-3.941,1.823-6.654,5.652-9.719,8.594l-0.064,0.163c-1.788,0.947-3.555,1.93-5.278,2.983
		c-0.304,0.185-0.039,0.611,0.272,0.466c7.55-3.521,15.117-7.124,22.473-11.036c6.266-3.328,14.125-7.343,18.415-13.199
		C278.004,527.532,277.677,527.215,277.449,527.373"/>
	<path clip-path="url(#SVGID_2_)" fill="#FFFFFF" d="M228.856,549.459c-1.051-0.683-2.087-1.382-3.124-2.08l-0.003-0.017
		c-1.588-3.054-3.818-5.792-5.43-8.883c-1.8-3.445-3.279-7.136-4.267-10.901l-0.289,0.08c0.592,3.96,2.169,7.622,3.899,11.21
		c1.109,2.293,2.415,5.111,4.197,7.214c-3.788-2.619-7.463-5.365-10.964-8.34c-2.471-6.624-5.047-13.213-7.526-19.835
		c-0.089-0.24-0.463-0.148-0.389,0.104c1.902,6.414,4.042,13.016,7.071,19.019c-1.917-1.66-3.781-3.386-5.583-5.202
		c-1.954-1.967-3.777-4.051-5.498-6.22l0.083-0.182c-1.119-4.308-2.744-8.707-4.33-12.869l-0.267,0.074
		c1.351,3.888,1.975,8.426,3.861,12.129c-1.19-1.547-2.343-3.124-3.418-4.754c-2.473-3.753-3.727-8.037-5.996-11.834
		c-0.117-0.2-0.492-0.13-0.466,0.129c0.381,3.901,2.903,7.896,4.894,11.179c2.663,4.401,6.007,8.388,9.527,12.118
		c5.087,5.398,10.985,10.377,17.332,14.433c-2.289-0.196-4.539-0.266-6.834-0.857c-2.994-0.771-5.772-2.313-8.474-3.772
		c-0.22-0.12-0.405,0.199-0.196,0.337c4.691,3.022,10.854,6.06,16.624,4.974c1.767,1.09,3.558,2.128,5.383,3.066
		C228.883,549.883,229.055,549.59,228.856,549.459"/>
	<path clip-path="url(#SVGID_2_)" fill="#FFFFFF" d="M257.045,503.377c-3.296,4.848-5.563,10.5-8.403,15.633
		c-3.276,5.924-7.055,11.359-11.385,16.564l0.187,0.187c4.497-4.43,7.961-9.791,11.144-15.209c3.177-5.406,6.555-11.166,8.79-17.031
		C257.456,503.316,257.156,503.221,257.045,503.377"/>
	<path clip-path="url(#SVGID_2_)" fill="#FFFFFF" d="M255.441,479.775c-4.789,9.136-8.481,18.567-13.929,27.377l0.237,0.185
		c6.386-7.824,10.217-18.171,14.014-27.427L255.441,479.775z"/>
	<path clip-path="url(#SVGID_2_)" fill="#FFFFFF" d="M263.62,542.026c-1.997,0.374-3.929,1.092-5.844,1.763
		c-2.147,0.748-4.356,1.235-6.516,1.918l0.039,0.31c4.073-0.074,8.648-2.297,12.364-3.831L263.62,542.026z"/>
	<path clip-path="url(#SVGID_2_)" fill="#FFFFFF" d="M277.016,531.222c-1.203,0.453-2.267,1.234-3.409,1.823
		c-1.221,0.631-2.45,1.206-3.621,1.924c-0.176,0.106-0.061,0.422,0.146,0.343c2.289-0.883,5.459-1.857,7.036-3.826L277.016,531.222z
		"/>
	<path clip-path="url(#SVGID_2_)" fill="#FFFFFF" d="M204.688,531.792c-2.065-1.427-4.34-2.498-6.397-3.951
		c-2.336-1.651-4.429-3.675-6.398-5.739c-0.194-0.205-0.477,0.094-0.303,0.3c3.266,3.907,7.92,8.317,12.991,9.644L204.688,531.792z"
		/>
	<path clip-path="url(#SVGID_2_)" fill="#99CCE0" d="M505.827,511.937c-21.433-8.965-44.873,13.805-44.873,13.805
		s20.094-20.76,20.515-50.231c0.305-20.993-18.215-51.494-24.722-52.537c-6.51-1.043-24.307,18.572-28.611,55.888
		c-2.01,17.414,6.714,43.589,6.714,43.589s-15.424-35.553-48.385-36.223c-2.537,8.707,6.437,27.831,13.158,39.18
		c5.833,9.852,20.475,27.129,52.178,23.305C490.838,544.002,506.313,512.141,505.827,511.937"/>
	<path clip-path="url(#SVGID_2_)" fill="#FFFFFF" d="M464.186,437.938c-2.648,5.777-5.375,11.391-8.701,16.796
		c0.293-8.887,0.747-17.969,0.063-26.778c-0.063-0.799-1.179-0.799-1.241,0c-0.413,5.309-0.392,10.689-0.32,16.065
		c-0.605-1.135-1.136-2.308-1.543-3.546c-0.625-1.912-0.421-3.861-0.655-5.819l-0.414-0.058c-1.438,3.518,0.375,7.735,2.629,10.654
		c0.051,3.685,0.113,7.365,0.06,11.018c-0.134,9.114-0.489,18.224-1.117,27.321c-3.396-9.951-7.707-19.385-10.534-29.57
		l-0.429,0.055c1.363,10.459,6.235,20.803,10.732,30.26l0.177,0.103l-0.035,0.584c-0.84,11.671-2.243,23.375-4.605,34.863
		c-6.415-10.819-10.726-21.738-14.547-33.717c-0.087-0.274-0.47-0.16-0.421,0.117c1.999,11.672,7.309,25.004,14.755,34.29
		l0.065,0.031c-1.594,7.615-3.609,15.131-6.181,22.475c-0.125,0.354,0.429,0.502,0.559,0.154
		c6.461-17.602,9.641-36.017,11.32-54.634c0.918-10.154,1.322-20.35,1.586-30.54c0.016-0.76,0.043-1.53,0.071-2.297
		c3.909-5.187,7.44-11.4,8.972-17.723L464.186,437.938z"/>
	<path clip-path="url(#SVGID_2_)" fill="#FFFFFF" d="M498.951,512.713c-3.762,2.607-7.086,5.788-10.861,8.406
		c-2.846,1.974-5.825,3.753-8.849,5.453c2.641-2.48,5.145-5.236,7.34-8.093l-0.321-0.247c-3.08,2.425-5.467,5.766-8.061,8.685
		l-0.024,0.261c-1.271,0.703-2.55,1.398-3.832,2.082c-5.803,3.098-11.827,5.843-17.696,8.854c3.587-3.042,6.675-6.626,10.458-9.48
		c0.248-0.188,0.041-0.555-0.247-0.422c-4.918,2.276-8.305,7.057-12.131,10.729l-0.079,0.203c-2.231,1.182-4.438,2.409-6.588,3.724
		c-0.381,0.23-0.049,0.763,0.339,0.581c9.424-4.395,18.869-8.893,28.053-13.775c7.82-4.154,17.63-9.166,22.985-16.476
		C499.643,512.912,499.235,512.515,498.951,512.713"/>
	<path clip-path="url(#SVGID_2_)" fill="#FFFFFF" d="M438.296,540.281c-1.312-0.853-2.604-1.724-3.899-2.597l-0.004-0.021
		c-1.981-3.811-4.766-7.23-6.777-11.087c-2.246-4.302-4.093-8.907-5.326-13.608l-0.361,0.101c0.738,4.942,2.707,9.514,4.866,13.991
		c1.386,2.863,3.015,6.382,5.239,9.006c-4.729-3.27-9.315-6.697-13.686-10.41c-3.085-8.269-6.3-16.492-9.394-24.76
		c-0.111-0.299-0.578-0.184-0.486,0.131c2.374,8.006,5.046,16.246,8.827,23.739c-2.393-2.072-4.721-4.226-6.969-6.494
		c-2.439-2.455-4.715-5.057-6.863-7.762l0.104-0.229c-1.396-5.377-3.426-10.867-5.404-16.063l-0.334,0.093
		c1.686,4.854,2.466,10.519,4.82,15.14c-1.485-1.931-2.926-3.899-4.267-5.934c-3.088-4.685-4.651-10.032-7.484-14.771
		c-0.147-0.25-0.614-0.163-0.581,0.159c0.475,4.87,3.623,9.855,6.107,13.954c3.324,5.494,7.498,10.47,11.893,15.127
		c6.35,6.738,13.712,12.952,21.634,18.015c-2.857-0.245-5.665-0.331-8.53-1.07c-3.737-0.962-7.205-2.887-10.578-4.71
		c-0.273-0.149-0.505,0.25-0.245,0.422c5.856,3.772,13.551,7.563,20.752,6.208c2.205,1.36,4.44,2.656,6.72,3.827
		C438.329,540.812,438.543,540.444,438.296,540.281"/>
	<path clip-path="url(#SVGID_2_)" fill="#FFFFFF" d="M473.481,482.761c-4.113,6.051-6.943,13.106-10.487,19.513
		c-4.09,7.396-8.809,14.18-14.212,20.676l0.232,0.233c5.614-5.529,9.938-12.221,13.911-18.983
		c3.965-6.749,8.182-13.938,10.971-21.26C473.995,482.685,473.62,482.565,473.481,482.761"/>
	<path clip-path="url(#SVGID_2_)" fill="#FFFFFF" d="M471.48,453.3c-5.978,11.404-10.586,23.177-17.387,34.173l0.296,0.231
		c7.971-9.767,12.754-22.683,17.493-34.235L471.48,453.3z"/>
	<path clip-path="url(#SVGID_2_)" fill="#FFFFFF" d="M481.689,531.004c-2.493,0.468-4.905,1.363-7.295,2.2
		c-2.681,0.935-5.438,1.542-8.135,2.396l0.049,0.386c5.084-0.092,10.797-2.868,15.435-4.783L481.689,531.004z"/>
	<path clip-path="url(#SVGID_2_)" fill="#FFFFFF" d="M498.41,517.518c-1.502,0.564-2.83,1.54-4.256,2.276
		c-1.523,0.786-3.058,1.505-4.52,2.4c-0.22,0.133-0.075,0.526,0.183,0.429c2.856-1.103,6.813-2.319,8.783-4.777L498.41,517.518z"/>
	<path clip-path="url(#SVGID_2_)" fill="#FFFFFF" d="M408.129,518.229c-2.577-1.78-5.418-3.117-7.984-4.932
		c-2.917-2.061-5.529-4.587-7.988-7.164c-0.24-0.256-0.594,0.117-0.377,0.375c4.076,4.878,9.886,10.382,16.217,12.036
		L408.129,518.229z"/>
	<path clip-path="url(#SVGID_2_)" fill="#99CCE0" d="M333.189,526.751c17.171-7.183,35.95,11.059,35.95,11.059
		s-16.1-16.631-16.437-40.242c-0.242-16.817,14.594-41.253,19.807-42.089c5.215-0.835,19.472,14.88,22.921,44.774
		c1.609,13.951-5.379,34.92-5.379,34.92s12.355-28.482,38.763-29.02c2.032,6.976-5.156,22.296-10.541,31.39
		c-4.674,7.891-16.403,21.732-41.802,18.67C345.197,552.439,332.801,526.914,333.189,526.751"/>
	<path clip-path="url(#SVGID_2_)" fill="#FFFFFF" d="M366.55,467.469c2.121,4.628,4.306,9.125,6.971,13.455
		c-0.234-7.119-0.598-14.395-0.05-21.453c0.05-0.64,0.944-0.64,0.994,0c0.331,4.254,0.313,8.564,0.257,12.872
		c0.485-0.91,0.909-1.849,1.236-2.841c0.5-1.532,0.337-3.095,0.523-4.663l0.333-0.046c1.151,2.818-0.3,6.197-2.105,8.535
		c-0.042,2.953-0.091,5.9-0.048,8.827c0.106,7.302,0.392,14.599,0.894,21.888c2.723-7.972,6.175-15.53,8.44-23.689l0.344,0.043
		c-1.093,8.38-4.996,16.666-8.599,24.242l-0.142,0.083l0.028,0.468c0.672,9.35,1.797,18.727,3.689,27.93
		c5.14-8.668,8.593-17.414,11.653-27.012c0.07-0.22,0.377-0.129,0.338,0.094c-1.602,9.351-5.855,20.031-11.82,27.471l-0.053,0.026
		c1.277,6.101,2.892,12.121,4.951,18.004c0.102,0.285-0.343,0.402-0.448,0.124c-5.176-14.102-7.723-28.854-9.067-43.77
		c-0.735-8.135-1.061-16.303-1.271-24.466c-0.013-0.609-0.035-1.227-0.056-1.84c-3.133-4.156-5.962-9.134-7.189-14.199
		L366.55,467.469z"/>
	<path clip-path="url(#SVGID_2_)" fill="#FFFFFF" d="M338.698,527.373c3.013,2.089,5.676,4.637,8.701,6.734
		c2.28,1.582,4.667,3.007,7.088,4.368c-2.115-1.986-4.121-4.194-5.879-6.483l0.257-0.198c2.467,1.943,4.38,4.619,6.458,6.958
		l0.02,0.209c1.018,0.563,2.043,1.12,3.069,1.669c4.65,2.48,9.477,4.68,14.178,7.093c-2.874-2.437-5.349-5.309-8.378-7.596
		c-0.198-0.15-0.033-0.444,0.196-0.337c3.941,1.823,6.654,5.652,9.719,8.594l0.064,0.163c1.788,0.947,3.555,1.93,5.278,2.983
		c0.304,0.185,0.039,0.611-0.272,0.466c-7.55-3.521-15.117-7.124-22.473-11.036c-6.267-3.328-14.125-7.343-18.415-13.199
		C338.144,527.532,338.471,527.215,338.698,527.373"/>
	<path clip-path="url(#SVGID_2_)" fill="#FFFFFF" d="M387.291,549.459c1.051-0.683,2.087-1.382,3.124-2.08l0.003-0.017
		c1.588-3.054,3.818-5.792,5.43-8.883c1.8-3.445,3.279-7.136,4.268-10.901l0.289,0.08c-0.593,3.96-2.17,7.622-3.899,11.21
		c-1.109,2.293-2.415,5.111-4.197,7.214c3.788-2.619,7.463-5.365,10.964-8.34c2.472-6.624,5.047-13.213,7.526-19.835
		c0.089-0.24,0.463-0.148,0.389,0.104c-1.901,6.414-4.042,13.016-7.07,19.019c1.917-1.66,3.78-3.386,5.583-5.202
		c1.954-1.967,3.776-4.051,5.498-6.22l-0.083-0.182c1.118-4.308,2.743-8.707,4.329-12.869l0.268,0.074
		c-1.352,3.888-1.975,8.426-3.861,12.129c1.19-1.547,2.344-3.124,3.418-4.754c2.474-3.753,3.728-8.037,5.996-11.834
		c0.117-0.2,0.492-0.13,0.466,0.129c-0.381,3.901-2.902,7.896-4.894,11.179c-2.663,4.401-6.007,8.388-9.527,12.118
		c-5.087,5.398-10.984,10.377-17.332,14.433c2.289-0.196,4.539-0.266,6.834-0.857c2.994-0.771,5.772-2.313,8.475-3.772
		c0.22-0.12,0.404,0.199,0.195,0.337c-4.69,3.022-10.854,6.06-16.624,4.974c-1.767,1.09-3.558,2.128-5.383,3.066
		C387.265,549.883,387.093,549.59,387.291,549.459"/>
	<path clip-path="url(#SVGID_2_)" fill="#FFFFFF" d="M359.103,503.377c3.296,4.848,5.563,10.5,8.403,15.633
		c3.275,5.924,7.055,11.359,11.385,16.564l-0.188,0.187c-4.497-4.43-7.961-9.791-11.144-15.209
		c-3.177-5.406-6.556-11.166-8.79-17.031C358.691,503.316,358.991,503.221,359.103,503.377"/>
	<path clip-path="url(#SVGID_2_)" fill="#FFFFFF" d="M360.706,479.775c4.789,9.136,8.48,18.567,13.929,27.377l-0.237,0.185
		c-6.386-7.824-10.217-18.171-14.014-27.427L360.706,479.775z"/>
	<path clip-path="url(#SVGID_2_)" fill="#FFFFFF" d="M352.527,542.026c1.997,0.374,3.929,1.092,5.844,1.763
		c2.147,0.748,4.356,1.235,6.517,1.918l-0.039,0.31c-4.073-0.074-8.648-2.297-12.364-3.831L352.527,542.026z"/>
	<path clip-path="url(#SVGID_2_)" fill="#FFFFFF" d="M339.132,531.222c1.202,0.453,2.267,1.234,3.408,1.823
		c1.222,0.631,2.45,1.206,3.621,1.924c0.177,0.106,0.062,0.422-0.146,0.343c-2.289-0.883-5.459-1.857-7.036-3.826L339.132,531.222z"
		/>
	<path clip-path="url(#SVGID_2_)" fill="#FFFFFF" d="M411.459,531.792c2.064-1.427,4.341-2.498,6.396-3.951
		c2.336-1.651,4.43-3.675,6.398-5.739c0.194-0.205,0.477,0.094,0.303,0.3c-3.266,3.907-7.92,8.317-12.99,9.644L411.459,531.792z"/>
	<path clip-path="url(#SVGID_2_)" fill="#BDDEEF" d="M269.066,321.978c0,27.107-17.436,49.082-38.943,49.082
		c-21.508,0-38.944-21.975-38.944-49.082c0-27.107,17.436-49.082,38.944-49.082C251.63,272.896,269.066,294.871,269.066,321.978"/>
	<path clip-path="url(#SVGID_2_)" fill="#BDDEEF" d="M488.597,244.733c0,9.841-6.33,17.819-14.139,17.819
		s-14.139-7.978-14.139-17.819c0-9.841,6.33-17.819,14.139-17.819S488.597,234.892,488.597,244.733"/>
	<path clip-path="url(#SVGID_2_)" fill="#BDDEEF" d="M491.475,558.535c-46.313,31.491-99.907,47.984-145.23,53.03
		c-3.711,0.413-7.43,0.654-11.163,0.731c-9.383,0.193-18.854,0.313-28.411,0.358c-4.97,0.024-9.939-0.235-14.875-0.823
		c-46.459-5.532-105.306-27.264-154.49-62.946c18.047-8.304,37.948-15.771,59.711-21.632
		C322.424,493.479,435.07,533.158,491.475,558.535"/>
	<path clip-path="url(#SVGID_2_)" fill="#BDDEEF" d="M173.475,199.657c0,1.473-0.947,2.667-2.116,2.667
		c-1.168,0-2.116-1.194-2.116-2.667s0.948-2.667,2.116-2.667C172.528,196.99,173.475,198.184,173.475,199.657"/>
	<path clip-path="url(#SVGID_2_)" fill="#BDDEEF" d="M191.235,204.697c0,1.473-0.947,2.667-2.116,2.667
		c-1.168,0-2.116-1.194-2.116-2.667c0-1.473,0.948-2.667,2.116-2.667C190.289,202.03,191.235,203.225,191.235,204.697"/>
	<path clip-path="url(#SVGID_2_)" fill="#BDDEEF" d="M250.59,125.038c0,1.473-0.947,2.667-2.116,2.667
		c-1.168,0-2.116-1.194-2.116-2.667s0.948-2.667,2.116-2.667C249.644,122.371,250.59,123.564,250.59,125.038"/>
	<path clip-path="url(#SVGID_2_)" fill="#BDDEEF" d="M527.508,361.475c0,1.474-0.947,2.667-2.116,2.667
		c-1.168,0-2.116-1.193-2.116-2.667c0-1.473,0.948-2.667,2.116-2.667C526.561,358.808,527.508,360.002,527.508,361.475"/>
	<path clip-path="url(#SVGID_2_)" fill="#BDDEEF" d="M534.713,354.252c0,1.474-0.947,2.667-2.116,2.667
		c-1.168,0-2.116-1.193-2.116-2.667c0-1.473,0.948-2.667,2.116-2.667C533.766,351.585,534.713,352.779,534.713,354.252"/>
	<path clip-path="url(#SVGID_2_)" fill="#BDDEEF" d="M187.003,191.004c0,2.372-1.526,4.295-3.408,4.295
		c-1.881,0-3.407-1.923-3.407-4.295c0-2.372,1.526-4.295,3.407-4.295C185.478,186.709,187.003,188.632,187.003,191.004"/>
	
		<ellipse clip-path="url(#SVGID_2_)" fill="none" stroke="#FFFFFF" stroke-width="1.515" stroke-miterlimit="10" cx="175.774" cy="349.243" rx="4.415" ry="5.563"/>
	
		<ellipse clip-path="url(#SVGID_2_)" fill="none" stroke="#FFFFFF" stroke-width="1.515" stroke-miterlimit="10" cx="425.316" cy="111.949" rx="4.415" ry="5.564"/>
	
		<ellipse clip-path="url(#SVGID_2_)" fill="none" stroke="#FFFFFF" stroke-width="1.515" stroke-miterlimit="10" cx="208.698" cy="94.145" rx="14.077" ry="17.741"/>
	
		<ellipse clip-path="url(#SVGID_2_)" fill="none" stroke="#FFFFFF" stroke-width="1.515" stroke-miterlimit="10" cx="93.24" cy="410.767" rx="28.844" ry="36.354"/>
	<path clip-path="url(#SVGID_2_)" fill="#BC956B" d="M286.253,515.856c1.549,4.954,0.017,10.442-2.751,14.833
		s-6.668,7.925-10.364,11.569c-3.696,3.644-7.309,7.568-9.267,12.375c-0.658,1.614-1.07,3.604-0.006,4.986
		c1.008,1.306,2.889,1.483,4.538,1.433c7.932-0.246,15.589-3.258,22.298-7.497c3.818-2.413,7.384-3.173,9.234-7.294
		c1.691-3.765,1.785-10.272,1.718-14.399c-0.064-3.841-0.127-7.683-0.19-11.523c-0.017-1.029-0.09-2.187-0.863-2.865
		c-0.542-0.477-1.303-0.595-2.019-0.693c-4.214-0.577-8.428-1.154-12.642-1.731L286.253,515.856z"/>
	<path clip-path="url(#SVGID_2_)" fill="#987957" d="M285.063,527.801c1.711-3.775,2.418-8.025,1.189-11.946l-0.313-0.804
		c4.21,0.578,8.428,1.149,12.637,1.728c0.723,0.097,1.479,0.217,2.025,0.699c0.771,0.675,0.844,1.832,0.859,2.859
		c0.041,2.483,0.081,4.974,0.129,7.464c-2.491,0.29-5.299,0.484-8.371,0.48C290.231,528.276,287.498,528.085,285.063,527.801"/>
	<path clip-path="url(#SVGID_2_)" fill="#C6C6C6" d="M317.426,372.775c0.008,0.94,0,1.88-0.008,2.82c0,0.313,0,0.627-0.009,0.94
		c-0.008,1.204-0.016,2.418-0.031,3.623c-0.017,1.551-0.04,3.108-0.065,4.659c-0.015,0.9-0.031,1.792-0.047,2.691
		c-0.025,1.31-0.057,2.62-0.089,3.929c-0.008,0.475-0.024,0.94-0.04,1.414c-0.008,0.402-0.017,0.795-0.024,1.197
		c-0.169,6.371-0.41,12.742-0.723,19.113c-0.049,0.939-0.089,1.872-0.146,2.812c-0.023,0.498-0.048,0.996-0.08,1.494
		c-0.04,0.788-0.088,1.583-0.129,2.379c-0.008,0.184-0.016,0.369-0.031,0.554c-0.049,0.835-0.098,1.663-0.145,2.499
		c-0.161,2.691-0.33,5.383-0.515,8.074c-0.057,0.763-0.104,1.534-0.161,2.298c-0.063,0.892-0.128,1.775-0.192,2.659
		c-0.112,1.422-0.217,2.844-0.33,4.266c0,0.049-0.008,0.104-0.008,0.153c-0.12,1.494-0.241,2.972-0.369,4.45
		c-0.129,1.535-0.265,3.069-0.401,4.604c-0.032,0.458-0.08,0.908-0.121,1.366c-0.097,1.052-0.192,2.089-0.289,3.133
		c-0.257,2.74-0.53,5.447-0.812,8.132c-0.089,0.835-0.177,1.671-0.265,2.506c-0.056,0.538-0.113,1.068-0.169,1.599
		c-0.056,0.554-0.12,1.101-0.185,1.647c-0.057,0.514-0.112,1.02-0.168,1.525c-0.113,1.021-0.233,2.049-0.354,3.062
		c0,0.023-0.008,0.057-0.008,0.089c-0.176,1.494-0.353,2.988-0.53,4.491c-0.241,2.04-0.499,4.064-0.755,6.073
		c-0.105,0.852-0.217,1.688-0.33,2.53c-0.056,0.426-0.112,0.844-0.168,1.262c-0.169,1.285-0.346,2.563-0.523,3.841
		c-0.088,0.658-0.176,1.309-0.265,1.96c-0.12,0.867-0.249,1.735-0.37,2.603c-0.016,0.097-0.023,0.193-0.04,0.289
		c-0.136,0.957-0.273,1.913-0.409,2.861c-0.064,0.466-0.137,0.932-0.209,1.397c-0.217,1.47-0.442,2.933-0.659,4.395
		c-0.755,4.893-1.542,9.777-2.37,14.646c-0.209,1.205-0.418,2.419-0.627,3.624c-0.112,0.667-0.225,1.325-0.345,1.984h-17.989
		c-3.928-11.569-8.146-25.982-11.617-42.822c-4.475-21.724-7.688-47.489-7.343-76.412c0-0.257,0.008-0.514,0.008-0.763
		c0.016-1.052,0.04-2.089,0.056-3.133c0.041-1.647,0.089-3.286,0.145-4.901c0.008-0.072,0.008-0.153,0.008-0.225
		c0.819-21.757,3.527-40.95,6.748-56.985c0.009-0.033,0.017-0.065,0.025-0.097l37.408-1.027c0.952-0.028,1.899-0.055,2.834-0.082
		c0.86-0.024,1.72-0.048,2.564-0.072h0.104c0.072,2.018,0.136,4.033,0.192,6.05c0.024,0.893,0.049,1.791,0.073,2.691
		c0.016,0.378,0.023,0.747,0.031,1.125c0.017,0.61,0.032,1.221,0.049,1.832c0.031,1.333,0.057,2.675,0.079,4.017
		c0.033,1.632,0.058,3.263,0.073,4.901c0.017,1.044,0.024,2.088,0.032,3.141c0.008,0.104,0.008,0.209,0,0.313
		C317.434,365.528,317.441,369.129,317.426,372.775"/>
	<path clip-path="url(#SVGID_2_)" fill="#DDDDDD" d="M317.441,369.988c0,0.932,0,1.855-0.016,2.788c0.008,0.939,0,1.88-0.008,2.819
		c0,0.313,0,0.626-0.009,0.94c-0.008,1.205-0.016,2.418-0.031,3.623c-0.017,1.551-0.04,3.108-0.065,4.66
		c-0.015,0.899-0.031,1.791-0.048,2.69c-0.024,1.311-0.056,2.619-0.088,3.929c-0.017,0.868-0.04,1.743-0.064,2.611
		c-0.169,6.371-0.41,12.742-0.723,19.113c-0.049,0.939-0.089,1.872-0.146,2.812c-0.023,0.498-0.048,0.996-0.079,1.494
		c-0.04,0.788-0.09,1.583-0.13,2.378c-0.008,0.186-0.016,0.37-0.031,0.556c-0.049,0.835-0.098,1.662-0.145,2.498
		c-0.161,2.691-0.33,5.383-0.515,8.074c-0.056,0.764-0.104,1.534-0.161,2.297c-0.064,0.893-0.128,1.776-0.192,2.66
		c-0.112,1.422-0.217,2.845-0.33,4.267c-0.119,1.534-0.249,3.068-0.377,4.603c-0.129,1.535-0.265,3.069-0.401,4.604
		c-0.378,4.21-0.788,8.42-1.222,12.629c-0.089,0.836-0.177,1.671-0.265,2.507c-0.121,1.077-0.232,2.161-0.354,3.246
		c-0.168,1.525-0.345,3.053-0.522,4.587c0,0.023-0.008,0.056-0.008,0.089c-0.177,1.494-0.354,2.988-0.53,4.491
		c-0.354,2.868-0.715,5.735-1.085,8.604c-0.056,0.427-0.112,0.845-0.168,1.262c-0.169,1.285-0.346,2.563-0.523,3.841
		c-0.209,1.525-0.418,3.045-0.635,4.563c-0.016,0.098-0.024,0.193-0.04,0.289c-0.201,1.422-0.409,2.844-0.618,4.258
		c-0.217,1.472-0.442,2.934-0.659,4.396c-0.755,4.893-1.542,9.777-2.37,14.646c-0.209,1.205-0.418,2.418-0.627,3.624H289.9
		c-1.301,0-2.474-0.876-3.028-2.25c-0.04-0.096-0.081-0.192-0.113-0.289c-13.594-31.711-20.061-74.42-19.732-115.458
		c0.016-2.69,0.065-5.375,0.145-8.05c0.008-0.071,0.008-0.152,0.008-0.225c0.611-20.117,2.876-39.616,6.748-56.986
		c12.638-0.369,27.308-0.835,40.267-1.205c0.86-0.023,1.721-0.048,2.563-0.071h0.104c0.072,2.016,0.137,4.032,0.192,6.05
		c0.024,0.891,0.049,1.791,0.073,2.69c0.016,0.378,0.023,0.747,0.031,1.125c0.049,1.952,0.089,3.904,0.129,5.85
		c0.032,1.63,0.057,3.261,0.072,4.899c0.017,1.045,0.024,2.089,0.032,3.143c0.002,0.023-0.001,0.048,0,0.07
		c0.013,1.341,0.031,2.68,0.04,4.019C317.441,367.152,317.441,368.566,317.441,369.988"/>
	<path clip-path="url(#SVGID_2_)" fill="#C6C6C6" d="M317.441,369.988c0,1.855-0.008,3.728-0.023,5.607c0,0.313,0,0.626-0.009,0.94
		c-0.097,11.439-0.458,23.299-1.148,35.559c-19.065-0.121-35.695-3.455-49.233-7.657c-0.016-0.008-0.04-0.008-0.056-0.016
		c0.016-1.052,0.04-2.089,0.056-3.133c0.041-1.647,0.089-3.286,0.145-4.901c0.008-0.071,0.008-0.152,0.008-0.225
		c0.611-20.117,2.876-39.616,6.748-56.986c0.009-0.032,0.017-0.063,0.025-0.096l37.408-1.027c0.952-0.027,1.899-0.055,2.834-0.082
		c0.86-0.023,1.721-0.048,2.563-0.071c0.321,7.663,0.546,15.594,0.635,23.757c0.008,0.104,0.008,0.209,0,0.313
		c0.016,1.253,0.032,2.516,0.04,3.776C317.441,367.152,317.441,368.566,317.441,369.988"/>
	<path clip-path="url(#SVGID_2_)" fill="#BC956B" d="M351.471,515.856c-1.549,4.954-0.018,10.442,2.751,14.833
		c2.768,4.391,6.668,7.925,10.364,11.569c3.695,3.644,7.309,7.568,9.267,12.375c0.658,1.614,1.07,3.604,0.006,4.986
		c-1.008,1.306-2.889,1.483-4.538,1.433c-7.932-0.246-15.589-3.258-22.298-7.497c-3.818-2.413-7.384-3.173-9.234-7.294
		c-1.69-3.765-1.784-10.272-1.718-14.399c0.064-3.841,0.127-7.683,0.19-11.523c0.017-1.029,0.09-2.187,0.862-2.865
		c0.542-0.477,1.304-0.595,2.02-0.693c4.214-0.577,8.428-1.154,12.642-1.731L351.471,515.856z"/>
	<path clip-path="url(#SVGID_2_)" fill="#987957" d="M352.66,527.801c-1.711-3.775-2.418-8.025-1.189-11.946l0.313-0.804
		c-4.21,0.578-8.428,1.149-12.638,1.728c-0.723,0.097-1.478,0.217-2.024,0.699c-0.771,0.675-0.845,1.832-0.859,2.859
		c-0.041,2.483-0.081,4.974-0.129,7.464c2.491,0.29,5.299,0.484,8.371,0.48C347.492,528.276,350.226,528.085,352.66,527.801"/>
	<path clip-path="url(#SVGID_2_)" fill="#C6C6C6" d="M320.298,372.775c-0.008,0.94,0,1.88,0.008,2.82c0,0.313,0,0.627,0.009,0.94
		c0.008,1.204,0.016,2.418,0.031,3.623c0.017,1.551,0.04,3.108,0.065,4.659c0.015,0.9,0.031,1.792,0.047,2.691
		c0.025,1.31,0.057,2.62,0.089,3.929c0.008,0.475,0.024,0.94,0.04,1.414c0.008,0.402,0.016,0.795,0.024,1.197
		c0.169,6.371,0.41,12.742,0.723,19.113c0.049,0.939,0.089,1.872,0.145,2.812c0.024,0.498,0.049,0.996,0.08,1.494
		c0.04,0.788,0.089,1.583,0.129,2.379c0.009,0.184,0.017,0.369,0.032,0.554c0.048,0.835,0.098,1.663,0.145,2.499
		c0.161,2.691,0.33,5.383,0.515,8.074c0.056,0.763,0.104,1.534,0.161,2.298c0.063,0.892,0.128,1.775,0.192,2.659
		c0.112,1.422,0.217,2.844,0.329,4.266c0,0.049,0.009,0.104,0.009,0.153c0.12,1.494,0.24,2.972,0.369,4.45
		c0.129,1.535,0.265,3.069,0.401,4.604c0.032,0.458,0.08,0.908,0.121,1.366c0.096,1.052,0.192,2.089,0.289,3.133
		c0.257,2.74,0.53,5.447,0.811,8.132c0.09,0.835,0.178,1.671,0.266,2.506c0.056,0.538,0.113,1.068,0.169,1.599
		c0.056,0.554,0.12,1.101,0.185,1.647c0.057,0.514,0.112,1.02,0.168,1.525c0.113,1.021,0.233,2.049,0.354,3.062
		c0,0.023,0.008,0.057,0.008,0.089c0.177,1.494,0.354,2.988,0.53,4.491c0.241,2.04,0.499,4.064,0.755,6.073
		c0.104,0.852,0.217,1.688,0.33,2.53c0.056,0.426,0.111,0.844,0.168,1.262c0.169,1.285,0.346,2.563,0.522,3.841
		c0.089,0.658,0.177,1.309,0.266,1.96c0.12,0.867,0.249,1.735,0.37,2.603c0.016,0.097,0.022,0.193,0.04,0.289
		c0.136,0.957,0.272,1.913,0.408,2.861c0.064,0.466,0.138,0.932,0.209,1.397c0.218,1.47,0.442,2.933,0.659,4.395
		c0.755,4.893,1.542,9.777,2.37,14.646c0.209,1.205,0.418,2.419,0.627,3.624c0.112,0.667,0.226,1.325,0.345,1.984H351.8
		c3.928-11.569,8.146-25.982,11.617-42.822c4.475-21.724,7.688-47.489,7.343-76.412c0-0.257-0.008-0.514-0.008-0.763
		c-0.016-1.052-0.04-2.089-0.056-3.133c-0.041-1.647-0.089-3.286-0.146-4.901c-0.008-0.072-0.008-0.153-0.008-0.225
		c-0.819-21.757-3.527-40.95-6.748-56.985c-0.009-0.033-0.017-0.065-0.025-0.097l-37.407-1.027
		c-0.952-0.028-1.899-0.055-2.834-0.082c-0.86-0.024-1.721-0.048-2.564-0.072h-0.104c-0.072,2.018-0.137,4.033-0.192,6.05
		c-0.025,0.893-0.049,1.791-0.073,2.691c-0.016,0.378-0.023,0.747-0.032,1.125c-0.016,0.61-0.031,1.221-0.048,1.832
		c-0.031,1.333-0.057,2.675-0.08,4.017c-0.032,1.632-0.057,3.263-0.072,4.901c-0.017,1.044-0.024,2.088-0.032,3.141
		c-0.008,0.104-0.008,0.209,0,0.313C320.29,365.528,320.282,369.129,320.298,372.775"/>
	<path clip-path="url(#SVGID_2_)" fill="#DDDDDD" d="M320.282,369.988c0,0.932,0,1.855,0.016,2.788c-0.008,0.939,0,1.88,0.008,2.819
		c0,0.313,0,0.626,0.008,0.94c0.009,1.205,0.017,2.418,0.032,3.623c0.017,1.551,0.04,3.108,0.065,4.66
		c0.015,0.899,0.03,1.791,0.048,2.69c0.023,1.311,0.056,2.619,0.088,3.929c0.016,0.868,0.04,1.743,0.064,2.611
		c0.169,6.371,0.409,12.742,0.723,19.113c0.049,0.939,0.089,1.872,0.145,2.812c0.024,0.498,0.049,0.996,0.08,1.494
		c0.04,0.788,0.089,1.583,0.129,2.378c0.009,0.186,0.017,0.37,0.032,0.556c0.048,0.835,0.097,1.662,0.145,2.498
		c0.16,2.691,0.33,5.383,0.515,8.074c0.056,0.764,0.104,1.534,0.161,2.297c0.063,0.893,0.128,1.776,0.191,2.66
		c0.113,1.422,0.218,2.845,0.33,4.267c0.12,1.534,0.249,3.068,0.377,4.603c0.13,1.535,0.266,3.069,0.402,4.604
		c0.378,4.21,0.788,8.42,1.221,12.629c0.089,0.836,0.178,1.671,0.266,2.507c0.121,1.077,0.232,2.161,0.354,3.246
		c0.168,1.525,0.345,3.053,0.522,4.587c0,0.023,0.008,0.056,0.008,0.089c0.177,1.494,0.353,2.988,0.53,4.491
		c0.354,2.868,0.715,5.735,1.085,8.604c0.056,0.427,0.111,0.845,0.168,1.262c0.169,1.285,0.346,2.563,0.522,3.841
		c0.209,1.525,0.418,3.045,0.636,4.563c0.016,0.098,0.023,0.193,0.039,0.289c0.2,1.422,0.409,2.844,0.618,4.258
		c0.218,1.472,0.442,2.934,0.659,4.396c0.756,4.893,1.542,9.777,2.37,14.646c0.209,1.205,0.418,2.418,0.627,3.624h14.357
		c1.301,0,2.474-0.876,3.027-2.25c0.04-0.096,0.081-0.192,0.113-0.289c13.594-31.711,20.061-74.42,19.732-115.458
		c-0.017-2.69-0.065-5.375-0.146-8.05c-0.008-0.071-0.008-0.152-0.008-0.225c-0.611-20.117-2.876-39.616-6.748-56.986
		c-12.638-0.369-27.308-0.835-40.267-1.205c-0.86-0.023-1.721-0.048-2.563-0.071h-0.105c-0.071,2.016-0.136,4.032-0.191,6.05
		c-0.025,0.891-0.049,1.791-0.073,2.69c-0.016,0.378-0.023,0.747-0.032,1.125c-0.048,1.952-0.088,3.904-0.128,5.85
		c-0.032,1.63-0.057,3.261-0.072,4.899c-0.017,1.045-0.024,2.089-0.032,3.143c-0.002,0.023,0.001,0.048,0,0.07
		c-0.014,1.341-0.031,2.68-0.04,4.019C320.282,367.152,320.282,368.566,320.282,369.988"/>
	<path clip-path="url(#SVGID_2_)" fill="#C6C6C6" d="M320.282,369.988c0,1.855,0.008,3.728,0.023,5.607c0,0.313,0,0.626,0.008,0.94
		c0.098,11.439,0.458,23.299,1.149,35.559c19.064-0.121,35.695-3.455,49.233-7.657c0.016-0.008,0.04-0.008,0.056-0.016
		c-0.016-1.052-0.04-2.089-0.056-3.133c-0.041-1.647-0.09-3.286-0.146-4.901c-0.008-0.071-0.008-0.152-0.008-0.225
		c-0.611-20.117-2.876-39.616-6.748-56.986c-0.009-0.032-0.018-0.063-0.025-0.096l-37.407-1.027
		c-0.952-0.027-1.899-0.055-2.834-0.082c-0.86-0.023-1.721-0.048-2.563-0.071c-0.322,7.663-0.546,15.594-0.635,23.757
		c-0.008,0.104-0.008,0.209,0,0.313c-0.017,1.253-0.032,2.516-0.04,3.776C320.282,367.152,320.282,368.566,320.282,369.988"/>
	<path clip-path="url(#SVGID_2_)" fill="#5190B7" d="M319.493,403.46c-21.75-0.08-40.46-8.02-51.12-12.37
		c-6.98-2.85-5.58-10.979-4.23-16.09c5.81-24.39,10.67-53.75,14.15-69.66c4.78-33.04,0.35-79.44-2.17-94.65
		c-4.64-15.97-9.45-19-6.77-25.14c7.03-15.11,42.83-16.36,49.65-16.77c-0.09,0.03-0.19,0.07-0.28,0.09c0.53-0.06,1.08-0.06,1.61,0
		c-0.09-0.02-0.18-0.06-0.271-0.09c6.601,0.34,42.83,1.71,49.65,16.77c0,0,0.01,0.01,0.01,0.02c3.17,7.5-4.479,11.37-9.42,29.96
		c-1.42,5.64-2,15.49-2.03,26.86c-0.01,6.49,0.16,13.47,0.45,20.43c0.15,3.6,0.34,7.2,0.55,10.73
		c0.96,15.98,2.471,30.44,3.83,36.851c-0.819,0.85,9.62,47.84,12.73,69.89C379.913,394.98,335.133,403.04,319.493,403.46"/>
	<path clip-path="url(#SVGID_2_)" fill="#C098EA" d="M321.003,168.733v0.088c-0.313-0.016-0.626-0.032-0.94-0.04
		c0.089,0.032,0.177,0.064,0.273,0.089c-0.266-0.033-0.53-0.057-0.804-0.081c-0.28,0.024-0.546,0.048-0.812,0.081
		c0.097-0.025,0.192-0.057,0.282-0.089c0.111-0.008,0.232-0.008,0.345-0.008c0.064-0.008,0.121-0.008,0.185-0.008
		c0.088-0.008,0.177-0.008,0.266,0c0.056,0,0.111-0.008,0.169-0.008h0.008C320.319,168.742,320.657,168.733,321.003,168.733"/>
	<path clip-path="url(#SVGID_2_)" fill="#C098EA" d="M319.572,403.459c0.482,0,0.956-0.008,1.431-0.016v0.023
		C320.528,403.467,320.047,403.467,319.572,403.459"/>
	<path clip-path="url(#SVGID_2_)" fill="#C098EA" d="M321.003,168.686c-0.37,0.024-0.707,0.048-1.028,0.072h-0.008
		c-0.058,0-0.113,0.008-0.169,0.008c-0.032,0.008-0.057,0.008-0.08,0.008c-0.064,0.008-0.129,0.008-0.186,0.016
		c-0.28,0.025-0.546,0.049-0.812,0.081c0.097-0.024,0.192-0.056,0.282-0.089c0.023-0.008,0.056-0.016,0.079-0.024l0.009-0.008
		c0.152-0.048,0.297-0.096,0.441-0.152c0.008,0,0.017-0.008,0.024-0.008C320.087,168.629,320.568,168.661,321.003,168.686"/>
	<path clip-path="url(#SVGID_2_)" fill="#BC956B" d="M257.864,301.373c0,0,0.308,7.487-0.942,16.427c0,0-0.279,2.581-1.128,5.649
		c0,0-1.843,6.573-2.415,8.129c-0.572,1.557-0.861,4.054-0.666,5.316c0.195,1.261,1.241,6.757,1.709,7.624
		c0.468,0.865,3.604,8.6,4.246,8.923c0.642,0.322,1.114-0.74,1.114-0.74s0.179-1.734,0.323-2.192
		c0.548-1.74-0.041-7.597-0.246-9.445c-0.042-0.379-0.007-0.758,0.102-1.124l0.995-3.348c0,0,0.372,3.199,2.23,2.231
		c0,0,1.181-1.632,1.952-3.534c0.77-1.902,2.957-5.882,4.124-8.475c1.167-2.594,0.191-6.68-0.818-9.327
		c-1.008-2.648-0.734-6.882-0.526-10.824c0.613-11.649,3.496-11.595-3.549-10.337C256.429,297.744,257.864,301.373,257.864,301.373"
		/>
	<path clip-path="url(#SVGID_2_)" fill="#987957" d="M263.229,338.762c0,0-0.073,0.252-0.829,0.265
		c-0.756,0.013-1.477-1.142-1.527-3.577c-0.05-2.435-0.129-4.282,0-5.871c0.13-1.59,0.367-2.205,0.428-3.385c0.061-1.179,0-2,0-2
		s0.932,0.257,0.394,3.872c-0.539,3.615-0.436,6.872-0.154,8.256C261.824,337.706,261.969,339.023,263.229,338.762"/>
	<path clip-path="url(#SVGID_2_)" fill="#5190B7" d="M299.552,215.991c-10.32,23.576-25.586,69.819-28.461,96.189
		c-4.715,0.58-12.291-0.178-17.067-1.447c-5.277-26.749-6.33-113.434,21.891-131.096c2.419-1.514,6.082-2.967,8.156-3.872
		C292.866,178.529,297.706,189.929,299.552,215.991"/>
	<path clip-path="url(#SVGID_2_)" fill="#4C6580" d="M284.37,220.885c0.096-1.004,0.177-1.984,0.249-2.924
		c-0.412,13.544-0.7,57.357-4.413,69.265c0.506-4.186-0.12-12.692,0.121-16.814c-1.31,4.09-1.704,6.318-2.917,10.519
		C277.546,276.104,283.644,229.171,284.37,220.885"/>
	<path clip-path="url(#SVGID_2_)" fill="#C098EA" d="M318.063,403.443c0.474,0.008,0.948,0.016,1.43,0.016
		c-0.474,0.008-0.956,0.008-1.43,0.008V403.443z"/>
	<path clip-path="url(#SVGID_2_)" fill="#C098EA" d="M320.336,168.87c-0.265-0.032-0.53-0.056-0.803-0.08
		c-0.282,0.024-0.547,0.048-0.813,0.08c0.097-0.024,0.193-0.056,0.281-0.088c-0.313,0.008-0.626,0.024-0.94,0.04v-0.089
		c0.339,0,0.684,0.008,1.021,0.025h0.016c0.057,0,0.112,0.008,0.168,0.008c0.09-0.008,0.178-0.008,0.267,0
		c0.063,0,0.12,0,0.184,0.008c0.113,0,0.226,0,0.338,0.008h0.008C320.151,168.814,320.24,168.846,320.336,168.87"/>
	<path clip-path="url(#SVGID_2_)" fill="#C098EA" d="M320.336,168.87c-0.265-0.032-0.53-0.056-0.803-0.08
		c-0.065-0.008-0.121-0.008-0.186-0.016c-0.031,0-0.057,0-0.081-0.008c-0.056,0-0.111-0.008-0.168-0.008l-0.009-0.008
		c-0.321-0.017-0.666-0.041-1.036-0.065c0.435-0.024,0.916-0.056,1.454-0.096c0.009,0,0.017,0.008,0.025,0.008
		c0.136,0.056,0.281,0.104,0.433,0.161h0.008c0.024,0.008,0.05,0.016,0.081,0.024h0.008
		C320.151,168.814,320.24,168.846,320.336,168.87"/>
	<path clip-path="url(#SVGID_2_)" fill="#BC956B" d="M381.197,301.373c0,0-0.308,7.487,0.942,16.427c0,0,0.279,2.581,1.128,5.649
		c0,0,1.843,6.573,2.415,8.129c0.572,1.557,0.861,4.054,0.666,5.316c-0.195,1.261-1.241,6.757-1.709,7.624
		c-0.468,0.865-3.604,8.6-4.246,8.923c-0.642,0.322-1.114-0.74-1.114-0.74s-0.179-1.734-0.322-2.192
		c-0.549-1.74,0.041-7.597,0.245-9.445c0.042-0.379,0.008-0.758-0.102-1.124l-0.995-3.348c0,0-0.372,3.199-2.229,2.231
		c0,0-1.182-1.632-1.952-3.534s-2.957-5.882-4.124-8.475c-1.167-2.594-0.191-6.68,0.817-9.327c1.009-2.648,0.734-6.882,0.526-10.824
		c-0.613-11.649-3.496-11.595,3.549-10.337C382.633,297.744,381.197,301.373,381.197,301.373"/>
	<path clip-path="url(#SVGID_2_)" fill="#987957" d="M375.832,338.762c0,0,0.072,0.252,0.829,0.265
		c0.756,0.013,1.477-1.142,1.526-3.577c0.05-2.435,0.129-4.282,0-5.871c-0.13-1.59-0.367-2.205-0.428-3.385c-0.061-1.179,0-2,0-2
		s-0.932,0.257-0.394,3.872s0.436,6.872,0.153,8.256C377.237,337.706,377.093,339.023,375.832,338.762"/>
	<path clip-path="url(#SVGID_2_)" fill="#5190B7" d="M385.033,310.73c-2.38,0.64-5.471,1.149-8.55,1.42
		c-3.21,0.29-6.08,0.22-8.511,0.029c-0.449-8.46-1.64-20.209-4.89-33.92c-0.14-0.6-0.32-1.34-0.54-2.229
		c-0.73-2.85-1.91-7.23-3.82-13.21c-0.189-0.57-0.38-1.16-0.58-1.76c-0.3-0.92-0.619-1.88-0.96-2.86
		c-3.68-10.89-9.239-25.32-17.67-42.21c1.84-26.06,6.681-37.46,15.48-40.22c2.069,0.9,5.729,2.35,8.149,3.87
		c2.391,1.5,4.58,3.49,6.57,5.91c0,0,0.01,0.01,0.01,0.02C391.153,211.61,389.863,286.26,385.033,310.73"/>
	<path clip-path="url(#SVGID_2_)" fill="#4C6580" d="M358.723,262.82c0.15,3.6,0.34,7.2,0.55,10.73
		c-1.989-8.95-1.8-10.54-2.09-15.35c-0.05-1.01-0.13-2.16-0.26-3.56c-0.75-8.4,0.54-17.49,0.48-25.27
		c0.079,0.94,0.159,1.92,0.25,2.93c0.279,2.86,0.409,6.34,0.619,10.09c0.24,4.19,0.591,8.71,1.381,13.04
		c1.81,9.81,2.659,18.77,2.89,20.6C361.813,273.18,360.633,268.8,358.723,262.82"/>
	<polygon clip-path="url(#SVGID_2_)" fill="#79ACCC" points="303.558,173.994 304.927,167.803 310.717,163.362 335.132,163.362 
		339.957,168.016 339.957,173.857 	"/>
	<path clip-path="url(#SVGID_2_)" fill="#9E64D0" d="M330.376,168.636c-1.742,0.096-3.076,0.217-4.877,0.53
		c-0.964-0.168-1.799-0.281-2.627-0.361c1.856-0.209,3.447-0.265,4.677-0.265C328.521,168.54,329.46,168.572,330.376,168.636"/>
	<path clip-path="url(#SVGID_2_)" fill="#C098EA" d="M322.423,168.764c-0.892-0.08-1.808-0.129-2.916-0.185
		c0.562-0.024,1.173-0.056,1.855-0.096C321.684,168.579,322.037,168.676,322.423,168.764"/>
	<path clip-path="url(#SVGID_2_)" fill="#BC956B" d="M340.795,172.299c-8.813,11.159-15.586,22.568-18.623,34.418
		c-3.471-14.582-10.171-25.267-18.615-33.807c0,0,4.893-5.793,7.07-9.416c0.233-0.378,0.434-0.731,0.595-1.053
		c0.642-1.277,0.957-3.575,1.092-5.945c0.241-3.929,0-8.05,0-8.05l25.557,0.851c0,0-0.225,3.061-0.611,7.729
		c-0.104,1.286-0.232,2.7-0.361,4.202c-0.088,0.972-0.072,1.896,0.024,2.756C337.469,169.246,340.795,172.299,340.795,172.299"/>
	<path clip-path="url(#SVGID_2_)" fill="#987957" d="M336.898,161.229c-0.088,0.972-0.072,1.896,0.024,2.756
		c-1.952,1.146-6.869,3.683-13.58,3.461c-6.287-0.208-10.798-2.727-12.715-3.951c0.091-0.147,0.202-0.332,0.324-0.548
		c0.1-0.175,0.19-0.344,0.27-0.505c0.643-1.277,0.956-3.575,1.093-5.945c0.241-3.929,0-8.05,0-8.05l25.557,0.851
		c0,0-0.226,3.061-0.61,7.729C337.155,158.313,337.026,159.727,336.898,161.229"/>
	<path clip-path="url(#SVGID_2_)" fill="#5190B7" d="M310.717,163.362c0,0-4.299,3.468-3.478,8.305s9.583,11.682,9.583,11.682
		l-3.926,15.15c0,0-17.066-15.15-7.97-30.695L310.717,163.362z"/>
	<path clip-path="url(#SVGID_2_)" fill="#5190B7" d="M316.821,183.349c0,0,8.958,22.907,5.484,51.929h-2.562
		c0,0,1.104-37.148-4.743-44.904L316.821,183.349z"/>
	<path clip-path="url(#SVGID_2_)" fill="#5190B7" d="M337.116,165.276c0,0,2.064,1.714,1.494,6.391
		c-0.595,4.87-9.583,11.682-9.583,11.682l3.925,15.15c0,0,16.177-15.15,8.45-29.991c-0.236-0.451-0.629-0.803-1.054-1.085
		L337.116,165.276z"/>
	<path clip-path="url(#SVGID_2_)" fill="#4C6580" d="M320.419,235.278l3.037-0.115l-0.115,0.11
		c0.328-13.336,1.071-26.924,4.949-39.764c0.653-1.796,1.344-3.637,2.558-5.135c-1.031,1.614-1.61,3.446-2.111,5.272
		c-3.167,12.964-3.865,26.389-5.166,39.637l-0.01,0.114l-0.104-0.004L320.419,235.278z"/>
	<path clip-path="url(#SVGID_2_)" fill="#D39485" d="M337.873,149.302c0,0-0.225,3.061-0.616,7.727
		c-2.938,1.744-6.385,2.464-9.789,2.762c-3.841,0.333-7.801,0.149-11.398-1.237c-1.327-0.512-2.604-1.203-3.752-2.057
		c0.239-3.926,0-8.05,0-8.05L337.873,149.302z"/>
	<path clip-path="url(#SVGID_2_)" fill="#BC956B" d="M298.127,124.566c-0.989-2.497-2.299-4.172-3.207-5.159
		c-1.016-1.104-2.021-2.167-3.676-2.554c-0.507-0.118-2.062-0.481-3.184,0.368c-0.914,0.691-1.141,1.883-1.224,3.183
		c-0.182,2.823,0.34,5.693,2.02,10.225c1.7,4.585,2.776,5.99,3.834,6.973c1.686,1.568,3.023,1.782,3.694,1.813
		c0.433,0.019,1.319,0.048,2.161-0.488c1.673-1.067,1.611-3.373,1.604-3.556C299.475,131.77,298.801,128.168,298.127,124.566"/>
	<path clip-path="url(#SVGID_2_)" fill="#BC956B" d="M350.689,138.996c0.396,0.37,1.096,0.906,2.045,1.022
		c0.329,0.041,1.678,0.153,3.625-1.58c4.312-3.833,4.585-10.491,4.694-13.152c0.05-1.233,0.047-3.288-1.208-4.973
		c-0.336-0.45-0.993-1.306-2.045-1.44c-0.85-0.109-1.532,0.309-1.999,0.604c-1.801,1.138-2.438,3.127-2.649,3.95
		C353.152,123.427,349.481,136.208,350.689,138.996"/>
	<path clip-path="url(#SVGID_2_)" fill="#BC956B" d="M352.852,103.95c-0.894-3.499-1.793-7.018-4.461-10.457
		c-7.385-9.512-21.852-10.078-30.813-8.226c-3.899,0.806-10.671,2.206-15.755,7.947c-5.484,6.193-5.719,13.728-5.995,22.587
		c-0.268,8.599,1.322,14.61,3.764,23.841c0.963,3.637,2.743,9.667,6.971,15.616c1.852,2.604,3.545,4.31,5.787,5.577
		c2.696,1.523,5.077,1.784,8.504,2.161c3.62,0.397,7.13,0.782,11.154-0.767c0.487-0.188,2.462-0.97,4.857-2.835
		c7.165-5.582,12.079-16.173,13.477-19.333C350.342,140.061,356.57,114.686,352.852,103.95"/>
	<path clip-path="url(#SVGID_2_)" fill="#111010" d="M352.571,125.938c2.014-3.389,4.123-7.746,5.635-13.03
		c1.196-4.18,2.793-9.984,1.761-17.257c-0.646-4.551-1.356-9.553-5.518-12.678c-3.271-2.456-7.078-2.553-8.921-2.465
		c0.067-1.792-0.306-3.11-0.587-3.874c-2.014-5.469-8.325-7.053-9.157-7.249c-1.276-0.299-2.326-0.352-3.083-0.362
		c-5.96-0.079-11.918,2.211-16.169,4.324c0,0-7.414,3.097-14.674,8.335c-1.438,1.038-3.779,2.838-4.343,5.752
		c-0.181,0.934-0.132,1.742-0.059,2.289c-0.924,0.32-4.619,1.72-6.632,5.635c-0.747,1.451-1.095,2.931-1.233,5.459
		c-0.44,8.072,1.857,14.563,2.348,15.906c1.046,2.862,2.883,6.932,6.163,11.269c-0.586-2.202-1.093-5.38-0.352-8.979
		c0.335-1.628,0.673-2.119,2.23-6.339c1.688-4.574,2.532-6.861,2.994-8.922c0.518-2.315,0.96-5.826,0.234-10.447
		c3.097,0.5,6.494,0.852,10.155,0.939c12.417,0.296,22.747-2.569,29.993-5.4c-0.191,3.812,0.008,10.436,3.17,17.726
		c1.799,4.149,4.042,7.322,5.928,9.567C352.493,119.403,352.532,122.671,352.571,125.938"/>
	<path clip-path="url(#SVGID_2_)" fill="#484443" d="M305.997,85.82c2.263-0.037,4.877-0.226,7.748-0.704
		c3.221-0.536,6.028-1.314,8.364-2.113c-2.142,1.907-4.285,3.815-6.427,5.722c2.398-0.118,5.06-0.382,7.924-0.88
		c4.314-0.75,8.066-1.854,11.181-2.993c-2.735,1.678-6.581,3.624-11.445,4.93c-7.543,2.025-14.028,1.569-17.96,0.968
		c2.964-1.35,5.928-2.699,8.892-4.05C311.514,86.407,308.755,86.114,305.997,85.82"/>
	<path clip-path="url(#SVGID_2_)" fill="#484443" d="M300.685,95.065c0.409,1.936,0.762,4.703,0.411,7.983
		c-0.499,4.657-2.183,8.156-3.346,10.154c0.612-2.96,1.185-6.054,1.702-9.274C299.942,100.877,300.349,97.92,300.685,95.065"/>
	<path clip-path="url(#SVGID_2_)" fill="#484443" d="M297.163,101.874c0.271,1.409,0.525,3.686,0,6.398
		c-0.419,2.167-1.19,3.857-1.82,4.989c0.107-1.671,0.291-3.479,0.587-5.4C296.266,105.68,296.696,103.679,297.163,101.874"/>
	<path clip-path="url(#SVGID_2_)" fill="#484443" d="M348.434,94.008c-1.167,2.886-0.272,5.653,0.264,7.307
		c1.253,3.871,3.751,6.353,5.195,7.572c-1.078-1.693-2.351-4.086-3.259-7.131c-1.163-3.903-1.262-7.31-1.144-9.597
		C349.177,92.569,348.765,93.189,348.434,94.008"/>
	<path clip-path="url(#SVGID_2_)" fill="#FFFFFF" d="M319.286,119.831c0,0,0.695,6.794-6.521,7.199
		c-7.209,0.405-8.543-6.641-8.543-6.641c1.453-0.916,2.998-1.455,4.529-1.733c2.735-0.51,5.414-0.19,7.385,0.239
		C318.04,119.307,319.286,119.831,319.286,119.831"/>
	<path clip-path="url(#SVGID_2_)" fill="#3F2E20" d="M313.241,124.885c-0.22,0.062-0.442,0.1-0.658,0.121l-0.16,0.015
		c-0.057-0.002-0.121,0.004-0.178,0.002c-0.048,0.004-0.087,0.008-0.136,0.005c-1.931-0.014-3.68-1.312-4.194-3.272
		c-0.144-0.559-0.174-1.121-0.106-1.66c0.019-0.139,0.045-0.279,0.081-0.412c0.068-0.297,0.161-0.581,0.296-0.86
		c0.187-0.059,0.376-0.118,0.564-0.168c2.736-0.51,5.414-0.19,7.386,0.239c0.073,0.171,0.139,0.342,0.188,0.523
		c0.013,0.047,0.025,0.094,0.039,0.149c0.011,0.032,0.021,0.063,0.025,0.095C316.937,121.965,315.54,124.289,313.241,124.885"/>
	<path clip-path="url(#SVGID_2_)" fill="#987957" d="M305.728,127.534c1.99-0.728,4.141-0.829,6.237-0.852
		c2.077,0.071,4.318,0.083,6.185,1.125c-2.026-0.432-4.125-0.266-6.188-0.322C310.122,127.489,307.549,127.429,305.728,127.534"/>
	<path clip-path="url(#SVGID_2_)" fill="#FFFFFF" d="M346.68,120.243c0,0-1.199,7.07-8.416,6.802
		c-7.223-0.27-6.656-7.075-6.656-7.075s1.187-0.544,3.066-0.976c2.076-0.482,5.005-0.832,8.081-0.179
		C344.055,119.085,345.381,119.544,346.68,120.243"/>
	<path clip-path="url(#SVGID_2_)" fill="#3F2E20" d="M343.058,121.731c-0.472,2.002-2.229,3.347-4.183,3.395
		c-0.05,0.004-0.098,0-0.138,0.005c-0.064-0.005-0.122-0.002-0.185-0.007l-0.048-0.003c-0.04-0.003-0.072-0.006-0.113-0.001
		c-0.216-0.025-0.438-0.059-0.668-0.117c-2.342-0.555-3.803-2.885-3.288-5.23c0.002-0.033,0.013-0.064,0.016-0.104
		c0.013-0.047,0.024-0.103,0.045-0.15c0.047-0.181,0.108-0.362,0.178-0.526c2.077-0.481,5.006-0.831,8.081-0.179
		c0.133,0.26,0.224,0.533,0.291,0.813c0.038,0.132,0.066,0.279,0.088,0.418C343.22,120.591,343.198,121.162,343.058,121.731"/>
	<path clip-path="url(#SVGID_2_)" fill="#987957" d="M345.215,127.534c-1.81-0.105-4.4-0.045-6.233-0.049
		c-2.063,0.056-4.161-0.11-6.188,0.322c1.866-1.042,4.108-1.054,6.184-1.125C341.074,126.705,343.224,126.806,345.215,127.534"/>
	<path clip-path="url(#SVGID_2_)" d="M322.021,143.792c-4.199,1.735-9.014,1.786-13.146,0.132c2.128,0.27,4.258,0.132,6.234-0.385
		c1.98-0.511,3.805-1.404,5.366-2.565c0.719-0.534,1.735-0.384,2.27,0.334C323.391,142.149,323.013,143.429,322.021,143.792"/>
	<path clip-path="url(#SVGID_2_)" d="M326.379,140.974c3.245,2.435,7.491,3.489,11.603,2.95c-4.145,1.659-8.974,1.602-13.182-0.146
		C322.609,142.772,324.38,139.621,326.379,140.974"/>
	<path clip-path="url(#SVGID_2_)" fill="#542525" d="M330.394,107.67l0.516,4.446c0,0,11.125-3.05,20.288,0.913
		C351.197,113.029,344.411,105.226,330.394,107.67"/>
	<path clip-path="url(#SVGID_2_)" fill="#542525" d="M320.969,108.374l-0.523,4.446c0,0-11.12-3.066-20.288,0.884
		C300.158,113.704,306.955,105.91,320.969,108.374"/>
	<path clip-path="url(#SVGID_2_)" fill="#987957" d="M325.008,117.62c1.616,2.884,2.502,6.458,3.711,9.539
		c1.293,3.162,1.985,7.39-0.813,10.003c-1.845,1.518-4.915,1.577-6.605-0.137c1.085,0.397,2.128,0.708,3.215,0.649
		c3.712,0.099,5.073-3.935,4.405-7.043C327.918,126.299,325.708,122.082,325.008,117.62"/>
	<path clip-path="url(#SVGID_2_)" fill="#111010" d="M293.374,96.369c-0.519-0.56-0.915-1.233-1.153-1.959
		c-0.207-0.631-0.281-1.368,0.083-1.925c0.634-0.97,2.079-0.805,3.203-0.526c0.467-0.584,0.057-1.431,0.046-2.179
		c-0.011-0.744,0.409-1.443,0.97-1.932c0.562-0.489,1.254-0.797,1.942-1.08c1.517-0.623,3.073-1.153,4.655-1.587
		c0.115,0.424-0.125,0.875-0.455,1.165c-0.331,0.29-0.744,0.464-1.12,0.691c-1.333,0.805-2.158,2.237-2.735,3.683
		c-0.577,1.446-0.968,2.974-1.72,4.337c-0.378,0.683-0.868,1.34-1.559,1.704c-0.691,0.365-1.616,0.368-2.192-0.16"/>
	<path clip-path="url(#SVGID_2_)" fill="#111010" d="M355.421,93.002c0.519-0.56,0.915-1.233,1.152-1.959
		c0.207-0.631,0.281-1.368-0.083-1.924c-0.634-0.971-2.078-0.806-3.202-0.527c-0.468-0.584-0.058-1.431-0.046-2.179
		c0.011-0.744-0.409-1.443-0.971-1.932c-0.562-0.488-1.254-0.797-1.941-1.08c-1.518-0.623-3.073-1.153-4.655-1.587
		c-0.115,0.424,0.125,0.875,0.455,1.165c0.331,0.29,0.744,0.464,1.12,0.692c1.333,0.804,2.158,2.236,2.734,3.682
		c0.577,1.446,0.969,2.974,1.721,4.337c0.378,0.683,0.867,1.34,1.559,1.704c0.691,0.365,1.616,0.368,2.192-0.16"/>
	<path clip-path="url(#SVGID_2_)" fill="#652B28" d="M312.052,146.826c3.325,0.984,14.89,3.91,22.765-0.327
		c0.076-0.041,0.032-0.157-0.052-0.135c-2.126,0.551-10.04,2.209-22.681,0.321C311.995,146.671,311.965,146.8,312.052,146.826"/>
	<path clip-path="url(#SVGID_2_)" fill="#987957" d="M318.092,150.625c1.285,0.486,5.462,1.874,8.244,0.57
		c0.075-0.036,0.144,0.06,0.085,0.119c-0.919,0.915-3.987,3.268-8.404-0.562C317.953,150.697,318.014,150.597,318.092,150.625"/>
</g>
<g>
	<defs>
		<polyline id="SVGID_3_" points="-188,-201 812,-201 812,799 -188,799 		"/>
	</defs>
	<clipPath id="SVGID_4_">
		<use xlink:href="#SVGID_3_"  overflow="visible"/>
	</clipPath>
	<path clip-path="url(#SVGID_4_)" fill="#4C6580" d="M316.821,183.349c-1.123,5.344-2.369,10.66-3.683,15.959l-0.528-0.486
		c-8.312-7.498-14.644-20.682-7.684-31.018c-4.295,7.717-2.094,17.038,2.822,23.897c1.577,2.335,3.403,4.549,5.435,6.475
		l-0.704,0.214C313.856,193.357,315.275,188.335,316.821,183.349"/>
	<path clip-path="url(#SVGID_4_)" fill="#4C6580" d="M329.027,183.349c1.547,4.986,2.975,10.005,4.344,15.041l-0.717-0.208
		c1.93-1.922,3.665-4.102,5.182-6.385c4.648-6.679,7.271-15.595,3.565-23.289c6.058,10.341-0.394,22.793-8.153,30.307
		c0,0.001-0.532,0.516-0.532,0.516C331.389,194.027,330.15,188.701,329.027,183.349"/>
	<path clip-path="url(#SVGID_4_)" fill="#4C6580" d="M322.645,231.01c-0.029,0.614-0.55,1.089-1.164,1.06
		c-0.614-0.029-1.089-0.55-1.061-1.164c0.029-0.615,0.551-1.089,1.164-1.06C322.198,229.875,322.673,230.396,322.645,231.01"/>
	<path clip-path="url(#SVGID_4_)" fill="#4C6580" d="M323.104,223.743c-0.029,0.614-0.55,1.089-1.164,1.06
		c-0.614-0.029-1.089-0.55-1.06-1.164c0.028-0.615,0.55-1.089,1.164-1.06C322.658,222.608,323.134,223.129,323.104,223.743"/>
	<path clip-path="url(#SVGID_4_)" fill="#4C6580" d="M323.847,213.199c-0.029,0.614-0.55,1.089-1.164,1.06
		c-0.614-0.029-1.089-0.55-1.06-1.164c0.028-0.615,0.55-1.089,1.163-1.06C323.4,212.064,323.876,212.585,323.847,213.199"/>
	<path clip-path="url(#SVGID_4_)" fill="#4C6580" d="M325.867,203.71c-0.029,0.614-0.55,1.089-1.164,1.06
		c-0.614-0.029-1.089-0.55-1.06-1.164c0.028-0.615,0.55-1.089,1.164-1.06C325.421,202.575,325.896,203.096,325.867,203.71"/>
	<path clip-path="url(#SVGID_4_)" fill="#4C6580" d="M317.934,189.313c-0.029,0.614-0.55,1.089-1.164,1.06
		c-0.614-0.029-1.089-0.55-1.061-1.165c0.029-0.614,0.551-1.088,1.164-1.059C317.487,188.178,317.963,188.699,317.934,189.313"/>
</g>
</svg>
