<svg width="176" height="159" viewBox="0 0 176 159" fill="none" xmlns="http://www.w3.org/2000/svg">
<mask id="mask0_362_221" style="mask-type:alpha" maskUnits="userSpaceOnUse" x="0" y="0" width="176" height="114">
<rect width="176" height="114" fill="#FA6E5A"/>
</mask>
<g mask="url(#mask0_362_221)">
<path d="M12.7731 35.4473C-12.7269 39.8272 -19.2269 24.8626 -23.7269 16.2853V-37.3683H64.2731V60.6317H48.7731C40.4398 50.0469 38.2731 31.0674 12.7731 35.4473Z" fill="#808AFF"/>
<path d="M115.773 35.4473C141.273 39.8272 147.773 24.8626 152.273 16.2853V-37.3683H64.2731V60.6316H79.7731C88.1064 50.0469 90.2731 31.0674 115.773 35.4473Z" fill="#808AFF"/>
<g clip-path="url(#clip0_362_221)">
<path d="M153.386 44H150V61H153.386V44Z" fill="#9BA3FF"/>
<path d="M158.693 49.7142H155.307V60.9997H158.693V49.7142Z" fill="#9BA3FF"/>
<path d="M164.007 55.1H160.621V61H164.007V55.1Z" fill="#9BA3FF"/>
</g>
<g clip-path="url(#clip1_362_221)">
<path d="M154.99 103.955L166.135 100.22L160.548 83.8198L149.403 87.5555C148.966 87.7012 148.729 88.1707 148.88 88.6038L153.933 103.433C154.08 103.866 154.553 104.101 154.99 103.955Z" fill="#3F4553"/>
<path d="M154.998 103.631L166.421 99.8027L161.038 84.006L149.615 87.8347C149.333 87.9278 149.182 88.2314 149.276 88.5147L154.312 103.296C154.41 103.575 154.716 103.725 154.998 103.631Z" fill="#DDDDE3"/>
<path d="M155.239 103.551L166.662 99.7219L161.279 83.9252L149.856 87.7539C149.574 87.847 149.423 88.1506 149.517 88.4339L154.553 103.215C154.651 103.494 154.957 103.648 155.239 103.551Z" fill="#E2E5FF"/>
<path d="M155.855 103.664L167 99.9281L161.413 83.5324L150.268 87.2681C149.831 87.4138 149.594 87.8833 149.745 88.3163L154.798 103.146C154.945 103.579 155.418 103.809 155.855 103.664Z" fill="#4E5567"/>
<path d="M160.789 83.7419L160.549 83.8223L166.136 100.222L166.376 100.142L160.789 83.7419Z" fill="#3F4553"/>
<path d="M162.381 96.5527L162.63 96.0265L163.152 96.2936L159.071 84.3176C158.997 84.1072 158.814 84.1233 158.602 84.1962C158.389 84.269 158.23 84.3662 158.304 84.5766L162.381 96.5527Z" fill="#93BFA8"/>
<path d="M137.338 88.0902L144.84 79.2698L143.323 78.0017L135.822 86.8221L137.338 88.0902Z" fill="#3F4553"/>
<path d="M135.821 86.8191L137.335 88.0859L135.147 89.2799C135.074 89.3203 134.976 89.2353 135 89.1584L135.821 86.8191Z" fill="#F2EDE4"/>
<path d="M135.151 89.2838L135.743 88.96L135.229 88.5269L135.009 89.1583C134.98 89.2352 135.078 89.3202 135.151 89.2838Z" fill="#3F4553"/>
<path d="M136.836 87.6701L144.337 78.8497L143.822 78.4192L136.321 87.2395L136.836 87.6701Z" fill="#4E5567"/>
</g>
<g clip-path="url(#clip2_362_221)">
<path d="M54.5028 3C44.8335 3 37 10.8335 37 20.5028C37 30.1665 44.8335 38.0055 54.5028 38.0055C64.1665 38.0055 72.0055 30.172 72.0055 20.5028C72 10.8335 64.1665 3 54.5028 3ZM54.5028 35.0452C46.4708 35.0452 39.9603 28.5347 39.9603 20.5028C39.9603 12.4708 46.4708 5.96031 54.5028 5.96031C62.5347 5.96031 69.0452 12.4708 69.0452 20.5028C69.0452 28.5347 62.5347 35.0452 54.5028 35.0452Z" fill="#808AFF"/>
<path d="M67.9209 26.1097C71.0195 18.6998 67.5244 10.1809 60.1145 7.08236C52.7046 3.98377 44.1857 7.47881 41.0872 14.8887C37.9886 22.2987 41.4836 30.8175 48.8936 33.9161C56.3035 37.0147 64.8223 33.5196 67.9209 26.1097Z" fill="#AEB4FC"/>
<path d="M54.5311 7.26147C53.5113 7.26147 53.5058 8.84912 54.5311 8.84912C55.5565 8.84912 55.5565 7.26147 54.5311 7.26147Z" fill="#808AFF"/>
<path d="M67.7383 20.5296C67.7383 19.5097 66.1506 19.5042 66.1506 20.5296C66.1506 21.5549 67.7383 21.5549 67.7383 20.5296Z" fill="#808AFF"/>
<path d="M54.469 33.7383C55.4888 33.7383 55.4943 32.1507 54.469 32.1507C53.4491 32.1507 53.4436 33.7383 54.469 33.7383Z" fill="#808AFF"/>
<path d="M41.2618 20.4698C41.2618 21.4896 42.8495 21.4951 42.8495 20.4698C42.8495 19.4499 41.2618 19.4444 41.2618 20.4698Z" fill="#808AFF"/>
<path d="M60.7544 24.753C60.6607 24.753 60.567 24.731 60.4843 24.6758L54.2274 20.9548C54.0675 20.8611 53.9683 20.6847 53.9683 20.4972V10.4972C53.9683 10.2051 54.2053 9.96802 54.4975 9.96802C54.7897 9.96802 55.0267 10.2051 55.0267 10.4972V20.1995L61.0245 23.7663C61.2781 23.9151 61.3608 24.2403 61.2064 24.4939C61.1127 24.6593 60.9363 24.753 60.7544 24.753Z" fill="#808AFF"/>
</g>
<path d="M19.6207 56.4066L19.2715 54.4255L17.2463 54.7707C16.925 53.8457 16.4013 53.0312 15.7239 52.3686L16.9111 50.7051L15.249 49.5524L14.0688 51.209C13.2168 50.7948 12.2671 50.567 11.2754 50.5739L10.9193 48.5653L8.915 48.9104L9.26417 50.9122C8.32839 51.2297 7.50434 51.7474 6.83392 52.4169L5.15091 51.2435L3.98467 52.8863L5.6607 54.0528C5.24169 54.8949 5.01124 55.8337 5.01822 56.8138L3 57.1589L3.34917 59.14L5.37438 58.7948C5.69562 59.7198 6.21938 60.5343 6.89677 61.1969L5.70959 62.8604L7.37165 64.0131L8.55186 62.3565C9.40384 62.7707 10.3536 62.9985 11.3452 62.9916L11.7014 65.0002L13.7057 64.6551L13.3565 62.6533C14.2923 62.3358 15.1163 61.8181 15.7867 61.1486L17.4697 62.322L18.636 60.6792L16.96 59.5127C17.379 58.6706 17.6094 57.7318 17.6024 56.7517L19.6207 56.4066ZM11.6316 58.6223C10.605 58.8017 9.62731 58.1184 9.44574 57.1037C9.26417 56.089 9.95553 55.1227 10.9821 54.9432C12.0087 54.7638 12.9864 55.4471 13.1679 56.4618C13.3495 57.4764 12.6651 58.4428 11.6316 58.6223Z" fill="#9BA3FF"/>
<path d="M38.7278 52.4099V49.918H36.1788C35.9903 48.717 35.5224 47.6126 34.838 46.6601L36.6467 44.8723L34.8659 43.1122L33.0642 44.893C32.1074 44.2097 30.9971 43.7334 29.782 43.5332V41H27.2609V43.5194C26.0458 43.7058 24.9215 44.1683 23.9647 44.8447L22.156 43.0569L20.3752 44.8171L22.177 46.5979C21.4856 47.5436 21.0037 48.6411 20.8012 49.8421H18.2383V52.3339H20.7872C20.9758 53.535 21.4437 54.6394 22.1281 55.5919L20.3194 57.3797L22.1001 59.1398L23.9019 57.359C24.8586 58.0423 25.969 58.5186 27.1841 58.7187V61.252H29.7051V58.7325C30.9203 58.5462 32.0376 58.0837 33.0013 57.4073L34.81 59.195L36.5908 57.4349L34.7891 55.654C35.4805 54.7084 35.9623 53.6109 36.1648 52.4099H38.7278V52.4099ZM28.483 53.4452C27.1911 53.4452 26.1366 52.4098 26.1366 51.126C26.1366 49.849 27.1841 48.8067 28.483 48.8067C29.775 48.8067 30.8295 49.8421 30.8295 51.126C30.8225 52.4029 29.775 53.4452 28.483 53.4452Z" fill="#AEB4FC"/>
<g opacity="0.3">
<path d="M156.995 33.8971L138.266 29.6877C138.082 29.6477 137.966 29.4642 138.009 29.2808L140.367 18.7805C140.407 18.5971 140.591 18.4803 140.774 18.5237L159.503 22.7365C159.687 22.7765 159.803 22.96 159.76 23.1434L157.398 33.6436C157.358 33.8238 157.178 33.9405 156.995 33.8971Z" fill="#ECECEC"/>
<path d="M138.319 29.4408C138.269 29.4308 138.239 29.3808 138.253 29.3341L140.614 18.8339C140.624 18.7838 140.674 18.7538 140.721 18.7671L159.45 22.9799C159.5 22.9899 159.53 23.04 159.517 23.0867L157.155 33.5869C157.145 33.6369 157.095 33.6669 157.048 33.6536L138.319 29.4408Z" fill="#F5F4F5"/>
<path d="M156.867 22.1406L143.414 19.1153L143.359 19.3594L156.812 22.3847L156.867 22.1406Z" fill="#706F6E"/>
<path d="M142.105 20.625L141.485 20.4849C141.408 20.4682 141.358 20.3915 141.375 20.3115L141.471 19.8745C141.488 19.7978 141.565 19.7478 141.645 19.7644L142.265 19.9045C142.342 19.9212 142.392 19.9979 142.375 20.078L142.279 20.5149C142.259 20.5917 142.182 20.6417 142.105 20.625Z" fill="#585857"/>
<path d="M141.511 20.3615C141.501 20.3582 141.494 20.3482 141.498 20.3382L141.594 19.9012C141.598 19.8912 141.608 19.8846 141.618 19.8879L142.238 20.028C142.248 20.0313 142.255 20.0413 142.252 20.0513L142.155 20.4883C142.152 20.4983 142.142 20.505 142.132 20.5016L141.511 20.3615Z" fill="#5E5E5D"/>
<path d="M143.242 20.8786L142.622 20.7385C142.545 20.7218 142.495 20.6451 142.512 20.5651L142.609 20.1281C142.625 20.0514 142.702 20.0014 142.782 20.018L143.402 20.1581C143.479 20.1748 143.529 20.2515 143.512 20.3316L143.416 20.7685C143.396 20.8486 143.319 20.8953 143.242 20.8786Z" fill="#585857"/>
<path d="M142.649 20.6183C142.639 20.6149 142.632 20.6049 142.635 20.5949L142.732 20.1579C142.735 20.1479 142.745 20.1413 142.755 20.1446L143.376 20.2847C143.386 20.288 143.392 20.298 143.389 20.308L143.292 20.745C143.289 20.755 143.279 20.7617 143.269 20.7583L142.649 20.6183Z" fill="#5E5E5D"/>
<path d="M144.38 21.1353L143.759 20.9952C143.683 20.9786 143.633 20.9018 143.649 20.8218L143.746 20.3848C143.763 20.3081 143.839 20.2581 143.92 20.2748L144.54 20.4148C144.617 20.4315 144.667 20.5082 144.65 20.5883L144.553 21.0252C144.533 21.102 144.457 21.152 144.38 21.1353Z" fill="#585857"/>
<path d="M143.786 20.8719C143.776 20.8685 143.769 20.8585 143.773 20.8485L143.87 20.4115C143.873 20.4015 143.883 20.3949 143.893 20.3982L144.513 20.5383C144.523 20.5416 144.53 20.5516 144.527 20.5616L144.43 20.9986C144.427 21.0086 144.417 21.0153 144.407 21.0119L143.786 20.8719Z" fill="#5E5E5D"/>
<path d="M145.517 21.3887L144.897 21.2486C144.82 21.2319 144.77 21.1552 144.787 21.0751L144.884 20.6382C144.9 20.5615 144.977 20.5114 145.057 20.5281L145.677 20.6682C145.754 20.6849 145.804 20.7616 145.787 20.8417L145.691 21.2786C145.671 21.3587 145.594 21.4087 145.517 21.3887Z" fill="#585857"/>
<path d="M144.924 21.1286C144.914 21.1252 144.907 21.1152 144.91 21.1052L145.007 20.6683C145.01 20.6583 145.02 20.6516 145.03 20.6549L145.651 20.795C145.661 20.7983 145.667 20.8084 145.664 20.8184L145.567 21.2553C145.564 21.2653 145.554 21.272 145.544 21.2687L144.924 21.1286Z" fill="#5E5E5D"/>
<path d="M146.651 21.6456L146.031 21.5055C145.954 21.4889 145.904 21.4121 145.921 21.3321L146.018 20.8951C146.034 20.8184 146.111 20.7684 146.191 20.7851L146.811 20.9252C146.888 20.9418 146.938 21.0186 146.921 21.0986L146.825 21.5356C146.808 21.6156 146.731 21.6623 146.651 21.6456Z" fill="#585857"/>
<path d="M146.061 21.3855C146.051 21.3822 146.044 21.3722 146.048 21.3622L146.145 20.9252C146.148 20.9152 146.158 20.9085 146.168 20.9119L146.788 21.052C146.798 21.0553 146.805 21.0653 146.802 21.0753L146.705 21.5123C146.702 21.5223 146.692 21.529 146.682 21.5256L146.061 21.3855Z" fill="#5E5E5D"/>
<path d="M147.789 21.9024L147.168 21.7623C147.092 21.7456 147.042 21.6689 147.058 21.5888L147.155 21.1519C147.172 21.0751 147.248 21.0251 147.329 21.0418L147.949 21.1819C148.026 21.1986 148.076 21.2753 148.059 21.3553L147.962 21.7923C147.946 21.869 147.869 21.919 147.789 21.9024Z" fill="#585857"/>
<path d="M147.198 21.6389C147.188 21.6355 147.182 21.6255 147.185 21.6155L147.282 21.1786C147.285 21.1686 147.295 21.1619 147.305 21.1652L147.925 21.3053C147.935 21.3087 147.942 21.3187 147.939 21.3287L147.842 21.7656C147.839 21.7756 147.829 21.7823 147.819 21.779L147.198 21.6389Z" fill="#5E5E5D"/>
<path d="M148.926 22.156L148.306 22.0159C148.229 21.9992 148.179 21.9225 148.196 21.8424L148.293 21.4055C148.309 21.3287 148.386 21.2787 148.466 21.2954L149.086 21.4355C149.163 21.4522 149.213 21.5289 149.196 21.6089L149.1 22.0459C149.083 22.1259 149.003 22.176 148.926 22.156Z" fill="#585857"/>
<path d="M148.336 21.8958C148.326 21.8925 148.319 21.8825 148.322 21.8725L148.419 21.4355C148.422 21.4255 148.433 21.4189 148.443 21.4222L149.063 21.5623C149.073 21.5656 149.08 21.5756 149.076 21.5856L148.98 22.0226C148.976 22.0326 148.966 22.0393 148.956 22.0359L148.336 21.8958Z" fill="#5E5E5D"/>
<path d="M150.064 22.4129L149.443 22.2728C149.367 22.2561 149.317 22.1794 149.333 22.0994L149.43 21.6624C149.447 21.5857 149.524 21.5357 149.604 21.5523L150.224 21.6924C150.301 21.7091 150.351 21.7858 150.334 21.8659L150.237 22.3028C150.217 22.3829 150.141 22.4296 150.064 22.4129Z" fill="#585857"/>
<path d="M149.473 22.1526C149.463 22.1492 149.457 22.1392 149.46 22.1292L149.557 21.6922C149.56 21.6822 149.57 21.6756 149.58 21.6789L150.2 21.819C150.21 21.8223 150.217 21.8323 150.214 21.8423L150.117 22.2793C150.114 22.2893 150.104 22.296 150.094 22.2926L149.473 22.1526Z" fill="#5E5E5D"/>
<path d="M151.201 22.6696L150.581 22.5295C150.504 22.5129 150.454 22.4361 150.471 22.3561L150.568 21.9191C150.584 21.8424 150.661 21.7924 150.741 21.8091L151.361 21.9491C151.438 21.9658 151.488 22.0425 151.472 22.1226L151.375 22.5596C151.355 22.6363 151.278 22.6863 151.201 22.6696Z" fill="#585857"/>
<path d="M150.607 22.4062C150.597 22.4028 150.591 22.3928 150.594 22.3828L150.691 21.9459C150.694 21.9358 150.704 21.9292 150.714 21.9325L151.334 22.0726C151.344 22.0759 151.351 22.0859 151.348 22.0959L151.251 22.5329C151.248 22.5429 151.238 22.5496 151.228 22.5462L150.607 22.4062Z" fill="#5E5E5D"/>
<path d="M152.338 22.9232L151.718 22.7831C151.641 22.7665 151.591 22.6897 151.608 22.6097L151.705 22.1727C151.721 22.096 151.798 22.046 151.878 22.0627L152.499 22.2028C152.575 22.2194 152.625 22.2961 152.609 22.3762L152.512 22.8132C152.492 22.8932 152.415 22.9432 152.338 22.9232Z" fill="#585857"/>
<path d="M151.745 22.6631C151.735 22.6598 151.728 22.6498 151.731 22.6398L151.828 22.2028C151.831 22.1928 151.842 22.1861 151.852 22.1895L152.472 22.3296C152.482 22.3329 152.489 22.3429 152.485 22.3529L152.389 22.7899C152.385 22.7999 152.375 22.8065 152.365 22.8032L151.745 22.6631Z" fill="#5E5E5D"/>
<path d="M153.476 23.1799L152.856 23.0398C152.779 23.0232 152.729 22.9465 152.745 22.8664L152.842 22.4294C152.859 22.3527 152.936 22.3027 153.016 22.3194L153.636 22.4595C153.713 22.4761 153.763 22.5529 153.746 22.6329L153.649 23.0699C153.629 23.1499 153.553 23.1966 153.476 23.1799Z" fill="#585857"/>
<path d="M152.882 22.9198C152.872 22.9165 152.865 22.9065 152.868 22.8965L152.965 22.4595C152.969 22.4495 152.979 22.4428 152.989 22.4462L153.609 22.5863C153.619 22.5896 153.626 22.5996 153.622 22.6096L153.526 23.0466C153.522 23.0566 153.512 23.0633 153.502 23.0599L152.882 22.9198Z" fill="#5E5E5D"/>
<path d="M154.613 23.4369L153.993 23.2968C153.916 23.2801 153.866 23.2034 153.883 23.1234L153.979 22.6864C153.996 22.6097 154.073 22.5597 154.153 22.5763L154.773 22.7164C154.85 22.7331 154.9 22.8098 154.883 22.8899L154.787 23.3268C154.766 23.4035 154.69 23.4536 154.613 23.4369Z" fill="#585857"/>
<path d="M154.019 23.1732C154.009 23.1698 154.003 23.1598 154.006 23.1498L154.103 22.7129C154.106 22.7029 154.116 22.6962 154.126 22.6995L154.747 22.8396C154.757 22.843 154.763 22.853 154.76 22.863L154.663 23.2999C154.66 23.3099 154.65 23.3166 154.64 23.3133L154.019 23.1732Z" fill="#5E5E5D"/>
<path d="M155.751 23.6903L155.13 23.5502C155.053 23.5335 155.003 23.4568 155.02 23.3767L155.117 22.9398C155.133 22.863 155.21 22.813 155.29 22.8297L155.911 22.9698C155.987 22.9865 156.037 23.0632 156.021 23.1432L155.924 23.5802C155.904 23.6602 155.827 23.7103 155.751 23.6903Z" fill="#585857"/>
<path d="M155.157 23.4301C155.147 23.4268 155.14 23.4168 155.144 23.4068L155.24 22.9698C155.244 22.9598 155.254 22.9532 155.264 22.9565L155.884 23.0966C155.894 23.0999 155.901 23.1099 155.897 23.1199L155.801 23.5569C155.797 23.5669 155.787 23.5736 155.777 23.5702L155.157 23.4301Z" fill="#5E5E5D"/>
<path d="M156.888 23.947L156.268 23.8069C156.191 23.7902 156.141 23.7135 156.158 23.6334L156.254 23.1965C156.271 23.1198 156.348 23.0697 156.428 23.0864L157.048 23.2265C157.125 23.2432 157.175 23.3199 157.158 23.3999L157.062 23.8369C157.042 23.9169 156.965 23.9636 156.888 23.947Z" fill="#585857"/>
<path d="M156.294 23.6871C156.284 23.6838 156.278 23.6738 156.281 23.6637L156.378 23.2268C156.381 23.2168 156.391 23.2101 156.401 23.2135L157.022 23.3535C157.032 23.3569 157.038 23.3669 157.035 23.3769L156.938 23.8138C156.935 23.8239 156.925 23.8305 156.915 23.8272L156.294 23.6871Z" fill="#5E5E5D"/>
<path d="M158.022 24.2039L157.402 24.0638C157.325 24.0472 157.275 23.9704 157.292 23.8904L157.388 23.4534C157.405 23.3767 157.482 23.3267 157.562 23.3434L158.182 23.4835C158.259 23.5001 158.309 23.5768 158.292 23.6569L158.195 24.0939C158.179 24.1706 158.102 24.2206 158.022 24.2039Z" fill="#585857"/>
<path d="M157.432 23.9405C157.422 23.9371 157.415 23.9271 157.419 23.9171L157.515 23.4802C157.519 23.4701 157.529 23.4635 157.539 23.4668L158.159 23.6069C158.169 23.6102 158.176 23.6202 158.172 23.6303L158.076 24.0672C158.072 24.0772 158.062 24.0839 158.052 24.0805L157.432 23.9405Z" fill="#5E5E5D"/>
<path d="M141.471 20.6351L142.238 20.8086C142.325 20.8286 142.382 20.9153 142.362 21.0054L142.192 21.7592C142.172 21.8459 142.085 21.9026 141.995 21.8826L141.228 21.7092C141.141 21.6892 141.084 21.6024 141.104 21.5124L141.274 20.7585C141.294 20.6718 141.381 20.6151 141.471 20.6351Z" fill="#585857"/>
<path d="M141.258 21.5855C141.238 21.5821 141.225 21.5588 141.228 21.5388L141.398 20.7849C141.401 20.7649 141.425 20.7516 141.445 20.7549L142.212 20.9284C142.232 20.9317 142.245 20.955 142.242 20.975L142.072 21.7289C142.069 21.7489 142.045 21.7622 142.025 21.7589L141.258 21.5855Z" fill="#5E5E5D"/>
<path d="M142.782 20.9317L143.549 21.1051C143.636 21.1251 143.692 21.2119 143.672 21.3019L143.502 22.0558C143.482 22.1425 143.396 22.1992 143.306 22.1792L142.538 22.0057C142.452 21.9857 142.395 21.899 142.415 21.8089L142.585 21.0551C142.605 20.965 142.692 20.9117 142.782 20.9317Z" fill="#585857"/>
<path d="M142.569 21.8823C142.549 21.879 142.535 21.8556 142.539 21.8356L142.709 21.0818C142.712 21.0618 142.735 21.0484 142.755 21.0518L143.523 21.2252C143.543 21.2286 143.556 21.2519 143.553 21.2719L143.382 22.0258C143.379 22.0458 143.356 22.0591 143.336 22.0558L142.569 21.8823Z" fill="#5E5E5D"/>
<path d="M144.093 21.2255L144.861 21.399C144.947 21.419 145.004 21.5057 144.984 21.5958L144.814 22.3496C144.794 22.4363 144.707 22.493 144.617 22.473L143.85 22.2996C143.763 22.2795 143.706 22.1928 143.726 22.1028L143.897 21.3489C143.917 21.2622 144.007 21.2055 144.093 21.2255Z" fill="#585857"/>
<path d="M143.88 22.1758C143.86 22.1725 143.846 22.1492 143.85 22.1291L144.02 21.3753C144.023 21.3553 144.046 21.342 144.066 21.3453L144.834 21.5187C144.854 21.5221 144.867 21.5454 144.864 21.5654L144.693 22.3193C144.69 22.3393 144.667 22.3526 144.647 22.3493L143.88 22.1758Z" fill="#5E5E5D"/>
<path d="M145.404 21.519L146.171 21.6925C146.258 21.7125 146.315 21.7992 146.295 21.8893L146.124 22.6431C146.104 22.7298 146.018 22.7865 145.928 22.7665L145.16 22.5931C145.074 22.5731 145.017 22.4863 145.037 22.3963L145.207 21.6425C145.227 21.5557 145.317 21.499 145.404 21.519Z" fill="#585857"/>
<path d="M145.191 22.4727C145.171 22.4694 145.157 22.446 145.161 22.426L145.331 21.6722C145.334 21.6522 145.357 21.6388 145.377 21.6422L146.145 21.8156C146.165 21.819 146.178 21.8423 146.175 21.8623L146.005 22.6161C146.001 22.6362 145.978 22.6495 145.958 22.6462L145.191 22.4727Z" fill="#5E5E5D"/>
<path d="M146.715 21.8158L147.482 21.9893C147.568 22.0093 147.625 22.096 147.605 22.1861L147.435 22.9399C147.415 23.0266 147.328 23.0833 147.238 23.0633L146.471 22.8899C146.384 22.8699 146.328 22.7831 146.348 22.6931L146.518 21.9393C146.541 21.8492 146.628 21.7958 146.715 21.8158Z" fill="#585857"/>
<path d="M146.501 22.7663C146.481 22.763 146.468 22.7396 146.471 22.7196L146.641 21.9658C146.645 21.9458 146.668 21.9324 146.688 21.9358L147.455 22.1092C147.475 22.1125 147.489 22.1359 147.485 22.1559L147.315 22.9097C147.312 22.9297 147.288 22.9431 147.268 22.9397L146.501 22.7663Z" fill="#5E5E5D"/>
<path d="M148.026 22.1094L148.793 22.2829C148.879 22.3029 148.936 22.3896 148.916 22.4797L148.746 23.2335C148.726 23.3202 148.639 23.3769 148.549 23.3569L147.782 23.1835C147.695 23.1635 147.639 23.0767 147.659 22.9867L147.829 22.2328C147.852 22.1461 147.939 22.0894 148.026 22.1094Z" fill="#585857"/>
<path d="M147.812 23.06C147.792 23.0567 147.779 23.0333 147.782 23.0133L147.952 22.2595C147.955 22.2395 147.979 22.2261 147.999 22.2295L148.766 22.4029C148.786 22.4062 148.799 22.4296 148.796 22.4496L148.626 23.2034C148.622 23.2234 148.599 23.2368 148.579 23.2334L147.812 23.06Z" fill="#5E5E5D"/>
<path d="M149.337 22.406L150.104 22.5794C150.191 22.5994 150.247 22.6862 150.227 22.7762L150.057 23.5301C150.037 23.6168 149.95 23.6735 149.86 23.6535L149.093 23.48C149.006 23.46 148.95 23.3733 148.97 23.2832L149.14 22.5294C149.163 22.4393 149.25 22.386 149.337 22.406Z" fill="#585857"/>
<path d="M149.123 23.3567C149.103 23.3534 149.09 23.33 149.093 23.31L149.263 22.5562C149.266 22.5362 149.29 22.5228 149.31 22.5261L150.077 22.6996C150.097 22.7029 150.11 22.7263 150.107 22.7463L149.937 23.5001C149.933 23.5201 149.91 23.5335 149.89 23.5301L149.123 23.3567Z" fill="#5E5E5D"/>
<path d="M150.651 22.6998L151.418 22.8733C151.505 22.8933 151.561 22.98 151.541 23.0701L151.371 23.8239C151.351 23.9106 151.265 23.9673 151.174 23.9473L150.407 23.7739C150.321 23.7539 150.264 23.6671 150.284 23.5771L150.454 22.8232C150.474 22.7365 150.561 22.6798 150.651 22.6998Z" fill="#585857"/>
<path d="M150.434 23.6504C150.414 23.6471 150.401 23.6237 150.404 23.6037L150.574 22.8499C150.577 22.8299 150.601 22.8165 150.621 22.8198L151.388 22.9933C151.408 22.9966 151.421 23.02 151.418 23.04L151.248 23.7938C151.245 23.8138 151.221 23.8272 151.201 23.8238L150.434 23.6504Z" fill="#5E5E5D"/>
<path d="M151.961 22.9931L152.729 23.1665C152.815 23.1866 152.872 23.2733 152.852 23.3633L152.682 24.1172C152.662 24.2039 152.575 24.2606 152.485 24.2406L151.718 24.0671C151.631 24.0471 151.574 23.9604 151.595 23.8703L151.765 23.1165C151.785 23.0298 151.871 22.9731 151.961 22.9931Z" fill="#585857"/>
<path d="M151.748 23.9471C151.728 23.9437 151.715 23.9204 151.718 23.9004L151.888 23.1466C151.892 23.1265 151.915 23.1132 151.935 23.1165L152.702 23.29C152.722 23.2933 152.735 23.3167 152.732 23.3367L152.562 24.0905C152.559 24.1105 152.535 24.1239 152.515 24.1205L151.748 23.9471Z" fill="#5E5E5D"/>
<path d="M153.272 23.2901L154.04 23.4636C154.126 23.4836 154.183 23.5703 154.163 23.6604L153.993 24.4142C153.973 24.5009 153.886 24.5576 153.796 24.5376L153.029 24.3642C152.942 24.3442 152.886 24.2574 152.906 24.1674L153.076 23.4136C153.096 23.3235 153.182 23.2701 153.272 23.2901Z" fill="#585857"/>
<path d="M153.059 24.2408C153.039 24.2374 153.025 24.2141 153.029 24.1941L153.199 23.4403C153.202 23.4202 153.226 23.4069 153.246 23.4102L154.013 23.5837C154.033 23.587 154.046 23.6104 154.043 23.6304L153.873 24.3842C153.869 24.4042 153.846 24.4176 153.826 24.4142L153.059 24.2408Z" fill="#5E5E5D"/>
<path d="M154.583 23.5835L155.35 23.7569C155.437 23.777 155.494 23.8637 155.474 23.9537L155.304 24.7076C155.284 24.7943 155.197 24.851 155.107 24.831L154.343 24.6575C154.256 24.6375 154.2 24.5508 154.22 24.4607L154.39 23.7069C154.407 23.6202 154.493 23.5635 154.583 23.5835Z" fill="#585857"/>
<path d="M154.37 24.5343C154.35 24.531 154.336 24.5076 154.34 24.4876L154.51 23.7338C154.513 23.7138 154.537 23.7004 154.557 23.7038L155.324 23.8772C155.344 23.8805 155.357 23.9039 155.354 23.9239L155.18 24.6777C155.177 24.6977 155.154 24.7111 155.134 24.7078L154.37 24.5343Z" fill="#5E5E5D"/>
<path d="M155.894 23.8805L156.661 24.054C156.748 24.074 156.805 24.1607 156.785 24.2508L156.615 25.0046C156.595 25.0913 156.508 25.148 156.418 25.128L155.651 24.9546C155.564 24.9346 155.507 24.8478 155.527 24.7578L155.697 24.0039C155.717 23.9139 155.807 23.8605 155.894 23.8805Z" fill="#585857"/>
<path d="M155.681 24.8312C155.661 24.8278 155.648 24.8045 155.651 24.7845L155.821 24.0307C155.824 24.0106 155.848 23.9973 155.868 24.0006L156.635 24.1741C156.655 24.1774 156.668 24.2008 156.665 24.2208L156.495 24.9746C156.491 24.9946 156.468 25.008 156.448 25.0046L155.681 24.8312Z" fill="#5E5E5D"/>
<path d="M157.205 24.1739L157.972 24.3473C158.059 24.3673 158.115 24.4541 158.095 24.5441L157.925 25.298C157.905 25.3847 157.818 25.4414 157.728 25.4214L156.961 25.2479C156.875 25.2279 156.818 25.1412 156.838 25.0511L157.011 24.2973C157.028 24.2106 157.118 24.1539 157.205 24.1739Z" fill="#585857"/>
<path d="M156.991 25.1248C156.971 25.1214 156.958 25.0981 156.961 25.0781L157.132 24.3242C157.135 24.3042 157.158 24.2909 157.178 24.2942L157.945 24.4677C157.965 24.471 157.979 24.4943 157.975 24.5144L157.805 25.2682C157.802 25.2882 157.779 25.3015 157.759 25.2982L156.991 25.1248Z" fill="#5E5E5D"/>
<path d="M141.194 21.8558L141.961 22.0293C142.048 22.0493 142.105 22.136 142.085 22.2261L141.915 22.9799C141.895 23.0666 141.808 23.1233 141.718 23.1033L140.951 22.9299C140.864 22.9099 140.807 22.8231 140.827 22.7331L141.001 21.9792C141.021 21.8925 141.107 21.8358 141.194 21.8558Z" fill="#585857"/>
<path d="M140.981 22.8064C140.961 22.8031 140.948 22.7797 140.951 22.7597L141.121 22.0059C141.124 21.9859 141.148 21.9725 141.168 21.9759L141.935 22.1493C141.955 22.1526 141.968 22.176 141.965 22.196L141.795 22.9498C141.791 22.9698 141.768 22.9832 141.748 22.9798L140.981 22.8064Z" fill="#5E5E5D"/>
<path d="M142.509 22.1526L143.276 22.3261C143.363 22.3461 143.419 22.4328 143.399 22.5229L143.229 23.2767C143.209 23.3634 143.123 23.4201 143.033 23.4001L142.265 23.2267C142.179 23.2067 142.122 23.1199 142.142 23.0299L142.312 22.276C142.332 22.186 142.419 22.1326 142.509 22.1526Z" fill="#585857"/>
<path d="M142.292 23.1033C142.272 23.0999 142.259 23.0766 142.262 23.0566L142.432 22.3027C142.435 22.2827 142.459 22.2694 142.479 22.2727L143.246 22.4462C143.266 22.4495 143.279 22.4729 143.276 22.4929L143.106 23.2467C143.103 23.2667 143.079 23.2801 143.059 23.2767L142.292 23.1033Z" fill="#5E5E5D"/>
<path d="M143.819 22.4462L144.587 22.6197C144.673 22.6397 144.73 22.7264 144.71 22.8165L144.54 23.5703C144.52 23.657 144.433 23.7137 144.343 23.6937L143.576 23.5203C143.489 23.5003 143.433 23.4135 143.453 23.3235L143.623 22.5696C143.643 22.4829 143.729 22.4262 143.819 22.4462Z" fill="#585857"/>
<path d="M143.606 23.3968C143.586 23.3935 143.573 23.3701 143.576 23.3501L143.746 22.5963C143.75 22.5763 143.773 22.5629 143.793 22.5662L144.56 22.7397C144.58 22.743 144.593 22.7664 144.59 22.7864L144.42 23.5402C144.417 23.5602 144.393 23.5736 144.373 23.5702L143.606 23.3968Z" fill="#5E5E5D"/>
<path d="M145.13 22.7397L145.897 22.9132C145.984 22.9332 146.041 23.0199 146.021 23.11L145.851 23.8638C145.83 23.9505 145.744 24.0072 145.654 23.9872L144.887 23.8138C144.8 23.7938 144.743 23.707 144.763 23.617L144.933 22.8632C144.953 22.7764 145.04 22.7197 145.13 22.7397Z" fill="#585857"/>
<path d="M144.917 23.6903C144.897 23.687 144.883 23.6636 144.887 23.6436L145.057 22.8898C145.06 22.8698 145.084 22.8564 145.104 22.8598L145.871 23.0332C145.891 23.0365 145.904 23.0599 145.901 23.0799L145.731 23.8337C145.727 23.8538 145.704 23.8671 145.684 23.8638L144.917 23.6903Z" fill="#5E5E5D"/>
<path d="M146.442 23.0365L147.209 23.21C147.295 23.23 147.352 23.3167 147.332 23.4068L147.162 24.1606C147.142 24.2473 147.055 24.304 146.965 24.284L146.198 24.1106C146.111 24.0906 146.055 24.0038 146.075 23.9138L146.245 23.16C146.265 23.0699 146.355 23.0165 146.442 23.0365Z" fill="#585857"/>
<path d="M146.228 23.9872C146.208 23.9838 146.194 23.9605 146.198 23.9405L146.368 23.1867C146.371 23.1666 146.395 23.1533 146.415 23.1566L147.182 23.3301C147.202 23.3334 147.215 23.3568 147.212 23.3768L147.042 24.1306C147.038 24.1506 147.015 24.164 146.995 24.1606L146.228 23.9872Z" fill="#5E5E5D"/>
<path d="M147.752 23.3299L148.519 23.5033C148.606 23.5234 148.663 23.6101 148.643 23.7001L148.473 24.454C148.453 24.5407 148.366 24.5974 148.276 24.5774L147.509 24.4039C147.422 24.3839 147.365 24.2972 147.385 24.2071L147.555 23.4533C147.575 23.3666 147.665 23.3099 147.752 23.3299Z" fill="#585857"/>
<path d="M147.539 24.2808C147.519 24.2774 147.506 24.2541 147.509 24.2341L147.679 23.4802C147.682 23.4602 147.706 23.4469 147.726 23.4502L148.493 23.6237C148.513 23.627 148.526 23.6503 148.523 23.6704L148.353 24.4242C148.349 24.4442 148.326 24.4575 148.306 24.4542L147.539 24.2808Z" fill="#5E5E5D"/>
<path d="M149.063 23.6269L149.83 23.8004C149.917 23.8204 149.973 23.9071 149.953 23.9972L149.783 24.751C149.763 24.8377 149.676 24.8944 149.586 24.8744L148.819 24.701C148.733 24.681 148.676 24.5942 148.696 24.5042L148.866 23.7503C148.889 23.6603 148.976 23.6069 149.063 23.6269Z" fill="#585857"/>
<path d="M148.849 24.5776C148.829 24.5742 148.816 24.5509 148.819 24.5309L148.99 23.7771C148.993 23.757 149.016 23.7437 149.036 23.747L149.803 23.9205C149.823 23.9238 149.837 23.9472 149.833 23.9672L149.663 24.721C149.66 24.741 149.637 24.7544 149.617 24.751L148.849 24.5776Z" fill="#5E5E5D"/>
<path d="M150.374 23.9203L151.141 24.0937C151.228 24.1137 151.284 24.2005 151.264 24.2905L151.094 25.0444C151.074 25.1311 150.988 25.1878 150.897 25.1678L150.13 24.9943C150.044 24.9743 149.987 24.8876 150.007 24.7975L150.177 24.0437C150.2 23.957 150.287 23.9003 150.374 23.9203Z" fill="#585857"/>
<path d="M150.16 24.8712C150.14 24.8678 150.127 24.8445 150.13 24.8245L150.3 24.0706C150.304 24.0506 150.327 24.0373 150.347 24.0406L151.114 24.2141C151.134 24.2174 151.147 24.2407 151.144 24.2608L150.974 25.0146C150.971 25.0346 150.947 25.0479 150.927 25.0446L150.16 24.8712Z" fill="#5E5E5D"/>
<path d="M151.685 24.214L152.452 24.3875C152.539 24.4075 152.595 24.4942 152.575 24.5843L152.405 25.3381C152.385 25.4248 152.299 25.4815 152.209 25.4615L151.441 25.2881C151.355 25.2681 151.298 25.1814 151.318 25.0913L151.488 24.3375C151.511 24.2507 151.598 24.194 151.685 24.214Z" fill="#585857"/>
<path d="M151.471 25.1647C151.451 25.1613 151.438 25.138 151.441 25.118L151.611 24.3641C151.615 24.3441 151.638 24.3308 151.658 24.3341L152.425 24.5076C152.445 24.5109 152.458 24.5343 152.455 24.5543L152.285 25.3081C152.282 25.3281 152.258 25.3415 152.238 25.3381L151.471 25.1647Z" fill="#5E5E5D"/>
<path d="M152.995 24.5108L153.763 24.6843C153.849 24.7043 153.906 24.791 153.886 24.8811L153.716 25.6349C153.696 25.7216 153.609 25.7783 153.519 25.7583L152.752 25.5849C152.665 25.5649 152.609 25.4781 152.629 25.3881L152.799 24.6343C152.822 24.5442 152.909 24.4908 152.995 24.5108Z" fill="#585857"/>
<path d="M152.782 25.4615C152.762 25.4582 152.749 25.4349 152.752 25.4149L152.922 24.661C152.926 24.641 152.949 24.6277 152.969 24.631L153.736 24.8045C153.756 24.8078 153.769 24.8311 153.766 24.8511L153.596 25.605C153.593 25.625 153.569 25.6383 153.549 25.635L152.782 25.4615Z" fill="#5E5E5D"/>
<path d="M154.31 24.8044L155.077 24.9779C155.164 24.9979 155.22 25.0846 155.2 25.1747L155.03 25.9285C155.01 26.0152 154.923 26.0719 154.833 26.0519L154.066 25.8785C153.979 25.8585 153.923 25.7717 153.943 25.6817L154.113 24.9279C154.133 24.8411 154.22 24.7844 154.31 24.8044Z" fill="#585857"/>
<path d="M154.093 25.7551C154.073 25.7517 154.059 25.7284 154.063 25.7084L154.233 24.9545C154.236 24.9345 154.26 24.9212 154.28 24.9245L155.047 25.098C155.067 25.1013 155.08 25.1247 155.077 25.1447L154.907 25.8985C154.903 25.9185 154.88 25.9318 154.86 25.9285L154.093 25.7551Z" fill="#5E5E5D"/>
<path d="M155.621 25.1012L156.388 25.2747C156.475 25.2947 156.531 25.3814 156.511 25.4715L156.341 26.2253C156.321 26.312 156.234 26.3687 156.144 26.3487L155.377 26.1753C155.29 26.1553 155.234 26.0685 155.254 25.9785L155.424 25.2247C155.444 25.1346 155.531 25.0812 155.621 25.1012Z" fill="#585857"/>
<path d="M155.407 26.0519C155.387 26.0486 155.374 26.0253 155.377 26.0052L155.547 25.2514C155.551 25.2314 155.574 25.2181 155.594 25.2214L156.361 25.3948C156.381 25.3982 156.395 25.4215 156.391 25.4415L156.221 26.1954C156.218 26.2154 156.195 26.2287 156.175 26.2254L155.407 26.0519Z" fill="#5E5E5D"/>
<path d="M156.932 25.3948L157.699 25.5683C157.786 25.5883 157.842 25.675 157.822 25.7651L157.652 26.5189C157.632 26.6056 157.545 26.6623 157.455 26.6423L156.688 26.4689C156.602 26.4489 156.545 26.3621 156.565 26.2721L156.735 25.5182C156.755 25.4315 156.842 25.3748 156.932 25.3948Z" fill="#585857"/>
<path d="M156.718 26.3455C156.698 26.3421 156.685 26.3188 156.688 26.2988L156.858 25.5449C156.861 25.5249 156.885 25.5116 156.905 25.5149L157.672 25.6884C157.692 25.6917 157.705 25.715 157.702 25.7351L157.532 26.4889C157.529 26.5089 157.505 26.5222 157.485 26.5189L156.718 26.3455Z" fill="#5E5E5D"/>
<path d="M140.921 23.0765L141.688 23.25C141.775 23.27 141.832 23.3567 141.812 23.4468L141.642 24.2006C141.622 24.2873 141.535 24.344 141.445 24.324L140.678 24.1506C140.591 24.1306 140.534 24.0438 140.554 23.9538L140.724 23.1999C140.748 23.1132 140.835 23.0565 140.921 23.0765Z" fill="#585857"/>
<path d="M140.708 24.0272C140.687 24.0238 140.674 24.0005 140.677 23.9805L140.848 23.2266C140.851 23.2066 140.874 23.1933 140.894 23.1966L141.661 23.3701C141.681 23.3734 141.695 23.3967 141.691 23.4168L141.521 24.1706C141.518 24.1906 141.495 24.2039 141.475 24.2006L140.708 24.0272Z" fill="#5E5E5D"/>
<path d="M142.232 23.37L142.999 23.5434C143.086 23.5634 143.142 23.6502 143.122 23.7402L142.952 24.4941C142.932 24.5808 142.846 24.6375 142.755 24.6175L141.988 24.444C141.902 24.424 141.845 24.3373 141.865 24.2472L142.035 23.4934C142.058 23.4067 142.145 23.3533 142.232 23.37Z" fill="#585857"/>
<path d="M142.019 24.3242C141.999 24.3209 141.985 24.2975 141.989 24.2775L142.159 23.5237C142.162 23.5037 142.185 23.4903 142.205 23.4937L142.972 23.6671C142.993 23.6705 143.006 23.6938 143.003 23.7138L142.832 24.4676C142.829 24.4877 142.806 24.501 142.786 24.4977L142.019 24.3242Z" fill="#5E5E5D"/>
<path d="M143.542 23.6669L144.31 23.8404C144.396 23.8604 144.453 23.9471 144.433 24.0372L144.263 24.791C144.243 24.8777 144.156 24.9344 144.066 24.9144L143.299 24.741C143.212 24.721 143.155 24.6342 143.176 24.5442L143.346 23.7903C143.369 23.7036 143.456 23.6469 143.542 23.6669Z" fill="#585857"/>
<path d="M143.329 24.6176C143.309 24.6142 143.296 24.5909 143.299 24.5709L143.469 23.817C143.473 23.797 143.496 23.7837 143.516 23.787L144.283 23.9605C144.303 23.9638 144.316 23.9871 144.313 24.0072L144.143 24.761C144.14 24.781 144.116 24.7943 144.096 24.791L143.329 24.6176Z" fill="#5E5E5D"/>
<path d="M144.857 23.9604L145.624 24.1339C145.711 24.1539 145.768 24.2406 145.748 24.3307L145.578 25.0845C145.558 25.1712 145.471 25.2279 145.381 25.2079L144.614 25.0345C144.527 25.0145 144.47 24.9277 144.49 24.8377L144.66 24.0839C144.68 23.9971 144.767 23.9404 144.857 23.9604Z" fill="#585857"/>
<path d="M144.64 24.9111C144.62 24.9077 144.607 24.8844 144.61 24.8644L144.78 24.1105C144.784 24.0905 144.807 24.0772 144.827 24.0805L145.594 24.254C145.614 24.2573 145.628 24.2807 145.624 24.3007L145.454 25.0545C145.451 25.0745 145.427 25.0879 145.407 25.0845L144.64 24.9111Z" fill="#5E5E5D"/>
<path d="M146.168 24.2575L146.935 24.4309C147.022 24.4509 147.078 24.5377 147.058 24.6277L146.888 25.3816C146.868 25.4683 146.781 25.525 146.691 25.505L145.924 25.3315C145.837 25.3115 145.781 25.2248 145.801 25.1347L145.971 24.3809C145.991 24.2908 146.078 24.2375 146.168 24.2575Z" fill="#585857"/>
<path d="M145.954 25.2079C145.934 25.2046 145.921 25.1813 145.924 25.1613L146.094 24.4074C146.098 24.3874 146.121 24.3741 146.141 24.3774L146.908 24.5509C146.928 24.5542 146.942 24.5775 146.938 24.5975L146.768 25.3514C146.765 25.3714 146.742 25.3847 146.722 25.3814L145.954 25.2079Z" fill="#5E5E5D"/>
<path d="M147.479 24.5508L148.246 24.7243C148.333 24.7443 148.389 24.831 148.369 24.9211L148.199 25.6749C148.179 25.7616 148.092 25.8183 148.002 25.7983L147.235 25.6249C147.148 25.6049 147.092 25.5181 147.112 25.4281L147.282 24.6743C147.302 24.5875 147.389 24.5308 147.479 24.5508Z" fill="#585857"/>
<path d="M147.265 25.5015C147.245 25.4981 147.232 25.4748 147.235 25.4548L147.405 24.7009C147.408 24.6809 147.432 24.6676 147.452 24.6709L148.219 24.8444C148.239 24.8477 148.252 24.8711 148.249 24.8911L148.079 25.6449C148.075 25.6649 148.052 25.6783 148.032 25.6749L147.265 25.5015Z" fill="#5E5E5D"/>
<path d="M148.79 24.8443L149.557 25.0177C149.644 25.0378 149.7 25.1245 149.68 25.2145L149.51 25.9684C149.49 26.0551 149.403 26.1118 149.313 26.0918L148.546 25.9183C148.46 25.8983 148.403 25.8116 148.423 25.7215L148.593 24.9677C148.613 24.881 148.7 24.8276 148.79 24.8443Z" fill="#585857"/>
<path d="M148.576 25.7983C148.556 25.795 148.543 25.7717 148.546 25.7516L148.716 24.9978C148.719 24.9778 148.743 24.9645 148.763 24.9678L149.53 25.1412C149.55 25.1446 149.563 25.1679 149.56 25.1879L149.39 25.9418C149.387 25.9618 149.363 25.9751 149.343 25.9718L148.576 25.7983Z" fill="#5E5E5D"/>
<path d="M150.1 25.1412L150.868 25.3147C150.954 25.3347 151.011 25.4214 150.991 25.5115L150.821 26.2653C150.801 26.352 150.714 26.4087 150.624 26.3887L149.857 26.2153C149.77 26.1952 149.713 26.1085 149.733 26.0185L149.904 25.2646C149.924 25.1746 150.014 25.1212 150.1 25.1412Z" fill="#585857"/>
<path d="M149.887 26.0919C149.867 26.0885 149.854 26.0652 149.857 26.0452L150.027 25.2913C150.03 25.2713 150.054 25.258 150.074 25.2613L150.841 25.4348C150.861 25.4381 150.874 25.4614 150.871 25.4815L150.701 26.2353C150.698 26.2553 150.674 26.2686 150.654 26.2653L149.887 26.0919Z" fill="#5E5E5D"/>
<path d="M151.411 25.4348L152.178 25.6082C152.265 25.6282 152.322 25.7149 152.302 25.805L152.131 26.5588C152.111 26.6455 152.025 26.7022 151.935 26.6822L151.167 26.5088C151.081 26.4888 151.024 26.4021 151.044 26.312L151.214 25.5582C151.234 25.4714 151.324 25.4147 151.411 25.4348Z" fill="#585857"/>
<path d="M151.198 26.3854C151.178 26.382 151.164 26.3587 151.168 26.3387L151.338 25.5849C151.341 25.5648 151.364 25.5515 151.384 25.5548L152.152 25.7283C152.172 25.7316 152.185 25.755 152.182 25.775L152.008 26.5288C152.005 26.5488 151.982 26.5622 151.962 26.5588L151.198 26.3854Z" fill="#5E5E5D"/>
<path d="M152.722 25.7316L153.489 25.9051C153.576 25.9251 153.633 26.0118 153.613 26.1019L153.442 26.8557C153.422 26.9424 153.336 26.9991 153.246 26.9791L152.479 26.8056C152.392 26.7856 152.335 26.6989 152.355 26.6089L152.525 25.855C152.549 25.765 152.635 25.7116 152.722 25.7316Z" fill="#585857"/>
<path d="M152.508 26.6823C152.488 26.6789 152.475 26.6589 152.478 26.6356L152.648 25.8817C152.652 25.8617 152.675 25.8484 152.695 25.8517L153.462 26.0252C153.482 26.0285 153.496 26.0518 153.492 26.0719L153.322 26.8257C153.319 26.8457 153.295 26.859 153.275 26.8557L152.508 26.6823Z" fill="#5E5E5D"/>
<path d="M154.033 26.0251L154.8 26.1986C154.887 26.2186 154.944 26.3053 154.924 26.3954L154.754 27.1492C154.734 27.2359 154.647 27.2926 154.557 27.2726L153.79 27.0992C153.703 27.0792 153.646 26.9924 153.666 26.9024L153.836 26.1486C153.86 26.0618 153.946 26.0051 154.033 26.0251Z" fill="#585857"/>
<path d="M153.819 26.9758C153.799 26.9724 153.786 26.9491 153.789 26.9291L153.959 26.1752C153.963 26.1552 153.986 26.1419 154.006 26.1452L154.773 26.3187C154.793 26.322 154.807 26.3454 154.803 26.3654L154.633 27.1192C154.63 27.1392 154.607 27.1526 154.586 27.1492L153.819 26.9758Z" fill="#5E5E5D"/>
<path d="M155.344 26.3187L156.111 26.4922C156.198 26.5122 156.254 26.5989 156.234 26.689L156.064 27.4428C156.044 27.5295 155.957 27.5862 155.867 27.5662L155.1 27.3928C155.013 27.3727 154.957 27.286 154.977 27.196L155.147 26.4421C155.17 26.3554 155.257 26.2987 155.344 26.3187Z" fill="#585857"/>
<path d="M155.13 27.2726C155.11 27.2693 155.097 27.246 155.1 27.2259L155.27 26.4721C155.274 26.4521 155.297 26.4388 155.317 26.4421L156.084 26.6155C156.104 26.6189 156.118 26.6422 156.114 26.6622L155.944 27.4127C155.941 27.4328 155.918 27.4461 155.898 27.4428L155.13 27.2726Z" fill="#5E5E5D"/>
<path d="M156.658 26.6155L157.425 26.789C157.512 26.809 157.568 26.8957 157.548 26.9858L157.378 27.7396C157.358 27.8263 157.272 27.883 157.182 27.863L156.414 27.6896C156.328 27.6695 156.271 27.5828 156.291 27.4928L156.461 26.7389C156.481 26.6489 156.568 26.5955 156.658 26.6155Z" fill="#585857"/>
<path d="M156.441 27.5662C156.421 27.5628 156.408 27.5395 156.411 27.5195L156.581 26.7656C156.584 26.7456 156.608 26.7323 156.628 26.7356L157.395 26.9091C157.415 26.9124 157.428 26.9358 157.425 26.9558L157.255 27.7096C157.252 27.7296 157.228 27.7429 157.208 27.7396L156.441 27.5662Z" fill="#5E5E5D"/>
<path d="M140.647 24.2975L141.414 24.4709C141.501 24.4909 141.558 24.5777 141.538 24.6677L141.368 25.4216C141.348 25.5083 141.261 25.565 141.171 25.545L140.404 25.3715C140.317 25.3515 140.26 25.2648 140.28 25.1747L140.451 24.4209C140.471 24.3342 140.561 24.2775 140.647 24.2975Z" fill="#585857"/>
<path d="M140.434 25.248C140.414 25.2447 140.401 25.2214 140.404 25.2014L140.574 24.4475C140.577 24.4275 140.601 24.4142 140.621 24.4175L141.388 24.591C141.408 24.5943 141.421 24.6176 141.418 24.6376L141.248 25.3915C141.245 25.4115 141.221 25.4248 141.201 25.4215L140.434 25.248Z" fill="#5E5E5D"/>
<path d="M141.958 24.591L142.726 24.7644C142.812 24.7845 142.869 24.8712 142.849 24.9612L142.679 25.7151C142.659 25.8018 142.572 25.8585 142.482 25.8385L141.715 25.665C141.628 25.645 141.571 25.5583 141.591 25.4682L141.762 24.7144C141.782 24.6277 141.872 24.571 141.958 24.591Z" fill="#585857"/>
<path d="M141.745 25.5416C141.725 25.5383 141.712 25.5149 141.715 25.4949L141.885 24.7411C141.889 24.7211 141.912 24.7077 141.932 24.7111L142.699 24.8845C142.719 24.8879 142.732 24.9112 142.729 24.9312L142.559 25.6851C142.556 25.7051 142.532 25.7184 142.512 25.7151L141.745 25.5416Z" fill="#5E5E5D"/>
<path d="M143.269 24.8878L144.037 25.0612C144.123 25.0813 144.18 25.168 144.16 25.258L143.99 26.0119C143.97 26.0986 143.883 26.1553 143.793 26.1353L143.026 25.9618C142.939 25.9418 142.882 25.8551 142.902 25.765L143.076 25.0112C143.096 24.9212 143.183 24.8678 143.269 24.8878Z" fill="#585857"/>
<path d="M143.056 25.8383C143.036 25.8349 143.022 25.8116 143.026 25.7916L143.196 25.0377C143.199 25.0177 143.222 25.0044 143.242 25.0077L144.01 25.1812C144.03 25.1845 144.043 25.2078 144.04 25.2279L143.87 25.9817C143.866 26.0017 143.843 26.015 143.823 26.0117L143.056 25.8383Z" fill="#5E5E5D"/>
<path d="M144.58 25.1814L145.347 25.3548C145.434 25.3749 145.491 25.4616 145.471 25.5516L145.3 26.3055C145.28 26.3922 145.194 26.4489 145.104 26.4289L144.337 26.2554C144.25 26.2354 144.193 26.1487 144.213 26.0586L144.383 25.3048C144.407 25.2181 144.493 25.1614 144.58 25.1814Z" fill="#585857"/>
<path d="M144.367 26.132C144.347 26.1287 144.333 26.1053 144.337 26.0853L144.507 25.3315C144.51 25.3115 144.534 25.2981 144.554 25.3015L145.321 25.4749C145.341 25.4783 145.354 25.5016 145.351 25.5216L145.181 26.2754C145.177 26.2955 145.154 26.3088 145.134 26.3055L144.367 26.132Z" fill="#5E5E5D"/>
<path d="M150.59 26.5323L145.884 25.4749C145.797 25.4549 145.714 25.5083 145.694 25.595L145.51 26.4055C145.497 26.4656 145.534 26.5256 145.594 26.5389L150.344 27.6063C150.43 27.6263 150.52 27.5696 150.54 27.4829L150.71 26.7291C150.734 26.6423 150.68 26.5523 150.59 26.5323Z" fill="#585857"/>
<path d="M145.641 26.4188L145.821 25.6216C145.824 25.6049 145.844 25.5916 145.861 25.5983L150.567 26.6556C150.587 26.6589 150.6 26.6823 150.597 26.7023L150.427 27.4561C150.424 27.4762 150.4 27.4895 150.38 27.4862L145.641 26.4188Z" fill="#5E5E5D"/>
<path d="M151.138 26.6557L151.905 26.8291C151.992 26.8492 152.049 26.9359 152.029 27.0259L151.858 27.7798C151.838 27.8665 151.752 27.9232 151.662 27.9032L150.894 27.7297C150.808 27.7097 150.751 27.623 150.771 27.5329L150.941 26.7791C150.961 26.6924 151.048 26.6357 151.138 26.6557Z" fill="#585857"/>
<path d="M150.924 27.6063C150.904 27.603 150.891 27.5796 150.894 27.5596L151.064 26.8058C151.068 26.7858 151.091 26.7724 151.111 26.7758L151.878 26.9492C151.898 26.9526 151.912 26.9759 151.908 26.9959L151.738 27.7498C151.735 27.7698 151.711 27.7831 151.691 27.7798L150.924 27.6063Z" fill="#5E5E5D"/>
<path d="M152.449 26.9526L153.216 27.126C153.302 27.146 153.359 27.2327 153.339 27.3228L153.169 28.0766C153.149 28.1634 153.062 28.2201 152.972 28.2L152.205 28.0266C152.118 28.0066 152.062 27.9199 152.082 27.8298L152.252 27.076C152.272 26.9859 152.362 26.9325 152.449 26.9526Z" fill="#585857"/>
<path d="M152.235 27.9032C152.215 27.8999 152.202 27.8765 152.205 27.8565L152.375 27.1027C152.379 27.0827 152.402 27.0693 152.422 27.0727L153.189 27.2461C153.209 27.2494 153.223 27.2728 153.219 27.2928L153.049 28.0466C153.046 28.0666 153.022 28.08 153.002 28.0766L152.235 27.9032Z" fill="#5E5E5D"/>
<path d="M153.759 27.2461L154.526 27.4195C154.613 27.4396 154.67 27.5263 154.65 27.6163L154.48 28.3702C154.46 28.4569 154.373 28.5136 154.283 28.4936L153.516 28.3201C153.429 28.3001 153.372 28.2134 153.392 28.1233L153.562 27.3695C153.582 27.2828 153.672 27.2261 153.759 27.2461Z" fill="#585857"/>
<path d="M153.546 28.1967C153.526 28.1934 153.513 28.17 153.516 28.15L153.686 27.3962C153.689 27.3762 153.713 27.3628 153.733 27.3662L154.5 27.5396C154.52 27.543 154.533 27.5663 154.53 27.5863L154.36 28.3401C154.356 28.3602 154.336 28.3735 154.313 28.3702L153.546 28.1967Z" fill="#5E5E5D"/>
<path d="M155.07 27.5394L155.837 27.7129C155.924 27.7329 155.981 27.8196 155.961 27.9097L155.791 28.6635C155.771 28.7502 155.684 28.8069 155.594 28.7869L154.827 28.6135C154.74 28.5935 154.683 28.5067 154.703 28.4167L154.873 27.6628C154.897 27.5761 154.983 27.5194 155.07 27.5394Z" fill="#585857"/>
<path d="M154.856 28.4902C154.836 28.4869 154.823 28.4636 154.826 28.4435L154.997 27.6897C155 27.6697 155.023 27.6564 155.043 27.6597L155.81 27.8331C155.83 27.8365 155.844 27.8598 155.84 27.8798L155.67 28.6337C155.667 28.6537 155.644 28.667 155.624 28.6637L154.856 28.4902Z" fill="#5E5E5D"/>
<path d="M156.381 27.8365L157.148 28.0099C157.235 28.0299 157.292 28.1167 157.272 28.2067L157.102 28.9605C157.082 29.0473 156.995 29.104 156.905 29.084L156.138 28.9105C156.051 28.8905 155.994 28.8038 156.014 28.7137L156.184 27.9599C156.208 27.8698 156.295 27.8165 156.381 27.8365Z" fill="#585857"/>
<path d="M156.168 28.7871C156.148 28.7838 156.135 28.7604 156.138 28.7404L156.308 27.9866C156.311 27.9666 156.335 27.9532 156.355 27.9566L157.122 28.13C157.142 28.1333 157.155 28.1567 157.152 28.1767L156.982 28.9305C156.979 28.9506 156.955 28.9639 156.935 28.9606L156.168 28.7871Z" fill="#5E5E5D"/>
<path d="M150.354 28.6602L146.504 27.7963C146.331 27.7563 146.158 27.8664 146.121 28.0398L145.657 30.0978C145.617 30.2713 145.727 30.4447 145.901 30.4814L149.75 31.3453C149.923 31.3853 150.097 31.2753 150.134 31.1018L150.597 29.0438C150.637 28.8703 150.527 28.7002 150.354 28.6602Z" fill="#EDEDED"/>
<path d="M150.384 28.5367L146.534 27.6728C146.294 27.6194 146.054 27.7695 146.001 28.0097L145.537 30.0677C145.484 30.3079 145.634 30.548 145.874 30.6014L149.723 31.4653C149.963 31.5187 150.204 31.3686 150.257 31.1284L150.721 29.0704C150.774 28.8302 150.624 28.5934 150.384 28.5367ZM150.137 31.1017C150.097 31.2752 149.927 31.3853 149.753 31.3452L145.904 30.4813C145.731 30.4413 145.621 30.2712 145.661 30.0977L146.124 28.0397C146.164 27.8663 146.334 27.7562 146.508 27.7962L150.357 28.6601C150.53 28.7002 150.64 28.8703 150.6 29.0437L150.137 31.1017Z" fill="#9D9B9B"/>
<path d="M145.888 29.0837L145.661 30.0977C145.621 30.2712 145.731 30.4446 145.904 30.4813L149.754 31.3452C149.927 31.3853 150.1 31.2752 150.137 31.1017L150.364 30.0877L145.888 29.0837Z" fill="#DFDFDE"/>
<path d="M148.109 29.581L145.888 29.0806L145.661 30.0946C145.621 30.2681 145.731 30.4415 145.904 30.4782L147.812 30.9085L148.109 29.581Z" fill="#D9D9DA"/>
<path d="M159.59 22.753L140.691 18.5036C140.581 18.4769 140.504 18.3735 140.514 18.2601L142.492 7.44633C142.519 7.14946 142.799 6.946 143.089 7.01271L162.338 11.3422C162.629 11.4089 162.795 11.7125 162.692 11.9926L159.853 22.6096C159.813 22.7164 159.703 22.7797 159.59 22.753Z" fill="#E3E1E1"/>
<path d="M141.338 17.4662L143.163 8.33683C143.189 8.05664 143.453 7.86318 143.726 7.92656L161.368 11.8925C161.641 11.9525 161.798 12.2427 161.701 12.5062L159.447 21.5355C159.367 21.7556 159.136 21.8791 158.906 21.829L141.702 17.9598C141.471 17.9098 141.318 17.6963 141.338 17.4662Z" fill="#C7C7C6"/>
<path d="M141.465 17.4795L143.289 8.34347C143.309 8.14001 143.499 7.99991 143.699 8.04661L161.348 12.0159C161.544 12.0592 161.661 12.2694 161.591 12.4595L159.33 21.4954C159.273 21.6556 159.106 21.7456 158.939 21.7089L141.725 17.8364C141.561 17.7997 141.448 17.6463 141.465 17.4795Z" fill="#C6E6F2"/>
<path opacity="0.24" d="M141.738 16.6056C142.065 16.0185 142.512 15.4648 143.006 15.0045C144.286 13.8137 146.071 13.1566 147.752 12.7964C149.733 12.3694 151.952 11.4955 153.966 11.6723C156.761 11.9125 158.653 12.3394 161.301 13.25L161.591 12.4595C161.661 12.2694 161.548 12.0592 161.348 12.0159L143.699 8.0466C143.503 8.00324 143.309 8.14333 143.289 8.34346L141.495 17.1492C141.555 16.9525 141.651 16.7623 141.738 16.6056Z" fill="#B6E0ED"/>
<path d="M156.851 22.1392L143.403 19.1139L143.409 18.8871L156.968 21.9358L156.851 22.1392Z" fill="#585857"/>
<path d="M152.472 9.54765C152.492 9.46426 152.576 9.41089 152.659 9.43091C152.742 9.45092 152.796 9.53431 152.776 9.6177C152.756 9.70109 152.672 9.75445 152.589 9.73444C152.505 9.71776 152.452 9.63437 152.472 9.54765Z" fill="#3C3C3B"/>
<path d="M152.515 9.55768C152.529 9.49764 152.589 9.46095 152.649 9.47429C152.709 9.48764 152.745 9.54767 152.732 9.60771C152.719 9.66775 152.659 9.70444 152.599 9.6911C152.539 9.67776 152.502 9.61772 152.515 9.55768Z" fill="#585857"/>
<path d="M152.579 9.57439C152.585 9.55104 152.609 9.53436 152.632 9.54103C152.655 9.5477 152.672 9.57105 152.665 9.5944C152.659 9.61775 152.635 9.63443 152.612 9.62776C152.589 9.62109 152.572 9.59774 152.579 9.57439Z" fill="#B6E0ED"/>
</g>
<path d="M32.8077 84.6373C31.9108 80.8457 28.1193 78.5074 24.3483 79.4079C20.5721 80.3085 18.2432 84.1154 19.1401 87.9018C19.772 90.5625 21.8308 92.5069 24.3075 93.1158C24.4502 93.4945 24.7152 95.7919 25.1891 96.5287C25.4031 96.8613 25.6732 96.9176 26.086 96.8306C26.4173 98.0126 27.8034 99.0974 28.9449 98.9899C29.745 98.9132 30.3259 98.3605 30.5858 97.6186C30.7896 97.0404 30.9527 96.3752 31.0546 95.7305C31.605 95.7152 31.87 95.6589 31.8445 95.1421C31.7987 94.2466 30.8304 91.7803 30.7947 91.4017C32.5529 89.7285 33.409 87.1803 32.8077 84.6373Z" fill="#FDFFFC"/>
<path d="M29.1538 84.3816C29.0468 83.9979 28.6697 83.742 28.2722 83.8393C27.9002 83.9262 27.6199 84.3407 27.732 84.7245C27.7983 84.9598 27.9715 85.1492 28.1805 85.2361C28.0276 86.2288 27.8339 87.2061 27.7524 88.209C27.676 89.1403 27.5995 90.051 27.3957 90.9567C26.2898 89.2938 25.1891 87.6359 23.9712 86.0548C24.3075 85.7325 24.0527 85.011 23.487 85.144C22.8195 85.3027 23.0641 86.3465 23.7367 86.1879C23.7418 86.1879 23.7469 86.1827 23.752 86.1776C25.0158 87.9736 26.2542 89.7952 27.2836 91.7396C27.3957 91.9494 27.7014 91.9033 27.7728 91.6884C28.1091 90.6855 28.2059 89.6622 28.2773 88.6132C28.3588 87.4824 28.578 86.3721 28.6697 85.2464C29.0111 85.1338 29.2557 84.7449 29.1538 84.3816Z" fill="#AEB4FC"/>
<path d="M20.6685 78.2006C19.2467 77.4944 17.8198 76.7832 16.398 76.072C16.1024 75.9287 15.8323 76.3534 16.1279 76.512C17.514 77.2795 18.9052 78.0419 20.2914 78.8095C20.699 79.0346 21.0761 78.4052 20.6685 78.2006Z" fill="#808AFF"/>
<path d="M23.3441 72.7767C23.2269 72.5157 22.8906 72.705 22.916 72.9404C23.0893 74.414 23.6346 75.9184 24.0626 77.3409C24.1697 77.6888 24.7047 77.5711 24.6181 77.2078C24.2665 75.7444 23.9607 74.1531 23.3441 72.7767Z" fill="#808AFF"/>
<path d="M29.9691 72.347C29.6022 72.6693 29.378 73.181 29.1487 73.6108C28.9092 74.0611 28.6951 74.5216 28.4913 74.9872C28.3282 75.3659 28.955 75.5654 29.113 75.1766C29.3016 74.7007 29.5054 74.2402 29.7398 73.7848C29.9386 73.3908 30.229 73.007 30.3462 72.5823C30.4125 72.3521 30.1373 72.1935 29.9691 72.347Z" fill="#808AFF"/>
</g>
<path d="M84.5 159C103.554 159 119 156.314 119 153C119 149.686 103.554 147 84.5 147C65.4462 147 50 149.686 50 153C50 156.314 65.4462 159 84.5 159Z" fill="#808AFF"/>
<path d="M73.7807 141.103C74.1885 142.406 73.786 143.852 73.0578 145.006C72.3296 146.16 71.3022 147.093 70.3305 148.051C69.3587 149.01 68.4081 150.042 67.8917 151.308C67.7196 151.732 67.6111 152.256 67.8891 152.621C68.1539 152.966 68.649 153.013 69.0833 152.997C71.1698 152.934 73.1849 152.139 74.951 151.025C75.9573 150.389 76.8946 150.191 77.3818 149.105C77.8267 148.115 77.8505 146.401 77.8346 145.316C77.8187 144.304 77.8002 143.293 77.7843 142.284C77.779 142.014 77.7605 141.709 77.5566 141.529C77.4136 141.405 77.2124 141.373 77.0244 141.347C75.9149 141.196 74.8054 141.042 73.6986 140.891" fill="#DEBB95"/>
<path d="M93.1052 141.103C92.6974 142.406 93.0999 143.852 93.8281 145.006C94.5563 146.16 95.5836 147.093 96.5554 148.051C97.5272 149.01 98.4778 150.042 98.9941 151.308C99.1662 151.732 99.2748 152.256 98.9968 152.621C98.732 152.966 98.2368 153.013 97.8026 152.997C95.716 152.934 93.701 152.139 91.9348 151.025C90.9286 150.389 89.9913 150.191 89.5041 149.105C89.0592 148.115 89.0354 146.401 89.0513 145.316C89.0672 144.304 89.0857 143.293 89.1016 142.284C89.1069 142.014 89.1254 141.709 89.3293 141.529C89.4723 141.405 89.6735 141.373 89.8615 141.347C90.971 141.196 92.0805 141.042 93.1873 140.891" fill="#DEBB95"/>
<path d="M73.4656 144.246C73.9157 143.253 74.1011 142.133 73.7781 141.103L73.696 140.891C74.8028 141.042 75.9149 141.193 77.0217 141.347C77.2124 141.373 77.411 141.405 77.554 141.529C77.7579 141.707 77.7764 142.011 77.779 142.281C77.7896 142.935 77.8002 143.589 77.8135 144.246C77.1568 144.323 76.418 144.373 75.6104 144.373C74.8266 144.373 74.1064 144.323 73.4656 144.246Z" fill="#987957"/>
<path d="M93.4201 144.246C92.819 144.318 92.1517 144.365 91.4315 144.373C90.563 144.381 89.7713 144.328 89.0722 144.246C89.0907 143.481 89.096 142.851 89.1066 142.281C89.1119 142.011 89.1305 141.707 89.3317 141.529C89.472 141.402 89.6733 141.37 89.8613 141.347C90.9707 141.196 92.0802 141.045 93.1897 140.891L93.1076 141.103C92.7819 142.136 92.9699 143.253 93.4201 144.246Z" fill="#987957"/>
<path d="M82.6697 104.191C82.6618 105.338 82.6432 106.5 82.6115 107.679C82.6062 108.031 82.5956 108.38 82.5823 108.733C82.577 109 82.5664 109.265 82.5559 109.532C82.5082 110.922 82.4446 112.328 82.3652 113.758C82.3387 114.24 82.3096 114.725 82.2778 115.212C82.2487 115.686 82.2169 116.163 82.1825 116.642C82.1401 117.251 82.0925 117.855 82.0474 118.456C82.021 118.776 81.9971 119.096 81.968 119.417C81.9177 120.026 81.8621 120.632 81.8065 121.236C81.7191 122.16 81.6291 123.074 81.5285 123.979C81.4993 124.257 81.4702 124.53 81.4384 124.803C81.3484 125.605 81.2557 126.397 81.1578 127.181C81.1233 127.461 81.0889 127.742 81.0518 128.023C81.0148 128.301 80.9803 128.581 80.9406 128.857C80.9036 129.135 80.8665 129.41 80.8294 129.685C80.7023 130.625 80.5673 131.552 80.4269 132.466C80.3872 132.741 80.3449 133.014 80.2998 133.287C80.2098 133.859 80.1198 134.428 80.0271 134.992C79.9424 135.5 79.8576 136.003 79.7703 136.506C79.4975 138.09 79.2089 139.634 78.915 141.138C78.8673 141.387 78.8144 141.635 78.7641 141.887C78.7005 142.207 78.6343 142.525 78.5708 142.84C78.5337 143.015 78.4993 143.19 78.4622 143.362H72.8619C71.6386 140.317 70.3252 136.525 69.2449 132.092C67.8521 126.376 66.8511 119.594 66.9597 111.984C66.965 111.64 66.973 111.298 66.9809 110.959C67.153 104.676 68.048 99.1604 69.1283 94.614C69.131 94.6061 69.1336 94.5981 69.1336 94.5875L80.795 94.3174C81.3855 94.3015 81.9548 94.2909 82.4923 94.2777C82.5347 95.2892 82.5717 96.3139 82.6009 97.3572C82.6115 97.7094 82.6194 98.0616 82.6273 98.4137C82.6432 99.1128 82.6538 99.8171 82.6618 100.529C82.6776 101.729 82.6803 102.95 82.6697 104.191Z" fill="#559D78"/>
<path d="M97.9614 130.882C96.8334 135.834 95.3903 140.038 94.0584 143.356H88.4581C88.421 143.184 88.3866 143.009 88.3495 142.835C86.7608 135.156 85.4236 126.37 84.7352 116.639C84.6663 115.67 84.6054 114.709 84.5551 113.758C84.1606 106.744 84.1712 100.217 84.4227 94.2695C84.7007 94.2748 84.9735 94.2827 85.2515 94.288C85.4024 94.2933 85.5587 94.2933 85.7149 94.2986C85.8473 94.3012 85.9744 94.3039 86.1068 94.3065C89.8668 94.3966 93.6242 94.4813 97.3815 94.5713C97.5139 94.574 97.649 94.5766 97.784 94.5793C98.8299 98.9721 99.7037 104.271 99.9156 110.297C99.9341 110.851 99.95 111.412 99.9579 111.976C100.061 119.062 99.2033 125.425 97.9614 130.882Z" fill="#559D78"/>
<path d="M97.9612 130.882C96.5896 135.285 95.0088 139.083 93.8014 142.167C93.6452 142.572 93.2559 142.835 92.8243 142.835H88.352C86.7633 135.156 85.4261 126.37 84.7376 116.639C84.6688 115.67 84.6079 114.709 84.5576 113.758C84.163 106.744 84.1736 100.217 84.4252 94.2695C84.7032 94.2748 84.9759 94.2827 85.254 94.288C85.4049 94.2933 85.5611 94.2933 85.7174 94.2986C85.8497 94.3012 85.9768 94.3039 86.1092 94.3065C89.8693 94.3966 93.6266 94.4813 97.384 94.5713C97.5164 94.574 97.6514 94.5766 97.7865 94.5793C98.8324 98.9721 99.7062 104.271 99.918 110.297C99.9366 110.851 99.9525 111.412 99.9604 111.976C100.061 119.062 99.2031 125.425 97.9612 130.882Z" fill="#66A986"/>
<path d="M82.6697 104.192C82.6618 105.338 82.6432 106.501 82.6115 107.679C82.6062 108.031 82.5956 108.381 82.5823 108.733C82.577 109 82.5664 109.265 82.5559 109.532C82.5082 110.923 82.4446 112.329 82.3652 113.758C82.3387 114.24 82.3096 114.725 82.2778 115.212C82.2513 115.686 82.2196 116.163 82.1851 116.642C82.1428 117.251 82.0951 117.855 82.0474 118.456C82.021 118.776 81.9971 119.097 81.968 119.417C81.9177 120.026 81.8621 120.632 81.8065 121.236C81.7191 122.16 81.6291 123.074 81.5285 123.979C81.4993 124.257 81.4702 124.53 81.4384 124.803C81.3484 125.605 81.2557 126.397 81.1578 127.181C81.1233 127.461 81.0889 127.742 81.0518 128.023C81.0148 128.301 80.9803 128.581 80.9406 128.857C80.9036 129.135 80.8665 129.41 80.8294 129.686C80.7023 130.626 80.5673 131.552 80.4269 132.466C80.3872 132.741 80.3449 133.014 80.2998 133.287C80.2098 133.859 80.1198 134.428 80.0271 134.992C79.9424 135.5 79.8576 136.003 79.7703 136.507C79.4975 138.09 79.2089 139.634 78.915 141.138C78.8673 141.387 78.8144 141.636 78.7641 141.887C78.7005 142.208 78.6343 142.525 78.5708 142.84H74.0985C73.6668 142.84 73.2803 142.576 73.1214 142.173C72.0225 139.366 70.5741 135.985 69.2449 132.095C67.8521 126.378 66.8511 119.597 66.9597 111.987C66.965 111.643 66.973 111.301 66.9809 110.962C67.153 104.679 68.048 99.1633 69.1283 94.6168C72.7189 94.5268 77.1621 94.4129 80.795 94.3202C81.3855 94.3044 81.9548 94.2938 82.4923 94.2805H82.5002C82.5426 95.2894 82.5797 96.3168 82.6062 97.36C82.6168 97.7122 82.6247 98.0644 82.6326 98.4165C82.6485 99.1156 82.6591 99.8199 82.6671 100.532C82.6777 101.729 82.6803 102.95 82.6697 104.192Z" fill="#66A986"/>
<path d="M82.4974 94.2695C82.7516 100.225 82.7622 106.762 82.365 113.795C76.1425 113.758 70.9023 112.416 66.9834 110.951C67.1555 104.655 68.0558 99.131 69.1388 94.5793L82.4974 94.2695Z" fill="#559D78"/>
<path d="M99.9208 110.3C95.9013 111.984 90.7035 113.493 84.5603 113.758C84.1658 106.744 84.1764 100.217 84.428 94.2695C88.8817 94.3727 93.3355 94.476 97.7892 94.5793C98.8352 98.9748 99.709 104.273 99.9208 110.3Z" fill="#559D78"/>
<path d="M79.7913 46.3772L80.1514 44.7487L81.6766 43.5784H88.1004L89.3714 44.8043V46.3401L79.7913 46.3772Z" fill="#79ACCC"/>
<path d="M104.758 100.596C106.011 102.833 105.14 105.672 102.839 106.8C98.3903 108.984 92.7449 111.323 84.2584 111.511C75.7428 111.699 68.8847 109.527 64.4654 107.605C62.4821 106.742 61.3858 104.594 61.8757 102.486C63.5439 95.2868 66.4936 85.8629 67.5396 81.5866C67.709 80.8928 67.8759 80.2229 68.04 79.5742C68.2227 78.8513 68.4028 78.1576 68.5749 77.4876C68.5775 77.4744 68.5828 77.4612 68.5855 77.4479C69.0595 75.6447 69.5017 74.0401 69.8989 72.6393C70.5741 70.2615 71.003 68.9005 71.3261 67.9499C71.9722 66.0434 72.1866 65.8104 73.1028 62.392C74.7207 56.3494 75.2661 52.5471 78.4833 48.6864C79.471 47.5002 80.4322 46.6422 81.1101 46.0915C81.9892 45.6625 82.8365 45.3898 83.5964 45.2203C84.645 44.9846 85.5268 44.9396 86.1067 44.9396C88.2409 44.9396 89.9037 45.5407 90.8596 45.9776C90.947 46.0173 91.0291 46.0571 91.1032 46.0915C96.4414 52.1975 98.2764 57.0591 98.6259 60.7847C98.7292 61.8888 98.7027 62.8951 98.5968 63.8006C98.4697 64.9075 98.2155 65.9481 97.9481 67.1502C97.9428 67.1635 97.9401 67.1794 97.9375 67.1952C97.9083 67.3303 97.8766 67.4706 97.8475 67.6136C97.8395 67.648 97.8316 67.6851 97.8236 67.7222C97.49 69.2924 97.1643 71.1671 97.061 73.7912C97.0001 75.3825 97.0372 76.8468 97.1219 78.1337C97.1246 78.184 97.1272 78.2317 97.1325 78.2794C97.1325 78.2794 97.1325 78.2794 97.1325 78.282C97.3179 80.9326 97.6992 82.7993 97.8316 83.3978C98.8219 88.0236 102.063 95.7793 104.758 100.596Z" fill="#F2EDE4"/>
<path d="M109.612 45.4766C109.459 47.9948 108.784 49.8404 108.625 50.2667C108.045 51.8157 107.298 53.0443 106.498 54.1935C106.21 54.6119 105.913 55.017 105.619 55.4248C103.461 58.3957 101.637 60.003 100.962 60.8742C99.6086 62.6165 98.5918 64.3562 97.9484 67.1576C97.9457 67.1709 97.9404 67.1868 97.9378 67.2027C97.906 67.3377 97.8769 67.478 97.8478 67.621C97.8398 67.6554 97.8319 67.6925 97.8239 67.7296C97.3235 70.2001 97.0852 73.4702 97.1302 78.1676C97.1302 78.2073 97.1302 78.247 97.1302 78.2868C97.1302 78.2868 97.1302 78.2868 97.1302 78.2894C93.3066 75.8057 92.2342 66.6916 87.7037 56.7726C85.7469 52.4856 84.828 48.4926 84.3885 45.3204C84.9949 45.2145 85.9402 45.098 87.084 45.2092C88.0241 45.2992 88.6887 45.5005 88.9641 45.5746C89.115 45.617 89.8643 45.8447 90.86 45.985C92.1786 46.1677 93.9262 46.1969 95.282 45.4396C97.4162 44.2427 98.6024 41.947 98.6977 39.6883C98.7295 38.9548 98.6474 38.224 98.4436 37.5382C97.9669 35.9256 96.9289 34.8903 96.3464 34.3925C96.4576 33.9874 96.6244 33.4922 96.8733 32.9468C96.876 32.9415 96.8786 32.9335 96.8813 32.9282C97.0746 32.5046 97.3182 32.0518 97.6227 31.5857C98.0675 30.9132 98.5415 30.373 98.9678 29.9573C98.9811 29.9414 98.9943 29.9282 99.0076 29.9176C99.1558 29.7719 99.2988 29.6422 99.4339 29.5283C100.588 30.1082 104.679 32.2848 107.314 36.4129C108.148 37.7156 108.834 39.2143 109.236 40.9196C109.3 41.187 109.356 41.4545 109.401 41.7166C109.644 43.0564 109.681 44.3354 109.612 45.4766Z" fill="#F2EDE4"/>
<path d="M84.25 45.3177C83.8105 48.4899 82.8917 52.483 80.9349 56.7699C76.6585 66.1382 72.3716 75.9407 68.6883 79.0917C68.4712 79.2771 68.2567 79.4386 68.0449 79.5789C68.2382 78.8534 68.4156 78.1597 68.5798 77.4924C68.5824 77.4792 68.5877 77.4659 68.5904 77.4527C71.4686 65.7993 70.1129 62.9422 67.976 60.8795C67.1843 60.1142 65.1825 58.3957 63.0218 55.4248C61.9097 53.8969 60.8055 52.3797 60.0165 50.2693C59.9556 50.1052 59.8179 49.7318 59.6643 49.1916C59.6643 49.189 59.6643 49.189 59.6643 49.189C59.1983 47.5579 58.5786 44.4148 59.4048 40.9196C59.8443 39.0661 60.6175 37.4561 61.5496 36.0739C64.1869 32.1656 68.0873 30.0923 69.2073 29.5283C69.3424 29.6422 69.4854 29.7719 69.6336 29.9202C69.6469 29.9308 69.6601 29.944 69.6734 29.9599C70.0997 30.3756 70.5736 30.9158 71.0185 31.5884C71.3256 32.0544 71.5666 32.5072 71.7626 32.9309C71.7652 32.9362 71.7678 32.9415 71.7705 32.9494C72.0194 33.4949 72.1862 33.99 72.2974 34.3952C71.7122 34.893 70.6769 35.9283 70.1976 37.5409C70.0335 38.0916 69.9487 38.6689 69.9381 39.2541C69.8905 41.6478 71.09 44.1659 73.3592 45.4422C75.7397 46.7767 79.3223 45.6779 79.6771 45.5799C79.9499 45.5031 80.6171 45.3019 81.5545 45.2145C82.3462 45.1377 83.0426 45.1695 83.596 45.233C83.8423 45.2516 84.062 45.2833 84.25 45.3177Z" fill="#F2EDE4"/>
<path d="M89.5912 45.9322C87.2717 48.8687 85.4896 51.8714 84.6899 54.9906C83.7764 51.1538 82.0129 48.3418 79.7913 46.0937C79.7913 46.0937 81.0782 44.5685 81.6528 43.6152C81.7137 43.5146 81.7667 43.422 81.809 43.3372C81.9785 43.0009 82.0606 42.3972 82.0976 41.7723C82.1612 40.7396 82.0976 39.654 82.0976 39.654L88.8233 39.8791C88.8233 39.8791 88.7651 40.684 88.6618 41.9127C88.6353 42.2516 88.6009 42.6223 88.5665 43.0195C88.5426 43.2763 88.5479 43.5173 88.5718 43.745C88.7147 45.1272 89.5912 45.9322 89.5912 45.9322Z" fill="#DEBB95"/>
<path d="M88.5665 43.0168C88.5426 43.2737 88.5479 43.5146 88.5718 43.7424C88.0581 44.0442 86.7632 44.7115 84.9971 44.6532C83.3422 44.5976 82.1559 43.9357 81.6501 43.6126C81.674 43.5729 81.7031 43.5252 81.7349 43.4696C81.7614 43.4246 81.7852 43.3796 81.8064 43.3372C81.9758 43.0009 82.0579 42.3972 82.095 41.7723C82.1585 40.7396 82.095 39.654 82.095 39.654L88.8207 39.8791C88.8207 39.8791 88.7624 40.684 88.6591 41.9127C88.6327 42.2489 88.5982 42.6223 88.5665 43.0168Z" fill="#987957"/>
<path d="M81.6767 43.5784C81.6767 43.5784 80.5461 44.4919 80.7605 45.7629C80.9777 47.0365 83.2814 48.8371 83.2814 48.8371L82.2487 52.8248C82.2487 52.8248 77.7578 48.8371 80.1515 44.7461L81.6767 43.5784Z" fill="#D9C9AC"/>
<path d="M83.2811 48.8397C83.2811 48.8397 85.6378 54.869 84.7243 62.5055H84.049C84.049 62.5055 84.3403 52.7295 82.8019 50.688L83.2811 48.8397Z" fill="#D9C9AC"/>
<path d="M88.6223 44.084C88.6223 44.084 89.1651 44.5341 89.0141 45.7654C88.8579 47.047 86.4933 48.8396 86.4933 48.8396L87.526 52.8274C87.526 52.8274 91.7838 48.8396 89.7503 44.934C89.6894 44.8148 89.5861 44.7221 89.4722 44.648L88.6223 44.084Z" fill="#D9C9AC"/>
<path d="M86.4933 48.8397C86.4933 48.8397 83.4403 54.869 84.3538 62.5055H85.029C85.029 62.5055 85.4368 52.7295 86.9752 50.688L86.4933 48.8397Z" fill="#D9C9AC"/>
<path d="M71.8501 68.3891C71.1087 72.3954 70.0204 75.7714 68.6859 79.0893C68.3258 79.9816 67.9418 80.821 67.5393 81.5862C67.7088 80.8925 67.8756 80.2226 68.0398 79.5738C68.2225 78.851 68.4026 78.1572 68.5747 77.4873C68.5773 77.474 68.5826 77.4608 68.5853 77.4476C71.4635 65.7942 70.1078 62.9371 67.9709 60.8744C67.1792 60.1091 65.1774 58.3906 63.0167 55.4197C61.9046 53.8918 60.8004 52.3746 60.0114 50.2642C59.9505 50.1001 59.8128 49.7267 59.6592 49.1865C59.7307 49.3507 64.1103 54.9219 69.2472 58.5283C72.144 60.5646 72.7875 63.3237 71.8501 68.3891Z" fill="#D9C9AC"/>
<path d="M106.498 54.1937C106.21 54.6121 105.913 55.0172 105.619 55.425C103.461 58.3959 101.637 60.0032 100.961 60.8744C99.6083 62.6167 98.5915 64.3564 97.9481 67.1578C97.9454 67.1711 97.9401 67.187 97.9375 67.2029C97.9083 67.3379 97.8766 67.4782 97.8475 67.6212C97.8395 67.6557 97.8316 67.6927 97.8236 67.7298C97.3232 70.2003 97.0849 73.4704 97.1299 78.1678C97.1272 78.1599 97.1246 78.1519 97.1219 78.1413C96.4864 76.3699 96.0124 74.5428 95.7026 72.6893C95.2154 69.7554 95.1704 66.6283 96.4308 63.9327C96.9816 62.757 97.7415 61.7296 98.6286 60.7923C100.927 58.3483 104.065 56.5133 106.498 54.1937Z" fill="#D9C9AC"/>
<path d="M88.8232 39.8792C88.8232 39.8792 88.765 40.6841 88.6617 41.9127C87.8885 42.3708 86.9803 42.5615 86.0853 42.6409C85.0738 42.7283 84.0332 42.6806 83.0852 42.3152C82.7357 42.1802 82.3994 41.9975 82.0976 41.7751C82.1611 40.7424 82.0976 39.6567 82.0976 39.6567L88.8232 39.8792Z" fill="#987957"/>
<path d="M92.7871 27.7123C92.5514 26.7856 92.3131 25.8535 91.6061 24.9426C89.652 22.4245 85.8205 22.2735 83.4479 22.7634C82.4153 22.9779 80.6226 23.3486 79.2749 24.8685C77.8238 26.5075 77.7603 28.5041 77.6861 30.8501C77.6146 33.1273 78.0356 34.7187 78.6817 37.1627C78.9359 38.1265 79.4072 39.7232 80.5273 41.2987C81.0172 41.9872 81.4647 42.44 82.0604 42.7763C82.7754 43.1787 83.4056 43.2476 84.3112 43.3482C85.2697 43.4541 86.1991 43.5547 87.2636 43.1443C87.3933 43.094 87.9149 42.8875 88.5504 42.395C90.449 40.9174 91.7491 38.1133 92.1198 37.2766C92.1225 37.2739 93.7721 30.5535 92.7871 27.7123Z" fill="#DEBB95"/>
<path d="M77.3076 32.0869C77.3605 32.4443 77.8345 32.6429 78.1099 32.4205C78.3826 32.1981 78.3191 31.6685 78.0013 31.5229C78.4488 31.2131 78.5415 30.4664 78.184 30.048C78.5124 29.9765 78.7375 29.6349 78.7984 29.2881C78.8593 28.9412 78.7931 28.5864 78.7427 28.2395C78.7269 28.1309 78.7136 28.0197 78.7427 27.9164C78.7745 27.7973 78.854 27.702 78.9202 27.6013C79.1876 27.1777 79.1717 26.5819 78.8857 26.1741C79.1505 26.2509 79.4127 25.9755 79.4418 25.6896C79.4736 25.4036 79.3465 25.1282 79.222 24.8713C79.9105 25.4248 81.0597 25.1229 81.4198 24.2941C81.4648 24.7522 81.9652 25.0541 82.3995 24.9826C82.8338 24.9111 83.1859 24.5563 83.4057 24.1564C83.4242 24.686 84.0227 25.0223 84.5231 24.9349C85.0236 24.8475 85.4287 24.4795 85.8073 24.1246C85.9053 24.5192 86.231 24.8634 86.6176 24.8872C87.0042 24.9084 87.3934 24.5245 87.3193 24.1246C87.3458 24.588 87.8118 24.9137 88.2567 24.9243C88.6989 24.9375 89.1146 24.7231 89.5118 24.5139C89.5594 24.8899 89.811 25.2288 90.1473 25.3718C90.4835 25.5148 90.8887 25.4539 91.172 25.2209C91.0422 25.4751 91.082 25.814 91.2673 26.0258C91.4527 26.2377 91.7704 26.3092 92.0246 26.1953C91.7837 26.5501 91.5427 26.9447 91.5559 27.3816C91.5692 27.8185 91.9637 28.2607 92.3609 28.1336C92.1305 28.5202 91.9134 28.9491 91.9372 29.4019C91.9611 29.8573 92.3238 30.3207 92.7554 30.2704C92.4827 30.4372 92.1914 30.6279 92.0802 30.9377C91.969 31.2475 92.1729 31.6844 92.488 31.6473C92.39 31.8671 92.3371 32.1081 92.3344 32.349C92.3318 32.4549 92.3424 32.5635 92.3927 32.6562C92.4562 32.77 92.5727 32.8389 92.6919 32.8839C93.15 33.0534 93.706 32.876 94 32.4682C94.2939 32.0604 94.3018 31.454 94.0211 31.0383C94.4289 30.8503 94.842 30.567 94.9797 30.1221C95.1174 29.6773 94.8102 29.0842 94.368 29.1292C94.6381 28.965 94.9135 28.7982 95.1227 28.5519C95.3318 28.3083 95.4616 27.9667 95.3901 27.649C95.3186 27.3313 94.9956 27.0691 94.6937 27.1538C94.7917 26.9923 94.8923 26.8229 94.9082 26.6322C94.9241 26.4416 94.8261 26.2244 94.6487 26.1821C95.0088 25.9967 95.2047 25.5227 95.0909 25.1202C94.9744 24.7178 94.5613 24.4371 94.1641 24.4901C94.2594 24.0532 94.3521 23.5898 94.2144 23.1661C94.0767 22.7424 93.5048 22.4724 93.1129 22.6498V22.663C93.2612 22.242 93.15 21.7362 92.8402 21.4264C92.5304 21.1166 92.0405 21.024 91.6486 21.2014C91.7148 20.7353 91.5612 20.2163 91.1932 19.9463C90.8251 19.6762 90.2426 19.7397 89.999 20.1343C89.8586 19.6365 89.6998 19.1095 89.3158 18.7838C88.9319 18.4581 88.2461 18.4767 88.0395 18.948C87.9468 18.4714 87.5099 18.0927 87.0466 18.0821C86.5805 18.0742 86.133 18.4343 86.0218 18.9083C85.8947 18.3734 85.3784 17.9524 84.8568 18.008C84.3325 18.0636 83.8982 18.6382 84.0094 19.1757C83.787 18.813 83.4004 18.519 82.99 18.564C82.5796 18.6091 82.2353 19.1148 82.4366 19.4935C81.9732 19.234 81.4251 19.0433 80.9273 19.2234C80.4295 19.4034 80.0958 20.0919 80.4083 20.5341C80.0058 20.362 79.5504 20.2137 79.1452 20.3779C78.7401 20.542 78.5044 21.1643 78.8248 21.4688C78.5389 21.3841 78.2449 21.2967 77.9457 21.3152C77.6465 21.3338 77.342 21.4847 77.2043 21.7627C77.0693 22.0407 77.1752 22.4459 77.4585 22.5438C77.0269 22.5968 76.5635 22.7107 76.2881 23.0602C76.0128 23.4124 76.079 24.0637 76.4947 24.1935C75.9995 24.2226 75.4752 24.4636 75.274 24.9375C75.0754 25.4115 75.3905 26.092 75.8857 26.0735L75.8407 26.0656C75.4964 26.0179 75.2634 26.5342 75.2555 26.8996C75.2475 27.2651 75.5785 27.596 75.9254 27.5696C75.6818 27.649 75.4646 27.8317 75.3667 28.078C75.2687 28.3242 75.3084 28.634 75.4885 28.822C75.6685 29.01 75.9889 29.0418 76.1822 28.867C75.8989 29.0921 75.6844 29.4151 75.5838 29.7726C75.5494 29.8944 75.5282 30.0242 75.5547 30.1486C75.6076 30.379 75.8301 30.5379 76.0551 30.5564C76.2802 30.5749 76.5026 30.4796 76.688 30.3446C76.4735 30.6411 76.4629 31.0648 76.6085 31.4064C76.7542 31.748 77.0296 32.0101 77.3394 32.1901" fill="#405050"/>
<path d="M78.2053 33.4535C77.9114 32.8498 77.5963 32.3944 77.3553 32.0872C76.8258 31.412 76.5319 31.277 76.3227 31.2187C76.2141 31.1896 75.8116 31.081 75.5468 31.2929C75.3112 31.4835 75.3032 31.833 75.3059 32.0687C75.3244 33.4218 75.7295 34.6848 75.8593 35.0767C76.2353 36.2206 76.4259 36.586 76.7649 36.9038C77.2362 37.3486 77.6493 37.3804 77.7419 37.383C77.8558 37.3883 78.0915 37.3963 78.3139 37.2533C78.7561 36.97 78.7402 36.3609 78.7376 36.3106C78.5601 35.36 78.3827 34.4068 78.2053 33.4535Z" fill="#DEBB95"/>
<path d="M92.1226 37.2742C92.2259 37.3721 92.4112 37.5151 92.6627 37.5443C92.7501 37.5548 93.1076 37.584 93.6213 37.1259C94.7625 36.1117 94.834 34.3482 94.8632 33.6439C94.8764 33.3182 94.8764 32.7727 94.5428 32.3279C94.4527 32.2087 94.2806 31.981 94.0026 31.9466C93.7775 31.9175 93.5975 32.0287 93.473 32.1055C92.9964 32.4073 92.8269 32.9343 92.7713 33.1514C92.774 33.1514 91.8022 36.5354 92.1226 37.2742Z" fill="#DEBB95"/>
<path d="M68.9062 30.409C68.9062 30.409 71.7606 28.6958 72.1763 28.4099C72.1763 28.4099 72.3961 28.2616 72.69 27.7849C72.69 27.7849 73.2964 26.0929 73.4102 25.6719C73.5241 25.2509 73.6327 24.5545 73.8683 24.3136C74.1013 24.0726 75.4465 23.1273 75.6795 23.0108C75.9125 22.8943 78.0652 22.092 78.2532 22.1184C78.4412 22.1476 78.3803 22.4468 78.3803 22.4468C78.3803 22.4468 78.6372 22.3965 78.7246 22.4891C78.8093 22.5818 78.5763 22.9499 78.5763 22.9499C78.5763 22.9499 78.8067 23.4159 78.4889 23.6383C78.4889 23.6383 78.6478 23.9852 78.3618 24.2209C78.0758 24.4565 77.4086 24.8061 77.4086 24.8061C77.4086 24.8061 76.8737 25.431 76.6221 25.6269C76.6221 25.6269 76.6274 26.138 76.503 26.6622C76.3785 27.1892 76.2435 28.3754 76.0979 29.1089C75.9522 29.8424 75.6106 30.1257 74.991 30.5414C74.3714 30.9571 73.1693 32.0401 72.5232 32.853C70.6855 35.1567 70.4764 34.6139 69.1551 33.2714C67.6616 31.7594 68.9062 30.409 68.9062 30.409Z" fill="#DEBB95"/>
<path d="M78.487 23.6376C76.7368 24.4823 76.9327 24.3657 75.6141 25.74C75.7968 25.2581 76.2469 24.7311 76.6944 24.4002C77.2558 24.1142 77.931 23.7964 78.487 23.6376Z" fill="#D5AF86"/>
<path d="M78.572 22.9517C77.82 23.3277 76.8535 23.6614 76.1544 24.1089C75.7652 24.4425 75.3521 24.8556 74.9549 25.1839C75.2012 24.7152 75.6805 24.1989 76.1571 23.8732C76.9303 23.5475 77.8173 23.1715 78.572 22.9517Z" fill="#D5AF86"/>
<path d="M78.3785 22.4484C77.6291 22.782 76.6706 23.1792 75.9424 23.5287C75.3969 23.9391 74.8938 24.4131 74.3192 24.7891C74.6714 24.294 75.2566 23.7856 75.7915 23.4096C76.6229 23.0627 77.5656 22.6814 78.3785 22.4484Z" fill="#D5AF86"/>
<path d="M100.323 30.7233C100.323 30.7233 97.9555 28.8036 97.5848 28.4593C97.5848 28.4593 97.3889 28.2793 97.1691 27.7656C97.1691 27.7656 96.8195 26.0047 96.7692 25.5705C96.7189 25.1362 96.7136 24.4319 96.5177 24.1591C96.3217 23.8864 95.1302 22.7531 94.9184 22.6048C94.7065 22.4565 92.6941 21.3444 92.5035 21.3444C92.3155 21.3444 92.3287 21.6516 92.3287 21.6516C92.3287 21.6516 92.0798 21.5642 91.9818 21.6436C91.8839 21.7231 92.0613 22.1203 92.0613 22.1203C92.0613 22.1203 91.7647 22.5466 92.0454 22.814C92.0454 22.814 91.8362 23.1344 92.0851 23.4098C92.334 23.6852 92.943 24.1274 92.943 24.1274C92.943 24.1274 93.3799 24.8238 93.5997 25.0568C93.5997 25.0568 93.5203 25.5599 93.5653 26.1C93.6103 26.6376 93.5706 27.8318 93.605 28.5811C93.6394 29.3278 93.9386 29.6588 94.4894 30.1619C95.0402 30.6624 96.4171 32.7675 97.0128 33.6174C97.6086 34.4674 98.358 34.854 99.862 33.7181C101.559 32.4365 100.323 30.7233 100.323 30.7233Z" fill="#DEBB95"/>
<path d="M92.0491 22.8134C93.6563 23.9069 93.4789 23.7613 94.5805 25.3156C94.4693 24.8125 94.1038 24.2247 93.7093 23.8302C93.1956 23.4647 92.5734 23.0517 92.0491 22.8134Z" fill="#D5AF86"/>
<path d="M92.0623 22.1198C92.7508 22.6017 93.6564 23.0731 94.2839 23.6212C94.6202 24.0078 94.9697 24.4764 95.3139 24.863C95.1392 24.3626 94.742 23.7827 94.3183 23.3908C93.5981 22.9513 92.7799 22.4482 92.0623 22.1198Z" fill="#D5AF86"/>
<path d="M92.3297 21.6512C93.0208 22.0907 93.9105 22.6256 94.5804 23.0784C95.0597 23.563 95.4887 24.1084 95.9997 24.5639C95.7243 24.0211 95.2212 23.4332 94.7472 22.9831C93.9767 22.5197 93.0976 22.0007 92.3297 21.6512Z" fill="#D5AF86"/>
<path d="M72.2923 34.3875C71.7071 34.8853 70.6718 35.9206 70.1925 37.5332C70.0283 38.084 69.9436 38.6612 69.933 39.2464C67.0124 39.5191 63.2179 38.3514 61.5445 36.0689C64.1818 32.1606 68.0821 30.0873 69.2022 29.5233C69.3372 29.6372 69.4802 29.7669 69.6285 29.9152C69.6418 29.9258 69.655 29.939 69.6682 29.9549C70.0945 30.3706 70.5685 30.9108 71.0134 31.5834C71.3205 32.0494 71.5615 32.5022 71.7574 32.9259C71.7601 32.9312 71.7627 32.9365 71.7654 32.9444C72.0143 33.4872 72.1811 33.9824 72.2923 34.3875Z" fill="#F2EDE4"/>
<path d="M107.314 36.4079C105.497 38.6692 101.729 39.8581 98.6975 39.6833C98.7293 38.9498 98.6472 38.219 98.4433 37.5332C97.9667 35.9206 96.9287 34.8853 96.3462 34.3875C96.4574 33.9824 96.6242 33.4872 96.8731 32.9418C96.8758 32.9365 96.8784 32.9285 96.881 32.9232C97.0743 32.4996 97.3179 32.0468 97.6225 31.5807C98.0673 30.9082 98.5413 30.368 98.9676 29.9523C98.9808 29.9364 98.9941 29.9231 99.0073 29.9126C99.1556 29.7669 99.2986 29.6372 99.4336 29.5233C100.588 30.1032 104.679 32.2798 107.314 36.4079Z" fill="#F2EDE4"/>
<path d="M82.2162 39.9516C82.5737 39.7 83.6302 39.0248 85.1236 39.0486C86.3734 39.0698 87.279 39.5676 87.6603 39.8112C87.046 39.6312 86.1801 39.4485 85.1368 39.4511C83.887 39.4538 82.8782 39.7212 82.2162 39.9516Z" fill="#652B28"/>
<path d="M84.2965 40.7251C84.413 40.643 84.7546 40.4232 85.2418 40.4312C85.6469 40.4365 85.9409 40.6006 86.0653 40.6801C85.8111 40.6642 85.5331 40.6536 85.2365 40.6615C84.8976 40.6642 84.5825 40.6907 84.2965 40.7251Z" fill="#987957"/>
<path d="M80.0345 32.074C80.0345 32.074 80.204 33.954 82.1026 34.0334C84.0011 34.1102 83.9932 32.3149 83.9932 32.3149C83.9932 32.3149 80.3576 32.021 80.0345 32.074Z" fill="white"/>
<path d="M83.2359 32.1692C83.2386 32.1772 83.2385 32.1878 83.2385 32.1957C83.3233 32.8127 82.897 33.3873 82.28 33.4852C82.2217 33.4958 82.1635 33.4985 82.1052 33.5011C82.0947 33.5011 82.0867 33.5011 82.0761 33.5011C82.0708 33.5011 82.0682 33.5011 82.0629 33.5011C82.047 33.5011 82.0311 33.4985 82.0152 33.4985C82.0046 33.4985 81.9914 33.4985 81.9808 33.4958C81.475 33.4429 81.0487 33.0589 80.9666 32.532C80.9428 32.3811 80.9508 32.2328 80.9825 32.0924C80.9905 32.058 81.0011 32.0209 81.0143 31.9865C81.0408 31.9097 81.0726 31.8382 81.1123 31.7694C82.0179 31.5708 82.7672 31.7906 83.1856 31.9733C83.2041 32.0262 83.2174 32.0792 83.228 32.1348C83.2333 32.1428 83.2333 32.156 83.2359 32.1692Z" fill="#3F2E20"/>
<path d="M83.9958 32.3122C83.8634 32.3307 83.7284 32.3439 83.5986 32.3572C82.4335 32.4631 81.3558 32.336 80.6965 32.2195C80.2834 32.1454 80.0372 32.0765 80.0345 32.0712C80.3179 31.9494 80.6118 31.8091 80.8766 31.7535C82.0417 31.4993 83.0055 31.7799 83.543 32.013C83.7972 32.1215 83.9375 32.2751 83.9826 32.3042C83.9905 32.3095 83.9958 32.3122 83.9958 32.3122Z" fill="#987957"/>
<path d="M80.3629 34.1495C80.8872 33.9589 81.4538 33.9324 82.0046 33.9244C82.5501 33.943 83.1405 33.9456 83.6331 34.221C83.0982 34.1072 82.5474 34.1522 82.0046 34.1363C81.5174 34.1389 80.8422 34.123 80.3629 34.1495Z" fill="#987957"/>
<path d="M91.082 32.074C91.082 32.074 90.9125 33.954 89.014 34.0334C87.1155 34.1102 87.1234 32.3149 87.1234 32.3149C87.1234 32.3149 90.759 32.021 91.082 32.074Z" fill="white"/>
<path d="M87.8625 32.1772C87.8599 32.1851 87.8599 32.1957 87.8599 32.2036C87.7751 32.8285 88.2041 33.4111 88.8317 33.5091C88.8926 33.5197 88.9508 33.5223 89.0091 33.525C89.0197 33.525 89.0276 33.525 89.0382 33.525C89.0435 33.525 89.0461 33.525 89.0514 33.525C89.0673 33.525 89.0832 33.5223 89.0991 33.5223C89.1097 33.5223 89.1229 33.5223 89.1335 33.5196C89.6472 33.4667 90.0788 33.0774 90.1636 32.5426C90.1874 32.389 90.1821 32.2407 90.1477 32.0977C90.1397 32.0607 90.1291 32.0262 90.1159 31.9892C90.0894 31.9124 90.0576 31.8382 90.0153 31.7694C89.0965 31.5682 88.3365 31.7906 87.9128 31.9759C87.8943 32.0289 87.8784 32.0818 87.8678 32.1374C87.8678 32.1507 87.8652 32.1639 87.8625 32.1772Z" fill="#3F2E20"/>
<path d="M87.1209 32.3122C87.2533 32.3307 87.3883 32.3439 87.5181 32.3572C88.6832 32.4631 89.7609 32.336 90.4202 32.2195C90.8333 32.1454 91.0795 32.0765 91.0822 32.0712C90.7988 31.9494 90.5049 31.8091 90.2401 31.7535C89.0751 31.4993 88.1112 31.7799 87.5737 32.013C87.3195 32.1215 87.1792 32.2751 87.1341 32.3042C87.1262 32.3095 87.1209 32.3122 87.1209 32.3122Z" fill="#987957"/>
<path d="M90.7538 34.1495C90.2772 34.123 89.5967 34.1389 89.1121 34.1363C88.5693 34.1522 88.0159 34.1072 87.4837 34.221C87.9735 33.9456 88.564 33.943 89.1121 33.9244C89.6655 33.9324 90.2295 33.9589 90.7538 34.1495Z" fill="#987957"/>
<path d="M84.5333 37.9987C83.4583 38.4753 82.2111 38.523 81.1255 38.1258C81.6815 38.2132 82.2429 38.1973 82.7725 38.0781C83.302 37.9616 83.7972 37.7392 84.2288 37.4426C84.3744 37.342 84.573 37.3791 84.671 37.5247C84.7849 37.6889 84.716 37.9246 84.5333 37.9987Z" fill="#405050"/>
<path d="M85.6797 37.4418C86.5668 38.0588 87.7001 38.3024 88.7831 38.125C87.6948 38.5222 86.4503 38.4745 85.3752 37.9979C84.9542 37.802 85.2878 37.1956 85.6797 37.4418Z" fill="#405050"/>
<path d="M84.4624 30.2491L83.9937 29.1688C83.9937 29.1688 81.4252 30.7866 78.8144 30.4874C78.8117 30.4874 81.1181 31.9358 84.4624 30.2491Z" fill="#542525"/>
<path d="M86.4164 29.9998L86.9115 28.9301C86.9115 28.9301 89.4403 30.6088 92.0564 30.3758C92.0591 30.3758 89.7183 31.766 86.4164 29.9998Z" fill="#542525"/>
<path d="M85.437 31.5411C85.8633 32.3011 86.0963 33.2411 86.414 34.0514C86.753 34.8828 86.9357 35.9976 86.1995 36.6834C85.715 37.0832 84.9074 37.0991 84.4625 36.6463C84.7485 36.7496 85.0212 36.8316 85.3099 36.8184C86.2869 36.8449 86.6444 35.7831 86.4696 34.9649C86.2022 33.8263 85.6197 32.7168 85.437 31.5411Z" fill="#987957"/>
<path d="M77.1118 25.9488C76.9741 25.8005 76.8708 25.6231 76.8072 25.4325C76.7516 25.2656 76.7331 25.0723 76.8284 24.9267C76.9952 24.6725 77.3765 24.7149 77.6705 24.789C77.7923 24.6354 77.6863 24.413 77.6837 24.2144C77.6811 24.0185 77.7923 23.8358 77.9379 23.706C78.0862 23.5763 78.2689 23.4968 78.4489 23.4227C78.8488 23.2585 79.2565 23.1182 79.6749 23.0043C79.704 23.1155 79.6431 23.2347 79.5558 23.3115C79.4684 23.3883 79.3598 23.4333 79.2618 23.4942C78.9123 23.706 78.6952 24.082 78.5416 24.4633C78.3907 24.8446 78.2874 25.2471 78.0888 25.6046C77.9882 25.7846 77.8611 25.9567 77.6784 26.0521C77.4957 26.1474 77.2521 26.15 77.1012 26.0097" fill="#405050"/>
<path d="M93.4414 25.0617C93.5791 24.9134 93.6824 24.736 93.7459 24.5454C93.8015 24.3786 93.8201 24.1853 93.7248 24.0396C93.5579 23.7854 93.1767 23.8278 92.8827 23.9019C92.7609 23.7484 92.8668 23.5259 92.8695 23.3273C92.8721 23.1314 92.7609 22.9487 92.6153 22.8189C92.467 22.6892 92.2843 22.6098 92.1043 22.5356C91.7044 22.3715 91.2966 22.2311 90.8783 22.1172C90.8491 22.2285 90.9101 22.3476 90.9974 22.4244C91.0848 22.5012 91.1934 22.5462 91.2913 22.6071C91.6409 22.8189 91.858 23.1949 92.0116 23.5762C92.1625 23.9575 92.2658 24.36 92.4644 24.7175C92.565 24.8975 92.6921 25.0697 92.8748 25.165C93.0575 25.2603 93.3011 25.263 93.452 25.1226" fill="#405050"/>
<path d="M124.953 8.05276C125.378 11.5823 122.877 15.6864 118.526 17.8321C116.153 19.0028 113.355 18.9798 111.041 17.6996C107.84 15.9269 105.736 12.8078 105.546 9.41792C105.367 6.23831 106.871 2.78942 109.641 1.12905C115.036 -2.10384 124.229 2.0406 124.953 8.05276Z" fill="#FDFFFC"/>
<path d="M109.94 19.5415C110.035 20.3321 109.695 21.2076 109.025 21.9176C107.54 23.493 104.953 23.3043 103.852 21.438C103.593 20.9988 103.436 20.5078 103.409 20.0009C103.348 18.9309 103.855 17.7702 104.787 17.2115C106.602 16.1228 109.696 17.5168 109.94 19.5415Z" fill="#FDFFFC"/>
<path d="M104.597 24.4705C104.637 24.8089 104.534 25.1747 104.312 25.5059C103.524 26.6781 101.74 26.6262 101.155 25.3388C101.067 25.1444 101.014 24.9371 101.003 24.7225C100.97 24.1335 101.247 23.4942 101.762 23.1874C102.76 22.5898 104.463 23.3573 104.597 24.4705Z" fill="#FDFFFC"/>
<path d="M112.6 8.4406C112.959 9.55231 113.392 10.6381 113.898 11.6908C114.151 12.2178 114.423 12.7377 114.713 13.246C114.948 13.6593 115.207 14.0625 115.528 14.4139C116.111 15.0518 116.964 15.4651 117.816 15.1137C118.614 14.7854 119.14 13.9488 119.317 13.1308C119.521 12.1905 119.33 11.1666 118.875 10.3271C118.405 9.46159 117.636 8.79917 116.719 8.44348C115.802 8.08779 114.719 8.03739 113.8 8.41612C112.809 8.82509 112.321 9.75248 111.965 10.7087C111.585 11.7282 111.36 12.8903 111.686 13.956C111.941 14.7883 112.547 15.5458 113.371 15.8669C113.575 15.9461 113.79 15.9907 114.009 16.0095C114.108 16.0181 114.117 15.8899 114.055 15.8424C113.542 15.4522 113.03 15.0619 112.517 14.6731C112.517 14.7249 112.517 14.7768 112.517 14.8286C113.683 14.3275 114.835 13.6348 115.565 12.5663C116.185 11.6577 116.386 10.4725 115.995 9.42991C115.789 8.88269 115.423 8.41468 114.913 8.12379C114.874 8.10219 114.809 8.11083 114.789 8.15548C114.042 9.81872 114.572 11.878 115.901 13.0919C116.274 13.4332 116.704 13.6967 117.178 13.8739C117.194 13.8163 117.21 13.7587 117.226 13.6996C116.303 13.3727 115.378 13.0473 114.455 12.7204C113.652 12.4367 112.818 12.1919 112.043 11.8333C111.421 11.5453 110.782 11.1176 110.602 10.4149C110.397 9.61855 110.858 8.80925 111.463 8.32108C112.118 7.79259 112.959 7.52042 113.755 7.28137C114.645 7.01496 115.564 6.82776 116.494 6.8004C118.048 6.75432 119.644 7.20073 120.778 8.3038C121.042 8.56013 121.275 8.84813 121.464 9.16494C121.652 9.48031 121.972 10.0016 121.652 10.3271C121.392 10.592 120.934 10.6439 120.593 10.7288C120.136 10.8426 119.678 10.952 119.217 11.0442C117.551 11.3768 115.763 11.4647 114.219 10.6424C113.59 10.3069 113.027 9.83312 112.649 9.22399C112.426 8.86254 112.236 8.43916 112.246 8.00715C112.255 7.62986 112.439 7.29433 112.705 7.03656C113.654 6.11494 115.321 6.0487 116.468 6.60167C117.027 6.87096 117.508 7.31593 117.718 7.91067C117.959 8.58893 117.818 9.32191 117.462 9.93248C116.595 11.42 114.866 11.829 113.263 11.9097C112.839 11.9313 112.416 11.9341 111.993 11.9356C111.961 11.9356 111.931 11.9529 111.915 11.9802C111.617 12.5058 112.121 13.0358 112.525 13.3223C113.104 13.7313 113.735 14.0654 114.393 14.326C115.041 14.5824 115.721 14.7681 116.412 14.8617C117.052 14.9496 117.78 14.9481 118.335 14.5709C118.836 14.2296 119.173 13.5974 118.977 12.9926C118.962 12.9465 118.915 12.9162 118.866 12.9292C118.418 13.0603 118.038 13.3223 117.672 13.6046C117.283 13.9041 116.899 14.2008 116.468 14.4398C115.611 14.9165 114.637 15.2102 113.65 15.1814C111.939 15.1325 110.171 13.884 110.026 12.0796C109.987 11.5957 110.07 11.0845 110.337 10.6727C110.604 10.2579 111.047 10.0117 111.519 9.90224C112.451 9.68624 113.431 9.97136 114.233 10.4509C114.645 10.6971 115.023 10.9967 115.368 11.3293C115.685 11.6346 115.95 12.0076 116.304 12.2725C116.694 12.5649 117.121 12.5634 117.573 12.4281C118.084 12.2754 118.588 12.0868 119.083 11.8895C120.07 11.4964 121.048 11.0399 121.958 10.4898C122.309 10.2767 122.636 10.003 122.738 9.58687C122.838 9.18078 122.711 8.76173 122.528 8.39884C122.324 7.99131 122.036 7.62986 121.746 7.27993C121.468 6.94584 121.167 6.62183 120.8 6.38423C120.421 6.13798 119.986 6.02134 119.536 6.05446C119.014 6.09334 118.523 6.28918 118.026 6.43895C117.612 6.56279 117.17 6.64343 116.738 6.56567C116.512 6.52535 115.649 6.18118 116.156 5.92773C116.323 5.84421 116.513 5.84277 116.694 5.85429C116.939 5.87013 117.183 5.90469 117.422 5.95653C117.857 6.0487 118.28 6.19414 118.679 6.38999C120.328 7.19497 121.468 8.78765 121.563 10.6352C121.611 11.5655 121.403 12.5116 120.93 13.318C120.487 14.0683 119.816 14.6645 119.036 15.0461C118.267 15.4234 117.386 15.5904 116.535 15.481C116.136 15.4291 115.535 15.3413 115.524 14.8315C115.515 14.4499 115.802 14.0856 116.156 13.9718C116.681 13.8019 117.25 14.0035 117.747 14.1792C117.858 14.218 117.898 14.0496 117.795 14.0049C116.595 13.5052 115.344 13.1481 114.127 12.6974C112.936 12.2553 111.745 11.7124 110.806 10.8368C109.735 9.83744 109.176 8.48524 108.833 7.08697C108.558 5.96805 108.02 4.07584 109.288 3.35006C109.837 3.03613 110.52 3.11246 111.101 3.28382C111.777 3.48255 112.392 3.84256 112.985 4.21409C113.647 4.63026 114.292 5.09107 114.877 5.61092C115.169 5.87013 115.42 6.1711 115.463 6.57431C115.506 6.966 115.381 7.36489 115.204 7.7105C114.67 8.75309 113.597 9.44287 112.459 9.64448C111.888 9.74528 111.29 9.7208 110.734 9.55087C110.599 9.50911 110.465 9.46015 110.335 9.40111C110.184 9.33199 110.036 9.24415 109.869 9.2211C109.589 9.18366 109.357 9.37951 109.195 9.58687C108.863 10.0117 108.825 10.5935 108.964 11.0989C109.123 11.6706 109.504 12.1199 110.003 12.4338C110.561 12.7852 111.216 12.9551 111.859 13.0747C112.651 13.2215 113.453 13.3252 114.256 13.3886C115.057 13.4519 115.889 13.5052 116.69 13.4275C117.36 13.3627 117.908 13.0703 118.185 12.4353C118.673 11.3149 118.376 9.92528 117.658 8.97342C117.266 8.45356 116.766 8.09643 116.185 7.81419C115.567 7.51466 114.703 7.11577 114.691 6.30646C114.681 5.5778 115.524 5.25668 116.082 5.03203C116.736 4.7685 117.41 4.54385 118.106 4.42577C118.798 4.30913 119.526 4.30769 120.194 4.54242C120.865 4.77858 121.408 5.25524 121.789 5.84853C122.155 6.41591 122.396 7.07401 122.515 7.73642C122.632 8.38444 122.626 9.11742 122.266 9.692C121.523 10.8844 119.854 10.5762 118.788 10.0678C118.116 9.74528 117.485 9.33343 116.922 8.84381C116.648 8.60621 116.382 8.35132 116.149 8.07339C115.907 7.78538 115.685 7.41818 115.796 7.02792C115.891 6.69528 116.173 6.44615 116.451 6.2575C116.752 6.05302 117.082 5.88309 117.416 5.73909C118.121 5.43524 118.916 5.261 119.684 5.3762C120.941 5.56628 122.136 6.57719 121.962 7.94523C121.889 8.51981 121.58 9.0555 121.065 9.33631C120.963 9.39103 121.053 9.54655 121.156 9.49183C122.223 8.9115 122.433 7.41673 121.789 6.44903C120.996 5.25523 119.432 4.96579 118.12 5.30708C117.056 5.58356 114.883 6.52823 115.829 7.94811C116.238 8.56157 116.867 9.07278 117.462 9.49615C118.047 9.91232 118.692 10.2781 119.379 10.497C119.979 10.6885 120.649 10.7807 121.267 10.6194C121.858 10.4653 122.339 10.0534 122.574 9.48607C122.828 8.87117 122.796 8.16844 122.658 7.52906C122.512 6.85512 122.25 6.1855 121.853 5.621C121.457 5.05795 120.919 4.61586 120.269 4.37969C119.609 4.14064 118.892 4.13056 118.204 4.22993C117.448 4.33937 116.715 4.58274 116.008 4.8693C115.467 5.08819 114.792 5.34884 114.573 5.94501C114.331 6.60167 114.825 7.24105 115.352 7.57946C115.685 7.79258 116.055 7.93803 116.402 8.12523C116.71 8.29084 116.99 8.4982 117.233 8.74877C117.71 9.24127 118.035 9.87344 118.172 10.5445C118.307 11.2098 118.271 12.0018 117.904 12.5922C117.437 13.3425 116.467 13.282 115.694 13.2748C114.805 13.2662 113.918 13.1985 113.038 13.0819C111.706 12.9047 109.756 12.7017 109.2 11.2372C108.983 10.6655 109.007 9.90656 109.535 9.50623C109.861 9.2571 110.247 9.57968 110.576 9.692C110.851 9.7856 111.137 9.84464 111.427 9.87056C112.602 9.98 113.827 9.54799 114.674 8.72717C115.126 8.2894 115.502 7.7105 115.619 7.08553C115.682 6.74424 115.66 6.38999 115.501 6.07606C115.336 5.75493 115.048 5.51732 114.776 5.29124C114.154 4.7757 113.495 4.30769 112.802 3.89296C112.197 3.53007 111.566 3.19598 110.872 3.04189C110.291 2.91373 109.635 2.90941 109.121 3.24782C108.588 3.59775 108.358 4.19969 108.325 4.81602C108.287 5.51588 108.452 6.22294 108.609 6.89976C108.779 7.6385 108.996 8.37148 109.317 9.05982C109.91 10.3343 110.888 11.3048 112.106 11.9889C113.292 12.6542 114.601 13.0617 115.882 13.4951C116.512 13.7083 117.139 13.9272 117.754 14.182C117.77 14.1244 117.786 14.0668 117.802 14.0078C117.306 13.8336 116.768 13.655 116.238 13.7688C115.868 13.848 115.571 14.0985 115.427 14.4499C115.302 14.7552 115.321 15.1253 115.581 15.3542C115.899 15.635 116.447 15.671 116.853 15.6912C118.646 15.779 120.433 14.7494 121.238 13.1423C122.086 11.446 121.876 9.31327 120.721 7.81131C120.163 7.08697 119.416 6.51383 118.579 6.14518C118.159 5.95941 117.717 5.82261 117.263 5.74485C116.887 5.68005 116.428 5.5922 116.072 5.77509C115.943 5.84133 115.83 5.95365 115.816 6.10486C115.799 6.27622 115.969 6.40151 116.094 6.49367C116.419 6.73128 116.844 6.7932 117.239 6.77304C118.283 6.71688 119.304 5.93781 120.354 6.35111C120.822 6.53543 121.192 6.90552 121.516 7.27993C121.845 7.66154 122.169 8.06331 122.393 8.51836C122.627 8.9979 122.717 9.57679 122.319 9.99873C122.144 10.1845 121.92 10.3127 121.701 10.4379C121.449 10.5819 121.195 10.7187 120.937 10.8527C119.894 11.3912 118.808 11.8463 117.691 12.2063C117.403 12.2999 117.092 12.4007 116.789 12.3186C116.536 12.2495 116.332 12.0738 116.153 11.8909C115.802 11.5324 115.479 11.1551 115.089 10.8339C114.354 10.2306 113.479 9.76688 112.521 9.67184C111.602 9.57968 110.558 9.85904 110.103 10.7317C109.69 11.5266 109.801 12.5116 110.204 13.2849C110.607 14.0596 111.303 14.676 112.099 15.0259C113.976 15.8496 116.074 15.0864 117.597 13.8984C118.005 13.5801 118.415 13.2532 118.919 13.1063C118.882 13.0847 118.846 13.0646 118.808 13.043C118.975 13.5599 118.695 14.1014 118.27 14.4038C117.776 14.7552 117.121 14.7696 116.54 14.7019C115.347 14.5608 114.174 14.1302 113.146 13.5124C112.733 13.2647 111.722 12.6945 112.073 12.0753C112.047 12.0897 112.021 12.1055 111.996 12.1199C113.721 12.1113 115.708 12.081 117.023 10.7893C117.553 10.268 117.946 9.57823 118.013 8.82941C118.075 8.14251 117.816 7.46282 117.327 6.9804C116.357 6.02854 114.713 5.84853 113.486 6.34534C112.838 6.60743 112.187 7.10425 112.083 7.84011C111.973 8.62781 112.494 9.44719 113.024 9.98577C114.222 11.2026 115.999 11.5712 117.649 11.4532C118.687 11.3797 119.706 11.1421 120.714 10.8901C121.072 10.8008 121.513 10.736 121.785 10.4581C122.069 10.1687 121.972 9.78272 121.821 9.45151C121.164 8.01867 119.695 7.08553 118.189 6.76584C116.311 6.36839 114.265 6.80328 112.518 7.52618C111.746 7.84587 110.995 8.31676 110.613 9.09006C110.273 9.77984 110.304 10.5747 110.803 11.1767C111.278 11.7484 112.014 12.045 112.695 12.2898C113.693 12.6498 114.696 12.9969 115.696 13.3511C116.192 13.5268 116.687 13.7011 117.183 13.8768C117.292 13.9156 117.338 13.7428 117.23 13.7025C115.611 13.1006 114.583 11.3596 114.629 9.6632C114.642 9.17646 114.749 8.69405 114.949 8.24908C114.907 8.25916 114.867 8.27068 114.825 8.28076C115.737 8.79917 116.095 9.8864 116.003 10.8887C115.895 12.0594 115.125 13.0228 114.202 13.6953C113.654 14.0942 113.051 14.4081 112.43 14.6745C112.361 14.7048 112.384 14.7941 112.43 14.8301C112.943 15.2203 113.456 15.6106 113.968 15.9994C113.984 15.9432 113.999 15.887 114.014 15.8323C113.14 15.7603 112.43 15.1325 112.049 14.3707C111.585 13.4447 111.664 12.3532 111.939 11.384C112.197 10.4696 112.595 9.38239 113.417 8.82941C114.205 8.29804 115.263 8.23468 116.164 8.45932C118.024 8.92014 119.32 10.664 119.214 12.5807C119.168 13.4159 118.788 14.2987 118.077 14.7768C117.322 15.2837 116.45 15.0576 115.826 14.46C115.478 14.1259 115.203 13.7212 114.959 13.3065C114.662 12.801 114.389 12.2797 114.131 11.7527C113.601 10.6683 113.15 9.54511 112.779 8.3974C112.739 8.28364 112.566 8.33116 112.6 8.4406Z" fill="#AEB4FC"/>
<defs>
<clipPath id="clip0_362_221">
<rect width="14" height="17" fill="white" transform="translate(150 44)"/>
</clipPath>
<clipPath id="clip1_362_221">
<rect width="32" height="26" fill="white" transform="translate(135 78)"/>
</clipPath>
<clipPath id="clip2_362_221">
<rect width="35" height="35" fill="white" transform="translate(37 3)"/>
</clipPath>
</defs>
</svg>
