<?xml version="1.0" encoding="utf-8"?>
<!-- Generator: Adobe Illustrator 16.0.0, SVG Export Plug-In . SVG Version: 6.00 Build 0)  -->
<!DOCTYPE svg PUBLIC "-//W3C//DTD SVG 1.1//EN" "http://www.w3.org/Graphics/SVG/1.1/DTD/svg11.dtd">
<svg version="1.1" id="Layer_1" xmlns="http://www.w3.org/2000/svg" xmlns:xlink="http://www.w3.org/1999/xlink" x="0px" y="0px"
	 width="90px" height="138.216px" viewBox="41.5 5 90 138.216" enable-background="new 41.5 5 90 138.216" xml:space="preserve">
<path fill="#DEBB95" d="M75.459,166.131c0.517,1.652,0.007,3.485-0.917,4.949c-0.923,1.465-2.227,2.647-3.459,3.862
	c-1.232,1.217-2.438,2.526-3.093,4.132c-0.218,0.538-0.355,1.202-0.003,1.665c0.336,0.438,0.964,0.498,1.515,0.477
	c2.646-0.08,5.202-1.088,7.442-2.5c1.276-0.808,2.465-1.059,3.083-2.436c0.564-1.256,0.595-3.431,0.574-4.806
	c-0.02-1.283-0.043-2.566-0.064-3.846c-0.007-0.343-0.03-0.729-0.289-0.957c-0.181-0.159-0.437-0.198-0.675-0.231
	c-1.407-0.192-2.814-0.387-4.218-0.579"/>
<path fill="#DEBB95" d="M99.969,166.131c-0.518,1.652-0.008,3.485,0.917,4.949c0.924,1.465,2.227,2.647,3.458,3.862
	c1.234,1.217,2.439,2.526,3.094,4.132c0.218,0.538,0.357,1.202,0.003,1.665c-0.334,0.438-0.964,0.498-1.514,0.477
	c-2.646-0.08-5.202-1.088-7.443-2.5c-1.275-0.808-2.464-1.059-3.082-2.436c-0.565-1.256-0.595-3.431-0.574-4.806
	c0.021-1.283,0.044-2.566,0.063-3.846c0.008-0.343,0.03-0.729,0.289-0.957c0.183-0.159,0.437-0.198,0.675-0.231
	c1.407-0.192,2.814-0.387,4.219-0.579"/>
<path fill="#987957" d="M75.06,170.117c0.57-1.26,0.806-2.681,0.396-3.986l-0.104-0.27c1.404,0.192,2.815,0.384,4.218,0.579
	c0.242,0.033,0.494,0.072,0.676,0.231c0.258,0.225,0.282,0.609,0.285,0.953c0.014,0.83,0.027,1.659,0.044,2.492
	c-0.833,0.098-1.771,0.16-2.794,0.16C76.786,170.277,75.872,170.215,75.06,170.117z"/>
<path fill="#987957" d="M100.367,170.117c-0.763,0.091-1.607,0.15-2.521,0.16c-1.102,0.01-2.105-0.057-2.992-0.16
	c0.023-0.972,0.03-1.769,0.044-2.492c0.006-0.344,0.03-0.729,0.286-0.953c0.179-0.162,0.433-0.202,0.671-0.231
	c1.407-0.192,2.814-0.384,4.221-0.579l-0.104,0.27C99.558,167.44,99.797,168.857,100.367,170.117z"/>
<path fill="#559D78" d="M86.733,119.315c-0.011,1.453-0.034,2.927-0.074,4.424c-0.006,0.445-0.02,0.888-0.037,1.335
	c-0.007,0.34-0.021,0.677-0.034,1.015c-0.06,1.763-0.141,3.546-0.242,5.359c-0.033,0.612-0.07,1.227-0.11,1.844
	c-0.037,0.601-0.078,1.206-0.121,1.814c-0.054,0.771-0.114,1.538-0.171,2.301c-0.034,0.404-0.063,0.812-0.101,1.219
	c-0.063,0.771-0.134,1.54-0.204,2.308c-0.111,1.171-0.226,2.331-0.353,3.478c-0.037,0.353-0.074,0.699-0.114,1.046
	c-0.114,1.018-0.231,2.021-0.356,3.017c-0.043,0.354-0.087,0.711-0.134,1.068c-0.047,0.351-0.09,0.707-0.142,1.058
	c-0.046,0.352-0.093,0.701-0.14,1.05c-0.162,1.192-0.333,2.367-0.511,3.526c-0.05,0.349-0.104,0.695-0.161,1.042
	c-0.114,0.726-0.229,1.446-0.346,2.163c-0.107,0.643-0.216,1.281-0.326,1.919c-0.347,2.01-0.712,3.968-1.085,5.876
	c-0.061,0.314-0.128,0.629-0.191,0.949c-0.081,0.406-0.165,0.81-0.245,1.208c-0.047,0.224-0.091,0.443-0.138,0.661h-7.103
	c-1.551-3.861-3.217-8.669-4.587-14.293c-1.767-7.249-3.036-15.852-2.898-25.502c0.007-0.437,0.018-0.871,0.027-1.302
	c0.218-7.968,1.353-14.964,2.724-20.729c0.003-0.012,0.007-0.021,0.007-0.033l14.79-0.344c0.75-0.02,1.471-0.033,2.152-0.051
	c0.054,1.284,0.101,2.584,0.138,3.907c0.013,0.446,0.023,0.893,0.034,1.34c0.02,0.887,0.033,1.778,0.043,2.683
	C86.743,116.19,86.747,117.741,86.733,119.315z"/>
<path fill="#559D78" d="M106.128,153.167c-1.43,6.28-3.261,11.613-4.95,15.82h-7.104c-0.047-0.218-0.09-0.439-0.138-0.659
	c-2.016-9.739-3.711-20.884-4.584-33.226c-0.087-1.229-0.164-2.447-0.229-3.654c-0.5-8.896-0.486-17.175-0.168-24.717
	c0.354,0.007,0.699,0.017,1.052,0.023c0.191,0.005,0.39,0.005,0.587,0.013c0.168,0.002,0.33,0.007,0.498,0.011
	c4.769,0.113,9.533,0.222,14.299,0.335c0.168,0.004,0.34,0.006,0.512,0.01c1.326,5.572,2.434,12.294,2.704,19.936
	c0.021,0.703,0.043,1.414,0.053,2.131C108.79,138.176,107.702,146.245,106.128,153.167z"/>
<path fill="#66A986" d="M106.128,153.167c-1.739,5.585-3.744,10.402-5.276,14.313c-0.198,0.515-0.692,0.849-1.239,0.849H93.94
	c-2.016-9.739-3.711-20.884-4.584-33.226c-0.088-1.229-0.165-2.447-0.229-3.654c-0.501-8.896-0.487-17.175-0.168-24.717
	c0.352,0.007,0.699,0.017,1.051,0.023c0.191,0.005,0.389,0.005,0.588,0.013c0.168,0.002,0.328,0.007,0.498,0.011
	c4.769,0.113,9.533,0.222,14.299,0.335c0.168,0.004,0.339,0.006,0.511,0.01c1.326,5.572,2.435,12.294,2.703,19.936
	c0.024,0.703,0.045,1.414,0.055,2.131C108.79,138.176,107.702,146.245,106.128,153.167z"/>
<path fill="#66A986" d="M86.733,119.315c-0.011,1.453-0.034,2.929-0.074,4.424c-0.006,0.445-0.02,0.89-0.037,1.335
	c-0.007,0.34-0.021,0.677-0.034,1.015c-0.06,1.763-0.141,3.547-0.242,5.359c-0.033,0.612-0.07,1.227-0.11,1.844
	c-0.034,0.601-0.074,1.206-0.118,1.814c-0.054,0.771-0.114,1.538-0.175,2.301c-0.034,0.404-0.063,0.813-0.101,1.219
	c-0.063,0.771-0.134,1.54-0.204,2.308c-0.111,1.171-0.226,2.331-0.353,3.478c-0.037,0.353-0.074,0.699-0.114,1.046
	c-0.114,1.018-0.231,2.021-0.356,3.017c-0.043,0.354-0.087,0.711-0.134,1.068c-0.047,0.351-0.09,0.707-0.142,1.058
	c-0.046,0.352-0.093,0.701-0.14,1.05c-0.162,1.192-0.333,2.367-0.511,3.526c-0.05,0.349-0.104,0.695-0.161,1.042
	c-0.114,0.726-0.229,1.446-0.346,2.163c-0.107,0.643-0.216,1.281-0.326,1.921c-0.347,2.008-0.712,3.966-1.085,5.874
	c-0.061,0.314-0.128,0.631-0.191,0.949c-0.081,0.407-0.165,0.81-0.245,1.208h-5.672c-0.547,0-1.038-0.334-1.239-0.845
	c-1.394-3.561-3.231-7.85-4.917-12.781c-1.767-7.253-3.036-15.853-2.898-25.506c0.007-0.437,0.018-0.87,0.027-1.3
	c0.218-7.968,1.353-14.965,2.724-20.729c4.554-0.114,10.189-0.259,14.797-0.377c0.75-0.02,1.471-0.033,2.152-0.051h0.01
	c0.054,1.28,0.101,2.583,0.135,3.906c0.013,0.447,0.023,0.894,0.033,1.34c0.02,0.887,0.034,1.78,0.043,2.684
	C86.743,116.19,86.747,117.741,86.733,119.315z"/>
<path fill="#559D78" d="M86.515,106.731c0.322,7.552,0.335,15.844-0.168,24.764c-7.892-0.047-14.539-1.749-19.509-3.607
	c0.218-7.986,1.36-14.991,2.734-20.765L86.515,106.731z"/>
<path fill="#559D78" d="M108.613,127.062c-5.098,2.138-11.69,4.051-19.481,4.387c-0.501-8.896-0.488-17.175-0.168-24.717
	c5.648,0.13,11.298,0.262,16.945,0.392C107.235,112.698,108.344,119.419,108.613,127.062z"/>
<path fill="#79ACCC" d="M83.083,45.987l0.457-2.065l1.935-1.484h8.147l1.611,1.555v1.948L83.083,45.987z"/>
<path fill="#F2EDE4" d="M114.748,114.755c1.591,2.837,0.485,6.438-2.434,7.868c-5.642,2.771-12.802,5.737-23.566,5.975
	c-10.801,0.239-19.499-2.516-25.104-4.953c-2.515-1.095-3.906-3.819-3.285-6.492c2.116-9.131,5.857-21.083,7.184-26.509
	c0.215-0.879,0.427-1.729,0.635-2.551c0.231-0.917,0.46-1.797,0.678-2.646c0.004-0.018,0.01-0.034,0.014-0.052
	c0.602-2.287,1.162-4.321,1.666-6.099c0.856-3.015,1.4-4.741,1.811-5.947c0.819-2.417,1.091-2.713,2.253-7.049
	c2.052-7.664,2.744-12.486,6.824-17.382c1.253-1.505,2.472-2.594,3.332-3.292c1.115-0.544,2.189-0.89,3.153-1.104
	c1.331-0.299,2.448-0.356,3.185-0.356c2.707,0,4.816,0.763,6.027,1.317c0.111,0.05,0.215,0.101,0.31,0.144
	c6.771,7.745,9.098,13.911,9.541,18.636c0.13,1.399,0.098,2.676-0.037,3.825c-0.161,1.403-0.484,2.724-0.822,4.249
	c-0.007,0.017-0.011,0.036-0.014,0.057c-0.037,0.171-0.076,0.35-0.114,0.531c-0.01,0.043-0.02,0.09-0.03,0.137
	c-0.423,1.992-0.837,4.369-0.968,7.698c-0.077,2.018-0.029,3.875,0.078,5.508c0.003,0.063,0.006,0.124,0.014,0.185c0,0,0,0,0,0.003
	c0.234,3.361,0.718,5.729,0.887,6.489C107.22,98.809,111.329,108.646,114.748,114.755z"/>
<path fill="#F2EDE4" d="M120.903,44.845c-0.192,3.194-1.049,5.535-1.25,6.076c-0.736,1.964-1.684,3.523-2.698,4.981
	c-0.365,0.53-0.741,1.043-1.114,1.561c-2.738,3.769-5.051,5.807-5.907,6.912c-1.717,2.211-3.006,4.417-3.822,7.97
	c-0.004,0.017-0.01,0.037-0.014,0.057c-0.04,0.172-0.076,0.35-0.114,0.531c-0.01,0.043-0.02,0.091-0.03,0.138
	c-0.633,3.133-0.937,7.281-0.879,13.238c0,0.052,0,0.102,0,0.151c0,0,0,0,0,0.004c-4.85-3.15-6.211-14.71-11.956-27.29
	c-2.482-5.438-3.647-10.502-4.205-14.525c0.77-0.135,1.969-0.282,3.42-0.142c1.191,0.115,2.034,0.37,2.383,0.464
	c0.192,0.053,1.142,0.342,2.404,0.52c1.673,0.233,3.89,0.269,5.61-0.691c2.706-1.518,4.211-4.429,4.33-7.294
	c0.042-0.931-0.063-1.857-0.321-2.728c-0.604-2.045-1.921-3.358-2.661-3.989c0.142-0.514,0.354-1.142,0.67-1.834
	c0.004-0.007,0.007-0.017,0.01-0.023c0.245-0.538,0.554-1.112,0.94-1.703c0.564-0.853,1.164-1.539,1.706-2.066
	c0.017-0.02,0.033-0.037,0.051-0.05c0.188-0.185,0.369-0.349,0.54-0.494c1.464,0.736,6.654,3.496,9.995,8.732
	c1.059,1.653,1.928,3.553,2.438,5.716c0.081,0.339,0.151,0.679,0.208,1.012C120.946,41.776,120.993,43.398,120.903,44.845z"/>
<path fill="#F2EDE4" d="M88.737,44.644c-0.557,4.023-1.723,9.088-4.204,14.525C79.109,71.051,73.671,83.484,69,87.479
	c-0.275,0.236-0.548,0.44-0.816,0.618c0.245-0.92,0.47-1.8,0.678-2.646c0.004-0.017,0.01-0.033,0.014-0.05
	c3.651-14.78,1.931-18.403-0.779-21.021c-1.004-0.97-3.543-3.15-6.283-6.918c-1.411-1.938-2.811-3.861-3.812-6.538
	c-0.078-0.208-0.252-0.682-0.447-1.367c0-0.003,0-0.003,0-0.003c-0.591-2.068-1.376-6.055-0.329-10.488
	c0.557-2.351,1.539-4.393,2.721-6.146c3.345-4.957,8.292-7.586,9.712-8.302c0.171,0.145,0.353,0.309,0.541,0.498
	c0.017,0.013,0.034,0.03,0.05,0.05c0.541,0.527,1.142,1.213,1.707,2.066c0.389,0.591,0.694,1.165,0.943,1.702
	c0.003,0.007,0.006,0.014,0.01,0.023c0.316,0.692,0.527,1.321,0.669,1.833c-0.742,0.632-2.056,1.945-2.664,3.991
	c-0.208,0.698-0.316,1.431-0.329,2.172c-0.061,3.037,1.46,6.23,4.339,7.849c3.019,1.693,7.563,0.299,8.013,0.175
	c0.346-0.098,1.192-0.353,2.381-0.464c1.004-0.097,1.887-0.057,2.589,0.024C88.22,44.56,88.499,44.6,88.737,44.644z"/>
<path fill="#DEBB95" d="M95.513,45.423c-2.943,3.724-5.203,7.533-6.217,11.489c-1.159-4.867-3.396-8.433-6.213-11.284
	c0,0,1.632-1.935,2.361-3.144c0.077-0.127,0.145-0.246,0.198-0.353c0.215-0.427,0.319-1.192,0.366-1.985c0.08-1.31,0-2.687,0-2.687
	l8.53,0.286c0,0-0.073,1.021-0.205,2.579c-0.034,0.43-0.076,0.9-0.121,1.404c-0.029,0.326-0.023,0.631,0.008,0.92
	C94.4,44.402,95.513,45.423,95.513,45.423z"/>
<path fill="#987957" d="M94.212,41.726c-0.029,0.326-0.023,0.632,0.008,0.92c-0.652,0.383-2.295,1.229-4.535,1.156
	c-2.099-0.071-3.604-0.911-4.245-1.32c0.031-0.051,0.068-0.111,0.108-0.182c0.034-0.057,0.064-0.114,0.091-0.167
	c0.214-0.427,0.318-1.192,0.366-1.985c0.081-1.31,0-2.687,0-2.687l8.53,0.286c0,0-0.075,1.021-0.205,2.579
	C94.297,40.752,94.252,41.225,94.212,41.726z"/>
<path fill="#D9C9AC" d="M85.474,42.438c0,0-1.434,1.159-1.162,2.771c0.275,1.616,3.197,3.899,3.197,3.899l-1.31,5.058
	c0,0-5.696-5.058-2.66-10.247L85.474,42.438z"/>
<path fill="#D9C9AC" d="M87.509,49.111c0,0,2.988,7.647,1.83,17.332h-0.857c0,0,0.371-12.398-1.581-14.988L87.509,49.111z"/>
<path fill="#D9C9AC" d="M94.282,43.079c0,0,0.688,0.571,0.498,2.133c-0.198,1.625-3.197,3.899-3.197,3.899l1.309,5.058
	c0,0,5.4-5.058,2.822-10.011c-0.078-0.151-0.209-0.269-0.352-0.363L94.282,43.079z"/>
<path fill="#D9C9AC" d="M91.583,49.111c0,0-3.872,7.647-2.713,17.332h0.855c0,0,0.518-12.398,2.469-14.988L91.583,49.111z"/>
<path fill="#D9C9AC" d="M73.01,73.906c-0.94,5.082-2.32,9.364-4.013,13.572c-0.457,1.132-0.943,2.194-1.454,3.166
	c0.215-0.879,0.426-1.729,0.635-2.552c0.231-0.916,0.46-1.797,0.678-2.646c0.003-0.017,0.01-0.033,0.014-0.051
	c3.65-14.78,1.931-18.404-0.779-21.02c-1.004-0.971-3.543-3.15-6.284-6.918c-1.41-1.939-2.811-3.863-3.812-6.539
	c-0.077-0.208-0.251-0.683-0.446-1.367c0.09,0.208,5.646,7.273,12.161,11.849C73.383,63.982,74.2,67.482,73.01,73.906z"/>
<path fill="#D9C9AC" d="M116.955,55.902c-0.365,0.531-0.741,1.043-1.114,1.561c-2.738,3.769-5.051,5.807-5.909,6.913
	c-1.715,2.21-3.004,4.416-3.82,7.969c-0.004,0.017-0.011,0.037-0.014,0.058c-0.037,0.171-0.076,0.349-0.114,0.53
	c-0.01,0.044-0.02,0.091-0.03,0.138c-0.635,3.133-0.937,7.281-0.88,13.239c-0.004-0.01-0.007-0.021-0.01-0.034
	c-0.807-2.246-1.408-4.563-1.8-6.914c-0.619-3.722-0.677-7.688,0.923-11.106c0.698-1.492,1.663-2.795,2.788-3.983
	C109.889,61.171,113.869,58.843,116.955,55.902z"/>
<path fill="#987957" d="M94.538,37.746c0,0-0.073,1.021-0.205,2.579c-0.98,0.581-2.132,0.823-3.268,0.923
	c-1.283,0.112-2.604,0.051-3.806-0.412c-0.443-0.172-0.87-0.403-1.252-0.686c0.08-1.31,0-2.687,0-2.687L94.538,37.746z"/>
<path fill="#DEBB95" d="M99.564,22.314c-0.299-1.175-0.602-2.357-1.497-3.513c-2.479-3.194-7.339-3.385-10.348-2.764
	c-1.309,0.272-3.583,0.742-5.292,2.67c-1.841,2.078-1.921,4.611-2.016,7.586c-0.09,2.888,0.443,4.907,1.263,8.006
	c0.322,1.223,0.92,3.248,2.34,5.247c0.622,0.873,1.189,1.447,1.945,1.874c0.907,0.511,1.707,0.598,2.855,0.726
	c1.215,0.134,2.395,0.262,3.744-0.258c0.164-0.064,0.826-0.326,1.633-0.951c2.408-1.874,4.057-5.431,4.525-6.492
	C98.723,34.442,100.813,25.918,99.564,22.314z"/>
<path fill="#405050" d="M79.933,27.863c0.066,0.453,0.668,0.705,1.017,0.423c0.346-0.282,0.266-0.954-0.137-1.139
	c0.567-0.393,0.685-1.34,0.231-1.871c0.417-0.09,0.702-0.524,0.779-0.964c0.078-0.439-0.006-0.89-0.07-1.33
	c-0.02-0.138-0.037-0.279,0-0.409c0.041-0.151,0.141-0.272,0.226-0.4c0.339-0.538,0.319-1.293-0.044-1.811
	c0.336,0.098,0.668-0.251,0.706-0.614c0.041-0.362-0.121-0.712-0.279-1.038c0.873,0.703,2.331,0.319,2.788-0.732
	c0.057,0.581,0.692,0.964,1.242,0.873c0.551-0.09,0.998-0.541,1.277-1.047c0.023,0.671,0.781,1.098,1.416,0.987
	s1.149-0.578,1.629-1.028c0.125,0.5,0.537,0.937,1.028,0.967c0.49,0.027,0.984-0.46,0.89-0.967c0.034,0.588,0.625,1.001,1.189,1.015
	c0.562,0.017,1.089-0.255,1.592-0.521c0.061,0.477,0.379,0.907,0.806,1.088s0.94,0.104,1.3-0.192
	c-0.165,0.323-0.114,0.752,0.121,1.021c0.235,0.269,0.639,0.359,0.96,0.215c-0.306,0.45-0.609,0.951-0.594,1.505
	c0.017,0.554,0.518,1.115,1.022,0.954c-0.293,0.49-0.568,1.034-0.539,1.608c0.03,0.578,0.491,1.166,1.038,1.102
	c-0.347,0.21-0.716,0.453-0.856,0.846c-0.143,0.393,0.117,0.947,0.518,0.9c-0.125,0.278-0.192,0.584-0.195,0.89
	c-0.003,0.134,0.01,0.272,0.073,0.39c0.08,0.144,0.229,0.231,0.38,0.288c0.582,0.215,1.286-0.01,1.659-0.527
	s0.383-1.286,0.027-1.814c0.517-0.238,1.041-0.598,1.215-1.162c0.175-0.564-0.214-1.316-0.775-1.259
	c0.344-0.208,0.692-0.42,0.957-0.732c0.266-0.309,0.429-0.742,0.34-1.145c-0.092-0.403-0.5-0.735-0.884-0.628
	c0.123-0.205,0.252-0.42,0.272-0.662c0.02-0.242-0.104-0.517-0.33-0.571c0.458-0.236,0.706-0.837,0.562-1.347
	c-0.147-0.51-0.672-0.866-1.176-0.799c0.122-0.554,0.238-1.142,0.064-1.68c-0.176-0.538-0.9-0.879-1.396-0.655v0.017
	c0.188-0.533,0.047-1.175-0.348-1.568c-0.393-0.393-1.014-0.51-1.511-0.286c0.085-0.59-0.111-1.249-0.576-1.591
	c-0.468-0.343-1.208-0.262-1.516,0.238c-0.179-0.631-0.381-1.3-0.865-1.713c-0.488-0.413-1.358-0.39-1.62,0.208
	c-0.117-0.605-0.672-1.084-1.26-1.098c-0.592-0.01-1.159,0.447-1.3,1.047c-0.161-0.678-0.815-1.212-1.478-1.142
	c-0.664,0.07-1.215,0.799-1.074,1.481c-0.282-0.46-0.773-0.833-1.293-0.776c-0.521,0.058-0.958,0.699-0.702,1.179
	c-0.588-0.33-1.283-0.571-1.915-0.342c-0.631,0.228-1.055,1.101-0.658,1.662c-0.51-0.219-1.088-0.406-1.602-0.198
	c-0.514,0.208-0.813,0.997-0.406,1.383c-0.362-0.106-0.735-0.218-1.115-0.194c-0.379,0.023-0.766,0.215-0.941,0.567
	c-0.171,0.353-0.037,0.867,0.323,0.991c-0.547,0.067-1.135,0.212-1.484,0.655c-0.35,0.447-0.265,1.273,0.262,1.438
	c-0.628,0.037-1.293,0.343-1.548,0.944c-0.252,0.602,0.148,1.464,0.776,1.44l-0.057-0.01c-0.437-0.06-0.733,0.595-0.743,1.058
	s0.41,0.883,0.85,0.85c-0.309,0.101-0.583,0.333-0.708,0.646c-0.125,0.312-0.074,0.705,0.154,0.944
	c0.229,0.238,0.635,0.278,0.88,0.057c-0.359,0.286-0.631,0.695-0.758,1.148c-0.044,0.154-0.071,0.319-0.038,0.477
	c0.067,0.292,0.349,0.494,0.635,0.518c0.286,0.023,0.567-0.098,0.803-0.269c-0.272,0.376-0.286,0.914-0.101,1.347
	c0.185,0.433,0.535,0.766,0.927,0.994"/>
<path fill="#DEBB95" d="M81.07,29.596c-0.372-0.766-0.772-1.343-1.078-1.733c-0.671-0.856-1.044-1.027-1.31-1.102
	c-0.138-0.037-0.648-0.175-0.984,0.094c-0.299,0.242-0.309,0.685-0.306,0.984c0.023,1.716,0.538,3.317,0.703,3.815
	c0.477,1.451,0.718,1.915,1.148,2.318c0.598,0.564,1.122,0.604,1.239,0.607c0.145,0.006,0.443,0.018,0.726-0.164
	c0.56-0.36,0.54-1.132,0.538-1.196C81.521,32.014,81.296,30.805,81.07,29.596z"/>
<path fill="#DEBB95" d="M98.723,34.442c0.132,0.124,0.366,0.306,0.684,0.342c0.111,0.013,0.565,0.05,1.217-0.531
	c1.447-1.286,1.539-3.523,1.575-4.416c0.018-0.413,0.018-1.105-0.406-1.669c-0.113-0.152-0.331-0.44-0.687-0.484
	c-0.284-0.037-0.512,0.104-0.67,0.202c-0.605,0.383-0.82,1.051-0.891,1.326C99.549,29.213,98.316,33.505,98.723,34.442z"/>
<path fill="#DEBB95" d="M69.276,25.735c0,0,3.621-2.173,4.148-2.535c0,0,0.278-0.188,0.651-0.793c0,0,0.769-2.146,0.914-2.68
	c0.144-0.534,0.282-1.417,0.581-1.723c0.295-0.305,2.002-1.504,2.298-1.652c0.295-0.147,3.026-1.166,3.264-1.132
	c0.238,0.038,0.161,0.417,0.161,0.417s0.326-0.064,0.437,0.054c0.107,0.118-0.188,0.584-0.188,0.584s0.292,0.592-0.111,0.873
	c0,0,0.202,0.441-0.162,0.739c-0.362,0.299-1.208,0.742-1.208,0.742s-0.679,0.793-0.998,1.042c0,0,0.007,0.648-0.151,1.313
	c-0.158,0.668-0.329,2.173-0.514,3.103c-0.185,0.93-0.618,1.289-1.403,1.817c-0.786,0.526-2.311,1.9-3.13,2.932
	c-2.331,2.922-2.596,2.233-4.272,0.531C67.698,27.448,69.276,25.735,69.276,25.735z"/>
<path fill="#D5AF86" d="M81.428,17.146c-2.219,1.072-1.971,0.923-3.643,2.667c0.231-0.611,0.802-1.28,1.37-1.699
	C79.867,17.751,80.723,17.348,81.428,17.146z"/>
<path fill="#D5AF86" d="M81.536,16.277c-0.954,0.477-2.179,0.899-3.066,1.467c-0.494,0.423-1.018,0.947-1.521,1.364
	c0.313-0.594,0.921-1.25,1.525-1.663C79.454,17.032,80.579,16.555,81.536,16.277z"/>
<path fill="#D5AF86" d="M81.291,15.638c-0.951,0.423-2.167,0.927-3.09,1.37c-0.692,0.521-1.33,1.122-2.059,1.599
	c0.446-0.628,1.189-1.273,1.867-1.75C79.064,16.417,80.259,15.934,81.291,15.638z"/>
<path fill="#DEBB95" d="M109.124,26.133c0,0-3.004-2.434-3.474-2.871c0,0-0.249-0.229-0.527-0.88c0,0-0.443-2.233-0.507-2.785
	c-0.064-0.551-0.072-1.444-0.319-1.79c-0.248-0.346-1.76-1.784-2.028-1.971c-0.269-0.188-2.821-1.599-3.063-1.599
	c-0.239,0-0.224,0.39-0.224,0.39s-0.313-0.11-0.438-0.01c-0.126,0.101,0.101,0.605,0.101,0.605s-0.377,0.541-0.021,0.88
	c0,0-0.265,0.406,0.051,0.755c0.316,0.349,1.088,0.911,1.088,0.911s0.555,0.883,0.833,1.178c0,0-0.101,0.639-0.043,1.324
	c0.058,0.682,0.006,2.196,0.05,3.146c0.043,0.947,0.423,1.367,1.121,2.005c0.699,0.634,2.445,3.304,3.201,4.382
	s1.705,1.568,3.613,0.128C110.69,28.306,109.124,26.133,109.124,26.133z"/>
<path fill="#D5AF86" d="M98.63,16.102c2.038,1.386,1.813,1.202,3.209,3.173c-0.141-0.638-0.604-1.383-1.104-1.883
	C100.083,16.927,99.294,16.404,98.63,16.102z"/>
<path fill="#D5AF86" d="M98.646,15.222c0.874,0.611,2.022,1.209,2.817,1.904c0.428,0.491,0.871,1.085,1.308,1.575
	c-0.223-0.634-0.726-1.37-1.263-1.868C100.594,16.276,99.556,15.638,98.646,15.222z"/>
<path fill="#D5AF86" d="M98.986,14.627c0.876,0.557,2.004,1.236,2.853,1.81c0.608,0.615,1.152,1.307,1.802,1.884
	c-0.35-0.688-0.988-1.434-1.59-2.005C101.074,15.729,99.959,15.07,98.986,14.627z"/>
<path fill="#F2EDE4" d="M73.572,30.781c-0.743,0.631-2.056,1.944-2.664,3.99c-0.208,0.698-0.315,1.43-0.329,2.173
	c-3.705,0.346-8.517-1.135-10.64-4.031c3.345-4.957,8.292-7.586,9.712-8.301c0.171,0.144,0.352,0.309,0.541,0.497
	c0.017,0.014,0.033,0.03,0.05,0.051c0.542,0.527,1.142,1.212,1.706,2.065c0.39,0.591,0.696,1.165,0.944,1.702
	c0.004,0.007,0.007,0.014,0.011,0.024C73.218,29.639,73.43,30.267,73.572,30.781z"/>
<path fill="#F2EDE4" d="M117.99,33.343c-2.305,2.868-7.084,4.376-10.93,4.154c0.042-0.93-0.063-1.857-0.321-2.727
	c-0.604-2.046-1.921-3.359-2.661-3.99c0.142-0.514,0.354-1.142,0.67-1.834c0.004-0.006,0.007-0.017,0.01-0.023
	c0.245-0.538,0.554-1.112,0.94-1.703c0.564-0.853,1.164-1.538,1.706-2.066c0.017-0.02,0.033-0.037,0.051-0.05
	c0.188-0.185,0.369-0.35,0.54-0.494C109.459,25.347,114.649,28.108,117.99,33.343z"/>
<path fill="#652B28" d="M86.158,37.838c0.453-0.319,1.793-1.176,3.688-1.146c1.586,0.027,2.733,0.658,3.217,0.967
	c-0.778-0.228-1.877-0.46-3.2-0.456C88.277,37.207,86.998,37.546,86.158,37.838z"/>
<path fill="#987957" d="M88.796,38.819c0.148-0.104,0.582-0.383,1.199-0.374c0.514,0.007,0.887,0.215,1.045,0.316
	c-0.322-0.02-0.676-0.033-1.052-0.023C89.559,38.742,89.159,38.775,88.796,38.819z"/>
<path fill="#FFFFFF" d="M83.391,27.847c0,0,0.215,2.384,2.624,2.485c2.408,0.098,2.397-2.179,2.397-2.179S83.8,27.779,83.391,27.847
	z"/>
<path fill="#3F2E20" d="M87.451,27.967c0.004,0.01,0.003,0.024,0.003,0.034c0.107,0.783-0.433,1.511-1.216,1.636
	c-0.073,0.013-0.147,0.017-0.222,0.02c-0.013,0-0.022,0-0.037,0c-0.006,0-0.01,0-0.017,0c-0.02,0-0.04-0.003-0.06-0.003
	c-0.014,0-0.031,0-0.044-0.004c-0.642-0.066-1.182-0.553-1.286-1.221c-0.03-0.192-0.021-0.38,0.02-0.559
	c0.011-0.043,0.024-0.09,0.041-0.134c0.034-0.097,0.075-0.188,0.125-0.274c1.149-0.252,2.099,0.026,2.629,0.258
	c0.023,0.068,0.041,0.134,0.054,0.205C87.448,27.934,87.448,27.951,87.451,27.967z"/>
<path fill="#987957" d="M88.415,28.149c-0.168,0.023-0.339,0.04-0.504,0.057c-1.478,0.134-2.844-0.027-3.681-0.174
	c-0.524-0.094-0.836-0.182-0.84-0.188c0.36-0.155,0.732-0.333,1.068-0.403c1.478-0.322,2.7,0.033,3.382,0.33
	c0.322,0.138,0.5,0.332,0.558,0.369C88.409,28.146,88.415,28.149,88.415,28.149z"/>
<path fill="#987957" d="M83.807,30.479c0.665-0.242,1.384-0.275,2.082-0.286c0.692,0.024,1.441,0.027,2.067,0.376
	c-0.68-0.144-1.378-0.087-2.067-0.107C85.272,30.465,84.416,30.446,83.807,30.479z"/>
<path fill="#FFFFFF" d="M97.402,27.847c0,0-0.215,2.384-2.622,2.485c-2.408,0.098-2.398-2.179-2.398-2.179
	S96.993,27.779,97.402,27.847z"/>
<path fill="#3F2E20" d="M93.319,27.978c-0.003,0.01-0.003,0.023-0.003,0.033c-0.108,0.793,0.437,1.532,1.232,1.656
	c0.077,0.013,0.151,0.017,0.226,0.02c0.013,0,0.021,0,0.036,0c0.006,0,0.009,0,0.017,0c0.021,0,0.04-0.003,0.061-0.003
	c0.013,0,0.031,0,0.043-0.003c0.651-0.067,1.199-0.561,1.308-1.24c0.03-0.194,0.023-0.382-0.021-0.564
	c-0.01-0.047-0.023-0.09-0.04-0.137c-0.032-0.098-0.074-0.191-0.126-0.278c-1.166-0.256-2.131,0.026-2.667,0.262
	c-0.023,0.066-0.044,0.134-0.059,0.205C93.325,27.944,93.323,27.961,93.319,27.978z"/>
<path fill="#987957" d="M92.38,28.149c0.167,0.023,0.338,0.04,0.502,0.057c1.479,0.134,2.845-0.027,3.681-0.174
	c0.526-0.094,0.838-0.182,0.84-0.188c-0.358-0.155-0.731-0.333-1.067-0.403c-1.478-0.322-2.699,0.033-3.383,0.33
	c-0.322,0.138-0.499,0.332-0.557,0.369C92.385,28.146,92.38,28.149,92.38,28.149z"/>
<path fill="#987957" d="M96.986,30.479c-0.604-0.033-1.468-0.014-2.082-0.017c-0.688,0.02-1.39-0.037-2.065,0.107
	c0.622-0.349,1.371-0.353,2.065-0.376C95.607,30.204,96.32,30.237,96.986,30.479z"/>
<path fill="#405050" d="M89.097,35.361c-1.363,0.604-2.945,0.666-4.322,0.162c0.706,0.111,1.417,0.09,2.089-0.061
	c0.671-0.147,1.3-0.429,1.848-0.806c0.185-0.128,0.437-0.081,0.561,0.104C89.415,34.968,89.328,35.268,89.097,35.361z"/>
<path fill="#405050" d="M90.551,34.655c1.126,0.783,2.562,1.091,3.937,0.866c-1.381,0.504-2.959,0.444-4.322-0.161
	C89.63,35.111,90.054,34.343,90.551,34.655z"/>
<path fill="#542525" d="M89.007,25.532l-0.595-1.37c0,0-3.257,2.052-6.569,1.672C81.84,25.834,84.765,27.671,89.007,25.532z"/>
<path fill="#542525" d="M91.485,25.216l0.627-1.356c0,0,3.208,2.129,6.526,1.834C98.642,25.693,95.674,27.456,91.485,25.216z"/>
<path fill="#987957" d="M90.243,27.17c0.541,0.964,0.836,2.156,1.238,3.184c0.432,1.055,0.662,2.469-0.271,3.339
	c-0.615,0.506-1.639,0.527-2.203-0.047c0.363,0.13,0.709,0.234,1.075,0.218c1.239,0.034,1.692-1.313,1.47-2.351
	C91.214,30.069,90.475,28.662,90.243,27.17z"/>
<path fill="#405050" d="M79.684,20.078c-0.174-0.188-0.306-0.413-0.386-0.655c-0.071-0.212-0.094-0.458,0.027-0.642
	c0.211-0.323,0.695-0.269,1.068-0.175c0.154-0.195,0.02-0.477,0.017-0.729c-0.003-0.248,0.138-0.48,0.323-0.645
	c0.188-0.165,0.42-0.265,0.647-0.359c0.507-0.208,1.024-0.387,1.555-0.531c0.037,0.141-0.04,0.292-0.151,0.39
	c-0.111,0.098-0.249,0.154-0.373,0.232c-0.443,0.269-0.718,0.746-0.914,1.229c-0.191,0.484-0.322,0.994-0.574,1.448
	c-0.127,0.228-0.289,0.446-0.521,0.567c-0.231,0.121-0.541,0.124-0.732-0.054"/>
<path fill="#405050" d="M100.396,18.953c0.175-0.188,0.306-0.413,0.386-0.655c0.07-0.212,0.095-0.457-0.027-0.642
	c-0.211-0.323-0.694-0.269-1.066-0.174c-0.155-0.195-0.021-0.477-0.019-0.729c0.004-0.248-0.137-0.48-0.322-0.645
	c-0.188-0.164-0.42-0.265-0.647-0.359c-0.506-0.208-1.024-0.387-1.555-0.531c-0.036,0.141,0.039,0.292,0.151,0.389
	c0.11,0.098,0.249,0.155,0.372,0.232c0.443,0.269,0.718,0.746,0.914,1.229c0.19,0.483,0.321,0.994,0.574,1.448
	c0.126,0.228,0.288,0.447,0.521,0.567s0.54,0.125,0.731-0.054"/>
<path fill="#FDFFFC" d="M121.32,11.951c0.121,1.003-0.311,2.113-1.16,3.014c-1.883,1.998-5.164,1.758-6.562-0.608
	c-0.328-0.557-0.528-1.18-0.562-1.823c-0.077-1.358,0.566-2.83,1.748-3.538C117.087,7.616,121.01,9.383,121.32,11.951z"/>
<path fill="#FDFFFC" d="M114.545,18.203c0.05,0.43-0.08,0.893-0.361,1.313c-1.001,1.487-3.263,1.42-4.006-0.212
	c-0.111-0.246-0.179-0.509-0.191-0.782c-0.042-0.747,0.309-1.558,0.962-1.947C112.214,15.817,114.374,16.791,114.545,18.203z"/>
</svg>
