<?xml version="1.0" encoding="utf-8"?>
<!-- Generator: Adobe Illustrator 16.0.0, SVG Export Plug-In . SVG Version: 6.00 Build 0)  -->
<!DOCTYPE svg PUBLIC "-//W3C//DTD SVG 1.1//EN" "http://www.w3.org/Graphics/SVG/1.1/DTD/svg11.dtd">
<svg version="1.1" id="Layer_1" xmlns="http://www.w3.org/2000/svg" xmlns:xlink="http://www.w3.org/1999/xlink" x="0px" y="0px"
	 width="596.971px" height="571.47px" viewBox="0 0 596.971 571.47" enable-background="new 0 0 596.971 571.47"
	 xml:space="preserve">
<g>
	<defs>
		<rect id="SVGID_1_" x="-194.605" y="-203.106" width="1000" height="1000"/>
	</defs>
	<clipPath id="SVGID_2_">
		<use xlink:href="#SVGID_1_"  overflow="visible"/>
	</clipPath>
	<path clip-path="url(#SVGID_2_)" fill="#E3F4FF" d="M442.035,92.715c8.834,8.531,17.134,18.426,22.586,28.517
		c11.457,21.206,12.4,51.478,8.953,74.629c-2.38,15.998-12.75,38.207-7.658,54.395c6.9,21.93,43.239,21.036,60.972,26.527
		c16.297,5.047,31.752,17.46,40.065,32.572c25.501,46.36-5.17,71.198-20.511,91.929c-17.44,23.569,20.559,52.067-1.267,75.586
		c-22.822,24.587-50.308,34.803-95.934,34.803c-90.396,0-110.639,7.098-235.907-1.783c-23.734-1.681-55.359-7.098-79.015-9.636
		c-35.708-3.835-123.784-34.857-100.802-93.534c17.004-43.415,106.294-36.736,76.371-96.082
		c-19.571-38.815-56.369-92.688-10.611-126.982c33.228-24.901,54.497-39.202,73.779-76.854
		c21.112-41.222,50.736-63.556,97.375-67.48c25.243-2.124,50.823-1.925,75.628,3.701c30.252,6.862,60.146,19.975,84.39,39.478
		C434.287,85.585,438.211,89.022,442.035,92.715"/>
	<path clip-path="url(#SVGID_2_)" fill="#99CCE0" d="M148.562,365.172c3.494-26.398-41.869-28.717-37.558-3.791
		c-9.974-16.637-37.945-0.301-30.216,18.549c-8.164-1.482-14.673,5.178-17.718,12.196c-3.762,8.661-0.992,14.874,4.806,21.906
		c-7.82-0.093-16.066,6.763-16.577,14.829c-0.743,11.668,1.112,15.158,7.378,21.372c-8.629,0.852-11.276,11.374-11.03,19.171
		c0.378,11.956,6.306,14.6,16.743,16.551c12.284,2.298,22.483,2.406,34.926,0.896c10.405-1.266,21.608-5.013,32.393-4.919
		c17.644,0.153,35.199-2.013,52.634-4.484c11.771-1.665,28.303-0.659,35.959-11.226c6.207-8.573,8.41-19.478,4.299-29.305
		c-2.24-5.358-13.773-20.062-20.48-10.627c9.565-7.762,9.61-15.332,6.683-24.231c-2.941-8.933-13.303-16.769-22.231-12.162
		c5.971-11.562,0.714-23.918-9.899-31.31C178.673,358.587,159.661,345.917,148.562,365.172"/>
	<path clip-path="url(#SVGID_2_)" fill="#BDDEEF" d="M287.415,441.657c16.043-17.826-9.359-42.316-26.698-28.123
		c14.452-28.586-36.047-44.749-37.916-14.528c-12.693-16.211-41.679-7.569-35.258,14.782c-24.492-7.351-36.274,24.908-21.479,36.779
		c-12.779,3.058-15.011,22.305-5.778,29.68c8.344,6.662,29.044,5.092,39.945,5.093c14.388,0.001,28.976-0.873,42.992-2.044
		c15.908-1.329,40.872,3.562,54.07-8.121c5.854-5.184,12.388-9.867,9.432-24.56C305.574,444.907,292.874,432.462,287.415,441.657"/>
</g>
<g>
	<defs>
		<path id="SVGID_3_" d="M72.415,441.348c-6.83-8.723-22.421-4.073-18.967,7.951c-13.177-3.955-19.515,13.398-11.554,19.782
			c-6.873,1.646-8.075,12-3.108,15.967c3.768,3.009,12.224,2.896,18.31,2.783c1.161-0.021,2.237-0.044,3.177-0.044
			c7.739,0.001,15.588-0.47,23.125-1.101c2.335-0.194,5.033-0.14,7.867-0.086c7.549,0.145,16.057,0.289,21.22-4.281
			c3.15-2.788,6.663-5.308,5.071-13.211c-0.565-2.811-6.339-8.661-9.565-5.832c6.863-9.466-6.179-21.482-15.181-14.114
			c4.834-9.562-3.844-16.54-11.339-16.541C76.913,432.621,72.793,435.2,72.415,441.348"/>
	</defs>
	<clipPath id="SVGID_4_">
		<use xlink:href="#SVGID_3_"  overflow="visible"/>
	</clipPath>
	
		<linearGradient id="SVGID_5_" gradientUnits="userSpaceOnUse" x1="-194.6055" y1="796.8931" x2="-193.6055" y2="796.8931" gradientTransform="matrix(82.1991 0 0 -82.1991 16032.165 65964.2422)">
		<stop  offset="0" style="stop-color:#E3F4FF"/>
		<stop  offset="0.4118" style="stop-color:#E3F4FF"/>
		<stop  offset="0.7063" style="stop-color:#E1F3FF"/>
		<stop  offset="0.8516" style="stop-color:#D9F0FF"/>
		<stop  offset="0.9639" style="stop-color:#CCEAFF"/>
		<stop  offset="1" style="stop-color:#C6E7FF"/>
	</linearGradient>
	<rect x="33.818" y="432.621" clip-path="url(#SVGID_4_)" fill="url(#SVGID_5_)" width="85.329" height="55.437"/>
</g>
<g>
	<defs>
		<rect id="SVGID_6_" x="-194.605" y="-203.106" width="1000" height="1000"/>
	</defs>
	<clipPath id="SVGID_7_">
		<use xlink:href="#SVGID_6_"  overflow="visible"/>
	</clipPath>
	<path clip-path="url(#SVGID_7_)" fill="#BDDEEF" d="M19.037,503.758c0,28.696,128.209,51.955,286.359,51.955
		c158.147,0,286.356-23.259,286.356-51.955c0-28.693-128.209-51.95-286.356-51.95C147.246,451.808,19.037,475.065,19.037,503.758"/>
	<path clip-path="url(#SVGID_7_)" fill="#99CCE0" d="M490.103,482.052c0,6.746-22.205,12.215-49.596,12.215
		c-27.393,0-49.598-5.469-49.598-12.215s22.205-12.215,49.598-12.215C467.897,469.837,490.103,475.306,490.103,482.052"/>
	<path clip-path="url(#SVGID_7_)" fill="#2D2A2A" d="M237.587,514.548c0.162,1.064,0.188,2.146,0.078,3.216
		c-1.849,17.959-30.285,14.382-36.035,1.785c-4.493-9.174-1.713-17.888-4.638-26.504c-0.159-0.469-0.202-6.804-0.002-7.647
		c3.344-14.1,20.771-6.211,24.628-3.931C225.011,483.475,236.021,504.244,237.587,514.548"/>
	<path clip-path="url(#SVGID_7_)" fill="#565252" d="M236.932,510.918c0.927,4.15-0.721,9.017-4.282,11.339
		c-6.065,3.955-21.844,6.195-30.704-5.912c-3.441-5.202-1.57-14.717-4.558-25.464c-2.029-7.298,1.895-13.521,9.47-13.583
		c6.568-0.053,12.714,2.958,14.761,4.169C224.653,483.263,234.454,499.823,236.932,510.918"/>
	<path clip-path="url(#SVGID_7_)" fill="#BC956B" d="M198.319,481.618c0.926,2.069-1.076,5.773,2.064,16.004
		c0.255,0.831,0.808,4.697,1.239,6.251c1.687,6.075,2.094,8.436,2.624,10.551c0.974,3.889,11.684,9.555,26.285,4.07
		c0.766-0.288,5.514,0.145,2.903-8.033c-2.71-8.485-8.728-25.313-12.986-28.335c0,0-2.682-3.743-4.009-7.352
		c-1.326-3.609-1.855-7.331-1.855-7.331l-19.103,4.431L198.319,481.618z"/>
	<path clip-path="url(#SVGID_7_)" fill="#987957" d="M216.928,475.975c-8.36,2.556-14.738,3.727-19.017,4.257l-2.431-8.359
		l19.106-4.427c0,0,0.523,3.72,1.856,7.329C216.589,475.171,216.751,475.577,216.928,475.975"/>
	<path clip-path="url(#SVGID_7_)" fill="#353333" d="M236.313,508.537c-3.189-0.376-5.664-2.902-12.985-1.377
		c-6.916,1.317-15.268,4.669-21.005,12.8c-0.862-2.01-1.775-4.581-2.401-7.637c-0.649-3.123-0.833-5.9-0.825-8.124
		c0,0,0.176-0.222,0.53-0.598c2.401-2.577,13.022-12.454,31.251-8.204c0.95,2.04,1.892,3.152,2.798,5.473
		c0.442,1.134,1.061,2.924,1.613,4.573C235.688,506.643,236.063,507.77,236.313,508.537"/>
	<path clip-path="url(#SVGID_7_)" fill="#474545" d="M235.29,505.443c-2.607-0.751-5.332-2.335-11.49-1.061
		c-5.653,1.078-12.265,3.514-17.625,8.812c-1.707,1.688-4.627,0.925-5.251-1.392c-0.194-0.719-0.375-1.473-0.538-2.257
		c-0.442-2.172-0.67-4.177-0.758-5.943c2.401-2.578,13.021-12.455,31.25-8.205c0.95,2.04,1.893,3.152,2.799,5.472
		C234.119,502.003,234.738,503.793,235.29,505.443"/>
	<path clip-path="url(#SVGID_7_)" fill="#2D2A2A" d="M265.37,513.789c-0.162,1.063-0.188,2.146-0.078,3.216
		c1.849,17.959,30.285,14.382,36.035,1.785c4.493-9.174,1.713-17.89,4.638-26.504c0.159-0.47,0.202-6.805,0.002-7.647
		c-3.344-14.1-20.771-6.211-24.628-3.931C277.946,482.715,266.937,503.483,265.37,513.789"/>
	<path clip-path="url(#SVGID_7_)" fill="#565252" d="M266.026,510.159c-0.927,4.149,0.721,9.016,4.282,11.339
		c6.065,3.955,21.844,6.195,30.704-5.912c3.441-5.203,1.57-14.717,4.558-25.464c2.029-7.298-1.895-13.521-9.47-13.583
		c-6.568-0.053-12.714,2.958-14.761,4.169C278.305,482.503,268.504,499.062,266.026,510.159"/>
	<path clip-path="url(#SVGID_7_)" fill="#BC956B" d="M304.639,480.858c-0.926,2.068,1.076,5.772-2.064,16.004
		c-0.255,0.831-0.808,4.697-1.239,6.251c-1.687,6.075-2.094,8.435-2.624,10.55c-0.974,3.889-11.684,9.555-26.285,4.071
		c-0.766-0.288-5.514,0.144-2.903-8.033c2.71-8.486,8.728-25.314,12.986-28.335c0,0,2.682-3.744,4.009-7.353
		c1.326-3.608,1.855-7.33,1.855-7.33l19.103,4.431L304.639,480.858z"/>
	<path clip-path="url(#SVGID_7_)" fill="#987957" d="M286.029,475.214c8.36,2.557,14.738,3.728,19.017,4.258l2.431-8.359
		l-19.105-4.427c0,0-0.523,3.72-1.856,7.329C286.368,474.412,286.206,474.817,286.029,475.214"/>
	<path clip-path="url(#SVGID_7_)" fill="#353333" d="M266.644,507.776c3.189-0.376,5.664-2.901,12.985-1.377
		c6.916,1.318,15.268,4.669,21.005,12.801c0.862-2.011,1.775-4.581,2.401-7.638c0.649-3.123,0.833-5.899,0.825-8.124
		c0,0-0.176-0.221-0.53-0.597c-2.401-2.577-13.022-12.454-31.251-8.204c-0.95,2.04-1.892,3.152-2.798,5.472
		c-0.442,1.135-1.061,2.925-1.613,4.574C267.27,505.883,266.894,507.01,266.644,507.776"/>
	<path clip-path="url(#SVGID_7_)" fill="#474545" d="M267.667,504.683c2.607-0.751,5.332-2.335,11.49-1.062
		c5.653,1.078,12.265,3.515,17.625,8.813c1.707,1.687,4.627,0.925,5.251-1.393c0.194-0.719,0.375-1.472,0.538-2.257
		c0.442-2.172,0.67-4.176,0.758-5.942c-2.401-2.578-13.021-12.455-31.25-8.205c-0.95,2.04-1.893,3.151-2.799,5.472
		C268.838,501.244,268.22,503.033,267.667,504.683"/>
	<path clip-path="url(#SVGID_7_)" fill="#987957" d="M447.544,356.769l0.146,13.025l-9.362,7.658c0,0-8.189-4.88-10.042-10.512
		c-1.177-3.577,9.399-10.339,9.399-10.339l11.459-0.895L447.544,356.769z"/>
	<path clip-path="url(#SVGID_7_)" fill="#5190B7" d="M303.839,349.977c3.207,34.081,25.515,67.581,19.535,83.534
		c-30.875,18.111-50.045,18.457-61.994,15.121c-4.907-1.367-14.874-5.095-27.215-2.516c-8.836,1.841-15.461,6.209-19.659,9.574
		c-14.61-40.148-29.232-80.304-43.842-120.452c-4.708-36.652-0.495-63.794,3.669-74.778c3.302-8.974,12.543-17.786,16.376-19.996
		c0.038-0.021,0.539-0.313,1.231-0.703c2.756-1.554,5.523-3.061,7.956-4.315c1.308-0.674,2.721-1.314,4.215-1.912
		c8.074-3.248,18.445-5.405,27.198-7.082c2.234-0.428,4.362-0.827,6.315-1.202c3.588-0.686,6.595-1.301,8.636-1.905
		c9.122,0.481,9.726,0.269,25.204,4.033c27.362,6.661,43.907,10.688,51.928,23.792c9.14,14.915-25.645,21.611-22.309,57.356
		C303.106,330.161,302.068,331.145,303.839,349.977"/>
	<path clip-path="url(#SVGID_7_)" fill="#5190B7" d="M420.738,349.467c-0.012,0.258-0.022,0.516-0.041,0.786
		c-0.305,4.754-1.266,10.905-3.951,15.952c-0.457,0.861-0.968,1.694-1.53,2.48c-1.823,2.526-4.215,4.584-7.358,5.77
		c-1.407-0.581-3.13-1.145-5.136-1.742c-0.017,0.006-0.029,0-0.035-0.006c-19.57-5.757-66.063-13.965-107.83-62.92
		c-28.827-33.782-33.383-57.567-21.176-68.39c2.11-1.876,4.578-3.653,7.563-4.175c29.513-5.153,35.437,4.261,57.802,33.378
		c50.98,66.371,81.692,72.714,81.692,72.714S420.943,345.463,420.738,349.467"/>
	<path clip-path="url(#SVGID_7_)" fill="#4080A0" d="M402.686,372.707c-19.571-5.755-66.061-13.967-107.831-62.919
		c-28.825-33.785-33.38-57.568-21.176-68.393c2.112-1.873,4.664-3.293,7.566-4.171C284.311,265.303,317.335,342.345,402.686,372.707
		"/>
	<path clip-path="url(#SVGID_7_)" fill="#E2DBCC" d="M243.486,386.043c-1.782,0.44-3.875-0.482-5.546-0.172
		c-20.919,3.84-34.081-12.302-51.605-12.741c2.503-28.465,5.006-56.929,7.51-85.394c8.724-5.564,13.866-15.149,13.139-24.87
		c-0.727-9.603-7.083-18.193-16.276-22.402c0.411-0.235,0.821-0.469,1.232-0.704c2.755-1.553,5.522-3.06,7.955-4.315
		c1.308-0.674,2.721-1.313,4.216-1.911c8.073-3.248,18.444-5.406,27.198-7.082c-0.041,1.794-0.446,4.948,0.264,6.783
		c2.784,7.276,7.129,12.089,16.879,11.579c-5.822,19.23-6.602,43.01-8.003,72.952C239.446,339.424,241.247,370.109,243.486,386.043"
		/>
	<path clip-path="url(#SVGID_7_)" fill="#EFE9DF" d="M237.94,385.872c-20.919,3.84-34.081-12.302-51.605-12.742
		c2.503-28.464,5.007-56.928,7.51-85.392c8.724-5.564,13.866-15.15,13.139-24.871c-0.727-9.604-7.082-18.192-16.275-22.402
		c0.41-0.234,0.82-0.469,1.231-0.703c2.755-1.554,5.523-3.061,7.956-4.315c1.307-0.675,2.72-1.314,4.215-1.912
		c7.634-2.093,15.9-3.547,22.238-4.76c-0.405,1.776-0.492,5.136,0.252,7.076c2.785,7.27,7.129,12.089,16.885,11.579
		c-5.828,19.231-6.607,43.005-8.003,72.946C234.51,341.365,235.818,370.236,237.94,385.872"/>
	<path clip-path="url(#SVGID_7_)" fill="#E2DBCC" d="M315.188,383.114c-13.706,0.343-27.302,3.573-41.009,3.848
		c-6.626,0.138-1.97,2.255-8.672,0.348c-12.149-23.346-6.817-118.729-7.908-130.926c1.694-0.789,4.459-2.346,7.011-5.22
		c0.782-0.885,3.588-4.205,4.816-9.289c1.962-8.142-1.335-13.793-2.322-15.543c1.795-0.305,4.414-0.2,6.973,0.294
		c10.193,1.969,21.425,5.007,29.588,9.233c2.429,1.255,5.722,2.976,8.473,4.533c-10.976,4.123-17.44,13.365-19.128,24.286
		c-0.947,6.132-2.49,16.896-0.885,28.413c2.689,15.682,8.287,23.249,13.322,28.318c-1.002,3.382-2.024,8.732-2.236,15.174
		c-0.316,9.707,1.845,17.116,4.939,27.399C309.604,368.818,311.826,375.43,315.188,383.114"/>
	<path clip-path="url(#SVGID_7_)" fill="#EFE9DF" d="M315.189,383.115c-13.707,0.34-27.303,3.569-41.011,3.846
		c-4.455-0.258-3.131-4.075-7.633-5.359c-3.952-15.812-2.744-101.668-3.553-120.558c-0.059-1.384,0.545-2.709,1.641-3.559
		c1.959-1.53,4.644-4.098,6.514-6.214c0.78-0.874,3.588-4.198,4.814-9.281c1.647-6.795-0.546-12.611-1.882-15.367
		c3.341,0.645,6.8,1.407,10.219,2.293c7.012,1.799,13.883,4.104,19.365,6.941c2.434,1.255,5.722,2.978,8.471,4.538
		c-10.975,4.122-17.436,13.362-19.124,24.284c-0.686,4.438-1.683,11.304-1.571,19.119c0.041,2.984,0.24,6.109,0.686,9.293
		c2.69,15.683,8.284,23.246,13.32,28.317c-0.645,2.175-1.296,5.159-1.735,8.724c-0.065,0.54-0.129,1.091-0.182,1.654
		c-0.153,1.512-0.264,3.119-0.317,4.795c-0.316,9.709,1.847,17.12,4.937,27.402C309.603,368.814,311.824,375.428,315.189,383.115"/>
	<path clip-path="url(#SVGID_7_)" fill="#EFE9DF" d="M292.418,268.759c-0.839,6.273-1.589,15.062-0.293,24.331
		c0.322,1.899,0.692,3.676,1.096,5.347c2.943,12.13,7.798,18.515,12.225,22.971c-0.305,1.032-0.609,2.245-0.897,3.617
		c-0.316,1.52-0.609,3.23-0.838,5.107c-2.855,0.269-5.705,0.45-8.566,0.51c-4.461-0.258-3.137-4.075-7.633-5.359
		c-2.979-11.906-3.025-63.53-3.213-96.368c2.638,0.68,5.259,1.425,7.792,2.251c4.197,1.36,8.155,2.92,11.573,4.691
		c2.157,1.113,4.995,2.597,7.528,4.01c0.321,0.176,0.633,0.352,0.943,0.527c-0.997,0.376-1.953,0.792-2.873,1.249
		c-9.234,4.562-14.716,13.104-16.252,23.035c-0.182,1.191-0.393,2.557-0.592,4.063V268.759z"/>
	<path clip-path="url(#SVGID_7_)" fill="#E2DBCC" d="M305.445,321.408c-0.645,2.175-1.296,5.159-1.735,8.724
		c-0.065,0.539-0.129,1.09-0.182,1.653c-14.306-13.351-12.623-35.845-12.089-47.987c0.041,2.984,0.24,6.109,0.686,9.292
		C294.816,308.773,300.409,316.336,305.445,321.408"/>
	<path clip-path="url(#SVGID_7_)" fill="#C6C6C6" d="M221.941,467.458c-0.219,1.227-0.437,2.406-0.643,3.534
		c-14.658,6.457-20.446,5.535-30.191,6.768c-11.602-13.312-23.011-36.355-30.423-63.769c-9.779-36.158-7.114-59.614,2.605-70.38
		c2.752-3.043,6.066-5.078,9.825-6.093c17.038-4.607,36.735,13.398,49.278,59.786C229.248,422.668,225.104,449.863,221.941,467.458"
		/>
	<path clip-path="url(#SVGID_7_)" fill="#DDDDDD" d="M221.941,467.458c-11.174,4.569-16.897,4.565-24.299,5.276
		c-2.077,0.199-4.108-0.66-5.408-2.291c-10.835-13.604-21.28-35.449-28.229-61.126c-8.545-31.61-7.584-53.508-0.716-65.706
		c2.752-3.043,6.066-5.078,9.825-6.093c17.038-4.607,36.735,13.398,49.278,59.786C229.248,422.668,225.104,449.863,221.941,467.458"
		/>
	<path clip-path="url(#SVGID_7_)" fill="#C6C6C6" d="M338.898,409.076c-5.701,27.817-15.666,51.524-26.426,65.526
		c-9.798-0.63-15.52,0.644-30.548-4.893c-0.279-1.134-0.577-2.32-0.876-3.553c-4.243-17.376-10.037-44.227-4.766-69.93
		c9.659-47.077,28.202-66.256,45.492-62.709c6.218,1.273,11.423,5.311,15.089,12.146
		C343.419,357.842,345.083,378.917,338.898,409.076"/>
	<path clip-path="url(#SVGID_7_)" fill="#DDDDDD" d="M337.095,405.184c-5.257,25.62-14.119,47.748-23.896,62.027
		c-1.479,2.159-3.974,3.396-6.589,3.318c-7.412-0.218-13.346,0.007-25.561-4.374c-4.243-17.376-10.037-44.226-4.767-69.929
		c9.659-47.076,28.202-66.255,45.492-62.709c6.219,1.272,11.424,5.311,15.09,12.146C341.868,358.227,342.67,378.023,337.095,405.184
		"/>
	<path clip-path="url(#SVGID_7_)" fill="#3F3B3B" d="M418.614,479.188c0,2.849,6.111,5.18,13.581,5.18h18.107
		c7.469,0,13.58-2.331,13.58-5.18c0-2.848-6.111-5.179-13.58-5.179h-18.107C424.726,474.009,418.614,476.34,418.614,479.188"/>
	<path clip-path="url(#SVGID_7_)" fill="#7A6F71" d="M407.127,454.926c0,16.857,15.597,23.852,34.837,23.852
		c19.239,0,34.837-6.994,34.837-23.852c0-16.856-15.598-30.522-34.837-30.522C422.724,424.404,407.127,438.07,407.127,454.926"/>
	<path clip-path="url(#SVGID_7_)" fill="#3F3B3B" d="M446.912,424.056c2.999,0.29,5.347,1.624,8.706,2.782
		c-1.903,3.773-6.353,6.103-11.749,6.103h-1.906c-5.193,0-9.906-3.147-11.932-6.698
		C436.094,424.405,441.284,423.512,446.912,424.056"/>
	<path clip-path="url(#SVGID_7_)" fill="#7A6F71" d="M429.098,418.506c0,5.635,5.79,10.246,12.866,10.246h1.905
		c7.076,0,12.866-4.611,12.866-10.246s-5.79-10.246-12.866-10.246h-1.905C434.888,408.26,429.098,412.872,429.098,418.506"/>
	<path clip-path="url(#SVGID_7_)" fill="#7A6F71" d="M448.633,330.007v78.676c0,3.146-2.57,5.716-5.716,5.716
		c-3.152,0-5.723-2.57-5.723-5.716v-78.676c0-3.138,2.57-5.708,5.723-5.708C446.063,324.299,448.633,326.87,448.633,330.007"/>
	<path clip-path="url(#SVGID_7_)" fill="#3F3B3B" d="M444.48,341.963c-2.525-0.819-4.921-1.835-7.282-2.973v-8.981
		c0-3.143,2.573-5.712,5.719-5.712c3.145,0,5.718,2.569,5.718,5.712v12.875C447.236,342.68,445.849,342.407,444.48,341.963"/>
	<path clip-path="url(#SVGID_7_)" fill="#7A6F71" d="M427.072,320.564c1.114,6.988,7.814,12.705,14.891,12.705h1.906
		c7.077,0,13.778-5.717,14.892-12.705l1.19-7.469c1.114-6.988-3.764-12.705-10.84-12.705h-12.39
		c-7.076,0-11.954,5.717-10.841,12.705L427.072,320.564z"/>
	<path clip-path="url(#SVGID_7_)" fill="#7A6F71" d="M425.723,305.393h34.387c2.765,0,5.004-2.239,5.004-5.003
		s-2.239-5.004-5.004-5.004h-34.387c-2.763,0-5.003,2.24-5.003,5.004S422.96,305.393,425.723,305.393"/>
	<path clip-path="url(#SVGID_7_)" fill="#8C8385" d="M470.075,459.653c-1.446,0-2.618-1.172-2.618-2.618
		c0-7.962-4.806-15.122-12.542-18.686c-1.313-0.604-1.887-2.159-1.282-3.473c0.604-1.312,2.159-1.887,3.473-1.283
		c9.615,4.429,15.588,13.41,15.588,23.441C472.693,458.481,471.521,459.653,470.075,459.653"/>
	<path clip-path="url(#SVGID_7_)" fill="#8C8385" d="M442.478,425.207c1.62,0,3.42-0.269,5.404-0.898
		c1.378-0.438,2.14-1.909,1.702-3.288c-0.437-1.378-1.906-2.142-3.288-1.702c-7.573,2.403-9.886-2.577-9.981-2.79
		c-0.587-1.32-2.133-1.915-3.455-1.328c-1.321,0.589-1.916,2.136-1.328,3.455C432.69,421.263,436.264,425.207,442.478,425.207"/>
	<path clip-path="url(#SVGID_7_)" fill="#3F3B3B" d="M458.518,305.393c-0.006-0.004-31.198,0-31.198,0s-1.989,3.988-1.528,7.003
		c0.46,3.017,33.564,4.434,33.564,4.434S461.089,306.954,458.518,305.393"/>
	<path clip-path="url(#SVGID_7_)" fill="#BC956B" d="M460.166,360.97c-0.65,2.439-7.973,0.498-10.189-0.475
		c-0.533-0.224-1.547-0.627-2.005-0.821l0.023-0.006c-0.51-0.211-0.943-0.393-1.267-0.516c-0.434-0.182-0.903-0.217-1.354-0.1
		c-0.967,0.246-2.797,0.785-4.736,1.718c-2.264,1.09-4.497,2.984-6.72,3.453c-4.994,1.049-5.903,1.489-5.903,1.489
		c11.978,1.495,3.235,3.793,8.817,11.738c-4.263-1.643-7.546-3.366-9.75-4.626c-3.893-2.229-6.268-4.081-8.747-5.664
		c-0.521-0.334-1.044-0.651-1.589-0.955c-0.281-0.165-0.563-0.317-0.855-0.47c-0.95-0.499-1.988-0.962-3.16-1.407
		c-3.524-1.325-6.637-1.776-8.695-1.946h-0.006c2.046-4.767,3.588-12.699,5.417-16.85c0.06,0.018,0.112,0.047,0.164,0.064
		c3.413,1.495,6.807,2.931,9.504,4.021c0.563,0.229,1.091,0.439,1.583,0.634c0.271,0.104,0.522,0.205,0.762,0.299
		c1.719,0.662,2.856,1.055,3.091,1.037c1.29-0.099,8.519,0.258,10.811,0.223c2.269-0.022,10.542-0.674,12.676,0.142
		c0.105,0.034,0.246,0.082,0.41,0.146c1.765,0.78,6.209,3.19,9.099,5.441l0.03-0.006
		C459.122,358.771,460.371,360.167,460.166,360.97"/>
	<path clip-path="url(#SVGID_7_)" fill="#BC956B" d="M454.355,369.079c0,0,3.772-1.81,2.558-4.786s-14.739-3.742-15.639-2.569
		c-0.9,1.173,0.399,2.648,0.399,2.648s-2.421,0.164-2.04,1.889s2.139,2.958,2.139,2.958s-3.829-0.961-4.36,1.359
		c-0.463,2.025,1.566,3.201,1.566,3.201s-4.758-1.174-3.185,2.374c1.573,3.547,10.361,4.177,11.037,3.354
		c0.748-0.909,0.198-1.62,0.198-1.62s3.57,0.393,5.275-1.724c1.184-1.467-0.399-2.648-0.399-2.648s2.534-0.281,3.66-1.689
		C456.691,370.417,454.355,369.079,454.355,369.079"/>
	<path clip-path="url(#SVGID_7_)" fill="#987957" d="M441.674,364.372l11.641,3.859C453.314,368.231,445.26,364.486,441.674,364.372
		"/>
	<path clip-path="url(#SVGID_7_)" fill="#987957" d="M451.477,372.95l-9.704-3.73C441.772,369.219,449.804,373.182,451.477,372.95"
		/>
	<path clip-path="url(#SVGID_7_)" fill="#987957" d="M438.979,373.779l7.506,3.244C446.484,377.023,441.808,373.701,438.979,373.779
		"/>
	<path clip-path="url(#SVGID_7_)" fill="#5190B7" d="M416.746,366.206c0,0-0.967,1.694-1.53,2.48
		c-0.821,0.064-10.706-2.563-13.127-2.768c0,0-1.396-1.296-0.915-4.361c2.421-5.623,5.271-12.02,7.428-16.92
		c0.071,0.022,2.341-0.6,2.398-0.575c3.711,1.618,6.795,4.034,9.739,5.406c-0.013,0.258-0.042,0.784-0.042,0.784
		c-0.128,1.836-0.376,3.866-0.813,6.042C419.099,360.218,417.918,363.546,416.746,366.206"/>
	<path clip-path="url(#SVGID_7_)" fill="#4080A0" d="M293.435,349.688c-0.267,6.851-2.14,16.721-5.008,29.144
		c-2.25,9.75-4.129,13.625-6.071,20.049c-9.782,32.388,3.334,48.662-7.944,64.417c-5.481,7.657-13.431,10.603-20.312,13.152
		c-8.019,2.96-16.477,6.099-23.824,1.317c-7.395-4.813-9.405-14.888-10.153-18.67c-1.653-8.276,0.412-11.393,1.4-23.939
		c1.146-14.593-0.419-25.993-1.578-34.432c-0.94-6.836-2.44-16.641-5.719-27.567c0.518,0.724,1.054,1.481,1.671,1.977
		c6.058,4.789,11.621,6.913,15.785,7.921c20.319,4.897,43.751-6.87,60.229-30.98C292.295,351.51,293.058,350.269,293.435,349.688"/>
	<path clip-path="url(#SVGID_7_)" fill="#5190B7" d="M291.91,352.076c-0.569,6.285-1.892,14.527-4.32,25.051
		c-2.202,9.518-4.034,13.3-5.927,19.569c-9.542,31.604,3.251,47.483-7.752,62.859c-5.351,7.471-13.109,10.346-19.825,12.826
		c-7.82,2.897-16.073,5.951-23.241,1.285c-7.217-4.695-9.179-14.522-9.913-18.212c-1.612-8.083,0.405-11.112,1.365-23.357
		c1.125-14.237-0.405-25.365-1.537-33.597c-0.823-6.014-2.243-14.034-4.863-23.365c6.057,4.79,11.62,6.913,15.784,7.921
		C252,387.954,275.432,376.186,291.91,352.076"/>
	<path clip-path="url(#SVGID_7_)" fill="#4080A0" d="M227.601,387.269c9.042,5.265,20.074,6.755,30.227,4.296
		c2.898-0.702,5.704-1.74,8.371-3.071c0.791-0.395,0.097-1.578-0.692-1.184c-9.036,4.507-19.761,5.229-29.381,2.229
		c-2.736-0.853-5.356-2.014-7.833-3.456C227.529,385.638,226.838,386.824,227.601,387.269"/>
	<path clip-path="url(#SVGID_7_)" fill="#4080A0" d="M270.237,403.101c-5.256,9.875,0.038,21.188-3.067,31.472
		c-0.78,2.585-2.097,4.965-4.094,6.806c-0.651,0.601,0.321,1.568,0.97,0.971c8.309-7.658,4.517-19.963,5.121-29.771
		c0.188-3.047,0.812-6.074,2.255-8.786C271.836,403.013,270.652,402.32,270.237,403.101"/>
	<path clip-path="url(#SVGID_7_)" fill="#4080A0" d="M259.073,402.936c0.299,6.942-0.789,13.896-3.245,20.399
		c-2.182,5.774-5.625,11.5-11.216,14.509c-3.077,1.656-6.666,2.386-10.112,1.642c-0.861-0.185-1.229,1.138-0.365,1.323
		c6.472,1.397,12.924-1.768,17.097-6.634c4.478-5.223,6.983-12.14,8.285-18.813c0.799-4.09,1.107-8.264,0.928-12.426
		C260.407,402.056,259.035,402.052,259.073,402.936"/>
	<path clip-path="url(#SVGID_7_)" fill="#7A6F71" d="M441.891,405.323c-0.316,0.036-0.633,0.029-0.935-0.021
		c-0.014,0-0.035-0.007-0.05-0.007C441.229,405.309,441.561,405.323,441.891,405.323"/>
	<path clip-path="url(#SVGID_7_)" fill="#CCA279" d="M269.793,230.017c-9.211,12.142-16.234,24.507-19.248,37.27
		c-4.022-15.554-11.421-26.869-20.649-35.851c0,0,2.75-3.383,5.113-6.737c0.856-1.225,1.665-2.45,2.269-3.5
		c0.117-0.199,0.228-0.387,0.322-0.568c0.006-0.006,0.012-0.018,0.017-0.024c0.1-0.193,0.194-0.375,0.276-0.545
		c0.663-1.384,0.956-3.852,1.05-6.397c0.175-4.215-0.165-8.63-0.165-8.63l27.409,0.387c0,0-0.181,3.283-0.498,8.296
		c-0.082,1.378-0.193,2.897-0.299,4.509v0.029c-0.076,1.032-0.035,2.011,0.082,2.926c0.258,2.093,0.921,3.846,1.653,5.229
		C268.362,228.751,269.793,230.017,269.793,230.017"/>
	<path clip-path="url(#SVGID_7_)" fill="#987957" d="M267.125,226.412c-3.844,4.184-10.842,9.214-16.435,9.138
		c-9.369-0.229-14.779-6.629-15.682-10.85c0.856-1.225,1.665-2.451,2.269-3.5c0.117-0.199,0.229-0.387,0.323-0.569
		c0.005-0.006,0.011-0.017,0.017-0.023c0.1-0.194,0.194-0.376,0.276-0.545c0.662-1.384,0.955-3.852,1.049-6.397
		c0.176-4.215-0.164-8.63-0.164-8.63l27.409,0.387c0,0-0.182,3.283-0.498,8.296c-0.082,1.378-0.194,2.896-0.299,4.508v0.03
		c-0.077,1.032-0.036,2.011,0.082,2.925C265.73,223.274,266.393,225.027,267.125,226.412"/>
	<path clip-path="url(#SVGID_7_)" fill="#5190B7" d="M237.374,221.057c0,0-4.536,3.806-3.556,8.973
		c0.98,5.168,10.512,12.323,10.512,12.323l-3.893,16.318c0,0-18.605-15.885-9.177-32.734L237.374,221.057z"/>
	<path clip-path="url(#SVGID_7_)" fill="#5190B7" d="M244.329,242.353c0,0,9.963,29.867,6.84,61.043l-2.744,0.054
		c0,0,0.525-45.338-5.901-53.53L244.329,242.353z"/>
	<path clip-path="url(#SVGID_7_)" fill="#5190B7" d="M265.707,222.563c0,0,2.249,1.794,1.733,6.819
		c-0.536,5.232-10.029,12.719-10.029,12.719l4.519,16.156c0,0,17.026-16.572,8.437-32.318c-0.262-0.479-0.69-0.848-1.151-1.142
		L265.707,222.563z"/>
	<path clip-path="url(#SVGID_7_)" fill="#4C6580" d="M244.329,242.353c-1.122,5.715-2.387,11.397-3.644,17.081
		c-2.548-2.174-4.77-4.665-6.724-7.362c-5.621-7.442-8.073-17.982-2.892-26.303c2.102-1.569,4.182-3.167,6.304-4.712
		c-1.859,1.595-4.275,3.686-5.896,5.002c-2.939,5.362-3.154,11.818-1.008,17.489c2.147,5.64,5.822,10.72,10.232,14.813l-0.662,0.216
		C241.426,253.159,242.812,247.739,244.329,242.353"/>
	<path clip-path="url(#SVGID_7_)" fill="#4C6580" d="M257.411,242.1c1.443,4.468,3.582,11.491,4.926,16.042l-0.701-0.189
		c2.357-2.452,4.443-5.234,6.181-8.175c3.703-6.148,5.933-13.703,3.62-20.74c-0.441-1.115-0.866-2.504-1.555-3.466
		c-0.537-0.61-1.346-1.019-2.038-1.53l-2.137-1.479c0.763,0.44,2.635,1.539,3.362,1.974c1.261,0.586,1.848,1.913,2.393,3.1
		c0.276,0.602,0.732,1.833,0.917,2.468c3.002,10.474-3.049,21.093-10.154,28.454l-0.516,0.524l-0.186-0.713
		C260.327,253.747,258.479,246.694,257.411,242.1"/>
	<path clip-path="url(#SVGID_7_)" fill="#5190B7" d="M257.412,242.1c0,0-12.076,30.292-7.753,61.326l2.744-0.053
		c0,0,0.999-45.348,7.105-53.781L257.412,242.1z"/>
	<path clip-path="url(#SVGID_7_)" fill="#4C6580" d="M248.425,303.45l3.976-0.182l-0.104,0.103
		c0.133-15.893,0.633-32.033,4.487-47.523c0.664-2.169,1.349-4.419,2.723-6.255c-1.188,1.948-1.752,4.176-2.269,6.372
		c-3.141,15.589-3.602,31.582-4.73,47.411l-0.006,0.104l-0.097-0.001L248.425,303.45z"/>
	<path clip-path="url(#SVGID_7_)" fill="#4C6580" d="M251.383,296.894c0,0.672-0.545,1.217-1.217,1.217
		c-0.672,0-1.217-0.545-1.217-1.217s0.545-1.217,1.217-1.217C250.838,295.677,251.383,296.222,251.383,296.894"/>
	<path clip-path="url(#SVGID_7_)" fill="#4C6580" d="M251.775,286.7c0,0.672-0.545,1.217-1.217,1.217s-1.217-0.545-1.217-1.217
		s0.545-1.217,1.217-1.217S251.775,286.028,251.775,286.7"/>
	<path clip-path="url(#SVGID_7_)" fill="#4C6580" d="M252.783,275.955c0,0.672-0.545,1.217-1.217,1.217s-1.217-0.545-1.217-1.217
		c0-0.672,0.545-1.217,1.217-1.217S252.783,275.283,252.783,275.955"/>
	<path clip-path="url(#SVGID_7_)" fill="#4C6580" d="M253.966,266.071c0,0.672-0.545,1.217-1.217,1.217s-1.217-0.545-1.217-1.217
		c0-0.672,0.545-1.217,1.217-1.217S253.966,265.398,253.966,266.071"/>
	<path clip-path="url(#SVGID_7_)" fill="#4080A0" d="M252.783,255.924c-1.084,15.078-5.426,37.387-17.603,58.433
		c-20.607,35.616-40.864,46.167-53.946,38.6c-2.854-1.646-5.124-4.019-6.723-7.093c-5.748-11.024-1.331-29.661,14.79-57.513
		c12.046-20.826,32.854-38.26,45.305-46.794c8.433,5.713,10.809,8.515,16.085,12.714
		C251.349,254.799,252.042,255.348,252.783,255.924"/>
	<path clip-path="url(#SVGID_7_)" fill="#5190B7" d="M250.69,254.271c-1.249,15.044-5.687,36.646-17.493,57.054
		c-20.607,35.61-40.864,46.167-53.946,38.594c-1.825-1.057-3.416-2.408-4.74-4.054c-5.749-11.024-1.331-29.662,14.789-57.514
		c12.046-20.826,32.855-38.26,45.305-46.794C243.483,247.428,245.416,250.073,250.69,254.271"/>
	<path clip-path="url(#SVGID_7_)" fill="#111010" d="M220.04,201.224c0.452,1.484,1.365,3.803,3.266,6.124
		c2.534,3.093,5.49,4.564,7.042,5.205c-1.198-1.63-2.466-3.567-3.674-5.818c-1.473-2.744-2.517-5.32-3.266-7.552
		C222.284,199.863,221.162,200.543,220.04,201.224"/>
	<path clip-path="url(#SVGID_7_)" fill="#BC956B" d="M246.244,228.965c1.762,0.958,5.284,2.533,9.655,2.112
		c3.009-0.289,6.162-1.534,10.174-4.886c9.095-7.598,12.918-17.95,15.977-26.524c0.926-2.597,3.208-9.324,4.666-18.446
		c1.75-10.944,1.67-15.719,1.764-20.204c0.023-1.085-1.191-7.39-1.903-8.232c-9.644-11.417-40.129-5.125-40.135-5.091
		c0,0.002,0.081,0.017,0.174,0.034c-2.531,0.454-9.537-2.506-12.645-1.359c-3.765,1.389-3.714,7.086-7.597,10.043
		C203.667,170.803,224.815,218.149,246.244,228.965"/>
	<path clip-path="url(#SVGID_7_)" fill="#111010" d="M223.476,193.739c-2.31-2.836-4.624-5.694-6.94-8.573
		c-1.591-1.977-3.171-3.95-4.743-5.919c-2.36-2.958-3.969-6.48-4.417-10.238c-0.039-0.323-0.07-0.653-0.094-0.99
		c-0.238-3.36,0.411-5.854,1.225-8.981c1.245-4.788,3.018-8.108,4.082-10.07c2.345-4.323,4.266-6.331,5.172-7.212
		c2.914-2.837,4.661-3.107,5.579-3.13c1.492-0.037,2.695,0.532,3.402,0.952c0.754-1.948,2.466-5.575,6.124-8.709
		c4.273-3.661,8.782-4.577,10.478-4.899c5.168-0.982,10.93,0.933,22.454,4.763c5.415,1.8,8.001,2.929,10.75,4.899
		c5.042,3.613,6.767,7.284,7.212,8.301c0.592,1.351,0.91,2.549,1.089,3.402c1.369,1.013,3.518,2.88,5.171,5.852
		c2.245,4.034,2.306,7.822,2.314,9.933c0.007,1.915-0.207,4.146-3.13,13.064c-0.881,2.688-2.102,6.27-3.675,10.479
		c1.649-6.096,1.318-10.66,0.681-13.744c-0.494-2.393-1.09-3.498-2.041-8.166c-0.831-4.077-1.102-6.793-1.225-8.573
		c-0.134-1.928-0.151-3.56-0.136-4.763c-1.621,0.721-4.148,1.698-7.348,2.314c-6.094,1.172-10.976,0.331-24.904-2.858
		c-5.539-1.268-10.403-2.426-14.424-3.402c0.748,2.498,2.607,9.884-0.408,18.507c-3.201,9.152-9.85,13.858-11.976,15.241
		C223.657,185.393,223.566,189.566,223.476,193.739"/>
	<path clip-path="url(#SVGID_7_)" fill="#484443" d="M272.908,141.943c-1.176-0.037-2.456-0.136-3.819-0.331
		c-2.649-0.378-4.944-1.018-6.83-1.694c1.023,1.5,2.574,3.402,4.831,5.171c1.223,0.959,2.412,1.689,3.47,2.245
		c-3.615,0.281-8.277,0.303-13.608-0.544c-4.567-0.725-8.44-1.901-11.499-3.062c3.191,2.118,9.734,5.841,18.847,6.804
		c7.825,0.828,14.11-0.742,17.623-1.905c-2.478-0.519-5.412-1.352-8.573-2.721c-1.951-0.845-3.675-1.758-5.171-2.654
		c1.056,0.315,2.959,0.732,5.307,0.408c2.078-0.286,3.641-1.035,4.559-1.565C276.332,142.045,274.62,141.995,272.908,141.943"/>
	<path clip-path="url(#SVGID_7_)" fill="#484443" d="M229.837,154.275c0.108,2.252-0.013,5.694-1.327,9.594
		c-1.974,5.858-5.556,9.534-7.45,11.226c1.277-0.48,5.559-2.27,8.165-6.94C232.841,161.676,230.189,155.106,229.837,154.275"/>
	<path clip-path="url(#SVGID_7_)" fill="#484443" d="M224.734,162.236c-0.673,1.66-1.698,3.738-3.266,5.92
		c-1.791,2.492-3.695,4.288-5.205,5.511c0.962-0.19,3.64-0.853,5.817-3.266C225.103,167.051,224.798,162.944,224.734,162.236"/>
	<path clip-path="url(#SVGID_7_)" fill="#484443" d="M286.414,161.215c-0.07,0.741-0.133,1.973,0.068,3.47
		c0.296,2.202,0.914,3.124,1.225,5.307c0.12,0.842,0.233,2.147,0.068,3.811c0.081-2.208,0.142-4.326,0.204-6.6
		c0.031-1.14,0.053-2.386-0.476-3.879C287.171,162.392,286.739,161.682,286.414,161.215"/>
	<path clip-path="url(#SVGID_7_)" fill="#BC956B" d="M223.52,199.869c-0.727,0.881-1.931,1.179-2.583,1.34
		c-2.363,0.582-4.347-0.405-4.88-0.67c-1.856-0.924-3.208-3.435-5.837-8.421c-0.752-1.426-1.49-3.151-2.966-6.602
		c-0.912-2.131-1.375-3.317-1.053-4.784c0.049-0.223,0.583-2.515,2.201-3.062c1.77-0.599,3.78,1.248,6.315,3.636
		c1.773,1.67,3.807,3.618,5.837,7.081C222.066,190.967,225.72,197.2,223.52,199.869"/>
	<path clip-path="url(#SVGID_7_)" fill="#FFFFFF" d="M243.767,189.923c1.344,0.872,4.322,1.65,6.619,1.688
		c5.569-0.514,7.652-6.063,7.652-6.063c-0.282-0.132-1.24-0.368-2.561-0.667c-2.586-0.588-6.573-1.398-9.682-2.004
		c-2.612-0.519-4.607-0.905-4.607-0.905S239.75,187.083,243.767,189.923"/>
	<path clip-path="url(#SVGID_7_)" fill="#3F2E20" d="M249.117,189.268c0.244,0.072,0.494,0.125,0.741,0.16
		c0.047,0.001,0.085,0.005,0.124,0.017c0.018-0.003,0.038,0.003,0.056,0c0.075,0.007,0.142,0.015,0.207,0.014
		c0.055,0,0.103,0.011,0.15,0.013c2.21,0.044,4.249-1.38,4.896-3.604c0.095-0.331,0.155-0.656,0.185-0.987
		c-2.585-0.588-6.573-1.397-9.682-2.004c-0.006,0.02-0.014,0.03-0.02,0.05c-0.019,0.05-0.038,0.108-0.056,0.167
		c-0.013,0.039-0.026,0.069-0.03,0.107C244.993,185.813,246.505,188.517,249.117,189.268"/>
	<path clip-path="url(#SVGID_7_)" fill="#FFFFFF" d="M272.03,193.539c1.039,0.678,3.446,1.402,5.15,1.43
		c0.009-0.012,0.009-0.012,0.01-0.002c4.745-0.224,6.617-4.893,6.617-4.893c-0.279-0.128-1.361-0.417-2.818-0.77
		c-2.331-0.576-5.602-1.305-7.989-1.832c-1.796-0.399-3.096-0.68-3.096-0.68S268.57,191.125,272.03,193.539"/>
	<path clip-path="url(#SVGID_7_)" fill="#3F2E20" d="M276.646,193.501c0.24,0.026,0.477,0.029,0.713,0.02
		c0.048,0.006,0.083,0.001,0.118-0.004c0.023-0.003,0.034-0.005,0.059,0.004l0.326-0.045c2.008-0.288,3.659-1.876,3.975-3.967
		c-2.646-0.654-6.358-1.481-9.067-2.079c-0.034,0.016-0.057,0.019-0.078,0.034c-0.065,0.222-0.119,0.431-0.147,0.659
		c-0.015,0.062-0.02,0.11-0.024,0.169c-0.006,0.037-0.013,0.073-0.009,0.108C272.268,190.932,274.106,193.2,276.646,193.501"/>
	<path clip-path="url(#SVGID_7_)" d="M263.839,212.486c3.073,2.433,6.837,3.537,10.279,3.007c-1.701-0.234-3.351-0.823-4.836-1.707
		c-1.486-0.88-2.803-2.058-3.882-3.411c-0.497-0.622-1.311-0.716-1.819-0.208C262.972,210.756,263.109,211.952,263.839,212.486"/>
	<path clip-path="url(#SVGID_7_)" d="M259.324,209.211c-3.038,2.363-7.367,4.314-11.275,3.87c3.958,1.506,8.857,0.491,12.819-1.237
		C262.93,210.854,261.198,207.895,259.324,209.211"/>
	<path clip-path="url(#SVGID_7_)" fill="#652B28" d="M250.993,216.661c3.175,1.745,7.903,2.775,9.335,3.06
		c0.218,0.044,0.414-0.131,0.402-0.353l-0.123-2.278c-0.01-0.185-0.164-0.328-0.349-0.322c-1.241,0.044-5.726,0.131-9.02-0.735
		C250.847,215.931,250.639,216.466,250.993,216.661"/>
	<path clip-path="url(#SVGID_7_)" fill="#542525" d="M269.746,180.465c0,0,4.269-0.341,5.565-0.358
		c1.607-0.021,5.936-0.079,8.386,2.714c1.633,1.864,1.586,4.032,1.828,3.986c0.344-0.066,0.933-4.557-1.636-8.23
		c-2.582-3.691-6.791-4.324-8.282-4.548c-1.808-0.272-4.654,0.085-4.654,0.085L269.746,180.465z"/>
	<path clip-path="url(#SVGID_7_)" fill="#542525" d="M261.233,172.062c-0.764,2.365-1.406,3.942-2.169,6.307
		c-1.845-0.944-3.882-1.615-6.882-2.588c-2.071-0.671-4.433-1.437-7.179-1.142c-5.03,0.54-8.31,4.312-9.405,5.703
		c0.164-1.203,0.749-4.29,3.271-7.08c0.555-0.613,2.458-2.599,5.628-3.649c2.964-0.981,5.41-0.605,8.314-0.159
		C254.821,169.761,257.813,170.435,261.233,172.062"/>
	<path clip-path="url(#SVGID_7_)" fill="#987957" d="M265.99,184.921c1.198,5.064,2.856,9.916,4.493,14.847
		c1.243,4.156-2.325,8.364-6.632,7.751c-1.307-0.208-2.535-0.795-3.495-1.663c1.039,0.763,2.268,1.273,3.528,1.377
		c2.518,0.259,5.016-1.356,5.922-3.684c0.961-2.447-0.334-4.949-1.07-7.31C267.517,192.549,266.604,188.757,265.99,184.921"/>
	<path clip-path="url(#SVGID_7_)" fill="#7A6F71" d="M441.259,402.905c-1.652-0.013-3.222-0.976-3.931-2.585
		c-17.031-38.691-40.8-73.435-70.645-103.263c-31.601-31.582-68.594-56.286-109.953-73.425c-2.209-0.916-3.257-3.448-2.342-5.656
		s3.448-3.256,5.655-2.341c42.414,17.576,80.351,42.91,112.759,75.299c30.607,30.59,54.982,66.219,72.449,105.898
		c0.963,2.188-0.03,4.741-2.219,5.705C442.455,402.792,441.852,402.91,441.259,402.905"/>
	<path clip-path="url(#SVGID_7_)" fill="#CCA279" d="M264.387,218.866c0.745-0.252,2.862-0.938,5.6-0.674
		c0.322,0.035,0.627,0.076,0.908,0.117c-0.451-0.012-0.938-0.006-1.477,0.018c-1.648,0.076-4.116,0.369-7.024,1.401
		C262.846,219.487,263.526,219.159,264.387,218.866 M269.887,221.622c-3.277-0.294-5.91,0.65-7.323,1.289
		c0.34-0.193,0.792-0.422,1.337-0.65c0,0,1.055-0.44,2.128-0.675c1.982-0.428,3.952-0.123,4.708,0
		c0.234,0.041,0.463,0.082,0.686,0.129C270.667,221.627,270.092,221.622,269.887,221.622 M277.925,221.721
		c-0.545-1.307-1.87-2.099-2.674-2.48c-0.17-0.082-0.31-0.14-0.422-0.187c-0.434-0.176-1.008-0.381-1.8-0.528
		c1.667-1.624-4.362-2.861-4.362-2.861c-1.712-0.487-4.995-0.393-8.976,0.105c-1.055,0.135-5.308,0.81-7.967,2.398
		c-2.289,1.367-4.614,8.537-5.388,11.21c-1.167,4.057-3.067,6.86-4.304,8.683c-1.624,2.392-3.248,4.157-4.567,5.441
		c-0.551,0.539-1.043,0.997-1.466,1.378c-0.046,0.041-0.093,0.082-0.134,0.117c-3.729,3.371-6.62,3.981-7.27,4.948
		c1.864,0.586,11.362-2.216,15.771,2.345c0.052,0.053,0.099,0.106,0.146,0.159c1.044,1.143,1.554,2.462,1.941,3.423
		c0.299-0.814,0.668-1.694,1.126-2.62c0.07-0.141,0.199-0.551,0.381-1.132c0.011-0.029,0.017-0.058,0.029-0.094
		c0.862-2.779,3.629-9.199,4.731-9.925c0.604-0.399,1.12-0.405,2.469-1.173c1.184-0.674,1.975-1.354,2.409-1.735
		c3.641-3.149,4.052-7.13,7.528-8.59c0.727-0.304,1.331-0.451,1.888-0.504c2.521-0.246,3.893,0.622,6.525,0.141
		c0.481-0.088,0.862-0.199,1.073-0.27c0.059-0.017,0.276-0.105,0.417-0.346c0.129-0.217,0.105-0.434,0.099-0.498
		c-0.017-0.035-0.041-0.076-0.064-0.117c-0.1-0.176-0.241-0.405-0.44-0.639c-0.504-0.592-1.143-1.167-2.498-1.595
		c1.513,0.416,3.87,1.085,4.65,0.95c0.68-0.117,0.967-0.516,0.967-0.516c0.018-0.024,0.029-0.047,0.041-0.059
		c0.323-0.51-0.135-1.483-0.217-1.653c-0.176-0.364-0.61-1.278-1.542-2.058c0.071,0.035,0.141,0.076,0.205,0.111
		c0.833,0.112,1.554-0.14,1.777-0.592c0.117-0.234,0.123-0.504,0.123-0.504C278.118,222.19,278.007,221.915,277.925,221.721
		 M267.659,226.218c1.665-0.176,2.902,0.147,3.705,0.352C270.42,226.37,269.154,226.324,267.659,226.218"/>
	<path clip-path="url(#SVGID_7_)" fill="#BC956B" d="M271.364,226.57c-0.944-0.199-2.21-0.246-3.705-0.352
		C269.324,226.042,270.561,226.365,271.364,226.57"/>
	<path clip-path="url(#SVGID_7_)" fill="#BC956B" d="M271.423,221.715c-0.756-0.088-1.331-0.094-1.536-0.094
		c-3.277-0.293-5.91,0.651-7.323,1.29c0.34-0.193,0.792-0.422,1.337-0.651c0,0,1.055-0.439,2.128-0.674
		c1.982-0.428,3.952-0.123,4.708,0C270.972,221.627,271.2,221.668,271.423,221.715"/>
	<path clip-path="url(#SVGID_7_)" fill="#BC956B" d="M270.896,218.309c-0.451-0.012-0.938-0.006-1.477,0.018
		c-1.648,0.076-4.116,0.369-7.024,1.401c0.451-0.241,1.131-0.569,1.993-0.862c0.745-0.252,2.861-0.938,5.599-0.674
		C270.309,218.227,270.614,218.268,270.896,218.309"/>
	<path clip-path="url(#SVGID_7_)" fill="#BC956B" d="M275.028,229.625c-0.141,0.24-0.358,0.328-0.416,0.346
		c-0.211,0.07-0.592,0.182-1.073,0.27c-2.632,0.48-4.004-0.387-6.525-0.141c-0.557,0.053-1.161,0.199-1.888,0.504
		c-3.477,1.46-3.887,5.441-7.528,8.589c-0.434,0.381-1.226,1.061-2.41,1.736c-1.348,0.768-1.864,0.774-2.468,1.172
		c-1.114,0.733-3.934,7.294-4.761,10.02c-0.182,0.58-0.311,0.991-0.381,1.131c-0.457,0.927-0.827,1.806-1.126,2.621
		c-0.387-0.961-0.897-2.28-1.94-3.424c0.498-1.161,1.284-2.755,2.316-4.831c1.993-4.016,3.013-6.039,4.192-6.983
		c2.403-1.923,3.91-1.19,5.991-3.494c1.238-1.372,0.979-1.935,2.592-3.84c1.096-1.296,2.181-2.574,3.893-3.342
		c2.064-0.932,5.188-1.208,7.786-0.504c0.703,0.193,2.034,0.639,3.189,0c0.24-0.129,0.434-0.287,0.592-0.446
		c0.024,0.041,0.047,0.083,0.065,0.118C275.135,229.19,275.158,229.407,275.028,229.625"/>
	<path clip-path="url(#SVGID_7_)" fill="#5190B7" d="M247.989,252.026c-0.012,0.035-0.018,0.065-0.029,0.094
		c-0.182,0.58,0.099,1.523,0.029,1.664c-0.457,0.926-1.136,2.846-1.435,3.661c-0.387-0.961-1.181-2.657-2.225-3.8
		c-0.047-0.053-3.035-0.455-3.088-0.507c-4.409-4.562-12.648-0.718-13.442-3.451c0.65-0.968,3.481-1.255,7.21-4.626
		c0.041-0.035,0.725-0.457,0.772-0.498c0.422-0.381,1.133-0.522,1.684-1.062C242.589,247.095,244.952,249.405,247.989,252.026"/>
</g>
</svg>
