<?xml version="1.0" encoding="utf-8"?>
<!-- Generator: Adobe Illustrator 16.0.0, SVG Export Plug-In . SVG Version: 6.00 Build 0)  -->
<!DOCTYPE svg PUBLIC "-//W3C//DTD SVG 1.1//EN" "http://www.w3.org/Graphics/SVG/1.1/DTD/svg11.dtd">
<svg version="1.1" id="Layer_1" xmlns="http://www.w3.org/2000/svg" xmlns:xlink="http://www.w3.org/1999/xlink" x="0px" y="0px"
	 width="818px" height="734px" viewBox="0 0 818 734" enable-background="new 0 0 818 734" xml:space="preserve">
<g>
	<defs>
		<rect id="SVGID_1_" x="-91" y="-169" width="1000" height="1000"/>
	</defs>
	<clipPath id="SVGID_2_">
		<use xlink:href="#SVGID_1_"  overflow="visible"/>
	</clipPath>
	<path clip-path="url(#SVGID_2_)" fill="#E3F4FF" d="M259.946,192.771c-9.383,9.059-18.195,19.568-23.985,30.284
		c-12.167,22.517-13.167,54.663-9.507,79.247c2.527,16.987,13.54,40.572,8.133,57.76c-7.327,23.288-45.917,22.338-64.746,28.17
		c-17.306,5.359-33.72,18.54-42.545,34.59c-27.079,49.228,5.49,75.605,21.779,97.617c18.52,25.029-21.83,55.291,1.345,80.264
		c24.235,26.11,53.423,36.959,101.873,36.959c95.989,0,117.485,7.535,250.509-1.895c25.202-1.786,58.784-7.535,83.905-10.23
		c37.917-4.072,131.446-37.016,107.041-99.323c-18.058-46.104-112.876-39.014-81.098-102.031
		c20.782-41.216,59.858-98.425,11.267-134.842c-35.283-26.442-57.871-41.628-78.345-81.612
		c-22.42-43.774-53.877-67.489-103.402-71.656c-26.806-2.255-53.97-2.044-80.31,3.932c-32.124,7.285-63.868,21.211-89.615,41.921
		C268.173,185.201,264.005,188.852,259.946,192.771"/>
	<path clip-path="url(#SVGID_2_)" fill="#BDDEEF" d="M592.856,461.677c0.423-5.203,0.528-10.306-0.372-15.461
		c-1.873-10.735-6.924-21.013-13.475-29.662c-6.166-8.14-11.952-12.987-20.463-18.88c-11.61-8.038-26.349-9.857-40.132-10.735
		c-10.728-0.68-21.629-0.494-32.378-0.028c-4.104,0.177-8.213,0.508-12.292,0.786c-1.806,0.123-3.544-0.282-5.234,0.387
		c2.132,1.001,4.185,2.958,6.012,4.588c4.823,4.306,8.439,10.551,12.204,15.749c4.713,6.508,8.752,13.317,13.831,19.599
		c8.879,10.991,22.235,20.359,36.488,22.587c13.019,2.035,27.932-1.313,40.041,5.069c0,0,12.065,6.435,14.005,28.615
		L592.856,461.677z"/>
	<path clip-path="url(#SVGID_2_)" fill="#BDDEEF" d="M616.367,397.185c13.538-14.627,35.352-17.093,52.99-24.759
		c11.623-5.051,24.002-12.736,31.733-22.986c-2.687,13.876-0.79,28.9-2.462,43.153c-1.535,13.086-7.034,24.697-16.581,33.881
		c-18.157,17.47-47.783,11.67-64.531,30.954c-7.681,8.845-10.397,22.365-13.172,32.624c-0.054-10.912-1.294-23.819-1.439-27.739
		C602.905,462.313,597.358,417.617,616.367,397.185"/>
	<path clip-path="url(#SVGID_2_)" fill="#99CCE0" d="M594.376,423.794c-3.111-11.866-13.352-25.943-22.261-34.097
		c-9.535-8.726-21.099-10.697-32.103-16.605c-5.803-3.117-10.642-7.308-12.51-13.87c-5.159-18.128,0.682-37.544,1.743-55.869
		c0.596-10.253,1.311-19.913-2.189-29.417c0.537,1.451,7.71,4.644,9.224,5.691c2.83,1.96,5.562,4.046,8.432,5.945
		c13.46,8.91,28.613,14.685,39.302,27.343c9.186,10.875,15.275,24.859,18.45,38.652c1.723,7.487,2.732,15.359,2.997,23.041
		c0.352,10.282-0.866,21.544-3.361,31.521c-2.32,9.274-2.152,22.987-3.898,32.262L594.376,423.794z"/>
	<path clip-path="url(#SVGID_2_)" fill="#99CCE0" d="M567.294,339.196c5.658,12.853,11.503,26.749,16.312,40.096
		c4.807,13.342,8.573,26.144,10.083,36.732l0.004,0.023c3.05,19.046,3.057,39.72,3.056,59.692c0,7.668-0.769,127.654-0.769,134.581
		c0,0.803,0.649,1.455,1.453,1.455c0.803,0,1.452-0.652,1.452-1.455c0-6.898,0.77-126.884,0.77-134.581
		c-0.001-19.976,0.006-40.786-3.092-60.152l-1.436,0.23l1.439-0.206c-1.564-10.921-5.385-23.857-10.228-37.305
		c-4.844-13.447-10.712-27.397-16.384-40.282c-0.325-0.734-1.182-1.067-1.917-0.744
		C567.305,337.605,566.972,338.462,567.294,339.196"/>
	<path clip-path="url(#SVGID_2_)" fill="#99CCE0" d="M524.416,410.082c10.892,1.724,22.92,4.621,33.426,9.729
		c10.514,5.113,19.461,12.394,24.444,22.89c3.175,6.683,5.649,14.962,6.523,22.298c0.153,1.264,0.294,4.313,0.401,8.565
		c0.33,12.791,0.427,36.791,0.427,61.171c0,34.268-0.19,69.299-0.19,75.201c0,0.805,0.65,1.455,1.453,1.455s1.454-0.65,1.454-1.455
		c0-5.879,0.189-40.928,0.189-75.201c0-16.261-0.043-32.348-0.169-45.073c-0.063-6.363-0.146-11.885-0.256-16.172
		c-0.113-4.3-0.244-7.318-0.423-8.838c-0.925-7.71-3.469-16.208-6.784-23.197c-5.354-11.271-14.911-18.966-25.8-24.258
		c-10.901-5.296-23.18-8.231-34.242-9.987c-0.791-0.124-1.536,0.416-1.663,1.209C523.082,409.211,523.623,409.957,524.416,410.082
		L524.416,410.082z"/>
	<path clip-path="url(#SVGID_2_)" fill="#99CCE0" d="M605.799,610.321c0-4.435-0.049-16.902-0.049-32.991
		c0-21.254,0.084-48.822,0.475-72.497c0.194-11.838,0.466-22.702,0.84-31.31c0.188-4.303,0.401-8.041,0.643-11.044
		c0.241-2.999,0.516-5.287,0.796-6.586c3.388-15.831,11.015-30.223,22.938-41.624c11.926-11.396,28.16-19.816,48.853-23.617
		c0.79-0.145,1.312-0.9,1.168-1.69c-0.146-0.79-0.904-1.313-1.692-1.168c-21.176,3.883-37.976,12.555-50.337,24.375
		c-12.366,11.817-20.278,26.767-23.771,43.117c-0.334,1.562-0.604,3.896-0.852,6.96c-0.857,10.695-1.346,30.135-1.625,51.59
		c-0.277,21.449-0.341,44.891-0.341,63.494c0,16.094,0.047,28.569,0.047,32.991c0,0.803,0.65,1.454,1.454,1.454
		S605.799,611.124,605.799,610.321"/>
	<path clip-path="url(#SVGID_2_)" fill="#BDDEEF" d="M538.718,583.034c5.022-0.453,10.027,1.376,9.468,7.115
		c11.838-4.36,19.8,6.386,19.8,14.271H280.814c-11.327-13.401,7.963-38.693,21.943-31.659c-2.405-8.763,6.052-14.47,11.579-11.989
		c-0.695,0.488,3.003-11.895,14.594-7.143c-0.3-12.155,9.788-15.617,19.065-9.665c1.236-10.094,15.515-19.23,22.062-7.888
		c-0.228-15.332,19.989-17.682,22.857-2.382c4.178-4.492,9.893-1.101,10.529,4.417c3.684-4.998,7.962-4.422,11.391,0.231
		c-10.029-25.167,28.19-32.836,29.827-9.615c5.911-9.782,18.765-3.691,16.38,5.797c5.462-4.908,13.967-2.524,13.007,5.942
		c7.594-8.063,26.982-8.455,28.274,8.526c4.511-4.938,10.493-3.545,11.738,3.447c6.733-0.848,12.022,2.038,10.566,9.444
		c3.114,0.224,7.469-0.063,8.59,7.497C533.217,569.382,543.575,571.888,538.718,583.034"/>
	<path clip-path="url(#SVGID_2_)" fill="#BDDEEF" d="M159.202,604.42c-5.134-19.578,24.487-30.469,32.481-11.216
		c-0.389-7.159-2.822-15.226,5.95-19.331c8.72-4.088,15.23,3.109,18.903,9.257c-9.927-16.745-5.569-37.558,17.32-43.201
		c24.393-6.016,36.398,6.49,36.98,31.752c1.695-11.599,22.994-14.089,24.223,2.369c8.933-3.076,10.339-11.94,22.866-10.777
		c11.063,1.031,16.289,8.118,20.533,17.964c0,0,25.362,0.87,19.548,23.184H159.202z"/>
	<path clip-path="url(#SVGID_2_)" fill="#99CCE0" d="M672.805,619.24c0,18.379-122.744,33.277-274.154,33.277
		c-151.408,0-274.153-14.898-274.153-33.277c0-18.381,122.745-33.278,274.153-33.278
		C550.061,585.962,672.805,600.859,672.805,619.24"/>
	<path clip-path="url(#SVGID_2_)" fill="#FBAAD5" d="M359.316,301.492c0.547-1.073,1.08-2.146,1.592-3.233
		c0.793-1.298,1.641-2.56,2.567-3.767c0.344-0.456,0.702-0.898,1.066-1.332l-1.353,2.16L359.316,301.492z"/>
	<path clip-path="url(#SVGID_2_)" fill="#DB8FBA" d="M357.675,308.702c1.087-1.775,2.273-3.479,3.612-5.064l-5.218,8.332
		C356.623,310.89,357.156,309.796,357.675,308.702"/>
	<path clip-path="url(#SVGID_2_)" fill="#CCA279" d="M350.907,590.127c1.352,4.325,0.015,9.116-2.401,12.949
		c-2.417,3.833-5.822,6.919-9.048,10.1c-3.227,3.183-6.381,6.607-8.091,10.804c-0.574,1.409-0.934,3.147-0.005,4.353
		c0.88,1.141,2.522,1.297,3.962,1.252c6.924-0.215,13.609-2.845,19.466-6.545c3.334-2.107,6.446-2.77,8.062-6.368
		c1.476-3.287,1.558-8.967,1.499-12.569c-0.055-3.354-0.11-6.708-0.165-10.062c-0.015-0.897-0.079-1.908-0.754-2.501
		c-0.473-0.417-1.138-0.52-1.763-0.605c-3.678-0.505-7.357-1.009-11.036-1.513"/>
	<path clip-path="url(#SVGID_2_)" fill="#CCA279" d="M415.019,590.127c-1.353,4.325-0.016,9.116,2.401,12.949
		c2.416,3.833,5.821,6.919,9.047,10.1c3.228,3.183,6.381,6.607,8.092,10.804c0.573,1.409,0.934,3.147,0.005,4.353
		c-0.88,1.141-2.522,1.297-3.962,1.252c-6.925-0.215-13.609-2.845-19.467-6.545c-3.334-2.107-6.445-2.77-8.062-6.368
		c-1.476-3.287-1.558-8.967-1.499-12.569c0.055-3.354,0.109-6.708,0.165-10.062c0.015-0.897,0.079-1.908,0.754-2.501
		c0.474-0.417,1.138-0.52,1.763-0.605c3.678-0.505,7.357-1.009,11.036-1.513"/>
	<path clip-path="url(#SVGID_2_)" fill="#DDDDDD" d="M379.392,499.539c-0.175,3.114-0.372,6.256-0.596,9.434
		c-2.322,33.015-6.923,62.746-12.337,88.627h-18.58c-9.279-23.125-20.214-59.273-19.583-104.093c0.014-1.143,0.042-2.271,0.07-3.401
		c0.568-20.888,3.556-39.207,7.148-54.309l44.313-1.031C380.669,454.524,380.703,476.211,379.392,499.539"/>
	<path clip-path="url(#SVGID_2_)" fill="#DDDDDD" d="M418.179,597.6h-18.573c-5.421-25.881-10.016-55.613-12.344-88.627
		c-0.225-3.212-0.428-6.404-0.596-9.56c-1.306-23.272-1.271-44.925-0.436-64.646c14.777,0.343,29.549,0.688,44.32,1.031
		c3.472,14.574,6.368,32.15,7.069,52.141c0.064,1.837,0.113,3.696,0.142,5.569C438.393,538.326,427.465,574.475,418.179,597.6"/>
	<path clip-path="url(#SVGID_2_)" fill="#C6C6C6" d="M379.826,434.767c0.843,19.758,0.877,41.444-0.435,64.772
		c-20.642-0.126-38.029-4.58-51.026-9.434c0.568-20.888,3.556-39.207,7.148-54.309L379.826,434.767z"/>
	<path clip-path="url(#SVGID_2_)" fill="#C6C6C6" d="M437.621,487.938c-13.333,5.59-30.58,10.591-50.957,11.475
		c-1.303-23.271-1.268-44.924-0.434-64.646c14.778,0.344,29.549,0.687,44.32,1.03C434.022,450.372,436.92,467.949,437.621,487.938"
		/>
	<polygon clip-path="url(#SVGID_2_)" fill="#79ACCC" points="370.85,275.891 372.045,270.485 377.1,266.608 398.415,266.608 
		402.627,270.671 402.627,275.771 	"/>
	<path clip-path="url(#SVGID_2_)" fill="#5190B7" d="M450.447,463.926c2.251,4.131,0.741,9.311-3.384,11.572
		c-14.251,7.812-28.96,15.751-61.396,16.467c-31.758,0.701-56.562-8.493-70.735-15.27c-3.577-1.712-5.495-5.651-4.664-9.529
		c5.213-24.33,16.211-59.242,19.941-74.464v-0.004c0.564-2.3,1.115-4.521,1.661-6.673c0.607-2.398,1.803-7.01,1.813-7.053
		c6.108-25.339-4.81-78.704-4.413-88.506c0.249-6.145,10.135-15.684,45.957-15.511c2.919-1.427,5.726-2.33,8.246-2.894
		c3.476-0.785,6.403-0.932,8.323-0.932c7.084,0,12.598,1.991,15.765,3.444c0.291,0.13,0.56,0.26,0.812,0.382
		c17.712,20.253,23.798,36.385,24.95,48.74c0.344,3.665,0.257,6.997-0.095,10.007c-0.425,3.67-1.267,7.123-2.156,11.113
		c-0.013,0.048-0.025,0.1-0.035,0.151c-0.095,0.452-0.198,0.916-0.299,1.384c-0.029,0.117-0.052,0.239-0.078,0.36
		c-1.105,5.206-2.19,11.43-2.528,20.136c-0.204,5.275-0.082,10.138,0.2,14.402c0.013,0.165,0.021,0.325,0.033,0.485v0.01
		c0.612,8.792,1.883,14.982,2.317,16.974C434.418,416.071,442.325,449.021,450.447,463.926"/>
	<path clip-path="url(#SVGID_2_)" fill="#5190B7" d="M469.771,272.899c-0.508,8.35-2.746,14.48-3.274,15.894
		c-1.923,5.136-4.403,9.213-7.054,13.022c-0.959,1.384-1.938,2.733-2.92,4.082c-7.162,9.851-13.213,15.191-15.451,18.076
		c-4.489,5.782-7.859,11.551-9.999,20.843c-0.013,0.048-0.025,0.1-0.035,0.152c-0.104,0.451-0.202,0.915-0.299,1.384
		c-0.029,0.117-0.052,0.238-0.078,0.36c-1.66,8.197-2.446,19.047-2.299,34.623c0,0.136,0.004,0.266,0.004,0.399v0.009
		c-12.688-8.237-16.244-38.472-31.267-71.379c-6.489-14.224-9.539-27.467-11.001-37.991c2.009-0.356,5.145-0.737,8.941-0.373
		c3.113,0.295,5.326,0.963,6.232,1.215c0.503,0.138,2.989,0.893,6.29,1.357c4.373,0.608,10.168,0.707,14.666-1.813
		c7.08-3.969,11.014-11.586,11.335-19.078c0.109-2.433-0.169-4.858-0.841-7.135c-1.584-5.349-5.024-8.78-6.958-10.433
		c0.373-1.34,0.919-2.984,1.743-4.793c0.009-0.022,0.018-0.044,0.026-0.061c0.642-1.405,1.448-2.906,2.463-4.451
		c1.476-2.234,3.047-4.021,4.465-5.4c0.043-0.052,0.087-0.096,0.134-0.135c0.495-0.481,0.968-0.911,1.415-1.292
		c3.826,1.926,17.398,9.144,26.139,22.838c2.764,4.325,5.041,9.296,6.381,14.949c0.213,0.889,0.396,1.774,0.547,2.646
		C469.879,264.878,470.001,269.116,469.771,272.899"/>
	<path clip-path="url(#SVGID_2_)" fill="#BC956B" d="M403.355,274.412c-7.693,9.742-13.606,19.702-16.258,30.047
		c-3.029-12.73-8.879-22.058-16.25-29.514c0,0,1.347-1.592,2.854-3.549c0.463-0.589,0.934-1.206,1.389-1.824
		c0.428-0.582,0.836-1.157,1.207-1.711c0.266-0.4,0.504-0.778,0.723-1.136c0.091-0.147,0.182-0.295,0.252-0.435
		c0.008-0.007,0.014-0.007,0.014-0.014c0.05-0.084,0.092-0.168,0.134-0.246c0.042-0.077,0.084-0.154,0.119-0.224
		c0.21-0.414,0.379-0.954,0.519-1.578c0.226-1.045,0.358-2.315,0.436-3.612c0.21-3.43,0-7.028,0-7.028l0.85,0.028l21.461,0.715
		c0,0-0.197,2.673-0.533,6.748c-0.056,0.708-0.125,1.452-0.195,2.244c-0.021,0.344-0.057,0.701-0.085,1.059
		c-0.015,0.119-0.028,0.246-0.035,0.365c-0.077,0.849-0.063,1.655,0.021,2.406C400.452,271.747,403.355,274.412,403.355,274.412"/>
	<path clip-path="url(#SVGID_2_)" fill="#987957" d="M400.803,254.331c0,0-0.197,2.672-0.533,6.747
		c-0.055,0.709-0.125,1.452-0.195,2.245c-1.762,2.377-6.874,8.178-14.589,7.918c-4.37-0.154-7.603-2.174-9.188-3.38
		c-0.162-0.12-0.309-0.232-0.435-0.337c0.729-0.996,1.417-1.992,1.929-2.848c0.092-0.147,0.182-0.294,0.252-0.434
		c0.008-0.007,0.014-0.007,0.014-0.015c0.008-0.014,0.021-0.021,0.021-0.028c0.042-0.077,0.077-0.147,0.112-0.217
		c0.042-0.077,0.084-0.154,0.12-0.224c0.561-1.116,0.834-3.122,0.953-5.191c0.112-1.781,0.105-3.605,0.078-4.951L400.803,254.331z"
		/>
	<path clip-path="url(#SVGID_2_)" fill="#5190B7" d="M377.1,266.608c0,0-3.754,3.028-3.035,7.251
		c0.717,4.222,8.365,10.198,8.365,10.198l-3.426,13.226c0,0-14.899-13.226-6.959-26.797L377.1,266.608z"/>
	<path clip-path="url(#SVGID_2_)" fill="#5190B7" d="M382.43,284.057c0,0,7.82,19.998,4.788,45.335h-2.236
		c0,0,0.964-32.431-4.141-39.202L382.43,284.057z"/>
	<path clip-path="url(#SVGID_2_)" fill="#5190B7" d="M400.146,268.279c0,0,1.804,1.496,1.305,5.58
		c-0.52,4.251-8.365,10.198-8.365,10.198l3.426,13.226c0,0,14.122-13.226,7.377-26.182c-0.205-0.395-0.549-0.702-0.92-0.948
		L400.146,268.279z"/>
	<path clip-path="url(#SVGID_2_)" fill="#4C6580" d="M382.43,284.057c-0.813,4.183-2.191,9.856-3.17,14.048
		c-7.589-6.52-13.502-18.368-7.214-27.619c-5.032,9.222,0.362,19.857,7.247,26.47l-0.713,0.217
		C379.671,293.288,381.209,287.844,382.43,284.057"/>
	<path clip-path="url(#SVGID_2_)" fill="#4C6580" d="M393.086,284.057c1.382,4.344,2.621,8.728,3.847,13.117l-0.719-0.209
		c1.739-1.766,3.319-3.757,4.688-5.843c3.963-5.844,6.217-13.733,2.736-20.308c-0.18-0.254-0.415-0.471-0.669-0.661
		c0.272,0.161,0.534,0.353,0.75,0.596c5.711,9.004-0.015,20.244-6.91,26.852l-0.542,0.516
		C395.14,293.446,394.039,288.768,393.086,284.057"/>
	<path clip-path="url(#SVGID_2_)" fill="#4C6580" d="M384.379,331.191l3.53-0.302l-0.104,0.105
		c0.322-12.121,1.064-24.454,4.559-36.13c0.594-1.631,1.203-3.315,2.311-4.674c-0.924,1.474-1.422,3.146-1.862,4.809
		c-2.785,11.799-3.479,23.978-4.785,36.006l-0.01,0.103l-0.095,0.002L384.379,331.191z"/>
	<path clip-path="url(#SVGID_2_)" fill="#4080A0" d="M459.442,301.815c-0.959,1.384-1.939,2.733-2.919,4.082
		c-7.162,9.851-13.213,15.191-15.452,18.076c-4.489,5.782-7.86,11.551-9.998,20.843c-0.013,0.048-0.026,0.1-0.035,0.152
		c-0.096,0.451-0.2,0.915-0.299,1.384c-0.031,0.117-0.052,0.238-0.078,0.36c-1.662,8.197-2.447,19.047-2.3,34.624
		c-0.008-0.03-0.021-0.057-0.03-0.088c-2.104-5.873-3.683-11.933-4.707-18.088c-1.618-9.733-1.769-20.11,2.412-29.046
		c1.827-3.905,4.351-7.31,7.288-10.42C440.963,315.605,451.369,309.51,459.442,301.815"/>
	<path clip-path="url(#SVGID_2_)" fill="#111010" d="M414.781,244.53c-0.409,1.345-1.237,3.447-2.961,5.551
		c-2.296,2.805-4.977,4.137-6.383,4.719c1.086-1.478,2.234-3.234,3.33-5.274c1.335-2.488,2.281-4.823,2.96-6.846
		C412.746,243.296,413.763,243.913,414.781,244.53"/>
	<path clip-path="url(#SVGID_2_)" fill="#BC956B" d="M391.027,269.677c-1.598,0.869-4.791,2.296-8.752,1.915
		c-2.729-0.263-5.586-1.391-9.224-4.429c-8.245-6.888-11.71-16.272-14.483-24.044c-0.839-2.354-2.908-8.453-4.23-16.722
		c-1.586-9.92-1.513-14.249-1.599-18.314c-0.021-0.985,1.08-6.7,1.725-7.463c8.742-10.349,36.377-4.646,36.382-4.615
		c0,0.002-0.073,0.016-0.157,0.031c2.295,0.412,8.646-2.271,11.463-1.232c3.414,1.259,3.367,6.424,6.887,9.104
		C429.623,216.953,410.452,259.872,391.027,269.677"/>
	<path clip-path="url(#SVGID_2_)" fill="#111010" d="M411.666,237.745c2.094-2.571,4.191-5.162,6.291-7.772
		c1.442-1.791,2.875-3.58,4.299-5.365c2.141-2.681,3.6-5.874,4.005-9.28c0.035-0.294,0.063-0.593,0.085-0.898
		c0.216-3.046-0.373-5.307-1.11-8.141c-1.129-4.341-2.736-7.35-3.7-9.129c-2.125-3.918-3.867-5.739-4.688-6.538
		c-2.643-2.571-4.226-2.816-5.059-2.837c-1.353-0.034-2.443,0.482-3.084,0.864c-0.684-1.767-2.234-5.054-5.551-7.895
		c-3.873-3.319-7.96-4.149-9.498-4.441c-4.686-0.891-9.908,0.845-20.354,4.317c-4.91,1.632-7.253,2.655-9.747,4.441
		c-4.571,3.275-6.134,6.603-6.538,7.525c-0.536,1.225-0.824,2.311-0.987,3.084c-1.241,0.919-3.189,2.611-4.687,5.304
		c-2.035,3.658-2.09,7.091-2.097,9.005c-0.007,1.736,0.187,3.758,2.837,11.843c0.798,2.436,1.905,5.683,3.331,9.498
		c-1.495-5.526-1.195-9.663-0.617-12.459c0.448-2.169,0.988-3.17,1.85-7.401c0.753-3.696,0.999-6.159,1.11-7.772
		c0.122-1.748,0.137-3.227,0.124-4.317c1.469,0.653,3.76,1.539,6.661,2.097c5.524,1.062,9.949,0.3,22.575-2.591
		c5.021-1.15,9.431-2.199,13.076-3.084c-0.679,2.265-2.364,8.96,0.37,16.777c2.9,8.296,8.928,12.562,10.854,13.816
		C411.501,230.179,411.584,233.962,411.666,237.745"/>
	<path clip-path="url(#SVGID_2_)" fill="#484443" d="M366.856,190.792c1.066-0.033,2.226-0.123,3.462-0.3
		c2.4-0.342,4.48-0.923,6.19-1.536c-0.927,1.36-2.333,3.084-4.379,4.688c-1.108,0.869-2.187,1.531-3.146,2.035
		c3.278,0.254,7.504,0.275,12.336-0.493c4.14-0.658,7.65-1.723,10.424-2.776c-2.893,1.92-8.824,5.295-17.085,6.168
		c-7.093,0.75-12.79-0.673-15.975-1.727c2.246-0.47,4.906-1.226,7.771-2.467c1.769-0.766,3.332-1.593,4.688-2.405
		c-0.957,0.285-2.683,0.663-4.811,0.37c-1.884-0.26-3.301-0.939-4.132-1.419C363.752,190.885,365.304,190.838,366.856,190.792"/>
	<path clip-path="url(#SVGID_2_)" fill="#484443" d="M402.504,207.834c0.537,1.635,1.462,4.096,2.935,6.734
		c2.212,3.963,4.447,6.149,5.564,7.124c-0.584-0.182-2.589-0.921-4.726-3.947C403.313,213.547,402.59,208.478,402.504,207.834"/>
	<path clip-path="url(#SVGID_2_)" fill="#484443" d="M410.525,209.188c0.61,1.505,1.539,3.388,2.961,5.366
		c1.624,2.26,3.349,3.888,4.718,4.996c-0.872-0.172-3.3-0.773-5.273-2.961C410.19,213.552,410.467,209.83,410.525,209.188"/>
	<path clip-path="url(#SVGID_2_)" fill="#484443" d="M354.613,208.263c0.063,0.672,0.121,1.789-0.062,3.146
		c-0.268,1.995-0.828,2.831-1.11,4.811c-0.109,0.763-0.212,1.946-0.062,3.454c-0.073-2.001-0.129-3.921-0.185-5.983
		c-0.028-1.034-0.048-2.162,0.432-3.516C353.926,209.33,354.318,208.686,354.613,208.263"/>
	<path clip-path="url(#SVGID_2_)" fill="#BC956B" d="M411.626,243.302c0.659,0.799,1.75,1.068,2.342,1.214
		c2.142,0.529,3.94-0.366,4.424-0.607c1.683-0.837,2.907-3.114,5.291-7.633c0.681-1.293,1.351-2.857,2.688-5.985
		c0.826-1.932,1.247-3.006,0.955-4.337c-0.045-0.202-0.529-2.279-1.995-2.776c-1.605-0.543-3.428,1.132-5.726,3.296
		c-1.606,1.515-3.451,3.281-5.291,6.419C412.943,235.232,409.632,240.883,411.626,243.302"/>
	<path clip-path="url(#SVGID_2_)" fill="#FFFFFF" d="M394.149,235.736c-1.173-0.008-2.36,0.15-3.503,0.271
		c-0.855,0.136-1.723,0.286-2.58,0.489c-4.9-1.082-6.133-6.256-6.133-6.256c0.265-0.085,1.145-0.189,2.355-0.306
		c2.367-0.234,6.008-0.508,8.844-0.699c2.385-0.17,4.205-0.289,4.205-0.289S398.045,233.657,394.149,235.736"/>
	<path clip-path="url(#SVGID_2_)" fill="#3F2E20" d="M389.459,234.553c-0.226,0.037-0.455,0.056-0.678,0.059
		c-0.043-0.004-0.076-0.005-0.113,0.002c-0.016-0.005-0.033-0.002-0.049-0.006c-0.068-0.003-0.129-0.003-0.186-0.012
		c-0.05-0.006-0.094-0.001-0.137-0.005c-1.973-0.208-3.629-1.705-3.954-3.757c-0.048-0.306-0.064-0.603-0.054-0.9
		c2.367-0.234,6.008-0.507,8.845-0.699c0.003,0.018,0.009,0.029,0.012,0.047c0.013,0.046,0.022,0.1,0.032,0.155
		c0.007,0.036,0.016,0.064,0.014,0.098C393.519,231.939,391.869,234.177,389.459,234.553"/>
	<path clip-path="url(#SVGID_2_)" fill="#FFFFFF" d="M369.649,238.354c-0.971,0.125-1.933,0.379-2.862,0.609
		c-0.669,0.201-1.338,0.403-1.995,0.655c-0.008-0.011-0.008-0.011-0.01-0.002c-4.452-0.283-6.138-4.695-6.138-4.695
		c0.264-0.117,1.285-0.372,2.657-0.68c2.198-0.506,5.28-1.14,7.53-1.598c1.693-0.348,2.918-0.591,2.918-0.591
		S372.936,236.141,369.649,238.354"/>
	<path clip-path="url(#SVGID_2_)" fill="#3F2E20" d="M365.542,237.613c-0.199,0.018-0.395,0.018-0.59,0.007
		c-0.04,0.004-0.069-0.001-0.097-0.005c-0.02-0.003-0.029-0.004-0.05,0.002l-0.268-0.041c-1.658-0.265-3.003-1.601-3.236-3.336
		c2.198-0.505,5.28-1.139,7.53-1.598c0.027,0.014,0.046,0.017,0.064,0.03c0.05,0.184,0.092,0.358,0.112,0.547
		c0.012,0.051,0.015,0.091,0.018,0.14c0.006,0.031,0.01,0.061,0.006,0.09C369.199,235.546,367.646,237.397,365.542,237.613"/>
	<path clip-path="url(#SVGID_2_)" d="M379.374,254.248c-2.632,2.333-5.95,3.51-9.06,3.207c1.512-0.294,2.961-0.904,4.246-1.771
		c1.288-0.862,2.41-1.983,3.309-3.249c0.414-0.583,1.14-0.707,1.619-0.278C380.064,252.654,380.002,253.733,379.374,254.248"/>
	<path clip-path="url(#SVGID_2_)" d="M383.256,251.088c2.84,1.966,6.817,3.498,10.297,2.906c-3.472,1.546-7.912,0.881-11.549-0.469
		C380.107,252.74,381.512,250.002,383.256,251.088"/>
	<path clip-path="url(#SVGID_2_)" fill="#111010" d="M370.434,226.547c-2.073-0.691-3.835-0.76-4.987-0.714
		c-1.451,0.069-5.332,0.23-7.382,2.856c-1.359,1.739-1.221,3.662-1.44,3.662c-0.311-0.046-1.059-4.042,1.06-7.462
		c2.119-3.433,5.862-4.204,7.186-4.479c1.014-0.208,1.97-0.277,2.81-0.254v-0.011c0,0,2.384,0.103,3.225-0.714
		C370.905,219.43,371.563,225.084,370.434,226.547"/>
	<path clip-path="url(#SVGID_2_)" fill="#987957" d="M375.86,229.823c-0.272,3.479-0.884,6.937-1.759,10.317
		c-0.531,2.132-1.563,4.398-0.603,6.505c0.888,2.002,3.146,3.322,5.349,2.998c1.115-0.131,2.192-0.631,3.105-1.342
		c-0.797,0.85-1.867,1.456-3.037,1.732c-3.846,0.861-7.456-2.899-6.479-6.707C373.649,238.807,374.938,234.416,375.86,229.823"/>
	<path clip-path="url(#SVGID_2_)" fill="#652B28" d="M374.742,261.539c1.172-2.274,2.687-3.427,3.518-3.957
		c4.662-2.971,10.311-0.657,10.578-0.543c1.436,0.613,4.129,2.151,4.129,2.151c-1.704-0.638-5.452-1.774-10.139-0.989
		C378.957,258.849,376.188,260.517,374.742,261.539"/>
	<path clip-path="url(#SVGID_2_)" fill="#987957" d="M382.26,262.015c-0.056,0-0.111-0.025-0.158-0.076
		c-0.113-0.123-0.134-0.351-0.046-0.509c0.038-0.069,0.974-1.695,3.289-0.95c0.14,0.045,0.226,0.24,0.194,0.435
		c-0.031,0.195-0.167,0.319-0.309,0.273c-2.004-0.645-2.759,0.673-2.767,0.686C382.414,261.967,382.337,262.015,382.26,262.015"/>
	<path clip-path="url(#SVGID_2_)" fill="#CCA279" d="M436.774,221.69c-0.076-0.086-0.16-0.153-0.259-0.211
		c-1.123-0.657-8.696-5.088-9.983-5.961c0,0-0.702-0.466-1.646-1.956c-0.044-0.07-0.079-0.144-0.107-0.221
		c-0.289-0.797-2.029-5.605-2.383-6.883c-0.388-1.396-0.761-3.701-1.541-4.497c-0.78-0.795-5.26-3.909-6.032-4.286
		c-0.773-0.376-7.932-3.008-8.551-2.91c-0.62,0.097-0.414,1.091-0.414,1.091s-0.856-0.158-1.139,0.151
		c-0.178,0.192,0.062,0.737,0.268,1.119c0.135,0.252,0.162,0.544,0.083,0.819c-0.147,0.511-0.255,1.371,0.454,1.863
		c0,0-0.521,1.155,0.432,1.933c0.791,0.645,2.453,1.542,2.997,1.829c0.118,0.062,0.222,0.145,0.31,0.246
		c0.367,0.417,1.411,1.588,2.144,2.26c0.216,0.199,0.345,0.467,0.357,0.76c0.027,0.622,0.115,1.786,0.402,2.973
		c0.422,1.741,0.896,5.677,1.387,8.111c0.492,2.434,1.637,3.367,3.699,4.732c2.063,1.365,7.633,7.566,10.02,10.053
		c2.386,2.486,5.036,3.37,9.394-1.108C441.11,227.03,437.498,222.507,436.774,221.69"/>
	<path clip-path="url(#SVGID_2_)" fill="#BC956B" d="M405.523,199.809c5.818,2.771,5.172,2.385,9.568,6.927
		c-0.616-1.596-2.114-3.334-3.605-4.428C409.616,201.36,407.367,200.322,405.523,199.809"/>
	<path clip-path="url(#SVGID_2_)" fill="#BC956B" d="M405.223,197.53c2.504,1.233,5.711,2.322,8.042,3.799
		c1.301,1.101,2.68,2.461,4.001,3.548c-0.823-1.551-2.424-3.252-4.006-4.326C410.679,199.477,407.738,198.244,405.223,197.53"/>
	<path clip-path="url(#SVGID_2_)" fill="#BC956B" d="M405.857,195.857c2.487,1.091,5.674,2.396,8.099,3.54
		c1.819,1.35,3.496,2.914,5.409,4.155c-1.182-1.636-3.125-3.311-4.906-4.548C411.697,197.866,408.557,196.616,405.857,195.857"/>
	<path clip-path="url(#SVGID_2_)" fill="#5190B7" d="M462.149,242.821c-6.03,7.5-18.527,11.448-28.587,10.862
		c0.108-2.434-0.17-4.858-0.842-7.136c-1.583-5.348-5.022-8.78-6.958-10.432c0.373-1.341,0.92-2.985,1.744-4.794
		c0.009-0.021,0.018-0.043,0.026-0.06c0.642-1.406,1.449-2.907,2.464-4.451c1.475-2.234,3.045-4.021,4.464-5.401
		c0.043-0.052,0.086-0.095,0.134-0.134c0.495-0.482,0.967-0.911,1.414-1.293C439.835,221.908,453.408,229.126,462.149,242.821"/>
	<path clip-path="url(#SVGID_2_)" fill="#111010" d="M400.438,220.321c-1.13-0.78-4.439-2.85-8.31-2.1
		c-2.11,0.4-3.7,1.51-5.091,2.48c-2.01,1.41-3.399,2.94-4.27,4.05l-0.01-0.01c-0.23-0.2-4.03-3.54-3.87-6.51
		c0,0,0.94,0.99,3.319-0.42c1.111-0.75,2.121-1.29,2.921-1.68c2.06-1,3.8-1.83,6.229-1.78c2.6,0.07,4.48,1.11,5.03,1.44
		C398.897,217.301,400.037,219.471,400.438,220.321"/>
	<path clip-path="url(#SVGID_2_)" fill="#5190B7" d="M321.4,352.912c1.376,2.35,7.65,7.083,10.275,7.807
		c3.702,1.022,4.24,6.941,8.075,6.758c3.836-0.184,7.809-1.79,9.887-5.02c1.91-2.967,1.934-6.726,1.881-10.254
		c-0.244-16.261-0.789-32.517-1.633-48.757c-0.099-1.889-8.161-15.642-11.34-18.247c-2.575-0.728-4.475-2.247-6.429-0.417
		C332.117,284.782,316.216,301.492,321.4,352.912"/>
	<path clip-path="url(#SVGID_2_)" fill="#4080A0" d="M349.933,307.308c0.645,7.156,3.565,13.874,5.729,20.726
		c0.102,0.323,0.202,0.678,0.074,0.993c-0.153,0.377-0.572,0.558-0.953,0.702c-4.113,1.561-8.225,3.121-12.338,4.681
		c4.967-8.25,7.418-17.992,6.947-27.61"/>
	<path clip-path="url(#SVGID_2_)" fill="#CCA279" d="M399.154,276.158c-0.119,0.098-0.252,0.203-0.386,0.309
		c-0.694,0.562-1.557,1.262-2.335,1.472c-0.056,0.022-0.105,0.064-0.119,0.12c-0.94,3.366-3.395,6.172-5.766,8.886
		c-0.303,0.351-0.617,0.688-0.939,1.003c-0.238,0.246-0.484,0.477-0.723,0.709c-0.148,0.14-0.295,0.28-0.436,0.42
		c-1.367,1.319-2.657,2.596-3.457,4.384v0.007l-1.396,3.809l-1.802,4.93l-9.574-9.153c0.519-0.631,1.06-1.276,1.381-2.118
		c0.128-0.308,0.296-0.764,0.492-1.29l0.015-0.014c0.16-0.239,0.314-0.498,0.44-0.779c0.414-0.884,1.354-3.009,1.999-4.461
		c0.26-0.582,0.477-1.059,0.583-1.304c0.049-0.113,0.077-0.176,0.084-0.183c0-0.007,0.007-0.007,0.007-0.014
		c0.035-0.056-0.232-0.519-0.337-0.694c-0.069-0.119-0.133-0.239-0.203-0.365c-0.961-1.732-1.887-3.745-1.838-5.807v-0.106
		l0.007-0.245c0.014-0.666,0.008-1.354-0.035-2.041c0-0.007-0.007-0.021-0.007-0.028c-0.133-1.908-0.603-3.781-1.971-5.078
		c-0.161-0.147-0.337-0.302-0.519-0.449c-0.652-0.561-1.326-1.129-1.285-1.901c0.037-0.75,0.828-1.297,1.551-1.339
		c0.66-0.042,1.382,0.224,2.189,0.799c2.489,1.775,3.893,4.061,3.941,6.446c0,0.084,0.063,0.154,0.146,0.168
		c0.084,0.014,0.168-0.042,0.189-0.126c0.758-2.581,1.605-5.513,3.479-7.694c1.733-2.02,4.854-3.451,7.471-2.28
		c0.182,0.077,0.379,0.19,0.554,0.323c0.456,0.33,0.835,0.8,0.813,1.354c-0.014,0.224-0.084,0.42-0.189,0.596
		c0,0.007-0.007,0.007-0.007,0.007c-0.021,0.035-0.035,0.07-0.049,0.105c-0.035,0.084-0.056,0.168-0.05,0.26
		c0,0.182,0.078,0.35,0.203,0.477c0.035,0.035,0.078,0.07,0.121,0.091c0.076,0.063,0.168,0.098,0.266,0.119
		c0.379,0.077,0.765,0.168,1.143,0.28c0.421,0.12,1.326,0.442,1.572,1.074c0.035,0.098,0.056,0.203,0.063,0.322
		c0.008,0.147-0.021,0.295-0.063,0.428v0.007c-0.021,0.063-0.036,0.112-0.043,0.168c-0.021,0.33,0.211,0.625,0.533,0.723
		c0.05,0.014,0.105,0.021,0.162,0.021h0.006c0.021,0.007,0.029,0.007,0.05,0.007c1.03-0.014,1.368,0.133,2.075,0.47
		c0.31,0.147,1.908,1.15,1.895,2.356c0,0.12-0.027,0.232-0.07,0.337c0,0.007-0.006,0.014-0.006,0.021
		c-0.015,0.035-0.029,0.07-0.035,0.105c-0.051,0.204,0.006,0.414,0.133,0.575c0.041,0.057,0.091,0.106,0.146,0.148
		c0.021,0.014,0.042,0.028,0.057,0.035c0.021,0.021,0.041,0.028,0.063,0.042c0.379,0.267,0.625,0.715,0.751,1.101
		C400.402,274.636,399.82,275.632,399.154,276.158"/>
	<path clip-path="url(#SVGID_2_)" fill="#BC956B" d="M388.451,289.078c-1.367,1.319-2.658,2.595-3.457,4.384v0.007
		c-0.26,0.449-0.498,0.925-0.688,1.445l-0.709,2.363l-1.802,4.931l-9.574-9.153c0.519-0.631,1.06-1.277,1.382-2.118
		c0.126-0.309,0.294-0.765,0.491-1.291l0.015-0.014c0.16-0.238,0.314-0.498,0.441-0.778c0.413-0.884,1.354-3.009,1.999-4.461
		C379.609,288.359,384.656,288.771,388.451,289.078"/>
	<path clip-path="url(#SVGID_2_)" fill="#BC956B" d="M391.397,265.364c-0.246-0.007-0.54-0.077-0.701-0.105
		c-1.179-0.19-2.006,0.007-3.178,0.259c-0.272,0.056-1.558,0.393-1.647,0.099c-0.078-0.253,1.129-0.849,1.409-0.919
		c1.431-0.379,2.574-0.344,3.845-0.162c-0.037,0.085-0.058,0.169-0.051,0.26c0,0.182,0.077,0.351,0.204,0.477
		C391.313,265.308,391.355,265.343,391.397,265.364"/>
	<path clip-path="url(#SVGID_2_)" fill="#BC956B" d="M395.031,268.506c-0.043,0.035-0.092,0.056-0.147,0.063
		c-0.675,0.112-1.341,0.225-2.013,0.337c-0.316,0.056-0.61,0.063-0.927,0.119c-0.288,0.056-0.61,0.119-0.884,0.168
		c-0.631,0.106-1.508,0.211-1.613,0.07c-0.168-0.245,0.87-0.68,1.164-0.827c0.688-0.33,1.256-0.421,1.881-0.526
		c0.631-0.105,1.262-0.211,1.887-0.316c-0.021,0.063-0.035,0.112-0.043,0.169c-0.021,0.329,0.211,0.624,0.533,0.722
		C394.918,268.499,394.975,268.506,395.031,268.506"/>
	<path clip-path="url(#SVGID_2_)" fill="#BC956B" d="M399.281,272.56c-0.092,0.098-0.217,0.161-0.358,0.154
		c-1.325-0.119-2.672-0.203-3.978,0.176c-0.448,0.133-1.619,0.442-1.696,0.189c-0.084-0.287,1.149-0.968,1.41-1.073
		c1.347-0.54,2.825-0.47,4.243-0.351c0.027,0,0.056,0.007,0.084,0.021c0,0.007-0.008,0.014-0.008,0.021
		c-0.014,0.035-0.027,0.07-0.035,0.105c-0.049,0.204,0.008,0.414,0.135,0.576c0.042,0.056,0.091,0.105,0.146,0.147
		C399.246,272.539,399.268,272.553,399.281,272.56"/>
	<path clip-path="url(#SVGID_2_)" fill="#4080A0" d="M390.279,289.489c0,0-12.313,43.576-22.009,62.419
		c-1.75,3.4-5.091,7.384-10.435,10.727c-6.722,4.212-13.177,4.576-14.974,4.627c-3.109,0.095-9.508,0.288-15.077-3.945
		c-0.593-0.452-1.538-1.183-2.535-2.269c0,0-0.006-0.007-0.013-0.008c-0.879-0.957-1.789-2.177-2.52-3.715
		c-2.313-4.896-1.442-9.776-0.546-12.601c2.766-8.757,8.444-16.569,15.917-21.901c4.764-3.399,10.185-5.787,15.013-9.097
		c9.901-6.792,16.906-16.982,21.83-28.774c3.867,4.313,9.194,4.936,12.451,4.844C389.129,289.749,390.279,289.489,390.279,289.489"
		/>
	<path clip-path="url(#SVGID_2_)" fill="#5190B7" d="M387.381,289.797c-2.313,9.388-11.223,43.821-21.432,60.007
		c-2.045,3.233-5.098,7.377-10.435,10.728c-6.723,4.212-13.177,4.575-14.974,4.627c-3.109,0.095-9.508,0.287-15.078-3.946
		c-0.066-0.048-0.133-0.103-0.213-0.164c0,0-0.006-0.007-0.013-0.008c-0.879-0.957-1.789-2.177-2.52-3.715
		c-2.313-4.896-1.442-9.776-0.546-12.601c2.766-8.757,8.444-16.569,15.917-21.901c4.764-3.399,10.011-8.099,14.372-12.003
		c8.828-7.901,12.883-14.686,22.47-25.868C378.797,289.266,384.125,289.889,387.381,289.797"/>
	<path clip-path="url(#SVGID_2_)" fill="#B2769B" d="M374.929,284.953c0,0,0.618-0.226,1.442-0.158l-0.496,1.115
		C375.875,285.91,375.206,285.3,374.929,284.953"/>
	<path clip-path="url(#SVGID_2_)" fill="#B2769B" d="M390.279,289.489l-1.393-0.832l-1.159,1.127
		C387.728,289.784,389.688,289.626,390.279,289.489"/>
	<path clip-path="url(#SVGID_2_)" fill="#3F2E20" d="M387.818,236.983c1.789-1.541,4.518-1.745,6.699-1.027
		C392.234,236.231,390.056,236.333,387.818,236.983"/>
	<path clip-path="url(#SVGID_2_)" fill="#3F2E20" d="M364.304,239.991c1.698-1.64,4.411-1.997,6.629-1.403
		C368.67,238.991,366.501,239.215,364.304,239.991"/>
	<path clip-path="url(#SVGID_2_)" fill="#111010" d="M403.688,197.893c0.948,0.323,1.677,0.719,2.204,1.056
		c0.813,0.519,1.17,0.916,3.398,3.123c1.211,1.199,1.406,1.229,1.745,1.744c0.735,1.124,0.878,2.238,0.964,2.985
		c0.485,4.196,0.729,6.294,0.78,6.98c0.103,1.363,0.293,3.335,0.689,5.74c-2.282-1.794-8.618-7.277-9.781-16.026
		C403.414,201.433,403.475,199.541,403.688,197.893"/>
	<path clip-path="url(#SVGID_2_)" fill="#BDDEEF" d="M669.605,105.929l-0.023,0.171l-1.226,6.013
		c-0.257,0.987-0.632,1.933-0.938,2.914l-0.985,2.907c-0.352,0.949-0.846,1.854-1.268,2.769l-1.34,2.76
		c-0.445,0.912-1.056,1.752-1.593,2.602l-1.642,2.595c-0.586,0.844-1.284,1.597-1.912,2.385l-1.935,2.357
		c-0.674,0.756-1.46,1.424-2.18,2.149l-2.201,2.122c-1.588,1.258-3.242,2.456-4.873,3.658l-3.67,2.125l0.089,2.129
		c0.093,1.358-0.072,2.406-0.113,3.646l-0.065,0.863l-0.01,0.447l-0.03,0.22l-0.011,0.273l-0.017,0.122l-0.301,1.878
		c-0.219,1.266-0.386,2.514-0.771,3.732c-0.606,2.485-1.521,4.853-2.509,7.212l-1.75,3.403c-0.62,1.112-1.358,2.159-2.026,3.241
		c-1.476,2.094-3.063,4.099-4.897,5.896c-0.871,0.93-1.809,1.801-2.811,2.588c-0.96,0.844-1.944,1.684-3.006,2.364
		c-2.07,1.516-4.308,2.787-6.602,3.925c-1.162,0.492-2.333,1.058-3.513,1.498l-3.67,1.179c-2.474,0.616-4.985,1.152-7.529,1.36
		c-1.248,0.207-2.613,0.174-3.936,0.197l-1.993,0.007l-1.775-0.137l-1.748-0.159l-0.442-0.034l-0.396-0.028l-0.242-0.057
		l-0.946-0.177l-3.758-0.775c-1.234-0.265-2.412-0.771-3.631-1.158c-1.216-0.411-2.434-0.798-3.57-1.423l-3.438-1.68l-3.21-2.072
		c-1.109-0.646-2.098-1.451-3.058-2.277c-0.958-0.85-1.978-1.609-2.853-2.523c-1.742-1.876-3.515-3.707-4.898-5.835
		c-0.939-1.171-1.691-2.442-2.437-3.762c-0.81,0.465-1.643,0.926-2.516,1.308l-2.685,1.26c-0.922,0.375-1.86,0.698-2.779,1.048
		c-1.845,0.75-3.768,1.166-5.684,1.707c-1.926,0.44-3.86,0.755-5.82,1.066c-1.982,0.108-3.871,0.454-5.929,0.378l-3.041,0.018
		c-1.02-0.012-1.873-0.151-2.837-0.205l-1.38-0.11l-0.713-0.07l-0.346-0.021l-0.49-0.066l-2.923-0.49
		c-1.913-0.405-3.858-0.764-5.742-1.389c-1.897-0.528-3.744-1.248-5.594-1.943c-1.81-0.815-3.62-1.605-5.358-2.584
		c-1.743-0.93-3.419-2.001-5.035-3.138c-1.644-1.116-3.191-2.394-4.713-3.693c-1.439-1.338-2.897-2.728-4.217-4.225
		c-0.677-0.713-1.292-1.517-1.907-2.322c-0.646-0.758-1.235-1.56-1.771-2.403c-1.174-1.651-2.161-3.402-3.093-5.195
		c-0.532-1.043-1.011-2.128-1.464-3.209l-1.002,0.04l-1.009-0.085l-2.219-0.172l-2.232-0.447c-1.494-0.374-2.96-0.769-4.345-1.403
		c-1.423-0.538-2.767-1.291-4.059-2.061l-1.895-1.299l-1.751-1.43c-1.11-1.019-2.212-2.088-3.124-3.281
		c-0.494-0.589-0.96-1.199-1.374-1.828c-0.414-0.628-0.855-1.235-1.188-1.927c-0.772-1.298-1.358-2.696-1.919-4.091
		c-0.481-1.435-0.913-2.862-1.188-4.343c-0.175-0.746-0.223-1.5-0.299-2.232c-0.103-0.736-0.172-1.518-0.14-2.31
		c0-0.748-0.051-1.676,0.056-2.284l0.211-2.139c0.297-1.48,0.518-2.944,1.032-4.37c0.416-1.439,1.069-2.796,1.696-4.132l1.107-1.944
		c0.41-0.643,0.861-1.23,1.293-1.845c0.406-0.618,0.924-1.147,1.426-1.727c0.474-0.56,0.97-1.116,1.532-1.589
		c0.602-0.592,1.25-1.153,1.916-1.662c-0.429-1.078-0.831-2.178-1.078-3.307c-0.365-1.743-0.831-3.474-0.925-5.379
		c-0.075-0.931-0.171-1.891-0.176-2.788l0.082-2.48l0.065-1.236l0.015-0.297l0.024-0.371l0.047-0.168l0.088-0.66l0.434-2.682
		c0.46-1.757,0.799-3.555,1.545-5.223c0.578-1.717,1.443-3.344,2.28-4.951c0.952-1.542,1.863-3.139,3.045-4.525
		c1.094-1.473,2.388-2.769,3.656-4.069c1.383-1.21,2.744-2.448,4.292-3.412c1.468-1.099,3.098-1.928,4.685-2.812
		c1.69-0.72,3.338-1.496,5.122-1.981c1.698-0.594,3.507-0.901,5.295-1.235c1.839-0.153,3.593-0.416,5.523-0.333
		c1.997-0.032,3.509,0.219,5.179,0.393c2.063,0.4,3.594,0.878,5.402,1.319c0.711,0.27,1.398,0.536,2.103,0.854l0.392-1.442
		c0.445-1.46,1.078-2.845,1.592-4.271c0.515-1.425,1.313-2.738,1.946-4.123c0.633-1.385,1.477-2.667,2.271-3.956l1.232-1.952
		l1.388-1.808c0.935-1.22,1.846-2.443,2.938-3.542c2.003-2.323,4.296-4.383,6.652-6.36c1.242-0.905,2.42-1.893,3.708-2.767
		l3.912-2.441l4.139-2.088c1.405-0.634,2.874-1.185,4.296-1.767c2.927-1.029,5.905-1.876,8.965-2.414
		c1.517-0.345,3.055-0.489,4.621-0.653l2.298-0.241c0.804-0.042,1.597-0.011,2.419-0.025c1.572-0.015,3.299-0.083,4.646,0.097
		l2.166,0.19l1.059,0.091l0.737,0.074l0.584,0.103c3.053,0.457,6.103,1.114,9.066,2.057c1.452,0.493,2.934,0.965,4.367,1.605
		l2.146,0.909l2.077,1.05c2.78,1.368,5.397,3.037,7.89,4.889c1.247,0.914,2.406,1.941,3.595,2.921
		c1.13,1.048,2.261,2.096,3.335,3.186c2.115,2.25,4.116,4.609,5.845,7.156c0.9,1.266,1.697,2.568,2.44,3.913
		c0.797,1.302,1.431,2.707,2.097,4.066c0.715,1.365,1.191,2.824,1.774,4.247c0.296,0.762,0.541,1.541,0.785,2.321l2.838,0.205
		l0.489,0.065l0.339,0.071l0.657,0.112l1.314,0.226l2.648,0.503c1.701,0.501,3.434,0.957,5.152,1.51
		c1.654,0.669,3.344,1.269,4.959,2.032c1.556,0.855,3.199,1.598,4.709,2.597c1.459,1.017,3.065,1.854,4.399,3.053
		c1.394,1.133,2.848,2.174,4.068,3.483c1.278,1.241,2.582,2.486,3.688,3.904l1.719,2.048l1.525,2.196
		c1.078,1.44,1.94,2.999,2.8,4.584c0.942,1.52,1.59,3.201,2.317,4.842c0.782,1.599,1.192,3.372,1.791,5.046
		c0.571,1.695,0.831,3.474,1.245,5.223c0.341,1.739,0.473,3.55,0.684,5.321c0.107,1.808,0.107,3.676,0.135,5.523L669.605,105.929z"
		/>
	<path clip-path="url(#SVGID_2_)" fill="#BDDEEF" d="M485.63,165.713l-0.041,0.119c0,0-0.049,0.367-0.165,1.049
		c-0.115,0.682-0.535,2.145-1.187,3.478c-0.706,1.375-1.764,2.952-3.326,4.387c-1.561,1.436-3.578,2.736-5.993,3.658
		c-2.383,0.877-5.168,1.402-8.069,1.313c-0.763-0.077-1.385-0.085-2.286-0.229c-0.683-0.116-1.224-0.164-2.063-0.4
		c-1.645-0.369-3.043-0.905-4.494-1.597c-2.865-1.479-5.567-3.633-7.469-6.552c-1.923-2.946-2.891-6.513-2.301-10.369
		c0.198-1.294,0.917-3.514,1.778-4.919c0.879-1.551,2.097-2.833,3.389-3.93c2.612-2.217,5.737-3.418,8.777-3.984
		c3.035-0.541,6.176-0.37,8.761,0.224c2.894,0.711,5.237,1.821,7.313,3.243c2.027,1.417,3.677,3.057,4.842,4.782
		c1.168,1.7,1.831,3.432,2.233,4.906c0.324,1.488,0.384,2.716,0.374,3.537C485.641,165.266,485.63,165.713,485.63,165.713"/>
	<path clip-path="url(#SVGID_2_)" fill="#BDDEEF" d="M454.111,190.045c-0.015-0.45-0.003-1.096-0.275-1.854
		c-0.168-0.795-0.626-1.653-1.23-2.531c-0.612-0.829-1.42-1.684-2.445-2.394c-0.53-0.32-1.051-0.713-1.738-0.979
		c-0.329-0.144-0.659-0.287-1.012-0.434c-0.337-0.095-0.578-0.152-0.865-0.24c-1.369-0.382-2.881-0.435-4.468-0.298
		c-1.555,0.265-3.255,0.686-4.707,1.862c-0.379,0.223-0.703,0.603-1.022,0.934c-0.342,0.328-0.664,0.684-0.963,1.241l-0.425,0.765
		c-0.138,0.281-0.247,0.54-0.263,0.663l-0.167,0.501l-0.081,0.238l-0.042,0.119l-0.033,0.07l-0.007,0.049l-0.067,0.315
		c-0.302,2.076,0.311,4.201,1.4,5.741c1.052,1.635,2.538,2.63,4.078,3.409c0.802,0.331,1.871,0.723,2.366,0.739l0.924,0.174
		l0.464,0.062l0.275-0.013l0.57,0.026c1.491,0.025,2.926-0.282,4.137-0.767c1.232-0.459,2.273-1.166,3.095-1.904
		c0.803-0.789,1.421-1.503,1.82-2.446c0.477-0.958,0.452-1.335,0.543-1.646c0.071-0.34,0.095-0.511,0.095-0.511l0.053-0.217
		C454.12,190.719,454.101,190.492,454.111,190.045 M450.45,190.229c0,0,0.003-0.024-0.015-0.077l0.004-0.024
		c0.033-0.07,0.04-0.119,0.04-0.119L450.45,190.229z"/>
	<path clip-path="url(#SVGID_2_)" fill="#B6DB97" d="M541.334,119.451c-1.582,0.672-2.839,1.996-3.267,3.68
		c-6.701-0.354-13.431-1.745-20.148-0.979c-6.695,0.764-13.207,2.773-19.54,4.998c-0.772-1.452-2.278-2.346-3.921-2.349
		c-0.641-5.429-1.291-10.857-1.952-16.285c1.52-1.229,2.76-3.015,3.121-4.966c6.295-2.198,12.744-4.228,19.397-4.987
		c6.716-0.766,13.444,0.625,20.145,0.979c0.841,1.642,2.337,3.151,4.167,3.647C540.002,108.609,540.668,114.03,541.334,119.451"/>
	<path clip-path="url(#SVGID_2_)" fill="#4A8755" d="M524.178,110.256c0.541,4.317-1.865,9.066-6.54,9.578
		c-4.66,0.51-8.215-3.802-8.716-8.076c-0.488-4.161,1.581-10.227,6.385-10.888C520.191,100.198,523.668,106.188,524.178,110.256"/>
	<path clip-path="url(#SVGID_2_)" fill="#B6DB97" d="M519.831,114.093c-0.454,0.517-1.105,0.86-1.95,1.068
		c0.074,0.601,0.111,0.901,0.186,1.502c-0.556,0.053-0.83,0.088-1.383,0.161c-0.072-0.59-0.108-0.885-0.182-1.475
		c-0.61,0.035-1.185,0.002-1.726-0.104c-0.541-0.105-1.024-0.283-1.45-0.537c0.175-0.552,0.263-0.828,0.438-1.378
		c0.857,0.477,1.745,0.682,2.663,0.626c-0.138-1.126-0.207-1.69-0.346-2.816c-0.623-0.074-1.152-0.166-1.588-0.286
		c-0.437-0.119-0.816-0.336-1.14-0.652c-0.322-0.317-0.52-0.767-0.592-1.354c-0.06-0.488,0.007-0.955,0.2-1.399
		c0.193-0.445,0.49-0.837,0.895-1.173c0.402-0.335,0.883-0.579,1.441-0.727c-0.074-0.601-0.11-0.902-0.184-1.503
		c0.551-0.073,0.827-0.109,1.381-0.161c0.074,0.596,0.11,0.893,0.183,1.489c0.533,0.014,1.044,0.107,1.532,0.275
		c0.488,0.167,0.91,0.397,1.265,0.681c-0.179,0.513-0.268,0.77-0.445,1.286c-0.733-0.521-1.492-0.805-2.274-0.839
		c0.145,1.175,0.216,1.763,0.361,2.938c0.625,0.094,1.149,0.229,1.571,0.384c0.423,0.156,0.793,0.41,1.11,0.756
		c0.317,0.347,0.511,0.806,0.581,1.375C520.469,112.961,520.285,113.577,519.831,114.093 M514.906,109.177
		c0.24,0.162,0.565,0.283,0.979,0.366c-0.128-1.045-0.191-1.568-0.32-2.613c-0.379,0.133-0.662,0.334-0.854,0.601
		c-0.191,0.268-0.265,0.578-0.222,0.93C514.527,108.777,514.666,109.015,514.906,109.177 M518.426,113.223
		c0.173-0.235,0.238-0.527,0.194-0.879c-0.034-0.28-0.162-0.5-0.383-0.657c-0.221-0.158-0.529-0.281-0.925-0.362
		c0.12,0.97,0.18,1.454,0.299,2.424C517.981,113.63,518.253,113.458,518.426,113.223"/>
	<path clip-path="url(#SVGID_2_)" fill="#4A8755" d="M534.541,97.443c-6.576-0.388-13.178-1.699-19.773-0.969
		c-6.521,0.722-12.867,2.718-19.037,4.859c-1.995,0.702-3.978,1.44-5.955,2.188c0.25,2.037,0.5,4.074,0.751,6.111
		c0.637,5.184,1.273,10.368,1.911,15.553c0.249,2.03,0.499,4.061,0.748,6.091c0.001,0.008,0.002,0.012,0.003,0.02
		c1.917-0.755,3.843-1.489,5.786-2.178c-0.001-0.007-0.002-0.013-0.004-0.02c6.218-2.168,12.636-4.142,19.206-4.868
		c6.598-0.729,13.198,0.58,19.774,0.969c2.057,0.087,4.136,0.079,6.181-0.183c-0.25-2.037-0.5-4.074-0.751-6.111l-1.907-15.533
		c-0.251-2.037-0.501-4.075-0.751-6.112C538.676,97.522,536.598,97.53,534.541,97.443 M541.334,119.451
		c-1.582,0.672-2.839,1.996-3.267,3.68c-6.701-0.354-13.431-1.745-20.148-0.979c-6.695,0.764-13.207,2.773-19.54,4.998
		c-0.772-1.452-2.278-2.346-3.921-2.349c-0.641-5.429-1.291-10.857-1.952-16.285c1.52-1.229,2.76-3.015,3.121-4.966
		c6.295-2.198,12.744-4.228,19.397-4.987c6.716-0.766,13.444,0.625,20.145,0.979c0.841,1.642,2.337,3.151,4.167,3.647
		C540.002,108.609,540.668,114.03,541.334,119.451"/>
	<path clip-path="url(#SVGID_2_)" fill="#EBE356" d="M603.371,60.765c-0.129,0.17-0.259,0.327-0.392,0.471
		c-0.497,0.587-1.198,1.079-2.103,1.477c-1.75,0.77-3.287,0.866-5.059,0.112c-0.689-0.294-1.307-0.673-1.853-1.136l4.74-2.087
		l-1.007-2.285l-5.373,2.366c-0.144-0.253-0.277-0.516-0.399-0.793c-0.144-0.325-0.263-0.65-0.363-0.974l5.361-2.359l-1.006-2.286
		l-4.694,2.066c0.034-0.685,0.166-1.366,0.399-2.044c0.618-1.843,1.717-2.925,3.467-3.696c0.7-0.308,1.445-0.483,2.236-0.53
		l0.034-2.71c-1.229,0.016-2.123,0.145-3.212,0.624c-2.802,1.233-4.519,3.103-5.325,6.057c-0.321,1.188-0.441,2.36-0.36,3.515
		l-2.202,0.969l1.006,2.286l1.696-0.747c0.11,0.332,0.235,0.663,0.381,0.993c0.118,0.267,0.245,0.524,0.378,0.774l-1.68,0.74
		l1.005,2.285l2.13-0.937c0.974,1.071,2.171,1.902,3.592,2.492c2.503,1.019,4.747,0.906,7.183-0.165
		c1.165-0.514,2.194-1.238,3.086-2.17L603.371,60.765z"/>
	<path clip-path="url(#SVGID_2_)" fill="#EBE356" d="M567.639,140.146c-0.129,0.17-0.259,0.327-0.392,0.471
		c-0.497,0.587-1.198,1.079-2.103,1.477c-1.75,0.77-3.287,0.866-5.059,0.112c-0.689-0.294-1.307-0.673-1.853-1.136l4.739-2.087
		l-1.006-2.285l-5.374,2.366c-0.143-0.253-0.276-0.516-0.398-0.793c-0.144-0.325-0.263-0.65-0.363-0.974l5.361-2.359l-1.005-2.286
		l-4.695,2.066c0.034-0.685,0.166-1.366,0.399-2.044c0.618-1.843,1.717-2.925,3.467-3.696c0.7-0.308,1.444-0.483,2.235-0.53
		l0.035-2.71c-1.229,0.016-2.123,0.145-3.212,0.624c-2.801,1.233-4.519,3.103-5.325,6.056c-0.321,1.189-0.441,2.361-0.36,3.516
		l-2.202,0.969l1.006,2.286l1.697-0.747c0.109,0.332,0.234,0.663,0.38,0.993c0.118,0.267,0.245,0.524,0.378,0.774l-1.68,0.74
		l1.006,2.285l2.13-0.937c0.973,1.071,2.17,1.902,3.591,2.492c2.503,1.019,4.747,0.906,7.182-0.165
		c1.166-0.514,2.195-1.238,3.086-2.17L567.639,140.146z"/>
	<path clip-path="url(#SVGID_2_)" fill="#4A8755" d="M551.459,77.259c-2.519,0.992-5.365,1.075-8.541,0.248l-2.222,5.239
		l-4.813-2.042l2.182-5.144c-2.042-1.052-3.827-2.291-5.356-3.719c-1.528-1.428-2.729-2.995-3.602-4.701l3.958-3.556
		c1.83,3.301,4.287,5.735,7.371,7.302l4.163-9.816c-1.881-1.428-3.409-2.773-4.582-4.031c-1.174-1.258-1.979-2.733-2.413-4.42
		c-0.435-1.688-0.218-3.554,0.649-5.599c0.721-1.699,1.802-3.069,3.244-4.109c1.444-1.039,3.124-1.7,5.045-1.98
		c1.92-0.281,3.924-0.127,6.013,0.461l2.222-5.238l4.813,2.041l-2.201,5.191c1.73,0.995,3.259,2.163,4.583,3.504
		c1.325,1.341,2.323,2.749,2.998,4.222l-3.958,3.556c-1.496-2.862-3.502-5.049-6.016-6.561l-4.343,10.241
		c1.88,1.43,3.383,2.743,4.508,3.944c1.124,1.201,1.897,2.615,2.321,4.242c0.423,1.627,0.215,3.432-0.626,5.414
		C555.776,74.497,553.977,76.267,551.459,77.259 M544.483,52.418c0.467,0.997,1.294,2.024,2.479,3.084l3.862-9.109
		c-1.473-0.29-2.769-0.19-3.886,0.301c-1.119,0.491-1.937,1.35-2.457,2.577C544.015,50.373,544.015,51.421,544.483,52.418
		 M548.381,72.112c1.018-0.477,1.789-1.33,2.309-2.557c0.414-0.975,0.401-1.908-0.037-2.8c-0.438-0.89-1.232-1.821-2.38-2.791
		l-3.583,8.448C546.132,72.689,547.361,72.589,548.381,72.112"/>
	<path clip-path="url(#SVGID_2_)" fill="#4A8755" d="M629.821,110.8c-1.586,0.625-3.379,0.677-5.379,0.156l-1.399,3.3l-3.032-1.286
		l1.374-3.24c-1.286-0.663-2.41-1.443-3.373-2.343c-0.964-0.899-1.72-1.887-2.27-2.961l2.493-2.24c1.152,2.079,2.7,3.612,4.644,4.6
		l2.623-6.183c-1.187-0.9-2.148-1.747-2.888-2.54c-0.739-0.792-1.246-1.721-1.52-2.784c-0.274-1.063-0.137-2.239,0.409-3.527
		c0.454-1.07,1.135-1.933,2.044-2.588c0.909-0.654,1.968-1.071,3.178-1.247c1.209-0.177,2.471-0.08,3.787,0.29l1.399-3.299
		l3.032,1.286l-1.387,3.269c1.09,0.627,2.053,1.363,2.887,2.207c0.834,0.845,1.463,1.732,1.889,2.66l-2.493,2.24
		c-0.942-1.803-2.206-3.18-3.789-4.133l-2.736,6.451c1.186,0.9,2.132,1.728,2.84,2.485c0.708,0.755,1.195,1.646,1.462,2.671
		c0.268,1.025,0.136,2.162-0.394,3.411C632.542,109.06,631.407,110.175,629.821,110.8 M625.428,95.152
		c0.295,0.629,0.814,1.276,1.561,1.943l2.434-5.738c-0.929-0.182-1.744-0.119-2.447,0.19c-0.705,0.31-1.22,0.851-1.548,1.624
		C625.133,93.865,625.133,94.524,625.428,95.152 M627.883,107.558c0.641-0.301,1.127-0.838,1.455-1.611
		c0.26-0.614,0.252-1.202-0.024-1.763s-0.776-1.147-1.499-1.759l-2.257,5.322C626.466,107.921,627.24,107.857,627.883,107.558"/>
	<path clip-path="url(#SVGID_2_)" fill="#FFFFFF" d="M583.753,99.876l-0.625,4.679l-17.205-2.298l0.407-3.056
		c2.111-0.564,4.625-2.418,4.968-4.983c0.069-0.528,0.093-0.987,0.089-1.524l-3.698-0.494l0.52-3.887l3.018,0.404
		c-0.063-0.969-0.029-2.078,0.107-3.097c0.635-4.754,4.523-7.423,9.579-6.747c2.075,0.277,3.563,0.937,4.332,1.5l-1.522,4.214
		c-0.662-0.511-1.683-0.917-3.079-1.104c-2.679-0.358-3.741,1.268-3.983,3.079c-0.13,0.981-0.139,1.901-0.038,2.875l5.17,0.691
		l-0.521,3.886l-4.678-0.625c-0.088,0.948-0.28,1.806-0.698,2.633c-0.465,0.899-1.195,1.761-2.206,2.433l-0.01,0.075L583.753,99.876
		z"/>
	<path clip-path="url(#SVGID_2_)" fill="#FFFFFF" d="M618.026,164.132l-0.422,3.162l-11.63-1.553l0.276-2.065
		c1.426-0.382,3.125-1.634,3.357-3.368c0.047-0.357,0.062-0.667,0.06-1.03l-2.5-0.334l0.352-2.627l2.039,0.272
		c-0.041-0.655-0.02-1.404,0.072-2.092c0.431-3.214,3.059-5.017,6.477-4.561c1.401,0.187,2.406,0.633,2.927,1.014l-1.029,2.848
		c-0.446-0.345-1.137-0.62-2.081-0.746c-1.81-0.242-2.527,0.857-2.691,2.082c-0.088,0.662-0.095,1.284-0.026,1.943l3.494,0.466
		l-0.351,2.627l-3.162-0.422c-0.061,0.64-0.19,1.22-0.473,1.779c-0.314,0.608-0.808,1.19-1.49,1.644l-0.008,0.051L618.026,164.132z"
		/>
	<path clip-path="url(#SVGID_2_)" fill="#4A8755" d="M593.092,146.087c-0.766-0.102-1.325-0.777-1.282-1.55l0.011-0.17
		c0.07-3.21,1.587-6.526,4.985-9.65c3.052-2.752,4.821-4.842,5.173-7.478c0.399-2.988-1.21-5.23-4.892-5.781
		c-1.38-0.184-2.9-0.081-4.238,0.269c-1.085,0.284-2.188-0.378-2.445-1.47c-0.242-1.026,0.357-2.06,1.366-2.368
		c2.024-0.617,4.582-0.823,6.935-0.508c6.737,0.899,9.228,5.466,8.633,9.918c-0.532,3.984-3.141,6.557-6.4,9.521
		c-2.983,2.701-4.266,5.154-4.488,8.165c-0.079,0.836-0.837,1.439-1.669,1.328L593.092,146.087z M589.488,153.271
		c0.511-1.768,2.038-2.802,3.869-2.557c2.051,0.274,3.253,1.985,2.964,4.153c-0.227,1.693-1.329,2.944-2.929,3.165
		C590.78,158.394,588.755,155.806,589.488,153.271"/>
	<path clip-path="url(#SVGID_2_)" fill="#4A8755" d="M499.504,80.692c-0.304-0.04-0.524-0.308-0.508-0.613L499,80.011
		c0.028-1.271,0.629-2.583,1.975-3.82c1.208-1.09,1.908-1.917,2.048-2.96c0.158-1.183-0.479-2.071-1.938-2.289
		c-0.546-0.073-1.147-0.032-1.677,0.106c-0.43,0.113-0.867-0.149-0.969-0.581c-0.096-0.407,0.142-0.816,0.541-0.938
		c0.802-0.244,1.813-0.325,2.745-0.201c2.667,0.355,3.652,2.164,3.418,3.926c-0.211,1.577-1.244,2.596-2.533,3.769
		c-1.182,1.07-1.688,2.041-1.778,3.233c-0.03,0.331-0.331,0.569-0.66,0.525L499.504,80.692z M498.077,83.536
		c0.202-0.7,0.808-1.109,1.532-1.012c0.811,0.108,1.288,0.785,1.173,1.644c-0.09,0.67-0.526,1.165-1.159,1.253
		C498.588,85.564,497.787,84.539,498.077,83.536"/>
	<path clip-path="url(#SVGID_2_)" fill="#4C6580" d="M387.314,327.979c0,0.672-0.545,1.217-1.217,1.217s-1.217-0.545-1.217-1.217
		c0-0.672,0.545-1.217,1.217-1.217S387.314,327.307,387.314,327.979"/>
	<path clip-path="url(#SVGID_2_)" fill="#4C6580" d="M387.381,320.447c0,0.672-0.545,1.217-1.218,1.217
		c-0.672,0-1.217-0.545-1.217-1.217s0.545-1.217,1.217-1.217C386.836,319.23,387.381,319.775,387.381,320.447"/>
	<path clip-path="url(#SVGID_2_)" fill="#4C6580" d="M389.297,306.725c0,0.672-0.545,1.217-1.217,1.217s-1.217-0.545-1.217-1.217
		s0.545-1.217,1.217-1.217S389.297,306.053,389.297,306.725"/>
	<path clip-path="url(#SVGID_2_)" fill="#4C6580" d="M387.808,315.682c0,0.672-0.545,1.217-1.217,1.217s-1.218-0.545-1.218-1.217
		c0-0.672,0.546-1.217,1.218-1.217S387.808,315.01,387.808,315.682"/>
</g>
</svg>
