<?xml version="1.0" encoding="utf-8"?>
<!-- Generator: Adobe Illustrator 16.0.0, SVG Export Plug-In . SVG Version: 6.00 Build 0)  -->
<!DOCTYPE svg PUBLIC "-//W3C//DTD SVG 1.1//EN" "http://www.w3.org/Graphics/SVG/1.1/DTD/svg11.dtd">
<svg version="1.1" id="Layer_1" xmlns="http://www.w3.org/2000/svg" xmlns:xlink="http://www.w3.org/1999/xlink" x="0px" y="0px"
	 width="818.959px" height="595.891px" viewBox="0 0 818.959 595.891" enable-background="new 0 0 818.959 595.891"
	 xml:space="preserve">
<g>
	<defs>
		<path id="SVGID_1_" d="M371.3,114.331c-103.644,33.991-92.683,125.783-193.245,167.188
			c-74.349,30.612-125.458-0.984-156.438,39.935c-28.829,38.08-8.34,96.849-5.662,104.24c9.651,26.646,25.973,45.42,39.224,57.319
			c8.618,7.738,18.825,13.675,29.909,17.607c71.265,25.287,185.105,55.813,327.269,53.679
			c151.125-2.268,269.226-40.467,338.896-68.874c2.499-1.02,4.846-2.353,6.973-3.97c44.65-33.962,53.179-60.362,51.947-78.775
			c-2.073-30.997-32.19-45.182-94.853-109.654c-40.55-41.719-33.498-41.503-63.707-71.749
			c-51.805-51.87-95.324-95.531-161.393-111.006c-7.594-1.779-27.259-6.175-53.131-6.176
			C417.802,104.094,395.064,106.538,371.3,114.331"/>
	</defs>
	<clipPath id="SVGID_2_">
		<use xlink:href="#SVGID_1_"  overflow="visible"/>
	</clipPath>
	<path clip-path="url(#SVGID_2_)" fill="#E3F4FF" d="M758.229,481.455c-2.126,1.618-4.474,2.951-6.979,3.968
		c-69.671,28.411-187.769,66.613-338.894,68.876c-142.153,2.139-255.981-28.385-327.251-53.676
		c-11.45-4.057-21.902-10.295-30.747-18.354c-13.095-11.931-28.954-30.479-38.407-56.574c-2.579-7.123-21.718-62.037,2.763-100.088
		c0.906-1.405,1.876-2.793,2.902-4.153c14.712-19.433,33.962-22.508,58.083-23.665c3.142-0.15,6.358-0.265,9.667-0.381
		c4.001-0.142,8.114-0.283,12.356-0.477c5.757-0.265,11.746-0.627,17.955-1.246c17.596-1.715,37.031-5.373,58.378-14.166
		c4.594-1.891,8.946-3.888,13.095-5.973c86.705-43.69,81.233-128.781,180.144-161.213c55.644-18.248,105.668-7.167,118.929-4.065
		c61.651,14.448,103.663,53.418,151.09,100.714c3.4,3.394,6.831,6.822,10.295,10.295c17.836,17.859,22.679,25.097,32.004,36.612
		c1.275,1.573,2.633,3.225,4.112,4.993c6.062,7.22,14.25,16.41,27.596,30.143c6.662,6.858,12.965,13.149,18.907,18.955
		c49.849,48.728,74.089,62.999,75.946,90.704C811.403,421.089,802.874,447.494,758.229,481.455"/>
	<path clip-path="url(#SVGID_2_)" fill="#FFFFFF" d="M89.366,297.408c-0.333,0.186-0.666,0.389-0.998,0.591
		c-5.055,3.138-9.298,7.167-13.502,11.17c1.497-3.835,3.114-7.626,4.833-11.381C82.841,297.637,86.057,297.522,89.366,297.408"/>
	<path clip-path="url(#SVGID_2_)" fill="#FFFFFF" d="M241.037,287.227c-5.638-1.634-11.617,0.672-15.896,4.03
		c-4.279,3.358-7.439,7.714-11.561,11.223c-4.112,3.508-9.741,6.229-15.517,5.195c-5.554-0.999-9.786-5.117-14.666-7.82
		c-6.099-3.375-13.585-4.542-20.332-3.182c-6.164,1.255-11.635,4.489-17.947,5.144c-8.668,0.901-16.976-3.146-25.441-6.134
		c17.596-1.714,37.031-5.372,58.379-14.165c4.592-1.892,8.946-3.889,13.095-5.974c4.325,0.088,8.64-0.769,12.975-1.042
		C216.686,273.706,231.805,279.044,241.037,287.227"/>
	<path clip-path="url(#SVGID_2_)" fill="#FFFFFF" d="M174.905,316.637c-0.426,2.103-7.652-0.194-15.415,5.134
		c-5.749,3.941-4.824,7.281-11.395,12.548c-2.855,2.298-8.576,7.29-15.082,6.362c-5.332-0.76-9.334-4.914-13.992-7.52
		c-5.813-3.252-13.002-4.091-19.546-2.271c-5.97,1.652-11.321,5.391-17.429,6.433c-10.785,1.829-14.066-2.961-37.826-7.546
		c-9.334-1.803-9.001-1.016-19.388-2.943c-2.107-0.397-4.151-0.803-6.119-1.229c0.906-1.404,1.876-2.792,2.902-4.152
		c14.712-19.433,33.962-22.507,58.083-23.665c3.142-0.151,6.358-0.266,9.667-0.381c4.001-0.141,8.113-0.282,12.354-0.477
		c2.366,1.061,4.687,2.218,6.959,3.463c4.787,2.625,9.538,5.718,15.009,6.389c6.718,0.832,10.682-0.839,15.886-1.678
		C157.734,302.179,175.599,313.234,174.905,316.637"/>
	<path clip-path="url(#SVGID_2_)" fill="#FFFFFF" d="M651.608,221.277c17.837,17.859,22.679,25.097,32.004,36.612
		c-12.588-3.941-27.882,0.407-39.48-5.532c-5.702-2.917-9.556-7.918-14.888-11.338c-5.831-3.738-13.391-5.399-20.554-4.524
		c-5.729,0.698-11.423,2.951-17.087,1.829c-5.887-1.157-10.109-5.735-12.568-10.489c-2.468-4.755-3.679-9.943-6.358-14.608
		c-2.67-4.666-7.393-8.996-13.4-9.552c12.088-4.172,28.584-3.553,40.154,1.794c5.056,2.341,9.704,5.54,15.268,6.725
		c5.776,1.237,11.792,0.15,17.66-0.521c2.976-0.345,5.961-0.575,8.955-0.69C644.714,214.375,648.144,217.804,651.608,221.277"/>
	<path clip-path="url(#SVGID_2_)" fill="#FFFFFF" d="M707.649,284.938c-2.348-5.24-4.714-10.524-8.217-15.27
		c-1.783-2.422-3.899-4.711-6.329-6.681c4.777,0.203,9.556,0.671,14.27,1.414C707.797,271.241,707.89,278.098,707.649,284.938"/>
	<path clip-path="url(#SVGID_2_)" fill="#FFFFFF" d="M693.103,262.987c4.778,0.203,9.558,0.671,14.27,1.414
		c0.425,6.84,0.518,13.697,0.276,20.537c-2.346-5.24-4.713-10.524-8.215-15.271C697.649,267.247,695.534,264.958,693.103,262.987"/>
	<path clip-path="url(#SVGID_2_)" fill="#FFFFFF" d="M734.228,311.979c-2.755-0.513-5.351-1.034-7.708-1.538
		c-25.719-3.941-30.949-0.893-41.041-6.063c-5.508-3.287-13.003-7.051-22.383-9.896c-7.411-2.253-14.139-3.368-19.667-3.916
		c-11.79-2.35-20.486-6.689-23.057-10.71c-1.516-2.369-2.181-4.119-2.181-4.119c-1.561-3.959-0.971-6.424-4.168-10.489
		c-5.638-7.176-13.835-7.6-13.409-9.553c0.693-3.163,23.104-6.761,40.154,1.794c8.668,6.212,21.551,8.934,32.937,6.195
		c4.648-0.531,9.324-0.796,14.02-0.805c6.063,7.22,14.249,16.411,27.596,30.144C721.982,299.882,728.286,306.173,734.228,311.979"/>
	<path clip-path="url(#SVGID_2_)" fill="#BDDEEF" d="M491.161,448.735c0,22.804-19.332,41.288-43.18,41.288
		s-43.18-18.484-43.18-41.288s19.332-41.29,43.18-41.29S491.161,425.931,491.161,448.735"/>
	<path clip-path="url(#SVGID_2_)" fill="#BDDEEF" d="M485.032,502.883c0,3.616-3.064,6.548-6.847,6.548
		c-3.78,0-6.846-2.932-6.846-6.548c0-3.614,3.065-6.546,6.846-6.546C481.968,496.337,485.032,499.269,485.032,502.883"/>
	<path clip-path="url(#SVGID_2_)" fill="#99CCE0" d="M73.078,507.145c19.807-7.922,41.469,12.2,41.469,12.2
		s-18.57-18.347-18.958-44.39c-0.281-18.552,16.833-45.505,22.847-46.427c6.016-0.923,22.462,16.412,26.44,49.388
		c1.857,15.39-6.204,38.52-6.204,38.52s14.253-31.419,44.715-32.01c2.345,7.693-5.949,24.594-12.16,34.623
		c-5.391,8.704-18.921,23.973-48.221,20.594C86.93,535.482,72.628,507.325,73.078,507.145"/>
	<path clip-path="url(#SVGID_2_)" fill="#FFFFFF" d="M111.561,441.753c2.447,5.104,4.967,10.065,8.042,14.843
		c-0.271-7.854-0.69-15.878-0.058-23.664c0.058-0.706,1.089-0.706,1.147,0c0.381,4.691,0.361,9.446,0.296,14.198
		c0.56-1.004,1.049-2.04,1.426-3.135c0.577-1.688,0.389-3.412,0.604-5.143l0.385-0.05c1.327,3.107-0.347,6.834-2.43,9.414
		c-0.048,3.258-0.106,6.509-0.055,9.736c0.123,8.055,0.452,16.104,1.031,24.145c3.14-8.794,7.124-17.132,9.737-26.131l0.396,0.047
		c-1.259,9.243-5.762,18.384-9.919,26.74l-0.162,0.092l0.033,0.516c0.775,10.313,2.072,20.656,4.257,30.808
		c5.927-9.56,9.911-19.208,13.441-29.794c0.081-0.243,0.435-0.143,0.389,0.103c-1.847,10.315-6.754,22.097-13.635,30.301l-0.06,0.03
		c1.473,6.729,3.335,13.369,5.712,19.859c0.115,0.313-0.397,0.443-0.517,0.136c-5.971-15.554-8.91-31.827-10.461-48.278
		c-0.848-8.973-1.223-17.984-1.466-26.987c-0.015-0.673-0.04-1.354-0.065-2.03c-3.614-4.585-6.877-10.076-8.292-15.663
		L111.561,441.753z"/>
	<path clip-path="url(#SVGID_2_)" fill="#FFFFFF" d="M79.432,507.832c3.476,2.304,6.547,5.114,10.037,7.428
		c2.63,1.745,5.384,3.317,8.177,4.819c-2.439-2.191-4.753-4.627-6.781-7.152l0.295-0.218c2.847,2.144,5.053,5.096,7.449,7.675
		l0.023,0.23c1.173,0.622,2.356,1.236,3.541,1.842c5.363,2.734,10.93,5.161,16.354,7.822c-3.315-2.688-6.17-5.854-9.666-8.377
		c-0.229-0.166-0.038-0.489,0.228-0.372c4.546,2.01,7.676,6.234,11.211,9.479l0.074,0.18c2.063,1.044,4.102,2.129,6.088,3.29
		c0.352,0.205,0.045,0.675-0.313,0.514c-8.709-3.883-17.438-7.857-25.924-12.172c-7.229-3.672-16.293-8.1-21.243-14.561
		C78.792,508.006,79.169,507.657,79.432,507.832"/>
	<path clip-path="url(#SVGID_2_)" fill="#FFFFFF" d="M135.486,532.194c1.212-0.754,2.407-1.523,3.604-2.295l0.002-0.019
		c1.833-3.367,4.405-6.39,6.264-9.797c2.076-3.801,3.783-7.871,4.923-12.025l0.333,0.089c-0.682,4.367-2.501,8.407-4.498,12.363
		c-1.279,2.53-2.785,5.641-4.842,7.959c4.371-2.889,8.609-5.918,12.647-9.199c2.851-7.308,5.823-14.575,8.682-21.88
		c0.104-0.265,0.534-0.164,0.449,0.115c-2.194,7.074-4.663,14.356-8.157,20.977c2.212-1.83,4.363-3.733,6.44-5.737
		c2.253-2.169,4.357-4.468,6.342-6.859l-0.096-0.201c1.291-4.752,3.166-9.604,4.995-14.195l0.308,0.082
		c-1.558,4.287-2.278,9.293-4.455,13.38c1.373-1.708,2.703-3.447,3.943-5.245c2.853-4.14,4.299-8.865,6.917-13.053
		c0.136-0.221,0.567-0.145,0.537,0.142c-0.439,4.303-3.348,8.708-5.644,12.33c-3.072,4.856-6.93,9.252-10.99,13.368
		c-5.868,5.954-12.673,11.446-19.994,15.919c2.641-0.216,5.236-0.292,7.884-0.946c3.453-0.849,6.658-2.55,9.775-4.161
		c0.253-0.132,0.468,0.222,0.227,0.373c-5.411,3.333-12.521,6.684-19.178,5.486c-2.037,1.201-4.104,2.347-6.208,3.381
		C135.457,532.662,135.258,532.337,135.486,532.194"/>
	<path clip-path="url(#SVGID_2_)" fill="#FFFFFF" d="M102.969,481.363c3.802,5.347,6.417,11.582,9.693,17.244
		c3.78,6.535,8.139,12.53,13.134,18.271l-0.215,0.206c-5.188-4.886-9.185-10.8-12.856-16.774
		c-3.665-5.964-7.562-12.318-10.139-18.788C102.495,481.295,102.841,481.191,102.969,481.363"/>
	<path clip-path="url(#SVGID_2_)" fill="#FFFFFF" d="M104.819,455.329c5.523,10.077,9.783,20.48,16.067,30.198l-0.274,0.204
		c-7.366-8.631-11.786-20.044-16.165-30.254L104.819,455.329z"/>
	<path clip-path="url(#SVGID_2_)" fill="#FFFFFF" d="M95.385,523.996c2.304,0.413,4.532,1.205,6.741,1.944
		c2.478,0.826,5.025,1.363,7.518,2.117l-0.045,0.34c-4.698-0.081-9.977-2.534-14.263-4.226L95.385,523.996z"/>
	<path clip-path="url(#SVGID_2_)" fill="#FFFFFF" d="M79.932,512.078c1.389,0.499,2.615,1.36,3.933,2.01
		c1.407,0.697,2.825,1.331,4.176,2.123c0.204,0.117,0.07,0.466-0.168,0.379c-2.641-0.975-6.297-2.049-8.117-4.222L79.932,512.078z"
		/>
	<path clip-path="url(#SVGID_2_)" fill="#FFFFFF" d="M163.365,512.707c2.381-1.574,5.007-2.755,7.379-4.358
		c2.695-1.822,5.11-4.054,7.381-6.331c0.224-0.227,0.549,0.104,0.349,0.331c-3.768,4.311-9.136,9.175-14.985,10.637L163.365,512.707
		z"/>
	<path clip-path="url(#SVGID_2_)" fill="#84D3CC" d="M232.62,520.237c-15.868-6.346-33.223,9.773-33.223,9.773
		s14.877-14.697,15.189-35.563c0.225-14.862-13.486-36.455-18.303-37.194c-4.82-0.738-17.996,13.149-21.184,39.568
		c-1.488,12.327,4.971,30.857,4.971,30.857s-11.418-25.17-35.822-25.645c-1.878,6.165,4.765,19.703,9.742,27.739
		c4.319,6.973,15.158,19.205,38.631,16.498C221.523,542.938,232.98,520.381,232.62,520.237"/>
	<path clip-path="url(#SVGID_2_)" fill="#FFFFFF" d="M201.791,467.85c-1.961,4.089-3.979,8.063-6.442,11.889
		c0.216-6.291,0.552-12.72,0.045-18.957c-0.045-0.564-0.873-0.564-0.918,0c-0.306,3.759-0.291,7.568-0.238,11.374
		c-0.448-0.804-0.841-1.634-1.142-2.51c-0.462-1.354-0.312-2.734-0.484-4.12l-0.308-0.041c-1.064,2.49,0.278,5.476,1.946,7.543
		c0.039,2.609,0.085,5.214,0.044,7.8c-0.099,6.452-0.362,12.901-0.827,19.343c-2.515-7.045-5.706-13.724-7.799-20.936l-0.318,0.04
		c1.009,7.403,4.617,14.728,7.947,21.422l0.13,0.073l-0.025,0.414c-0.621,8.26-1.662,16.547-3.41,24.681
		c-4.75-7.66-7.94-15.389-10.77-23.87c-0.064-0.194-0.348-0.113-0.311,0.083c1.479,8.263,5.41,17.702,10.923,24.275l0.049,0.023
		c-1.18,5.39-2.672,10.71-4.577,15.91c-0.092,0.252,0.318,0.355,0.415,0.108c4.783-12.461,7.137-25.498,8.38-38.678
		c0.68-7.188,0.979-14.406,1.174-21.62c0.012-0.538,0.033-1.085,0.053-1.627c2.895-3.672,5.508-8.071,6.643-12.547L201.791,467.85z"
		/>
	<path clip-path="url(#SVGID_2_)" fill="#FFFFFF" d="M227.529,520.787c-2.784,1.847-5.247,4.098-8.04,5.951
		c-2.107,1.398-4.314,2.657-6.551,3.861c1.954-1.757,3.808-3.708,5.433-5.73l-0.238-0.176c-2.279,1.718-4.047,4.083-5.968,6.149
		l-0.017,0.184c-0.941,0.5-1.889,0.991-2.838,1.477c-4.296,2.19-8.756,4.135-13.102,6.267c2.657-2.152,4.943-4.691,7.744-6.711
		c0.183-0.133,0.03-0.393-0.184-0.299c-3.641,1.61-6.149,4.995-8.982,7.594l-0.058,0.146c-1.653,0.837-3.285,1.705-4.878,2.636
		c-0.281,0.163-0.037,0.54,0.251,0.412c6.978-3.112,13.97-6.296,20.769-9.753c5.791-2.941,13.052-6.488,17.018-11.664
		C228.042,520.926,227.74,520.646,227.529,520.787"/>
	<path clip-path="url(#SVGID_2_)" fill="#FFFFFF" d="M182.623,540.304c-0.971-0.604-1.928-1.222-2.888-1.839l-0.002-0.015
		c-1.467-2.698-3.529-5.119-5.019-7.849c-1.663-3.045-3.03-6.307-3.943-9.635l-0.267,0.071c0.547,3.5,2.004,6.735,3.604,9.905
		c1.024,2.026,2.231,4.52,3.877,6.375c-3.5-2.314-6.896-4.741-10.132-7.369c-2.284-5.854-4.665-11.676-6.954-17.528
		c-0.083-0.212-0.428-0.131-0.36,0.092c1.757,5.668,3.735,11.502,6.534,16.807c-1.771-1.467-3.495-2.992-5.16-4.597
		c-1.805-1.738-3.489-3.581-5.08-5.496l0.077-0.161c-1.034-3.808-2.536-7.695-4.001-11.372l-0.248,0.064
		c1.248,3.437,1.826,7.446,3.569,10.719c-1.099-1.367-2.165-2.76-3.159-4.2c-2.286-3.317-3.444-7.103-5.542-10.458
		c-0.107-0.177-0.453-0.115-0.43,0.113c0.352,3.448,2.683,6.978,4.522,9.88c2.46,3.889,5.552,7.411,8.805,10.708
		c4.7,4.771,10.152,9.17,16.017,12.753c-2.116-0.172-4.194-0.234-6.316-0.757c-2.766-0.681-5.333-2.044-7.831-3.334
		c-0.203-0.104-0.374,0.178-0.181,0.299c4.335,2.671,10.032,5.354,15.364,4.395c1.632,0.963,3.288,1.88,4.975,2.709
		C182.647,540.679,182.805,540.419,182.623,540.304"/>
	<path clip-path="url(#SVGID_2_)" fill="#FFFFFF" d="M208.673,499.582c-3.046,4.284-5.142,9.279-7.766,13.814
		c-3.027,5.234-6.52,10.039-10.521,14.638l0.172,0.164c4.155-3.914,7.357-8.65,10.298-13.438c2.936-4.777,6.059-9.867,8.124-15.052
		C209.053,499.527,208.775,499.443,208.673,499.582"/>
	<path clip-path="url(#SVGID_2_)" fill="#FFFFFF" d="M207.191,478.725c-4.426,8.072-7.838,16.407-12.873,24.193l0.22,0.162
		c5.901-6.913,9.442-16.058,12.951-24.237L207.191,478.725z"/>
	<path clip-path="url(#SVGID_2_)" fill="#FFFFFF" d="M214.749,533.736c-1.846,0.33-3.631,0.966-5.4,1.558
		c-1.985,0.662-4.026,1.093-6.022,1.695l0.036,0.273c3.764-0.065,7.992-2.029,11.426-3.386L214.749,533.736z"/>
	<path clip-path="url(#SVGID_2_)" fill="#FFFFFF" d="M227.129,524.188c-1.112,0.399-2.096,1.091-3.151,1.611
		c-1.128,0.557-2.264,1.065-3.346,1.699c-0.163,0.095-0.056,0.373,0.135,0.304c2.115-0.781,5.045-1.642,6.503-3.381L227.129,524.188
		z"/>
	<path clip-path="url(#SVGID_2_)" fill="#FFFFFF" d="M160.288,524.692c-1.908-1.262-4.011-2.207-5.912-3.491
		c-2.16-1.459-4.094-3.249-5.913-5.072c-0.179-0.182-0.44,0.082-0.28,0.265c3.019,3.453,7.319,7.351,12.006,8.522L160.288,524.692z"
		/>
	<path clip-path="url(#SVGID_2_)" fill="#99CCE0" d="M262.068,551.257c19.808-7.923,41.47,12.198,41.47,12.198
		s-18.57-18.345-18.959-44.389c-0.281-18.552,16.833-45.506,22.847-46.428c6.016-0.921,22.462,16.414,26.441,49.389
		c1.856,15.389-6.204,38.52-6.204,38.52s14.253-31.418,44.714-32.01c2.345,7.692-5.948,24.594-12.16,34.623
		c-5.39,8.705-18.92,23.974-48.221,20.594C275.92,579.593,261.619,551.436,262.068,551.257"/>
	<path clip-path="url(#SVGID_2_)" fill="#FFFFFF" d="M300.551,485.866c2.448,5.104,4.968,10.065,8.042,14.842
		c-0.271-7.853-0.69-15.878-0.058-23.664c0.058-0.706,1.089-0.706,1.147,0c0.381,4.692,0.361,9.447,0.295,14.197
		c0.56-1.003,1.05-2.039,1.426-3.134c0.577-1.688,0.39-3.412,0.604-5.143l0.385-0.051c1.327,3.108-0.347,6.836-2.43,9.415
		c-0.047,3.258-0.105,6.51-0.056,9.736c0.124,8.055,0.453,16.105,1.032,24.145c3.139-8.795,7.123-17.132,9.736-26.131l0.396,0.048
		c-1.259,9.242-5.762,18.383-9.918,26.74l-0.164,0.091l0.033,0.516c0.776,10.312,2.073,20.656,4.255,30.809
		c5.929-9.562,9.912-19.209,13.443-29.796c0.08-0.242,0.435-0.142,0.389,0.104c-1.847,10.315-6.754,22.097-13.635,30.302
		l-0.06,0.029c1.473,6.729,3.335,13.369,5.712,19.859c0.115,0.313-0.397,0.443-0.518,0.136c-5.971-15.554-8.909-31.827-10.46-48.278
		c-0.849-8.974-1.223-17.983-1.467-26.987c-0.014-0.674-0.04-1.354-0.065-2.03c-3.614-4.584-6.877-10.076-8.292-15.663
		L300.551,485.866z"/>
	<path clip-path="url(#SVGID_2_)" fill="#FFFFFF" d="M268.423,551.943c3.476,2.305,6.548,5.115,10.036,7.429
		c2.631,1.744,5.384,3.316,8.177,4.818c-2.439-2.19-4.753-4.627-6.781-7.152l0.295-0.218c2.846,2.144,5.053,5.096,7.449,7.676
		l0.023,0.23c1.174,0.621,2.356,1.235,3.542,1.84c5.363,2.736,10.93,5.162,16.354,7.823c-3.315-2.688-6.169-5.854-9.665-8.376
		c-0.229-0.167-0.038-0.49,0.228-0.374c4.546,2.012,7.676,6.235,11.211,9.48l0.073,0.18c2.063,1.045,4.101,2.129,6.088,3.291
		c0.352,0.203,0.046,0.674-0.313,0.513c-8.709-3.882-17.439-7.857-25.923-12.172c-7.229-3.672-16.294-8.1-21.244-14.561
		C267.783,552.119,268.159,551.769,268.423,551.943"/>
	<path clip-path="url(#SVGID_2_)" fill="#FFFFFF" d="M324.477,576.305c1.213-0.753,2.407-1.524,3.604-2.295l0.002-0.019
		c1.833-3.366,4.405-6.389,6.265-9.798c2.076-3.801,3.782-7.87,4.923-12.024l0.333,0.089c-0.683,4.366-2.501,8.407-4.498,12.363
		c-1.279,2.531-2.785,5.641-4.842,7.959c4.371-2.89,8.609-5.918,12.648-9.199c2.851-7.308,5.823-14.575,8.681-21.88
		c0.104-0.265,0.535-0.164,0.449,0.114c-2.193,7.075-4.663,14.357-8.156,20.979c2.212-1.831,4.361-3.733,6.44-5.738
		c2.253-2.169,4.356-4.468,6.342-6.859l-0.096-0.201c1.291-4.751,3.165-9.604,4.994-14.195l0.309,0.081
		c-1.559,4.289-2.278,9.295-4.455,13.381c1.372-1.708,2.703-3.447,3.943-5.245c2.854-4.14,4.3-8.865,6.917-13.053
		c0.137-0.222,0.568-0.145,0.537,0.142c-0.439,4.304-3.348,8.708-5.644,12.33c-3.072,4.856-6.93,9.252-10.99,13.368
		c-5.869,5.953-12.673,11.445-19.995,15.918c2.642-0.216,5.237-0.291,7.885-0.945c3.453-0.849,6.658-2.551,9.775-4.161
		c0.253-0.132,0.467,0.222,0.226,0.372c-5.412,3.335-12.521,6.684-19.178,5.486c-2.037,1.202-4.104,2.347-6.209,3.383
		C324.446,576.773,324.249,576.449,324.477,576.305"/>
	<path clip-path="url(#SVGID_2_)" fill="#FFFFFF" d="M291.96,525.475c3.802,5.346,6.417,11.581,9.693,17.243
		c3.78,6.535,8.139,12.53,13.134,18.271l-0.216,0.205c-5.188-4.886-9.184-10.8-12.856-16.775
		c-3.664-5.963-7.561-12.316-10.139-18.787C291.485,525.407,291.832,525.302,291.96,525.475"/>
	<path clip-path="url(#SVGID_2_)" fill="#FFFFFF" d="M293.81,499.44c5.524,10.077,9.783,20.48,16.068,30.198l-0.274,0.204
		c-7.366-8.63-11.786-20.044-16.165-30.254L293.81,499.44z"/>
	<path clip-path="url(#SVGID_2_)" fill="#FFFFFF" d="M284.375,568.107c2.304,0.413,4.533,1.205,6.741,1.944
		c2.478,0.825,5.025,1.362,7.517,2.116l-0.045,0.342c-4.698-0.082-9.976-2.535-14.263-4.227L284.375,568.107z"/>
	<path clip-path="url(#SVGID_2_)" fill="#FFFFFF" d="M268.922,556.189c1.388,0.499,2.615,1.359,3.934,2.011
		c1.407,0.696,2.825,1.33,4.175,2.122c0.204,0.117,0.07,0.466-0.167,0.379c-2.641-0.975-6.298-2.05-8.117-4.222L268.922,556.189z"/>
	<path clip-path="url(#SVGID_2_)" fill="#FFFFFF" d="M352.355,556.817c2.382-1.573,5.007-2.755,7.379-4.357
		c2.696-1.822,5.11-4.055,7.382-6.331c0.224-0.226,0.549,0.104,0.35,0.331c-3.769,4.311-9.137,9.176-14.986,10.637L352.355,556.817z
		"/>
	<path clip-path="url(#SVGID_2_)" fill="#99CCE0" d="M421.611,564.348c-15.869-6.346-33.224,9.773-33.224,9.773
		s14.878-14.697,15.189-35.563c0.225-14.862-13.486-36.455-18.303-37.193c-4.82-0.739-17.995,13.148-21.185,39.566
		c-1.485,12.328,4.972,30.858,4.972,30.858s-11.418-25.17-35.822-25.645c-1.879,6.164,4.765,19.704,9.742,27.739
		c4.318,6.973,15.157,19.205,38.631,16.498C410.514,587.05,421.972,564.493,421.611,564.348"/>
	<path clip-path="url(#SVGID_2_)" fill="#FFFFFF" d="M390.781,511.961c-1.961,4.089-3.979,8.063-6.441,11.889
		c0.216-6.29,0.551-12.719,0.045-18.957c-0.045-0.565-0.872-0.565-0.918,0c-0.306,3.76-0.291,7.568-0.239,11.374
		c-0.446-0.803-0.84-1.634-1.141-2.511c-0.462-1.353-0.313-2.733-0.484-4.12l-0.308-0.04c-1.063,2.49,0.278,5.476,1.946,7.543
		c0.037,2.609,0.084,5.214,0.044,7.8c-0.099,6.453-0.362,12.901-0.827,19.344c-2.515-7.046-5.705-13.725-7.798-20.936l-0.319,0.039
		c1.01,7.403,4.617,14.727,7.947,21.422l0.13,0.073l-0.025,0.414c-0.621,8.261-1.661,16.547-3.409,24.681
		c-4.751-7.66-7.942-15.39-10.771-23.87c-0.064-0.195-0.348-0.113-0.311,0.083c1.478,8.263,5.409,17.701,10.923,24.275l0.048,0.022
		c-1.18,5.391-2.671,10.711-4.576,15.911c-0.093,0.251,0.317,0.356,0.415,0.109c4.783-12.46,7.138-25.499,8.379-38.679
		c0.682-7.189,0.98-14.407,1.176-21.62c0.012-0.539,0.031-1.085,0.053-1.626c2.896-3.673,5.508-8.072,6.644-12.549L390.781,511.961z
		"/>
	<path clip-path="url(#SVGID_2_)" fill="#FFFFFF" d="M416.52,564.898c-2.784,1.847-5.246,4.098-8.04,5.95
		c-2.107,1.399-4.314,2.657-6.551,3.862c1.953-1.756,3.808-3.708,5.433-5.73l-0.238-0.176c-2.279,1.718-4.046,4.083-5.968,6.15
		l-0.017,0.184c-0.941,0.498-1.889,0.991-2.838,1.476c-4.297,2.191-8.756,4.135-13.102,6.267c2.656-2.153,4.942-4.691,7.743-6.711
		c0.184-0.133,0.03-0.393-0.184-0.299c-3.641,1.611-6.148,4.995-8.981,7.595l-0.058,0.145c-1.653,0.836-3.285,1.706-4.879,2.636
		c-0.28,0.164-0.036,0.541,0.252,0.411c6.978-3.111,13.971-6.295,20.77-9.751c5.79-2.941,13.052-6.489,17.018-11.665
		C417.032,565.039,416.731,564.758,416.52,564.898"/>
	<path clip-path="url(#SVGID_2_)" fill="#FFFFFF" d="M371.613,584.416c-0.972-0.604-1.929-1.222-2.888-1.839l-0.002-0.015
		c-1.468-2.697-3.528-5.119-5.018-7.849c-1.664-3.045-3.03-6.307-3.944-9.635l-0.267,0.071c0.548,3.5,2.004,6.735,3.603,9.905
		c1.025,2.026,2.232,4.519,3.879,6.375c-3.501-2.314-6.897-4.74-10.133-7.368c-2.283-5.854-4.664-11.677-6.954-17.529
		c-0.082-0.212-0.428-0.131-0.36,0.092c1.758,5.668,3.736,11.502,6.534,16.807c-1.771-1.467-3.494-2.992-5.159-4.598
		c-1.805-1.737-3.489-3.579-5.08-5.494l0.077-0.162c-1.035-3.807-2.537-7.695-4.002-11.372l-0.248,0.065
		c1.249,3.436,1.826,7.445,3.569,10.718c-1.099-1.366-2.165-2.761-3.159-4.2c-2.285-3.317-3.444-7.104-5.541-10.458
		c-0.108-0.176-0.454-0.115-0.431,0.113c0.353,3.448,2.684,6.978,4.521,9.879c2.462,3.89,5.554,7.413,8.807,10.709
		c4.7,4.771,10.151,9.17,16.016,12.754c-2.115-0.174-4.193-0.234-6.315-0.758c-2.766-0.68-5.334-2.044-7.831-3.334
		c-0.202-0.105-0.374,0.178-0.182,0.299c4.336,2.671,10.032,5.354,15.364,4.395c1.632,0.963,3.287,1.88,4.975,2.709
		C371.638,584.791,371.797,584.531,371.613,584.416"/>
	<path clip-path="url(#SVGID_2_)" fill="#FFFFFF" d="M397.664,543.693c-3.047,4.284-5.142,9.279-7.767,13.814
		c-3.027,5.235-6.52,10.039-10.521,14.638l0.172,0.165c4.157-3.914,7.357-8.651,10.299-13.439c2.936-4.777,6.059-9.867,8.123-15.05
		C398.044,543.639,397.766,543.555,397.664,543.693"/>
	<path clip-path="url(#SVGID_2_)" fill="#FFFFFF" d="M396.183,522.835c-4.427,8.073-7.839,16.409-12.874,24.194l0.221,0.162
		c5.9-6.914,9.441-16.058,12.95-24.237L396.183,522.835z"/>
	<path clip-path="url(#SVGID_2_)" fill="#FFFFFF" d="M403.74,577.847c-1.847,0.331-3.631,0.965-5.401,1.558
		c-1.985,0.662-4.025,1.092-6.021,1.696l0.035,0.272c3.765-0.065,7.993-2.03,11.428-3.386L403.74,577.847z"/>
	<path clip-path="url(#SVGID_2_)" fill="#FFFFFF" d="M416.12,568.299c-1.111,0.399-2.096,1.091-3.15,1.61
		c-1.129,0.558-2.265,1.066-3.347,1.7c-0.163,0.095-0.057,0.373,0.135,0.305c2.115-0.782,5.045-1.643,6.503-3.383L416.12,568.299z"
		/>
	<path clip-path="url(#SVGID_2_)" fill="#FFFFFF" d="M349.278,568.802c-1.909-1.261-4.012-2.206-5.912-3.49
		c-2.16-1.459-4.094-3.248-5.912-5.072c-0.18-0.182-0.44,0.082-0.28,0.265c3.019,3.453,7.319,7.351,12.006,8.521L349.278,568.802z"
		/>
	<path clip-path="url(#SVGID_2_)" fill="#99CCE0" d="M780.531,459.257c-21.471-0.108-33.48,26.388-33.48,26.388
		s9.859-23.727-0.158-47.948c-7.133-17.255-33.696-35.94-39.624-34.601c-5.93,1.34-14.228,23.359-4.766,55.296
		c4.414,14.905,21.085,33.353,21.085,33.353s-25.697-23.854-54.097-13.304c0.898,7.969,15.3,20.573,25.039,27.582
		c8.453,6.084,27.046,15.271,52.79,1.471C779.015,490.501,781.019,459.26,780.531,459.257"/>
	<path clip-path="url(#SVGID_2_)" fill="#FFFFFF" d="M718.895,412.82c-0.229,5.611-0.581,11.115-1.521,16.651
		c-2.879-7.358-5.69-14.931-9.376-21.898c-0.335-0.632-1.288-0.256-1.061,0.417c1.518,4.476,3.43,8.865,5.384,13.234
		c-0.917-0.724-1.782-1.503-2.567-2.378c-1.207-1.352-1.719-3.014-2.609-4.534l-0.374,0.093c0.012,3.358,3.043,6.193,5.998,7.82
		c1.341,2.993,2.69,5.979,3.931,8.981c3.096,7.491,5.998,15.053,8.666,22.698c-6.406-6.987-13.411-13.243-19.412-20.612
		l-0.349,0.188c4.849,8.086,12.652,14.896,19.826,21.109l0.187,0.024l0.176,0.489c3.392,9.817,6.313,19.854,8.341,30.034
		c-9.29-6.679-16.817-14.147-24.302-22.649c-0.17-0.194-0.457,0.028-0.317,0.238c5.817,8.862,15.05,17.968,24.682,23.047
		l0.066,0.005c1.319,6.758,2.243,13.576,2.633,20.441c0.018,0.334,0.544,0.267,0.532-0.061c-0.678-16.557-4.446-32.673-9.565-48.449
		c-2.793-8.605-6.037-17.071-9.399-25.486c-0.255-0.627-0.502-1.266-0.748-1.899c1.514-5.556,2.342-11.82,1.425-17.503
		L718.895,412.82z"/>
	<path clip-path="url(#SVGID_2_)" fill="#FFFFFF" d="M774.93,462.207c-2.296,3.397-4.017,7.115-6.32,10.525
		c-1.735,2.571-3.656,5.027-5.64,7.435c1.381-2.916,2.552-6.011,3.42-9.083l-0.361-0.096c-1.777,3.02-2.64,6.553-3.828,9.812
		l0.07,0.222c-0.838,1.002-1.686,2.001-2.54,2.992c-3.868,4.483-8.048,8.754-12.004,13.191c1.994-3.693,3.372-7.662,5.599-11.268
		c0.145-0.235-0.16-0.467-0.36-0.261c-3.4,3.516-4.61,8.561-6.587,12.85l0.004,0.192c-1.491,1.717-2.943,3.463-4.318,5.261
		c-0.243,0.317,0.228,0.641,0.495,0.361c6.505-6.764,12.991-13.618,19.118-20.7c5.219-6.029,11.836-13.425,13.838-21.202
		C775.591,462.136,775.102,461.95,774.93,462.207"/>
	<path clip-path="url(#SVGID_2_)" fill="#FFFFFF" d="M732.812,505.155c-1.422-0.256-2.833-0.531-4.247-0.809l-0.01-0.017
		c-3.035-2.445-6.618-4.302-9.695-6.775c-3.435-2.758-6.633-5.899-9.343-9.325l-0.272,0.203c2.37,3.79,5.663,6.861,9.085,9.794
		c2.191,1.872,4.823,4.199,7.647,5.594c-5.192-1.08-10.318-2.335-15.358-3.897c-5.549-5.718-11.191-11.354-16.746-17.066
		c-0.2-0.207-0.559,0.043-0.37,0.27c4.849,5.742,10.032,11.575,15.902,16.424c-2.774-0.888-5.522-1.863-8.241-2.959
		c-2.949-1.184-5.81-2.544-8.598-4.031l0.008-0.222c-3.086-3.922-6.754-7.726-10.274-11.304l-0.252,0.188
		c3.149,3.397,5.811,7.764,9.449,10.747c-1.948-1.076-3.872-2.201-5.735-3.411c-4.287-2.788-7.506-6.631-11.595-9.549
		c-0.214-0.155-0.583,0.073-0.441,0.327c2.121,3.818,6.566,6.832,10.133,9.344c4.774,3.37,10.093,6.029,15.487,8.355
		c7.799,3.366,16.277,5.964,24.829,7.433c-2.528,0.762-4.957,1.637-7.666,1.998c-3.531,0.473-7.173,0.067-10.696-0.285
		c-0.287-0.03-0.344,0.374-0.061,0.427c6.332,1.11,14.239,1.616,19.917-1.916c2.363,0.369,4.729,0.676,7.088,0.864
		C733.026,505.576,733.079,505.205,732.812,505.155"/>
	<path clip-path="url(#SVGID_2_)" fill="#FFFFFF" d="M742.62,446.31c-1.385,6.329-1.317,13.048-2.091,19.476
		c-0.89,7.419-2.531,14.55-4.862,21.677l0.282,0.112c2.85-6.408,4.188-13.331,5.201-20.193c1.012-6.85,2.084-14.143,1.888-21.064
		C743.032,446.076,742.67,446.104,742.62,446.31"/>
	<path clip-path="url(#SVGID_2_)" fill="#FFFFFF" d="M730.536,422.914c-1.092,11.331-0.884,22.501-2.822,33.774l0.334,0.09
		c3.372-10.663,2.909-22.827,2.891-33.861L730.536,422.914z"/>
	<path clip-path="url(#SVGID_2_)" fill="#FFFFFF" d="M766.62,482.963c-1.964,1.222-3.711,2.765-5.457,4.253
		c-1.962,1.666-4.103,3.093-6.106,4.697l0.178,0.299c4.312-1.788,8.214-5.979,11.502-9.105L766.62,482.963z"/>
	<path clip-path="url(#SVGID_2_)" fill="#FFFFFF" d="M776.159,466.314c-1.084,0.967-1.877,2.21-2.835,3.293
		c-1.023,1.156-2.083,2.26-3.016,3.482c-0.141,0.184,0.12,0.456,0.307,0.29c2.054-1.864,5.005-4.189,5.822-6.861L776.159,466.314z"
		/>
	<path clip-path="url(#SVGID_2_)" fill="#FFFFFF" d="M699.271,497.294c-2.83-0.587-5.729-0.723-8.56-1.34
		c-3.218-0.702-6.34-1.887-9.348-3.165c-0.296-0.128-0.467,0.297-0.19,0.434c5.201,2.612,12.104,5.154,18.094,4.375L699.271,497.294
		z"/>
	<path clip-path="url(#SVGID_2_)" fill="#84D3CC" d="M638.24,529.491c12.142-11.649,34.611-3.069,34.611-3.069
		s-19.611-8.167-28.214-27.346c-6.131-13.658-2.059-38.619,2.102-41.057c4.162-2.438,21.878,5.602,35.351,28.864
		c6.288,10.855,7.701,30.342,7.701,30.342s0.527-27.432,22.901-36.762c4.192,5.014,3.445,19.953,2.046,29.194
		c-1.214,8.021-6.361,23.28-29.143,29.33C657.546,546.436,637.964,529.754,638.24,529.491"/>
	<path clip-path="url(#SVGID_2_)" fill="#FFFFFF" d="M645.869,469.823c3.443,3.066,6.893,6.005,10.694,8.646
		c-2.707-5.737-5.58-11.559-7.597-17.512c-0.184-0.539,0.582-0.84,0.85-0.334c1.78,3.364,3.284,6.891,4.751,10.43
		c0.095-0.905,0.126-1.817,0.056-2.737c-0.11-1.42-0.801-2.642-1.193-3.987l0.268-0.148c1.977,1.914,1.927,5.164,1.207,7.684
		c1.004,2.425,2,4.852,3.067,7.228c2.662,5.931,5.476,11.795,8.472,17.582c-0.482-7.431-0.192-14.769-1.131-22.197l0.309-0.079
		c2.017,7.213,1.601,15.297,1.19,22.7l-0.092,0.115l0.189,0.373c3.864,7.412,8.128,14.695,12.986,21.578
		c1.338-8.813,1.209-17.123,0.446-25.993c-0.02-0.204,0.275-0.232,0.32-0.038c1.924,8.18,2.051,18.338-0.428,26.425l-0.034,0.039
		c3.239,4.554,6.738,8.929,10.57,13.043c0.187,0.199-0.151,0.444-0.339,0.252c-9.388-9.777-16.76-20.975-23.16-32.708
		c-3.494-6.397-6.647-12.963-9.701-19.562c-0.227-0.494-0.463-0.991-0.697-1.483c-4.14-2.341-8.309-5.456-11.142-9.181
		L645.869,469.823z"/>
	<path clip-path="url(#SVGID_2_)" fill="#FFFFFF" d="M643.167,528.144c3.309,0.691,6.482,1.877,9.805,2.572
		c2.506,0.524,5.047,0.885,7.595,1.183c-2.506-0.911-4.997-2.04-7.306-3.318l0.149-0.248c2.792,0.757,5.369,2.3,7.968,3.511
		l0.091,0.164c1.068,0.118,2.14,0.228,3.211,0.329c4.845,0.462,9.743,0.634,14.61,1.022c-3.313-1.023-6.438-2.537-9.833-3.385
		c-0.223-0.057-0.185-0.353,0.05-0.343c4.009,0.163,7.674,2.378,11.33,3.75l0.111,0.112c1.861,0.17,3.718,0.379,5.561,0.659
		c0.326,0.05,0.249,0.486-0.069,0.472c-7.69-0.333-15.424-0.729-23.087-1.45c-6.526-0.607-14.654-1.243-20.383-4.583
		C642.749,528.46,642.916,528.092,643.167,528.144"/>
	<path clip-path="url(#SVGID_2_)" fill="#FFFFFF" d="M692.462,529.827c0.657-0.911,1.297-1.831,1.938-2.752l-0.004-0.015
		c0.282-3.028,1.223-6.018,1.513-9.084c0.324-3.421,0.289-6.936-0.194-10.345l0.276-0.031c0.889,3.435,0.83,6.958,0.616,10.472
		c-0.143,2.247-0.264,4.989-1.046,7.308c2.313-3.416,4.486-6.897,6.431-10.506c-0.221-6.245-0.341-12.495-0.555-18.74
		c-0.008-0.228,0.344-0.278,0.37-0.046c0.634,5.88,1.129,11.994,0.654,17.919c1.054-2.002,2.04-4.04,2.938-6.13
		c0.978-2.265,1.801-4.583,2.509-6.933l-0.135-0.121c-0.562-3.896-0.722-8.038-0.833-11.973l0.254-0.029
		c0.217,3.631,1.28,7.549,0.972,11.211c0.473-1.665,0.903-3.343,1.247-5.036c0.793-3.899,0.355-7.821,0.956-11.688
		c0.029-0.203,0.375-0.272,0.443-0.052c1.048,3.315,0.301,7.429-0.244,10.781c-0.727,4.493-2.18,8.876-3.874,13.108
		c-2.444,6.125-5.731,12.177-9.727,17.628c1.887-0.931,3.784-1.744,5.538-3.002c2.286-1.637,4.117-3.832,5.912-5.936
		c0.146-0.171,0.417,0.027,0.285,0.21c-2.943,4.049-7.141,8.606-12.452,9.661c-1.126,1.486-2.292,2.937-3.521,4.317
		C692.59,530.182,692.339,530,692.462,529.827"/>
	<path clip-path="url(#SVGID_2_)" fill="#FFFFFF" d="M652.15,501.668c4.524,2.85,8.452,6.706,12.685,9.942
		c4.885,3.737,10.027,6.905,15.561,9.7l-0.094,0.216c-5.403-2.106-10.25-5.318-14.877-8.674c-4.618-3.348-9.533-6.916-13.508-10.955
		C651.778,501.757,652.001,501.579,652.15,501.668"/>
	<path clip-path="url(#SVGID_2_)" fill="#FFFFFF" d="M645.209,481.844c7.31,5.852,13.785,12.315,21.542,17.678l-0.138,0.231
		c-8.211-4.243-15.128-11.406-21.632-17.689L645.209,481.844z"/>
	<path clip-path="url(#SVGID_2_)" fill="#FFFFFF" d="M660.143,535.46c1.839-0.367,3.742-0.431,5.613-0.528
		c2.099-0.112,4.157-0.458,6.243-0.626l0.076,0.266c-3.506,1.311-8.198,1.035-11.914,1.032L660.143,535.46z"/>
	<path clip-path="url(#SVGID_2_)" fill="#FFFFFF" d="M644.892,531.142c1.188-0.035,2.371,0.245,3.556,0.342
		c1.265,0.104,2.517,0.161,3.77,0.353c0.188,0.028,0.202,0.324-0.003,0.33c-2.267,0.048-5.318,0.32-7.36-0.758L644.892,531.142z"/>
	<path clip-path="url(#SVGID_2_)" fill="#FFFFFF" d="M706.892,507.254c1.262-1.861,2.829-3.502,4.075-5.382
		c1.414-2.137,2.489-4.494,3.444-6.844c0.094-0.232,0.439-0.084,0.365,0.144c-1.416,4.292-3.838,9.462-7.705,12.252L706.892,507.254
		z"/>
	<path clip-path="url(#SVGID_2_)" fill="#99CCE0" d="M653.63,532.478c-19.807-7.922-41.469,12.198-41.469,12.198
		s18.57-18.345,18.959-44.389c0.28-18.551-16.833-45.505-22.848-46.426c-6.016-0.923-22.462,16.412-26.44,49.388
		c-1.856,15.389,6.204,38.519,6.204,38.519s-14.253-31.418-44.715-32.009c-2.344,7.692,5.949,24.594,12.161,34.623
		c5.39,8.704,18.92,23.973,48.22,20.594C639.778,560.815,654.079,532.658,653.63,532.478"/>
	<path clip-path="url(#SVGID_2_)" fill="#FFFFFF" d="M615.146,467.086c-2.447,5.104-4.967,10.065-8.042,14.842
		c0.271-7.853,0.69-15.877,0.059-23.664c-0.059-0.705-1.089-0.705-1.146,0c-0.381,4.692-0.361,9.447-0.296,14.198
		c-0.561-1.003-1.049-2.04-1.426-3.133c-0.577-1.689-0.39-3.413-0.604-5.144l-0.386-0.051c-1.326,3.108,0.348,6.835,2.431,9.414
		c0.048,3.259,0.105,6.51,0.055,9.737c-0.123,8.055-0.452,16.104-1.03,24.145c-3.141-8.794-7.124-17.132-9.736-26.132l-0.396,0.048
		c1.259,9.243,5.762,18.384,9.919,26.74l0.164,0.092l-0.034,0.516c-0.776,10.312-2.073,20.656-4.256,30.808
		c-5.929-9.561-9.912-19.208-13.442-29.796c-0.081-0.241-0.436-0.141-0.39,0.104c1.847,10.315,6.754,22.097,13.636,30.301l0.06,0.03
		c-1.473,6.729-3.335,13.369-5.712,19.859c-0.115,0.313,0.396,0.443,0.518,0.136c5.971-15.554,8.908-31.827,10.461-48.278
		c0.848-8.974,1.222-17.984,1.466-26.987c0.015-0.674,0.039-1.354,0.065-2.03c3.613-4.585,6.876-10.076,8.291-15.663
		L615.146,467.086z"/>
	<path clip-path="url(#SVGID_2_)" fill="#FFFFFF" d="M647.274,533.165c-3.475,2.304-6.547,5.114-10.035,7.428
		c-2.631,1.745-5.385,3.317-8.178,4.819c2.44-2.191,4.754-4.627,6.78-7.152l-0.295-0.218c-2.846,2.144-5.053,5.095-7.449,7.675
		l-0.022,0.23c-1.175,0.622-2.356,1.236-3.542,1.841c-5.363,2.735-10.93,5.162-16.354,7.823c3.315-2.688,6.169-5.854,9.665-8.377
		c0.229-0.166,0.038-0.489-0.228-0.373c-4.546,2.011-7.676,6.235-11.211,9.479l-0.074,0.181c-2.063,1.044-4.101,2.129-6.088,3.29
		c-0.352,0.204-0.046,0.675,0.313,0.513c8.709-3.882,17.438-7.856,25.923-12.171c7.229-3.672,16.294-8.1,21.243-14.561
		C647.915,533.339,647.538,532.99,647.274,533.165"/>
	<path clip-path="url(#SVGID_2_)" fill="#FFFFFF" d="M591.221,557.527c-1.212-0.754-2.407-1.524-3.604-2.295l-0.002-0.019
		c-1.832-3.367-4.404-6.39-6.264-9.798c-2.076-3.8-3.783-7.87-4.923-12.024l-0.334,0.089c0.683,4.366,2.502,8.407,4.499,12.363
		c1.278,2.53,2.785,5.64,4.841,7.959c-4.37-2.889-8.609-5.918-12.647-9.199c-2.85-7.308-5.822-14.575-8.681-21.88
		c-0.104-0.265-0.535-0.164-0.449,0.115c2.192,7.074,4.663,14.356,8.157,20.977c-2.213-1.83-4.362-3.733-6.441-5.737
		c-2.253-2.169-4.356-4.468-6.342-6.859l0.096-0.201c-1.291-4.752-3.165-9.604-4.995-14.195l-0.308,0.082
		c1.558,4.287,2.278,9.293,4.455,13.379c-1.373-1.707-2.704-3.446-3.943-5.244c-2.854-4.14-4.3-8.865-6.918-13.054
		c-0.135-0.221-0.567-0.145-0.536,0.143c0.438,4.303,3.348,8.709,5.644,12.33c3.072,4.856,6.93,9.252,10.99,13.368
		c5.869,5.953,12.674,11.444,19.995,15.918c-2.642-0.215-5.237-0.292-7.885-0.945c-3.453-0.849-6.658-2.551-9.776-4.161
		c-0.252-0.132-0.467,0.221-0.226,0.373c5.412,3.333,12.522,6.683,19.179,5.485c2.036,1.202,4.104,2.347,6.209,3.382
		C591.252,557.995,591.449,557.67,591.221,557.527"/>
	<path clip-path="url(#SVGID_2_)" fill="#FFFFFF" d="M623.737,506.696c-3.802,5.347-6.416,11.582-9.692,17.244
		c-3.78,6.535-8.14,12.53-13.135,18.271l0.217,0.206c5.188-4.886,9.184-10.8,12.856-16.775c3.664-5.963,7.561-12.317,10.139-18.787
		C624.213,506.628,623.866,506.524,623.737,506.696"/>
	<path clip-path="url(#SVGID_2_)" fill="#FFFFFF" d="M621.889,480.662c-5.524,10.077-9.783,20.48-16.068,30.198l0.274,0.203
		c7.365-8.63,11.786-20.043,16.165-30.253L621.889,480.662z"/>
	<path clip-path="url(#SVGID_2_)" fill="#FFFFFF" d="M631.322,549.329c-2.304,0.413-4.532,1.205-6.74,1.944
		c-2.478,0.825-5.025,1.363-7.518,2.117l0.045,0.34c4.698-0.082,9.977-2.534,14.263-4.226L631.322,549.329z"/>
	<path clip-path="url(#SVGID_2_)" fill="#FFFFFF" d="M646.775,537.411c-1.388,0.499-2.614,1.359-3.934,2.01
		c-1.406,0.697-2.825,1.331-4.176,2.123c-0.202,0.117-0.069,0.466,0.169,0.379c2.641-0.975,6.297-2.05,8.116-4.223L646.775,537.411z
		"/>
	<path clip-path="url(#SVGID_2_)" fill="#FFFFFF" d="M563.343,538.039c-2.383-1.573-5.007-2.755-7.38-4.357
		c-2.695-1.822-5.11-4.055-7.381-6.331c-0.224-0.227-0.549,0.103-0.35,0.331c3.768,4.311,9.137,9.175,14.986,10.637L563.343,538.039
		z"/>
	<path clip-path="url(#SVGID_2_)" fill="#99CCE0" d="M494.087,545.569c15.869-6.346,33.223,9.774,33.223,9.774
		s-14.877-14.697-15.189-35.563c-0.225-14.862,13.486-36.455,18.305-37.194c4.819-0.738,17.994,13.149,21.183,39.567
		c1.487,12.328-4.971,30.858-4.971,30.858s11.418-25.17,35.822-25.645c1.879,6.164-4.766,19.703-9.742,27.738
		c-4.319,6.973-15.158,19.206-38.63,16.499C505.184,568.271,493.727,545.713,494.087,545.569"/>
	<path clip-path="url(#SVGID_2_)" fill="#FFFFFF" d="M524.917,493.182c1.96,4.09,3.979,8.063,6.441,11.89
		c-0.217-6.291-0.552-12.72-0.045-18.957c0.045-0.565,0.872-0.565,0.918,0c0.307,3.759,0.29,7.568,0.237,11.374
		c0.448-0.804,0.841-1.634,1.143-2.511c0.462-1.354,0.312-2.733,0.483-4.12l0.309-0.041c1.063,2.491-0.277,5.477-1.946,7.544
		c-0.038,2.609-0.084,5.213-0.044,7.8c0.099,6.452,0.362,12.9,0.827,19.343c2.515-7.045,5.706-13.724,7.798-20.936l0.318,0.04
		c-1.01,7.403-4.617,14.727-7.947,21.421l-0.129,0.073l0.024,0.414c0.622,8.261,1.662,16.548,3.411,24.682
		c4.749-7.66,7.94-15.39,10.769-23.87c0.065-0.195,0.349-0.113,0.312,0.083c-1.479,8.263-5.41,17.701-10.923,24.275l-0.049,0.022
		c1.181,5.391,2.672,10.711,4.577,15.911c0.092,0.251-0.318,0.355-0.415,0.108c-4.783-12.46-7.138-25.499-8.38-38.678
		c-0.681-7.189-0.979-14.407-1.175-21.621c-0.012-0.538-0.032-1.084-0.052-1.626c-2.896-3.672-5.509-8.072-6.645-12.548
		L524.917,493.182z"/>
	<path clip-path="url(#SVGID_2_)" fill="#FFFFFF" d="M499.179,546.12c2.784,1.846,5.246,4.097,8.04,5.95
		c2.107,1.398,4.313,2.657,6.551,3.862c-1.954-1.757-3.809-3.708-5.434-5.73l0.238-0.176c2.28,1.718,4.047,4.082,5.968,6.149
		l0.018,0.184c0.941,0.499,1.888,0.991,2.838,1.476c4.297,2.191,8.756,4.136,13.102,6.268c-2.657-2.153-4.942-4.691-7.743-6.712
		c-0.184-0.133-0.03-0.392,0.184-0.298c3.641,1.61,6.147,4.995,8.981,7.594l0.058,0.145c1.652,0.837,3.285,1.706,4.878,2.637
		c0.281,0.163,0.037,0.54-0.251,0.41c-6.978-3.11-13.971-6.295-20.769-9.751c-5.791-2.941-13.054-6.488-17.019-11.665
		C498.665,546.259,498.967,545.979,499.179,546.12"/>
	<path clip-path="url(#SVGID_2_)" fill="#FFFFFF" d="M544.085,565.637c0.972-0.604,1.928-1.222,2.888-1.84l0.002-0.014
		c1.468-2.698,3.528-5.119,5.018-7.849c1.663-3.046,3.03-6.307,3.943-9.635l0.268,0.071c-0.548,3.5-2.004,6.735-3.604,9.904
		c-1.024,2.027-2.231,4.52-3.877,6.376c3.5-2.314,6.897-4.741,10.132-7.369c2.284-5.854,4.665-11.676,6.955-17.528
		c0.081-0.212,0.428-0.131,0.359,0.092c-1.758,5.668-3.735,11.502-6.534,16.807c1.771-1.467,3.495-2.992,5.16-4.598
		c1.805-1.737,3.489-3.58,5.079-5.495l-0.075-0.161c1.033-3.808,2.535-7.695,4-11.373l0.248,0.065
		c-1.248,3.436-1.826,7.446-3.569,10.719c1.1-1.367,2.166-2.761,3.16-4.2c2.286-3.317,3.443-7.103,5.541-10.458
		c0.108-0.177,0.453-0.115,0.431,0.113c-0.353,3.448-2.684,6.978-4.522,9.879c-2.461,3.89-5.553,7.412-8.806,10.709
		c-4.7,4.771-10.151,9.17-16.017,12.753c2.116-0.173,4.194-0.234,6.315-0.757c2.767-0.681,5.334-2.044,7.831-3.334
		c0.203-0.106,0.375,0.178,0.182,0.299c-4.335,2.671-10.031,5.354-15.363,4.395c-1.633,0.963-3.287,1.88-4.976,2.709
		C544.061,566.011,543.903,565.752,544.085,565.637"/>
	<path clip-path="url(#SVGID_2_)" fill="#FFFFFF" d="M518.034,524.915c3.047,4.284,5.142,9.279,7.767,13.814
		c3.026,5.234,6.519,10.039,10.521,14.638l-0.173,0.164c-4.155-3.914-7.357-8.65-10.298-13.438
		c-2.937-4.777-6.059-9.867-8.124-15.051C517.654,524.86,517.933,524.776,518.034,524.915"/>
	<path clip-path="url(#SVGID_2_)" fill="#FFFFFF" d="M519.516,504.056c4.427,8.074,7.838,16.409,12.873,24.194l-0.22,0.163
		c-5.9-6.914-9.441-16.058-12.95-24.237L519.516,504.056z"/>
	<path clip-path="url(#SVGID_2_)" fill="#FFFFFF" d="M511.958,559.068c1.847,0.331,3.631,0.966,5.4,1.559
		c1.985,0.662,4.025,1.092,6.022,1.695l-0.035,0.273c-3.766-0.065-7.993-2.03-11.428-3.386L511.958,559.068z"/>
	<path clip-path="url(#SVGID_2_)" fill="#FFFFFF" d="M499.578,549.521c1.112,0.399,2.095,1.091,3.151,1.611
		c1.127,0.557,2.264,1.065,3.345,1.699c0.164,0.095,0.058,0.372-0.135,0.304c-2.114-0.781-5.044-1.642-6.503-3.382L499.578,549.521z
		"/>
	<path clip-path="url(#SVGID_2_)" fill="#FFFFFF" d="M566.42,550.024c1.908-1.261,4.012-2.207,5.912-3.49
		c2.159-1.459,4.093-3.249,5.912-5.072c0.179-0.182,0.44,0.082,0.28,0.265c-3.019,3.453-7.32,7.351-12.006,8.521L566.42,550.024z"/>
	<path clip-path="url(#SVGID_2_)" fill="#4C6580" d="M619.072,362.36c0,0-20.905,6.703-24.108,9.148l0.524,2.587l24.313-9.314
		L619.072,362.36z"/>
	<path clip-path="url(#SVGID_2_)" fill="#BC956B" d="M733.068,464.797l-9.903,9.433l-11.748-9.959c0,0,3.253-1.971,4.205-7.043
		L733.068,464.797z"/>
	<path clip-path="url(#SVGID_2_)" fill="#BC956B" d="M584.971,379.417c-32.727,33.459-68.967,49.125-107.044,11.923
		c-5.055-4.755-12.819,0.443-9.882,6.784c35.231,60.102,93.833,49.123,139.993,7.146
		C627.646,390.258,603.403,363.002,584.971,379.417"/>
	<path clip-path="url(#SVGID_2_)" fill="#5190B7" d="M469.024,402.917c0.809,1.441,1.701,2.983,2.793,4.709
		c3.345,5.285,9.967,11.837,20.436,22.93c15.727,13.273,36.705,21.062,58.923,19.556c0.005,0,0.009-0.004,0.016-0.004
		c15.066-1.019,30.707-6.313,45.666-17.074c5.021-3.607,9.963-7.831,14.782-12.717l-18.262-46.567c0,0-10.92,4.44-16.322,8.794
		c-36.041,29.031-50.315,42.851-90.134,14.311c-1.651-1.178-3.344-2.438-5.081-3.772c-0.474,1.307-1.342,3.137-2.979,4.908
		C475.282,401.868,470.578,402.706,469.024,402.917"/>
	<path clip-path="url(#SVGID_2_)" fill="#BC956B" d="M450.397,391.56c-6.086,0.62-6.839-7.778-0.483-4.645l-0.105,0.009
		C452.947,386.519,453.548,391.243,450.397,391.56"/>
	<path clip-path="url(#SVGID_2_)" fill="#BC956B" d="M450.973,388.296c-8.093-1.32-3.647-9.199,0-4.793
		c-0.02-0.056-0.064-0.057,0.043,0.005c0.103,0.056,0.295,0.118,0.431,0.141c0.003,0.001,0.064,0.007-0.019-0.001
		C454.585,383.888,454.123,388.624,450.973,388.296"/>
	<path clip-path="url(#SVGID_2_)" fill="#BC956B" d="M451.438,384.456l-2.25-0.942c-2.92-1.173-0.933-5.532,1.953-4.275l2.25,0.941
		C456.312,381.354,454.324,385.711,451.438,384.456"/>
	<path clip-path="url(#SVGID_2_)" fill="#BC956B" d="M477.54,390.977c-1.17-0.978-2.869-2.617-4.223-5.022
		c-1.547-2.75-1.461-4.397-2.216-5.785c-1.195-2.196-6.102,1.778-16.246-3.809l-6.023,14.358c0,0,8.795,9.522,22.24,10.91
		L477.54,390.977z"/>
	<path clip-path="url(#SVGID_2_)" fill="#BC956B" d="M463.765,379.99c-2.216-2.488-25.353-11.202-25.751-6.303
		c-0.235,1.955,2.196,2.031,3.607,2.368c5.299,1.24,10.48,3.257,15.05,6.107c2.43,1.151,4.563,4.912,7.517,2.802
		C465.979,383.672,465.644,381.041,463.765,379.99"/>
	<path clip-path="url(#SVGID_2_)" fill="#BC956B" d="M458.439,368.255c2.338,6.016,4.626,12.207,6.461,18.348
		c1.642,5.205,8.82,2.532,7.374-2.738c-2.432-8.864-5.575-11.832-10.171-17.329C460.581,364.714,457.51,366.119,458.439,368.255"/>
	<path clip-path="url(#SVGID_2_)" fill="#987957" d="M452.256,390.972c1.782-2.012-0.562-4.241-0.095-1.965
		c0.152,2.309-1.91,1.774-2.131,2.595C450.464,392.407,451.827,391.44,452.256,390.972"/>
	<path clip-path="url(#SVGID_2_)" fill="#987957" d="M453.358,387.695c0.788-0.671,1.041-3.358-0.326-3.302
		c-0.507,0.655,1.143,1.729-0.509,3.106c-1.085,0.867-2.625,0.305-3.73-0.239c-0.516-0.11-1.313-1.452-1.896-1.055
		c-0.14,0.137-0.139,0.363,0.007,0.5C448.478,388.254,451.576,389.651,453.358,387.695"/>
	<path clip-path="url(#SVGID_2_)" fill="#987957" d="M454.567,384.048c1.2-1.331,0.674-3.509-1.027-4.191l-2.251-0.941
		c-0.434-0.188-0.736,0.467-0.295,0.646l2.249,0.941c2.484,0.999,0.786,4.696-1.658,3.63c-0.045-0.017-2.091-0.719-3.302-1.894
		c-0.143-0.138-0.376-0.14-0.521-0.003c-0.146,0.137-0.146,0.359-0.004,0.497C450.44,384.749,452.482,385.971,454.567,384.048"/>
	<path clip-path="url(#SVGID_2_)" fill="#987957" d="M467.4,391.15c-5.246-4.065-5.221-12.816-4.898-12.892
		c-1.664-1.564-1.641,10.35,4.309,12.862C467.032,391.213,467.247,391.329,467.4,391.15"/>
	<path clip-path="url(#SVGID_2_)" fill="#4080A0" d="M551.19,450.108c15.066-1.019,30.707-6.313,45.666-17.074l-9.729-5.33
		C587.128,427.704,576.456,443.627,551.19,450.108"/>
	<path clip-path="url(#SVGID_2_)" fill="#5190B7" d="M589.953,440.441c4.676,14.604,9.26,20.424,14.115,41.738
		c6.361,27.931,3.394,45.252,9.796,53.679c18.643,24.541,94.604,3.864,105.582-25.161c3.404-8.998-5.307-11.569-18.056-54.193
		c-16.595-55.479-16.679-59.847-67.961-91.729c-12.131-2.352-27.618,1.514-35.446,6.59l-4.605,2.385
		C582.783,404.529,585.38,426.16,589.953,440.441"/>
	<path clip-path="url(#SVGID_2_)" fill="#4080A0" d="M675.918,401.552c0,0,17.931,24.296,25.473,54.951
		c-3.169-16.522-9.012-38.604-19.297-54.921l-1.765-2.676l-4.405,2.642L675.918,401.552z"/>
	<path clip-path="url(#SVGID_2_)" fill="#BC956B" d="M610.214,388.387l0.428,9.31l-3.88-9.379l-9.698-12.704l-1.872-2.45l0.923-7.9
		l18.842-7.062c0.294,1.188,1.102,2.744,1.928,4.12c1.076,1.79,2.173,3.288,2.173,3.288L610.214,388.387z"/>
	<path clip-path="url(#SVGID_2_)" fill="#987957" d="M616.884,362.321c-7.557,7.747-16.743,12.001-19.82,13.294l-1.872-2.451
		l0.924-7.9l18.841-7.062C615.25,359.389,616.058,360.945,616.884,362.321"/>
	<path clip-path="url(#SVGID_2_)" fill="#BC956B" d="M705.312,468.799c-3.373,2.617-6.773,3.778-6.78,3.805
		c-0.808,0.175-1.626,0.342-2.436,0.503c-1.48,0.29-2.969,0.564-4.462,0.815c-2.986,0.505-5.993,0.932-9.013,1.282h-0.006
		c-0.704,0.082-1.251,0.653-1.253,1.349c-0.003,0.753,0.635,1.364,1.423,1.366c3.097,0.008,6.197-0.063,9.299-0.215
		c1.55-0.075,3.101-0.175,4.652-0.292c0.611-0.048,1.217-0.098,1.823-0.15c0.008,0.025,0.018,0.049,0.025,0.074
		c-1.574,0.689-3.163,1.356-4.765,1.992c-1.799,0.719-3.616,1.391-5.449,2.025c-1.828,0.645-3.683,1.209-5.544,1.755l-0.033,0.009
		c-0.69,0.205-1.119,0.881-0.972,1.572c0.158,0.734,0.91,1.21,1.682,1.061c1.968-0.385,3.933-0.79,5.874-1.278
		c1.943-0.478,3.877-0.996,5.793-1.563c1.889-0.554,3.766-1.141,5.631-1.769c0.009,0.009,0.018,0.02,0.024,0.029
		c-0.563,0.365-1.131,0.73-1.711,1.08c-1.312,0.791-2.651,1.555-4.022,2.264c-1.373,0.71-2.766,1.394-4.189,2.016
		c-1.417,0.64-2.868,1.205-4.329,1.757l-0.03,0.011c-0.662,0.25-1.04,0.938-0.854,1.612c0.2,0.727,0.98,1.161,1.741,0.97
		c1.582-0.397,3.166-0.815,4.723-1.312c1.563-0.48,3.104-1.027,4.635-1.609c1.531-0.58,3.039-1.22,4.533-1.901
		c0.747-0.34,1.488-0.699,2.228-1.068c0.334-0.17,0.659-0.337,0.986-0.509c0.017,0.012,0.034,0.023,0.052,0.036
		c-0.311,0.271-0.619,0.542-0.938,0.809c-0.953,0.791-1.946,1.554-2.96,2.3c-1.016,0.743-2.057,1.464-3.117,2.163
		c-1.06,0.7-2.144,1.373-3.237,2.036l-0.016,0.009c-0.589,0.356-0.83,1.081-0.537,1.706c0.322,0.688,1.166,0.995,1.887,0.688
		c1.218-0.521,2.434-1.055,3.634-1.626c1.201-0.568,2.395-1.163,3.574-1.791c1.178-0.632,2.345-1.29,3.496-1.996
		c0.576-0.354,1.148-0.715,1.717-1.098l0.854-0.587c0.107-0.079,0.208-0.152,0.312-0.227c1.495-0.338,8.342-5.179,13.91-12.672
		c4.859-6.538-4.075-10.702-7.101-11.342c-2.834-0.6-5.076,2.17-6.508,2.204c-0.728-0.174-4.853-0.188-5.585-0.313L705.312,468.799z
		"/>
	<path clip-path="url(#SVGID_2_)" fill="#5190B7" d="M623.056,364.209c8.588,31.637,56.741,43.106,56.741,43.106
		c3.8,0.199,15.754-0.025,27.206,6.472c11.562,6.789,18.384,24.578,8.348,43.418c-0.869,1.636-1.868,3.28-3,4.924
		c0,0,5.563,9.282,13.162,10.762c1.435-0.978,3.458-2.449,5.7-4.427c12.665-11.183,20.354-28.053,20.601-42.819
		c0.487-29.314-28.396-48.421-35.235-52.945C677.313,346.724,629.692,361.973,623.056,364.209"/>
	<path clip-path="url(#SVGID_2_)" fill="#84245F" d="M470.236,401.725l0.549,0.862c0,0-1.327,0.279-1.761,0.33
		C469.024,402.917,469.945,401.884,470.236,401.725"/>
	<path clip-path="url(#SVGID_2_)" fill="#84245F" d="M481.259,394.465l-0.945-0.861c0,0,1.133-0.574,1.527-0.521
		C481.841,393.083,481.423,394.282,481.259,394.465"/>
	<path clip-path="url(#SVGID_2_)" fill="#5190B7" d="M609.463,374.813l2.177,14.367c0,0,14.532-12.252,11.418-24.97l-3.985-1.85
		C618.864,366.723,615.813,371.151,609.463,374.813"/>
	<path clip-path="url(#SVGID_2_)" fill="#5190B7" d="M595.863,372.448c0.438,0.25,3.357,6.644,7.748,7.729l1.917,9.576
		c0,0-10.978-5.034-12.15-16.003l1.586-2.241L595.863,372.448z"/>
	<path clip-path="url(#SVGID_2_)" fill="#5190B7" d="M605.529,389.751l-0.841-4.192c0,0,2.863,1.694,3.313,2.607
		c0.449,0.913,8.876,32.49,8.876,32.49l-2.192,0.636L605.529,389.751z"/>
	<polygon clip-path="url(#SVGID_2_)" fill="#5190B7" points="611.64,389.178 618.062,420.274 614.913,421.292 608.787,388.068 
		611.047,384.719 	"/>
	<path clip-path="url(#SVGID_2_)" fill="#BC956B" d="M601.064,370.28c-1.616,0.841-4.846,2.222-8.856,1.853
		c-2.761-0.254-5.653-1.346-9.332-4.286c-8.344-6.665-11.852-15.746-14.656-23.268c-0.851-2.277-2.944-8.177-4.282-16.18
		c-1.604-9.601-1.53-13.788-1.618-17.722c-0.021-0.953,1.094-6.484,1.746-7.222c8.847-10.015,36.812-4.496,36.816-4.466
		c0,0.002-0.072,0.016-0.158,0.031c5.134,0.879,12.067,2.883,18.568,7.618C640.123,319.261,620.723,360.793,601.064,370.28"/>
	<path clip-path="url(#SVGID_2_)" fill="#111010" d="M625.354,346.398c-0.415,1.306-1.256,3.346-3.005,5.389
		c-2.333,2.723-5.053,4.017-6.482,4.581c1.103-1.434,2.27-3.139,3.381-5.12c1.356-2.416,2.317-4.682,3.007-6.647
		C623.287,345.201,624.32,345.798,625.354,346.398"/>
	<path clip-path="url(#SVGID_2_)" fill="#BC956B" d="M601.236,370.813c-1.622,0.844-4.864,2.229-8.887,1.859
		c-2.77-0.255-5.671-1.351-9.363-4.3c-8.372-6.687-11.89-15.798-14.705-23.343c-0.853-2.286-2.952-8.207-4.294-16.235
		c-1.611-9.631-1.538-13.834-1.625-17.78c-0.021-0.956,1.098-6.504,1.752-7.246c8.876-10.048,36.935-4.511,36.939-4.48
		c0,0.002-0.075,0.015-0.159,0.031c2.328,0.399,8.776-2.206,11.638-1.197c3.466,1.222,3.419,6.236,6.992,8.838
		C640.423,319.625,620.958,361.293,601.236,370.813"/>
	<path clip-path="url(#SVGID_2_)" fill="#111010" d="M622.191,339.811c2.126-2.496,4.256-5.011,6.388-7.544
		c1.464-1.74,2.918-3.477,4.365-5.21c2.172-2.603,3.652-5.703,4.064-9.009c0.036-0.286,0.065-0.575,0.087-0.872
		c0.22-2.957-0.379-5.152-1.127-7.905c-1.146-4.214-2.778-7.135-3.757-8.862c-2.158-3.803-3.928-5.572-4.76-6.347
		c-2.683-2.497-4.291-2.734-5.135-2.755c-1.375-0.033-2.48,0.468-3.132,0.839c-0.694-1.716-2.27-4.907-5.636-7.666
		c-3.934-3.222-8.083-4.027-9.645-4.312c-4.756-0.864-10.06,0.821-20.666,4.192c-4.983,1.584-7.363,2.577-9.894,4.312
		c-4.642,3.18-6.229,6.41-6.639,7.306c-0.544,1.188-0.837,2.243-1.002,2.994c-1.261,0.892-3.237,2.535-4.759,5.149
		c-2.067,3.551-2.122,6.885-2.13,8.743c-0.007,1.686,0.191,3.648,2.881,11.497c0.812,2.366,1.934,5.518,3.382,9.222
		c-1.518-5.365-1.212-9.381-0.626-12.096c0.454-2.105,1.003-3.078,1.879-7.186c0.765-3.589,1.014-5.979,1.127-7.545
		c0.123-1.697,0.14-3.133,0.125-4.192c1.49,0.634,3.817,1.494,6.763,2.036c5.609,1.032,10.102,0.292,22.92-2.515
		c5.099-1.117,9.576-2.135,13.277-2.994c-0.688,2.198-2.4,8.698,0.375,16.287c2.946,8.055,9.065,12.197,11.022,13.414
		C622.025,332.465,622.108,336.138,622.191,339.811"/>
	<path clip-path="url(#SVGID_2_)" fill="#484443" d="M576.695,294.227c1.082-0.032,2.261-0.121,3.516-0.292
		c2.438-0.333,4.549-0.896,6.285-1.491c-0.941,1.32-2.368,2.994-4.445,4.551c-1.127,0.844-2.221,1.487-3.194,1.977
		c3.328,0.247,7.618,0.266,12.524-0.479c4.204-0.639,7.769-1.673,10.584-2.695c-2.938,1.864-8.96,5.141-17.348,5.989
		c-7.2,0.728-12.985-0.654-16.219-1.678c2.28-0.458,4.98-1.19,7.89-2.396c1.797-0.743,3.382-1.546,4.76-2.335
		c-0.973,0.277-2.725,0.644-4.885,0.359c-1.912-0.252-3.352-0.911-4.196-1.377C573.543,294.315,575.119,294.271,576.695,294.227"/>
	<path clip-path="url(#SVGID_2_)" fill="#484443" d="M616.336,305.08c-0.099,1.982,0.013,5.011,1.222,8.442
		c1.815,5.157,5.114,8.391,6.856,9.882c-1.175-0.424-5.115-2-7.515-6.108C613.57,311.593,616.013,305.81,616.336,305.08"/>
	<path clip-path="url(#SVGID_2_)" fill="#484443" d="M621.033,312.085c0.618,1.461,1.563,3.289,3.005,5.21
		c1.65,2.193,3.4,3.774,4.791,4.851c-0.886-0.168-3.351-0.752-5.354-2.875C620.693,316.323,620.975,312.708,621.033,312.085"/>
	<path clip-path="url(#SVGID_2_)" fill="#484443" d="M564.265,311.188c0.064,0.652,0.123,1.737-0.062,3.055
		c-0.272,1.937-0.842,2.749-1.129,4.669c-0.109,0.741-0.214,1.89-0.062,3.354c-0.075-1.943-0.132-3.807-0.188-5.809
		c-0.029-1.003-0.049-2.1,0.437-3.413C563.567,312.224,563.965,311.598,564.265,311.188"/>
	<path clip-path="url(#SVGID_2_)" fill="#BC956B" d="M622.151,345.206c0.668,0.776,1.776,1.038,2.377,1.179
		c2.175,0.513,4-0.356,4.491-0.588c1.708-0.814,2.953-3.024,5.372-7.412c0.691-1.255,1.372-2.774,2.73-5.81
		c0.839-1.875,1.265-2.92,0.969-4.211c-0.045-0.197-0.537-2.213-2.026-2.695c-1.629-0.527-3.479,1.099-5.813,3.2
		c-1.632,1.47-3.503,3.184-5.372,6.232C623.488,337.372,620.126,342.857,622.151,345.206"/>
	<path clip-path="url(#SVGID_2_)" fill="#FFFFFF" d="M577.304,335.71c-1.052-0.02-2.109,0.087-3.121,0.176
		c-0.737,0.1-1.479,0.194-2.209,0.345l-0.007-0.006c-4.732-0.886-6.061-5.286-6.061-5.286c0.224-0.057,0.914-0.126,1.879-0.202
		c0.315-0.025,0.665-0.05,1.04-0.075c2.096-0.151,4.922-0.302,7.242-0.415c0.337-0.019,0.665-0.032,0.98-0.051
		c1.847-0.094,3.182-0.158,3.182-0.158S581.058,334.068,577.304,335.71"/>
	<path clip-path="url(#SVGID_2_)" fill="#3F2E20" d="M576.134,330.901c0,0.031,0,0.056-0.006,0.088
		c-0.046,2.004-1.906,3.538-4.181,3.451c-0.218-0.014-0.422-0.039-0.632-0.076c-0.04-0.006-0.072-0.012-0.104-0.02
		c-0.02-0.006-0.026-0.006-0.053-0.006l-0.283-0.075c-1.716-0.471-2.997-1.886-3.089-3.527c0.315-0.025,0.663-0.05,1.038-0.076
		c2.097-0.15,4.923-0.302,7.245-0.414c0.031,0.176,0.059,0.346,0.059,0.516C576.134,330.813,576.134,330.851,576.134,330.901"/>
	<path clip-path="url(#SVGID_2_)" fill="#FFFFFF" d="M605.517,328.658c0,0-0.689,4.538-5.252,6.021
		c-0.007-0.007-0.007-0.007-0.013,0.006c-0.744-0.058-1.486-0.058-2.229-0.058c-1.025,0.045-2.084,0.076-3.129,0.228
		c-3.944-1.138-3.694-5.236-3.694-5.236s0.821-0.068,2.07-0.17c0.342-0.03,0.711-0.056,1.104-0.088
		c2.117-0.176,4.903-0.388,7.178-0.534c0.362-0.025,0.711-0.044,1.039-0.063C604.098,328.67,605.214,328.625,605.517,328.658"/>
	<path clip-path="url(#SVGID_2_)" fill="#3F2E20" d="M601.553,328.827c0.139,1.635-0.933,3.205-2.568,3.903l-0.271,0.113
		c-0.027,0-0.034,0-0.054,0.006c-0.032,0.012-0.059,0.025-0.099,0.039c-0.203,0.062-0.407,0.112-0.617,0.149
		c-2.241,0.384-4.3-0.898-4.627-2.878c-0.014-0.025-0.014-0.056-0.014-0.088c-0.013-0.044-0.021-0.082-0.021-0.132
		c-0.025-0.17-0.02-0.327-0.013-0.49c0.343-0.032,0.71-0.057,1.104-0.088C596.492,329.185,599.279,328.971,601.553,328.827"/>
	<path clip-path="url(#SVGID_2_)" d="M587.426,353.351c-3.271,1.486-7.14,1.862-10.565,1.021c1.729,0.035,3.433-0.212,4.991-0.706
		c1.56-0.49,2.973-1.231,4.156-2.136c0.546-0.417,1.372-0.387,1.847,0.068C588.425,352.128,588.199,353.033,587.426,353.351"/>
	<path clip-path="url(#SVGID_2_)" d="M593.527,350.557c3.363,2.003,8.091,3.716,12.26,3.48c-4.174,1.092-9.471,0.117-13.795-1.402
		C589.736,351.77,591.46,349.435,593.527,350.557"/>
	<path clip-path="url(#SVGID_2_)" fill="#111010" d="M582.256,318.687c-0.141,2.411-0.049,5.004-0.192,7.064
		c-1.493-1.632-4.708-3.958-5.772-4.503c-0.81-0.416-4.973-2.708-8.098-1.298c-2.205,0.993-2.692,3.281-2.975,3.156
		c-0.549-0.242,0.552-6.492,4.061-7.563c0.47-0.143,0.929-0.162,1.848-0.2c0.459-0.02,2.337-0.077,4.917,0.594
		C578.627,316.606,580.723,317.697,582.256,318.687"/>
	<path clip-path="url(#SVGID_2_)" fill="#111010" d="M587.911,319.43c0.97,2.599,1.167,3.401,1.765,5.845
		c0.763-0.683,1.846-1.632,3.178-2.738c1.914-1.589,2.871-2.383,3.939-3.098c1.833-1.228,3.763-2.519,6.565-3.021
		c1.237-0.222,2.8-0.497,4.653,0.097c1.749,0.56,2.918,1.666,3.789,2.53c-0.179-0.8-1.106-4.538-4.736-6.572
		c-1.426-0.8-2.813-1.081-3.784-1.182c-2.172,0.36-5.479,1.168-9.016,3.159C591.332,316.102,589.256,317.994,587.911,319.43"/>
	<path clip-path="url(#SVGID_2_)" fill="#987957" d="M584.11,326.965c-0.56,3.609-1.486,7.168-2.697,10.629
		c-0.741,2.185-2.037,4.473-1.149,6.739c0.817,2.151,3.18,3.692,5.606,3.513c1.227-0.056,2.438-0.5,3.486-1.175
		c-0.933,0.829-2.146,1.382-3.441,1.587c-4.26,0.62-7.912-3.562-6.559-7.462C581.02,336.171,582.757,331.686,584.11,326.965"/>
	<path clip-path="url(#SVGID_2_)" fill="#652B28" d="M580.649,359.5c-0.202-0.395,3.846-3.468,9.313-4.367
		c3.485-0.574,5.903,0.005,6.446,0.144c3.214,0.818,5.781,2.719,5.601,3.09c-0.189,0.387-3.203-1.366-7.449-1.816
		C586.733,355.719,580.892,359.971,580.649,359.5"/>
	<path clip-path="url(#SVGID_2_)" fill="#987957" d="M590.52,360.192c1.771-0.612,3.37-0.594,4.358-0.491
		c2.356,0.242,4.017,1.246,4.774,1.773c-1.522-0.422-3.55-0.827-5.955-0.893c-1.851-0.05-3.47,0.113-4.78,0.333
		C589.296,360.701,589.837,360.427,590.52,360.192"/>
	<path clip-path="url(#SVGID_2_)" fill="#E2C294" d="M372.845,447.856c8.018-12.41,12.236-25.648,18.552-38.364
		c4.356-8.61-8.049-18.229-11.956-9.431c-2.892,6.512-9.545,13.575-13.455,19.178L372.845,447.856z"/>
	<path clip-path="url(#SVGID_2_)" fill="#F7E07C" d="M390.236,420.763c-0.867,4.572-2.779,11.226-6.848,20.398
		c-9.22,20.803-31.104,41.033-60.214,42.019c-7.154,0.243-14.816-0.778-22.182-2.565h-0.005
		c-16.173-3.921-30.929-11.534-35.82-17.633c-0.702-0.875-1.31-2.239-1.833-3.983c-4.792-15.964-2.635-63.924-2.635-63.924
		c1.066,1.504,9.7,4.471,29.8,25.396c16.939,17.635,41.03,23.684,56.347,9.001c7.816-7.504,16.513-16.64,23.058-21.834l0.006,0.001
		c2.837-2.255,5.271-3.775,7.049-4.089c0,0,4.88,7.774,13.802,8.962C390.761,412.512,391.342,414.962,390.236,420.763"/>
	<path clip-path="url(#SVGID_2_)" fill="#CCAE1B" d="M300.988,480.614c-16.173-3.92-30.93-11.532-35.821-17.633
		c-0.701-0.874-1.309-2.238-1.832-3.983l18.213-18.821c0,0,3.065,8.934,4.148,18.713
		C286.785,468.666,291.64,475.419,300.988,480.614"/>
	<path clip-path="url(#SVGID_2_)" fill="#CCAE1B" d="M390.236,420.763c-12.198-0.673-20.138-13.172-20.326-13.124
		c2.837-2.255,5.271-3.775,7.049-4.089c0,0,4.88,7.774,13.802,8.962C390.761,412.512,391.342,414.962,390.236,420.763"/>
	<path clip-path="url(#SVGID_2_)" fill="#E2C294" d="M408.712,387.979c6.836-2.3,3.172-11.644-1.954-5.201l0.116-0.042
		C403.303,383.831,405.174,389.173,408.712,387.979"/>
	<path clip-path="url(#SVGID_2_)" fill="#E2C294" d="M406.359,384.769c7.949-5.35-0.999-11.608-2.551-5.123
		c-0.009-0.07,0.038-0.094-0.045,0.025c-0.079,0.109-0.253,0.271-0.384,0.36c-0.004,0.004-0.066,0.041,0.02-0.009
		C400.151,381.815,403.166,386.655,406.359,384.769"/>
	<path clip-path="url(#SVGID_2_)" fill="#E2C294" d="M403.817,380.89l1.903-2.101c2.498-2.677-1.948-6.369-4.364-3.622l-1.904,2.102
		C396.955,379.945,401.399,383.637,403.817,380.89"/>
	<path clip-path="url(#SVGID_2_)" fill="#E2C294" d="M379.382,400.568c0,0,5.284-20.992,16.472-26.669l14.083,12.418
		c0,0-2.515,13.194-18.54,23.175L379.382,400.568z"/>
	<path clip-path="url(#SVGID_2_)" fill="#E2C294" d="M388.26,382.116c1.046-3.738,23.812-25.082,24.176-19.274
		c0.147,2.332-1.896,3.892-3.224,4.938c-5.006,3.906-8.843,7.933-12.211,13.204c-1.984,2.414-2.263,7.473-6.545,6.656
		C387.855,387.13,386.812,384.155,388.26,382.116"/>
	<path clip-path="url(#SVGID_2_)" fill="#E2C294" d="M388.891,370.062c0.703,7.571,1.894,13.125,3.201,20.585
		c1.017,6.365-8.334,7.041-9.342,0.662c-1.348-8.536,0.843-15.631,1.648-23.479C384.622,365.077,388.747,367.328,388.891,370.062"/>
	<path clip-path="url(#SVGID_2_)" fill="#B59B76" d="M406.411,388.254c-2.975-1.283-1.656-4.808-0.944-2.147
		c1.068,2.543,2.987,0.967,3.659,1.74C409.092,388.917,407.121,388.546,406.411,388.254"/>
	<path clip-path="url(#SVGID_2_)" fill="#B59B76" d="M403.488,385.288c-1.2-0.333-2.899-3.083-1.41-3.688
		c0.89,0.454-0.301,2.404,2.198,3.072c1.621,0.398,2.97-0.951,3.863-2.07c0.491-0.371,0.628-2.191,1.464-2.051
		c0.223,0.079,0.343,0.321,0.258,0.537C409.005,383.509,406.437,386.512,403.488,385.288"/>
	<path clip-path="url(#SVGID_2_)" fill="#B59B76" d="M400.255,381.977c-1.993-0.838-2.59-3.423-1.133-4.98l1.904-2.103
		c0.363-0.411,1.037,0.142,0.66,0.547l-1.904,2.102c-2.125,2.276,1.661,5.403,3.706,3.074c0.04-0.04,1.852-1.787,2.521-3.632
		c0.079-0.218,0.327-0.333,0.556-0.257c0.228,0.078,0.349,0.313,0.27,0.532C405.039,380.717,403.508,383.018,400.255,381.977"/>
	<path clip-path="url(#SVGID_2_)" fill="#B59B76" d="M393.504,394.451c0.489-6.607-3.184-16.181-3.57-16.105
		c0.947-2.481,5.164,8.521,4.184,15.787C394.079,394.403,393.76,394.567,393.504,394.451"/>
	<path clip-path="url(#SVGID_2_)" fill="#F7E07C" d="M266.375,549.773c-53.134,18.985-122.098-10.566-122.098-10.566
		s17.411-49.291,21.945-63.564c1.076-3.385,1.889-6.803,2.257-10.063c1.907-16.973-4.295-56.005,39.07-75.766
		c0,0,4.771,3.911,12.099,3.65c0,0,10.585,15.983,23.239,9.792c4.899-2.398-1.645-9.846-0.243-9.235
		c6.863,2.991,12.404,1.483,12.404,1.483c17.707,18.991,27.239,37.341,28.25,51.102
		C284.877,468.133,262.604,519.265,266.375,549.773"/>
	<path clip-path="url(#SVGID_2_)" fill="#E2C294" d="M68.494,364.377c-0.938,0.018-1.683,0.76-1.664,1.657l0.002,0.115
		c0.015,0.729,0.053,1.454,0.052,2.176c-0.032,0.724-0.008,1.444-0.083,2.161c-0.073,1.3-0.267,2.582-0.5,3.845
		c-3.712-3.467-6.404-7.989-6.438-7.994c-0.327-0.892-0.647-1.797-0.956-2.692c-0.563-1.639-1.108-3.288-1.623-4.948
		c-1.034-3.316-1.976-6.667-2.824-10.042l-0.001-0.006c-0.197-0.789-0.982-1.331-1.846-1.238c-0.935,0.101-1.607,0.906-1.502,1.8
		c0.413,3.512,0.924,7.018,1.536,10.513c0.304,1.748,0.639,3.493,0.997,5.237c0.142,0.686,0.288,1.366,0.437,2.046
		c-0.03,0.012-0.059,0.027-0.089,0.039c-1.072-1.691-2.116-3.401-3.125-5.129c-1.138-1.942-2.222-3.911-3.259-5.9
		c-1.051-1.987-2.004-4.012-2.937-6.048l-0.017-0.036c-0.348-0.756-1.246-1.149-2.084-0.888c-0.893,0.28-1.379,1.199-1.087,2.052
		c0.745,2.179,1.519,4.353,2.388,6.485c0.858,2.14,1.766,4.26,2.731,6.355c0.946,2.065,1.933,4.114,2.968,6.142
		c-0.011,0.012-0.022,0.023-0.033,0.033c-0.532-0.588-1.062-1.183-1.575-1.792c-1.162-1.378-2.294-2.793-3.362-4.253
		c-1.07-1.458-2.109-2.945-3.077-4.473c-0.987-1.52-1.889-3.087-2.772-4.669l-0.019-0.032c-0.4-0.718-1.307-1.053-2.118-0.75
		c-0.876,0.326-1.31,1.27-0.967,2.106c0.709,1.74,1.446,3.479,2.275,5.176c0.809,1.708,1.7,3.379,2.63,5.036
		c0.929,1.656,1.931,3.277,2.982,4.879c0.524,0.801,1.071,1.592,1.63,2.381c0.258,0.355,0.509,0.701,0.768,1.047
		c-0.013,0.022-0.026,0.042-0.039,0.063c-0.378-0.314-0.758-0.626-1.133-0.953c-1.111-0.972-2.196-1.994-3.26-3.04
		c-1.063-1.051-2.1-2.134-3.113-3.24c-1.015-1.106-1.999-2.243-2.972-3.392l-0.014-0.018c-0.523-0.62-1.457-0.793-2.193-0.375
		c-0.809,0.458-1.076,1.458-0.596,2.231c0.813,1.31,1.644,2.615,2.516,3.898c0.87,1.285,1.773,2.556,2.715,3.807
		c0.945,1.25,1.922,2.482,2.956,3.693c0.519,0.603,1.045,1.204,1.599,1.795l0.844,0.887c0.112,0.112,0.217,0.218,0.324,0.324
		c0.625,1.649,3.321,7.289,12.705,13.621c3.074,2.076,12.48-1.651,13.855-4.933c1.546-3.689,0.81-9.708,0.572-11.326
		c0.117-0.848,0.202-1.694,0.256-2.541c0.068-1.621,0.073-3.232-0.075-4.824c-0.038-0.798-0.179-1.587-0.266-2.375
		c-0.117-0.786-0.274-1.562-0.412-2.339C70.068,364.951,69.347,364.36,68.494,364.377"/>
	<path clip-path="url(#SVGID_2_)" fill="#E2C294" d="M201.232,430.855c-21.78,14.646-44.799,30.512-72.182,34.08
		c-37.222,6.871-56.146-20.548-66.073-50.247c-2.44-6.61-4.653-13.089-7.053-19.356c-1.605-4.119,0.604-8.705,4.92-10.214
		c3.884-1.361,8.145,0.232,10.094,3.581c3.606,6.179,6.911,12.349,10.275,18.268c8.47,14.141,19.25,36.019,39.112,29.516
		c23.999-4.878,41.225-22.051,59.967-36.097C201.937,385.806,223.873,417.6,201.232,430.855"/>
	<path clip-path="url(#SVGID_2_)" fill="#F7E07C" d="M148.545,472.571c-47.569,11.691-74.278-17.947-84.356-39.171
		c-5.225-11.008-7.121-20.573-7.734-27.236c-0.573-6.19-0.042-9.868-0.042-9.868c10.03,1.048,15.181-5.645,15.181-5.645
		c2.672-0.044,5.667,1.776,8.818,4.635c10.363,9.419,20.237,26.371,31.736,28.348c15.13,2.599,34.663-3.669,53.088-17.568
		c18.599-14.029,42.312-16.253,42.312-16.253s0.679,10.491,6.928,21.95C220.73,423.218,204.444,458.832,148.545,472.571"/>
	<path clip-path="url(#SVGID_2_)" fill="#CCAE1B" d="M192.936,439.637c-7.51,17.148-26.285,35.585-26.715,36.005
		c1.076-3.385,1.891-6.803,2.259-10.063C176.321,459.504,192.433,440.24,192.936,439.637"/>
	<path clip-path="url(#SVGID_2_)" fill="#CCAE1B" d="M80.412,395.286c-5.56,7.933-23.782,10.858-23.957,10.877
		c-0.573-6.189-0.042-9.868-0.042-9.868c10.029,1.048,15.182-5.646,15.182-5.646C74.266,390.605,77.26,392.427,80.412,395.286"/>
	<path clip-path="url(#SVGID_2_)" fill="#91476A" d="M207.624,377c0.419,2.098,0.897,5.476,0.514,9.576
		c-0.412,4.417-1.626,7.553-1.942,8.465c-2.242,6.464,0.704,16.479,8.447,32.791c9.133,19.242,13.7,28.863,20.948,31.984
		c8.662,3.731,20.594,3.098,28.042-2.906c4.277-3.448,5.835-8.168,8.953-17.608c3.196-9.676,5.355-16.214,3.716-24.554
		c-0.684-3.483-2.718-10.78-9.966-18.253C246.765,389.997,227.194,383.499,207.624,377"/>
	<path clip-path="url(#SVGID_2_)" fill="#E2C294" d="M282.984,363.083c-0.796,2.84-3.655,12.385-11.144,22.731
		c-5.088,7.033-8.435,9.069-11.474,10.063c-1.102,0.359-4.241,1.344-8.07,0.645c-3.451-0.629-5.747-2.443-10.194-6.052
		c-4.79-3.887-7.187-5.829-8.893-8.68c-1.877-3.13-2.347-6.131-3.284-12.128c-0.958-6.131-0.897-11.008-0.846-14.003
		c0.057-3.494,0.299-6.423,0.529-8.544c4.427-4.144,9.301-8.582,14.611-13.238c6.317-5.536,9.627-8.208,14.889-9.812
		c2.722-0.831,6.327-1.875,10.29-0.628c4.004,1.264,6.12,4.16,8.965,8.052c2.208,3.017,5.503,7.524,6.724,14.08
		C286.211,351.57,284.973,355.983,282.984,363.083"/>
	<path clip-path="url(#SVGID_2_)" fill="#B59B76" d="M261.314,356.216c0.575,2.702,1.293,5.311,2.129,7.936
		c0.269,0.819,0.649,1.689,0.81,2.503c0.069,0.385,0.048,0.678-0.107,0.944c-0.161,0.302-0.537,0.524-0.826,0.725
		c-2.277,1.339-5.473,0.754-7.704-0.499c2.06,2,5.638,2.851,8.307,1.422c2.565-1.313,1.342-3.527,0.589-5.458
		C263.541,361.238,262.576,358.658,261.314,356.216"/>
	<path clip-path="url(#SVGID_2_)" fill="#240F0F" d="M265.535,347.401c-0.221-0.228,2.379-3.171,5.568-5.627
		c1.965-1.515,3.803-2.573,5.193-3.281c0.254-0.13,0.537-0.193,0.824-0.185c0.735,0.023,1.575,0.106,2.489,0.299
		c1.91,0.4,3.407,1.123,4.447,1.749c0.104,0.063,0.054,0.217-0.068,0.214c-0.355-0.009-0.711-0.021-1.067-0.031
		c-4.107-0.127-4.465-0.242-5.226-0.217c-1.701,0.059-3.979,1.585-8.466,4.637C266.56,346.774,265.656,347.525,265.535,347.401"/>
	<path clip-path="url(#SVGID_2_)" fill="#240F0F" d="M258.33,346.708c0.24-0.21-2.115-3.337-5.096-6.022
		c-1.838-1.655-3.584-2.846-4.913-3.655c-0.243-0.148-0.519-0.232-0.807-0.244c-0.735-0.031-1.58-0.011-2.506,0.112
		c-1.937,0.258-3.488,0.87-4.576,1.417c-0.107,0.055-0.07,0.212,0.052,0.217c0.354,0.018,0.709,0.033,1.066,0.049
		c4.104,0.176,4.47,0.087,5.228,0.17c1.691,0.183,3.839,1.875,8.066,5.249C257.358,346.008,258.199,346.824,258.33,346.708"/>
	<path clip-path="url(#SVGID_2_)" fill="#B59B76" d="M254.275,358.752c1.531-4.683-0.881-9.588-4.385-11.559
		c-4.042-2.275-8.993-0.18-9.718,0.169c-2.545,1.223-3.826,3.206-4.595,4.241c0.604,1.32,2.395,4.751,6.357,6.803
		C247.612,361.345,253.296,359.149,254.275,358.752"/>
	<path clip-path="url(#SVGID_2_)" fill="#FFFFFF" d="M254.167,359.084c0.758-4.458-1.165-8.725-4.695-10.61
		c-4.075-2.177-8.61-0.279-9.32,0.016c-2.485,1.04-3.999,2.672-4.731,3.589c0.639,1.216,2.519,4.378,6.506,6.349
		C247.643,361.252,253.209,359.417,254.167,359.084"/>
	<path clip-path="url(#SVGID_2_)" fill="#746653" d="M242.347,352.905c-0.895,2.736,0.701,5.647,3.561,6.501
		c2.861,0.855,5.905-0.668,6.799-3.404s-0.7-5.646-3.562-6.502C246.286,348.645,243.242,350.169,242.347,352.905"/>
	<path clip-path="url(#SVGID_2_)" fill="#3A332A" d="M246.511,354.208c-0.411,1.258,0.322,2.599,1.638,2.992
		c1.316,0.393,2.718-0.308,3.129-1.567c0.411-1.259-0.322-2.599-1.638-2.991C248.323,352.249,246.923,352.951,246.511,354.208"/>
	<path clip-path="url(#SVGID_2_)" fill="#FFFFFF" d="M246.693,352.351c-0.154,0.47,0.12,0.97,0.611,1.117
		c0.491,0.147,1.015-0.114,1.168-0.584c0.153-0.471-0.12-0.97-0.611-1.117C247.37,351.619,246.846,351.88,246.693,352.351"/>
	<path clip-path="url(#SVGID_2_)" fill="#433015" d="M235.421,352.08c0.878-0.602,1.718-1.284,2.678-1.752
		c0,0,1.458-0.713,2.88-1.015c3.122-0.66,7.563,0.762,10.375,3.837c1.965,2.149,2.601,4.521,2.833,5.873
		c0.961-2.343,0.386-5.083-1.044-7.258C249.09,345.618,239.065,345.489,235.421,352.08"/>
	<path clip-path="url(#SVGID_2_)" fill="#433015" d="M238.077,349.345c-1.063-0.67-1.958-1.693-2.282-2.891
		c0.116,0.963,0.596,1.861,1.241,2.604c0.222,0.253,0.449,0.486,0.728,0.712L238.077,349.345z"/>
	<path clip-path="url(#SVGID_2_)" fill="#433015" d="M237.012,350.232c-0.976-0.317-2.033-0.866-2.427-1.838
		c0.165,0.803,0.815,1.43,1.492,1.892c0.234,0.159,0.468,0.301,0.739,0.431L237.012,350.232z"/>
	<path clip-path="url(#SVGID_2_)" fill="#433015" d="M235.984,351.127c-0.563-0.05-1.165-0.259-1.575-0.655
		c-0.145-0.134-0.253-0.3-0.347-0.479c0.135,0.613,0.638,1.097,1.205,1.39c0.197,0.102,0.388,0.188,0.623,0.256L235.984,351.127z"/>
	<path clip-path="url(#SVGID_2_)" fill="#B59B76" d="M266.356,359.734c-0.559-4.631,2.604-8.803,6.241-10.047
		c4.197-1.437,8.43,1.359,9.042,1.808c2.15,1.574,2.977,3.644,3.503,4.741c-0.811,1.13-3.12,4.028-7.2,5.271
		C272.094,363.287,267.196,360.271,266.356,359.734"/>
	<path clip-path="url(#SVGID_2_)" fill="#FFFFFF" d="M266.396,360.063c0.12-4.291,2.708-7.948,6.354-9.108
		c4.209-1.34,8.091,1.201,8.698,1.599c2.127,1.392,3.238,3.174,3.75,4.154c-0.822,1.025-3.164,3.658-7.253,4.822
		C272.084,363.196,267.228,360.537,266.396,360.063"/>
	<path clip-path="url(#SVGID_2_)" fill="#746653" d="M272.2,357.179c0.327,2.706,2.854,4.587,5.684,4.275
		c2.83-0.313,4.891-2.701,4.564-5.408c-0.328-2.706-2.886-4.645-5.715-4.332C273.903,352.027,271.874,354.473,272.2,357.179"/>
	<path clip-path="url(#SVGID_2_)" fill="#3A332A" d="M276.313,357.014c0.149,1.246,1.328,2.138,2.63,1.994
		c1.302-0.144,2.236-1.27,2.085-2.515c-0.15-1.244-1.328-2.137-2.63-1.994C277.097,354.642,276.163,355.769,276.313,357.014"/>
	<path clip-path="url(#SVGID_2_)" fill="#FFFFFF" d="M276.209,354.788c0.057,0.465,0.496,0.798,0.981,0.744
		c0.487-0.053,0.834-0.474,0.779-0.938c-0.057-0.465-0.496-0.798-0.983-0.744C276.501,353.902,276.152,354.324,276.209,354.788"/>
	<path clip-path="url(#SVGID_2_)" fill="#433015" d="M285.198,356.708c-0.708-0.71-1.366-1.491-2.174-2.089
		c0,0-1.229-0.915-2.501-1.438c-2.761-1.136-6.91-0.541-9.97,1.544c-2.562,1.747-3.699,4.088-4.166,5.277
		c-0.462-2.351,0.584-4.811,2.323-6.599C273.638,348.353,283.021,349.937,285.198,356.708"/>
	<path clip-path="url(#SVGID_2_)" fill="#433015" d="M283.227,353.703c1.116-0.445,2.141-1.248,2.667-2.312
		c-0.287,0.88-0.902,1.637-1.642,2.221c-0.254,0.198-0.509,0.376-0.811,0.541L283.227,353.703z"/>
	<path clip-path="url(#SVGID_2_)" fill="#433015" d="M284.056,354.712c0.97-0.13,2.06-0.462,2.607-1.304
		c-0.303,0.722-1.025,1.197-1.744,1.514c-0.249,0.107-0.492,0.202-0.77,0.275L284.056,354.712z"/>
	<path clip-path="url(#SVGID_2_)" fill="#433015" d="M284.85,355.723c0.536,0.049,1.135-0.044,1.592-0.343
		c0.16-0.101,0.292-0.238,0.413-0.39c-0.241,0.551-0.8,0.917-1.383,1.094c-0.203,0.061-0.398,0.109-0.629,0.133L284.85,355.723z"/>
	<path clip-path="url(#SVGID_2_)" fill="#2E2A41" d="M232.536,341.896c10.456-6.135,19.562-7.69,24.696-8.152
		c2.784-0.25,6.243-0.538,10.632,0.258c9.333,1.692,15.551,6.953,18.432,9.779c-0.124-2.193-0.546-5.409-1.971-9.02
		c-1.146-2.902-3.923-9.938-10.917-13.349c-5.855-2.856-11.749-1.749-14.633-1.207C242.542,323.255,234.067,338.942,232.536,341.896
		"/>
	<path clip-path="url(#SVGID_2_)" fill="#91476A" d="M292.656,331.171c-1.057-3.348-2.777-6.535-3.661-8.17
		c-2.429-4.5-4.842-7.614-5.676-8.664c-2.729-3.432-5.443-6.851-10.278-9.847c-3.224-2.001-6.111-3.018-7.599-3.484
		c-4.601-1.438-8.28-1.483-11.967-1.53c-2.556-0.032-6.565-0.056-11.671,1.049c-4.665,1.012-8.547,2.602-11.58,4.174
		c-4.637,3.794-10.178,9.382-14.617,17.165c-2.483,4.353-4.961,10.244-6.716,17.994c-0.321,1.42-0.819,8.196-1.806,21.686
		c-0.51,6.771,0.02,12.227,0.623,15.994c0.439,2.739,0.922,4.483,1.889,7.97c2.089,7.536,3.195,8.353,4.009,8.685
		c2.487,1.011,4.686-1.522,7.469-0.111c0.779,0.395,0.917,0.885,2.563,2.601c1.285,1.338,2.713,2.88,4.237,4.621
		c-0.402,0.242-1.803,1.151-2.39,2.937c-0.4,1.227-0.201,2.289-0.061,2.968c1.013,4.855,1.519,7.284,2.711,9.343
		c0.768,1.326,3.144,5.302,8.202,7.935c1.558,0.813,4.671,2.384,8.921,2.276c3.872-0.1,6.602-1.535,8.586-2.573
		c1.447-0.764,5.039-2.702,7.798-6.692c1.05-1.525,1.572-2.814,2.612-5.392c0,0,1.172-2.904,1.127-6.416
		c-0.002-0.243-0.023-0.695-0.349-1.071c-0.38-0.436-0.965-0.528-1.241-0.553c2.15-1.035,4.853-2.548,7.693-4.73
		c3.896-2.996,6.282-5.89,6.991-6.775c3.014-3.768,4.366-7.065,6.944-13.505c2.494-6.237,3.821-11.114,4.142-12.315
		c1.797-6.721,2.435-11.862,2.955-16.187C293.671,340.992,294.215,336.112,292.656,331.171 M282.984,363.083
		c-0.796,2.84-3.655,12.385-11.144,22.731c-5.088,7.033-8.435,9.069-11.474,10.063c-1.102,0.359-4.241,1.344-8.07,0.645
		c-3.451-0.629-5.747-2.443-10.194-6.052c-4.79-3.887-7.187-5.829-8.893-8.68c-1.877-3.13-2.347-6.131-3.284-12.128
		c-0.958-6.131-0.897-11.008-0.846-14.003c0.057-3.494,0.299-6.423,0.529-8.544c4.427-4.144,9.301-8.582,14.611-13.238
		c6.317-5.536,9.627-8.208,14.889-9.812c2.722-0.831,6.327-1.875,10.29-0.628c4.004,1.264,6.12,4.16,8.965,8.052
		c2.208,3.017,5.503,7.524,6.724,14.08C286.211,351.57,284.973,355.983,282.984,363.083"/>
	<path clip-path="url(#SVGID_2_)" fill="#7C3759" d="M238.375,322.824c-2.439,3.381-5.456,8.552-6.969,15.344
		c-0.577,2.594-0.84,4.996-0.922,7.125c-0.325,0.249-0.649,0.498-0.975,0.748c-0.34-2.563-0.712-8.212,2.2-14.427
		C233.727,327.31,236.523,324.44,238.375,322.824"/>
	<path clip-path="url(#SVGID_2_)" fill="#7C3759" d="M233.864,336.088c4.21-7.365,11.659-13.176,20.181-15.313
		C245.971,324.57,239.643,329.52,233.864,336.088"/>
	<path clip-path="url(#SVGID_2_)" fill="#7C3759" d="M286.573,333.865c0.861,7.268,1.056,17.517-2.123,29.018
		c-1.183,4.278-3.377,11.959-9.286,20.413c-2.485,3.555-4.957,6.29-6.859,8.205c2.285-2.075,4.571-4.149,6.855-6.223
		c-0.843,2.648-2.583,6.849-6.284,10.956c-2.31,2.563-4.71,4.342-6.627,5.539c1.895-0.481,4.78-1.494,7.535-3.746
		c6.134-5.017,6.735-12.197,6.83-13.802c4.609-6.044,6.985-11.591,8.272-15.42c1.865-5.547,2.272-10.553,3.084-20.564
		c0.132-1.634,0.294-4.039,0-7.15C287.684,338.055,287.079,335.575,286.573,333.865"/>
	<path clip-path="url(#SVGID_2_)" fill="#7C3759" d="M231.646,380.883c0.399,2.702,1.511,7.669,5.088,12.849
		c3.538,5.124,7.819,8.04,10.249,9.458c-1.994-1.416-4.575-3.571-6.976-6.674c-3.22-4.16-4.724-8.219-5.461-10.871
		C233.579,384.058,232.613,382.471,231.646,380.883"/>
	<path clip-path="url(#SVGID_2_)" fill="#7C3759" d="M232.916,403.848c0.79,1.218,3.143,4.484,7.719,6.327
		c5.302,2.135,10.044,0.933,11.377,0.548c-1.063,0.729-3.112,1.905-5.909,2.144c-5.906,0.508-9.972-3.603-10.519-4.175
		c0.072,0.781,0.47,4.106,3.452,6.731c3.214,2.828,7.056,2.753,7.797,2.725c-1.014,0.342-2.878,0.803-5.034,0.325
		c-4.349-0.963-6.254-4.929-6.669-5.793c-1.016-2.115-1.116-4.088-1.061-5.314C233.685,406.193,233.3,405.021,232.916,403.848"/>
	<path clip-path="url(#SVGID_2_)" fill="#7C3759" d="M261.585,406.623c-0.283,0.91-1.663,4.994-6.056,7.333
		c-3.03,1.614-5.937,1.57-7.165,1.483c1.181,0.412,3.426,0.993,6.059,0.42c0.483-0.106,5.783-1.344,7.083-5.634
		C261.954,408.752,261.774,407.43,261.585,406.623"/>
	<path clip-path="url(#SVGID_2_)" fill="#652B28" d="M264.589,384.109c-0.701-1.067-2.751-3.86-6-4.271
		c-1.727-0.217-3.247,0.305-5.722,1.158c-1.946,0.669-3.48,1.429-4.527,2.006c0.729-0.835,2.033-2.114,4.038-3.103
		c1.238-0.61,3.379-1.694,6.161-1.379c1.003,0.112,3.706,0.417,5.167,2.56C264.497,382.241,264.593,383.453,264.589,384.109"/>
	<path clip-path="url(#SVGID_2_)" fill="#B59B76" d="M261.287,386.8c-0.84-0.615-2.734-1.813-5.353-1.911
		c-0.93-0.035-1.744,0.078-2.397,0.225c1.425-1.151,3.344-1.505,5.004-0.9C260.404,384.893,261.147,386.487,261.287,386.8"/>
	<path clip-path="url(#SVGID_2_)" fill="#7C3759" d="M217.301,412.177c0,0,6.218,26.151,15.615,34.875
		c9.396,8.725,21.41,8.574,24.369,4.212c-1.194,1.936-2.565,3.031-3.685,3.683c-5.561,3.23-14.499,1.038-22.299-5.487
		c-2.699-3.618-5.676-8.302-8.211-14.062C219.087,426.303,217.74,418.054,217.301,412.177"/>
	<path clip-path="url(#SVGID_2_)" fill="#7C3759" d="M270.592,424.231c0,0-5.787,29.591-30.167,19.662
		c0,0,12.426,9.792,20.763,0.609S270.592,424.231,270.592,424.231"/>
	<path clip-path="url(#SVGID_2_)" fill="#BDDEEF" d="M317.654,229.355c-12.076-2.281-17.95-15.453-11.622-25.55
		c19.588-31.246,54.136-52.306,91.354-62.199c41.816-11.114,87.614-5.604,126.794,12.25c8.977,4.089,18.014,9.134,23.261,17.208
		c7.074,10.888,5.568,25.615-1.637,36.423c-7.205,10.808-19.273,18.011-32.013,21.996c-12.74,3.985-26.249,5.059-39.624,5.898
		c-52.164,3.275-104.921,3.358-156.275-5.983C317.813,229.384,317.733,229.37,317.654,229.355"/>
	
		<ellipse clip-path="url(#SVGID_2_)" fill="none" stroke="#FFFFFF" stroke-width="1.663" stroke-miterlimit="10" cx="544.004" cy="218.703" rx="40.444" ry="38.675"/>
	
		<ellipse clip-path="url(#SVGID_2_)" fill="none" stroke="#FFFFFF" stroke-width="1.663" stroke-miterlimit="10" cx="314.787" cy="252.696" rx="9.589" ry="9.17"/>
	<path clip-path="url(#SVGID_2_)" fill="#BDDEEF" d="M508.366,326.637c0,5.064-4.293,9.17-9.589,9.17
		c-5.297,0-9.591-4.106-9.591-9.17s4.294-9.17,9.591-9.17C504.073,317.467,508.366,321.573,508.366,326.637"/>
	<path clip-path="url(#SVGID_2_)" fill="#BDDEEF" d="M337.124,155.867c0,5.064-4.294,9.17-9.59,9.17s-9.59-4.106-9.59-9.17
		c0-5.064,4.294-9.17,9.59-9.17S337.124,150.802,337.124,155.867"/>
	
		<ellipse clip-path="url(#SVGID_2_)" fill="none" stroke="#FFFFFF" stroke-width="0.699" stroke-miterlimit="10" cx="331.563" cy="268.429" rx="4.029" ry="3.853"/>
</g>
<g>
	<defs>
		<rect id="SVGID_3_" x="-170.747" y="-233.347" width="1111.456" height="1062.805"/>
	</defs>
	<clipPath id="SVGID_4_">
		<use xlink:href="#SVGID_3_"  overflow="visible"/>
	</clipPath>
	<path clip-path="url(#SVGID_4_)" fill="#BDDEEF" d="M244.676,194.834c9.664,11.642,2.779,32.25-15.378,46.032
		c-18.157,13.782-40.709,15.517-50.373,3.875c-9.665-11.641-2.779-32.251,15.378-46.032
		C212.46,184.928,235.013,183.193,244.676,194.834"/>
	<path clip-path="url(#SVGID_4_)" fill="#BDDEEF" d="M266.537,173.636c0,6.949-5.224,12.581-11.669,12.581
		c-6.444,0-11.668-5.632-11.668-12.581c0-6.948,5.224-12.58,11.668-12.58C261.313,161.056,266.537,166.688,266.537,173.636"/>
	<path clip-path="url(#SVGID_4_)" fill="#4C6580" d="M609.463,374.813c1.242,4.602,2.288,9.242,3.233,13.903l-1.097-0.366
		c1.696-1.569,3.321-3.303,4.766-5.124c4.332-5.374,7.782-12.063,6.692-19.016c2.924,9.44-3.545,18.916-10.578,25.094l-0.907,0.762
		C610.72,385,609.974,379.922,609.463,374.813"/>
	<path clip-path="url(#SVGID_4_)" fill="#4C6580" d="M595.863,372.448c2.06,2.812,4.16,6.443,7.846,7.366l0.229,0.054l0.057,0.239
		l2.259,9.512l0.327,1.374l-1.371-0.605c-6.321-3.453-11.317-9.569-11.831-16.638c0.535,3.376,1.989,6.589,4.286,9.2
		c2.203,2.567,5.086,4.739,8.183,6.166l-1.043,0.769l-1.576-9.637l0.286,0.292C599.588,379.253,597.837,375.564,595.863,372.448"/>
	<path clip-path="url(#SVGID_4_)" fill="#4C6580" d="M610.88,385.5c3.323,11.404,5.732,23.009,7.42,34.729l0.028,0.221
		c-1.21,0.292-2.421,0.586-3.644,0.843c1.094-0.436,2.199-0.837,3.303-1.241l-0.166,0.268
		C614.725,408.865,612.34,397.257,610.88,385.5"/>
	<path clip-path="url(#SVGID_4_)" fill="#4C6580" d="M609.445,394.646c0.073,0.383-0.095,0.732-0.376,0.781
		c-0.279,0.049-0.566-0.221-0.641-0.604c-0.072-0.382,0.095-0.731,0.376-0.78C609.085,393.993,609.372,394.263,609.445,394.646"/>
	<path clip-path="url(#SVGID_4_)" fill="#4C6580" d="M607.921,389.229c0.074,0.383-0.094,0.733-0.375,0.782
		c-0.28,0.049-0.566-0.221-0.641-0.604c-0.072-0.381,0.095-0.731,0.376-0.78C607.561,388.576,607.848,388.847,607.921,389.229"/>
	<path clip-path="url(#SVGID_4_)" fill="#4C6580" d="M612.536,400.373c0.073,0.383-0.094,0.733-0.375,0.781
		c-0.28,0.049-0.568-0.221-0.641-0.604c-0.074-0.381,0.095-0.73,0.375-0.779C612.176,399.72,612.463,399.991,612.536,400.373"/>
	<path clip-path="url(#SVGID_4_)" fill="#4C6580" d="M613.672,406.303c0.073,0.383-0.095,0.733-0.376,0.782
		c-0.279,0.049-0.566-0.221-0.641-0.604c-0.072-0.381,0.095-0.73,0.376-0.779C613.313,405.651,613.599,405.921,613.672,406.303"/>
	<path clip-path="url(#SVGID_4_)" fill="#4C6580" d="M615.216,412.708c0.073,0.383-0.094,0.732-0.375,0.781
		c-0.28,0.049-0.567-0.221-0.641-0.604c-0.074-0.382,0.095-0.731,0.376-0.78C614.855,412.055,615.143,412.326,615.216,412.708"/>
	<path clip-path="url(#SVGID_4_)" fill="#4C6580" d="M616.576,418.494c0.073,0.383-0.095,0.732-0.376,0.781
		c-0.28,0.049-0.567-0.221-0.64-0.604c-0.074-0.381,0.094-0.731,0.375-0.78C616.216,417.84,616.503,418.112,616.576,418.494"/>
</g>
</svg>
