<?xml version="1.0" encoding="utf-8"?>
<!-- Generator: Adobe Illustrator 16.0.0, SVG Export Plug-In . SVG Version: 6.00 Build 0)  -->
<!DOCTYPE svg PUBLIC "-//W3C//DTD SVG 1.1//EN" "http://www.w3.org/Graphics/SVG/1.1/DTD/svg11.dtd">
<svg version="1.1" id="Layer_1" xmlns="http://www.w3.org/2000/svg" xmlns:xlink="http://www.w3.org/1999/xlink" x="0px" y="0px"
	 width="1000px" height="1000px" viewBox="0 0 1000 1000" enable-background="new 0 0 1000 1000" xml:space="preserve">
<g>
	<defs>
		<rect id="SVGID_1_" width="1000" height="1000"/>
	</defs>
	<clipPath id="SVGID_2_">
		<use xlink:href="#SVGID_1_"  overflow="visible"/>
	</clipPath>
	<path clip-path="url(#SVGID_2_)" fill="#E3F4FF" d="M187.147,740.42c0,0-133.351-192.226-52.866-268.868
		c80.485-76.642,157.171-8.323,172.499-90.98c14.136-76.234,67.988-150.257,166.001-126.392
		c125.833,30.641,111.93,117.373,173.707,110.882c61.777-6.49,167.448-55.043,186.554,36.891
		c19.104,91.934-70.418,170.782-13.413,164.27c39.176-4.476,89.303-14.486,63.415,80.408c-16.467,60.354-40.481,93.79-40.481,93.79
		H187.147z"/>
	<path clip-path="url(#SVGID_2_)" fill="#99CCE0" d="M170.732,686.822c23.94-10.013,50.122,15.419,50.122,15.419
		s-22.444-23.187-22.915-56.105c-0.339-23.449,20.346-57.519,27.614-58.684c7.271-1.165,27.149,20.746,31.958,62.426
		c2.244,19.45-7.499,48.688-7.499,48.688s17.227-39.712,54.044-40.46c2.833,9.725-7.189,31.086-14.697,43.763
		c-6.516,11.002-22.869,30.301-58.282,26.03C187.474,722.639,170.189,687.051,170.732,686.822"/>
	<path clip-path="url(#SVGID_2_)" fill="#FFFFFF" d="M217.244,604.17c2.957,6.452,6.003,12.722,9.719,18.759
		c-0.328-9.925-0.834-20.069-0.07-29.91c0.07-0.892,1.317-0.892,1.387,0c0.461,5.931,0.436,11.94,0.357,17.946
		c0.677-1.269,1.268-2.578,1.724-3.961c0.697-2.137,0.47-4.314,0.731-6.501l0.464-0.064c1.605,3.929-0.419,8.64-2.937,11.9
		c-0.057,4.117-0.127,8.227-0.066,12.307c0.148,10.18,0.546,20.355,1.247,30.517c3.794-11.114,8.609-21.652,11.766-33.028
		l0.479,0.061c-1.522,11.683-6.964,23.236-11.988,33.799l-0.197,0.115l0.04,0.653c0.937,13.034,2.505,26.107,5.144,38.939
		c7.165-12.085,11.979-24.279,16.248-37.659c0.097-0.308,0.524-0.18,0.47,0.13c-2.233,13.038-8.164,27.929-16.481,38.3l-0.073,0.037
		c1.781,8.506,4.031,16.898,6.904,25.102c0.14,0.397-0.479,0.562-0.625,0.173c-7.216-19.659-10.768-40.229-12.643-61.023
		c-1.025-11.342-1.477-22.73-1.772-34.112c-0.018-0.849-0.048-1.711-0.079-2.565c-4.368-5.795-8.311-12.735-10.022-19.797
		L217.244,604.17z"/>
	<path clip-path="url(#SVGID_2_)" fill="#FFFFFF" d="M178.413,687.689c4.201,2.912,7.914,6.465,12.131,9.39
		c3.179,2.205,6.507,4.191,9.883,6.091c-2.949-2.77-5.746-5.848-8.197-9.04l0.358-0.276c3.44,2.709,6.107,6.441,9.004,9.702
		l0.027,0.291c1.42,0.785,2.848,1.562,4.28,2.326c6.483,3.458,13.211,6.525,19.766,9.889c-4.007-3.396-7.456-7.4-11.681-10.589
		c-0.277-0.21-0.046-0.619,0.275-0.471c5.494,2.542,9.277,7.881,13.551,11.983l0.088,0.227c2.493,1.32,4.957,2.691,7.359,4.159
		c0.425,0.258,0.055,0.852-0.379,0.648c-10.526-4.907-21.077-9.932-31.333-15.386c-8.736-4.641-19.693-10.238-25.675-18.404
		C177.64,687.912,178.095,687.469,178.413,687.689"/>
	<path clip-path="url(#SVGID_2_)" fill="#FFFFFF" d="M246.162,718.482c1.465-0.952,2.909-1.926,4.356-2.899l0.003-0.024
		c2.215-4.256,5.324-8.074,7.572-12.383c2.509-4.805,4.571-9.949,5.948-15.201l0.404,0.113c-0.825,5.521-3.024,10.626-5.436,15.628
		c-1.547,3.197-3.367,7.128-5.852,10.06c5.282-3.652,10.405-7.481,15.286-11.629c3.446-9.235,7.037-18.422,10.493-27.654
		c0.124-0.334,0.646-0.207,0.543,0.145c-2.652,8.943-5.636,18.146-9.859,26.517c2.673-2.315,5.272-4.721,7.784-7.253
		c2.724-2.742,5.266-5.648,7.665-8.671l-0.115-0.255c1.559-6.006,3.825-12.14,6.037-17.941l0.373,0.103
		c-1.884,5.421-2.755,11.748-5.385,16.911c1.66-2.156,3.268-4.355,4.766-6.628c3.449-5.233,5.196-11.206,8.36-16.499
		c0.164-0.279,0.686-0.182,0.649,0.179c-0.53,5.439-4.046,11.009-6.822,15.586c-3.713,6.138-8.375,11.694-13.283,16.896
		c-7.093,7.526-15.316,14.467-24.165,20.121c3.191-0.273,6.328-0.37,9.528-1.195c4.174-1.074,8.048-3.224,11.815-5.26
		c0.307-0.167,0.565,0.279,0.273,0.47c-6.54,4.214-15.134,8.448-23.178,6.936c-2.463,1.519-4.96,2.966-7.505,4.273
		C246.126,719.075,245.886,718.665,246.162,718.482"/>
	<path clip-path="url(#SVGID_2_)" fill="#FFFFFF" d="M206.86,654.233c4.596,6.76,7.757,14.641,11.715,21.796
		c4.569,8.261,9.838,15.839,15.874,23.095l-0.26,0.26c-6.271-6.176-11.1-13.65-15.538-21.203
		c-4.429-7.538-9.14-15.567-12.255-23.747C206.288,654.148,206.706,654.016,206.86,654.233"/>
	<path clip-path="url(#SVGID_2_)" fill="#FFFFFF" d="M209.096,621.327c6.677,12.738,11.825,25.888,19.42,38.17l-0.33,0.258
		c-8.904-10.908-14.245-25.335-19.539-38.24L209.096,621.327z"/>
	<path clip-path="url(#SVGID_2_)" fill="#FFFFFF" d="M197.693,708.12c2.785,0.522,5.479,1.523,8.148,2.457
		c2.994,1.043,6.073,1.724,9.085,2.675l-0.054,0.433c-5.679-0.104-12.058-3.204-17.24-5.343L197.693,708.12z"/>
	<path clip-path="url(#SVGID_2_)" fill="#FFFFFF" d="M179.017,693.057c1.678,0.631,3.161,1.72,4.753,2.542
		c1.702,0.88,3.416,1.681,5.048,2.682c0.246,0.148,0.085,0.588-0.203,0.479c-3.191-1.232-7.611-2.592-9.81-5.337L179.017,693.057z"
		/>
	<path clip-path="url(#SVGID_2_)" fill="#FFFFFF" d="M279.858,693.851c2.879-1.989,6.052-3.481,8.918-5.508
		c3.258-2.303,6.177-5.124,8.922-8.003c0.27-0.285,0.664,0.131,0.421,0.419c-4.553,5.448-11.041,11.597-18.112,13.444
		L279.858,693.851z"/>
	<polygon clip-path="url(#SVGID_2_)" fill="#E5C6A5" points="765.581,530.184 741.021,530.464 738.186,508.201 761.91,507.104 
		763.181,515.063 	"/>
	<path clip-path="url(#SVGID_2_)" fill="#CEB797" d="M762.887,513.222c-0.842,0.792-11.208,10.19-19.418,6.744
		c-0.85-0.356-3.128-1.099-4.022-1.87l-1.261-9.895l23.726-1.098C762.236,509.143,762.562,511.183,762.887,513.222"/>
	<path clip-path="url(#SVGID_2_)" fill="#FFFFFF" d="M213.86,750.375c-0.158,0-0.316-0.067-0.426-0.197
		c-0.199-0.236-0.17-0.586,0.066-0.785l11.523-9.744c0.238-0.2,0.588-0.17,0.786,0.066c0.199,0.234,0.17,0.586-0.065,0.783
		l-11.523,9.744C214.115,750.331,213.988,750.375,213.86,750.375"/>
	<path clip-path="url(#SVGID_2_)" fill="#2E77CE" d="M834.593,711.254c0,0.29-0.01,0.58-0.01,0.859c0,0.08-0.01,0.16-0.01,0.25
		c0,0.07-0.011,0.15-0.011,0.23c-0.02,0.94-0.05,1.84-0.09,2.7c-0.1,2.189-0.76,13.43-1.68,28.58h-100.5
		c-0.09-19.521-0.44-36.9-0.74-48.88v-0.011c-0.27-10.5-0.5-16.85-0.5-16.85s3.82-2.5,8.891-5.57
		c7.35-4.439,17.35-10.069,22.13-10.95c1.319-0.239,3.92,0.57,7.34,2.101c0.55,0.25,1.12,0.51,1.71,0.79
		c6.5,3.1,15.35,8.27,24.04,13.63c7.74,2.05,15.78,5.6,19.54,6.72c1.96,0.59,3.09,0.521,3.7,0.08c2.33-1.649-2.87-8.61,1.05-5.36
		c4.41,3.66,7.42,8.12,9.41,13.171c0.08,0.22,0.17,0.439,0.25,0.659c0.05,0.141,0.109,0.29,0.16,0.431
		c0.68-0.29,1.289-0.58,1.85-0.86c0.01,0,0.01,0,0.01-0.01c1.83-0.94,3.01-1.79,3.28-1.99c0.02-0.02,0.04-0.03,0.06-0.04
		c0,0,0.011,0.2,0.011,0.57c0.01,0.27,0.02,0.63,0.029,1.069C834.593,696.004,834.743,704.214,834.593,711.254"/>
	<path clip-path="url(#SVGID_2_)" fill="#CFE5E1" d="M788.356,680.004c0,0-12.253,1.123-24.202,0
		c-7.9-0.741-14.767-2.517-14.767-2.517s8.37-12.483,17.913-12.487C774.938,664.997,788.356,680.004,788.356,680.004"/>
	<path clip-path="url(#SVGID_2_)" fill="#195193" d="M782.713,743.874h-12.8c1.86-19.061,3.399-36.271,3.399-36.271
		s0.171,3.141,0.45,7.37v0.03c0.49,7.56,1.29,18.569,1.971,21.31C776.553,739.613,779.973,742.153,782.713,743.874"/>
	<path clip-path="url(#SVGID_2_)" fill="#195193" d="M784.484,687.773c8.387,0,15.736-1.227,15.822-1.241
		c0.4-0.069,0.672-0.448,0.604-0.851c-0.069-0.399-0.466-0.662-0.85-0.603c-0.102,0.018-10.075,1.682-19.951,1.099
		c-0.403-0.031-0.755,0.287-0.778,0.693c-0.025,0.404,0.286,0.753,0.692,0.777C781.52,687.735,783.018,687.773,784.484,687.773"/>
	<path clip-path="url(#SVGID_2_)" fill="#195193" d="M764.053,676.634l-0.46-0.03h-0.01l-0.74-0.06l-0.02,0.89
		c0.01,0.01,0,0.01,0,0.01l-0.01,0.55l-0.03,1.87l-0.16,9.16l18.11,1.73l0.06-3.08l0.021-1.471l0.1-5.789l0.05-2.521
		L764.053,676.634z M779.403,682.863l-0.03,1.48l-0.04,2.53v0.05l-0.04,2.22l-15.17-1.45l0.14-7.68l0.03-1.88l15.17,1.13
		l-0.02,1.189L779.403,682.863z"/>
	<path clip-path="url(#SVGID_2_)" fill="#195193" d="M757.103,686.542c0.341,0,0.647-0.239,0.719-0.587
		c0.084-0.397-0.172-0.788-0.57-0.87c-0.05-0.01-4.837-1.009-7.587-2.124c-2.666-1.079-5.03-3.554-5.054-3.579
		c-0.276-0.294-0.743-0.311-1.041-0.028c-0.295,0.28-0.308,0.747-0.028,1.042c0.104,0.11,2.609,2.732,5.569,3.933
		c2.875,1.164,7.641,2.157,7.841,2.198C757.002,686.538,757.053,686.542,757.103,686.542"/>
	<path clip-path="url(#SVGID_2_)" fill="#195193" d="M780.067,684.382c0.383,0,0.706-0.298,0.734-0.687
		c0.026-0.406-0.279-0.759-0.686-0.786l-11.769-0.798c-0.387-0.04-0.758,0.277-0.786,0.686c-0.027,0.404,0.278,0.758,0.685,0.784
		l11.77,0.799C780.032,684.382,780.051,684.382,780.067,684.382"/>
	<path clip-path="url(#SVGID_2_)" fill="#195193" d="M834.623,711.483c0,0.04-0.01,0.26-0.04,0.63c0,0.08-0.01,0.16-0.01,0.25
		c0,0.07-0.011,0.15-0.011,0.23c-0.21,3.64-0.93,15.92-1.819,31.28h-1.48c1.061-18.181,1.87-32.08,1.891-32.471
		c0.02-0.41,0.38-0.7,0.779-0.7c0.32,0.021,0.58,0.25,0.66,0.551C834.613,711.323,834.623,711.403,834.623,711.483"/>
	<path clip-path="url(#SVGID_2_)" fill="#195193" d="M783.833,743.874h-2.49c-2-1.58-4.2-3.7-5.59-6.19
		c-1.74-3.13-2.05-13.87-1.99-22.68v-0.03c0.05-6.53,0.3-11.99,0.33-12.5c0.021-0.41,0.351-0.76,0.771-0.7
		c0.41,0.021,0.72,0.36,0.699,0.771c-0.479,10.12-0.789,30.34,1.48,34.42C778.673,739.894,781.623,742.323,783.833,743.874"/>
	<path clip-path="url(#SVGID_2_)" fill="#195193" d="M824.633,705.074l-28.29-9.271c-0.22-0.07-0.47-0.03-0.66,0.11
		c-0.189,0.14-0.3,0.359-0.3,0.59v3.91c0,0.31,0.19,0.59,0.48,0.689l28.29,10.13c0.08,0.03,0.16,0.051,0.25,0.051
		c0.149,0,0.29-0.051,0.42-0.141c0.2-0.14,0.31-0.359,0.31-0.6v-4.771C825.133,705.454,824.933,705.174,824.633,705.074
		 M823.663,709.494l-26.81-9.601v-2.37l26.81,8.79V709.494z"/>
	<path clip-path="url(#SVGID_2_)" fill="#2E77CE" d="M839.101,686.653c-7.16,12.45-26.45,7.46-46.38-9.18
		c-24.12-20.13-52.29,6.99-52.29,6.99s-1.5-63.99-12.521-82.96c-11.02-18.971-14.46-60.641-8.619-70.94
		c1.479-2.6,6.81-5.16,14.02-6.8c0.83-0.19,1.61,0.07,2.49-0.11c0.06-0.01,0.109-0.02,0.17-0.029
		c10.56-2.101,24.46-3.29,36.95-3.591c11.319-0.26,21.489,0.211,26.989,1.41h0.011c0.93,0.2,1.72,0.42,2.359,0.66
		c3.681,1.391,16.65,11.79,21.971,21.95c3.109,5.94,3.609,11.79-1.891,15.69c-0.42,0.3-0.87,0.59-1.359,0.859
		c-9.851,5.51-7.99,17.9-8.181,22.71c-0.02,0.58-0.029,1.181-0.01,1.8c0.41,22.42,24.01,69.261,27.62,87.2
		C842.03,680.254,841.58,682.323,839.101,686.653"/>
	<path clip-path="url(#SVGID_2_)" fill="#E5E5E5" d="M772.921,520.033l-15.641,66.591l-0.859,3.67l-20.45-66.67
		c0.61-0.12,1.24-0.24,1.88-0.351C748.141,521.384,761.161,520.313,772.921,520.033"/>
	<path clip-path="url(#SVGID_2_)" fill="#FFFFFF" d="M772.921,520.033l-15.641,66.591l-19.43-63.351
		C748.141,521.384,761.161,520.313,772.921,520.033"/>
	<path clip-path="url(#SVGID_2_)" fill="#E5E5E5" d="M758.491,521.534l1.704,52.667l-11.462-51.767
		C752.589,521.977,751.258,521.977,758.491,521.534"/>
	<path clip-path="url(#SVGID_2_)" fill="#FF3C00" d="M745.563,521.977l6.736,8.857c0,0,5.689-9.388,5.569-10.111
		C757.707,519.741,745.563,521.977,745.563,521.977"/>
	<polygon clip-path="url(#SVGID_2_)" fill="#FF3C00" points="750.963,526.222 750.569,572.823 756.607,593.082 760.932,572.668 
		753.765,525.247 	"/>
	<path clip-path="url(#SVGID_2_)" fill="#2E77CE" d="M827.211,693.664c-0.72,0.109-1.49,0.17-2.29,0.17
		c-13.12,0-36.61-14.28-47.061-20.79c-3.01-1.87-8.42-2.4-10.96,0.069c-7.899,7.66-23.359,29.681-33.71,23.13
		c-17.17-10.859-7.649-67.97-8.84-79.46c-0.55-5.319-1.04-12.22-2.069-18.699c-1.94-12.2-2.454-23.577-12.841-21.617
		c-1.622,0.306-2.907,0.152-3.6,0.316c-4.516,1.073,2.17-14.59,4.39-24.159c2.681-11.58,5.62-22.61,5.74-23.061v-0.01
		c0,0,4.84-2.71,13.87-5.061c3.43-0.89,3.47-0.729,3.47-0.729l23.83,77.49l4.62-21.99c0,0,3.81,46.83,21.35,65.58
		c17.44,18.64,32.07,36.16,37.841,43.189C822.751,690.214,824.851,692.104,827.211,693.664"/>
	<path clip-path="url(#SVGID_2_)" fill="#195193" d="M772.109,671.703c0.007-0.001,0.015-0.003,0.023-0.005
		c0.396-0.098,0.637-0.496,0.54-0.892l-14.927-60.742l20.613-38.027l-5.83-8.297l8.581-0.075l8.294-42.581
		c0.079-0.398-0.18-0.787-0.578-0.867c-0.396-0.075-0.786,0.178-0.868,0.578l-8.059,41.409l-10.19,0.087l6.918,9.847l-20.447,37.725
		l0.068,0.277l14.993,61.019C771.336,671.546,771.722,671.785,772.109,671.703"/>
	<polygon clip-path="url(#SVGID_2_)" fill="#195193" points="721.55,530.329 728.619,563.85 736.906,562.103 733.031,570.487 
		759.351,608.543 738.133,569.925 740.438,558.344 731.947,557.229 725.711,527.661 	"/>
	<path clip-path="url(#SVGID_2_)" fill="#195193" d="M830.483,693.953c3.402-0.718,6.068-2.184,7.948-4.38
		c3.264-3.811,2.867-8.396,2.902-8.587c0.086-0.462,0.065-3.862-0.155-3.852c-0.395,0.017-0.648,3.68-0.656,4.087
		c-0.022,1.165-0.357,4.076-3.223,7.409c-2.177,2.526-5.591,3.972-10.145,4.293c-11.201,0.791-31.711-10.807-43.965-17.736
		c-3.171-1.793-5.676-3.209-7.337-4.023c-6.931-3.388-12.752,3.956-17.89,10.438c-1.286,1.622-2.499,3.152-3.698,4.488
		c-5.59,6.229-13.188,9.729-13.263,9.763c-0.37,0.169-0.534,0.604-0.366,0.975c0.167,0.371,0.599,0.533,0.975,0.366
		c0.323-0.146,7.948-3.655,13.749-10.119c1.23-1.37,2.458-2.918,3.757-4.558c5.028-6.343,10.228-12.898,16.089-10.028
		c1.621,0.793,4.109,2.2,7.26,3.981c12.397,7.011,33.148,18.745,44.794,17.924C828.398,694.313,829.475,694.166,830.483,693.953"/>
	<path clip-path="url(#SVGID_2_)" fill="#195193" d="M822.892,647.647c0.372-0.078,0.627-0.432,0.577-0.813
		c-0.052-0.404-0.42-0.689-0.823-0.639l-23.993,3.055c-0.436,0.074-0.689,0.42-0.638,0.822c0.051,0.404,0.42,0.688,0.823,0.638
		l23.992-3.054C822.852,647.654,822.871,647.651,822.892,647.647"/>
	<path clip-path="url(#SVGID_2_)" fill="#195193" d="M749.52,652.674c0.378-0.152,0.559-0.583,0.406-0.959
		c-0.152-0.377-0.581-0.549-0.959-0.407l-13.187,5.351c-0.378,0.152-0.559,0.582-0.407,0.959c0.137,0.336,0.492,0.517,0.834,0.445
		c0.042-0.01,0.085-0.023,0.126-0.039L749.52,652.674z"/>
	<polygon clip-path="url(#SVGID_2_)" fill="#BC2800" points="755.18,525.97 752.313,528.616 748.733,526.309 750.937,529.352 
		754.324,528.952 	"/>
	<path clip-path="url(#SVGID_2_)" fill="#2E77CE" d="M840.32,553.983c-6.899,2.65-12.85,4.51-17.96,5.76
		c-7.93,1.95-13.859,2.45-18.26,2.23c-9.36-0.47-11.76-4.21-11.76-4.21c2.22-10.61,2.25-18.08,1.51-23.35
		c-0.19-1.351-0.43-2.551-0.69-3.641c-0.357-1.502-0.712-4.985,0.521-8.54c0.24-0.693-1.995-1.516-1.838-1.839
		c3.432,0.156,14.214-0.311,16.802-0.912c11.11-2.18,27.826-6.419,36.886-10.339c0.07-0.03,0.13-0.06,0.19-0.08
		c3.88-1.689,6.34-3.13,6.36-3.979v-0.04c0-0.04,0-0.08-0.011-0.12c-0.05-0.721-0.21-1.521-0.47-2.38
		c-4.08-14-32.07-45.311-32.07-45.311l2.24-1.82l0.04-0.03l10.25-8.31c0,0,25.6,21.15,43.14,40.2c8.5,9.23,15.11,17.97,16,23.561
		C894.711,532.983,870.471,542.403,840.32,553.983"/>
	<path clip-path="url(#SVGID_2_)" fill="#195193" d="M840.32,553.983c-6.146,2.361-11.54,4.095-16.257,5.329
		c-1.073,0.28-2.078,0.747-3.048,1.283c-0.005,0.003-0.01,0.005-0.015,0.008c-9.851,5.51-7.99,17.9-8.181,22.71
		c-0.02,0.58-0.029,1.18-0.01,1.8c-6.36-5.5-8.34-16.449-8.71-23.14c-0.16-2.86-0.03-4.94,0.18-5.48
		c2.061-5.38,9.73-8.989,19.971-12.439c15.279-5.15,36.319-9.93,53.01-19.69c9.67-5.649,2.81-25.09-2.061-37.09
		c8.5,9.23,15.11,17.97,16,23.561C894.711,532.983,870.471,542.403,840.32,553.983"/>
	<path clip-path="url(#SVGID_2_)" fill="#195193" d="M871.11,511.813c-4.01,0.86-15.949-4.069-15.949-4.069
		s11.29,10.109,8.829,10.529c-2.449,0.44-12.829-9.55-12.829-9.55l4.47,12.7l-9.67-4.57c0,0-25.776,0.979-37.316,2.629
		c11.11-2.18,27.826-6.419,36.886-10.339c0.07-0.03,0.131-0.06,0.19-0.08c3.87-1.58,6.36-3,6.36-3.979v-0.04
		c0-0.04,0-0.08-0.011-0.12c0.28-0.65,0.25-1.38-0.26-2.101l-0.21-0.279l-32.39-45.5l2.56-1.63l0.04-0.03
		c0,0,33.49,41.8,35.98,45.27c2.489,3.47-1.721,4.94-1.721,4.94S875.131,510.954,871.11,511.813"/>
	<path clip-path="url(#SVGID_2_)" fill="#FFFFFF" d="M819.531,457.233l-1.82-2.908l11.414-9.956l2.936,2.703
		C832.061,447.073,822.533,455.392,819.531,457.233"/>
	<path clip-path="url(#SVGID_2_)" fill="#EFD5AF" d="M820.27,451.958c0,0-6.251-1.443-10.932-3.082
		c-4.683-1.638-8.199-4.262-7.069-5.267c1.13-1.006,8.446,0.381,7.715-0.38c-0.731-0.761-6.698-3.391-8.816-3.09
		c-2.118,0.301-3.349,1.193-3.823,0.153s4.051-5.483,5.327-5.536c1.275-0.053,0.485-3.148,2.816-3.253
		c2.331-0.104,1.589-0.45,3.441-2.018c1.852-1.568,3.261,0.193,4.134-1.178c0.873-1.372,2.694-1.128,3.988-0.756
		c1.293,0.373,8.311,9.201,10.33,12.228c2.018,3.027,2.381,3.9,2.381,3.9L820.27,451.958z"/>
	
		<rect x="799.648" y="412.804" transform="matrix(-0.5061 -0.8625 0.8625 -0.5061 859.856 1407.5197)" clip-path="url(#SVGID_2_)" fill="#FF3C00" width="66.545" height="89.533"/>
	<polygon clip-path="url(#SVGID_2_)" fill="#FF9017" points="851.163,411.261 854.64,413.009 881.531,463.007 814.124,506.353 
		810.315,504.8 779.948,453.055 	"/>
	<path clip-path="url(#SVGID_2_)" fill="#EFD5AF" d="M817.05,427.551c1.178,0.229,7.332,5.391,6.636,7.671
		c-0.696,2.28-5.566-2.603-5.566-2.603s4.706,6.024,3.296,8.018s-8.66-5.201-8.66-5.201s8.21,7.843,5.665,10.194
		c-2.388,2.205-11.107-7.672-11.107-7.672s8.254,8.695,5.843,9.677c-3.949,1.607-10.653-6.98-10.653-6.98s0.688,8.94-2.801,5.924
		c-4.408-3.812-3.444-10.01,5.213-11.632C806.199,434.706,812.279,426.622,817.05,427.551"/>
	<path clip-path="url(#SVGID_2_)" fill="#2E77CE" d="M723.471,526.634c-2.62,1.4-4.729,6.094-5.16,33.43
		c-0.145,9.224-3,16.33-6.2,15.37c0,0-2.399,0.57-6.27,1.351c-14.57,2.899-50.04,8.63-57.31-2.82
		c-15.811-24.891-17.131-85.27-17.131-85.27l13.051-1.31c0,0,7.54,58.979,20.359,63.72c10.61,3.931,32.62-13.14,51.16-21.54
		C718.551,528.384,721.07,527.384,723.471,526.634"/>
	<path clip-path="url(#SVGID_2_)" fill="#195193" d="M723.681,597.434c-0.46,0.23-0.93,0.45-1.4,0.65
		c-1.939-12.2-2.387-23.181-12.84-21.617c-1.928,0.288-3.275,0.336-3.6,0.316c-14.57,2.9-50.04,8.631-57.311-2.819
		c-15.81-24.891-17.13-85.27-17.13-85.27l4.051-0.13c0,0,2.25,39.04,3.279,44.13c2.45,12.19,8.71,30.59,17.82,36.36
		c15.08,9.56,39.448-10.188,50.808-16.358c2.62-1.43,8.175-2.02,10.471,0.644c0.738,0.857,1.939,4.27,3.09,9.02
		C724.148,575.719,725.11,596.733,723.681,597.434"/>
	<path clip-path="url(#SVGID_2_)" fill="#EFD5AF" d="M644.6,491.811c0,0,2.045-18.861,1.729-22.824
		c-0.169-2.129-1.27-3.855-3.491-5.108c-0.813-0.459-0.517-7.229-4.042-6.12c-4.197,1.32-1.478,5.064-1.478,5.064
		s-1.752-6.656-3.904-4.24c-2.152,2.417-1.673,4.574-1.673,4.574s-2.278-3.832-4.141-1.177c-1.863,2.655-0.657,5.446-0.657,5.446
		s-3.39-6.372-5.224-2.454c-1.862,3.981,9.782,26.185,9.782,26.185L644.6,491.811z"/>
	<path clip-path="url(#SVGID_2_)" fill="#E2C8A3" d="M622.975,472.269c0.311,0.149,0.453,0.405,0.625,0.644
		c1.181,1.646,2.424,3.339,3.891,4.724c0.466,0.378,0.994,0.941,1.501,0.823c1.036-1.051,0.715-2.824,0.504-4.203
		c-0.001,0-0.446-1.881-0.446-1.881c0.999,1.306,2.106,2.953,3.193,4.13c0.496,0.559,1.078,0.92,1.714,0.855
		c1.015-0.498,0.722-2.17,0.709-3.173c-0.145-1.437-0.386-2.998-0.858-4.389l0.905,0.877l0.514,0.497l0.038,0.044l0.021,0.065
		c0.274,0.928,0.961,1.625,1.591,2.33c0.585,0.564,1.418,1.487,2.229,1.453c0.972-0.207,1.115-1.353,0.836-2.188
		c-0.272-0.93-0.847-1.774-1.47-2.547l0.137-0.118c0.674,0.75,1.311,1.57,1.664,2.56c0.778,1.954-0.848,3.698-2.661,2.305
		c-1.144-0.772-2.833-2.472-3.061-3.392c-0.001-0.001-0.34-0.628-0.341-0.629l0.558-0.269c0.518,1.909,2.027,6.685-0.612,7.553
		c-0.999,0.188-2.088-0.485-2.633-1.165c-0.779-0.881-1.38-1.825-1.97-2.782c0,0.001,0.726-0.309,0.725-0.306
		c0.28,1.379,0.549,5.126-1.598,5.059c-2.224-0.965-3.479-3.458-4.872-5.305C623.564,473.368,622.995,472.841,622.975,472.269"/>
	<path clip-path="url(#SVGID_2_)" fill="#E2C8A3" d="M642.049,463.437c-0.519-0.4-2.071-1.486-4.244-1.433
		c-0.836,0.021-2.688,0.066-3.095,1.006c0,0,0.286,2.058,4.148,7.069l0.829,1.388l0.567,2.022c0,0-6.506-8.3-6.444-10.474
		C633.874,460.842,638.507,460.357,642.049,463.437"/>
	<polygon clip-path="url(#SVGID_2_)" fill="#FFFFFF" points="644.982,488.124 630.668,489.535 631.022,493.67 645.061,492.238 	"/>
	<path clip-path="url(#SVGID_2_)" fill="#444951" d="M514.013,600.313l-1.06,17.351l-0.01,0.119l-1.721,27.94l-0.13,2.15
		l-0.489,7.96l-0.311,5.199l-0.359,5.841l-2.301,37.38l-0.199,3.29l-0.87,14.239v0.021l-0.091,1.49l-0.27,4.42l-0.17,2.75
		l-0.53,8.51l-0.3,4.9h-99.73l-0.32-4.9l-0.33-4.96l-0.41-6.16l-0.12-1.79l-0.27-4.14l-0.01-0.11v-0.01l-0.42-6.271l-1.54-23.3
		l-0.43-6.43l-1.68-25.31l-0.01-0.2l-0.23-3.46l-0.59-8.95l-0.05-0.771l-0.01-0.01l-0.38-5.74l-0.06-1.02l-1.8-27.15l-0.02-0.319
		l-0.83-12.45c-0.68-10.271,5.84-19.08,14.14-19.08h89.77C508.133,581.344,514.643,590.084,514.013,600.313"/>
	<polygon clip-path="url(#SVGID_2_)" fill="#444951" points="404.963,726.273 404.963,734.074 404.823,734.014 392.273,728.994 
		392.273,743.874 386.863,743.874 386.863,720.584 390.743,721.804 390.773,721.813 391.193,721.943 404.293,726.063 	"/>
	<polygon clip-path="url(#SVGID_2_)" fill="#444951" points="515.104,720.584 515.104,743.874 509.693,743.874 509.693,728.994 
		506.033,730.464 497.003,734.074 497.003,726.273 506.473,723.294 511.223,721.804 511.293,721.784 	"/>
	<path clip-path="url(#SVGID_2_)" fill="#89909B" d="M442.908,581.349c0,0,35.228,2.042,48.778,40.197
		c13.549,38.156,15.09,81.861,15.09,81.861l8.534-102.93c0.849-10.232-5.613-19.129-13.892-19.129H442.908z"/>
	<path clip-path="url(#SVGID_2_)" fill="#3D93C9" d="M513.604,648.264c-0.23,0.61-0.461,1.2-0.69,1.771
		c-0.79,1.979-1.54,3.81-2.16,5.42c-0.05,0.13-0.1,0.25-0.149,0.38c-0.07,0.189-0.141,0.38-0.211,0.56
		c-0.77,2.07-1.5,4.15-2.189,6.271c-0.67,2.02-1.311,4.069-1.92,6.16c-0.71,2.409-1.391,4.859-2.05,7.369
		c-0.08,0.28-0.15,0.57-0.221,0.851c-1.58,6.02-3.06,12.359-4.64,19.17c-1.09,4.67-2.22,9.57-3.46,14.74
		c-0.04,0.17-0.08,0.359-0.13,0.569c-0.49,2.15-1.19,5.84-1.92,10.28c-0.31,1.86-0.63,3.86-0.94,5.93
		c-0.55,3.63-1.08,7.48-1.52,11.24c-0.2,1.66-0.38,3.3-0.54,4.9h-77.39c-0.09-1.65-0.21-3.29-0.34-4.9
		c-0.33-3.96-0.77-7.75-1.26-11.13c-0.32-2.17-0.66-4.16-1-5.93c-0.01-0.04-0.02-0.07-0.02-0.101c0,0,0-0.01-0.01-0.01
		c-0.37-1.91-0.76-3.55-1.15-4.84c-0.05-0.2-0.11-0.38-0.16-0.55c-0.09-0.29-0.18-0.58-0.28-0.88c-2.17-7-4.29-15.761-6.43-24.721
		c-0.4-1.67-0.8-3.34-1.2-5.01c-0.56-2.33-1.12-4.66-1.69-6.95c-0.49-1.99-0.99-3.96-1.49-5.88c-0.01-0.03-0.01-0.05-0.02-0.08
		c-0.56-2.13-1.12-4.21-1.68-6.21c-0.91-3.2-1.83-6.2-2.78-8.91c-0.22-0.63-0.45-1.25-0.67-1.85c-0.63-1.69-1.53-3.66-2.53-5.8
		c-0.25-0.521-0.5-1.05-0.75-1.59c-0.35-0.75-0.72-1.521-1.08-2.311c-4.51-9.76-9.15-21.57-1.42-27.82c0-0.01,0.01-0.01,0.02-0.01
		c2.9-2.35,6.02-4.12,9.26-5.52c5.72-2.48,11.85-3.78,17.92-4.99c3.89-0.76,7.75-1.49,11.46-2.46l0.03,0.02l1.89,1.12l0.92,0.54
		l0.37,0.221l9.95,5.899l0.55,0.33l9.01,5.33l3.37,2l3.83-2.08l9.09-4.93l0.03-0.021l7.29-3.95l0.53-0.29l1.19-0.64l5.1-2.77
		l0.75-0.41c1.49,0.39,2.94,0.729,4.34,1.05c1.08,0.24,2.14,0.47,3.18,0.69c8.62,1.819,15.9,3.189,24.181,9.359
		c0.39,0.28,0.779,0.57,1.17,0.891c0.16,0.119,0.319,0.25,0.479,0.38c0.13,0.109,0.26,0.22,0.39,0.34
		C521.463,625.204,517.503,638.193,513.604,648.264"/>
	<path clip-path="url(#SVGID_2_)" fill="#4271C6" d="M506.283,668.823c-0.71,2.41-1.391,4.86-2.05,7.37
		c-0.08,0.28-0.15,0.57-0.221,0.851c-1.58,6.02-3.06,12.359-4.64,19.17c-1.09,4.67-2.22,9.57-3.46,14.74
		c-0.04,0.17-0.08,0.359-0.13,0.569c-0.43,2.03-1,5.74-1.61,10.28c-0.25,1.86-0.51,3.85-0.77,5.93c-0.44,3.61-0.88,7.46-1.28,11.24
		c-0.17,1.66-0.34,3.3-0.49,4.9h-79.17c-0.09-1.62-0.19-3.271-0.29-4.9c-0.25-3.87-0.55-7.7-0.88-11.13
		c-0.21-2.17-0.44-4.18-0.68-5.93c-0.01-0.03-0.01-0.07-0.01-0.101l-0.01-0.01c-0.28-2-0.58-3.66-0.9-4.84
		c-0.05-0.2-0.11-0.38-0.16-0.55c-0.09-0.29-0.18-0.58-0.28-0.88c-2.17-7-4.29-15.761-6.43-24.721c-0.4-1.67-0.8-3.34-1.2-5.01
		c-0.56-2.33-1.12-4.66-1.69-6.95c-0.49-1.99-0.99-3.96-1.49-5.88l1.49-12.37l0.01-0.109l0.7-5.801l0.23-1.899
		c0.13,0.24,0.27,0.43,0.42,0.59c3.62,3.82,13.87-13.43,16.97-7.5c1.2,2.28,1.22,5.66,0.62,9.59c-2.17,13.88-12.32,34.71-7.5,39.09
		c6.23,5.67,16.99,5.59,24.95,5.99c3.9,0.2,7.84,0.31,11.79,0.32c3.41,0.01,6.84-0.051,10.27-0.19c1-0.04,2-0.08,3-0.13
		c7.8-0.4,23.85-0.88,30.14-5.99c2.25-1.83-1.4-14.43-4.94-26.59c-2.63-9.05-5.2-17.87-5.21-21.81c-0.01-0.79,0.09-1.391,0.32-1.75
		c0.38-0.61,1.14-0.4,2.18,0.37c4.37,3.279,13.55,16.76,18.74,22.189c0.1,0.1,0.189,0.2,0.29,0.29c0,0.01,0,0.01,0.01,0.01
		C504.653,669.044,505.893,669.804,506.283,668.823"/>
	<path clip-path="url(#SVGID_2_)" fill="#BC956B" d="M475.157,624.718c-5.464,9.301-13.739,22.528-21.324,23.823
		c-6.64-2.711-19.123-17.189-21.323-28.045c1.57-1.67,3.699-4.295,5.362-7.89c0.08-0.181,0.173-0.362,0.253-0.556
		c1.756-3.993,2.209-7.537,2.315-9.885c8.556-0.217,17.113-0.447,25.669-0.665c-0.107,2.601,0.066,6.219,1.343,10.332
		c0.373,1.21,0.812,2.347,1.291,3.412C470.699,619.661,473.347,622.831,475.157,624.718"/>
	<path clip-path="url(#SVGID_2_)" fill="#987957" d="M468.38,609.846c-2.24,1.355-7.945,4.398-15.766,4.185
		c-7.001-0.192-12.083-2.896-14.328-4.275c0.298-0.464,0.591-0.981,0.86-1.556c1.077-2.295,1.301-4.479,1.294-6.033
		c8.557-0.218,17.113-0.447,25.669-0.665c0.047,0.733,0.231,3.313,0.707,5.193c0.13,0.51,0.264,0.904,0.429,1.285
		C467.611,608.827,468.059,609.451,468.38,609.846"/>
	<path clip-path="url(#SVGID_2_)" fill="#AD2D43" d="M457.142,643.575l-7.092,0.354c-1.403,1.782-3.444,4.419-3.311,5.998
		c0.185,2.17,3.926,4.768,6.379,5.777c4.213,1.736,6.764-2.871,8.516-5.249C463.021,648.574,459.65,644.779,457.142,643.575"/>
	<path clip-path="url(#SVGID_2_)" fill="#84AFEF" d="M441.945,609.093c-3.305-2.046-4.29-2.34-5.634-4.343
		c-1.543,2.431-8.462-0.88-13.011,1.887c14.024,4.243,0.759,30.956,3.106,42.376c7.093-11.347,19.624,3.192,27.427-3.546
		C435.861,627.821,441.224,614.347,441.945,609.093"/>
	<path clip-path="url(#SVGID_2_)" fill="#84AFEF" d="M465.561,606.602c1.857-1.493,1.526-2.086,3.833-4.884
		c1.542,2.431,11.806,3.863,16.356,6.63c-5.563,11.197-0.015,28.773-2.364,40.193c-7.092-11.349-21.752,3.664-29.552-3.074
		C464.826,637.665,464.895,614.525,465.561,606.602"/>
	<path clip-path="url(#SVGID_2_)" fill="#AD2D43" d="M459.843,743.874h-15.87c0.16-1.57,0.32-3.2,0.49-4.9
		c0.35-3.51,0.73-7.26,1.11-11.17c0.19-1.94,0.38-3.92,0.57-5.93c0.01-0.021,0.01-0.051,0.01-0.07c0.66-6.82,1.33-13.95,1.97-20.93
		c1.87-20.431,3.45-39.551,3.5-45.91c0.01-1.061-0.03-1.771-0.11-2.061l5.32-2.83c0.02,0.091,0.05,0.171,0.08,0.261
		c0.11,0.3,0.22,2.109,0.34,5.069c0.32,8.48,0.67,26.391,1.14,45.28c0.18,7.05,0.37,14.24,0.58,21.12c0.01,0.01,0.01,0.03,0.01,0.05
		c0.06,2.01,0.13,3.99,0.2,5.93c0.13,3.91,0.28,7.671,0.43,11.19C459.683,740.664,459.763,742.304,459.843,743.874"/>
	<path clip-path="url(#SVGID_2_)" fill="#462F2E" d="M418.647,566.583h-3.937c1.525-1.454,3.05-2.908,4.575-4.362
		c-0.856,0.071-1.861,0.093-2.979,0c-1.514-0.127-2.809-0.429-3.83-0.745c2.814-2.905,4.407-5.657,5.32-7.555
		c3.004-6.243,3.041-12.367,3.086-19.684c0.017-2.821-0.105-5.146-0.213-6.703c3.404,0.426,6.809,0.852,10.214,1.276
		c0.569-1.861,1.573-4.353,3.405-6.916c3.339-4.672,7.562-6.97,9.788-7.979c6.473,1.653,11.758,3.362,15.535,4.682
		c15.872,5.541,19.241,9.114,20.854,11.172c3.382,4.313,4.273,8.636,4.469,9.683c1.099,5.858-0.537,10.615-1.383,12.661
		c2.731,2.411,5.461,4.823,8.192,7.235c-1.066-0.084-2.166-0.188-3.298-0.319c-1.099-0.127-2.163-0.27-3.192-0.426
		c0.68,0.732,1.969,1.917,3.937,2.66c1.153,0.435,2.196,0.589,2.979,0.638c-1.021,0.934-2.462,2.046-4.363,2.98
		c-3.315,1.628-6.384,1.9-8.192,1.915c0.74,5.085,2.362,11.472,5.958,18.088c0.924,1.699,1.893,3.258,2.873,4.681
		c-1.809-0.354-3.618-0.709-5.426-1.063c2.518,2.837,5.036,5.675,7.554,8.512c-1.224,0.065-3.144,0.01-5.32-0.745
		c-3.207-1.111-5.182-3.121-6.065-4.148c0.868,2.205,2.172,4.919,4.15,7.767c1.511,2.176,3.071,3.936,4.468,5.32
		c-1.493-0.227-3.516-0.69-5.745-1.703c-2.075-0.942-3.667-2.061-4.788-2.979c-0.085,0.636-0.272,2.637,0.958,4.575
		c0.661,1.044,1.482,1.676,2.021,2.022c-1.232,0.013-3.361-0.141-5.639-1.277c-1.134-0.565-2.013-1.23-2.66-1.808
		c0.319,1.312,0.638,2.624,0.958,3.936c-1.056-0.563-2.619-1.345-4.575-2.128c0,0-2.758-1.102-5.108-1.702
		c-4.408-1.125-8.826,0.539-21.599,4.895c-2.821,0.962-5.07,1.722-6.277,2.128c0.227-1.359,0.38-3.102,0.212-5.107
		c-0.276-3.321-1.31-5.917-2.127-7.554c-1.526,1.383-3.05,2.766-4.576,4.148c0.404-2.492,0.635-5.276,0.532-8.299
		C428.947,581.152,422.431,571.363,418.647,566.583"/>
	<path clip-path="url(#SVGID_2_)" fill="#BC956B" d="M422.478,564.773c-1.767,10.164,2.063,20.567,2.833,22.782
		c1.291,3.715,3.447,9.706,8.977,15.31c2.735,2.771,7.77,7.87,15.641,8.725c1.633,0.177,6.378,0.629,11.278-1.915
		c4.087-2.123,6.17-5.231,8.725-9.151c4.111-6.303,5.818-12.037,6.384-14.044c1.343-4.765,5.505-24.338,2.554-32.983
		c-4.029-11.802-26.853-19.464-54.264-15.818c0.991,4.451,0.975,8.01,0.78,10.427c-0.118,1.462-0.288,2.346-1.276,7.732
		C423.315,560.162,422.619,563.956,422.478,564.773"/>
	<path clip-path="url(#SVGID_2_)" fill="#462F2E" d="M444.116,556.723c-0.65,0.961-2.131,2.87-4.753,4.186
		c-3.198,1.604-6.17,1.358-7.306,1.206c0.119,1.017,0.237,2.033,0.355,3.05c1.515,0,3.94-0.189,6.668-1.277
		c2.297-0.916,3.97-2.136,5.036-3.05V556.723z"/>
	<path clip-path="url(#SVGID_2_)" fill="#462F2E" d="M454.188,557.148c0.047,1.442,0.094,2.885,0.142,4.327
		c1.05,0.971,3.034,2.545,5.958,3.476c3.69,1.175,6.849,0.679,8.299,0.354c-0.071-1.158-0.141-2.317-0.212-3.475
		c-1.532,0.175-4.137,0.272-7.165-0.64C457.702,560.135,455.361,558.243,454.188,557.148"/>
	<path clip-path="url(#SVGID_2_)" fill="#54453D" d="M433.422,571.282c0.867-0.316,2.538-0.791,4.628-0.532
		c2.735,0.339,4.559,1.735,5.267,2.341c-1.379,0.407-3.071,1.035-4.894,2.021c-1.847,1-3.313,2.09-4.416,3.032
		c1.295-1.613,2.589-3.228,3.884-4.841C436.401,572.63,434.912,571.956,433.422,571.282"/>
	<path clip-path="url(#SVGID_2_)" fill="#54453D" d="M456.316,571.689c0.623-0.385,2.99-1.744,6.171-1.276
		c3.106,0.457,4.96,2.357,5.462,2.909c-1.537-0.237-3.074-0.474-4.611-0.711c0.994,1.396,1.986,2.79,2.979,4.186
		c-1.255-0.97-2.86-2.053-4.823-3.05C459.584,572.776,457.809,572.13,456.316,571.689"/>
	<path clip-path="url(#SVGID_2_)" fill="#987957" d="M448.371,571.654c-0.585,3.259-1.549,6.422-2.58,9.559
		c-0.554,1.821-1.826,3.786-1.18,5.596c1.23,2.74,4.722,3.69,7.697,3.04c-0.934,0.609-2.056,0.954-3.226,1.025
		c-3.928,0.21-7.7-3.078-6.186-7.207C444.495,579.482,446.137,575.552,448.371,571.654"/>
	<path clip-path="url(#SVGID_2_)" fill="#987957" d="M440.497,600.312c0.244-0.519,0.69-0.634,1.075-0.87
		c1.201-0.646,2.446-1.191,3.74-1.641c4.867-1.726,10.469-1.586,14.359,2.18c1.213,1.068,1.03,1.536-0.399,0.537
		c-5.257-3.141-11.811-1.848-17.427-0.432C441.413,600.193,441.053,600.45,440.497,600.312"/>
	<path clip-path="url(#SVGID_2_)" fill="#462F2E" d="M424.712,582.861c-0.489-2.742-1.023-7.03-0.638-12.235
		c0.481-6.513,2.021-9.318,2.66-15.109c0.4-3.629,0.51-9.017-1.171-15.853c1.667-0.497,3.334-0.993,5.001-1.49
		c4.581,3.952,10.649,8.469,18.301,12.555c10.139,5.415,19.532,8.189,26.599,9.684c0.461,6.276,0.923,12.555,1.384,18.832
		c1.517-2.035,3.665-5.444,4.894-10.107c0-0.001,2.025-7.681-0.106-15.428c-2.983-10.848-27.543-21.218-58.804-18.939
		c0.998,8.914,1.024,16.417-0.248,20.747c-0.533,1.815-1.489,4.604-2.128,8.832c-0.607,4.018-1.112,7.619,0.213,11.703
		C421.715,579.279,423.494,581.546,424.712,582.861"/>
	<path clip-path="url(#SVGID_2_)" fill="#BC956B" d="M475.06,584.518c0.32,1.889,1.128,2.729,1.49,3.055
		c1.325,1.194,3.09,1.285,4.173,1.043c1.526-0.34,2.95-1.611,5.216-7.152c2.906-7.107,5.125-12.534,2.648-14.986
		c-1.152-1.141-3.02-1.341-4.346-0.996c-1.8,0.468-2.482,1.904-5.585,8.16C475.647,579.707,474.594,581.771,475.06,584.518"/>
	<path clip-path="url(#SVGID_2_)" fill="#BC956B" d="M422.172,576.649c-0.779-2.123-0.615-2.7-1.543-4.735
		c-1.1-2.412-1.869-2.78-2.162-2.896c-1.044-0.408-2.417-0.125-3.255,0.598c-2.197,1.893-0.962,6.547-0.108,9.763
		c0.663,2.499,1.463,5.364,4.014,7.648c1.045,0.937,2.452,2.195,4.23,1.898c1.742-0.292,3.225-1.971,3.309-3.58
		c0.06-1.141-0.664-1.425-2.278-4.177C423.831,580.232,422.916,578.672,422.172,576.649"/>
	<path clip-path="url(#SVGID_2_)" fill="#3D93C9" d="M413.921,608.333c-2.485,12.754-4.97,25.508-7.455,38.262
		c-7.513,6.653-9.616,19.148-11.465,28.463c-2.673,13.481-8.766,34.086-21.697,41.345c-4.742,2.662-10.604,2.404-14.351-1.438
		c-1.685-1.729-2.777-3.579-3.489-5.142c-2.233-4.905-2.13-9.519-2.009-11.753c2.349-43.391,19.787-65.724,19.787-65.724
		c2.851-3.652,6.455-8.201,12.581-12.742C396.565,611.642,407.637,609.206,413.921,608.333"/>
	<path clip-path="url(#SVGID_2_)" fill="#4271C6" d="M410.396,626.215l-24.182,46.441c-5.945,5.053-10.689,11.911-15.708,18.099
		c-2.668,3.288-9.177,17.37-15.042,19.068c-1.514-3.523-1.672-7.394-1.12-11.524c1.659-12.45,5.051-20.337,8.558-27.903
		C370.088,664.39,397.12,645.885,410.396,626.215"/>
	<path clip-path="url(#SVGID_2_)" fill="#3D93C9" d="M493.789,609.529l0.469,36.893c7.062,7.133,8.337,19.739,9.57,29.155
		c1.783,13.627-0.445,31.163,11.98,39.255c4.559,2.968,16.398,4.23,20.391,0.644c1.681-1.508,2.222-1.166,3.118-2.92
		c2.405-4.705,3.728-9.057,3.556-11.117c-2.114-25.248-3.171-37.873-7.416-49.362c-5.053-13.677-8.136-22.022-16.762-29.895
		C509.744,614.012,499.767,610.864,493.789,609.529"/>
	<path clip-path="url(#SVGID_2_)" fill="#4271C6" d="M491.667,622.351l21.086,51.407c5.601,5.433,9.885,12.588,14.486,19.092
		c2.445,3.457,7.409,17.935,13.151,20.014c1.488-3.568,2.966-7.832,2.688-11.99c-0.84-12.531-1.69-18.082-2.477-25.079
		C533.828,669.33,495.47,630.641,491.667,622.351"/>
	<path clip-path="url(#SVGID_2_)" fill="#CCA279" d="M417.813,589.982l-3.499,15.434c-2.348-10.464-1.957-18.617-1.193-24.029
		c0.975-6.902,2.945-12.093,3.862-11.984c0.317,0.038,1.077,0.76,1.453,1.611c0.064,0.146,0.128,0.304,0.19,0.472
		c0.316,0.835,0.497,1.799,0.586,2.832c0.294,3.482-0.48,7.787-0.848,10.805C418.177,586.66,418.015,589.133,417.813,589.982"/>
	<path clip-path="url(#SVGID_2_)" fill="#987957" d="M414.771,593.979c-0.518-1.654-1.071-4.155-0.781-7.132
		c0.197-2.017,0.701-3.435,1.152-4.765c0.856-2.521,2.023-6.202,3.294-11.068c0.064,0.146,0.128,0.304,0.191,0.472
		c0.315,0.835,0.496,1.799,0.586,2.833c-0.635,1.663-1.343,3.281-1.949,4.862C415.536,583.692,414.896,589.172,414.771,593.979"/>
	<path clip-path="url(#SVGID_2_)" fill="#CCA279" d="M431.013,619.052c0.085-3.445-1.015-4.302-2-11.948
		c-0.068-0.53-0.172-1.328-0.25-2.01c-0.26-2.29-0.49-4.61-0.75-6.94c-0.079-0.739-0.12-1.47-0.12-2.199
		c0-0.391,0.011-0.78,0.031-1.16c0.02-0.45,0.059-0.9,0.109-1.351c0,0-0.01-0.01,0-0.01c0.04-0.46,0.1-0.91,0.171-1.37
		c0.039-0.27,0.079-0.54,0.129-0.81c0.05-0.29,0.101-0.58,0.16-0.86c0.05-0.29,0.11-0.58,0.171-0.87
		c0.129-0.63,0.27-1.26,0.409-1.88c0.05-0.229,0.14-0.52,0.24-0.859c0.091-0.311,0.2-0.66,0.32-1.03c0.1-0.3,0.2-0.62,0.301-0.96
		c0.069-0.21,0.129-0.42,0.189-0.63c0.11-0.33,0.2-0.681,0.291-1.03c0.079-0.271,0.149-0.54,0.209-0.811
		c0.01-0.05,0.02-0.1,0.031-0.14c0.059-0.28,0.119-0.56,0.169-0.84c0.03-0.15,0.05-0.3,0.07-0.45c0.031-0.21,0.061-0.41,0.07-0.609
		c0.06-0.601,0.05-1.15-0.049-1.62c-0.061-0.261-0.111-0.801-0.48-1.011c-0.921-0.52-2.971,1.28-4.48,2.91
		c-0.25,0.271-0.491,0.53-0.701,0.78c-0.16,0.19-0.299,0.36-0.43,0.52c-0.03,0.04-0.06,0.07-0.09,0.11
		c-1.15,1.44-2.84,4.05-3.69,8.23c-0.25,1.18-0.42,2.489-0.5,3.939c-0.04,0.51-0.07,1-0.08,1.45c0,0.07-0.009,0.14-0.009,0.21
		c-0.01-0.08-0.03-0.16-0.04-0.24c-0.161-0.97-0.181-2.05-0.121-3.149c0.01-0.311,0.03-0.63,0.06-0.94
		c0.02-0.229,0.04-0.45,0.071-0.68c0.03-0.28,0.059-0.561,0.089-0.83c0.01-0.021,0.01-0.05,0.01-0.07
		c0.21-1.64,0.51-3.229,0.73-4.57c0.22-1.34,0.47-2.659,0.73-3.979c0.201-1.01,0.41-2.021,0.61-3.04c0.101-0.5,0.2-1.01,0.3-1.51
		c0.13-0.71,0.271-1.42,0.39-2.141c0.04-0.199,0.07-0.409,0.11-0.619v-0.021c0.011-0.06,0.021-0.13,0.031-0.19
		c0.02-0.109,0.039-0.25,0.069-0.42c0.02-0.08,0.04-0.17,0.05-0.27c0.01-0.05,0.02-0.11,0.03-0.17c0.06-0.29,0.111-0.62,0.18-0.99
		c0.03-0.2,0.06-0.4,0.09-0.62c0.04-0.26,0.081-0.53,0.111-0.8c0-0.04,0.009-0.07,0.019-0.11c0.03-0.279,0.06-0.56,0.09-0.84
		c0.01-0.149,0.02-0.3,0.04-0.45c0.02-0.27,0.03-0.54,0.04-0.8c0.051-1.5-0.1-2.89-0.709-3.53c-0.101-0.119-0.221-0.199-0.361-0.27
		l-0.01-0.01c-0.06-0.021-0.32-0.13-0.659-0.101c-0.911,0.061-1.831,1.83-2.601,3.75c-0.09,0.24-0.18,0.471-0.27,0.71
		c-0.349,0.971-0.65,1.931-0.869,2.69v0.01c-0.281,0.931-0.441,1.57-0.441,1.57c-0.83,3.31-1.519,5.99-2.069,8.17
		c-0.071,0.24-0.121,0.46-0.181,0.68c-0.97,3.75-1.549,5.971-1.9,7.53v0.04v0.02c-0.399,1.811-0.51,2.73-0.59,4.19
		c-0.13,2.3-0.22,4.39-0.18,6.19v0.01c0.02,1.6,0.141,2.97,0.43,4.03c0.35,1.319,0.701,2.59,0.98,3.85
		c0.451,2.04,0.701,4.08,0.451,6.36c-0.5,4.47-1.861,8.13-3.381,11.68c-0.77,1.81-1.589,3.6-2.349,5.45v0.01
		c0,0.01-0.01,0.01-0.01,0.02c-0.281,0.65-0.541,1.32-0.801,2c0.11,0.15,0.22,0.301,0.331,0.44c2.22,3.11,3.019,5.34,5.089,8.85
		c0.17,0.28,0.32,0.561,0.45,0.851c2.661-1.851,5.13-5.13,7.47-7.391c0.211-0.199,0.41-0.399,0.6-0.59
		c0.19-0.189,0.371-0.38,0.55-0.569c0.24-0.25,0.47-0.5,0.69-0.74c0.28-0.32,0.55-0.62,0.81-0.931c0.25-0.289,0.49-0.59,0.73-0.88
		c0.424-0.512,0.712-0.856,0.73-0.88C430.847,625.804,431.013,619.052,431.013,619.052"/>
	<path clip-path="url(#SVGID_2_)" fill="#987957" d="M421.964,636.156c-1.737,1.981-3.435,3.65-3.617,3.847
		c-1.242,1.335-2.523,2.619-3.852,3.545c-0.137-0.294-0.287-0.579-0.452-0.854c3.485-6.048,7.13-9.826,9.861-12.181
		c9.117-10.411,2.484-31.083,2.422-34.28c-0.118-6.069,2.6-11.959,4.586-17.57c0.536,2.479-1.448,7.261-1.841,8.981
		c-0.363,1.595-0.611,3.041-0.776,4.433c0,0-0.359,2.955-0.286,6.08c0.24,10.253,5.473,19.71,1.553,27.945
		C428.119,629.133,425.234,632.425,421.964,636.156"/>
	<path clip-path="url(#SVGID_2_)" fill="#E5804E" d="M420.547,594.145c0.028,0.544,0.083,1.085,0.167,1.626
		c-0.087-0.056-0.173-0.111-0.253-0.175C420.473,595.143,420.502,594.655,420.547,594.145"/>
	<path clip-path="url(#SVGID_2_)" fill="#987957" d="M423.426,573.822c-0.636,3.862-1.534,7.632-2.168,11.501
		c-0.48,2.93-1.346,7.121-0.843,10.238c-0.129-1.219-0.271-3.026-0.252-5.215c0.045-4.973,0.896-8.548,1.409-11.021
		c0.701-3.382,1.505-8.25,1.862-14.506C424.937,566.407,423.654,572.442,423.426,573.822"/>
	<path clip-path="url(#SVGID_2_)" fill="#3D93C9" d="M409.776,625.128c-9.739,22.224-52.275,50.577-55.552,75.651
		c-1.836,14.053,11.428,21.972,24.266,16.818c7.579-3.043,17.687-16.076,21.645-22.103c4.791-7.294,23.22-45.946,26.078-63.866
		L409.776,625.128z"/>
	<path clip-path="url(#SVGID_2_)" fill="#CCA279" d="M485.924,588.213l2.599,15.205c2.633-9.097,2.851-16.51,2.543-21.611
		c-0.459-7.609-2.3-13.642-3.257-13.584c-0.308,0.019-1.084,0.687-1.499,1.493c-0.07,0.137-0.14,0.288-0.211,0.447
		c-0.35,0.796-0.578,1.725-0.717,2.728c-0.468,3.374,0.06,7.604,0.261,10.562C485.744,584.957,485.772,587.374,485.924,588.213"/>
	<path clip-path="url(#SVGID_2_)" fill="#987957" d="M488.678,592.261c1.555-3.939,0.63-11.939-0.495-16.072
		c-0.608-2.239-0.5-4.107-1.873-6.474c-0.071,0.138-0.141,0.288-0.211,0.448c-0.35,0.797-0.578,1.725-0.717,2.728
		c0.53,1.65,1.134,3.265,1.643,4.836C488.469,582.207,488.808,587.575,488.678,592.261"/>
	<path clip-path="url(#SVGID_2_)" fill="#CCA279" d="M489.733,623.004c-1.22-3.37-2.26-6.87-2.5-11.03
		c-0.01-0.16-0.02-0.31-0.01-0.46c-0.05-1.41,0.1-2.71,0.37-3.979c0.37-1.82,0.97-3.561,1.57-5.431c0.34-1.05,0.54-2.359,0.65-3.859
		c0.01-0.011,0.01-0.011,0-0.021c0.14-1.78,0.15-3.82,0.13-6.06c-0.01-1.36-0.12-2.761-0.34-4.36v-0.03v-0.02
		c-0.18-1.41-0.44-2.971-0.78-4.82v-0.01c-0.09-0.5-0.19-1.03-0.29-1.58c-0.24-1.25-0.51-2.63-0.81-4.17c0,0-0.51-2.61-1.28-5.59
		v-0.011c-0.11-0.449-0.23-0.909-0.36-1.359c-0.04-0.15-0.08-0.29-0.12-0.44c-0.92-3.26-2.06-6.41-3.12-6.64
		c-0.02-0.01-0.04-0.021-0.06-0.021c-0.36-0.05-0.65,0.07-0.65,0.07c-0.14,0.061-0.26,0.14-0.36,0.24
		c-1.55,1.47-0.62,7.41-0.47,8.76c0.05,0.44,0.1,0.88,0.16,1.32c0.03,0.31,0.07,0.609,0.12,0.92c0.06,0.5,0.13,1,0.2,1.5
		c0.16,1.109,0.32,2.21,0.48,3.32c0.09,0.64,0.18,1.27,0.26,1.909c0.02,0.061,0.02,0.13,0.03,0.19c0.03,0.24,0.06,0.49,0.09,0.729
		c0.06,0.471,0.12,0.95,0.17,1.421c0.24,2.13,0.64,4.939,0.57,7.46c0,0.09-0.01,0.18-0.01,0.25c-0.01,0.27-0.02,0.529-0.05,0.79
		c-0.021,0.25-0.05,0.489-0.09,0.729c-0.01,0.09-0.02,0.17-0.04,0.26c-0.02,0.181-0.05,0.351-0.09,0.521
		c-0.02,0.08-0.04,0.16-0.06,0.24c0.01-0.07,0.01-0.141,0.01-0.21c0.01-0.44,0.01-0.91-0.01-1.41v-0.011
		c0-0.329-0.01-0.659-0.03-0.97c-0.16-2.1-0.8-3.72-1.24-4.85c-0.47-1.16-0.87-2.16-1.21-3.011c-0.29-0.71-0.53-1.31-0.74-1.81
		c-0.021-0.04-0.03-0.09-0.06-0.13c-0.37-0.92-0.6-1.44-0.7-1.6c-1.34-2.04-3.72-4.69-4.78-4.19c-0.23,0.1-0.35,0.34-0.42,0.57v0.01
		c-0.05,0.14-0.07,0.27-0.1,0.37c-0.03,0.109-0.06,0.229-0.08,0.359c0,0.021,0,0.04-0.01,0.061c-0.06,0.39-0.07,0.82-0.05,1.29
		c0.01,0.14,0.02,0.28,0.03,0.42c0.01,0.09,0.02,0.189,0.03,0.29c0.01,0.13,0.03,0.26,0.05,0.399c0.02,0.171,0.05,0.351,0.08,0.53
		c0.08,0.49,0.18,1,0.29,1.49c0.05,0.22,0.1,0.43,0.16,0.65c0.08,0.35,0.17,0.689,0.25,1.01c0.06,0.229,0.12,0.439,0.18,0.649
		c0.06,0.24,0.12,0.471,0.17,0.681c0.1,0.399,0.18,0.739,0.23,1.01c0.58,3.38,1.05,6.83,0.48,10.29c-0.04,0.22-0.07,0.45-0.11,0.67
		c-0.09,0.58-0.19,1.16-0.28,1.73v0.01c-0.38,2.35-0.75,4.68-1.19,6.979c-0.28,1.54-0.6,3.07-0.96,4.59
		c-0.41,1.73-0.88,3.45-1.45,5.15c-0.16,0.48-0.29,0.94-0.39,1.4c-0.04,0.17-0.07,0.34-0.1,0.51c-0.07,0.399,0.23,0.717,0.18,1.057
		c0.284,1.259,0.816,5.254,1.74,6.943c0.083,0.15,0.22,0.28,0.33,0.42l0.42,0.54c0.14,0.18,0.28,0.35,0.4,0.52
		c0.44,0.57,0.84,1.12,1.23,1.65c0.43,0.6,0.85,1.19,1.29,1.76c0.24,0.32,0.47,0.63,0.72,0.95s0.5,0.63,0.77,0.95
		c0.4,0.49,0.83,0.979,1.3,1.479c1.43,1.54,2.9,3.521,4.45,5.24c0.44,0.5,0.89,0.97,1.35,1.4c0.13,0.13,0.27,0.25,0.4,0.37
		c0.22,0.21,0.45,0.399,0.68,0.58c0.15-0.28,0.31-0.551,0.49-0.811c2.3-3.46,3.17-5.63,5.76-8.77
		C491.733,628.204,490.673,625.644,489.733,623.004"/>
	<path clip-path="url(#SVGID_2_)" fill="#987957" d="M473.342,625.096c1.952,3.153,3.616,5.162,6.127,7.847
		c2.166,2.318,4.394,5.646,6.887,7.587c0.146-0.278,0.308-0.548,0.483-0.809c-6.442-7.643-13.702-16.557-12.891-26.472
		c0.28-3.411,0.454-6.811,1.212-9.948c0.735-3.04,1.923-6.34,2.151-9.451c0.432-5.901-2.704-8.845-3.545-17.343
		c-0.652,2.386,1.029,7.144,1.323,8.841c0.584,3.375,1.055,6.825,0.483,10.288c-1.082,6.529-4.024,14.522-4.48,21.037
		C470.934,618.938,471.643,622.351,473.342,625.096"/>
	<path clip-path="url(#SVGID_2_)" fill="#E5804E" d="M483.044,592.12c-0.054,0.528-0.136,1.052-0.247,1.574
		c0.088-0.048,0.175-0.099,0.257-0.155C483.065,593.096,483.064,592.62,483.044,592.12"/>
	<path clip-path="url(#SVGID_2_)" fill="#987957" d="M481.307,572.187c0.417,3.794,1.094,7.511,1.509,11.311
		c0.313,2.877,0.938,7.002,0.285,10.01c1.431-2.147,0.695-12.849,0.048-16.354c-0.822-4.472-1.732-9.173-1.38-13.729
		C480.222,564.89,481.155,570.832,481.307,572.187"/>
	<path clip-path="url(#SVGID_2_)" fill="#3D93C9" d="M491.667,622.351c12.411,21.704,49.75,53.29,51.413,78.522
		c1.006,15.251-9.982,20.975-25.133,15.491c-7.678-2.78-16.8-17.001-20.428-23.229c-4.392-7.541-20.721-47.127-22.616-65.175
		L491.667,622.351z"/>
	<rect x="158.738" y="721.799" clip-path="url(#SVGID_2_)" fill="#754026" width="539.568" height="17.174"/>
	<rect x="661.393" y="632.45" clip-path="url(#SVGID_2_)" fill="#FF9017" width="23.101" height="83.134"/>
	<polygon clip-path="url(#SVGID_2_)" fill="#FF3C00" points="661.393,632.449 684.492,715.584 661.393,715.584 	"/>
	<path clip-path="url(#SVGID_2_)" fill="#FF3C00" d="M666.739,691.292c0-4.405,3.289-8.006,7.539-8.574
		c-0.381-0.051-0.758-0.117-1.151-0.117c-4.801,0-8.691,3.892-8.691,8.691s3.891,8.69,8.691,8.69c0.394,0,0.771-0.064,1.151-0.115
		C670.028,699.298,666.739,695.697,666.739,691.292"/>
	<path clip-path="url(#SVGID_2_)" fill="#004345" d="M681.816,691.292c0-4.405-3.289-8.006-7.539-8.574
		c-4.249,0.568-7.538,4.169-7.538,8.574s3.289,8.006,7.538,8.575C678.527,699.298,681.816,695.697,681.816,691.292"/>
	<rect x="665.557" y="647.559" clip-path="url(#SVGID_2_)" fill="#FFFFFF" width="13.877" height="21.586"/>
	<rect x="665.557" y="671.808" clip-path="url(#SVGID_2_)" fill="#FFFFFF" width="13.877" height="5.607"/>
	<path clip-path="url(#SVGID_2_)" fill="#006370" d="M676.787,652.223h-8.921c-0.433,0-0.787-0.354-0.787-0.787
		c0-0.435,0.354-0.788,0.787-0.788h8.921c0.434,0,0.787,0.354,0.787,0.788C677.574,651.868,677.221,652.223,676.787,652.223"/>
	<path clip-path="url(#SVGID_2_)" fill="#006370" d="M676.787,655.925h-8.921c-0.433,0-0.787-0.354-0.787-0.787
		c0-0.435,0.354-0.788,0.787-0.788h8.921c0.434,0,0.787,0.354,0.787,0.788C677.574,655.57,677.221,655.925,676.787,655.925"/>
	<path clip-path="url(#SVGID_2_)" fill="#006370" d="M676.787,659.624h-8.921c-0.433,0-0.787-0.354-0.787-0.787
		c0-0.434,0.354-0.788,0.787-0.788h8.921c0.434,0,0.787,0.354,0.787,0.788C677.574,659.27,677.221,659.624,676.787,659.624"/>
	<path clip-path="url(#SVGID_2_)" fill="#006370" d="M676.787,663.323h-8.921c-0.433,0-0.787-0.354-0.787-0.787
		s0.354-0.788,0.787-0.788h8.921c0.434,0,0.787,0.354,0.787,0.788S677.221,663.323,676.787,663.323"/>
	<path clip-path="url(#SVGID_2_)" fill="#006370" d="M676.787,667.025h-8.921c-0.433,0-0.787-0.354-0.787-0.787
		s0.354-0.787,0.787-0.787h8.921c0.434,0,0.787,0.354,0.787,0.787S677.221,667.025,676.787,667.025"/>
	
		<rect x="633.428" y="630.48" transform="matrix(0.9876 0.1568 -0.1568 0.9876 113.3538 -92.8187)" clip-path="url(#SVGID_2_)" fill="#FF3C00" width="23.1" height="83.134"/>
	<path clip-path="url(#SVGID_2_)" fill="#FF3C00" d="M636.143,688.136c0.691-4.352,4.504-7.392,8.79-7.286
		c-0.368-0.11-0.73-0.234-1.119-0.295c-4.741-0.753-9.194,2.479-9.947,7.219c-0.753,4.741,2.48,9.194,7.221,9.947
		c0.39,0.062,0.771,0.056,1.155,0.065C638.136,696.558,635.451,692.485,636.143,688.136"/>
	<path clip-path="url(#SVGID_2_)" fill="#004345" d="M651.033,690.5c0.69-4.351-1.993-8.423-6.101-9.65
		c-4.286-0.104-8.1,2.936-8.791,7.286c-0.689,4.351,1.993,8.423,6.102,9.65C646.529,697.892,650.342,694.851,651.033,690.5"/>
	
		<rect x="640.055" y="645.713" transform="matrix(0.9876 0.1569 -0.1569 0.9876 110.9905 -93.3617)" clip-path="url(#SVGID_2_)" fill="#FFFFFF" width="13.877" height="21.587"/>
	
		<rect x="637.505" y="669.761" transform="matrix(0.9876 0.1569 -0.1569 0.9876 113.4778 -92.7628)" clip-path="url(#SVGID_2_)" fill="#FFFFFF" width="13.877" height="5.606"/>
	<path clip-path="url(#SVGID_2_)" fill="#006370" d="M652.319,651.135c-0.04,0-0.083-0.003-0.123-0.009l-8.81-1.399
		c-0.432-0.067-0.724-0.474-0.655-0.9c0.066-0.429,0.485-0.711,0.9-0.655l8.811,1.399c0.43,0.067,0.723,0.473,0.655,0.9
		C653.035,650.857,652.7,651.135,652.319,651.135"/>
	<path clip-path="url(#SVGID_2_)" fill="#006370" d="M651.738,654.791c-0.04,0-0.083-0.003-0.123-0.009l-8.811-1.399
		c-0.431-0.067-0.723-0.474-0.654-0.9c0.067-0.428,0.485-0.724,0.9-0.655l8.811,1.399c0.431,0.067,0.723,0.473,0.654,0.9
		C652.455,654.515,652.119,654.791,651.738,654.791"/>
	<path clip-path="url(#SVGID_2_)" fill="#006370" d="M651.157,658.444c-0.04,0-0.083-0.003-0.123-0.009l-8.811-1.4
		c-0.431-0.066-0.723-0.473-0.654-0.899c0.066-0.429,0.482-0.714,0.9-0.655l8.811,1.399c0.43,0.066,0.723,0.473,0.654,0.9
		C651.874,658.168,651.538,658.444,651.157,658.444"/>
	<path clip-path="url(#SVGID_2_)" fill="#006370" d="M650.575,662.101c-0.04,0-0.083-0.003-0.123-0.009l-8.81-1.4
		c-0.431-0.066-0.723-0.473-0.655-0.899c0.067-0.428,0.48-0.724,0.901-0.655l8.81,1.399c0.431,0.066,0.724,0.473,0.655,0.9
		C651.293,661.824,650.956,662.101,650.575,662.101"/>
	<path clip-path="url(#SVGID_2_)" fill="#006370" d="M649.997,665.754c-0.04,0-0.083-0.003-0.123-0.009l-8.81-1.399
		c-0.432-0.067-0.723-0.474-0.655-0.901c0.068-0.427,0.492-0.713,0.901-0.655l8.81,1.4c0.431,0.066,0.724,0.473,0.655,0.9
		C650.714,665.478,650.378,665.754,649.997,665.754"/>
	<polygon clip-path="url(#SVGID_2_)" fill="#004345" points="602.007,718.56 602.007,667.703 605.568,667.703 605.568,715.228 
		683.889,715.228 683.889,667.703 687.15,667.703 687.15,718.56 	"/>
	<polygon clip-path="url(#SVGID_2_)" fill="#E5B19C" points="698.307,727.45 158.738,728.191 158.738,722.265 698.307,721.522 	"/>
	<path clip-path="url(#SVGID_2_)" fill="#A5A5A5" d="M396.928,716.15H293.743c-1.662,0-3.009-1.347-3.009-3.008v-63.915
		c0-1.662,1.347-3.009,3.009-3.009h103.185c1.661,0,3.008,1.347,3.008,3.009v63.915C399.937,714.804,398.589,716.15,396.928,716.15"
		/>
	<path clip-path="url(#SVGID_2_)" fill="#BECCCA" d="M395.413,716.15H292.228c-1.662,0-3.009-1.347-3.009-3.008v-63.915
		c0-1.662,1.347-3.009,3.009-3.009h103.185c1.662,0,3.008,1.347,3.008,3.009v63.915C398.421,714.804,397.074,716.15,395.413,716.15"
		/>
	<path clip-path="url(#SVGID_2_)" fill="#FFFFFF" d="M353.09,683.647c0,4.788-4.15,8.672-9.27,8.672
		c-5.119,0-9.269-3.884-9.269-8.672c0-4.789,4.15-8.673,9.269-8.673C348.94,674.975,353.09,678.858,353.09,683.647"/>
	<polygon clip-path="url(#SVGID_2_)" fill="#BECCCA" points="297.487,715.53 298.071,721.812 436.878,721.812 436.878,715.53 	"/>
	<polygon clip-path="url(#SVGID_2_)" fill="#686B6B" points="397.275,715.53 397.485,721.812 444.405,721.812 444.405,715.53 	"/>
	<polygon clip-path="url(#SVGID_2_)" fill="#686B6B" points="297.608,721.812 394.253,715.53 297.499,716.15 	"/>
	<polygon clip-path="url(#SVGID_2_)" fill="#004345" points="265.126,723.376 173.794,723.376 175.295,704.292 265.766,703.884 	"/>
	<polygon clip-path="url(#SVGID_2_)" fill="#0D726E" points="265.126,723.376 210.25,723.376 175.025,707.73 175.295,704.292 
		265.766,703.884 	"/>
	<polygon clip-path="url(#SVGID_2_)" fill="#E6E6FF" points="251.678,707.851 251.431,719.41 223.843,719.41 223.843,708.301 	"/>
	<polygon clip-path="url(#SVGID_2_)" fill="#E6E6FF" points="221.352,708.301 221.541,719.41 217.122,719.41 216.681,708.301 	"/>
	<polygon clip-path="url(#SVGID_2_)" fill="#BFAD45" points="261.289,703.884 263.636,686.144 258.43,686.665 168.858,695.632 
		169.028,697.244 259.795,689.224 257.835,702.161 169.29,702.26 169.199,703.651 	"/>
	<path clip-path="url(#SVGID_2_)" fill="#6F7F87" d="M258.975,694.64c0,0-3.452-6.311-6.655-4.755
		c-3.204,1.556-3.463,5.189-3.463,5.189l0.943,0.572c0,0,0.804-4.973,3.457-4.924c2.653,0.05,4.295,4.924,4.295,4.924
		s0.628,3.326-2.095,4.923c-2.724,1.598-4.4,0.209-4.819-0.523c-0.419-0.733-0.733-2.828-0.733-2.828l-1.048,0.104
		c0,0,0.074,3.032,1.153,3.984c1.164,1.026,3.538,1.462,5.54,0.624c1.424-0.596,2.886-2.467,2.886-2.467L258.975,694.64z"/>
	<polygon clip-path="url(#SVGID_2_)" fill="#11B7AE" points="563.505,694.812 563.933,697.188 566.956,698.825 564.646,698.699 
		615.461,718.647 618.17,717.825 619.448,711.076 	"/>
	<polygon clip-path="url(#SVGID_2_)" fill="#FF3C00" points="594.555,631.686 563.505,694.812 613.646,715.305 652.491,638.557 	"/>
	<polygon clip-path="url(#SVGID_2_)" fill="#BC2800" points="652.492,638.557 621.284,652.355 611.732,714.521 582.92,702.021 
		563.505,694.812 594.555,631.686 	"/>
	<path clip-path="url(#SVGID_2_)" fill="#FFFFFF" d="M652.492,638.557l1.806,1.779l-0.894,1.819l2.209-1.654l0.788,1.817
		c0,0-37.79,75.531-38.231,75.507s-1.957-0.107-1.957-0.107l1.518-2.337l-2.5,2.283l-1.584-2.359L652.492,638.557z"/>
	<polygon clip-path="url(#SVGID_2_)" fill="#D1DEE5" points="644.072,659.131 654.523,639.596 657.161,638.665 	"/>
	<polygon clip-path="url(#SVGID_2_)" fill="#D1DEE5" points="626.71,694.688 644.061,661.223 644.033,665.906 	"/>
	<path clip-path="url(#SVGID_2_)" fill="#FFFFFF" d="M530.917,710.254l15.97-0.103c8.163-6.494,24.957-46.065,24.957-46.065
		l57.263-1.967c0,0-21.763,50.645-28.973,55.996c-7.21,5.353-26.316-8.137-26.316-8.137L530.917,710.254z"/>
	<polygon clip-path="url(#SVGID_2_)" fill="#576C7C" points="606.008,665.83 623.584,665.145 622.951,666.043 605.465,666.611 	"/>
	<polygon clip-path="url(#SVGID_2_)" fill="#576C7C" points="604.238,669.067 622.57,668.377 621.938,669.275 603.695,669.85 	"/>
	<polygon clip-path="url(#SVGID_2_)" fill="#576C7C" points="608.474,672.175 621.503,671.61 620.87,672.509 607.931,672.957 	"/>
	<polygon clip-path="url(#SVGID_2_)" fill="#576C7C" points="583.098,676.045 601.514,675.388 600.882,676.286 582.555,676.827 	"/>
	<polygon clip-path="url(#SVGID_2_)" fill="#576C7C" points="570.407,679.535 618.503,678.082 617.87,678.98 569.864,680.317 	"/>
	<polygon clip-path="url(#SVGID_2_)" fill="#576C7C" points="568.637,682.772 616.733,681.319 616.1,682.218 568.094,683.555 	"/>
	<polygon clip-path="url(#SVGID_2_)" fill="#576C7C" points="566.866,686.01 614.963,684.557 614.329,685.455 566.323,686.792 	"/>
	<polygon clip-path="url(#SVGID_2_)" fill="#576C7C" points="565.541,689.245 613.637,687.792 613.004,688.689 564.998,690.027 	"/>
	<polygon clip-path="url(#SVGID_2_)" fill="#576C7C" points="564.315,692.479 612.411,691.026 611.778,691.924 563.772,693.261 	"/>
	<polygon clip-path="url(#SVGID_2_)" fill="#576C7C" points="562.813,695.715 610.909,694.262 610.276,695.159 562.271,696.497 	"/>
	<polygon clip-path="url(#SVGID_2_)" fill="#576C7C" points="560.817,698.953 608.914,697.501 608.28,698.398 560.274,699.735 	"/>
	<polygon clip-path="url(#SVGID_2_)" fill="#576C7C" points="558.958,702.191 607.054,700.739 606.421,701.637 558.415,702.974 	"/>
	<polygon clip-path="url(#SVGID_2_)" fill="#576C7C" points="557.191,705.43 605.287,703.977 604.654,704.874 556.648,706.211 	"/>
	<polygon clip-path="url(#SVGID_2_)" fill="#576C7C" points="554.474,708.673 602.57,707.22 601.937,708.118 553.931,709.455 	"/>
	<polygon clip-path="url(#SVGID_2_)" fill="#576C7C" points="552.703,711.91 600.8,710.457 600.167,711.355 552.16,712.692 	"/>
	<polygon clip-path="url(#SVGID_2_)" fill="#576C7C" points="550.934,715.148 599.029,713.695 598.396,714.593 550.391,715.93 	"/>
	<polygon clip-path="url(#SVGID_2_)" fill="#576C7C" points="549.163,718.386 597.259,716.933 596.626,717.831 548.62,719.168 	"/>
	<path clip-path="url(#SVGID_2_)" fill="#11B7AE" d="M530.917,710.254c0,0,3.61,5.391,9.308,7.87
		c5.697,2.481,9.843,2.339,9.843,2.339l45.898-0.646c0,0-8.756-1.846-14.306-5.084c-5.551-3.238-7.843-4.755-7.843-4.755
		L530.917,710.254z"/>
	<path clip-path="url(#SVGID_2_)" fill="#72544F" d="M715.938,486.867c-0.482-0.71-1.127-1.733-1.773-3.025
		c-0.441-0.881-1.046-2.212-2.14-5.872c-1.092-3.652-1.638-5.478-1.742-7.265c-0.123-2.116,0.146-3.866,0.398-5.026
		c0.796-0.183,1.593-0.365,2.389-0.548c2.021,3.236,6.183,10.987,3.832,19.159C716.663,485.12,716.35,485.982,715.938,486.867"/>
	<path clip-path="url(#SVGID_2_)" fill="#E5C6A5" d="M712.569,472.338c1.968,13.899,6.738,23.763,10.106,29.498
		c7.167,12.204,13.243,14.657,15.021,15.295c5.29,1.898,9.993,1.173,11.744,0.819c9.96-2.016,15.059-10.384,16.388-12.564
		c6.524-10.708,3.76-22.033,3.005-25.127c-0.683-2.794-3.675-13.557-9.684-19.706c-2.653-2.715-11.972-8.642-26.097-5.695
		C718.88,457.815,713.086,471.099,712.569,472.338"/>
	<path clip-path="url(#SVGID_2_)" fill="#72544F" d="M734.056,475.797c0,0,0.136,6.041,2.913,6.919
		c0.685,0.217,1.315,0.165,1.729,0.091c1.948-2.212,4.554-4.787,7.921-7.283c2.776-2.058,5.435-3.592,7.738-4.734
		c-3.606,0.355-6.348,1.153-8.193,1.821c-3.799,1.373-5.115,2.517-8.467,2.822C734.591,475.716,734.056,475.797,734.056,475.797"/>
	<path clip-path="url(#SVGID_2_)" fill="#72544F" d="M727.683,477.345c0.114,0.096,2.557,2.205,2.003,4.916
		c-0.2,0.98-0.719,1.683-1.093,2.094c-2.577-1.337-4.867-2.098-6.556-2.549c-1.48-0.396-3.171-0.837-5.462-0.91
		c-2.071-0.067-3.796,0.193-5.007,0.455c1.352-1.073,3.771-2.711,7.192-3.642C722.642,476.653,725.924,477.019,727.683,477.345"/>
	<path clip-path="url(#SVGID_2_)" fill="#9E6359" d="M739.336,510.985c-0.889-0.213-2.264-0.654-3.688-1.639
		c-1.28-0.888-2.573-1.782-2.8-3.209c-0.362-2.284,2.278-4.214,2.595-4.438c2.617-1.862,5.729-1.171,7.307-0.82
		c1.569,0.349,3.216,0.715,4.029,2.185c0.733,1.328,0.369,2.801,0.204,3.346c-0.649-0.057-2.626-0.146-4.644,1.093
		C740.416,508.686,739.598,510.374,739.336,510.985"/>
	<path clip-path="url(#SVGID_2_)" fill="#72544F" d="M750.914,498.695c-2.498,0.311-5.328,0.511-8.434,0.478
		c-2.114-0.022-2.269,0.259-4.085,0.068c-0.364,0.82-2.845,0.967-3.392,1.263c-0.102,0.736-0.388,0.775-0.819,1.605
		c-1.866,3.588-6.181,4.327-6.896,4.438c0.837,0.286,2.514,0.721,4.506,0.273c3.877-0.872,5.627-4.341,5.872-4.848
		c1.231,0.3,2.985,0.565,5.053,0.341C746.891,501.861,749.739,499.705,750.914,498.695"/>
	<path clip-path="url(#SVGID_2_)" fill="#CEB797" d="M741.977,512.153c-0.16,0-0.32-0.065-0.435-0.195
		c-0.209-0.239-0.186-0.604,0.054-0.814c0.066-0.058,1.649-1.436,3.348-1.685c0.314-0.052,0.607,0.171,0.654,0.486
		s-0.172,0.608-0.488,0.654c-1.355,0.2-2.739,1.399-2.752,1.411C742.246,512.106,742.111,512.153,741.977,512.153"/>
	<path clip-path="url(#SVGID_2_)" fill="#FFFFFF" d="M748.291,482.241c-0.059,0.426-0.232,0.851-0.561,1.13
		c-1.637,1.393-4.068,2.957-7.029,3.75c-0.881,0.236-1.484-0.435-1.6-0.773c-0.613-1.797,0.481-2.827,2.146-4.249
		c2.14-1.828,5.771-2.556,6.863-1.328C748.32,481.007,748.375,481.638,748.291,482.241"/>
	<path clip-path="url(#SVGID_2_)" fill="#6F6157" d="M746.131,483.194c0,0.498-0.104,0.974-0.29,1.405
		c-0.605,0.301-1.241,0.651-1.896,1.052c-0.576,0.357-1.108,0.718-1.595,1.082c-1.606-0.1-2.923-1.268-3.249-2.799
		c0.833-0.852,1.922-1.777,3.309-2.584c0.751-0.435,1.494-0.784,2.212-1.059C745.536,480.934,746.131,481.993,746.131,483.194"/>
	<path clip-path="url(#SVGID_2_)" fill="#26211D" d="M747.871,483.707c-2.443,1.6-4.836,3.097-7.375,4.539
		C742.267,485.88,744.956,484.212,747.871,483.707"/>
	<path clip-path="url(#SVGID_2_)" fill="#26211D" d="M750.533,479.234c-4.931,0.516-9.422,2.781-12.838,6.35
		C740.169,481.167,745.507,478.497,750.533,479.234"/>
	<path clip-path="url(#SVGID_2_)" fill="#FFFFFF" d="M719.738,489.787c0.303,0.293,0.684,0.521,1.085,0.55
		c2.006,0.146,4.676-0.023,7.253-1.08c0.766-0.314,0.783-1.168,0.659-1.491c-0.661-1.721-2.061-1.893-4.104-2.047
		c-2.625-0.197-5.635,1.286-5.66,2.84C718.967,488.858,719.313,489.372,719.738,489.787"/>
	<path clip-path="url(#SVGID_2_)" fill="#6F6157" d="M720.615,489.388c0.303,0.381,0.667,0.687,1.061,0.913
		c0.611-0.11,1.273-0.2,1.98-0.26c0.625-0.051,1.22-0.074,1.786-0.068c1.075-0.98,1.294-2.614,0.593-3.97
		c-1.106-0.184-2.441-0.28-3.912-0.119c-0.796,0.089-1.534,0.24-2.209,0.432C719.659,487.323,719.885,488.469,720.615,489.388"/>
	<path clip-path="url(#SVGID_2_)" fill="#26211D" d="M728.906,490.002c-2.681,0.352-5.276,0.546-7.979,0.671
		C723.35,489.379,726.299,489.164,728.906,490.002"/>
	<path clip-path="url(#SVGID_2_)" fill="#26211D" d="M729.265,486.391c-4.479-0.746-9.054-0.077-12.94,2.354
		C719.511,485.252,725.049,484.408,729.265,486.391"/>
	<path clip-path="url(#SVGID_2_)" fill="#CEB797" d="M730.596,485.175c0.59,2.005,0.908,4.111,0.911,6.223
		c0.104,1.961-0.44,4.167,0.15,5.994c1.199,3.26,4.464,3.152,6.929,1.269c0.861-0.586,1.787-1.096,2.662-1.651
		c-0.729,0.771-1.576,1.363-2.32,2.101c-2.694,2.719-6.904,2.568-8.359-1.336c-0.655-1.957-0.058-4.451,0.042-6.405
		C730.757,489.325,730.747,487.261,730.596,485.175"/>
	<path clip-path="url(#SVGID_2_)" fill="#D3D3D3" d="M764.42,527.66l4.154-7.632c-2.501-4.419-5.219-3.841-5.219-3.841l-6.435,5.725
		l3.52,12.125L764.42,527.66z"/>
	<path clip-path="url(#SVGID_2_)" fill="#D3D3D3" d="M749.446,525.653l-10.069-6.458c-2.09,1.105-2.224,3.013-2.263,4.25
		l10.393,9.98L749.446,525.653z"/>
	<path clip-path="url(#SVGID_2_)" fill="#BDDEEF" d="M494.978,371.181c0,29.011-23.518,52.529-52.529,52.529
		c-29.011,0-52.529-23.518-52.529-52.529c0-29.011,23.518-52.529,52.529-52.529C471.459,318.651,494.978,342.169,494.978,371.181"/>
	<path clip-path="url(#SVGID_2_)" fill="#99CCE0" d="M442.448,424.209c-29.24,0-53.028-23.788-53.028-53.029
		c0-29.24,23.788-53.029,53.028-53.029c29.24,0,53.029,23.789,53.029,53.029C495.477,400.422,471.688,424.209,442.448,424.209
		 M442.448,319.151c-28.688,0-52.028,23.34-52.028,52.029s23.34,52.029,52.028,52.029c28.689,0,52.029-23.34,52.029-52.029
		S471.137,319.151,442.448,319.151"/>
	<path clip-path="url(#SVGID_2_)" fill="#FFFFFF" d="M442.449,328.517c-0.276,0-0.5-0.224-0.5-0.5v-6.796c0-0.276,0.224-0.5,0.5-0.5
		c0.276,0,0.5,0.224,0.5,0.5v6.796C442.949,328.293,442.725,328.517,442.449,328.517"/>
	<path clip-path="url(#SVGID_2_)" fill="#FFFFFF" d="M442.449,421.823c-0.276,0-0.5-0.224-0.5-0.5v-6.796c0-0.276,0.224-0.5,0.5-0.5
		c0.276,0,0.5,0.224,0.5,0.5v6.796C442.949,421.6,442.725,421.823,442.449,421.823"/>
	<path clip-path="url(#SVGID_2_)" fill="#FFFFFF" d="M421.071,334.246c-0.239,0.138-0.545,0.056-0.683-0.183l-3.398-5.885
		c-0.138-0.24-0.056-0.545,0.183-0.683c0.239-0.139,0.545-0.057,0.683,0.183l3.398,5.885
		C421.393,333.801,421.311,334.107,421.071,334.246"/>
	<path clip-path="url(#SVGID_2_)" fill="#FFFFFF" d="M467.725,415.051c-0.239,0.138-0.545,0.056-0.683-0.183l-3.398-5.885
		c-0.138-0.24-0.056-0.545,0.183-0.683c0.239-0.139,0.545-0.057,0.683,0.183l3.398,5.885
		C468.045,414.607,467.963,414.913,467.725,415.051"/>
	<path clip-path="url(#SVGID_2_)" fill="#FFFFFF" d="M405.422,349.895c-0.138,0.239-0.444,0.321-0.683,0.183l-5.885-3.398
		c-0.24-0.138-0.322-0.444-0.183-0.683c0.138-0.239,0.443-0.321,0.683-0.183l5.885,3.398
		C405.478,349.35,405.56,349.656,405.422,349.895"/>
	<path clip-path="url(#SVGID_2_)" fill="#FFFFFF" d="M486.228,396.548c-0.138,0.239-0.444,0.321-0.683,0.183l-5.885-3.398
		c-0.24-0.138-0.322-0.444-0.183-0.683c0.138-0.239,0.443-0.321,0.683-0.183l5.885,3.398
		C486.283,396.003,486.365,396.309,486.228,396.548"/>
	<path clip-path="url(#SVGID_2_)" fill="#FFFFFF" d="M399.694,371.272c0,0.276-0.224,0.5-0.5,0.5h-6.796c-0.276,0-0.5-0.224-0.5-0.5
		s0.224-0.5,0.5-0.5h6.796C399.47,370.772,399.694,370.997,399.694,371.272"/>
	<path clip-path="url(#SVGID_2_)" fill="#FFFFFF" d="M493,371.272c0,0.276-0.224,0.5-0.5,0.5h-6.796c-0.276,0-0.5-0.224-0.5-0.5
		s0.224-0.5,0.5-0.5h6.796C492.776,370.772,493,370.997,493,371.272"/>
	<path clip-path="url(#SVGID_2_)" fill="#FFFFFF" d="M405.422,392.65c0.138,0.239,0.056,0.545-0.183,0.683l-5.885,3.398
		c-0.24,0.138-0.545,0.056-0.683-0.183c-0.139-0.239-0.057-0.545,0.183-0.683l5.885-3.398
		C404.978,392.329,405.284,392.411,405.422,392.65"/>
	<path clip-path="url(#SVGID_2_)" fill="#FFFFFF" d="M486.228,345.997c0.138,0.239,0.056,0.545-0.183,0.683l-5.885,3.398
		c-0.24,0.138-0.545,0.056-0.683-0.183c-0.139-0.239-0.057-0.545,0.183-0.683l5.885-3.398
		C485.783,345.676,486.089,345.758,486.228,345.997"/>
	<path clip-path="url(#SVGID_2_)" fill="#FFFFFF" d="M421.071,408.299c0.239,0.138,0.321,0.444,0.183,0.683l-3.398,5.885
		c-0.138,0.24-0.444,0.322-0.683,0.183c-0.239-0.138-0.321-0.443-0.183-0.683l3.398-5.885
		C420.526,408.243,420.833,408.162,421.071,408.299"/>
	<path clip-path="url(#SVGID_2_)" fill="#FFFFFF" d="M467.725,327.494c0.239,0.138,0.321,0.444,0.183,0.683l-3.398,5.885
		c-0.138,0.24-0.444,0.322-0.683,0.183c-0.239-0.138-0.321-0.443-0.183-0.683l3.398-5.885
		C467.18,327.438,467.485,327.356,467.725,327.494"/>
	<path clip-path="url(#SVGID_2_)" fill="#FFFFFF" d="M440.875,371.402l1.791-25.656l1.791,25.656
		C444.545,373.93,440.788,373.936,440.875,371.402"/>
	<path clip-path="url(#SVGID_2_)" fill="#FFFFFF" d="M442.666,373.193l-37.02-1.791l37.02-1.791
		C445.138,369.569,445.146,373.233,442.666,373.193"/>
	
		<line clip-path="url(#SVGID_2_)" fill="none" stroke="#99CCE0" stroke-width="8.211" stroke-miterlimit="10" x1="125.294" y1="741.277" x2="890.164" y2="741.277"/>
	<path clip-path="url(#SVGID_2_)" fill="#72544F" d="M723.53,467.684c6.049,2.358,12.979-1.434,17.908-4.133
		c2.377-1.301,5.763-3.485,9.219-7.045c0.056,5.264,1.533,8.684,2.919,10.865c2.584,4.062,5.749,4.829,8.36,9.305
		c1.815,3.11,2.347,6.206,2.513,8.335c0.357,0.075,0.715,0.15,1.07,0.224c-0.271-0.719-2.097-5.774,0.674-9.818
		c0.706-1.031,1.557-1.769,2.338-2.294c0.173-2.19,0.293-5.345-0.025-9.12c-0.506-5.99-0.833-9.871-3.518-13.203
		c-0.98-1.22-3.416-6.702-13.27-6.768c-0.854-0.949-2.296-2.306-4.412-3.284c-1.059-0.489-3.75-1.56-8.791-0.962
		c-6.597,0.782-11.368,3.729-15.493,6.336c-4.891,3.092-7.35,4.616-9.256,7.166c-5.039,6.744-3.973,15.322-3.31,18.849
		c0.557,0.25,1.363,0.499,2.112,0.201c0.917-0.364,1.167-1.369,1.845-2.927c1.087-2.501,1.63-3.752,2.512-4.239
		C718.603,464.246,720.606,466.544,723.53,467.684"/>
	<path clip-path="url(#SVGID_2_)" fill="#E5C6A5" d="M765.524,481.661c-1.221-3.474-0.482-7.148,1.528-8.799
		c2.856-2.346,7.211,0.27,8.483,3.311c1.019,2.436,0.338,5.648-2.239,11.616c-1.526,3.536-2.951,3.351-3.943,3.236
		C767.464,490.806,766.169,485.715,765.524,481.661"/>
</g>
</svg>
