<?xml version="1.0" encoding="utf-8"?>
<!-- Generator: Adobe Illustrator 16.0.0, SVG Export Plug-In . SVG Version: 6.00 Build 0)  -->
<!DOCTYPE svg PUBLIC "-//W3C//DTD SVG 1.1//EN" "http://www.w3.org/Graphics/SVG/1.1/DTD/svg11.dtd">
<svg version="1.1" id="Layer_1" xmlns="http://www.w3.org/2000/svg" xmlns:xlink="http://www.w3.org/1999/xlink" x="0px" y="0px"
	 width="1000px" height="1000px" viewBox="0 0 1000 1000" enable-background="new 0 0 1000 1000" xml:space="preserve">
<g>
	<defs>
		<rect id="SVGID_1_" width="1000" height="1000"/>
	</defs>
	<clipPath id="SVGID_2_">
		<use xlink:href="#SVGID_1_"  overflow="visible"/>
	</clipPath>
	<g clip-path="url(#SVGID_2_)">
		<defs>
			<path id="SVGID_3_" d="M448.368,226.92c-49.799,33.665-35.041,77.631-83.755,136.653
				c-39.048,47.312-57.588,30.035-123.428,85.225c-42.596,35.705-109.651,91.912-112.442,171.312
				c-0.656,18.666,1.321,64.739,44.156,118.663c43.001,62.085,139.904,54.497,201.743,52.005
				c95.153-3.836,191.862,2.17,287.569,5.272c42.344,1.373,85.801,2.571,125.811-12.507s76.431-50.232,82.399-95.648
				c7.743-58.925-35.319-110.322-50.152-167.635c-15.77-60.93-3.277-137.908-48.864-177.498
				c-32.676-28.377-54.269-4.001-106.03-33.264c-63.159-35.704-57.064-84.851-109.74-101.681
				c-10.311-3.294-20.606-4.626-30.518-4.626C484.491,203.192,450.359,225.574,448.368,226.92"/>
		</defs>
		<clipPath id="SVGID_4_">
			<use xlink:href="#SVGID_3_"  overflow="visible"/>
		</clipPath>
		<path clip-path="url(#SVGID_4_)" fill="#E3F4FF" d="M870.421,687.9c-5.97,45.41-42.39,80.56-82.399,95.64
			c-40.011,15.08-83.471,13.88-125.811,12.511c-95.71-3.101-192.42-9.11-287.57-5.271c-53.05,2.14-131.91,8.03-180.4-29.55
			c-8.03-6.22-15.23-13.64-21.34-22.46c-42.84-53.92-44.81-100-44.16-118.66c1.87-53.21,32.61-96.01,65.5-129.2
			c16.18-16.33,32.89-30.34,46.94-42.11c65.84-55.19,84.38-37.92,123.43-85.23c48.72-59.02,33.96-102.99,83.76-136.65
			c2.47-1.67,54.68-35.9,107.26-19.1c52.681,16.83,46.58,65.97,109.74,101.68c51.76,29.26,73.36,4.89,106.03,33.26
			c45.59,39.59,33.1,116.57,48.87,177.5C835.102,577.57,878.161,628.971,870.421,687.9"/>
		<path clip-path="url(#SVGID_4_)" fill="#BDDEEF" d="M221.311,801.385c-5.727-12.236-14.044-34.054-14.949-62.485
			c-0.911-28.609,6.093-51.031,11.067-63.621c8.721,10.537,20.895,27.855,29.225,51.909c9.801,28.302,9.805,53.004,8.7,67.516
			C244.007,796.93,232.659,799.158,221.311,801.385"/>
		<path clip-path="url(#SVGID_4_)" fill="#FFFFFF" d="M237.81,798.31c-4.674-9.43-7.172-19.677-9.415-29.885
			c-6.306-30.664-9.1-61.937-10.967-93.146c2.147,31.159,5.222,62.398,11.796,92.965c2.309,10.082,4.9,20.295,9.589,29.541
			L237.81,798.31"/>
		<path clip-path="url(#SVGID_4_)" fill="#99CCE0" d="M274.131,795.112c3.877-19.122,8.915-52.811,5.655-94.563
			c-3.281-42.015-13.488-73.276-20.248-90.604c-7.088,17.285-16.6,45.229-21.324,82.188c-5.558,43.485-1.951,79.594,1.263,100.565
			C251.028,793.502,262.581,794.308,274.131,795.112"/>
		<path clip-path="url(#SVGID_4_)" fill="#FFFFFF" d="M256.156,793.749c3.364-14.936,4.4-30.349,5.223-45.622
			c2.042-46.037,0.561-92.183-1.841-138.183c2.978,53.651,5.651,107.604,1.363,161.254c-0.749,7.658-1.71,15.315-3.405,22.866
			L256.156,793.749z"/>
		<path clip-path="url(#SVGID_4_)" fill="#BDDEEF" d="M294.787,795.112c2.255-11.121,5.185-30.713,3.289-54.995
			c-1.908-24.435-7.844-42.615-11.776-52.692c-4.122,10.053-9.654,26.304-12.401,47.799c-3.233,25.288-1.135,46.288,0.734,58.484
			C281.351,794.176,288.069,794.645,294.787,795.112"/>
		<path clip-path="url(#SVGID_4_)" fill="#FFFFFF" d="M284.333,794.319c1.376-6.281,2.151-13.405,2.636-19.852
			c1.784-28.974,0.814-58.075-0.669-87.043c1.7,28.968,2.887,58.081,1.318,87.087c-0.441,6.498-1.164,13.644-2.506,19.991
			L284.333,794.319"/>
		<path clip-path="url(#SVGID_4_)" fill="#99CCE0" d="M194.241,490.91v270.32c-8.03-6.22-15.23-13.64-21.34-22.46
			c-42.84-53.92-44.81-100-44.16-118.66C130.611,566.9,161.351,524.101,194.241,490.91"/>
		<rect x="434.016" y="320.372" clip-path="url(#SVGID_4_)" fill="#E8E8E8" width="109.552" height="149.878"/>
		<path clip-path="url(#SVGID_4_)" fill="#99CCE0" d="M545.569,472.25H432.016V318.372h113.553V472.25z M436.016,468.25h105.553
			V322.372H436.016V468.25z"/>
		<rect x="543.568" y="320.372" clip-path="url(#SVGID_4_)" fill="#E8E8E8" width="109.552" height="149.878"/>
		<path clip-path="url(#SVGID_4_)" fill="#99CCE0" d="M655.121,472.25H541.569V318.372h113.552V472.25z M545.569,468.25h105.552
			V322.372H545.569V468.25z"/>
		<rect x="434.016" y="470.25" clip-path="url(#SVGID_4_)" fill="#E8E8E8" width="109.552" height="149.878"/>
		<path clip-path="url(#SVGID_4_)" fill="#99CCE0" d="M545.568,622.128H432.016V468.25h113.552V622.128z M436.016,618.128h105.552
			V472.25H436.016V618.128z"/>
		<rect x="543.568" y="470.25" clip-path="url(#SVGID_4_)" fill="#E8E8E8" width="109.552" height="149.878"/>
		<path clip-path="url(#SVGID_4_)" fill="#99CCE0" d="M655.121,622.128H541.569V468.25h113.552V622.128z M545.568,618.128H651.12
			V472.25H545.568V618.128z"/>
		<g opacity="0.57" clip-path="url(#SVGID_4_)">
			<g>
				<defs>
					<rect id="SVGID_5_" x="179.673" y="322.349" width="640.654" height="503.086"/>
				</defs>
				<clipPath id="SVGID_6_">
					<use xlink:href="#SVGID_5_"  overflow="visible"/>
				</clipPath>
				<g clip-path="url(#SVGID_6_)">
					<defs>
						<polygon id="SVGID_7_" points="436.061,322.349 179.673,820.889 820.327,825.436 651.061,322.413 						"/>
					</defs>
					<clipPath id="SVGID_8_">
						<use xlink:href="#SVGID_7_"  overflow="visible"/>
					</clipPath>
					<defs>
						
							<filter id="Adobe_OpacityMaskFilter" filterUnits="userSpaceOnUse" x="177.025" y="318.977" width="645.949" height="509.831">
							<feColorMatrix  type="matrix" values="1 0 0 0 0  0 1 0 0 0  0 0 1 0 0  0 0 0 1 0"/>
						</filter>
					</defs>
					<mask maskUnits="userSpaceOnUse" x="177.025" y="318.977" width="645.949" height="509.831" id="SVGID_9_">
						<g filter="url(#Adobe_OpacityMaskFilter)">
							
								<linearGradient id="SVGID_10_" gradientUnits="userSpaceOnUse" x1="0" y1="1000.002" x2="1" y2="1000.002" gradientTransform="matrix(4.332 823.0768 823.0768 -4.332 -822580.8125 4382.4829)">
								<stop  offset="0" style="stop-color:#FFFFFF"/>
								<stop  offset="0.3735" style="stop-color:#959595"/>
								<stop  offset="0.679" style="stop-color:#454545"/>
								<stop  offset="0.8941" style="stop-color:#131313"/>
								<stop  offset="1" style="stop-color:#000000"/>
							</linearGradient>
							<polygon clip-path="url(#SVGID_8_)" fill="url(#SVGID_10_)" points="820.31,318.977 822.975,825.422 179.691,828.808 
								177.025,322.363 							"/>
						</g>
					</mask>
					
						<linearGradient id="SVGID_11_" gradientUnits="userSpaceOnUse" x1="0" y1="1000.002" x2="1" y2="1000.002" gradientTransform="matrix(4.332 823.0768 823.0768 -4.332 -822580.8125 4382.4829)">
						<stop  offset="0" style="stop-color:#FFFFA4"/>
						<stop  offset="1" style="stop-color:#FFFFA4"/>
					</linearGradient>
					<polygon clip-path="url(#SVGID_8_)" mask="url(#SVGID_9_)" fill="url(#SVGID_11_)" points="820.31,318.977 822.975,825.422 
						179.691,828.808 177.025,322.363 					"/>
				</g>
			</g>
		</g>
		<path clip-path="url(#SVGID_4_)" fill="#415CA0" d="M697.894,635.776c-0.773,2.302-4.521,10.728-44.236,14.513
			c-30.531,2.911-50.263,4.508-69.534-7.656c-6.505-4.105-11.117-8.616-14.006-11.805c-0.589-0.939-1.377-2.341-2.063-4.135
			c-2.638-6.907-1.539-13.877,1.599-23.334c5.875-17.71,9.058-27.306,18.733-34.487c4.497-3.337,9.313-5.35,17.61-8.814
			c6.142-2.565,11.677-4.397,16.09-5.688c0.988-0.289,1.919-0.55,2.792-0.789c1.813-0.563,4.496-1.232,7.787-1.408
			c4.454-0.233,7.687,0.542,14.244,2.55c0.243,0.075,0.296,0.091,0.544,0.168c0,0,0.012,0.004,0.039,0.012
			c0.672,0.208,1.14,0.352,1.153,0.356c4.719,1.452,11.455,4.721,11.455,4.721c4.109,1.993,8.279,4.009,12.857,6.245
			c2.794,1.781,6.691,4.695,10.286,9.184c4.973,6.21,6.635,12.022,9.459,22.316c2.55,9.293,3.336,16.228,4.561,27.031
			C697.993,631.175,698.353,634.413,697.894,635.776"/>
		<path clip-path="url(#SVGID_4_)" fill="#345389" d="M602.612,597.755c-1.592,8.47-3.185,16.939-4.776,25.408
			c1.471,0.49,2.939,0.98,4.409,1.47L602.612,597.755z"/>
		<path clip-path="url(#SVGID_4_)" fill="#345389" d="M658.171,630.821c-0.894-1.523-1.891-3.62-2.508-6.242
			c-1.262-5.365-0.218-9.885,0.49-12.161c-11.265,1.947-20.313,1.606-26.541,0.919c-18.3-2.02-24.673-8.398-41.603-7.347
			c-6.264,0.389-17.389,1.08-21.103,8.149c-3.124,5.947,0.396,13.739,2.001,16.37C581.548,651.237,647.301,633.787,658.171,630.821"
			/>
		<path clip-path="url(#SVGID_4_)" fill="#EBC9AF" d="M646.91,555.188c-2.485,1.587-6.092,4.313-9.408,8.626
			c-3.033,3.948-4.695,7.771-5.617,10.447c-0.274-2.402-0.956-5.935-2.817-9.815c-2.178-4.563-5.036-7.629-6.947-9.383
			c-0.018-0.083-0.025-0.182-0.034-0.291c0.989-0.34,1.92-0.648,2.793-0.93c1.811-0.665,4.496-1.455,7.787-1.662
			C637.12,551.904,640.353,552.818,646.91,555.188"/>
		<path clip-path="url(#SVGID_4_)" fill="#EBC9AF" d="M645.854,542.418v20.546c-7.966-0.023-15.932-0.047-23.897-0.07v-20.476
			H645.854z"/>
		<path clip-path="url(#SVGID_4_)" fill="#BCA18C" d="M645.854,545.235v9.012c-0.836,0.817-5.165,4.881-11.975,4.871
			c-6.776-0.01-11.081-4.048-11.923-4.871v-9.012H645.854z"/>
		<path clip-path="url(#SVGID_4_)" fill="#EBC9AF" d="M609.72,493.724c-1.59,13.283-1.179,24.017-0.473,31.408
			c0.058,0.598,0.116,1.121,0.123,1.181c0.563,4.938,1.328,11.659,4.829,17.814c2.907,5.108,6.663,8.006,7.487,8.625
			c2.537,1.906,6.67,5.029,12.596,5.008c5.769-0.021,9.853-3.004,11.002-3.87c2.878-2.165,4.655-4.847,5.919-6.753
			c1.431-2.158,2.21-3.889,2.403-4.326c1.291-2.916,1.735-5.315,2.044-7.052c0.805-4.51,0.632-8.461,0.497-11.522
			c-0.012-0.277-0.022-0.455-0.024-0.521c-0.273-6.952-0.435-17.286-0.591-30.936c-2.649-1.978-10.456-7.265-21.726-7.438
			C620.896,485.142,612.104,491.79,609.72,493.724"/>
		<path clip-path="url(#SVGID_4_)" fill="#32201B" d="M612.277,495.993c-0.295,4.567-0.801,8.22-1.22,10.763
			c-0.635,3.844-0.94,4.35-1.057,6.765c-0.12,2.481-0.511,4.954-0.456,7.438c0.021,0.924,0.089,2.571-0.68,2.915
			c-0.314,0.14-0.679,0.023-0.951-0.108c-0.31-3.481-0.576-7.041-0.792-10.677c-0.438-7.36-0.639-14.453-0.65-21.253h-2.332
			c0.433-1.003,1.938-4.158,5.58-6.199c3.709-2.079,7.256-1.67,8.324-1.506c1.714-2.009,5.674-6.019,11.866-7.35
			c4.499-0.966,8.236-0.103,10.98,0.532c1.161,0.268,3.545,0.902,10.717,4.516c2.802,1.412,6.646,3.437,11.155,6.096
			c-0.271,0.182-0.646,0.394-1.126,0.557c-0.602,0.204-1.134,0.25-1.505,0.253c0.147,0.215,0.452,0.6,0.974,0.885
			c0.69,0.376,1.345,0.353,1.606,0.329c-0.234,0.351-0.601,0.81-1.151,1.227c-0.28,0.213-0.554,0.373-0.796,0.493
			c0.104,5.829-0.159,10.771-0.48,14.569c-0.176,2.077-0.439,5.144-1.091,9.153c-0.771,4.742-1.741,8.75-2.603,11.84
			c-0.239-0.713-0.563-1.802-0.797-3.16c-0.235-1.362-0.255-2.281-0.316-3.265c-0.04-0.655-0.213-3.338-0.758-5.817
			c-0.379-1.721-0.926-3.178-2.021-6.092c-0.655-1.743-1.095-2.767-1.182-4.368c-0.069-1.308,0.146-2.39,0.337-3.093
			c-6.281-0.359-13.042-0.983-20.202-1.978C624.722,498.496,618.25,497.304,612.277,495.993"/>
		<path clip-path="url(#SVGID_4_)" fill="#EBC9AF" d="M655.073,528.191c0.432-2.801,1.393-4.835,2.111-6.081
			c1.077-1.863,2.8-4.848,5.301-4.858c0.099,0,1.316-0.023,2.174,0.771c1.697,1.572,0.737,5.016-0.864,10.757
			c0,0-0.653,2.342-2.571,5.74c-0.533,0.943-1.09,1.817-2.147,2.24c-0.111,0.045-1.377,0.538-2.613,0
			c-1.504-0.654-2.421-2.595-2.047-4.725C654.636,530.755,654.854,529.474,655.073,528.191"/>
		<path clip-path="url(#SVGID_4_)" fill="#EBC9AF" d="M610.369,523.715c-1.434-2.929-3.457-4.506-4.883-4.123
			c-0.994,0.268-1.499,1.431-1.784,2.087c-0.236,0.545-0.683,2.542,0.342,7.398c1.026,4.862,2.598,6.334,3.188,6.905
			c1.486,1.441,2.465,1.387,2.693,1.365c1.635-0.151,2.517-2.078,2.603-2.273C611.808,531.288,611.088,527.501,610.369,523.715"/>
		<path clip-path="url(#SVGID_4_)" fill="#4B2F27" d="M629.072,513.041c-0.574-0.278-5.717-2.858-10.169,0.024
			c-0.117,0.102-0.389,0.349-0.683,0.835c-0.833,1.381-0.881,3.084-0.86,3.896c1.3-0.716,3.06-1.524,5.236-2.1
			c2.531-0.669,4.751-0.793,6.374-0.759C629.005,514.306,629.038,513.673,629.072,513.041"/>
		<path clip-path="url(#SVGID_4_)" fill="#4B2F27" d="M636.293,515.115c0,0,4.781-0.417,12.065,2.846
			c0.063-0.489,0.106-1.26-0.103-2.163c-0.086-0.374-0.32-1.39-1.036-2.234c-0.915-1.082-2.15-1.325-3.824-1.655
			c-4.144-0.492-6.571,0.708-7.179,1.063L636.293,515.115z"/>
		<path clip-path="url(#SVGID_4_)" fill="#FFFFFF" d="M626.391,524.297c0.014-0.604-0.491-1.039-0.759-1.271
			c-0.284-0.246-0.825-0.629-2.353-0.911c-1.853-0.342-3.249-0.182-4.116-0.075c-1.013,0.124-1.404,0.275-1.688,0.417
			c-0.84,0.419-1.346,1.057-1.612,1.461c0.201,0.432,0.604,1.126,1.365,1.65c0.636,0.437,1.199,0.535,2.239,0.702
			c0.357,0.058,2.188,0.336,4.515-0.095c0.564-0.104,1.165-0.252,1.707-0.722C625.923,525.251,626.378,524.857,626.391,524.297"/>
		<path clip-path="url(#SVGID_4_)" fill="#5C524D" d="M622.919,523.79c0,1.458-1.178,2.636-2.637,2.636
			c-1.454,0-2.636-1.178-2.636-2.636c0-0.604,0.203-1.161,0.546-1.604c0.876-0.099,2.138-0.455,3.803-0.149
			c0.175,0.033,0.34,0.065,0.488,0.104C622.739,522.545,622.919,523.278,622.919,523.79"/>
		<path clip-path="url(#SVGID_4_)" fill="#2E2927" d="M620.91,523.967c0,0.597-0.484,1.08-1.081,1.08
			c-0.598,0-1.082-0.483-1.082-1.08c0-0.598,0.484-1.081,1.082-1.081C620.426,522.886,620.91,523.369,620.91,523.967"/>
		<path clip-path="url(#SVGID_4_)" fill="#FFFFFF" d="M621.315,523.241c0,0.304-0.246,0.55-0.55,0.55s-0.55-0.246-0.55-0.55
			s0.246-0.55,0.55-0.55S621.315,522.938,621.315,523.241"/>
		<path clip-path="url(#SVGID_4_)" fill="#8F6E43" d="M615.861,523.918c0.483-0.889,1.327-1.644,2.372-1.887
			c2.273-0.523,6.53-0.649,7.974,1.524c0.137,0.223,0.213,0.487,0.186,0.742c-0.043-0.521-0.421-0.896-0.817-1.187
			c-0.379-0.31-0.849-0.479-1.328-0.604c-1.451-0.36-2.964-0.473-4.456-0.342c-0.498,0.04-1.005,0.091-1.488,0.175
			C617.315,522.502,616.477,523.14,615.861,523.918"/>
		<path clip-path="url(#SVGID_4_)" fill="#FFFFFF" d="M638.478,524.297c-0.014-0.604,0.491-1.039,0.759-1.271
			c0.284-0.246,0.825-0.629,2.353-0.911c1.853-0.342,3.249-0.182,4.117-0.075c1.012,0.124,1.403,0.275,1.688,0.417
			c0.84,0.419,1.347,1.057,1.612,1.461c-0.201,0.432-0.604,1.126-1.365,1.65c-0.636,0.437-1.199,0.535-2.239,0.702
			c-0.357,0.058-2.188,0.336-4.515-0.095c-0.564-0.104-1.165-0.252-1.707-0.722C638.945,525.251,638.49,524.857,638.478,524.297"/>
		<path clip-path="url(#SVGID_4_)" fill="#5C524D" d="M639.959,523.66c0,1.514,1.223,2.736,2.736,2.736
			c1.51,0,2.737-1.223,2.737-2.736c0-0.626-0.211-1.205-0.567-1.664c-0.909-0.104-2.256-0.206-3.984,0.11
			c-0.181,0.035-0.353,0.069-0.507,0.107C640.108,522.635,639.959,523.128,639.959,523.66"/>
		<path clip-path="url(#SVGID_4_)" fill="#2E2927" d="M641.16,524.073c0,0.62,0.503,1.123,1.123,1.123
			c0.619,0,1.121-0.503,1.121-1.123s-0.502-1.123-1.121-1.123C641.663,522.95,641.16,523.453,641.16,524.073"/>
		<path clip-path="url(#SVGID_4_)" fill="#FFFFFF" d="M642.942,523.037c0,0.315,0.256,0.571,0.571,0.571s0.57-0.256,0.57-0.571
			c0-0.314-0.255-0.57-0.57-0.57S642.942,522.723,642.942,523.037"/>
		<path clip-path="url(#SVGID_4_)" fill="#8F6E43" d="M638.477,524.298c0.2-2.875,6.11-2.85,8.159-2.267
			c1.045,0.243,1.889,0.997,2.372,1.887c-0.319-0.396-0.677-0.757-1.095-1.024C646.31,521.662,638.771,521.677,638.477,524.298"/>
		<path clip-path="url(#SVGID_4_)" fill="#030202" d="M656.928,519.549c-0.191,0.035-0.43,0.079-0.706,0.103
			c-0.181,0.007-0.391,0.003-0.609-0.019l-0.048-0.001c-0.96-0.093-1.639-0.493-2.016-0.719c0,0-1.895-1.249-3.036-1.848
			c-0.642-0.334-1.276-0.573-1.892-0.745c-1.961-0.574-3.687-0.497-4.41-0.462c-0.333,0.014-0.819,0.054-1.411,0.149h-0.01
			c-0.897,0.146-2.044,0.433-3.291,0.983c-1.18,0.524-2.074,1.119-2.71,1.604c-0.338,0.308-0.808,0.424-1.243,0.284
			c-0.416-0.141-0.631-0.463-0.733-0.678c-0.061-0.128-0.195-0.204-0.338-0.207l-4.896-0.078c-0.142-0.003-0.278,0.069-0.344,0.195
			c-0.106,0.211-0.334,0.526-0.761,0.653c-0.431,0.126-0.895-0.005-1.223-0.325c-0.62-0.505-1.505-1.128-2.657-1.689
			c-1.002-0.482-1.93-0.783-2.736-0.978h-0.01c-0.834-0.194-1.509-0.271-1.927-0.307c-0.409-0.035-1.151-0.096-2.084-0.043
			c-1.201,0.065-2.729,0.316-4.263,1.044c-1.152,0.563-3.085,1.75-3.085,1.75c-0.163,0.092-0.375,0.203-0.644,0.323
			c-0.22,0.091-0.479,0.182-0.775,0.243c-0.19,0.045-0.4,0.07-0.619,0.085c-0.238,0.017-0.457,0.013-0.647-0.001
			c-0.276-0.022-0.523-0.074-0.712-0.125c-0.013,0.171-0.025,0.343-0.037,0.514v0.01c-0.051,0.789-0.102,1.579-0.153,2.377
			c0.314-0.023,0.695-0.026,1.084,0.066c0.114,0.02,0.219,0.051,0.332,0.091c0.151,0.059,0.283,0.128,0.387,0.253
			c0.215,0.261,0.181,0.613,0.16,0.726c0.015,0.21,0.03,0.439,0.055,0.696c0.102,0.764,0.276,1.718,0.622,2.762
			c0,0.009,0,0.009,0.009,0.02c0.245,0.727,0.566,1.513,1.01,2.301c0.315,0.557,0.694,1.229,1.235,1.915
			c0.467,0.606,1.075,1.226,1.866,1.771c2.768,1.949,5.751,1.722,6.562,1.629c0.734-0.082,3.167-0.396,5.273-2.304
			c1.585-1.439,2.202-3.078,2.749-4.554c0.706-1.884,0.914-3.552,0.977-4.701c0.004-0.066-0.007-0.122-0.036-0.181
			c-0.131-0.269-0.484-1.115-0.082-1.74c0.265-0.414,0.724-0.531,1.221-0.665c0.525-0.144,2.819-0.107,3.351,0.054
			c0.492,0.151,0.947,0.282,1.197,0.705c0.384,0.638,0.001,1.476-0.139,1.737c-0.029,0.057-0.043,0.112-0.042,0.177
			c0.018,1.151,0.181,2.825,0.825,4.732c0.499,1.493,1.063,3.148,2.601,4.64c2.044,1.975,4.454,2.366,5.195,2.474
			c0.798,0.117,3.782,0.442,6.611-1.417c1.713-1.124,2.593-2.547,3.219-3.584c1.37-2.281,1.757-4.455,1.882-5.72
			c-0.017-0.115-0.04-0.467,0.184-0.721c0.106-0.122,0.241-0.187,0.394-0.241c0.048-0.018,0.106-0.027,0.153-0.045
			c0.173-0.045,0.344-0.071,0.506-0.078c0.277-0.023,0.534-0.01,0.762,0.013C656.981,521.482,656.96,520.521,656.928,519.549
			 M627.538,524.31c-0.2,2.91-1.841,4.854-2.345,5.427c-0.563,0.648-1.619,1.859-3.43,2.525c-3.573,1.313-6.844-0.683-7.258-0.946
			c-0.415-0.264-2.111-1.395-3.171-3.488c-0.342-0.672-0.615-1.438-0.764-2.307c-0.139-0.83-0.136-1.601-0.049-2.276
			c0.111-0.979,0.371-1.746,0.55-2.209c0.219-0.539,1.048-2.362,3.018-3.502c1.191-0.694,2.328-0.866,3.575-0.865
			c0.495-0.012,0.999,0.016,1.531,0.033l0.087,0.002c1.475,0.062,3.339,0.149,5.232,1.379c0.622,0.4,1.658,1.094,2.369,2.429
			C627.68,522.009,627.599,523.444,627.538,524.31 M653.23,526.211c-0.715,3.567-3.561,5.331-4.119,5.665
			c-0.423,0.25-3.757,2.138-7.284,0.71c-1.787-0.725-2.806-1.969-3.347-2.635c-0.485-0.589-2.063-2.585-2.168-5.5
			c-0.033-0.866-0.066-2.305,0.775-3.775c0.755-1.312,1.812-1.971,2.447-2.351c1.961-1.187,3.875-1.193,5.351-1.209
			c0.447-0.002,0.866-0.005,1.276,0.002h0.009c0.885,0.024,1.703,0.104,2.517,0.394c0.426,0.131,0.852,0.328,1.285,0.602
			c1.932,1.202,2.702,3.053,2.902,3.599C653.158,522.506,653.635,524.18,653.23,526.211"/>
		<path clip-path="url(#SVGID_4_)" fill="#BCA18C" d="M632.116,524.298c-0.575,1.814-1.566,4.398-2.237,6.208
			c-0.49,1.523-1.351,2.977-1.273,4.595c0.032,1.054,0.578,1.811,1.407,2.407c1.199,0.898,2.879,0.822,4.192,0.185
			c-1.883,1.337-4.247,0.988-5.67-0.833c-1.373-2.092-0.019-4.538,0.78-6.576C630.161,528.248,631.097,526.252,632.116,524.298"/>
		<path clip-path="url(#SVGID_4_)" fill="#5C2222" d="M623.608,544.733c3.381,0.083,6.662,0.298,10.017,0.286
			c3.353,0.025,6.634-0.171,10.016-0.235C637.418,547.351,629.82,547.321,623.608,544.733"/>
		<path clip-path="url(#SVGID_4_)" fill="#4B2F27" d="M622.242,548.224c0.512-0.18,1.066,2.021,3.188,3.035
			c0.406,0.194,1.518,0.655,2.833,0.456c1.237-0.188,1.464-0.781,2.934-1.265c1.377-0.453,2.563-0.388,3.086-0.354
			c1.641,0.105,1.865,0.615,4.502,1.063c1.265,0.214,1.724,0.184,2.125,0.101c1.174-0.24,2.089-0.977,2.377-1.214
			c0.776-0.635,0.98-1.106,1.821-1.416c0.24-0.088,0.843-0.31,1.113-0.051c0.281,0.268,0.066,0.921-0.102,1.366
			c-0.675,1.792-1.219,3.236-2.579,4.603c-3.217,3.23-8.197,3.217-9.088,3.214c-4.908-0.013-8.143-2.496-9.648-3.651
			c-1.131-0.869-2.203-1.947-2.637-3.507C621.88,549.571,621.879,548.353,622.242,548.224"/>
		<path clip-path="url(#SVGID_4_)" fill="#4A423B" d="M622.786,540.838c-0.122,0.792-0.438,1.507-0.949,2.125
			C621.957,542.17,622.277,541.457,622.786,540.838"/>
		<path clip-path="url(#SVGID_4_)" fill="#4A423B" d="M625.291,540.004c-0.303,0.71-0.497,1.3-0.684,2.049
			C624.341,541.331,624.645,540.422,625.291,540.004"/>
		<path clip-path="url(#SVGID_4_)" fill="#4A423B" d="M624.389,540.421c-0.303,0.71-0.497,1.3-0.684,2.049
			C623.438,541.748,623.742,540.839,624.389,540.421"/>
		<path clip-path="url(#SVGID_4_)" fill="#4A423B" d="M626.314,540.042c-0.271,0.718-0.467,1.312-0.683,2.049
			C625.398,541.362,625.693,540.484,626.314,540.042"/>
		<path clip-path="url(#SVGID_4_)" fill="#4A423B" d="M627.339,539.814c-0.162,0.663-0.304,1.207-0.606,1.82
			C626.603,540.975,626.809,540.249,627.339,539.814"/>
		<path clip-path="url(#SVGID_4_)" fill="#4A423B" d="M628.174,540.345c0.031,0.528-0.12,0.985-0.417,1.404
			C627.641,541.241,627.808,540.716,628.174,540.345"/>
		<path clip-path="url(#SVGID_4_)" fill="#4A423B" d="M628.971,539.738c0.016,0.676-0.088,1.309-0.379,1.935
			C628.456,541.004,628.581,540.3,628.971,539.738"/>
		<path clip-path="url(#SVGID_4_)" fill="#4A423B" d="M629.919,539.852c0.188,0.538,0.163,1.076-0.076,1.594
			C629.655,540.908,629.682,540.37,629.919,539.852"/>
		<path clip-path="url(#SVGID_4_)" fill="#4A423B" d="M630.45,540.155c0.374,0.255,0.426,0.778,0.19,1.138
			C630.449,540.918,630.424,540.586,630.45,540.155"/>
		<path clip-path="url(#SVGID_4_)" fill="#4A423B" d="M630.83,539.624c0.357,0.339,0.524,0.76,0.492,1.252
			C630.959,540.544,630.793,540.115,630.83,539.624"/>
		<path clip-path="url(#SVGID_4_)" fill="#4A423B" d="M631.437,539.435c0.697,0.547,1.056,1.522,0.873,2.39
			C632.046,540.975,631.786,540.254,631.437,539.435"/>
		<path clip-path="url(#SVGID_4_)" fill="#4A423B" d="M632.575,539.7c0.588,0.328,0.895,1.104,0.683,1.745
			C633.019,540.813,632.829,540.327,632.575,539.7"/>
		<path clip-path="url(#SVGID_4_)" fill="#4A423B" d="M633.068,539.7c0.54,0.278,0.803,0.895,0.759,1.479
			C633.463,540.727,633.273,540.252,633.068,539.7"/>
		<path clip-path="url(#SVGID_4_)" fill="#4A423B" d="M633.751,539.549c0.529,0.224,0.804,0.916,0.569,1.441
			C634.101,540.458,633.955,540.086,633.751,539.549"/>
		<path clip-path="url(#SVGID_4_)" fill="#4A423B" d="M634.396,539.776c0.512,0.065,0.832,0.743,0.53,1.176
			C634.751,540.475,634.629,540.227,634.396,539.776"/>
		<path clip-path="url(#SVGID_4_)" fill="#4A423B" d="M635.041,539.814c0.699,0.059,1.258,0.894,0.986,1.556
			C635.813,540.71,635.525,540.305,635.041,539.814"/>
		<path clip-path="url(#SVGID_4_)" fill="#4A423B" d="M635.725,539.7c0.657,0.204,1.111,0.953,0.985,1.631
			C636.386,540.722,636.115,540.27,635.725,539.7"/>
		<path clip-path="url(#SVGID_4_)" fill="#4A423B" d="M636.862,540.308c0.583,0.367,0.996,0.928,1.176,1.594
			C637.496,541.464,637.123,540.951,636.862,540.308"/>
		<path clip-path="url(#SVGID_4_)" fill="#4A423B" d="M637.47,539.984c0.716,0.471,1.279,1.105,1.649,1.878
			C638.42,541.363,637.874,540.743,637.47,539.984"/>
		<path clip-path="url(#SVGID_4_)" fill="#4A423B" d="M638.513,539.795c0.465,0.296,0.824,0.771,0.873,1.328
			C638.963,540.765,638.642,540.355,638.513,539.795"/>
		<path clip-path="url(#SVGID_4_)" fill="#4A423B" d="M639.594,540.099c0.625,0.313,1.094,0.954,1.1,1.669
			C640.277,541.205,639.912,540.711,639.594,540.099"/>
		<path clip-path="url(#SVGID_4_)" fill="#4A423B" d="M640.732,540.573c0.555,0.226,0.9,0.873,0.777,1.461
			C641.193,541.52,640.983,541.122,640.732,540.573"/>
		<path clip-path="url(#SVGID_4_)" fill="#4A423B" d="M641.908,540.819c0.663,0.339,1.22,0.924,1.385,1.669
			C642.758,541.966,642.278,541.465,641.908,540.819"/>
		<path clip-path="url(#SVGID_4_)" fill="#BBDAE6" d="M645.743,554.261c-1.087,1.368-2.241,2.762-3.466,4.174
			c-1.782,2.054-3.553,3.959-5.282,5.72c0.099,4.366,0.197,8.731,0.296,13.098c0.599-1.096,1.622-2.912,3.006-5.097
			c3.043-4.803,4.636-6.342,6.54-9.962c0.751-1.428,1.812-3.678,2.712-6.685C648.28,555.093,647.012,554.677,645.743,554.261"/>
		<path clip-path="url(#SVGID_4_)" fill="#BBDAE6" d="M621.926,554.382c-1.697,0.542-3.395,1.084-5.092,1.626
			c1.36,2.889,2.893,5.898,4.621,8.997c2.633,4.723,5.342,8.975,7.992,12.765l0.647-13.415c-1.327-1.102-2.836-2.526-4.34-4.324
			C624.055,557.999,622.817,556.035,621.926,554.382"/>
		<path clip-path="url(#SVGID_4_)" fill="#EBC9AF" d="M620.35,564.095c0.101,0.083,0.213,0.172,0.325,0.261
			c0.586,0.474,1.315,1.066,1.974,1.244c0.047,0.018,0.089,0.053,0.1,0.101c0.794,2.844,2.868,5.213,4.87,7.507
			c0.255,0.296,0.521,0.58,0.794,0.847c0.202,0.207,0.409,0.403,0.611,0.599c0.124,0.118,0.248,0.236,0.366,0.355
			c1.155,1.113,2.245,2.191,2.922,3.703v0.006l1.179,3.217l1.521,4.165l8.088-7.732c-0.438-0.532-0.895-1.078-1.168-1.789
			c-0.106-0.261-0.248-0.646-0.414-1.09c-0.007-0.006-0.007-0.006-0.013-0.012c-0.136-0.201-0.266-0.421-0.373-0.658
			c-0.349-0.746-1.143-2.541-1.688-3.768c-0.22-0.491-0.403-0.895-0.492-1.103c-0.041-0.094-0.065-0.147-0.071-0.153
			c0-0.007-0.006-0.007-0.006-0.012c-0.03-0.048,0.196-0.438,0.284-0.587c0.06-0.101,0.113-0.201,0.172-0.308
			c0.812-1.463,1.594-3.164,1.552-4.906v-0.088l-0.006-0.208c-0.011-0.563-0.005-1.143,0.03-1.724c0-0.007,0.006-0.019,0.006-0.024
			c0.113-1.611,0.51-3.193,1.665-4.289c0.136-0.124,0.284-0.255,0.438-0.379c0.552-0.474,1.12-0.954,1.084-1.606
			c-0.028-0.634-0.698-1.096-1.309-1.131c-0.557-0.036-1.167,0.189-1.848,0.675c-2.104,1.5-3.288,3.431-3.33,5.445
			c0,0.071-0.053,0.13-0.124,0.143c-0.071,0.012-0.144-0.036-0.16-0.107c-0.64-2.18-1.357-4.656-2.939-6.499
			c-1.463-1.706-4.1-2.915-6.309-1.925c-0.155,0.064-0.32,0.16-0.469,0.271c-0.385,0.279-0.705,0.677-0.688,1.145
			c0.013,0.188,0.071,0.354,0.16,0.503c0,0.006,0.006,0.006,0.006,0.006c0.019,0.03,0.03,0.059,0.042,0.089
			c0.029,0.071,0.047,0.143,0.041,0.219c0,0.154-0.064,0.297-0.172,0.403c-0.029,0.03-0.064,0.06-0.1,0.077
			c-0.066,0.053-0.144,0.083-0.226,0.101c-0.319,0.065-0.646,0.143-0.966,0.237c-0.355,0.102-1.12,0.373-1.327,0.906
			c-0.029,0.083-0.048,0.172-0.054,0.272c-0.006,0.124,0.018,0.249,0.054,0.361v0.006c0.018,0.053,0.029,0.095,0.035,0.143
			c0.019,0.278-0.178,0.527-0.45,0.61c-0.042,0.012-0.089,0.018-0.136,0.018h-0.006c-0.019,0.006-0.024,0.006-0.042,0.006
			c-0.871-0.012-1.155,0.113-1.753,0.396c-0.261,0.125-1.612,0.973-1.601,1.991c0,0.102,0.024,0.195,0.06,0.284
			c0,0.006,0.006,0.012,0.006,0.018c0.012,0.03,0.024,0.06,0.03,0.09c0.041,0.172-0.006,0.349-0.113,0.485
			c-0.035,0.047-0.077,0.089-0.124,0.124c-0.018,0.012-0.036,0.024-0.048,0.03c-0.018,0.017-0.035,0.022-0.053,0.035
			c-0.32,0.225-0.527,0.604-0.635,0.93C619.294,562.809,619.786,563.65,620.35,564.095"/>
		<path clip-path="url(#SVGID_4_)" fill="#BCA18C" d="M629.39,575.008c1.155,1.113,2.245,2.191,2.921,3.703v0.006
			c0.22,0.379,0.42,0.781,0.58,1.22l0.6,1.997l1.521,4.165l8.087-7.732c-0.438-0.532-0.894-1.078-1.167-1.789
			c-0.105-0.261-0.249-0.646-0.414-1.09c-0.006-0.006-0.006-0.006-0.012-0.012c-0.137-0.201-0.267-0.421-0.374-0.658
			c-0.349-0.746-1.143-2.541-1.688-3.768C636.859,574.401,632.597,574.747,629.39,575.008"/>
		<path clip-path="url(#SVGID_4_)" fill="#BCA18C" d="M626.901,554.977c1.547-0.535,3.106-0.211,4.668,0.214
			c-1.456-0.396-3.155-1.085-4.437-0.913C627.242,554.524,627.134,554.844,626.901,554.977"/>
		<path clip-path="url(#SVGID_4_)" fill="#BCA18C" d="M623.833,557.631c0.673-0.016,1.667,0,2.862,0.166
			c1.002,0.14,1.711,0.326,1.721,0.289s-0.7-0.28-4.032-1.225C624.529,557.218,624.212,557.626,623.833,557.631"/>
		<path clip-path="url(#SVGID_4_)" fill="#BCA18C" d="M620.392,560.931c0.646-0.041,1.4-0.044,2.234,0.036
			c1.058,0.1,1.972,0.307,2.712,0.528c-0.59-0.31-1.395-0.658-2.39-0.897c-0.96-0.23-1.807-0.291-2.458-0.289
			c0.023,0.056,0.082,0.226,0.018,0.419C620.478,560.822,620.429,560.889,620.392,560.931"/>
		<path clip-path="url(#SVGID_4_)" fill="#345389" d="M629.796,578.255c1.554-0.12,3.906-0.485,6.521-1.652
			c2.806-1.253,4.74-2.907,5.878-4.041c17.856,20.145,32.858,34.904,43.806,45.092c6.222,5.79,13.508,12.313,11.894,18.123
			c-1.892,6.813-15.312,10.104-24.016,9.061C644.448,641.309,631.006,583.678,629.796,578.255"/>
		<rect x="472.303" y="640.223" clip-path="url(#SVGID_4_)" fill="#3D3D3D" width="12.064" height="185.562"/>
		<rect x="483.945" y="640.223" clip-path="url(#SVGID_4_)" fill="#A34F2E" width="327.792" height="156.585"/>
		<rect x="811.737" y="640.223" clip-path="url(#SVGID_4_)" fill="#3D3D3D" width="12.063" height="185.562"/>
		<rect x="424.999" y="635.776" clip-path="url(#SVGID_4_)" fill="#7C3A25" width="447.724" height="16.954"/>
		<path clip-path="url(#SVGID_4_)" fill="#FFFFFF" d="M828.16,635.276c0.684-1.221,1.449-3.139,1.392-5.538
			c-0.052-2.164-0.764-3.899-1.392-5.021h56.343c0.785,1.455,1.243,3.08,1.325,4.717c0.127,2.512-0.619,4.527-1.326,5.842H828.16z"
			/>
		<path clip-path="url(#SVGID_4_)" fill="#E80F2E" d="M884.199,625.218c0.667,1.322,1.057,2.778,1.13,4.242
			c0.113,2.235-0.5,4.062-1.131,5.316h-55.22c0.589-1.257,1.123-2.982,1.073-5.05c-0.044-1.808-0.51-3.324-1.067-4.509H884.199z
			 M884.797,624.218h-57.532c0.521,0.766,1.72,2.739,1.787,5.532c0.074,3.087-1.278,5.28-1.787,6.026h57.532
			c0.537-0.942,1.688-3.257,1.531-6.367C886.204,626.964,885.328,625.146,884.797,624.218"/>
		<path clip-path="url(#SVGID_4_)" fill="#FFFFFF" d="M831.82,623.718c0.683-1.22,1.449-3.138,1.391-5.538
			c-0.052-2.164-0.763-3.899-1.391-5.021h56.342c0.786,1.455,1.244,3.08,1.326,4.718c0.127,2.511-0.62,4.526-1.327,5.841H831.82z"/>
		<path clip-path="url(#SVGID_4_)" fill="#1021B5" d="M887.859,613.66c0.667,1.321,1.056,2.777,1.13,4.241
			c0.112,2.235-0.5,4.062-1.131,5.316h-55.221c0.589-1.257,1.123-2.982,1.073-5.05c-0.044-1.808-0.509-3.324-1.067-4.508H887.859z
			 M888.456,612.66h-57.532c0.522,0.765,1.72,2.738,1.787,5.531c0.075,3.088-1.278,5.28-1.787,6.026h57.532
			c0.538-0.942,1.688-3.257,1.532-6.367C889.864,615.406,888.988,613.588,888.456,612.66"/>
		<rect x="723.009" y="579.206" clip-path="url(#SVGID_4_)" fill="#4F4E4E" width="96.767" height="50.809"/>
		<polygon clip-path="url(#SVGID_4_)" fill="#3A3A3A" points="819.749,635.772 722.925,635.772 722.925,630.015 819.775,630.015 		
			"/>
		<polygon clip-path="url(#SVGID_4_)" fill="#3A3A3A" points="723.03,635.772 713.902,635.772 713.902,631.065 723.03,630.015 		"/>
		<path clip-path="url(#SVGID_4_)" fill="#4080A0" d="M411.506,697.122c-28.702,0.411-71.642-11.01-88.709-38.504
			c-3.188-5.137-5.309-11.711-5.309-11.711c-8.231-22.373-4.929-41.36-3.504-48.968c2.139-11.424,5.187-16.336,6.826-18.454
			c0.21-0.271,0.364-0.453,0.564-0.694c3.29-3.969,8.928-9.42,18.989-15.258c2.176,2.398,5.16,5.981,8.144,10.691
			c7.381,11.648,9.811,22.375,11.586,30.854c2.677,12.787,3.98,21.009,4.741,26.727c0.38,2.855-0.023,7.823,1.989,13.953
			c0,0,1.712,5.214,5.192,10.368c5.413,8.016,20.914,18.999,43.3,27.602c0.319,0.87,1.774,5.111-0.381,9.393
			C413.904,695.168,412.443,696.439,411.506,697.122"/>
		<path clip-path="url(#SVGID_4_)" fill="#4080A0" d="M311.994,547.566c0.85-0.498,3-1.6,5.844-1.38
			c4.42,0.341,6.96,3.597,7.369,4.139c-0.348,1.559-0.696,3.118-1.043,4.677c-4.274-0.706-8.547-1.413-12.821-2.119
			C311.56,551.11,311.777,549.338,311.994,547.566"/>
		<path clip-path="url(#SVGID_4_)" fill="#F7B89F" d="M280.6,827.957c3.18,0,5.758-2.223,5.758-4.963v-91.17
			c0-2.74-2.578-4.963-5.758-4.963c-3.18,0-5.758,2.223-5.758,4.963v91.17C274.842,825.734,277.42,827.957,280.6,827.957"/>
		<path clip-path="url(#SVGID_4_)" fill="#D19182" d="M294.733,827.957c3.18,0,5.758-2.223,5.758-4.963v-91.17
			c0-2.74-2.578-4.963-5.758-4.963s-5.758,2.223-5.758,4.963v91.17C288.975,825.734,291.553,827.957,294.733,827.957"/>
		<path clip-path="url(#SVGID_4_)" fill="#F7B89F" d="M348.437,827.957c3.18,0,5.758-2.223,5.758-4.963v-91.17
			c0-2.74-2.578-4.963-5.758-4.963c-3.18,0-5.758,2.223-5.758,4.963v91.17C342.679,825.734,345.257,827.957,348.437,827.957"/>
		<path clip-path="url(#SVGID_4_)" fill="#D19182" d="M361.565,827.957c3.18,0,5.758-2.223,5.758-4.963v-91.17
			c0-2.74-2.578-4.963-5.758-4.963c-3.18,0-5.758,2.223-5.758,4.963v91.17C355.807,825.734,358.385,827.957,361.565,827.957"/>
		<path clip-path="url(#SVGID_4_)" fill="#726562" d="M291.919,582.494c-10.997,46.9-2.276,70.818,8.874,84.052
			c20.706,24.576,65.696,25.641,75.06,54.398c2.402,7.379,3.566,22.439,2.665,24.565c-0.867,2.047-2.808,3.645-5.257,3.569
			c-2.994,0.467-6.398-4.221-8.262-5.877c-5.88-5.881-13.699-9.119-22.015-9.119c0,0-52.355,0-52.354-0.001
			c-6.178,0.091-14.933-0.788-22.723-6.089c-15.096-10.274-16.896-30.579-20.404-78.313c-2.362-32.143-5.574-59.195-6.506-73.158
			c5.546-1.461,15.414-1.114,25.567-0.408C277.721,576.89,286.46,580.035,291.919,582.494"/>
		<path clip-path="url(#SVGID_4_)" fill="#CCA279" d="M457.858,867.065h-44.785c-2.169,0-3.894-1.841-3.725-4.003
			c0.362-4.641,1.51-11.622,1.171-14.745c0.177-2.696-3.706-37.645-3.995-41.262h28.049l-4.526,36.084
			c-0.534,4.256,2.006,8.311,6.079,9.653c5.502,1.813,11.767,2.602,15.907,3.668c3.625,0.916,6.919,2.147,8.839,4.661
			C462.729,863.553,460.917,867.065,457.858,867.065"/>
		<path clip-path="url(#SVGID_4_)" fill="#3F3F3F" d="M407.938,862.369c0.085,0.703,0.217,1.399,0.404,2.078
			c0.429,1.555,1.863,2.619,3.475,2.619h46.374c2.526,0,4.319-2.454,3.562-4.863c-2.224-7.082-9.029-11.595-27.89-13.604
			c-1.789-0.19-3.307-1.405-3.895-3.104v-0.001c0,0-8.777,1.858-19.046,0C410.922,845.494,407.121,855.681,407.938,862.369"/>
		<path clip-path="url(#SVGID_4_)" fill="#DDDDDD" d="M438.556,835.523c-15.772,5.71-36.665,0-36.665,0
			c1.238-30.293-1.88-80.225-8.148-90.252c-24.369-38.991-109.68,11.908-103.413-67.689c0,0,53.033-10.325,69.569-6.267
			c20.616,5.059,59.398,11.062,76.15,38.857C453.799,739.626,438.556,835.523,438.556,835.523"/>
		<path clip-path="url(#SVGID_4_)" fill="#CCA279" d="M448.458,867.065h-44.785c-2.169,0-3.894-1.841-3.725-4.003
			c0.362-4.641,1.51-11.622,1.171-14.745c0.177-2.696-3.706-37.645-3.995-41.262h28.049l-4.526,36.084
			c-0.534,4.256,2.006,8.311,6.079,9.653c5.502,1.813,11.767,2.602,15.907,3.668c3.625,0.916,6.919,2.147,8.839,4.661
			C453.327,863.553,451.517,867.065,448.458,867.065"/>
		<path clip-path="url(#SVGID_4_)" fill="#515151" d="M398.537,862.369c-0.085,0.084-0.161,0.147-0.213,0.189
			c0.031,0.569,0.168,1.669,0.866,2.811c0.44,0.72,0.956,1.215,1.349,1.529c0.166,0.058,0.32,0.11,0.486,0.168h47.765
			c1.228-0.27,4.302-1.086,4.822-3.065c0.657-2.507-3.179-5.359-5.52-7.064c-3.716-2.704-10.579-6.642-22.205-8.422
			c-1.943-0.298-3.697-1.334-4.885-2.9c-0.129-0.17-0.258-0.34-0.387-0.51c-1.88,0.835-5.03,1.95-9.064,2.072
			c-4.858,0.146-8.617-1.217-10.606-2.108c-1.724,7.152-1.867,10.642-1.575,12.494C399.477,858.243,399.992,860.929,398.537,862.369
			"/>
		<path clip-path="url(#SVGID_4_)" fill="#DDDDDD" d="M429.154,835.523c-15.772,5.71-36.665,0-36.665,0
			c1.238-30.293-1.88-80.225-8.148-90.252c-24.369-38.991-109.681,11.908-103.413-67.689c0,0,60.621-11.214,77.09-6.894
			c19.116,5.014,51.877,11.688,68.629,39.484C444.397,739.626,429.154,835.523,429.154,835.523"/>
		<path clip-path="url(#SVGID_4_)" fill="#5190B7" d="M359.899,671.315c0,0-36.289,24.377-82.355,19.99
			c0,0-2.385-31.275-2.469-47.254c-0.116-21.619-4.281-73.894,34.646-90.895c0.95-0.417,1.925-0.808,2.927-1.181
			c8.919,8.15,13.595,9.47,16.036,8.397c2.845-1.241,2.654-5.728,2.601-6.418v-0.018c0.012,0.009,0.028,0.018,0.041,0.03
			c1.15,0.8,2.268,1.718,3.359,2.751c9.511,8.994,16.759,26.734,21.513,54.082c0.617,3.538,1.191,7.239,1.724,11.104
			c0.354,2.563,0.67,7.004,0.943,12.266c0.244,4.77,0.454,10.216,0.62,15.543c0.063,2.101,0.123,4.185,0.173,6.199
			c0.025,1.015,0.047,2.015,0.069,2.992C359.84,663.938,359.899,668.36,359.899,671.315"/>
		<path clip-path="url(#SVGID_4_)" fill="#5190B7" d="M346.137,705.178c5.937-1.254,21.026-3.574,36.61,4.038
			c9.825,4.799,15.511,11.428,18.574,15.075c19.384,23.077,18.236,53.797,17.498,63.528c10.767-5.474,21.535-10.946,32.303-16.421
			c1.301-6.802,2.185-15.429,1.346-25.304c-0.838-9.854-2.604-32.437-18.844-48.993c-9.57-9.756-24.401-17.675-36.475-20.324
			c-2.476-0.543-9.68-1.927-18.305-6.19c-3.71-1.834-7.923-3.917-11.306-7.134c-9.426-8.962-9.028-23.509-8.642-28.674
			c-27.609,11.451-55.218,22.903-82.826,34.354c-0.154,5.42-0.001,13.112,1.474,22.172c2.307,14.165,3.46,21.248,8.025,26.727
			c7.388,8.866,16.744,6.031,54.107,13.931c13.183,2.786,19.851,4.232,23.622,6.864c16.762,11.693,16.876,40.199,14.536,61.376
			c8.211-4.847,16.421-9.691,24.631-14.537c1.018-7.855,1.341-19.713-3.23-32.706C387.07,718.383,351.132,706.713,346.137,705.178"
			/>
		<path clip-path="url(#SVGID_4_)" fill="#4080A0" d="M387.128,695.271c-28.702,0.411-71.642-11.01-88.709-38.504
			c-3.188-5.137-5.309-11.711-5.309-11.711c-4.344-22.292-5.712-39.72-5.412-48.8c0.233-7.045,1.606-13.142,5.195-18.24
			c0.428-0.609,1.097-1.55,2.174-2.658c0.957-0.982,7.536-7.528,16.912-6.522c6.767,0.727,11.029,4.962,12.2,6.161
			c5.376,5.502,6.316,12.554,6.685,15.318c6.282,47.096,7.355,51.917,8.294,54.864c3.787,11.894,15.866,26.179,52.335,36.565
			C394.814,689.107,387.128,695.271,387.128,695.271"/>
		<path clip-path="url(#SVGID_4_)" fill="#CCA279" d="M400.421,685.188c5.498,1.751,19.65,7.715,22.542,23.336
			c0.32,1.732-1.445,3.11-3.055,2.399c-3.239-2.476-7.223-5.088-11.992-7.422c-2.08-1.019-4.091-1.876-6.003-2.604
			c-1.646-0.068-4.276-0.386-7.199-1.688c-3.316-1.479-5.476-3.544-6.628-4.822c0.818-0.712,2.439-2.316,3.403-4.93
			c0.932-2.523,0.784-4.719,0.64-5.789c1.038,0.113,2.125,0.262,3.254,0.45c1.466,0.246,2.843,0.535,4.126,0.85
			C399.509,684.969,399.93,685.032,400.421,685.188"/>
		<path clip-path="url(#SVGID_4_)" fill="#987957" d="M419.301,703.881c-0.084-0.037-0.158-0.1-0.209-0.184
			c-4.636-7.5-10.661-10.303-10.721-10.329c-0.236-0.108-0.341-0.387-0.234-0.622s0.383-0.341,0.618-0.236
			c0.001,0,0.003,0.001,0.004,0.001c0.257,0.117,6.338,2.935,11.132,10.693c0.137,0.221,0.068,0.51-0.152,0.646
			C419.602,703.936,419.438,703.941,419.301,703.881"/>
		<path clip-path="url(#SVGID_4_)" fill="#987957" d="M419.786,709.444c-0.066-0.029-0.127-0.075-0.176-0.135
			c-5.459-6.794-14.055-11.319-14.141-11.364c-0.231-0.12-0.32-0.404-0.2-0.634c0.12-0.231,0.407-0.318,0.634-0.2
			c0.088,0.046,8.855,4.658,14.44,11.609c0.163,0.202,0.13,0.498-0.072,0.661C420.129,709.494,419.942,709.514,419.786,709.444"/>
		<path clip-path="url(#SVGID_4_)" fill="#5190B7" d="M317.064,547.117c2.267,0.196,5.723,0.777,9.512,2.603
			c4.866,2.345,7.908,5.599,9.466,7.538c0.021,1.568,0.012,3.196-0.034,4.879c-0.046,1.708-0.127,3.357-0.235,4.945
			c-1.515-2.059-6.303-7.075-9.656-9.582c-4.237-3.168-8.358-4.733-11.117-5.536C315.688,550.348,316.376,548.732,317.064,547.117"
			/>
		<path clip-path="url(#SVGID_4_)" fill="#4C6580" d="M317.064,547.117c7.414,0.366,15.052,4.104,19.417,10.134
			c0.041,2.46-0.067,7.409-0.217,9.865l-0.057,1.353c-1.523-2.097-3.277-4.052-5.122-5.914c-4.516-4.764-9.987-8.556-16.316-10.491
			l0.077-0.166L317.064,547.117z M317.064,547.117l-1.91,4.911l-0.107-0.226c6.424,1.607,12.124,5.37,16.683,10.108
			c1.548,1.555,3.064,3.11,4.439,4.879l-0.887,0.26c0.173-2.44,0.334-7.343,0.321-9.786l0.097,0.268
			c-2.27-2.824-5.057-5.258-8.247-7.031C324.266,548.729,320.727,547.567,317.064,547.117"/>
		<path clip-path="url(#SVGID_4_)" fill="#BC956B" d="M334.425,575.485c-1.136-3.506-3.812-5.874-8.38-11.419
			c-5.042-6.121-9.99-10.323-13.387-12.068c0.01-1.585,0.023-3.169,0.034-4.753c0.026-3.616,0.055-7.23,0.082-10.847l0.005-0.656
			c0.203,0.058,1.531,0.419,3.411,0.931c5.609,1.531,16.113,4.412,16.131,4.591c-0.003,0.006-0.008,0.061-0.016,0.167
			c-0.197,1.924-0.419,4.467-0.569,7.467c0,0.021-0.003,0.042-0.003,0.063c-0.029,0.601-0.058,1.165-0.084,1.703
			c-0.195,4.004-0.274,6.404-0.037,9.328c0.011,0.118,1.321,4.626,1.321,4.626s-0.107,0.839,0.783,6.988
			C334.084,574.148,334.205,574.136,334.425,575.485"/>
		<path clip-path="url(#SVGID_4_)" fill="#987957" d="M332.322,541.265c-0.003,0.005-0.008,0.061-0.016,0.166
			c-0.068,0.809-0.337,4.436-0.569,7.467c-0.045,0.583-0.09,1.142-0.129,1.655c0.013,0.034,0.029,0.071,0.042,0.11
			c-0.195,4.004-0.274,6.405-0.037,9.329c-2.646,0.535-7.884-3.158-10.467-4.979c-3.933-2.771-6.698-5.684-8.453-7.769
			c0.026-3.617,0.055-7.229,0.082-10.847c1.086,0.087,2.232,0.18,3.416,0.273C321.8,538.204,332.303,541.085,332.322,541.265"/>
		<path clip-path="url(#SVGID_4_)" fill="#5190B7" d="M311.994,547.566c0,0,7.358,9.915,17.946,13.101l0.449,8.929
			c0,0-19.989-12.741-19.977-16.735L311.994,547.566z"/>
		<path clip-path="url(#SVGID_4_)" fill="#4C6580" d="M330.389,569.595c5.004,8.029,8.471,17.064,10.115,26.384
			c0.512,3.117,0.897,6.252,1.072,9.398l-0.206-0.104c0.842-0.466,1.605-1.122,2.479-1.58c-0.866,0.595-1.597,1.363-2.512,1.929
			C339.682,593.084,335.972,580.942,330.389,569.595"/>
		<path clip-path="url(#SVGID_4_)" fill="#BC956B" d="M324.806,555.903c1.306,0.668,3.911,1.754,7.1,1.364
			c2.194-0.267,4.477-1.235,7.348-3.761c6.51-5.725,9.113-13.366,11.191-19.691c0.629-1.916,2.173-6.878,3.07-13.575
			c0.593-4.43,0.814-7.478,0.891-9.87c0.093-2.869,0.083-4.096,0.024-4.938c-0.028-0.391-0.381-5.154-1.43-7.442
			c-2.272-4.961-11.143-5.589-22.133-6.245c-4.219-0.252-10.31-0.418-17.724,0.092c-1.391,1.172-3.177,3.069-3.857,5.785
			c-0.58,2.318,0.076,3.508-0.356,5.596c-0.779,3.763-4.066,5.489-5.515,6.958C295.335,518.367,313.205,549.97,324.806,555.903"/>
		<path clip-path="url(#SVGID_4_)" fill="#111010" d="M307.429,528.185c-1.695-2.081-3.392-4.178-5.092-6.29
			c-1.167-1.451-2.327-2.897-3.48-4.343c-1.732-2.17-2.912-4.755-3.241-7.512c-0.028-0.237-0.051-0.479-0.069-0.727
			c-0.174-2.465,0.302-4.296,0.899-6.59c0.914-3.513,2.215-5.949,2.995-7.388c1.72-3.172,3.13-4.646,3.794-5.292
			c2.139-2.082,3.421-2.28,4.094-2.297c1.095-0.027,1.978,0.391,2.496,0.699c0.554-1.43,1.809-4.09,4.493-6.39
			c3.136-2.687,6.444-3.358,7.689-3.595c3.792-0.72,8.019,0.685,16.474,3.495c3.974,1.321,5.871,2.149,7.888,3.595
			c3.7,2.651,4.965,5.344,5.292,6.09c0.434,0.991,0.667,1.871,0.799,2.496c1.004,0.744,2.581,2.114,3.794,4.294
			c1.647,2.96,1.691,5.739,1.697,7.289c0.001,0.231-0.002,0.468-0.018,0.732c-0.224,3.709-1.354,6.413-2.278,8.853
			c-1.743,4.6-2.336,7.73-2.556,7.676c-0.308-0.076,1.474-6.059,0.359-10.071c-0.085-0.307-0.429-1.571-0.901-3.39
			c-0.176-0.677-0.373-1.506-0.596-2.602c-0.61-2.992-0.808-4.985-0.899-6.291c-0.098-1.415-0.111-2.612-0.1-3.494
			c-1.189,0.528-3.043,1.245-5.392,1.697c-4.471,0.86-8.052,0.243-18.271-2.097c-4.065-0.93-7.634-1.779-10.584-2.496
			c0.549,1.833,1.913,7.252-0.3,13.579c-2.348,6.716-7.226,10.168-8.786,11.184C307.562,522.061,307.495,525.123,307.429,528.185"/>
		<path clip-path="url(#SVGID_4_)" fill="#111010" d="M304.907,533.677c0.331,1.089,1.001,2.79,2.396,4.492
			c1.859,2.271,4.028,3.35,5.167,3.819c-0.879-1.196-1.809-2.617-2.695-4.268c-1.081-2.015-1.847-3.904-2.397-5.542
			C306.554,532.679,305.731,533.178,304.907,533.677"/>
		<path clip-path="url(#SVGID_4_)" fill="#484443" d="M343.698,490.181c-0.863-0.027-1.802-0.1-2.802-0.243
			c-1.944-0.277-3.627-0.747-5.011-1.243c0.75,1.101,1.888,2.496,3.544,3.794c0.898,0.704,1.77,1.24,2.546,1.648
			c-2.652,0.205-6.073,0.222-9.984-0.4c-3.351-0.532-6.193-1.394-8.437-2.246c2.341,1.554,7.142,4.285,13.828,4.992
			c5.741,0.607,10.353-0.545,12.93-1.398c-1.818-0.381-3.97-0.992-6.29-1.996c-1.431-0.62-2.696-1.29-3.794-1.948
			c0.775,0.232,2.172,0.538,3.894,0.3c1.525-0.21,2.672-0.76,3.345-1.148C346.211,490.256,344.954,490.218,343.698,490.181"/>
		<path clip-path="url(#SVGID_4_)" fill="#484443" d="M312.096,499.229c0.079,1.652-0.01,4.178-0.974,7.039
			c-1.448,4.299-4.076,6.996-5.466,8.236c0.937-0.352,4.079-1.666,5.991-5.092C314.3,504.659,312.354,499.838,312.096,499.229"/>
		<path clip-path="url(#SVGID_4_)" fill="#484443" d="M308.352,505.07c-0.494,1.218-1.246,2.742-2.396,4.343
			c-1.315,1.829-2.711,3.147-3.819,4.044c0.705-0.14,2.671-0.626,4.268-2.396C308.623,508.604,308.399,505.589,308.352,505.07"/>
		<path clip-path="url(#SVGID_4_)" fill="#484443" d="M353.607,504.321c-0.016,0.599-0.02,1.48,0.05,2.546
			c0.077,1.188,0.217,2.115,0.494,3.924c0.107,0.696,0.258,1.642,0.455,2.767c0.134-1.394,0.187-2.567,0.208-3.444
			c0.062-2.609-0.133-3.507-0.408-4.244C354.148,505.176,353.831,504.65,353.607,504.321"/>
		<path clip-path="url(#SVGID_4_)" fill="#FFFFFF" d="M323.736,528.125c0.976-0.099,1.977-0.058,2.937-0.045
			c0.722,0.047,1.455,0.104,2.185,0.208c3.996-1.279,4.622-5.682,4.622-5.682c-0.228-0.051-0.968-0.067-1.984-0.072
			c-1.989-0.013-5.041,0.042-7.417,0.101c-1.997,0.043-3.521,0.084-3.521,0.084S320.334,526.695,323.736,528.125"/>
		<path clip-path="url(#SVGID_4_)" fill="#3F2E20" d="M327.549,526.777c0.19,0.013,0.382,0.012,0.569-0.003
			c0.034-0.006,0.063-0.01,0.093-0.008c0.013-0.005,0.029-0.003,0.041-0.008c0.056-0.008,0.106-0.014,0.154-0.024
			c0.041-0.009,0.078-0.009,0.112-0.015c1.626-0.326,2.889-1.7,3.002-3.434c0.016-0.258,0.007-0.506-0.024-0.753
			c-1.989-0.012-5.041,0.042-7.417,0.103c-0.001,0.015-0.005,0.023-0.006,0.039c-0.007,0.04-0.011,0.086-0.015,0.132
			c-0.002,0.03-0.008,0.055-0.004,0.083C323.968,524.915,325.514,526.65,327.549,526.777"/>
		<path clip-path="url(#SVGID_4_)" fill="#FFFFFF" d="M343.313,528.635c0.812-0.105,1.644-0.105,2.443-0.118
			c0.584,0.02,1.168,0.039,1.752,0.104c0.005-0.011,0.005-0.011,0.008-0.004c3.538-1.18,3.958-5.105,3.958-5.105
			c-0.237-0.038-1.117-0.025-2.292,0.019c-1.885,0.06-4.511,0.206-6.427,0.314c-1.442,0.081-2.484,0.146-2.484,0.146
			S340.185,527.548,343.313,528.635"/>
		<path clip-path="url(#SVGID_4_)" fill="#3F2E20" d="M346.474,527.159c0.165-0.027,0.323-0.069,0.478-0.119
			c0.033-0.007,0.056-0.016,0.078-0.025c0.015-0.007,0.022-0.01,0.04-0.009l0.209-0.091c1.282-0.568,2.084-1.936,1.903-3.387
			c-1.885,0.062-4.511,0.206-6.427,0.316c-0.019,0.017-0.034,0.022-0.045,0.037c-0.002,0.16,0.001,0.309,0.026,0.467
			c0.001,0.043,0.007,0.076,0.015,0.117c0.003,0.024,0.005,0.051,0.015,0.073C343.078,526.27,344.727,527.435,346.474,527.159"/>
		<path clip-path="url(#SVGID_4_)" fill="#987957" d="M338.002,521.434c0.495,2.875,1.27,5.705,2.26,8.451
			c0.608,1.733,1.641,3.539,1.004,5.367c-0.584,1.735-2.361,3.009-4.221,2.909c-0.938-0.022-1.872-0.355-2.688-0.877
			c0.729,0.646,1.667,1.067,2.662,1.207c3.268,0.42,5.982-2.989,4.875-6.083C340.536,528.739,339.124,525.185,338.002,521.434"/>
		<path clip-path="url(#SVGID_4_)" d="M337.31,541.544c2.724,0.997,5.84,1.024,8.509,0.068c-1.377,0.157-2.756,0.078-4.037-0.219
			c-1.284-0.293-2.467-0.807-3.482-1.475c-0.468-0.309-1.125-0.222-1.468,0.193C336.417,540.597,336.667,541.335,337.31,541.544"/>
		<path clip-path="url(#SVGID_4_)" d="M333.253,539.736c-2.772,1.549-6.624,2.802-9.951,2.446c3.297,1.072,7.575,0.459,11.098-0.648
			C336.239,540.896,334.953,538.875,333.253,539.736"/>
		<path clip-path="url(#SVGID_4_)" fill="#111010" d="M331.615,510.859c-0.334,2.154-0.669,4.308-1.003,6.462
			c0,0-12.568-4.963-16.645,3.983c0,0-0.309-8.215,7.011-10.202c1.501-0.308,3.341-0.566,5.447-0.604
			C328.411,510.463,330.164,510.63,331.615,510.859"/>
		<path clip-path="url(#SVGID_4_)" fill="#111010" d="M339.359,512.109c0.226,1.921,0.452,3.842,0.679,5.763
			c0.892-0.604,2.508-1.525,4.716-1.876c1.455-0.231,3.321-0.528,5.224,0.485c2.291,1.222,3.095,3.523,3.302,4.189
			c0.03-0.746,0.075-3.895-2.259-6.515c-1.8-2.022-3.998-2.588-4.826-2.789C342.903,510.566,340.212,511.705,339.359,512.109"/>
		<path clip-path="url(#SVGID_4_)" fill="#652B28" d="M337.281,544.86c-0.419-0.123-3.651-1.021-6.866,0.654
			c-0.529,0.275-0.939,0.559-1.216,0.769c2.632-0.805,4.655-0.809,5.809-0.725c1.776,0.13,3.48,0.558,3.48,0.558
			c1.273,0.32,2.008,0.638,2.052,0.543C340.605,546.517,339.159,545.413,337.281,544.86"/>
		<path clip-path="url(#SVGID_4_)" fill="#987957" d="M333.747,547.081c-0.44-0.015-0.658-0.003-0.888,0.039
			c-0.337,0.061-0.778,0.197-0.768,0.29c0.009,0.073,0.302,0.087,0.777,0.122c1.06,0.079,1.589,0.118,1.945,0.193
			c0.996,0.209,1.494,0.313,1.665,0.393c0.028,0.014,0.184,0.088,0.365,0.051c0.018-0.005,0.206-0.047,0.224-0.147
			c0.007-0.035-0.002-0.108-0.177-0.229c-0.66-0.459-1.995-0.626-1.995-0.626C334.403,547.105,334.102,547.094,333.747,547.081"/>
		<path clip-path="url(#SVGID_4_)" fill="#4C6580" d="M329.922,560.664c0.37,2.911,0.657,6.824,0.901,9.771l-0.655-0.396
			c-4.586-2.895-18.967-12.077-19.757-17.178c0.562,2.124,2.661,3.445,4.188,4.897c5.111,4.159,10.57,7.876,15.986,11.63
			l-0.594,0.346C329.917,567.051,329.873,563.308,329.922,560.664"/>
	</g>
	<g clip-path="url(#SVGID_2_)">
		<defs>
			<rect id="SVGID_12_" width="1000" height="1000"/>
		</defs>
		<clipPath id="SVGID_13_">
			<use xlink:href="#SVGID_12_"  overflow="visible"/>
		</clipPath>
		<path clip-path="url(#SVGID_13_)" fill="#847977" d="M240.997,576.521c3.61,0.625,9.028,2.002,14.778,5.354
			c11.06,6.446,16.112,15.976,17.873,19.405c3.739,7.281,4.244,12.808,4.34,43.913c0.05,16.262-0.052,26.304,1.277,40.852
			c1.649,18.056,2.806,23.514,7.149,27.32c3.773,3.307,7.087,3.094,26.298,4.34c26.41,1.714,31.63,2.861,37.021,4.851
			c15.207,5.611,19.779,13.483,21.191,16.341c2.26,4.571,3.271,10.151,1.813,10.972c-1.856,1.045-5.754-6.732-14.749-11.397
			c-4.027-2.088-7.791-2.887-19.149-3.574c-14.06-0.851-25.379-0.66-30.553-0.551c-19.112,0.403-24.128,1.167-32.34-1.662
			c-5.657-1.949-9.917-4.583-12.596-6.468c-1.663-1.469-3.652-3.508-5.532-6.213c-2.415-3.476-3.775-6.79-4.562-9.245
			c-1.046-6.174-2.093-12.349-3.14-18.523C247.076,653.663,244.037,615.092,240.997,576.521"/>
		<path clip-path="url(#SVGID_13_)" fill="#4C6580" d="M342.924,597.722c0,0.463-0.217,0.838-0.484,0.838s-0.484-0.375-0.484-0.838
			s0.217-0.838,0.484-0.838S342.924,597.259,342.924,597.722"/>
		<path clip-path="url(#SVGID_13_)" fill="#4C6580" d="M341.776,591.109c0,0.463-0.217,0.838-0.484,0.838s-0.484-0.375-0.484-0.838
			s0.217-0.838,0.484-0.838S341.776,590.646,341.776,591.109"/>
		<path clip-path="url(#SVGID_13_)" fill="#4C6580" d="M339.317,582.359c0.112,0.449-0.007,0.866-0.267,0.931
			c-0.259,0.064-0.56-0.248-0.672-0.696c-0.112-0.449,0.007-0.866,0.267-0.931C338.905,581.599,339.206,581.91,339.317,582.359"/>
		<path clip-path="url(#SVGID_13_)" fill="#4C6580" d="M337.077,575.796c0.112,0.449-0.007,0.866-0.267,0.932
			c-0.259,0.063-0.56-0.248-0.672-0.697c-0.112-0.449,0.007-0.866,0.267-0.93C336.664,575.035,336.965,575.348,337.077,575.796"/>
		<path clip-path="url(#SVGID_13_)" fill="#BC956B" d="M309.543,534.941c-0.566,0.688-1.505,0.919-2.013,1.044
			c-1.842,0.454-3.388-0.314-3.804-0.521c-1.446-0.721-2.5-2.678-4.549-6.563c-0.586-1.111-1.161-2.456-2.312-5.145
			c-0.711-1.662-1.071-2.585-0.82-3.729c0.038-0.174,0.454-1.96,1.715-2.387c1.38-0.467,2.946,0.973,4.922,2.834
			c1.382,1.302,2.967,2.82,4.549,5.519C308.41,528.004,311.258,532.861,309.543,534.941"/>
	</g>
</g>
</svg>
