<?xml version="1.0" encoding="utf-8"?>
<!-- Generator: Adobe Illustrator 16.0.0, SVG Export Plug-In . SVG Version: 6.00 Build 0)  -->
<!DOCTYPE svg PUBLIC "-//W3C//DTD SVG 1.1//EN" "http://www.w3.org/Graphics/SVG/1.1/DTD/svg11.dtd">
<svg version="1.1" id="Layer_1" xmlns="http://www.w3.org/2000/svg" xmlns:xlink="http://www.w3.org/1999/xlink" x="0px" y="0px"
	 width="1000px" height="1000px" viewBox="0 0 1000 1000" enable-background="new 0 0 1000 1000" xml:space="preserve">
<g>
	<g>
		<defs>
			<rect id="SVGID_1_" width="1000" height="1000"/>
		</defs>
		<clipPath id="SVGID_2_">
			<use xlink:href="#SVGID_1_"  overflow="visible"/>
		</clipPath>
		<path clip-path="url(#SVGID_2_)" fill="#E3F4FF" d="M771.249,512.489c0,59.88-11.12,83.2-19.2,123.29
			c-9.119,61.229-56.81,107.06-112.76,136.399c-0.17,0.101-0.34,0.189-0.51,0.271c-34.681,18.109-72.49,29.89-106.24,35.08
			c-0.64,0.1-1.279,0.199-1.91,0.279c-0.67,0.109-1.34,0.211-2,0.29c-1.22,0.17-2.42,0.33-3.63,0.479
			c-1.43,0.181-2.85,0.351-4.271,0.51c-2.069,0.24-4.13,0.44-6.159,0.62c-10.04,0.86-20.431,1-31.04,0.45
			c-22.48-1.149-45.96-5.37-69.271-12.351c-104.189-31.17-205.19-117.271-200.14-229.681c23.26-17.449,29.1,4.4,50.31-11.72
			c15.69-13.54,42.73-21.34,42.73-21.34c-16.86-13.41-52.04-31.061-83.12,4.08c26.65-53.351,33.65-17.17,63.19-35.86
			c8.76-9.92,13.54-11.43,30.06-8.63c34.73,7.49,20.08-40.82,50.39-36.12c0,0-6.189-7.28-22.71-7.39
			c-16.52-0.11-19.41,16.239-37.81,11.56c-11.92-3.04-28.44-2.39-44.77,1.2c-4.69,1.03-9.37,2.3-13.92,3.8
			c18.61-41.39,70.209-47.01,84.65-82.68c10.87-27.01,21.62-57.95,37.7-84.89c5.26-8.82,11.1-17.21,17.7-24.89
			c21.88-25.6,52.52-44.62,99.359-48.54c100.521-8.39,127.98,46.61,164.181,76.93c1.238,1.04,2.488,2.05,3.76,3.03
			c-2.75,5.56-4.34,12.13-4.34,19.17c0,20.08,12.909,36.36,28.84,36.36c9.479,0,17.899-5.77,23.16-14.68
			c12.97,14.23,25.54,31.06,36.26,50.18c-0.19,0.04-0.38,0.09-0.57,0.149c-15.75,4.54-22.43,23.011-30.54,31.5
			c-8.09,8.49-23.409,11.23-23.409,11.23s10.141,16.09,31.949,18.14c10.25,0.96,19.051-2.87,26.61-7.52
			c-5.88,10.68-4.29,18.04-12.33,27.6c-9.391,11.181-23.391,15.07-35.391,34.49c-12.011,19.42-9.641,40.021-9.641,40.021
			c3.312-3.36,8.062-7.852,14.2-12.642c5.38-4.21,15.87-12.29,29.811-17.858c12.091-4.82,21.83-5.78,24.979-6.24
			c4.78-0.7,10.16-2.54,15.82-5.32C771.239,511.659,771.249,512.079,771.249,512.489"/>
	</g>
	<g>
		<defs>
			<rect id="SVGID_3_" width="1000" height="1000"/>
		</defs>
		<clipPath id="SVGID_4_">
			<use xlink:href="#SVGID_3_"  overflow="visible"/>
		</clipPath>
		<path clip-path="url(#SVGID_4_)" fill="#FFFFFF" d="M703.479,347.52c-5.26,8.91-13.681,14.68-23.159,14.68
			c-15.931,0-28.841-16.28-28.841-36.36c0-7.04,1.591-13.61,4.341-19.17C655.819,306.669,701.109,344.89,703.479,347.52"/>
	</g>
	<g>
		<defs>
			<rect id="SVGID_5_" width="1000" height="1000"/>
		</defs>
		<clipPath id="SVGID_6_">
			<use xlink:href="#SVGID_5_"  overflow="visible"/>
		</clipPath>
		<path clip-path="url(#SVGID_6_)" fill="#FFFFFF" d="M367.679,458.54c-30.31-4.7-15.66,43.61-50.39,36.12
			c-16.52-2.8-21.3-1.29-30.06,8.629c-29.54,18.689-36.54-17.49-63.19,35.86c31.08-35.141,66.26-17.49,83.12-4.08
			c0,0-27.04,7.8-42.73,21.34c-21.21,16.12-27.05-5.729-50.31,11.721c0,0,0.92-11.7,4.11-27.761
			c4.45-22.359,13.3-53.189,30.24-72.66c4.55-1.5,9.23-2.77,13.92-3.8c16.33-3.59,32.85-4.24,44.77-1.2
			c18.399,4.68,21.29-11.67,37.81-11.56C361.489,451.259,367.679,458.54,367.679,458.54"/>
	</g>
	<g>
		<defs>
			<rect id="SVGID_7_" width="1000" height="1000"/>
		</defs>
		<clipPath id="SVGID_8_">
			<use xlink:href="#SVGID_7_"  overflow="visible"/>
		</clipPath>
		<path clip-path="url(#SVGID_8_)" fill="#FFFFFF" d="M771.249,512.489c0-0.41-0.01-0.83-0.021-1.24
			c-5.659,2.78-11.039,4.62-15.819,5.32c-3.149,0.46-12.891,1.42-24.979,6.239c-13.939,5.569-24.431,13.649-29.811,17.859
			c-6.141,4.79-10.891,9.28-14.2,12.641c0,0-2.37-20.601,9.641-40.021c12-19.42,26-23.31,35.391-34.49
			c8.04-9.56,6.45-16.92,12.33-27.6c-7.561,4.649-16.36,8.479-26.61,7.52c-21.81-2.05-31.949-18.14-31.949-18.14
			s15.319-2.74,23.409-11.23c8.11-8.489,14.79-26.96,30.54-31.5c0.19-0.06,0.38-0.109,0.57-0.149
			C739.739,397.699,773.199,472.81,771.249,512.489"/>
	</g>
	<g>
		<defs>
			<rect id="SVGID_9_" width="1000" height="1000"/>
		</defs>
		<clipPath id="SVGID_10_">
			<use xlink:href="#SVGID_9_"  overflow="visible"/>
		</clipPath>
		<path clip-path="url(#SVGID_10_)" fill="#99CCE0" d="M284.805,709.46c21.433-8.965,44.873,13.806,44.873,13.806
			s-20.094-20.76-20.515-50.231c-0.304-20.993,18.215-51.494,24.722-52.537c6.51-1.043,24.308,18.573,28.611,55.889
			c2.01,17.414-6.713,43.589-6.713,43.589s15.423-35.554,48.384-36.224c2.537,8.707-6.437,27.831-13.158,39.181
			c-5.833,9.852-20.474,27.129-52.178,23.306C299.793,741.526,284.318,709.664,284.805,709.46"/>
	</g>
	<g>
		<defs>
			<rect id="SVGID_11_" width="1000" height="1000"/>
		</defs>
		<clipPath id="SVGID_12_">
			<use xlink:href="#SVGID_11_"  overflow="visible"/>
		</clipPath>
		<path clip-path="url(#SVGID_12_)" fill="#FFFFFF" d="M326.446,635.463c2.647,5.777,5.375,11.391,8.701,16.795
			c-0.294-8.886-0.747-17.968-0.063-26.777c0.063-0.8,1.178-0.8,1.241,0c0.413,5.31,0.391,10.689,0.32,16.065
			c0.605-1.135,1.136-2.308,1.543-3.546c0.625-1.912,0.421-3.862,0.654-5.82l0.415-0.057c1.438,3.517-0.375,7.734-2.629,10.654
			c-0.051,3.685-0.114,7.363-0.06,11.018c0.134,9.114,0.488,18.223,1.117,27.321c3.396-9.951,7.706-19.387,10.533-29.57l0.43,0.054
			c-1.363,10.459-6.235,20.805-10.732,30.262l-0.177,0.103l0.035,0.584c0.84,11.67,2.242,23.375,4.605,34.863
			c6.415-10.82,10.726-21.738,14.546-33.717c0.087-0.274,0.471-0.16,0.421,0.115c-1.999,11.673-7.308,25.005-14.755,34.29
			l-0.064,0.032c1.594,7.615,3.608,15.13,6.181,22.474c0.125,0.355-0.429,0.502-0.559,0.154
			c-6.461-17.601-9.642-36.016-11.32-54.633c-0.918-10.155-1.322-20.35-1.586-30.54c-0.017-0.76-0.043-1.531-0.071-2.297
			c-3.91-5.188-7.44-11.401-8.972-17.724L326.446,635.463z"/>
	</g>
	<g>
		<defs>
			<rect id="SVGID_13_" width="1000" height="1000"/>
		</defs>
		<clipPath id="SVGID_14_">
			<use xlink:href="#SVGID_13_"  overflow="visible"/>
		</clipPath>
		<path clip-path="url(#SVGID_14_)" fill="#FFFFFF" d="M291.681,710.237c3.761,2.605,7.085,5.788,10.861,8.405
			c2.846,1.975,5.825,3.754,8.848,5.452c-2.64-2.479-5.144-5.234-7.339-8.093l0.321-0.247c3.08,2.425,5.467,5.768,8.06,8.687
			l0.025,0.261c1.271,0.703,2.55,1.396,3.832,2.082c5.803,3.097,11.827,5.842,17.696,8.854c-3.587-3.042-6.676-6.626-10.458-9.479
			c-0.248-0.188-0.041-0.556,0.247-0.422c4.918,2.274,8.305,7.056,12.131,10.728l0.079,0.203c2.231,1.182,4.438,2.41,6.588,3.724
			c0.381,0.231,0.049,0.765-0.339,0.581c-9.425-4.394-18.869-8.892-28.053-13.773c-7.82-4.155-17.631-9.166-22.986-16.478
			C290.989,710.438,291.396,710.039,291.681,710.237"/>
	</g>
	<g>
		<defs>
			<rect id="SVGID_15_" width="1000" height="1000"/>
		</defs>
		<clipPath id="SVGID_16_">
			<use xlink:href="#SVGID_15_"  overflow="visible"/>
		</clipPath>
		<path clip-path="url(#SVGID_16_)" fill="#FFFFFF" d="M352.336,737.806c1.313-0.854,2.604-1.725,3.9-2.597l0.003-0.021
			c1.981-3.811,4.766-7.23,6.777-11.087c2.246-4.302,4.094-8.907,5.326-13.608l0.361,0.102c-0.738,4.941-2.707,9.514-4.866,13.991
			c-1.386,2.862-3.015,6.382-5.239,9.006c4.729-3.271,9.315-6.697,13.686-10.41c3.085-8.27,6.3-16.492,9.394-24.76
			c0.111-0.3,0.578-0.185,0.486,0.131c-2.374,8.006-5.046,16.246-8.827,23.739c2.393-2.072,4.721-4.227,6.969-6.494
			c2.439-2.455,4.715-5.058,6.863-7.763l-0.103-0.229c1.396-5.377,3.425-10.867,5.403-16.063l0.334,0.094
			c-1.686,4.854-2.466,10.519-4.819,15.14c1.484-1.931,2.925-3.899,4.266-5.934c3.088-4.686,4.652-10.032,7.485-14.771
			c0.146-0.25,0.613-0.162,0.581,0.16c-0.476,4.87-3.623,9.854-6.108,13.954c-3.324,5.494-7.498,10.469-11.892,15.127
			c-6.351,6.738-13.713,12.952-21.635,18.015c2.857-0.245,5.665-0.331,8.53-1.07c3.737-0.962,7.205-2.887,10.578-4.71
			c0.273-0.148,0.505,0.25,0.245,0.423c-5.856,3.771-13.55,7.563-20.752,6.208c-2.205,1.359-4.44,2.655-6.72,3.826
			C352.303,738.336,352.089,737.969,352.336,737.806"/>
	</g>
	<g>
		<defs>
			<rect id="SVGID_17_" width="1000" height="1000"/>
		</defs>
		<clipPath id="SVGID_18_">
			<use xlink:href="#SVGID_17_"  overflow="visible"/>
		</clipPath>
		<path clip-path="url(#SVGID_18_)" fill="#FFFFFF" d="M317.15,680.284c4.113,6.052,6.943,13.106,10.487,19.514
			c4.09,7.396,8.809,14.18,14.212,20.676l-0.232,0.232c-5.614-5.528-9.938-12.221-13.911-18.982
			c-3.965-6.749-8.182-13.938-10.971-21.26C316.637,680.209,317.012,680.09,317.15,680.284"/>
	</g>
	<g>
		<defs>
			<rect id="SVGID_19_" width="1000" height="1000"/>
		</defs>
		<clipPath id="SVGID_20_">
			<use xlink:href="#SVGID_19_"  overflow="visible"/>
		</clipPath>
		<path clip-path="url(#SVGID_20_)" fill="#FFFFFF" d="M319.151,650.823c5.977,11.403,10.586,23.178,17.387,34.174l-0.296,0.229
			c-7.971-9.766-12.754-22.682-17.493-34.234L319.151,650.823z"/>
	</g>
	<g>
		<defs>
			<rect id="SVGID_21_" width="1000" height="1000"/>
		</defs>
		<clipPath id="SVGID_22_">
			<use xlink:href="#SVGID_21_"  overflow="visible"/>
		</clipPath>
		<path clip-path="url(#SVGID_22_)" fill="#FFFFFF" d="M308.943,728.528c2.492,0.467,4.904,1.363,7.295,2.2
			c2.68,0.934,5.437,1.541,8.134,2.395l-0.049,0.386c-5.084-0.092-10.796-2.868-15.435-4.782L308.943,728.528z"/>
	</g>
	<g>
		<defs>
			<rect id="SVGID_23_" width="1000" height="1000"/>
		</defs>
		<clipPath id="SVGID_24_">
			<use xlink:href="#SVGID_23_"  overflow="visible"/>
		</clipPath>
		<path clip-path="url(#SVGID_24_)" fill="#FFFFFF" d="M292.222,715.041c1.502,0.565,2.83,1.54,4.256,2.276
			c1.523,0.786,3.058,1.505,4.519,2.4c0.22,0.133,0.076,0.525-0.182,0.43c-2.857-1.104-6.814-2.32-8.783-4.778L292.222,715.041z"/>
	</g>
	<g>
		<defs>
			<rect id="SVGID_25_" width="1000" height="1000"/>
		</defs>
		<clipPath id="SVGID_26_">
			<use xlink:href="#SVGID_25_"  overflow="visible"/>
		</clipPath>
		<path clip-path="url(#SVGID_26_)" fill="#FFFFFF" d="M382.503,715.753c2.577-1.781,5.418-3.118,7.984-4.932
			c2.917-2.063,5.529-4.587,7.987-7.164c0.241-0.256,0.595,0.116,0.377,0.375c-4.075,4.877-9.885,10.382-16.216,12.036
			L382.503,715.753z"/>
	</g>
	<g>
		<defs>
			<rect id="SVGID_27_" width="1000" height="1000"/>
		</defs>
		<clipPath id="SVGID_28_">
			<use xlink:href="#SVGID_27_"  overflow="visible"/>
		</clipPath>
		<path clip-path="url(#SVGID_28_)" fill="#99CCE0" d="M457.442,724.274c-17.171-7.183-35.95,11.06-35.95,11.06
			s16.099-16.632,16.436-40.242c0.243-16.817-14.593-41.253-19.806-42.089c-5.215-0.835-19.472,14.88-22.921,44.773
			c-1.61,13.95,5.379,34.92,5.379,34.92s-12.356-28.481-38.763-29.02c-2.032,6.976,5.155,22.296,10.541,31.39
			c4.674,7.892,16.402,21.732,41.802,18.67C445.434,749.964,457.831,724.438,457.442,724.274"/>
	</g>
	<g>
		<defs>
			<rect id="SVGID_29_" width="1000" height="1000"/>
		</defs>
		<clipPath id="SVGID_30_">
			<use xlink:href="#SVGID_29_"  overflow="visible"/>
		</clipPath>
		<path clip-path="url(#SVGID_30_)" fill="#FFFFFF" d="M424.082,664.993c-2.121,4.628-4.306,9.125-6.971,13.455
			c0.234-7.119,0.598-14.396,0.05-21.453c-0.05-0.642-0.944-0.642-0.994,0c-0.331,4.254-0.313,8.563-0.257,12.872
			c-0.485-0.91-0.909-1.851-1.236-2.841c-0.5-1.532-0.337-3.097-0.523-4.663l-0.333-0.047c-1.151,2.817,0.3,6.196,2.105,8.534
			c0.042,2.953,0.091,5.901,0.048,8.827c-0.106,7.303-0.392,14.601-0.894,21.889c-2.722-7.973-6.175-15.529-8.44-23.688
			l-0.344,0.043c1.093,8.379,4.996,16.666,8.599,24.242l0.142,0.083l-0.028,0.468c-0.672,9.35-1.797,18.727-3.689,27.929
			c-5.14-8.668-8.593-17.413-11.653-27.011c-0.07-0.22-0.377-0.129-0.338,0.093c1.602,9.353,5.855,20.032,11.82,27.473l0.053,0.024
			c-1.277,6.103-2.892,12.121-4.951,18.005c-0.102,0.284,0.343,0.402,0.448,0.124c5.176-14.102,7.723-28.854,9.067-43.77
			c0.735-8.135,1.061-16.303,1.271-24.466c0.013-0.609,0.035-1.229,0.056-1.84c3.133-4.156,5.962-9.135,7.189-14.199
			L424.082,664.993z"/>
	</g>
	<g>
		<defs>
			<rect id="SVGID_31_" width="1000" height="1000"/>
		</defs>
		<clipPath id="SVGID_32_">
			<use xlink:href="#SVGID_31_"  overflow="visible"/>
		</clipPath>
		<path clip-path="url(#SVGID_32_)" fill="#FFFFFF" d="M451.933,724.896c-3.013,2.09-5.676,4.638-8.7,6.733
			c-2.28,1.582-4.667,3.007-7.089,4.369c2.115-1.987,4.121-4.195,5.88-6.484l-0.258-0.196c-2.467,1.941-4.38,4.619-6.458,6.958
			l-0.019,0.209c-1.018,0.563-2.043,1.118-3.07,1.669c-4.649,2.479-9.476,4.68-14.177,7.093c2.874-2.438,5.348-5.31,8.378-7.595
			c0.199-0.151,0.033-0.445-0.197-0.339c-3.94,1.822-6.653,5.651-9.719,8.595l-0.063,0.163c-1.788,0.945-3.556,1.93-5.278,2.981
			c-0.304,0.187-0.039,0.612,0.271,0.467c7.551-3.521,15.117-7.125,22.474-11.035c6.266-3.328,14.125-7.345,18.415-13.199
			C452.488,725.056,452.161,724.739,451.933,724.896"/>
	</g>
	<g>
		<defs>
			<rect id="SVGID_33_" width="1000" height="1000"/>
		</defs>
		<clipPath id="SVGID_34_">
			<use xlink:href="#SVGID_33_"  overflow="visible"/>
		</clipPath>
		<path clip-path="url(#SVGID_34_)" fill="#FFFFFF" d="M403.341,746.982c-1.051-0.684-2.087-1.383-3.124-2.079l-0.003-0.019
			c-1.588-3.053-3.817-5.792-5.43-8.882c-1.8-3.446-3.279-7.136-4.268-10.902l-0.288,0.08c0.592,3.96,2.169,7.622,3.898,11.21
			c1.109,2.293,2.415,5.112,4.197,7.215c-3.788-2.618-7.463-5.364-10.964-8.341c-2.472-6.624-5.047-13.213-7.526-19.835
			c-0.089-0.238-0.463-0.146-0.389,0.104c1.901,6.414,4.042,13.015,7.07,19.018c-1.917-1.66-3.78-3.385-5.583-5.202
			c-1.954-1.967-3.776-4.051-5.498-6.219l0.083-0.182c-1.118-4.31-2.743-8.707-4.329-12.869l-0.268,0.074
			c1.352,3.888,1.976,8.426,3.861,12.129c-1.19-1.547-2.343-3.124-3.418-4.754c-2.474-3.753-3.728-8.037-5.996-11.834
			c-0.117-0.2-0.492-0.131-0.466,0.129c0.381,3.899,2.902,7.895,4.894,11.179c2.663,4.401,6.007,8.387,9.527,12.119
			c5.087,5.396,10.984,10.376,17.332,14.431c-2.289-0.195-4.539-0.265-6.834-0.855c-2.994-0.771-5.772-2.313-8.475-3.773
			c-0.22-0.12-0.404,0.2-0.195,0.337c4.69,3.023,10.854,6.062,16.624,4.976c1.767,1.09,3.558,2.128,5.383,3.064
			C403.367,747.407,403.539,747.114,403.341,746.982"/>
	</g>
	<g>
		<defs>
			<rect id="SVGID_35_" width="1000" height="1000"/>
		</defs>
		<clipPath id="SVGID_36_">
			<use xlink:href="#SVGID_35_"  overflow="visible"/>
		</clipPath>
		<path clip-path="url(#SVGID_36_)" fill="#FFFFFF" d="M431.529,700.901c-3.296,4.848-5.563,10.5-8.403,15.633
			c-3.276,5.924-7.056,11.357-11.385,16.563l0.187,0.188c4.497-4.431,7.961-9.79,11.145-15.208
			c3.177-5.406,6.555-11.166,8.79-17.031C431.94,700.84,431.641,700.745,431.529,700.901"/>
	</g>
	<g>
		<defs>
			<rect id="SVGID_37_" width="1000" height="1000"/>
		</defs>
		<clipPath id="SVGID_38_">
			<use xlink:href="#SVGID_37_"  overflow="visible"/>
		</clipPath>
		<path clip-path="url(#SVGID_38_)" fill="#FFFFFF" d="M429.926,677.299c-4.789,9.136-8.48,18.568-13.929,27.377l0.237,0.187
			c6.386-7.824,10.217-18.172,14.014-27.429L429.926,677.299z"/>
	</g>
	<g>
		<defs>
			<rect id="SVGID_39_" width="1000" height="1000"/>
		</defs>
		<clipPath id="SVGID_40_">
			<use xlink:href="#SVGID_39_"  overflow="visible"/>
		</clipPath>
		<path clip-path="url(#SVGID_40_)" fill="#FFFFFF" d="M438.104,739.551c-1.996,0.374-3.929,1.092-5.844,1.764
			c-2.146,0.748-4.355,1.234-6.516,1.918l0.039,0.31c4.073-0.074,8.647-2.298,12.364-3.831L438.104,739.551z"/>
	</g>
	<g>
		<defs>
			<rect id="SVGID_41_" width="1000" height="1000"/>
		</defs>
		<clipPath id="SVGID_42_">
			<use xlink:href="#SVGID_41_"  overflow="visible"/>
		</clipPath>
		<path clip-path="url(#SVGID_42_)" fill="#FFFFFF" d="M451.5,728.746c-1.203,0.453-2.267,1.232-3.409,1.823
			c-1.221,0.631-2.45,1.206-3.621,1.924c-0.176,0.104-0.061,0.422,0.146,0.343c2.289-0.883,5.459-1.857,7.036-3.827L451.5,728.746z"
			/>
	</g>
	<g>
		<defs>
			<rect id="SVGID_43_" width="1000" height="1000"/>
		</defs>
		<clipPath id="SVGID_44_">
			<use xlink:href="#SVGID_43_"  overflow="visible"/>
		</clipPath>
		<path clip-path="url(#SVGID_44_)" fill="#FFFFFF" d="M379.173,729.315c-2.064-1.428-4.34-2.498-6.396-3.95
			c-2.336-1.651-4.43-3.676-6.399-5.739c-0.193-0.205-0.476,0.093-0.302,0.3c3.266,3.907,7.92,8.317,12.991,9.644L379.173,729.315z"
			/>
	</g>
	<g>
		<defs>
			<rect id="SVGID_45_" width="1000" height="1000"/>
		</defs>
		<clipPath id="SVGID_46_">
			<use xlink:href="#SVGID_45_"  overflow="visible"/>
		</clipPath>
		<path clip-path="url(#SVGID_46_)" fill="#99CCE0" d="M680.313,709.46c-21.434-8.965-44.873,13.806-44.873,13.806
			s20.094-20.76,20.515-50.231c0.305-20.993-18.215-51.494-24.722-52.537c-6.511-1.043-24.308,18.573-28.611,55.889
			c-2.01,17.414,6.714,43.589,6.714,43.589s-15.424-35.554-48.385-36.224c-2.537,8.707,6.437,27.831,13.158,39.181
			c5.833,9.852,20.475,27.129,52.178,23.306C665.322,741.526,680.798,709.664,680.313,709.46"/>
	</g>
	<g>
		<defs>
			<rect id="SVGID_47_" width="1000" height="1000"/>
		</defs>
		<clipPath id="SVGID_48_">
			<use xlink:href="#SVGID_47_"  overflow="visible"/>
		</clipPath>
		<path clip-path="url(#SVGID_48_)" fill="#FFFFFF" d="M638.67,635.463c-2.648,5.777-5.375,11.391-8.701,16.795
			c0.293-8.886,0.747-17.968,0.063-26.777c-0.063-0.8-1.18-0.8-1.241,0c-0.413,5.31-0.393,10.689-0.32,16.065
			c-0.604-1.135-1.136-2.308-1.543-3.546c-0.625-1.912-0.421-3.862-0.655-5.82l-0.413-0.057c-1.438,3.517,0.375,7.734,2.629,10.654
			c0.051,3.685,0.112,7.363,0.06,11.018c-0.134,9.114-0.489,18.223-1.117,27.321c-3.396-9.951-7.707-19.387-10.534-29.57
			l-0.429,0.054c1.363,10.459,6.235,20.805,10.732,30.262l0.177,0.103l-0.035,0.584c-0.84,11.67-2.243,23.375-4.604,34.863
			c-6.415-10.82-10.727-21.738-14.548-33.717c-0.087-0.274-0.47-0.16-0.421,0.115c1.999,11.673,7.31,25.005,14.755,34.29
			l0.065,0.032c-1.594,7.615-3.609,15.13-6.181,22.474c-0.125,0.355,0.429,0.502,0.559,0.154
			c6.461-17.601,9.641-36.016,11.32-54.633c0.918-10.155,1.322-20.35,1.586-30.54c0.016-0.76,0.043-1.531,0.071-2.297
			c3.908-5.188,7.439-11.401,8.972-17.724L638.67,635.463z"/>
	</g>
	<g>
		<defs>
			<rect id="SVGID_49_" width="1000" height="1000"/>
		</defs>
		<clipPath id="SVGID_50_">
			<use xlink:href="#SVGID_49_"  overflow="visible"/>
		</clipPath>
		<path clip-path="url(#SVGID_50_)" fill="#FFFFFF" d="M673.435,710.237c-3.761,2.605-7.085,5.788-10.859,8.405
			c-2.847,1.975-5.825,3.754-8.85,5.452c2.642-2.479,5.146-5.234,7.34-8.093l-0.32-0.247c-3.08,2.425-5.467,5.768-8.062,8.687
			l-0.023,0.261c-1.271,0.703-2.55,1.396-3.832,2.082c-5.803,3.097-11.827,5.842-17.696,8.854c3.587-3.042,6.675-6.626,10.458-9.479
			c0.248-0.188,0.041-0.556-0.247-0.422c-4.918,2.274-8.305,7.056-12.131,10.728l-0.079,0.203c-2.23,1.182-4.438,2.41-6.588,3.724
			c-0.381,0.231-0.049,0.765,0.339,0.581c9.425-4.394,18.869-8.892,28.053-13.773c7.82-4.155,17.632-9.166,22.985-16.478
			C674.127,710.438,673.72,710.039,673.435,710.237"/>
	</g>
	<g>
		<defs>
			<rect id="SVGID_51_" width="1000" height="1000"/>
		</defs>
		<clipPath id="SVGID_52_">
			<use xlink:href="#SVGID_51_"  overflow="visible"/>
		</clipPath>
		<path clip-path="url(#SVGID_52_)" fill="#FFFFFF" d="M612.78,737.806c-1.313-0.854-2.604-1.725-3.899-2.597l-0.004-0.021
			c-1.98-3.811-4.766-7.23-6.777-11.087c-2.245-4.302-4.094-8.907-5.325-13.608l-0.361,0.102c0.738,4.941,2.707,9.514,4.866,13.991
			c1.386,2.862,3.015,6.382,5.238,9.006c-4.729-3.271-9.314-6.697-13.686-10.41c-3.085-8.27-6.3-16.492-9.394-24.76
			c-0.111-0.3-0.578-0.185-0.486,0.131c2.374,8.006,5.046,16.246,8.827,23.739c-2.394-2.072-4.721-4.227-6.969-6.494
			c-2.439-2.455-4.716-5.058-6.863-7.763l0.104-0.229c-1.396-5.377-3.425-10.867-5.403-16.063l-0.334,0.094
			c1.686,4.854,2.466,10.519,4.819,15.14c-1.484-1.931-2.926-3.899-4.267-5.934c-3.088-4.686-4.651-10.032-7.485-14.771
			c-0.146-0.25-0.612-0.162-0.58,0.16c0.476,4.87,3.623,9.854,6.107,13.954c3.324,5.494,7.498,10.469,11.893,15.127
			c6.351,6.738,13.712,12.952,21.635,18.015c-2.857-0.245-5.665-0.331-8.53-1.07c-3.737-0.962-7.205-2.887-10.578-4.71
			c-0.273-0.148-0.505,0.25-0.245,0.423c5.856,3.771,13.55,7.563,20.752,6.208c2.205,1.359,4.44,2.655,6.72,3.826
			C612.813,738.336,613.027,737.969,612.78,737.806"/>
	</g>
	<g>
		<defs>
			<rect id="SVGID_53_" width="1000" height="1000"/>
		</defs>
		<clipPath id="SVGID_54_">
			<use xlink:href="#SVGID_53_"  overflow="visible"/>
		</clipPath>
		<path clip-path="url(#SVGID_54_)" fill="#FFFFFF" d="M647.966,680.284c-4.114,6.052-6.942,13.106-10.487,19.514
			c-4.09,7.396-8.809,14.18-14.212,20.676l0.232,0.232c5.614-5.528,9.938-12.221,13.911-18.982
			c3.965-6.749,8.182-13.938,10.971-21.26C648.479,680.209,648.104,680.09,647.966,680.284"/>
	</g>
	<g>
		<defs>
			<rect id="SVGID_55_" width="1000" height="1000"/>
		</defs>
		<clipPath id="SVGID_56_">
			<use xlink:href="#SVGID_55_"  overflow="visible"/>
		</clipPath>
		<path clip-path="url(#SVGID_56_)" fill="#FFFFFF" d="M645.965,650.823c-5.978,11.403-10.586,23.178-17.387,34.174l0.297,0.229
			c7.97-9.766,12.753-22.682,17.492-34.234L645.965,650.823z"/>
	</g>
	<g>
		<defs>
			<rect id="SVGID_57_" width="1000" height="1000"/>
		</defs>
		<clipPath id="SVGID_58_">
			<use xlink:href="#SVGID_57_"  overflow="visible"/>
		</clipPath>
		<path clip-path="url(#SVGID_58_)" fill="#FFFFFF" d="M656.174,728.528c-2.493,0.467-4.905,1.363-7.295,2.2
			c-2.681,0.934-5.438,1.541-8.135,2.395l0.05,0.386c5.084-0.092,10.796-2.868,15.435-4.782L656.174,728.528z"/>
	</g>
	<g>
		<defs>
			<rect id="SVGID_59_" width="1000" height="1000"/>
		</defs>
		<clipPath id="SVGID_60_">
			<use xlink:href="#SVGID_59_"  overflow="visible"/>
		</clipPath>
		<path clip-path="url(#SVGID_60_)" fill="#FFFFFF" d="M672.895,715.041c-1.502,0.565-2.829,1.54-4.256,2.276
			c-1.522,0.786-3.058,1.505-4.519,2.4c-0.221,0.133-0.076,0.525,0.182,0.43c2.856-1.104,6.813-2.32,8.783-4.778L672.895,715.041z"
			/>
	</g>
	<g>
		<defs>
			<rect id="SVGID_61_" width="1000" height="1000"/>
		</defs>
		<clipPath id="SVGID_62_">
			<use xlink:href="#SVGID_61_"  overflow="visible"/>
		</clipPath>
		<path clip-path="url(#SVGID_62_)" fill="#FFFFFF" d="M582.613,715.753c-2.577-1.781-5.418-3.118-7.984-4.932
			c-2.917-2.063-5.529-4.587-7.987-7.164c-0.24-0.256-0.595,0.116-0.378,0.375c4.076,4.877,9.887,10.382,16.217,12.036
			L582.613,715.753z"/>
	</g>
	<g>
		<defs>
			<rect id="SVGID_63_" width="1000" height="1000"/>
		</defs>
		<clipPath id="SVGID_64_">
			<use xlink:href="#SVGID_63_"  overflow="visible"/>
		</clipPath>
		<path clip-path="url(#SVGID_64_)" fill="#99CCE0" d="M507.674,724.274c17.171-7.183,35.95,11.06,35.95,11.06
			s-16.1-16.632-16.437-40.242c-0.243-16.817,14.594-41.253,19.807-42.089c5.215-0.835,19.472,14.88,22.921,44.773
			c1.609,13.95-5.379,34.92-5.379,34.92s12.354-28.481,38.763-29.02c2.032,6.976-5.156,22.296-10.541,31.39
			c-4.674,7.892-16.402,21.732-41.802,18.67C519.682,749.964,507.285,724.438,507.674,724.274"/>
	</g>
	<g>
		<defs>
			<rect id="SVGID_65_" width="1000" height="1000"/>
		</defs>
		<clipPath id="SVGID_66_">
			<use xlink:href="#SVGID_65_"  overflow="visible"/>
		</clipPath>
		<path clip-path="url(#SVGID_66_)" fill="#FFFFFF" d="M541.034,664.993c2.121,4.628,4.306,9.125,6.971,13.455
			c-0.233-7.119-0.599-14.396-0.05-21.453c0.05-0.642,0.944-0.642,0.994,0c0.331,4.254,0.313,8.563,0.257,12.872
			c0.485-0.91,0.909-1.851,1.236-2.841c0.5-1.532,0.337-3.097,0.522-4.663l0.333-0.047c1.151,2.817-0.3,6.196-2.104,8.534
			c-0.042,2.953-0.091,5.901-0.048,8.827c0.105,7.303,0.392,14.601,0.894,21.889c2.723-7.973,6.175-15.529,8.44-23.688l0.343,0.043
			c-1.092,8.379-4.995,16.666-8.598,24.242l-0.143,0.083l0.028,0.468c0.672,9.35,1.797,18.727,3.688,27.929
			c5.141-8.668,8.594-17.413,11.653-27.011c0.07-0.22,0.377-0.129,0.337,0.093c-1.601,9.353-5.854,20.032-11.819,27.473
			l-0.053,0.024c1.277,6.103,2.893,12.121,4.951,18.005c0.102,0.284-0.343,0.402-0.448,0.124
			c-5.176-14.102-7.723-28.854-9.066-43.77c-0.735-8.135-1.062-16.303-1.271-24.466c-0.013-0.609-0.035-1.229-0.056-1.84
			c-3.134-4.156-5.962-9.135-7.189-14.199L541.034,664.993z"/>
	</g>
	<g>
		<defs>
			<rect id="SVGID_67_" width="1000" height="1000"/>
		</defs>
		<clipPath id="SVGID_68_">
			<use xlink:href="#SVGID_67_"  overflow="visible"/>
		</clipPath>
		<path clip-path="url(#SVGID_68_)" fill="#FFFFFF" d="M513.183,724.896c3.015,2.09,5.678,4.638,8.701,6.733
			c2.28,1.582,4.667,3.007,7.088,4.369c-2.114-1.987-4.121-4.195-5.879-6.484l0.257-0.196c2.468,1.941,4.381,4.619,6.458,6.958
			l0.021,0.209c1.018,0.563,2.043,1.118,3.068,1.669c4.65,2.479,9.478,4.68,14.179,7.093c-2.874-2.438-5.35-5.31-8.378-7.595
			c-0.199-0.151-0.033-0.445,0.195-0.339c3.941,1.822,6.654,5.651,9.721,8.595l0.063,0.163c1.788,0.945,3.555,1.93,5.278,2.981
			c0.304,0.187,0.039,0.612-0.272,0.467c-7.55-3.521-15.117-7.125-22.473-11.035c-6.266-3.328-14.125-7.345-18.415-13.199
			C512.628,725.056,512.955,724.739,513.183,724.896"/>
	</g>
	<g>
		<defs>
			<rect id="SVGID_69_" width="1000" height="1000"/>
		</defs>
		<clipPath id="SVGID_70_">
			<use xlink:href="#SVGID_69_"  overflow="visible"/>
		</clipPath>
		<path clip-path="url(#SVGID_70_)" fill="#FFFFFF" d="M561.775,746.982c1.051-0.684,2.087-1.383,3.125-2.079l0.002-0.019
			c1.588-3.053,3.816-5.792,5.43-8.882c1.8-3.446,3.279-7.136,4.268-10.902l0.289,0.08c-0.593,3.96-2.17,7.622-3.898,11.21
			c-1.109,2.293-2.415,5.112-4.197,7.215c3.788-2.618,7.463-5.364,10.964-8.341c2.472-6.624,5.047-13.213,7.526-19.835
			c0.089-0.238,0.463-0.146,0.389,0.104c-1.9,6.414-4.042,13.015-7.07,19.018c1.917-1.66,3.78-3.385,5.583-5.202
			c1.953-1.967,3.776-4.051,5.498-6.219l-0.083-0.182c1.118-4.31,2.743-8.707,4.329-12.869l0.269,0.074
			c-1.353,3.888-1.977,8.426-3.861,12.129c1.19-1.547,2.343-3.124,3.418-4.754c2.474-3.753,3.729-8.037,5.996-11.834
			c0.117-0.2,0.492-0.131,0.466,0.129c-0.381,3.899-2.901,7.895-4.894,11.179c-2.663,4.401-6.008,8.387-9.527,12.119
			c-5.087,5.396-10.984,10.376-17.332,14.431c2.289-0.195,4.539-0.265,6.834-0.855c2.994-0.771,5.772-2.313,8.475-3.773
			c0.221-0.12,0.404,0.2,0.195,0.337c-4.689,3.023-10.854,6.062-16.624,4.976c-1.767,1.09-3.558,2.128-5.383,3.064
			C561.749,747.407,561.577,747.114,561.775,746.982"/>
	</g>
	<g>
		<defs>
			<rect id="SVGID_71_" width="1000" height="1000"/>
		</defs>
		<clipPath id="SVGID_72_">
			<use xlink:href="#SVGID_71_"  overflow="visible"/>
		</clipPath>
		<path clip-path="url(#SVGID_72_)" fill="#FFFFFF" d="M533.587,700.901c3.296,4.848,5.563,10.5,8.402,15.633
			c3.275,5.924,7.056,11.357,11.386,16.563l-0.188,0.188c-4.497-4.431-7.961-9.79-11.144-15.208
			c-3.178-5.406-6.556-11.166-8.79-17.031C533.176,700.84,533.476,700.745,533.587,700.901"/>
	</g>
	<g>
		<defs>
			<rect id="SVGID_73_" width="1000" height="1000"/>
		</defs>
		<clipPath id="SVGID_74_">
			<use xlink:href="#SVGID_73_"  overflow="visible"/>
		</clipPath>
		<path clip-path="url(#SVGID_74_)" fill="#FFFFFF" d="M535.19,677.299c4.788,9.136,8.479,18.568,13.929,27.377l-0.237,0.187
			c-6.386-7.824-10.217-18.172-14.014-27.429L535.19,677.299z"/>
	</g>
	<g>
		<defs>
			<rect id="SVGID_75_" width="1000" height="1000"/>
		</defs>
		<clipPath id="SVGID_76_">
			<use xlink:href="#SVGID_75_"  overflow="visible"/>
		</clipPath>
		<path clip-path="url(#SVGID_76_)" fill="#FFFFFF" d="M527.012,739.551c1.997,0.374,3.93,1.092,5.845,1.764
			c2.146,0.748,4.355,1.234,6.517,1.918l-0.039,0.31c-4.073-0.074-8.648-2.298-12.364-3.831L527.012,739.551z"/>
	</g>
	<g>
		<defs>
			<rect id="SVGID_77_" width="1000" height="1000"/>
		</defs>
		<clipPath id="SVGID_78_">
			<use xlink:href="#SVGID_77_"  overflow="visible"/>
		</clipPath>
		<path clip-path="url(#SVGID_78_)" fill="#FFFFFF" d="M513.615,728.746c1.203,0.453,2.268,1.232,3.409,1.823
			c1.222,0.631,2.449,1.206,3.62,1.924c0.177,0.104,0.063,0.422-0.146,0.343c-2.289-0.883-5.459-1.857-7.036-3.827L513.615,728.746z
			"/>
	</g>
	<g>
		<defs>
			<rect id="SVGID_79_" width="1000" height="1000"/>
		</defs>
		<clipPath id="SVGID_80_">
			<use xlink:href="#SVGID_79_"  overflow="visible"/>
		</clipPath>
		<path clip-path="url(#SVGID_80_)" fill="#FFFFFF" d="M585.943,729.315c2.063-1.428,4.341-2.498,6.396-3.95
			c2.336-1.651,4.43-3.676,6.399-5.739c0.191-0.205,0.476,0.093,0.302,0.3c-3.266,3.907-7.92,8.317-12.991,9.644L585.943,729.315z"
			/>
	</g>
	<g>
		<defs>
			<rect id="SVGID_81_" width="1000" height="1000"/>
		</defs>
		<clipPath id="SVGID_82_">
			<use xlink:href="#SVGID_81_"  overflow="visible"/>
		</clipPath>
		<path clip-path="url(#SVGID_82_)" fill="#BDDEEF" d="M443.55,519.502c0,27.106-17.436,49.082-38.942,49.082
			c-21.509,0-38.944-21.976-38.944-49.082c0-27.107,17.436-49.083,38.944-49.083C426.114,470.419,443.55,492.395,443.55,519.502"/>
	</g>
	<g>
		<defs>
			<rect id="SVGID_83_" width="1000" height="1000"/>
		</defs>
		<clipPath id="SVGID_84_">
			<use xlink:href="#SVGID_83_"  overflow="visible"/>
		</clipPath>
		<path clip-path="url(#SVGID_84_)" fill="#BDDEEF" d="M663.081,442.257c0,9.841-6.33,17.819-14.138,17.819
			c-7.811,0-14.141-7.979-14.141-17.819s6.33-17.819,14.141-17.819C656.751,424.438,663.081,432.416,663.081,442.257"/>
	</g>
	<g>
		<defs>
			<rect id="SVGID_85_" width="1000" height="1000"/>
		</defs>
		<clipPath id="SVGID_86_">
			<use xlink:href="#SVGID_85_"  overflow="visible"/>
		</clipPath>
		<path clip-path="url(#SVGID_86_)" fill="#BDDEEF" d="M665.959,756.06c-46.313,31.491-99.908,47.983-145.23,53.03
			c-3.711,0.412-7.43,0.653-11.162,0.73c-9.384,0.193-18.854,0.313-28.411,0.358c-4.971,0.023-9.939-0.234-14.875-0.823
			c-46.459-5.532-105.307-27.264-154.49-62.946c18.047-8.304,37.948-15.771,59.711-21.632
			C496.908,691.004,609.555,730.683,665.959,756.06"/>
	</g>
	<g>
		<defs>
			<rect id="SVGID_87_" width="1000" height="1000"/>
		</defs>
		<clipPath id="SVGID_88_">
			<use xlink:href="#SVGID_87_"  overflow="visible"/>
		</clipPath>
		<path clip-path="url(#SVGID_88_)" fill="#BDDEEF" d="M347.959,397.181c0,1.474-0.947,2.667-2.116,2.667
			c-1.168,0-2.116-1.193-2.116-2.667c0-1.473,0.948-2.667,2.116-2.667C347.012,394.514,347.959,395.708,347.959,397.181"/>
	</g>
	<g>
		<defs>
			<rect id="SVGID_89_" width="1000" height="1000"/>
		</defs>
		<clipPath id="SVGID_90_">
			<use xlink:href="#SVGID_89_"  overflow="visible"/>
		</clipPath>
		<path clip-path="url(#SVGID_90_)" fill="#BDDEEF" d="M365.72,402.221c0,1.474-0.946,2.667-2.116,2.667
			c-1.168,0-2.115-1.193-2.115-2.667c0-1.473,0.947-2.667,2.115-2.667C364.772,399.554,365.72,400.749,365.72,402.221"/>
	</g>
	<g>
		<defs>
			<rect id="SVGID_91_" width="1000" height="1000"/>
		</defs>
		<clipPath id="SVGID_92_">
			<use xlink:href="#SVGID_91_"  overflow="visible"/>
		</clipPath>
		<path clip-path="url(#SVGID_92_)" fill="#BDDEEF" d="M425.075,322.562c0,1.473-0.947,2.667-2.116,2.667
			c-1.168,0-2.116-1.194-2.116-2.667s0.948-2.667,2.116-2.667C424.128,319.895,425.075,321.088,425.075,322.562"/>
	</g>
	<g>
		<defs>
			<rect id="SVGID_93_" width="1000" height="1000"/>
		</defs>
		<clipPath id="SVGID_94_">
			<use xlink:href="#SVGID_93_"  overflow="visible"/>
		</clipPath>
		<path clip-path="url(#SVGID_94_)" fill="#BDDEEF" d="M701.992,558.999c0,1.473-0.947,2.667-2.116,2.667
			c-1.168,0-2.116-1.194-2.116-2.667s0.948-2.667,2.116-2.667C701.045,556.332,701.992,557.526,701.992,558.999"/>
	</g>
	<g>
		<defs>
			<rect id="SVGID_95_" width="1000" height="1000"/>
		</defs>
		<clipPath id="SVGID_96_">
			<use xlink:href="#SVGID_95_"  overflow="visible"/>
		</clipPath>
		<path clip-path="url(#SVGID_96_)" fill="#BDDEEF" d="M709.197,551.776c0,1.473-0.947,2.667-2.116,2.667
			c-1.168,0-2.116-1.194-2.116-2.667c0-1.475,0.948-2.667,2.116-2.667C708.25,549.109,709.197,550.303,709.197,551.776"/>
	</g>
	<g>
		<defs>
			<rect id="SVGID_97_" width="1000" height="1000"/>
		</defs>
		<clipPath id="SVGID_98_">
			<use xlink:href="#SVGID_97_"  overflow="visible"/>
		</clipPath>
		<path clip-path="url(#SVGID_98_)" fill="#BDDEEF" d="M361.488,388.528c0,2.372-1.526,4.295-3.408,4.295
			c-1.881,0-3.407-1.923-3.407-4.295c0-2.372,1.526-4.295,3.407-4.295C359.962,384.233,361.488,386.156,361.488,388.528"/>
	</g>
	<g>
		<defs>
			<rect id="SVGID_99_" width="1000" height="1000"/>
		</defs>
		<clipPath id="SVGID_100_">
			<use xlink:href="#SVGID_99_"  overflow="visible"/>
		</clipPath>
		
			<ellipse clip-path="url(#SVGID_100_)" fill="none" stroke="#FFFFFF" stroke-width="1.515" stroke-miterlimit="10" cx="350.258" cy="546.767" rx="4.415" ry="5.564"/>
	</g>
	<g>
		<defs>
			<rect id="SVGID_101_" width="1000" height="1000"/>
		</defs>
		<clipPath id="SVGID_102_">
			<use xlink:href="#SVGID_101_"  overflow="visible"/>
		</clipPath>
		
			<ellipse clip-path="url(#SVGID_102_)" fill="none" stroke="#FFFFFF" stroke-width="1.515" stroke-miterlimit="10" cx="599.801" cy="309.473" rx="4.415" ry="5.564"/>
	</g>
	<g>
		<defs>
			<rect id="SVGID_103_" width="1000" height="1000"/>
		</defs>
		<clipPath id="SVGID_104_">
			<use xlink:href="#SVGID_103_"  overflow="visible"/>
		</clipPath>
		
			<ellipse clip-path="url(#SVGID_104_)" fill="none" stroke="#FFFFFF" stroke-width="1.515" stroke-miterlimit="10" cx="383.182" cy="291.668" rx="14.077" ry="17.742"/>
	</g>
	<g>
		<defs>
			<rect id="SVGID_105_" width="1000" height="1000"/>
		</defs>
		<clipPath id="SVGID_106_">
			<use xlink:href="#SVGID_105_"  overflow="visible"/>
		</clipPath>
		
			<ellipse clip-path="url(#SVGID_106_)" fill="none" stroke="#FFFFFF" stroke-width="1.515" stroke-miterlimit="10" cx="267.724" cy="608.291" rx="28.844" ry="36.354"/>
	</g>
	<g>
		<defs>
			<rect id="SVGID_107_" width="1000" height="1000"/>
		</defs>
		<clipPath id="SVGID_108_">
			<use xlink:href="#SVGID_107_"  overflow="visible"/>
		</clipPath>
		<path clip-path="url(#SVGID_108_)" fill="#BC956B" d="M461.6,730.636c1.539,4.924,0.018,10.378-2.733,14.742
			c-2.751,4.363-6.627,7.877-10.3,11.498c-3.675,3.621-7.266,7.521-9.211,12.299c-0.654,1.604-1.063,3.584-0.007,4.956
			c1.001,1.298,2.871,1.477,4.511,1.425c7.883-0.245,15.493-3.238,22.16-7.452c3.797-2.397,7.34-3.152,9.179-7.249
			c1.681-3.741,1.774-10.209,1.707-14.311c-0.063-3.818-0.125-7.637-0.188-11.453c-0.017-1.022-0.09-2.173-0.856-2.849
			c-0.54-0.475-1.296-0.591-2.009-0.688c-4.188-0.573-8.376-1.147-12.563-1.722"/>
	</g>
	<g>
		<defs>
			<rect id="SVGID_109_" width="1000" height="1000"/>
		</defs>
		<clipPath id="SVGID_110_">
			<use xlink:href="#SVGID_109_"  overflow="visible"/>
		</clipPath>
		<path clip-path="url(#SVGID_110_)" fill="#BC956B" d="M534.588,730.636c-1.539,4.924-0.018,10.378,2.733,14.742
			c2.751,4.363,6.627,7.877,10.3,11.498c3.675,3.621,7.266,7.521,9.211,12.299c0.654,1.604,1.063,3.584,0.007,4.956
			c-1.001,1.298-2.871,1.477-4.511,1.425c-7.883-0.245-15.494-3.238-22.16-7.452c-3.797-2.397-7.34-3.152-9.179-7.249
			c-1.682-3.741-1.774-10.209-1.707-14.311c0.063-3.818,0.125-7.637,0.188-11.453c0.018-1.022,0.091-2.173,0.856-2.849
			c0.54-0.475,1.296-0.591,2.007-0.688c4.189-0.573,8.378-1.147,12.565-1.722"/>
	</g>
	<g>
		<defs>
			<rect id="SVGID_111_" width="1000" height="1000"/>
		</defs>
		<clipPath id="SVGID_112_">
			<use xlink:href="#SVGID_111_"  overflow="visible"/>
		</clipPath>
		<path clip-path="url(#SVGID_112_)" fill="#987957" d="M460.418,742.507c1.701-3.753,2.403-7.977,1.182-11.874l-0.312-0.798
			c4.185,0.575,8.377,1.142,12.561,1.717c0.719,0.097,1.47,0.215,2.013,0.694c0.766,0.671,0.838,1.82,0.854,2.843
			c0.04,2.467,0.08,4.943,0.128,7.418c-2.476,0.288-5.267,0.481-8.319,0.478C465.555,742.979,462.837,742.789,460.418,742.507"/>
	</g>
	<g>
		<defs>
			<rect id="SVGID_113_" width="1000" height="1000"/>
		</defs>
		<clipPath id="SVGID_114_">
			<use xlink:href="#SVGID_113_"  overflow="visible"/>
		</clipPath>
		<path clip-path="url(#SVGID_114_)" fill="#987957" d="M535.771,742.507c-2.271,0.267-4.787,0.45-7.516,0.478
			c-3.279,0.031-6.27-0.167-8.91-0.478c0.071-2.89,0.095-5.273,0.128-7.418c0.017-1.021,0.089-2.172,0.854-2.843
			c0.535-0.479,1.294-0.6,2.004-0.694c4.192-0.575,8.377-1.142,12.569-1.717l-0.313,0.798
			C533.367,734.53,534.07,738.754,535.771,742.507"/>
	</g>
	<g>
		<defs>
			<rect id="SVGID_115_" width="1000" height="1000"/>
		</defs>
		<clipPath id="SVGID_116_">
			<use xlink:href="#SVGID_115_"  overflow="visible"/>
		</clipPath>
		<path clip-path="url(#SVGID_116_)" fill="#C6C6C6" d="M495.176,591.232c-0.032,4.327-0.096,8.721-0.216,13.167
			c-0.024,1.325-0.063,2.65-0.111,3.984c-0.023,1.006-0.056,2.013-0.096,3.019c-0.176,5.246-0.415,10.563-0.719,15.963
			c-0.097,1.818-0.208,3.647-0.327,5.483c-0.112,1.789-0.232,3.595-0.36,5.398c-0.158,2.3-0.335,4.583-0.511,6.851
			c-0.095,1.215-0.191,2.42-0.303,3.625c-0.192,2.301-0.399,4.593-0.607,6.867c-0.327,3.49-0.671,6.938-1.046,10.357
			c-0.112,1.046-0.223,2.075-0.343,3.112c-0.336,3.026-0.688,6.021-1.063,8.983c-0.128,1.063-0.264,2.124-0.398,3.178
			c-0.136,1.055-0.272,2.108-0.416,3.154c-0.135,1.046-0.279,2.092-0.423,3.13c-0.479,3.545-0.99,7.051-1.518,10.5
			c-0.151,1.038-0.311,2.068-0.479,3.098c-0.336,2.164-0.679,4.313-1.03,6.438c-0.32,1.925-0.639,3.825-0.966,5.717
			c-1.03,5.981-2.116,11.811-3.234,17.487c-0.184,0.941-0.375,1.885-0.566,2.827c-0.24,1.205-0.487,2.409-0.735,3.601
			c-0.136,0.663-0.271,1.318-0.407,1.972H458.15c-4.615-11.497-9.582-25.821-13.662-42.559c-5.263-21.591-9.039-47.199-8.632-75.945
			c0.016-1.301,0.048-2.587,0.079-3.872c0.647-23.729,4.032-44.556,8.113-61.73c0.008-0.032,0.017-0.063,0.024-0.096l44.036-1.021
			c2.228-0.056,4.376-0.104,6.412-0.152c0.159,3.817,0.296,7.689,0.406,11.626c0.04,1.325,0.072,2.659,0.097,3.992
			c0.056,2.635,0.096,5.302,0.128,7.993C495.208,581.931,495.216,586.546,495.176,591.232"/>
	</g>
	<g>
		<defs>
			<rect id="SVGID_117_" width="1000" height="1000"/>
		</defs>
		<clipPath id="SVGID_118_">
			<use xlink:href="#SVGID_117_"  overflow="visible"/>
		</clipPath>
		<path clip-path="url(#SVGID_118_)" fill="#C6C6C6" d="M552.923,692.034c-4.256,18.701-9.71,34.583-14.74,47.11h-21.144
			c-0.136-0.654-0.271-1.311-0.408-1.973c-5.996-29.002-11.051-62.179-13.646-98.925c-0.255-3.656-0.487-7.291-0.68-10.884
			c-1.484-26.494-1.444-51.144-0.495-73.598c1.048,0.023,2.086,0.049,3.132,0.071c0.574,0.018,1.155,0.024,1.748,0.04
			c0.494,0.009,0.98,0.024,1.478,0.032c14.197,0.335,28.395,0.663,42.583,0.998c0.503,0.008,1.014,0.023,1.517,0.032
			c3.953,16.593,7.25,36.603,8.051,59.359c0.07,2.092,0.128,4.208,0.158,6.34C560.852,647.391,557.61,671.426,552.923,692.034"/>
	</g>
	<g>
		<defs>
			<rect id="SVGID_119_" width="1000" height="1000"/>
		</defs>
		<clipPath id="SVGID_120_">
			<use xlink:href="#SVGID_119_"  overflow="visible"/>
		</clipPath>
		<path clip-path="url(#SVGID_120_)" fill="#DDDDDD" d="M552.923,692.034c-5.182,16.633-11.146,30.965-15.714,42.615
			c-0.591,1.525-2.061,2.522-3.688,2.522h-16.891c-5.996-29.002-11.051-62.179-13.646-98.925c-0.255-3.656-0.487-7.291-0.68-10.884
			c-1.484-26.494-1.444-51.144-0.495-73.598c1.048,0.023,2.086,0.049,3.132,0.071c0.574,0.018,1.155,0.024,1.748,0.04
			c0.494,0.009,0.98,0.024,1.478,0.032c14.197,0.335,28.395,0.663,42.583,0.998c0.503,0.008,1.014,0.023,1.517,0.032
			c3.953,16.593,7.25,36.603,8.051,59.359c0.07,2.092,0.128,4.208,0.158,6.34C560.852,647.391,557.61,671.426,552.923,692.034"/>
	</g>
	<g>
		<defs>
			<rect id="SVGID_121_" width="1000" height="1000"/>
		</defs>
		<clipPath id="SVGID_122_">
			<use xlink:href="#SVGID_121_"  overflow="visible"/>
		</clipPath>
		<path clip-path="url(#SVGID_122_)" fill="#DDDDDD" d="M495.176,591.232c-0.032,4.327-0.096,8.721-0.216,13.167
			c-0.024,1.325-0.063,2.65-0.111,3.984c-0.023,1.006-0.056,2.013-0.096,3.019c-0.176,5.246-0.415,10.563-0.719,15.963
			c-0.097,1.818-0.208,3.647-0.327,5.483c-0.104,1.789-0.224,3.595-0.352,5.398c-0.159,2.3-0.336,4.583-0.52,6.851
			c-0.095,1.215-0.191,2.42-0.303,3.625c-0.192,2.301-0.399,4.593-0.607,6.867c-0.327,3.49-0.671,6.938-1.046,10.357
			c-0.112,1.046-0.223,2.075-0.343,3.112c-0.336,3.026-0.688,6.021-1.063,8.983c-0.128,1.063-0.264,2.124-0.398,3.178
			c-0.136,1.055-0.272,2.108-0.416,3.154c-0.135,1.046-0.279,2.092-0.423,3.13c-0.479,3.545-0.99,7.051-1.518,10.5
			c-0.151,1.038-0.311,2.068-0.479,3.098c-0.336,2.164-0.679,4.313-1.03,6.438c-0.32,1.925-0.639,3.825-0.966,5.717
			c-1.03,5.981-2.116,11.811-3.234,17.487c-0.184,0.941-0.375,1.885-0.566,2.827c-0.24,1.205-0.487,2.409-0.735,3.601h-16.888
			c-1.629,0-3.09-0.998-3.689-2.522c-4.151-10.597-9.622-23.372-14.644-38.063c-5.263-21.591-9.039-47.199-8.632-75.945
			c0.016-1.301,0.048-2.587,0.079-3.872c0.647-23.729,4.032-44.556,8.113-61.73c13.559-0.335,30.342-0.774,44.061-1.117
			c2.228-0.056,4.376-0.104,6.412-0.152h0.008c0.16,3.811,0.296,7.689,0.398,11.626c0.04,1.325,0.072,2.659,0.097,3.992
			c0.056,2.645,0.104,5.303,0.128,7.993C495.208,581.931,495.216,586.546,495.176,591.232"/>
	</g>
	<g>
		<defs>
			<rect id="SVGID_123_" width="1000" height="1000"/>
		</defs>
		<clipPath id="SVGID_124_">
			<use xlink:href="#SVGID_123_"  overflow="visible"/>
		</clipPath>
		<path clip-path="url(#SVGID_124_)" fill="#C6C6C6" d="M494.524,553.765c0.958,22.493,0.997,47.185-0.495,73.741
			c-23.5-0.144-43.294-5.215-58.09-10.74c0.646-23.777,4.048-44.636,8.136-61.825L494.524,553.765z"/>
	</g>
	<g>
		<defs>
			<rect id="SVGID_125_" width="1000" height="1000"/>
		</defs>
		<clipPath id="SVGID_126_">
			<use xlink:href="#SVGID_125_"  overflow="visible"/>
		</clipPath>
		<path clip-path="url(#SVGID_126_)" fill="#C6C6C6" d="M560.319,614.299c-15.18,6.364-34.814,12.058-58.011,13.063
			c-1.485-26.494-1.445-51.144-0.494-73.598c16.823,0.393,33.64,0.783,50.455,1.175
			C556.224,571.531,559.521,591.542,560.319,614.299"/>
	</g>
	<g>
		<defs>
			<rect id="SVGID_127_" width="1000" height="1000"/>
		</defs>
		<clipPath id="SVGID_128_">
			<use xlink:href="#SVGID_127_"  overflow="visible"/>
		</clipPath>
		<polygon clip-path="url(#SVGID_128_)" fill="#4080A0" points="484.305,372.893 485.666,366.74 491.419,362.326 515.686,362.326 
			520.48,366.952 520.48,372.757 		"/>
	</g>
	<g>
		<defs>
			<rect id="SVGID_129_" width="1000" height="1000"/>
		</defs>
		<clipPath id="SVGID_130_">
			<use xlink:href="#SVGID_129_"  overflow="visible"/>
		</clipPath>
		<path clip-path="url(#SVGID_130_)" fill="#5190B7" d="M578.59,577.655c4.728,8.446,1.44,19.168-7.249,23.435
			c-16.805,8.253-38.117,17.085-70.167,17.793c-32.164,0.71-58.062-7.495-74.748-14.747c-7.491-3.256-11.629-11.375-9.784-19.332
			c6.305-27.188,17.44-62.782,21.396-78.927v-0.005c0.642-2.617,1.269-5.146,1.891-7.595c0.692-2.731,1.368-5.354,2.025-7.877
			c0.015-0.055,0.03-0.104,0.04-0.153c1.792-6.815,3.461-12.87,4.963-18.159c2.553-8.978,4.173-14.124,5.388-17.709
			c2.444-7.195,3.249-8.084,6.706-20.993c6.109-22.814,8.173-37.181,20.321-51.759c3.729-4.48,7.359-7.719,9.917-9.798
			c3.323-1.625,6.518-2.652,9.388-3.294c3.955-0.894,7.289-1.063,9.479-1.063c8.063,0,14.341,2.267,17.944,3.921
			c0.331,0.148,0.639,0.296,0.923,0.435c20.164,23.057,27.094,41.423,28.406,55.488c0.392,4.173,0.291,7.965-0.107,11.393
			c-0.484,4.178-1.442,8.108-2.454,12.652c-0.017,0.054-0.03,0.112-0.04,0.173c-0.108,0.513-0.229,1.042-0.34,1.575
			c-0.035,0.133-0.062,0.271-0.089,0.41c-1.262,5.926-2.494,13.013-2.881,22.924c-0.23,6.005-0.094,11.541,0.229,16.396
			c0.015,0.188,0.022,0.37,0.039,0.553v0.01c0.697,10.011,2.143,17.058,2.637,19.325
			C556.177,530.177,568.416,559.467,578.59,577.655"/>
	</g>
	<g>
		<defs>
			<rect id="SVGID_131_" width="1000" height="1000"/>
		</defs>
		<clipPath id="SVGID_132_">
			<use xlink:href="#SVGID_131_"  overflow="visible"/>
		</clipPath>
		<path clip-path="url(#SVGID_132_)" fill="#5190B7" d="M596.92,369.488c-0.578,9.506-3.126,16.484-3.729,18.094
			c-2.188,5.847-5.013,10.489-8.029,14.825c-1.092,1.576-2.208,3.111-3.324,4.646c-8.152,11.216-15.042,17.295-17.59,20.579
			c-5.111,6.583-8.949,13.151-11.384,23.729c-0.015,0.054-0.029,0.112-0.039,0.173c-0.119,0.513-0.231,1.042-0.341,1.575
			c-0.034,0.133-0.061,0.271-0.09,0.41c-1.892,9.334-2.784,21.684-2.616,39.418c0,0.152,0.005,0.302,0.005,0.454v0.011
			c-14.445-9.379-18.495-43.799-35.596-81.263c-7.39-16.192-10.86-31.27-12.524-43.25c2.287-0.405,5.856-0.839,10.178-0.424
			c3.547,0.336,6.064,1.096,7.099,1.383c0.57,0.158,3.4,1.017,7.159,1.545c4.979,0.692,11.575,0.805,16.696-2.064
			c8.061-4.519,12.539-13.191,12.904-21.719c0.124-2.771-0.193-5.531-0.958-8.124c-1.804-6.089-5.72-9.995-7.921-11.877
			c0.424-1.526,1.047-3.397,1.984-5.457c0.01-0.024,0.021-0.049,0.029-0.069c0.73-1.6,1.648-3.308,2.806-5.067
			c1.68-2.543,3.468-4.577,5.081-6.148c0.05-0.059,0.1-0.109,0.152-0.153c0.563-0.548,1.103-1.037,1.609-1.472
			c4.355,2.193,19.809,10.411,29.76,26.001c3.146,4.924,5.738,10.583,7.265,17.018c0.242,1.012,0.449,2.021,0.622,3.012
			C597.043,360.357,597.183,365.182,596.92,369.488"/>
	</g>
	<g>
		<defs>
			<rect id="SVGID_133_" width="1000" height="1000"/>
		</defs>
		<clipPath id="SVGID_134_">
			<use xlink:href="#SVGID_133_"  overflow="visible"/>
		</clipPath>
		<path clip-path="url(#SVGID_134_)" fill="#5190B7" d="M501.14,368.891c-1.658,11.981-5.131,27.058-12.523,43.25
			c-16.148,35.378-32.337,72.397-46.253,84.299c-0.82,0.7-1.63,1.313-2.436,1.837c0.731-2.741,1.403-5.363,2.025-7.876
			c0.015-0.056,0.03-0.104,0.04-0.154c10.874-44.011,5.748-54.796-2.321-62.594c-2.988-2.89-10.554-9.384-18.707-20.599
			c-4.203-5.772-8.371-11.501-11.353-19.472c-0.233-0.617-0.751-2.03-1.334-4.074c-0.005-0.01-0.005-0.015-0.005-0.015
			c-1.759-6.158-4.1-18.03-0.979-31.231c1.66-7.002,4.583-13.081,8.104-18.296c9.961-14.761,24.687-22.589,28.92-24.722
			c0.508,0.435,1.051,0.923,1.614,1.478c0.05,0.044,0.099,0.088,0.148,0.147c1.615,1.57,3.402,3.605,5.081,6.148
			c1.156,1.758,2.074,3.467,2.805,5.067c0.011,0.02,0.021,0.044,0.03,0.069c0.938,2.059,1.565,3.931,1.99,5.457
			c-2.207,1.881-6.124,5.788-7.926,11.877c-0.617,2.079-0.938,4.262-0.979,6.474c-0.178,9.042,4.346,18.554,12.924,23.369
			c8.988,5.037,22.52,0.888,23.862,0.518c1.028-0.286,3.546-1.047,7.092-1.383c2.988-0.286,5.62-0.168,7.714,0.069
			C499.609,368.639,500.434,368.768,501.14,368.891"/>
	</g>
	<g>
		<defs>
			<rect id="SVGID_135_" width="1000" height="1000"/>
		</defs>
		<clipPath id="SVGID_136_">
			<use xlink:href="#SVGID_135_"  overflow="visible"/>
		</clipPath>
		<path clip-path="url(#SVGID_136_)" fill="#BC956B" d="M521.314,371.208c-8.76,11.091-15.491,22.43-18.51,34.207
			c-3.448-14.492-10.108-25.112-18.501-33.6c0,0,4.863-5.757,7.027-9.358c0.231-0.376,0.431-0.727,0.591-1.046
			c0.638-1.27,0.95-3.554,1.086-5.909c0.239-3.905,0-8.001,0-8.001l25.4,0.846c0,0-0.225,3.042-0.607,7.682
			c-0.104,1.277-0.23,2.683-0.358,4.176c-0.089,0.966-0.072,1.884,0.022,2.739C518.008,368.174,521.314,371.208,521.314,371.208"/>
	</g>
	<g>
		<defs>
			<rect id="SVGID_137_" width="1000" height="1000"/>
		</defs>
		<clipPath id="SVGID_138_">
			<use xlink:href="#SVGID_137_"  overflow="visible"/>
		</clipPath>
		<path clip-path="url(#SVGID_138_)" fill="#987957" d="M517.441,360.205c-0.089,0.966-0.072,1.884,0.023,2.739
			c-1.939,1.139-6.828,3.66-13.497,3.44c-6.249-0.207-10.731-2.71-12.638-3.927c0.092-0.146,0.202-0.33,0.323-0.544
			c0.099-0.175,0.188-0.343,0.268-0.502c0.639-1.27,0.95-3.554,1.086-5.909c0.24-3.905,0-8.001,0-8.001l25.4,0.846
			c0,0-0.225,3.043-0.606,7.682C517.697,357.306,517.569,358.712,517.441,360.205"/>
	</g>
	<g>
		<defs>
			<rect id="SVGID_139_" width="1000" height="1000"/>
		</defs>
		<clipPath id="SVGID_140_">
			<use xlink:href="#SVGID_139_"  overflow="visible"/>
		</clipPath>
		<path clip-path="url(#SVGID_140_)" fill="#5190B7" d="M491.42,362.326c0,0-4.272,3.447-3.457,8.254
			c0.817,4.808,9.524,11.611,9.524,11.611l-3.9,15.057c0,0-16.962-15.057-7.922-30.507L491.42,362.326z"/>
	</g>
	<g>
		<defs>
			<rect id="SVGID_141_" width="1000" height="1000"/>
		</defs>
		<clipPath id="SVGID_142_">
			<use xlink:href="#SVGID_141_"  overflow="visible"/>
		</clipPath>
		<path clip-path="url(#SVGID_142_)" fill="#5190B7" d="M497.487,382.19c0,0,8.901,22.767,5.45,51.611h-2.546
			c0,0,1.098-36.92-4.714-44.629L497.487,382.19z"/>
	</g>
	<g>
		<defs>
			<rect id="SVGID_143_" width="1000" height="1000"/>
		</defs>
		<clipPath id="SVGID_144_">
			<use xlink:href="#SVGID_143_"  overflow="visible"/>
		</clipPath>
		<path clip-path="url(#SVGID_144_)" fill="#5190B7" d="M517.657,364.228c0,0,2.052,1.703,1.484,6.352
			c-0.591,4.84-9.523,11.61-9.523,11.61l3.899,15.058c0,0,16.078-15.058,8.397-29.807c-0.233-0.449-0.624-0.799-1.046-1.079
			L517.657,364.228z"/>
	</g>
	<g>
		<defs>
			<rect id="SVGID_145_" width="1000" height="1000"/>
		</defs>
		<clipPath id="SVGID_146_">
			<use xlink:href="#SVGID_145_"  overflow="visible"/>
		</clipPath>
		<path clip-path="url(#SVGID_146_)" fill="#5190B7" d="M509.618,382.19c0,0-11.535,22.767-8.082,51.611h2.545
			c0,0,1.535-36.92,7.347-44.629L509.618,382.19z"/>
	</g>
	<g>
		<defs>
			<rect id="SVGID_147_" width="1000" height="1000"/>
		</defs>
		<clipPath id="SVGID_148_">
			<use xlink:href="#SVGID_147_"  overflow="visible"/>
		</clipPath>
		<path clip-path="url(#SVGID_148_)" fill="#4080A0" d="M454.313,456.025c-2.804,15.134-6.906,27.876-11.948,40.415
			c-1.358,3.372-2.811,6.542-4.326,9.432c0.642-2.617,1.269-5.146,1.891-7.595c0.691-2.731,1.368-5.354,2.025-7.877
			c0.015-0.055,0.029-0.104,0.039-0.153c10.875-44.011,5.749-54.796-2.321-62.594c-2.987-2.89-10.553-9.384-18.706-20.599
			c-4.203-5.772-8.371-11.502-11.354-19.472c-0.232-0.618-0.751-2.03-1.333-4.075c0.266,0.618,16.813,21.657,36.209,35.28
			C455.42,426.468,457.855,436.891,454.313,456.025"/>
	</g>
	<g>
		<defs>
			<rect id="SVGID_149_" width="1000" height="1000"/>
		</defs>
		<clipPath id="SVGID_150_">
			<use xlink:href="#SVGID_149_"  overflow="visible"/>
		</clipPath>
		<path clip-path="url(#SVGID_150_)" fill="#4080A0" d="M585.162,402.407c-1.091,1.575-2.207,3.11-3.324,4.646
			c-8.153,11.215-15.042,17.294-17.59,20.578c-5.111,6.583-8.949,13.151-11.383,23.729c-0.017,0.055-0.03,0.113-0.04,0.173
			c-0.108,0.514-0.229,1.042-0.34,1.576c-0.035,0.133-0.062,0.271-0.091,0.408c-1.892,9.335-2.784,21.686-2.616,39.42
			c-0.011-0.035-0.024-0.064-0.034-0.1c-2.396-6.686-4.193-13.585-5.358-20.593c-1.842-11.082-2.015-22.895,2.745-33.068
			c2.079-4.443,4.954-8.32,8.297-11.861C564.124,418.106,575.972,411.168,585.162,402.407"/>
	</g>
	<g>
		<defs>
			<rect id="SVGID_151_" width="1000" height="1000"/>
		</defs>
		<clipPath id="SVGID_152_">
			<use xlink:href="#SVGID_151_"  overflow="visible"/>
		</clipPath>
		<path clip-path="url(#SVGID_152_)" fill="#987957" d="M518.409,348.352c0,0-0.222,3.042-0.611,7.679
			c-2.919,1.734-6.347,2.45-9.729,2.746c-3.818,0.331-7.753,0.148-11.329-1.23c-1.318-0.508-2.587-1.195-3.729-2.044
			c0.237-3.902,0-8,0-8L518.409,348.352z"/>
	</g>
	<g>
		<defs>
			<rect id="SVGID_153_" width="1000" height="1000"/>
		</defs>
		<clipPath id="SVGID_154_">
			<use xlink:href="#SVGID_153_"  overflow="visible"/>
		</clipPath>
		<path clip-path="url(#SVGID_154_)" fill="#BC956B" d="M478.659,323.014c-0.989-2.497-2.299-4.172-3.207-5.159
			c-1.017-1.104-2.021-2.167-3.676-2.554c-0.508-0.118-2.063-0.481-3.185,0.368c-0.914,0.691-1.141,1.883-1.224,3.183
			c-0.183,2.823,0.34,5.693,2.02,10.225c1.7,4.585,2.776,5.99,3.834,6.973c1.687,1.568,3.023,1.782,3.694,1.813
			c0.433,0.019,1.319,0.048,2.161-0.488c1.673-1.067,1.611-3.373,1.604-3.556C480.007,330.218,479.333,326.616,478.659,323.014"/>
	</g>
	<g>
		<defs>
			<rect id="SVGID_155_" width="1000" height="1000"/>
		</defs>
		<clipPath id="SVGID_156_">
			<use xlink:href="#SVGID_155_"  overflow="visible"/>
		</clipPath>
		<path clip-path="url(#SVGID_156_)" fill="#BC956B" d="M531.222,337.444c0.396,0.37,1.095,0.906,2.045,1.022
			c0.329,0.041,1.678,0.152,3.625-1.58c4.312-3.833,4.585-10.491,4.693-13.152c0.05-1.233,0.047-3.288-1.209-4.973
			c-0.335-0.45-0.991-1.306-2.044-1.44c-0.85-0.109-1.531,0.309-1.999,0.604c-1.801,1.138-2.438,3.127-2.648,3.95
			C533.685,321.875,530.014,334.656,531.222,337.444"/>
	</g>
	<g>
		<defs>
			<rect id="SVGID_157_" width="1000" height="1000"/>
		</defs>
		<clipPath id="SVGID_158_">
			<use xlink:href="#SVGID_157_"  overflow="visible"/>
		</clipPath>
		<path clip-path="url(#SVGID_158_)" fill="#BC956B" d="M533.384,302.398c-0.895-3.499-1.792-7.018-4.461-10.457
			c-7.386-9.512-21.853-10.078-30.813-8.226c-3.899,0.806-10.671,2.206-15.755,7.947c-5.484,6.193-5.72,13.728-5.995,22.587
			c-0.269,8.599,1.321,14.61,3.764,23.841c0.963,3.637,2.743,9.668,6.972,15.616c1.852,2.604,3.544,4.31,5.786,5.577
			c2.696,1.523,5.077,1.784,8.504,2.161c3.62,0.397,7.129,0.782,11.153-0.767c0.487-0.188,2.463-0.97,4.857-2.835
			c7.164-5.582,12.078-16.173,13.477-19.333C530.873,338.509,537.102,313.134,533.384,302.398"/>
	</g>
	<g>
		<defs>
			<rect id="SVGID_159_" width="1000" height="1000"/>
		</defs>
		<clipPath id="SVGID_160_">
			<use xlink:href="#SVGID_159_"  overflow="visible"/>
		</clipPath>
		<path clip-path="url(#SVGID_160_)" fill="#111010" d="M533.104,324.386c2.015-3.389,4.122-7.746,5.635-13.03
			c1.195-4.18,2.793-9.984,1.762-17.257c-0.646-4.551-1.357-9.553-5.519-12.678c-3.271-2.456-7.078-2.553-8.921-2.465
			c0.066-1.792-0.307-3.11-0.588-3.874c-2.013-5.469-8.324-7.053-9.156-7.249c-1.275-0.299-2.326-0.352-3.083-0.362
			c-5.96-0.079-11.918,2.211-16.169,4.324c0,0-7.414,3.097-14.674,8.335c-1.438,1.038-3.779,2.838-4.344,5.752
			c-0.181,0.934-0.132,1.742-0.059,2.289c-0.924,0.32-4.619,1.72-6.632,5.635c-0.747,1.451-1.096,2.931-1.233,5.459
			c-0.439,8.072,1.857,14.563,2.348,15.906c1.047,2.862,2.884,6.932,6.163,11.269c-0.586-2.202-1.093-5.38-0.352-8.98
			c0.335-1.628,0.673-2.119,2.229-6.339c1.688-4.574,2.532-6.861,2.994-8.922c0.519-2.315,0.96-5.826,0.234-10.447
			c3.097,0.5,6.494,0.852,10.155,0.939c12.417,0.296,22.747-2.569,29.992-5.4c-0.19,3.812,0.009,10.436,3.171,17.726
			c1.799,4.149,4.041,7.322,5.928,9.567C533.024,317.852,533.063,321.119,533.104,324.386"/>
	</g>
	<g>
		<defs>
			<rect id="SVGID_161_" width="1000" height="1000"/>
		</defs>
		<clipPath id="SVGID_162_">
			<use xlink:href="#SVGID_161_"  overflow="visible"/>
		</clipPath>
		<path clip-path="url(#SVGID_162_)" fill="#484443" d="M486.528,284.268c2.263-0.037,4.877-0.226,7.748-0.704
			c3.22-0.537,6.027-1.314,8.363-2.113c-2.142,1.907-4.284,3.815-6.427,5.722c2.399-0.118,5.062-0.382,7.924-0.88
			c4.314-0.75,8.066-1.854,11.183-2.993c-2.736,1.678-6.581,3.624-11.446,4.93c-7.543,2.025-14.028,1.569-17.96,0.968
			c2.964-1.35,5.928-2.699,8.892-4.05C492.045,284.855,489.287,284.561,486.528,284.268"/>
	</g>
	<g>
		<defs>
			<rect id="SVGID_163_" width="1000" height="1000"/>
		</defs>
		<clipPath id="SVGID_164_">
			<use xlink:href="#SVGID_163_"  overflow="visible"/>
		</clipPath>
		<path clip-path="url(#SVGID_164_)" fill="#484443" d="M481.216,293.513c0.409,1.936,0.762,4.703,0.411,7.983
			c-0.499,4.657-2.183,8.156-3.346,10.154c0.611-2.96,1.185-6.054,1.702-9.274C480.474,299.325,480.88,296.368,481.216,293.513"/>
	</g>
	<g>
		<defs>
			<rect id="SVGID_165_" width="1000" height="1000"/>
		</defs>
		<clipPath id="SVGID_166_">
			<use xlink:href="#SVGID_165_"  overflow="visible"/>
		</clipPath>
		<path clip-path="url(#SVGID_166_)" fill="#484443" d="M477.695,300.321c0.271,1.409,0.524,3.686,0,6.398
			c-0.419,2.167-1.19,3.857-1.82,4.989c0.107-1.671,0.291-3.479,0.587-5.4C476.798,304.127,477.228,302.126,477.695,300.321"/>
	</g>
	<g>
		<defs>
			<rect id="SVGID_167_" width="1000" height="1000"/>
		</defs>
		<clipPath id="SVGID_168_">
			<use xlink:href="#SVGID_167_"  overflow="visible"/>
		</clipPath>
		<path clip-path="url(#SVGID_168_)" fill="#484443" d="M528.965,292.456c-1.167,2.886-0.271,5.653,0.264,7.307
			c1.254,3.871,3.752,6.353,5.195,7.572c-1.078-1.693-2.351-4.086-3.258-7.131c-1.164-3.903-1.263-7.31-1.145-9.597
			C529.709,291.017,529.296,291.637,528.965,292.456"/>
	</g>
	<g>
		<defs>
			<rect id="SVGID_169_" width="1000" height="1000"/>
		</defs>
		<clipPath id="SVGID_170_">
			<use xlink:href="#SVGID_169_"  overflow="visible"/>
		</clipPath>
		<path clip-path="url(#SVGID_170_)" fill="#CCA279" d="M443.193,312.58c0,0,10.776-6.468,12.354-7.55c0,0,0.835-0.561,1.939-2.362
			c0,0,2.285-6.388,2.716-7.979c0.432-1.59,0.843-4.218,1.727-5.128c0.883-0.91,5.963-4.482,6.841-4.916
			c0.878-0.433,9.012-3.473,9.718-3.365c0.707,0.107,0.478,1.24,0.478,1.24s0.975-0.185,1.298,0.164
			c0.325,0.35-0.564,1.737-0.564,1.737s0.867,1.755-0.329,2.596c0,0,0.601,1.311-0.48,2.203c-1.081,0.891-3.6,2.206-3.6,2.206
			s-2.023,2.359-2.97,3.104c0,0,0.019,1.927-0.451,3.912c-0.469,1.985-0.984,6.468-1.529,9.242s-1.842,3.844-4.182,5.41
			c-2.34,1.567-6.877,5.659-9.324,8.726c-6.944,8.698-7.735,6.646-12.723,1.576C438.49,317.681,443.193,312.58,443.193,312.58"/>
	</g>
	<g>
		<defs>
			<rect id="SVGID_171_" width="1000" height="1000"/>
		</defs>
		<clipPath id="SVGID_172_">
			<use xlink:href="#SVGID_171_"  overflow="visible"/>
		</clipPath>
		<path clip-path="url(#SVGID_172_)" fill="#987957" d="M479.37,287.017c-6.607,3.19-5.873,2.747-10.852,7.944
			c0.692-1.82,2.388-3.809,4.078-5.063C474.72,288.808,477.274,287.613,479.37,287.017"/>
	</g>
	<g>
		<defs>
			<rect id="SVGID_173_" width="1000" height="1000"/>
		</defs>
		<clipPath id="SVGID_174_">
			<use xlink:href="#SVGID_173_"  overflow="visible"/>
		</clipPath>
		<path clip-path="url(#SVGID_174_)" fill="#987957" d="M479.699,284.421c-2.843,1.419-6.489,2.678-9.134,4.374
			c-1.473,1.261-3.034,2.818-4.533,4.063c0.929-1.771,2.741-3.717,4.535-4.949C473.499,286.669,476.84,285.248,479.699,284.421"/>
	</g>
	<g>
		<defs>
			<rect id="SVGID_175_" width="1000" height="1000"/>
		</defs>
		<clipPath id="SVGID_176_">
			<use xlink:href="#SVGID_175_"  overflow="visible"/>
		</clipPath>
		<path clip-path="url(#SVGID_176_)" fill="#987957" d="M478.966,282.52c-2.825,1.258-6.444,2.763-9.198,4.079
			c-2.063,1.548-3.963,3.339-6.133,4.764c1.335-1.87,3.538-3.789,5.558-5.208C472.33,284.843,475.898,283.401,478.966,282.52"/>
	</g>
	<g>
		<defs>
			<rect id="SVGID_177_" width="1000" height="1000"/>
		</defs>
		<clipPath id="SVGID_178_">
			<use xlink:href="#SVGID_177_"  overflow="visible"/>
		</clipPath>
		<path clip-path="url(#SVGID_178_)" fill="#CCA279" d="M561.843,313.769c0,0-8.939-7.251-10.34-8.554c0,0-0.743-0.678-1.57-2.621
			c0,0-1.32-6.655-1.513-8.292c-0.193-1.636-0.214-4.296-0.954-5.326c-0.74-1.031-5.239-5.311-6.043-5.869s-8.401-4.761-9.116-4.759
			c-0.715,0.003-0.655,1.156-0.655,1.156s-0.936-0.326-1.309-0.028c-0.372,0.298,0.304,1.801,0.304,1.801s-1.114,1.609-0.057,2.616
			c0,0-0.787,1.209,0.15,2.25c0.938,1.04,3.236,2.712,3.236,2.712s1.653,2.63,2.481,3.507c0,0-0.303,1.903-0.131,3.936
			c0.173,2.032,0.021,6.543,0.153,9.366c0.131,2.824,1.256,4.073,3.34,5.967c2.085,1.894,7.274,9.837,9.528,13.049
			c2.253,3.212,5.082,4.666,10.763,0.384C566.513,320.238,561.843,313.769,561.843,313.769"/>
	</g>
	<g>
		<defs>
			<rect id="SVGID_179_" width="1000" height="1000"/>
		</defs>
		<clipPath id="SVGID_180_">
			<use xlink:href="#SVGID_179_"  overflow="visible"/>
		</clipPath>
		<path clip-path="url(#SVGID_180_)" fill="#987957" d="M530.59,283.893c6.066,4.128,5.405,3.581,9.564,9.454
			c-0.417-1.902-1.803-4.118-3.289-5.607C534.926,286.349,532.576,284.791,530.59,283.893"/>
	</g>
	<g>
		<defs>
			<rect id="SVGID_181_" width="1000" height="1000"/>
		</defs>
		<clipPath id="SVGID_182_">
			<use xlink:href="#SVGID_181_"  overflow="visible"/>
		</clipPath>
		<path clip-path="url(#SVGID_182_)" fill="#987957" d="M530.646,281.277c2.603,1.822,6.023,3.604,8.391,5.671
			c1.271,1.464,2.587,3.233,3.887,4.685c-0.658-1.888-2.164-4.08-3.759-5.562C536.448,284.413,533.354,282.516,530.646,281.277"/>
	</g>
	<g>
		<defs>
			<rect id="SVGID_183_" width="1000" height="1000"/>
		</defs>
		<clipPath id="SVGID_184_">
			<use xlink:href="#SVGID_183_"  overflow="visible"/>
		</clipPath>
		<path clip-path="url(#SVGID_184_)" fill="#987957" d="M531.651,279.504c2.608,1.66,5.968,3.681,8.498,5.388
			c1.813,1.835,3.428,3.886,5.363,5.614c-1.045-2.045-2.94-4.268-4.729-5.969C537.873,282.778,534.557,280.827,531.651,279.504"/>
	</g>
	<g>
		<defs>
			<rect id="SVGID_185_" width="1000" height="1000"/>
		</defs>
		<clipPath id="SVGID_186_">
			<use xlink:href="#SVGID_185_"  overflow="visible"/>
		</clipPath>
		<path clip-path="url(#SVGID_186_)" fill="#5190B7" d="M455.988,327.61c-2.207,1.882-6.124,5.788-7.926,11.877
			c-0.617,2.079-0.938,4.262-0.979,6.474c-11.032,1.027-25.364-3.383-31.685-11.995c9.961-14.761,24.687-22.589,28.92-24.722
			c0.508,0.435,1.051,0.924,1.613,1.477c0.051,0.044,0.1,0.089,0.149,0.148c1.615,1.57,3.402,3.605,5.081,6.148
			c1.156,1.758,2.074,3.467,2.805,5.067c0.011,0.02,0.021,0.044,0.03,0.069C454.936,324.212,455.563,326.084,455.988,327.61"/>
	</g>
	<g>
		<defs>
			<rect id="SVGID_187_" width="1000" height="1000"/>
		</defs>
		<clipPath id="SVGID_188_">
			<use xlink:href="#SVGID_187_"  overflow="visible"/>
		</clipPath>
		<path clip-path="url(#SVGID_188_)" fill="#5190B7" d="M588.243,335.245c-6.863,8.539-21.092,13.032-32.544,12.366
			c0.123-2.771-0.192-5.531-0.958-8.124c-1.804-6.089-5.72-9.995-7.921-11.877c0.424-1.526,1.047-3.397,1.984-5.457
			c0.01-0.024,0.021-0.049,0.03-0.069c0.729-1.6,1.648-3.309,2.805-5.067c1.68-2.543,3.466-4.578,5.081-6.148
			c0.05-0.059,0.1-0.109,0.153-0.153c0.563-0.548,1.101-1.037,1.609-1.472C562.841,311.437,578.293,319.654,588.243,335.245"/>
	</g>
	<g>
		<defs>
			<rect id="SVGID_189_" width="1000" height="1000"/>
		</defs>
		<clipPath id="SVGID_190_">
			<use xlink:href="#SVGID_189_"  overflow="visible"/>
		</clipPath>
		<path clip-path="url(#SVGID_190_)" fill="#652B28" d="M493.454,348.625c1.348-0.951,5.335-3.5,10.977-3.408
			c4.724,0.077,8.139,1.965,9.582,2.879c-2.319-0.682-5.59-1.372-9.534-1.363C499.767,346.742,495.957,347.748,493.454,348.625"/>
	</g>
	<g>
		<defs>
			<rect id="SVGID_191_" width="1000" height="1000"/>
		</defs>
		<clipPath id="SVGID_192_">
			<use xlink:href="#SVGID_191_"  overflow="visible"/>
		</clipPath>
		<path clip-path="url(#SVGID_192_)" fill="#987957" d="M501.316,351.547c0.438-0.309,1.732-1.137,3.565-1.107
			c1.534,0.025,2.646,0.638,3.113,0.935c-0.965-0.065-2.011-0.096-3.129-0.074C503.584,351.327,502.396,351.418,501.316,351.547"/>
	</g>
	<g>
		<defs>
			<rect id="SVGID_193_" width="1000" height="1000"/>
		</defs>
		<clipPath id="SVGID_194_">
			<use xlink:href="#SVGID_193_"  overflow="visible"/>
		</clipPath>
		<path clip-path="url(#SVGID_194_)" fill="#FFFFFF" d="M485.223,318.874c0,0,0.639,7.103,7.813,7.397
			c7.174,0.294,7.144-6.494,7.144-6.494S486.444,318.671,485.223,318.874"/>
	</g>
	<g>
		<defs>
			<rect id="SVGID_195_" width="1000" height="1000"/>
		</defs>
		<clipPath id="SVGID_196_">
			<use xlink:href="#SVGID_195_"  overflow="visible"/>
		</clipPath>
		<path clip-path="url(#SVGID_196_)" fill="#3F2E20" d="M497.316,319.233c0.005,0.033,0.01,0.066,0.012,0.097
			c0.315,2.332-1.286,4.496-3.619,4.865c-0.223,0.035-0.445,0.051-0.663,0.055c-0.037,0-0.071-0.001-0.107-0.001
			c-0.016-0.001-0.03-0.002-0.047-0.002c-0.062-0.003-0.12-0.006-0.18-0.012c-0.044-0.002-0.087-0.004-0.131-0.01
			c-1.909-0.197-3.521-1.65-3.834-3.638c-0.09-0.567-0.065-1.128,0.058-1.658c0.031-0.135,0.071-0.27,0.115-0.4
			c0.096-0.286,0.22-0.558,0.373-0.816c3.423-0.751,6.253,0.079,7.833,0.765c0.068,0.196,0.124,0.396,0.163,0.605
			C497.3,319.131,497.308,319.182,497.316,319.233"/>
	</g>
	<g>
		<defs>
			<rect id="SVGID_197_" width="1000" height="1000"/>
		</defs>
		<clipPath id="SVGID_198_">
			<use xlink:href="#SVGID_197_"  overflow="visible"/>
		</clipPath>
		<path clip-path="url(#SVGID_198_)" fill="#987957" d="M500.18,319.777c-0.504,0.068-1.005,0.123-1.5,0.17
			c-4.399,0.398-8.472-0.078-10.958-0.516c-1.559-0.275-2.494-0.535-2.498-0.558l0.004-0.001c1.075-0.459,2.179-0.986,3.182-1.203
			c4.4-0.965,8.039,0.102,10.069,0.984c0.956,0.415,1.494,0.991,1.657,1.095h0.004C500.167,319.767,500.18,319.777,500.18,319.777"
			/>
	</g>
	<g>
		<defs>
			<rect id="SVGID_199_" width="1000" height="1000"/>
		</defs>
		<clipPath id="SVGID_200_">
			<use xlink:href="#SVGID_199_"  overflow="visible"/>
		</clipPath>
		<path clip-path="url(#SVGID_200_)" fill="#987957" d="M486.461,326.717c1.979-0.724,4.116-0.824,6.199-0.847
			c2.063,0.071,4.293,0.083,6.146,1.118c-2.015-0.429-4.1-0.264-6.149-0.32C490.828,326.672,488.271,326.612,486.461,326.717"/>
	</g>
	<g>
		<defs>
			<rect id="SVGID_201_" width="1000" height="1000"/>
		</defs>
		<clipPath id="SVGID_202_">
			<use xlink:href="#SVGID_201_"  overflow="visible"/>
		</clipPath>
		<path clip-path="url(#SVGID_202_)" fill="#FFFFFF" d="M526.945,318.874c0,0-0.639,7.103-7.813,7.397s-7.145-6.494-7.145-6.494
			S525.724,318.671,526.945,318.874"/>
	</g>
	<g>
		<defs>
			<rect id="SVGID_203_" width="1000" height="1000"/>
		</defs>
		<clipPath id="SVGID_204_">
			<use xlink:href="#SVGID_203_"  overflow="visible"/>
		</clipPath>
		<path clip-path="url(#SVGID_204_)" fill="#3F2E20" d="M514.785,319.262c-0.005,0.033-0.011,0.067-0.012,0.098
			c-0.321,2.365,1.304,4.559,3.67,4.933c0.226,0.036,0.45,0.053,0.672,0.057c0.037-0.001,0.07-0.002,0.108-0.002
			c0.017,0,0.031-0.001,0.047-0.002c0.063-0.002,0.123-0.005,0.184-0.011c0.044-0.003,0.089-0.005,0.134-0.011
			c1.935-0.199,3.568-1.673,3.887-3.689c0.092-0.575,0.066-1.144-0.058-1.682c-0.032-0.136-0.073-0.273-0.117-0.405
			c-0.099-0.29-0.224-0.566-0.378-0.828c-3.473-0.76-6.343,0.081-7.943,0.777c-0.068,0.198-0.126,0.401-0.166,0.613
			C514.802,319.158,514.794,319.21,514.785,319.262"/>
	</g>
	<g>
		<defs>
			<rect id="SVGID_205_" width="1000" height="1000"/>
		</defs>
		<clipPath id="SVGID_206_">
			<use xlink:href="#SVGID_205_"  overflow="visible"/>
		</clipPath>
		<path clip-path="url(#SVGID_206_)" fill="#987957" d="M511.988,319.777c0.504,0.068,1.005,0.123,1.5,0.17
			c4.399,0.398,8.472-0.078,10.958-0.516c1.559-0.275,2.494-0.535,2.498-0.558l-0.004-0.001c-1.075-0.459-2.179-0.986-3.182-1.203
			c-4.4-0.965-8.039,0.102-10.069,0.984c-0.956,0.415-1.494,0.991-1.657,1.095h-0.004
			C512.001,319.767,511.988,319.777,511.988,319.777"/>
	</g>
	<g>
		<defs>
			<rect id="SVGID_207_" width="1000" height="1000"/>
		</defs>
		<clipPath id="SVGID_208_">
			<use xlink:href="#SVGID_207_"  overflow="visible"/>
		</clipPath>
		<path clip-path="url(#SVGID_208_)" fill="#987957" d="M525.707,326.717c-1.799-0.105-4.374-0.044-6.196-0.049
			c-2.051,0.056-4.135-0.109-6.148,0.32c1.854-1.035,4.083-1.047,6.146-1.118C521.591,325.893,523.729,325.993,525.707,326.717"/>
	</g>
	<g>
		<defs>
			<rect id="SVGID_209_" width="1000" height="1000"/>
		</defs>
		<clipPath id="SVGID_210_">
			<use xlink:href="#SVGID_209_"  overflow="visible"/>
		</clipPath>
		<path clip-path="url(#SVGID_210_)" d="M502.21,341.254c-4.059,1.804-8.768,1.979-12.874,0.481
			c2.099,0.333,4.223,0.266,6.222-0.185c2.001-0.444,3.872-1.277,5.5-2.397c0.549-0.376,1.299-0.237,1.675,0.311
			C503.166,340.079,502.904,340.969,502.21,341.254"/>
	</g>
	<g>
		<defs>
			<rect id="SVGID_211_" width="1000" height="1000"/>
		</defs>
		<clipPath id="SVGID_212_">
			<use xlink:href="#SVGID_211_"  overflow="visible"/>
		</clipPath>
		<path clip-path="url(#SVGID_212_)" d="M506.541,339.154c3.349,2.325,7.634,3.247,11.722,2.582
			c-4.106,1.498-8.813,1.323-12.874-0.481C503.809,340.51,505.061,338.221,506.541,339.154"/>
	</g>
	<g>
		<defs>
			<rect id="SVGID_213_" width="1000" height="1000"/>
		</defs>
		<clipPath id="SVGID_214_">
			<use xlink:href="#SVGID_213_"  overflow="visible"/>
		</clipPath>
		<path clip-path="url(#SVGID_214_)" fill="#542525" d="M501.939,311.986l-1.771-4.081c0,0-9.705,6.106-19.561,4.977
			C480.607,312.882,489.31,318.35,501.939,311.986"/>
	</g>
	<g>
		<defs>
			<rect id="SVGID_215_" width="1000" height="1000"/>
		</defs>
		<clipPath id="SVGID_216_">
			<use xlink:href="#SVGID_215_"  overflow="visible"/>
		</clipPath>
		<path clip-path="url(#SVGID_216_)" fill="#542525" d="M509.326,311.039l1.872-4.036c0,0,9.55,6.344,19.432,5.458
			C530.63,312.46,521.795,317.712,509.326,311.039"/>
	</g>
	<g>
		<defs>
			<rect id="SVGID_217_" width="1000" height="1000"/>
		</defs>
		<clipPath id="SVGID_218_">
			<use xlink:href="#SVGID_217_"  overflow="visible"/>
		</clipPath>
		<path clip-path="url(#SVGID_218_)" fill="#987957" d="M505.624,316.863c1.604,2.867,2.486,6.419,3.688,9.48
			c1.284,3.144,1.974,7.345-0.809,9.942c-1.834,1.509-4.885,1.568-6.563-0.136c1.077,0.395,2.114,0.704,3.194,0.645
			c3.688,0.099,5.042-3.91,4.379-6.999C508.516,325.49,506.318,321.299,505.624,316.863"/>
	</g>
	<g>
		<defs>
			<rect id="SVGID_219_" width="1000" height="1000"/>
		</defs>
		<clipPath id="SVGID_220_">
			<use xlink:href="#SVGID_219_"  overflow="visible"/>
		</clipPath>
		<path clip-path="url(#SVGID_220_)" fill="#111010" d="M482.774,284.421c0.208,0.962-0.567,2.943-1.265,3.329
			c-3.943,1.681-5.667,21.146-11.041,19.237C470.469,306.987,469.571,287.017,482.774,284.421"/>
	</g>
	<g>
		<defs>
			<rect id="SVGID_221_" width="1000" height="1000"/>
		</defs>
		<clipPath id="SVGID_222_">
			<use xlink:href="#SVGID_221_"  overflow="visible"/>
		</clipPath>
		<path clip-path="url(#SVGID_222_)" fill="#111010" d="M526.624,280.656c-0.146,0.162,0.521,0.453,0.509,1.868
			c-0.009,0.981-0.053,2.018,0.296,2.211c3.944,1.68,8.21,23.419,8.993,17.77c0.879-6.337,0.4-11.204-0.359-13.439
			C534.344,282.976,527.199,280.016,526.624,280.656"/>
	</g>
	<g>
		<defs>
			<rect id="SVGID_223_" width="1000" height="1000"/>
		</defs>
		<clipPath id="SVGID_224_">
			<use xlink:href="#SVGID_223_"  overflow="visible"/>
		</clipPath>
		<path clip-path="url(#SVGID_224_)" fill="#4C6580" d="M500.61,397.4c0,0.672-0.545,1.217-1.218,1.217
			c-0.672,0-1.217-0.545-1.217-1.217c0-0.673,0.545-1.217,1.217-1.217C500.065,396.184,500.61,396.729,500.61,397.4"/>
	</g>
	<g>
		<defs>
			<rect id="SVGID_225_" width="1000" height="1000"/>
		</defs>
		<clipPath id="SVGID_226_">
			<use xlink:href="#SVGID_225_"  overflow="visible"/>
		</clipPath>
		<path clip-path="url(#SVGID_226_)" fill="#4C6580" d="M496.108,387.95c0.646,0.182,1.318-0.194,1.501-0.841
			s-0.194-1.319-0.842-1.501L496.108,387.95z"/>
	</g>
	<g>
		<defs>
			<rect id="SVGID_227_" width="1000" height="1000"/>
		</defs>
		<clipPath id="SVGID_228_">
			<use xlink:href="#SVGID_227_"  overflow="visible"/>
		</clipPath>
		<path clip-path="url(#SVGID_228_)" fill="#4C6580" d="M502.434,408.875c0,0.672-0.545,1.217-1.217,1.217S500,409.547,500,408.875
			s0.545-1.217,1.217-1.217S502.434,408.203,502.434,408.875"/>
	</g>
	<g>
		<defs>
			<rect id="SVGID_229_" width="1000" height="1000"/>
		</defs>
		<clipPath id="SVGID_230_">
			<use xlink:href="#SVGID_229_"  overflow="visible"/>
		</clipPath>
		<path clip-path="url(#SVGID_230_)" fill="#4C6580" d="M502.88,418.235c0,0.672-0.545,1.217-1.217,1.217s-1.217-0.545-1.217-1.217
			c0-0.673,0.545-1.218,1.217-1.218S502.88,417.563,502.88,418.235"/>
	</g>
	<g>
		<defs>
			<rect id="SVGID_231_" width="1000" height="1000"/>
		</defs>
		<clipPath id="SVGID_232_">
			<use xlink:href="#SVGID_231_"  overflow="visible"/>
		</clipPath>
		<path clip-path="url(#SVGID_232_)" fill="#4C6580" d="M502.655,429.469c0,0.672-0.545,1.217-1.218,1.217
			c-0.672,0-1.217-0.545-1.217-1.217s0.545-1.217,1.217-1.217C502.11,428.252,502.655,428.797,502.655,429.469"/>
	</g>
	<g>
		<defs>
			<rect id="SVGID_233_" width="1000" height="1000"/>
		</defs>
		<clipPath id="SVGID_234_">
			<use xlink:href="#SVGID_233_"  overflow="visible"/>
		</clipPath>
		<path clip-path="url(#SVGID_234_)" fill="#4C6580" d="M497.487,382.19c-1.115,5.313-2.354,10.598-3.659,15.866l-0.528-0.485
			c-8.262-7.452-14.557-20.558-7.635-30.83c-4.266,7.67-2.078,16.933,2.808,23.749c1.566,2.32,3.381,4.521,5.4,6.435l-0.704,0.215
			C494.538,392.137,495.949,387.146,497.487,382.19"/>
	</g>
	<g>
		<defs>
			<rect id="SVGID_235_" width="1000" height="1000"/>
		</defs>
		<clipPath id="SVGID_236_">
			<use xlink:href="#SVGID_235_"  overflow="visible"/>
		</clipPath>
		<path clip-path="url(#SVGID_236_)" fill="#4C6580" d="M509.618,382.19c1.54,4.955,2.958,9.943,4.321,14.948l-0.718-0.208
			c1.916-1.91,3.642-4.077,5.147-6.345c4.621-6.638,7.229-15.498,3.546-23.145c6.024,10.277-0.388,22.656-8.101,30.125l-0.532,0.515
			C511.963,392.808,510.733,387.512,509.618,382.19"/>
	</g>
	<g>
		<defs>
			<rect id="SVGID_237_" width="1000" height="1000"/>
		</defs>
		<clipPath id="SVGID_238_">
			<use xlink:href="#SVGID_237_"  overflow="visible"/>
		</clipPath>
		<path clip-path="url(#SVGID_238_)" fill="#4C6580" d="M497.487,382.19c6.217,15.89,8.254,35.021,5.45,51.715
			c-0.001,0-4.459-0.104-4.459-0.104l4.458-0.103C504.063,416.97,502.656,398.674,497.487,382.19"/>
	</g>
</g>
</svg>
