<?xml version="1.0" encoding="utf-8"?>
<!-- Generator: Adobe Illustrator 16.0.0, SVG Export Plug-In . SVG Version: 6.00 Build 0)  -->
<!DOCTYPE svg PUBLIC "-//W3C//DTD SVG 1.1//EN" "http://www.w3.org/Graphics/SVG/1.1/DTD/svg11.dtd">
<svg version="1.1" id="Layer_1" xmlns="http://www.w3.org/2000/svg" xmlns:xlink="http://www.w3.org/1999/xlink" x="0px" y="0px"
	 width="854px" height="544px" viewBox="0 0 854 544" enable-background="new 0 0 854 544" xml:space="preserve">
<g>
	<defs>
		<rect id="SVGID_1_" x="-46" y="-177" width="1000" height="1000"/>
	</defs>
	<clipPath id="SVGID_2_">
		<use xlink:href="#SVGID_1_"  overflow="visible"/>
	</clipPath>
	<path clip-path="url(#SVGID_2_)" fill="#E3F4FF" d="M841.771,433.977c-9.971,36.551-22.53,63.891-31.561,80.761
		c-6.96,12.989-11.83,19.77-11.83,19.77H95.841c0,0-7.14-10.29-17.26-27.19c-35.18-58.71-106.4-197.22-39.41-261.009
		c86.28-82.15,168.48-8.92,184.91-97.52c15.15-81.71,72.87-161.06,177.93-135.48c134.879,32.84,119.98,125.811,186.2,118.86
		c66.22-6.96,179.49-59.01,199.96,39.54c20.48,98.54-75.479,183.06-14.37,176.08C815.791,342.987,869.521,332.257,841.771,433.977"
		/>
	<path clip-path="url(#SVGID_2_)" fill="#BDDEEF" d="M810.211,514.737c-6.96,12.989-11.83,19.77-11.83,19.77H95.841
		c0,0-7.14-10.29-17.26-27.189c85.55-5.7,198.96-9.16,323.38-9.16C573.881,498.157,724.791,504.777,810.211,514.737"/>
	<path clip-path="url(#SVGID_2_)" fill="#99CCE0" d="M126.138,454.953c2.873-32.298-18.524-79.552-56.051-81.456
		c-7.961-0.403-13.974,0.814-12.415,9.726c1.068,6.105,4.452,11.9,8.146,16.919c9.756,13.247,21.74,21.108,34.1,31.628
		c5.589,4.756,10.843,9.238,16.496,13.671c1.952,1.531,3.404,3.188,4.933,5.072c1.001,1.232,4.312,5.912,4.065,4.898
		L126.138,454.953z"/>
	<path clip-path="url(#SVGID_2_)" fill="#21263D" d="M130.697,488.516c-0.254,0-0.47-0.193-0.494-0.451
		c-0.024-0.257-0.045-0.684-0.074-1.269c-0.191-3.849-0.769-15.563-5.194-31.249c-8.337-29.555-23.248-46.581-46.187-66.002
		c-0.21-0.178-0.235-0.491-0.058-0.701c0.178-0.208,0.49-0.234,0.7-0.058c23.086,19.546,38.096,36.691,46.501,66.491
		c4.456,15.794,5.039,27.593,5.23,31.47c0.028,0.565,0.048,0.978,0.071,1.227c0.025,0.273-0.175,0.516-0.449,0.54
		C130.728,488.515,130.712,488.516,130.697,488.516"/>
	<path clip-path="url(#SVGID_2_)" fill="#BDDEEF" d="M118.95,267.755c4.183,7.775-2.313,15.917-1.845,23.869
		c1.307,22.238,39.399,18.995,35.157,42.581c-0.852,4.741-3.813,8.947-6.954,12.448c-2.573,2.87-7.392,5.787-8.132,9.961
		c-1.384,7.805,10.187,12.747,14.313,17.685c6.06,7.254,8.075,17.283,1.952,25.219c-5.861,7.6-6.587,6.278-5.814,16.979
		c0.685,9.489-1.323,29.151-7.991,37.507c-8.236-41.863-21.476-36.491-37.598-37.893c-8.886-0.773-20.048-7.567-17.771-16.613
		c2.39-9.489,2.963-11.855,8.014-19.358c6.828-10.141-4.239-15.667-12.651-17.793c-10.732-2.713-12.447-5.666-15.549-18
		c-1.337-5.317-0.397-10.712,2.384-15.441c3.08-5.241,9.309-7.606,12.401-12.47c5.847-9.2-8.77-12.483-14.324-16.322
		c-6.059-4.186-8.039-9.563-5.302-16.431c1.277-3.206,3.142-5.967,6.094-7.728c2.124-1.266,6.664-1.353,8.026-3.544
		c1.095-1.761-0.659-5.869-0.382-8.132c0.332-2.721,1.341-5.519,3.456-7.436c6.163-5.589,14.011,1.971,20.772,2.749
		C105.202,260.512,114.431,259.355,118.95,267.755"/>
	<path clip-path="url(#SVGID_2_)" fill="#21263D" d="M134.667,487.315c-0.042,0-0.087-0.006-0.129-0.017
		c-0.266-0.072-0.422-0.345-0.351-0.61c5.168-19.118,5.636-42.726,5.38-50.209c-0.755-22.151-5.31-45.296-13.539-68.788
		c-9.11-26.014-18.322-51.122-30.809-72.345c-0.139-0.236-0.06-0.541,0.176-0.68c0.236-0.14,0.542-0.06,0.68,0.177
		c12.533,21.299,21.764,46.457,30.891,72.521c8.262,23.587,12.836,46.829,13.594,69.083c0.257,7.522-0.215,31.264-5.413,50.501
		C135.087,487.17,134.887,487.315,134.667,487.315"/>
	<path clip-path="url(#SVGID_2_)" fill="#21263D" d="M105.644,314.699c-0.037,0-0.073-0.004-0.11-0.013
		c-0.267-0.06-0.436-0.326-0.375-0.593c0.992-4.408,1.879-10.473,2.566-17.54c0.026-0.273,0.261-0.469,0.542-0.446
		c0.273,0.027,0.473,0.269,0.447,0.542c-0.69,7.108-1.585,13.215-2.586,17.662C106.076,314.542,105.871,314.699,105.644,314.699"/>
	<path clip-path="url(#SVGID_2_)" fill="#21263D" d="M111.35,328.462c-0.081,0-0.164-0.021-0.24-0.063
		c-3.057-1.695-5.51-3.218-7.882-4.691c-3.629-2.256-6.764-4.203-10.877-5.992c-0.252-0.109-0.367-0.401-0.258-0.653
		c0.11-0.253,0.403-0.367,0.654-0.258c4.18,1.817,7.343,3.783,11.005,6.058c2.362,1.467,4.804,2.985,7.84,4.667
		c0.239,0.135,0.326,0.436,0.193,0.677C111.694,328.368,111.524,328.462,111.35,328.462"/>
	<path clip-path="url(#SVGID_2_)" fill="#21263D" d="M120.068,349.984c-0.037,0-0.074-0.004-0.111-0.014
		c-0.268-0.061-0.435-0.326-0.374-0.595c0.549-2.404,1.3-5.539,2.096-8.857c0.801-3.342,1.629-6.797,2.282-9.643
		c0.062-0.268,0.333-0.431,0.596-0.374c0.267,0.063,0.434,0.328,0.373,0.596c-0.654,2.852-1.483,6.309-2.285,9.652
		c-0.795,3.316-1.545,6.448-2.093,8.848C120.499,349.828,120.294,349.984,120.068,349.984"/>
	<path clip-path="url(#SVGID_2_)" fill="#21263D" d="M122.385,356.21c-0.089,0-0.179-0.024-0.261-0.074
		c-2.129-1.316-5.412-2.731-8.888-4.229c-3.673-1.583-7.47-3.219-10.67-5.032c-0.239-0.137-0.323-0.439-0.188-0.678
		c0.136-0.238,0.44-0.321,0.677-0.188c3.154,1.788,6.926,3.413,10.574,4.985c3.511,1.513,6.827,2.941,9.018,4.297
		c0.233,0.144,0.306,0.451,0.162,0.684C122.714,356.127,122.552,356.21,122.385,356.21"/>
	<path clip-path="url(#SVGID_2_)" fill="#21263D" d="M130.884,380.678c-0.059,0-0.119-0.011-0.177-0.033
		c-0.256-0.097-0.385-0.384-0.288-0.641c2.047-5.382,3.207-8.04,5.311-12.865l1.137-2.608c0.109-0.254,0.402-0.367,0.653-0.259
		c0.252,0.11,0.368,0.402,0.258,0.654l-1.137,2.61c-2.098,4.811-3.254,7.462-5.292,12.821
		C131.273,380.556,131.084,380.678,130.884,380.678"/>
	<path clip-path="url(#SVGID_2_)" fill="#21263D" d="M134.104,393.803c-0.093,0-0.187-0.026-0.271-0.081
		c-3.536-2.309-6.324-4.038-8.782-5.565c-4.157-2.579-7.16-4.443-10.446-7.072c-0.215-0.172-0.249-0.484-0.078-0.698
		c0.172-0.215,0.484-0.249,0.698-0.077c3.241,2.591,6.223,4.442,10.349,7.004c2.464,1.529,5.256,3.262,8.802,5.578
		c0.23,0.148,0.294,0.457,0.145,0.687C134.426,393.724,134.266,393.803,134.104,393.803"/>
	<path clip-path="url(#SVGID_2_)" fill="#21263D" d="M137.838,412.873c-0.062,0-0.126-0.012-0.186-0.035
		c-0.255-0.104-0.377-0.394-0.275-0.648c1.389-3.43,3.519-7.144,5.399-10.42c1.212-2.112,2.356-4.106,3.113-5.703
		c0.118-0.247,0.414-0.352,0.662-0.237c0.248,0.118,0.354,0.414,0.237,0.662c-0.775,1.634-1.929,3.645-3.15,5.772
		c-1.864,3.25-3.977,6.932-5.339,10.299C138.222,412.757,138.035,412.873,137.838,412.873"/>
	<path clip-path="url(#SVGID_2_)" fill="#99CCE0" d="M142.876,454.953c-2.873-32.298,18.524-79.552,56.051-81.456
		c7.961-0.403,13.974,0.814,12.415,9.726c-1.068,6.105-4.452,11.9-8.146,16.919c-9.756,13.247-21.74,21.108-34.1,31.628
		c-5.589,4.756-10.843,9.238-16.496,13.671c-1.952,1.531-3.404,3.188-4.933,5.072c-1.001,1.232-4.312,5.912-4.065,4.898
		L142.876,454.953z"/>
	<path clip-path="url(#SVGID_2_)" fill="#21263D" d="M138.317,488.516c0.254,0,0.47-0.193,0.494-0.451
		c0.024-0.257,0.045-0.684,0.074-1.269c0.191-3.849,0.769-15.563,5.194-31.249c8.337-29.555,23.248-46.581,46.187-66.002
		c0.21-0.178,0.235-0.491,0.058-0.701c-0.178-0.208-0.49-0.234-0.7-0.058c-23.086,19.546-38.096,36.691-46.501,66.491
		c-4.456,15.794-5.039,27.593-5.23,31.47c-0.028,0.565-0.048,0.978-0.071,1.227c-0.025,0.273,0.175,0.516,0.449,0.54
		C138.286,488.515,138.302,488.516,138.317,488.516"/>
	<polygon clip-path="url(#SVGID_2_)" fill="#99CCE0" points="151.466,518.359 118.284,518.359 105.62,468.116 164.13,468.116 	"/>
	<path clip-path="url(#SVGID_2_)" fill="#302C2B" d="M412.367,32.258c-1.657-2.293-6.193-7.889-13.897-9.801
		c-5.216-1.294-9.472-0.301-13.897,0.731c-8.172,1.908-13.763,5.592-18.285,8.631c-4.862,3.268-9.91,6.661-14.774,13.019
		c-5.233,6.84-6.939,12.781-9.655,22.235c-1.304,4.539-1.646,7.19-0.732,9.947c0.803,2.42,1.952,3.049,2.78,6.144
		c0.273,1.022,0.959,3.985,0.292,7.461c-0.747,3.896-2.349,4.032-4.242,8.923c-1.406,3.633-2.432,6.284-1.609,9.216
		c0.351,1.249,2.038,3.466,5.413,7.899c1.673,2.199,2.404,3.053,2.779,4.681c0.168,0.732,0.783,3.404-0.878,5.851
		c-1.591,2.345-4.152,2.836-4.681,2.926c0.254,2.103,1.621,3.876,3.511,4.535c2.319,0.807,5.046-0.196,6.436-2.487
		c-0.59,0.831-1.425,2.215-1.901,4.096c-0.379,1.493-0.929,3.664,0,5.705c0.867,1.905,2.097,1.665,3.511,4.242
		c0.608,1.11,1.166,2.163,0.877,3.364c-0.449,1.865-2.595,2.662-2.925,2.78c1.646,1.131,3.817,1.127,5.412,0
		c1.473-1.041,2.216-2.87,1.902-4.681c0.238,1.018,1.344,5.22,5.412,7.899c5.726,3.771,12.1,1.089,12.58,0.878
		c-2.513,0.777-4.974-0.155-5.851-1.902c-0.715-1.424-0.312-3.261,0.585-4.388c1.203-1.51,2.546-0.808,4.389-2.487
		c0.156-0.143,2.418-2.251,1.901-4.096c-0.331-1.183-1.546-1.341-1.609-2.341c-0.057-0.917,0.907-1.717,2.048-2.486
		c3.57-2.406,6.875-3.219,6.875-3.219c6.339-1.559,9.64-2.371,11.557-0.585c0.983,0.916,0.527,1.515,1.901,6.583
		c0.966,3.562,1.449,5.342,2.487,6.875c2.569,3.793,6.81,4.887,7.168,4.974c5.998,1.456,10.746-2.482,11.264-2.926
		c-2.682-0.341-5.364-0.682-8.046-1.024c0.171-0.013,2.363-0.217,3.365-2.048c0.896-1.636,0.456-3.866-1.17-5.266
		c0.804,0.011,4.861-0.017,8.191-3.218c3.058-2.938,3.442-6.568,3.511-7.461c-1.322,1.147-3.011,0.99-3.657,0.147
		c-0.557-0.727-0.393-2.033,0.293-2.633c1.008-0.884,2.331,0.476,3.803-0.147c1.592-0.672,1.2-2.749,3.218-7.167
		c0.703-1.54,1.159-2.538,2.048-3.658c2.226-2.803,4.244-2.686,5.998-4.388c3.179-3.084,2.223-8.971,1.755-11.849
		c-1.016-6.253-3.77-7.214-4.388-12.873c-0.422-3.854,0.527-6.423,1.316-9.508c0.587-2.292,3.601-14.696,0.878-26.331
		c-3.355-14.337-13.703-20.163-14.628-20.626c-1.607-0.804-3.219-1.005-3.219-1.005c-0.37-0.047-1.413-0.154-2.742,0.054
		C413.905,31.631,412.998,31.969,412.367,32.258"/>
	<path clip-path="url(#SVGID_2_)" fill="#E2C294" d="M374.808,140.783c0.258-3.783-0.499-8.332-0.875-13.244v-0.117h0.024
		l26.747,7.204l1.175,10.105l1.998,17.107l-34.239-1.151C372.505,155.023,374.338,149.008,374.808,140.783"/>
	<path clip-path="url(#SVGID_2_)" fill="#B59B76" d="M401.757,143.68c-9.714,3.373-17.575,0.742-26.923-5.853
		c-0.15-3.78-0.525-5.376-0.901-10.287l0.024-0.117l26.747,7.204L401.757,143.68z"/>
	<path clip-path="url(#SVGID_2_)" fill="#E2C294" d="M358.008,88.564c-0.079,2.215-0.341,13.433,5.387,25.901
		c2.006,4.366,12.982,28.259,30.793,28.087c18.671-0.181,29.274-26.657,30.512-29.75c4.462-11.141,4.258-21.004,4.066-24.543
		c-1.184-21.824-6.538-43.78-33.341-43.795C368.199,44.45,358.832,65.404,358.008,88.564"/>
	<path clip-path="url(#SVGID_2_)" fill="#E2C294" d="M358.766,95.229c-1.123-5.353-2.873-9.023-4.09-11.172
		c-1.075-1.899-2.253-3.53-4.188-4.183c-0.442-0.15-1.795-0.607-3.055,0c-1.46,0.703-2.064,2.484-2.464,4.438
		c-1.26,6.157-0.052,11.881,0.394,13.774c0.411,1.743,1.736,4.818,4.386,10.968c1.098,2.55,1.976,4.46,3.991,5.459
		c0.256,0.127,2.131,1.023,4.09,0.408c2.761-0.868,4.757-4.445,4.484-8.775C361.131,102.507,359.949,98.868,358.766,95.229"/>
	<path clip-path="url(#SVGID_2_)" fill="#B59B76" d="M406.426,103.02c2.209,3.241,3.961,6.435,5.5,10.063
		c0.86,2.483-2.16,4.362-4.31,4.385c-2.028,0.158-4.108-0.529-5.511-1.841c1.791,0.721,3.618,0.809,5.33,0.478
		c1.213-0.281,3.259-1.149,2.797-2.538C408.833,110.213,407.295,106.621,406.426,103.02"/>
	<path clip-path="url(#SVGID_2_)" fill="#240F0F" d="M406.652,82.053c-0.165-0.317,3.49-2.813,7.618-4.598
		c2.546-1.101,4.814-1.733,6.503-2.11c0.309-0.069,0.628-0.057,0.929,0.038c0.771,0.241,1.636,0.58,2.544,1.059
		c1.9,1.004,3.262,2.243,4.171,3.241c0.091,0.099-0.009,0.255-0.138,0.215c-0.373-0.114-0.746-0.23-1.12-0.346
		c-4.308-1.344-4.651-1.577-5.465-1.772c-1.818-0.434-4.698,0.589-10.383,2.652C407.929,81.659,406.742,82.226,406.652,82.053"/>
	<path clip-path="url(#SVGID_2_)" fill="#240F0F" d="M401.837,81.156c0.165-0.317-3.49-2.813-7.618-4.598
		c-2.546-1.101-4.814-1.733-6.503-2.11c-0.309-0.069-0.628-0.057-0.929,0.038c-0.771,0.241-1.636,0.58-2.544,1.059
		c-1.9,1.004-3.262,2.243-4.171,3.241c-0.091,0.099,0.009,0.255,0.138,0.215c0.373-0.114,0.746-0.23,1.12-0.346
		c4.308-1.344,4.651-1.577,5.465-1.772c1.818-0.434,4.698,0.589,10.383,2.652C400.56,80.762,401.747,81.329,401.837,81.156"/>
	<path clip-path="url(#SVGID_2_)" fill="#FFFFFF" d="M352.838,111.021c0,1.575,1.038,2.852,2.318,2.852
		c1.28,0,2.317-1.277,2.317-2.852c0-1.575-1.037-2.853-2.317-2.853C353.876,108.168,352.838,109.446,352.838,111.021"/>
	<path clip-path="url(#SVGID_2_)" fill="#FFFFFF" d="M354.958,114.158c0.652,0.896,1.628,2.603,2.013,5.164
		c0.304,2.023-0.015,3.869-0.832,4.818c-0.343,0.399-0.737,0.592-1.203,0.592c-0.419,0-0.784-0.163-1.086-0.486
		c-0.445-0.476-1.159-1.758-0.941-4.997C353.054,117.108,354.212,115.19,354.958,114.158 M354.937,112.749
		c0,0-2.682,2.891-2.921,6.44c-0.329,4.888,1.308,6.439,2.921,6.439c2.235,0,3.449-2.922,2.921-6.439
		C357.2,114.806,354.937,112.749,354.937,112.749"/>
	
		<rect x="354.794" y="122.539" transform="matrix(0.5126 0.8587 -0.8587 0.5126 279.1086 -245.9957)" clip-path="url(#SVGID_2_)" fill="#FFFFFF" width="2.854" height="0.589"/>
	
		<rect x="353.675" y="121.406" transform="matrix(0.8579 0.5139 -0.5139 0.8579 113.4362 -164.4403)" clip-path="url(#SVGID_2_)" fill="#FFFFFF" width="0.589" height="2.855"/>
	
		<rect x="353.121" y="119.258" transform="matrix(0.0631 0.998 -0.998 0.0631 451.4205 -239.7706)" clip-path="url(#SVGID_2_)" fill="#FFFFFF" width="0.588" height="2.578"/>
	
		<rect x="356.366" y="119.102" transform="matrix(0.0631 0.998 -0.998 0.0631 454.1892 -243.2633)" clip-path="url(#SVGID_2_)" fill="#FFFFFF" width="0.588" height="2.345"/>
	
		<rect x="355.715" y="116.536" transform="matrix(0.8579 0.5139 -0.5139 0.8579 111.2238 -166.1809)" clip-path="url(#SVGID_2_)" fill="#FFFFFF" width="0.589" height="2.855"/>
	
		<rect x="352.331" y="117.67" transform="matrix(0.5125 0.8587 -0.8587 0.5125 273.7589 -246.262)" clip-path="url(#SVGID_2_)" fill="#FFFFFF" width="2.855" height="0.589"/>
	<path clip-path="url(#SVGID_2_)" fill="#B59B76" d="M396.706,98.293c0-5.635-4.21-10.222-8.558-11.235
		c-5.018-1.169-9.488,2.749-10.13,3.369c-2.249,2.175-2.911,4.77-3.364,6.156c1.087,1.25,4.14,4.423,8.996,5.374
		C390.61,103.319,395.816,99.049,396.706,98.293"/>
	<path clip-path="url(#SVGID_2_)" fill="#FFFFFF" d="M396.706,98.692c-0.732-5.135-4.21-9.184-8.558-10.094
		c-5.018-1.05-9.123,2.516-9.764,3.072c-2.25,1.954-3.277,4.24-3.73,5.486c1.087,1.123,4.14,3.973,8.996,4.827
		C390.61,103.208,395.816,99.372,396.706,98.692"/>
	<path clip-path="url(#SVGID_2_)" fill="#746653" d="M382.453,95.931c0,3.292,2.669,5.961,5.961,5.961s5.961-2.669,5.961-5.961
		s-2.669-5.961-5.961-5.961S382.453,92.639,382.453,95.931"/>
	<path clip-path="url(#SVGID_2_)" fill="#3A332A" d="M387.136,96.822c0,1.515,1.228,2.743,2.743,2.743s2.743-1.228,2.743-2.743
		c0-1.515-1.228-2.743-2.743-2.743S387.136,95.308,387.136,96.822"/>
	<path clip-path="url(#SVGID_2_)" fill="#FFFFFF" d="M386.112,96.229c0,0.565,0.458,1.024,1.024,1.024s1.024-0.459,1.024-1.024
		c0-0.566-0.458-1.024-1.024-1.024S386.112,95.664,386.112,96.229"/>
	<path clip-path="url(#SVGID_2_)" fill="#433015" d="M374.654,97.157c0.715-0.947,1.361-1.971,2.207-2.797
		c0.806-0.819,1.705-1.509,2.672-2.057c3.84-2.22,8.69-2.141,12.405,0.286c2.1,1.341,3.951,3.549,4.768,6.031
		c0.205-2.885-1.336-5.699-3.582-7.615C386.768,85.593,376.214,88.739,374.654,97.157"/>
	<path clip-path="url(#SVGID_2_)" fill="#433015" d="M376.501,93.289c-1.343-0.387-2.633-1.214-3.383-2.422
		c0.451,1.019,1.263,1.845,2.193,2.449c0.319,0.205,0.637,0.385,1.007,0.541L376.501,93.289z"/>
	<path clip-path="url(#SVGID_2_)" fill="#433015" d="M375.689,94.609c-1.132-0.028-2.429-0.282-3.174-1.22
		c0.448,0.828,1.344,1.301,2.211,1.587c0.301,0.096,0.594,0.176,0.923,0.229L375.689,94.609z"/>
	<path clip-path="url(#SVGID_2_)" fill="#433015" d="M374.917,95.928c-0.608,0.129-1.31,0.097-1.876-0.201
		c-0.197-0.1-0.368-0.247-0.527-0.412c0.353,0.629,1.045,0.994,1.739,1.129c0.242,0.047,0.471,0.079,0.74,0.076L374.917,95.928z"/>
	<path clip-path="url(#SVGID_2_)" fill="#B59B76" d="M409.537,98.716c-0.398-5.34,3.268-9.986,7.316-11.253
		c4.674-1.463,9.188,1.937,9.839,2.479c2.286,1.902,3.097,4.313,3.624,5.596c-0.942,1.261-3.611,4.484-8.147,5.729
		C415.67,103.049,410.434,99.369,409.537,98.716"/>
	<path clip-path="url(#SVGID_2_)" fill="#FFFFFF" d="M409.565,99.095c0.331-4.919,3.341-9.001,7.397-10.171
		c4.682-1.35,8.824,1.739,9.471,2.222c2.27,1.692,3.406,3.786,3.923,4.935c-0.95,1.141-3.643,4.058-8.185,5.211
		C415.662,102.943,410.458,99.676,409.565,99.095"/>
	<path clip-path="url(#SVGID_2_)" fill="#746653" d="M415.688,96.274c0.225,3.021,2.857,5.287,5.877,5.062
		c3.021-0.226,5.287-2.857,5.062-5.878c-0.225-3.02-2.857-5.286-5.877-5.061C417.729,90.623,415.463,93.253,415.688,96.274"/>
	<path clip-path="url(#SVGID_2_)" fill="#3A332A" d="M420.153,96.689c0.104,1.39,1.314,2.433,2.704,2.329
		c1.39-0.104,2.433-1.314,2.329-2.704c-0.103-1.39-1.314-2.433-2.704-2.329C421.092,94.088,420.049,95.299,420.153,96.689"/>
	<path clip-path="url(#SVGID_2_)" fill="#FFFFFF" d="M419.207,95.629c0.039,0.519,0.491,0.908,1.01,0.869
		c0.519-0.038,0.908-0.49,0.869-1.009s-0.491-0.908-1.01-0.87C419.558,94.659,419.167,95.11,419.207,95.629"/>
	<path clip-path="url(#SVGID_2_)" fill="#433015" d="M430.356,96.081c-0.744-0.847-1.43-1.772-2.289-2.495
		c-0.822-0.719-1.723-1.31-2.678-1.76c-3.797-1.834-8.388-1.415-11.737,1.148c-1.895,1.419-3.493,3.642-4.092,6.052
		c-0.398-2.72,0.863-5.495,2.856-7.471C418.058,85.977,428.283,88.212,430.356,96.081"/>
	<path clip-path="url(#SVGID_2_)" fill="#433015" d="M428.333,92.545c1.246-0.462,2.409-1.337,3.035-2.535
		c-0.356,0.998-1.066,1.839-1.905,2.477c-0.288,0.216-0.577,0.409-0.916,0.584L428.333,92.545z"/>
	<path clip-path="url(#SVGID_2_)" fill="#433015" d="M429.196,93.74c1.071-0.106,2.282-0.439,2.922-1.38
		c-0.366,0.816-1.182,1.328-1.984,1.66c-0.278,0.112-0.55,0.208-0.858,0.282L429.196,93.74z"/>
	<path clip-path="url(#SVGID_2_)" fill="#433015" d="M430.02,94.935c0.585,0.08,1.249-0.001,1.763-0.323
		c0.181-0.109,0.332-0.26,0.471-0.428c-0.29,0.621-0.92,1.016-1.568,1.193c-0.226,0.062-0.441,0.108-0.696,0.125L430.02,94.935z"/>
	<path clip-path="url(#SVGID_2_)" fill="#302C2B" d="M350.637,83.456c0.739,0.714,1.711,1.828,2.414,3.401
		c0.852,1.908,0.648,3.011,1.536,4.718c0.462,0.889,1.284,2.061,2.852,3.181c0.11-1.938,0.22-3.876,0.329-5.814
		c0.535,2.396,1.174,4.901,1.939,7.497c1.4,4.757,3,9.066,4.644,12.909c-0.203-4.663-0.073-8.553,0.11-11.41
		c0.38-5.952,0.999-7.618,2.084-8.996c1.55-1.968,3.556-2.72,6.254-3.731c4.802-1.799,5.952-0.709,10.422-2.194
		c2.8-0.93,6.507-2.161,8.887-5.485c1.98-2.766,1.167-4.362,3.73-8.668c1.325-2.226,2.654-3.666,3.84-4.937
		c2.048-2.194,5.695-5.549,11.41-8.338c1.701,4.067,3.942,8.658,6.912,13.495c2.341,3.812,4.74,7.133,7.022,9.984
		c-0.802,2.021-2.107,6.139-1.427,11.3c0.981,7.436,7.332,13.864,8.813,15.285c-0.409-1.53-0.443-5.668,0.695-9.655
		c0.829-2.905,0.512-4.863,0.696-7.111c0.201-1.409,3.336-26.209-14.592-40.648c-10.512-8.467-22.535-8.757-24.722-8.777
		c-2.893-0.027-13.593,0.187-23.698,7.46c-8.42,6.06-12.005,13.838-15.067,20.479C352.805,73.725,351.384,79.406,350.637,83.456"/>
	<path clip-path="url(#SVGID_2_)" fill="#302C2B" d="M362.339,84.771c-0.277,0.98-3.033,10.123-12.58,13.751
		c-9.676,3.676-17.905-1.512-18.724-2.048c5.817-2.902,7.924-6.181,8.777-8.631c1.444-4.152-0.3-7.121,1.462-13.897
		c0.898-3.453,1.508-5.798,3.072-6.436C346.568,66.603,351.255,68.917,362.339,84.771"/>
	<path clip-path="url(#SVGID_2_)" fill="#FFFFFF" d="M407.293,125.931c-0.062-0.17-0.134-0.18-0.134-0.18s-2.913,0.423-6.539,0.215
		c-5.268-0.301-9.343-1.698-9.343-1.698s3.361,7.2,8.473,7.069C403.763,131.234,407.792,127.287,407.293,125.931"/>
	<rect x="371.331" y="380.271" clip-path="url(#SVGID_2_)" fill="#B1D8FC" width="19.28" height="34.61"/>
	<rect x="367.917" y="377.079" clip-path="url(#SVGID_2_)" fill="#46738C" width="26.109" height="8.916"/>
	<rect x="369.83" y="406.781" clip-path="url(#SVGID_2_)" fill="#46738C" width="22.284" height="64.047"/>
	<path clip-path="url(#SVGID_2_)" fill="#0F131C" d="M497.004,502.571c0,5.407-4.384,9.79-9.79,9.79c-5.407,0-9.79-4.383-9.79-9.79
		c0-5.405,4.383-9.789,9.79-9.789C492.62,492.782,497.004,497.166,497.004,502.571"/>
	<path clip-path="url(#SVGID_2_)" fill="#46738C" d="M487.223,495.084c-0.516,0-1.04-0.05-1.564-0.153l-106.243-20.956
		c-4.355-0.859-7.189-5.086-6.33-9.441s5.091-7.189,9.441-6.331l106.242,20.956c4.356,0.859,7.189,5.086,6.331,9.442
		C494.344,492.43,490.984,495.084,487.223,495.084"/>
	<path clip-path="url(#SVGID_2_)" fill="#0F131C" d="M266.442,499.16c0,4.017,3.256,7.271,7.271,7.271
		c4.016,0,7.271-3.255,7.271-7.271c0-4.015-3.255-7.271-7.271-7.271C269.698,491.89,266.442,495.146,266.442,499.16"/>
	<path clip-path="url(#SVGID_2_)" fill="#46738C" d="M275.331,495.084c0.516,0,1.04-0.05,1.565-0.153l106.247-20.956
		c4.354-0.859,7.19-5.086,6.33-9.441c-0.858-4.355-5.091-7.189-9.441-6.331l-106.247,20.956c-4.356,0.859-7.19,5.086-6.33,9.442
		C268.209,492.43,271.57,495.084,275.331,495.084"/>
	<path clip-path="url(#SVGID_2_)" fill="#0F131C" d="M371.18,505.415c0,5.407,4.384,9.79,9.791,9.79c5.406,0,9.79-4.383,9.79-9.79
		c0-5.405-4.384-9.788-9.79-9.788C375.564,495.627,371.18,500.01,371.18,505.415"/>
	<path clip-path="url(#SVGID_2_)" fill="#46738C" d="M381.279,501.176c4.439,0,8.038-3.598,8.038-8.037v-27.731
		c0-4.439-3.599-8.038-8.038-8.038c-4.44,0-8.038,3.599-8.038,8.038v27.731C373.241,497.578,376.839,501.176,381.279,501.176"/>
	<path clip-path="url(#SVGID_2_)" fill="#46738C" d="M436.26,373.529c-1.176,0-2.365-0.323-3.433-0.998
		c-3-1.899-3.893-5.87-1.994-8.872c0.157-0.249,15.846-25.086,24.796-43.234c3.353-6.796,3.808-13.054,1.248-17.168
		c-2.16-3.473-6.379-5.387-11.877-5.387h-59.357c-3.551,0-6.43-2.879-6.43-6.43c0-3.551,2.879-6.43,6.43-6.43H445
		c9.961,0,18.271,4.175,22.798,11.456c5.031,8.089,4.806,18.618-0.635,29.647c-9.255,18.768-24.806,43.385-25.463,44.423
		C440.476,372.471,438.391,373.529,436.26,373.529"/>
	<path clip-path="url(#SVGID_2_)" fill="#B1D8FC" d="M464.878,321.288c-0.095,0-0.191-0.021-0.282-0.066
		c-0.319-0.156-0.45-0.541-0.295-0.861c3.542-7.222,3.289-15.028-0.693-21.413c-3.773-6.052-10.309-9.812-17.056-9.812h-22.613
		c-0.355,0-0.643-0.287-0.643-0.643s0.288-0.643,0.643-0.643h22.613c7.187,0,14.141,3.991,18.146,10.417
		c4.222,6.771,4.497,15.031,0.758,22.661C465.345,321.156,465.115,321.288,464.878,321.288"/>
	<path clip-path="url(#SVGID_2_)" fill="#19232D" d="M488.82,378.517h-67.071c-15.548,0-27.258-5.015-34.805-14.909
		c-7.225-9.472-10.591-22.92-10.591-42.321V181.428c0-5.327,4.319-9.646,9.646-9.646c5.327,0,9.646,4.319,9.646,9.646v139.859
		c0,35.037,12.348,37.94,26.104,37.94h67.071c5.327,0,9.646,4.317,9.646,9.646C498.467,374.198,494.147,378.517,488.82,378.517"/>
	<polygon clip-path="url(#SVGID_2_)" fill="#9BC2E0" points="381.279,371.767 293.504,371.767 273.249,345.422 273.249,171.781 
		381.279,171.781 	"/>
	<path clip-path="url(#SVGID_2_)" fill="#6B95AF" d="M371.633,321.287v-139.86c0-5.327,4.318-9.645,9.646-9.645
		c5.326,0,9.645,4.318,9.645,9.645v139.86c0,35.037,12.347,37.938,26.104,37.938h-37.694
		C374.104,350.106,371.633,337.879,371.633,321.287"/>
	<path clip-path="url(#SVGID_2_)" fill="#46738C" d="M468.344,348.956H282.612c0,0,8.146,12.861,17.577,12.861h187.693
		C487.882,361.817,482.063,348.956,468.344,348.956"/>
	<path clip-path="url(#SVGID_2_)" fill="#46738C" d="M396.328,359.227h69.659h19.037c5.327,0,9.646,4.317,9.646,9.645
		s-4.319,9.646-9.646,9.646h-88.696c-15.548,0-16.106-17.746-16.993-19.29H396.328z"/>
	<path clip-path="url(#SVGID_2_)" fill="#46738C" d="M404.112,378.517h-95.113c-15.549,0-27.259-5.015-34.805-14.909
		c-7.225-9.472-10.59-22.92-10.59-42.321V181.428c0-5.327,4.317-9.646,9.645-9.646c5.327,0,9.645,4.319,9.645,9.646v139.859
		c0,35.037,12.348,37.94,26.105,37.94h95.113c5.327,0,9.646,4.317,9.646,9.646C413.758,374.198,409.439,378.517,404.112,378.517"/>
	<path clip-path="url(#SVGID_2_)" fill="#46738C" d="M382.892,239.943h-90.887c-1.065,0-1.929-0.863-1.929-1.929
		c0-1.065,0.864-1.929,1.929-1.929h90.887c1.066,0,1.929,0.864,1.929,1.929C384.82,239.08,383.958,239.943,382.892,239.943"/>
	<path clip-path="url(#SVGID_2_)" fill="#B59B76" d="M528.271,239.657c0,0,1.979,1.371,5.854,0.339
		c2.528-0.674,8.39-3.447,13.604-4.336c1.833-0.313,0.313-3.332-3.402-2.761c-1.79,0.277-4.969,0.414-5.781,0.456
		c-2.213,0.111-4.413-3.307-4.413-3.307L528.271,239.657z"/>
	<path clip-path="url(#SVGID_2_)" fill="#E2C294" d="M525.397,239.547c2.927,0.752,5.403,1.837,9.217-1.253
		c2.66-2.155,5.153-4.463,7.139-6.424c2.552,0.356,5.976,0.891,6.544,1.568c0.831,0.988,2.947,4.043,4.144,5.737
		c1.197,1.693,2.932,0.837,2.433-0.428c-0.503-1.265-2.403-5.832-3.42-6.776c-1.019-0.943-2.891-2.164-2.891-2.164
		s4.436,1.069,5.782,1.736c1.349,0.668,5.491,4.658,6.421,5.226c0.93,0.569,2.725-0.566,1.758-2.3
		c1.579,0.813,2.827-1.439,1.764-2.57c-1.063-1.13-4.423-5.19-6.049-6.187c-0.935-0.575-3.629-1.04-4.871-1.577
		c-0.924-0.394-0.633-0.545-0.145-0.532c2.718,0.065,4.65,0.563,8.133,0.486c2.886-0.064,3.861-2.261,1.204-2.613
		c-1.26-0.168-6.583-1.052-10.538-1.442c-2.225-0.218-5.644,1.813-8.56,3.156c-5.013,2.305-12.382,5.638-13.475,5.712
		c-6.906,0.471-12.741,0-12.741,0l-1.24,9.894C516.006,238.796,523.293,239.006,525.397,239.547"/>
	<path clip-path="url(#SVGID_2_)" fill="#B59B76" d="M550.133,226.429c0,0,1.564,0.366,3.263,0.826
		c1.707,0.472,3.5,0.999,4.118,1.437c1.111,0.821,5.193,5.598,5.209,5.611h-0.001c0.093,0.108,0.08,0.27-0.028,0.365
		c-0.109,0.091-0.273,0.079-0.365-0.03c-0.002-0.002-1.026-1.199-2.186-2.496c-1.151-1.289-2.462-2.693-2.932-3.034
		c-0.425-0.32-2.275-0.905-3.952-1.354c-1.687-0.459-3.241-0.822-3.245-0.823c-0.136-0.033-0.224-0.172-0.19-0.312
		c0.021-0.091,0.09-0.16,0.175-0.186C550.04,226.42,550.086,226.419,550.133,226.429"/>
	<path clip-path="url(#SVGID_2_)" fill="#A04575" d="M437.974,168.926c-5.978-9.445-23.679-17.617-24.714,14.141
		c-0.748,22.966,16.384,49.165,23.426,60.038c5.791,8.941,22.442,19.886,33.306,17.453c13.688-3.064,61.257-16.063,61.257-16.063
		l-5.005-21.026c0,0-13.283,1.818-28.146,3.956c-14.919,2.147-29.588-5.214-36.805-18.446
		C452.959,193.701,443.987,178.426,437.974,168.926"/>
	<path clip-path="url(#SVGID_2_)" fill="#E2C294" d="M495.222,500.635c0,0-11.403-6.352-11.127-16.616l-18.648-2.409
		c-0.563,2.729-2.613,6.354-3.418,8.531c0,0,14.206,12.718,24.906,17.199C497.635,511.819,500.778,505.688,495.222,500.635"/>
	<path clip-path="url(#SVGID_2_)" fill="#211511" d="M467.979,506.867l3.019-1.133c0,0-2.037-1.269-3.109-1.066
		C467.188,505.129,467.979,506.867,467.979,506.867"/>
	<path clip-path="url(#SVGID_2_)" fill="#B59B76" d="M464.45,484.646c0,0,2.69-10.459,4.615-19.78l16.848,3.446
		c0,0-2.952,16.922-1.355,20.19L464.45,484.646z"/>
	<path clip-path="url(#SVGID_2_)" fill="#211511" d="M461.744,489.174c0,0-3.698,6.855-1.143,11.199
		c2.554,4.342,10.607,5.055,13.6,7.678c8.986,7.881,11.17,9.501,18.559,10.664c9.672,1.521,16.383-0.395,11.757-9.137
		c-1.654-3.127-9.295-8.943-9.295-8.943c3.362,4.047-7.798,7.785-16.964,1.188C468.559,494.84,461.744,489.174,461.744,489.174"/>
	<path clip-path="url(#SVGID_2_)" fill="#888A8C" d="M460.601,500.372c-0.041,1.081,0.215,3.071,0.215,3.071
		s3.494,2.424,7.165,3.424c-0.021-0.488,0.09-1.616,0.09-1.616s4.423,1.784,6.364,3.518c1.942,1.733,7.315,6.669,11.229,8.526
		c6.256,2.973,11.153,2.878,13.999,2.51c2.792-0.359,4.95-1.528,5.737-3.126c-2.123,2.649-9.147,2.771-14.754,1.418
		c-8.997-2.17-8.416-4.98-17.355-11.029C469.288,504.359,462.052,502.73,460.601,500.372"/>
	<path clip-path="url(#SVGID_2_)" fill="#FFEBF8" d="M384.713,276.658c0,0-6.012,35.315,1.315,51.093
		c7.326,15.779,87.345,32.686,95.234,35.502c-5.635,8.453-20.027,92.631-16.686,115.603l21.337,6.355
		c9.34-11.386,31.363-88.288,32.354-109.373c1.068-22.768,9.017-33.248-21.414-49.59c-30.43-16.342-60.86-27.049-60.86-27.049
		l-7.702-18.219L384.713,276.658z"/>
	<path clip-path="url(#SVGID_2_)" fill="#E2C294" d="M447.886,507.396c0,0-11.403-6.351-11.127-16.616l-18.648-2.408
		c-0.563,2.728-2.614,6.354-3.418,8.53c0,0,14.206,12.719,24.906,17.199C450.299,518.582,453.443,512.45,447.886,507.396"/>
	<path clip-path="url(#SVGID_2_)" fill="#211511" d="M420.644,513.629l3.018-1.133c0,0-2.037-1.268-3.109-1.065
		C419.852,511.892,420.644,513.629,420.644,513.629"/>
	<path clip-path="url(#SVGID_2_)" fill="#B59B76" d="M417.24,492.372c0,0,2.565-11.423,4.49-20.745l16.847,3.446
		c0,0-2.952,16.923-1.355,20.191L417.24,492.372z"/>
	<path clip-path="url(#SVGID_2_)" fill="#211511" d="M414.409,495.936c0,0-3.698,6.855-1.143,11.199
		c2.554,4.342,10.608,5.056,13.6,7.679c8.986,7.881,11.17,9.501,18.558,10.663c9.672,1.522,16.383-0.394,11.757-9.137
		c-1.654-3.127-9.294-8.942-9.294-8.942c3.362,4.047-7.798,7.784-16.964,1.187C421.223,501.602,414.409,495.936,414.409,495.936"/>
	<path clip-path="url(#SVGID_2_)" fill="#888A8C" d="M413.265,507.135c-0.041,1.081,0.214,3.071,0.214,3.071
		s3.495,2.424,7.165,3.424c-0.021-0.489,0.09-1.616,0.09-1.616s4.423,1.784,6.365,3.517c1.942,1.734,7.315,6.669,11.229,8.527
		c6.256,2.972,11.153,2.877,13.999,2.509c2.792-0.358,4.95-1.527,5.737-3.126c-2.123,2.65-9.147,2.771-14.753,1.418
		c-8.998-2.17-8.417-4.979-17.356-11.028C421.952,511.122,414.716,509.492,413.265,507.135"/>
	<path clip-path="url(#SVGID_2_)" fill="#FFEBF8" d="M345.454,280.416c0,0-10.707,34.938-3.381,50.717
		c7.326,15.779,82.086,37.942,89.975,40.76c-5.635,8.453-17.355,68.563-14.808,111.242l22.603,6.039
		c7.661-7.564,33.166-83.178,35.401-105.847c2.236-22.684,2.073-33.599-28.357-49.94c-30.429-16.342-61.987-25.358-61.987-25.358
		l-2.442-22.918L345.454,280.416z"/>
	<path clip-path="url(#SVGID_2_)" fill="#EFC5E1" d="M518.263,375.837c-1.416,9.429-5.563,30.836-11.213,51.943
		c-12.372-6.359-26.853-10.528-37.524-11.992c3.541-25.01,9.09-48.576,11.733-52.543c-1.306-0.472-4.564-1.322-9.144-2.471v-0.016
		c-23.169-5.87-79.974-19.832-86.081-33.006c-4.344-9.35-4.014-25.546-3.006-37.209v-0.063c0.692-7.98,1.684-13.819,1.684-13.819
		l43.583,4.313l7.696,18.226c0,0,30.425,10.703,60.865,27.041C527.282,342.596,521.646,353.298,518.263,375.837"/>
	<path clip-path="url(#SVGID_2_)" fill="#EFC5E1" d="M472.114,360.759v0.016c0.126,5.194,4.746,11.69,3.565,19.497
		c-1.056,7.021-4.085,20.648-7.974,35.711c-17.424-0.692-39.148,2.619-47.176,5.847c3.337-23.642,8.898-46.007,11.511-49.942
		c-7.885-2.817-82.648-24.979-89.967-40.75c-7.335-15.787,3.384-50.728,3.384-50.728l37.003,4.706l0.567,5.367v0.063l1.873,17.486
		c0,0,31.558,9.019,61.982,25.357C466.763,344.059,471.909,350.969,472.114,360.759"/>
	<path clip-path="url(#SVGID_2_)" fill="#A05580" d="M518.861,414.981c-0.662,1.992-1.265,3.692-1.749,5.082
		c-0.733,2.104-3.056,3.225-5.135,2.426c-4.86-1.868-8.983-5.03-29.947-12.718c-22.036-8.096-52.38,0.295-65.232,4.607
		c-2.762,0.927-5.535-1.332-5.222-4.229c0.785-7.254,1.336-19.389-1.853-29.874c-4.911-16.212-37.791-26.049-37.791-26.049
		s-4.297-1.117-9.995-3.793c-11.788-5.572-29.59-17.77-27.575-40.325c1.778-19.958,7.885-37.649,12.182-48.131
		c-1.354-7.618-4.596-28.08-5.036-52.004c-0.709-38.877,3.447-50.634,3.447-50.634l8.467-2.566l18.998-5.745l18.588,1.275
		l16.417,2.157c0,0,14.37,6.374,21.358,9.16c3.133,22.287,4.927,33.305,4.927,33.305s2.03,13.867,1.511,21.091
		c-0.52,7.209-6.862,17.691-9.476,24.664c-2.628,6.973-0.267,27.591-0.267,27.591l-1.054-0.063
		c2.093,6.17,15.393,25.026,22.019,29.26h0.016c1.684,1.07,3.258,2.062,4.58,2.896c2.345,1.448,4.864,2.534,7.508,3.259
		c15.016,4.06,64.895,20.886,67.554,49.768C528.588,382.59,522.686,403.571,518.861,414.981"/>
	<path clip-path="url(#SVGID_2_)" fill="#C96BA1" d="M518.861,414.981c-4.25-1.982-10.059-5.24-27.418-11.615
		c-21.593-7.929-51.619-2.682-64.911,1.665c-3.142,1.027-6.289-1.53-5.949-4.819c0.748-7.253,1.612-16.263-1.464-26.342
		c-4.91-16.212-37.791-26.049-37.791-26.049s-4.281-1.117-9.994-3.81c-11.789-5.556-29.59-17.754-27.576-40.309
		c1.794-19.958,7.886-37.649,12.199-48.131c-1.37-7.619-4.597-28.08-5.053-52.004c-0.488-26.836,1.338-40.75,2.518-46.794
		l18.998-5.745l18.588,1.275l16.417,2.157c0,0,14.37,6.374,21.358,9.16c3.133,22.287,4.927,33.305,4.927,33.305
		s2.03,13.867,1.511,21.091c-0.52,7.209-6.862,17.691-9.476,24.664c-2.628,6.973-0.267,27.591-0.267,27.591l-1.054-0.063
		c2.093,6.17,15.393,25.026,22.019,29.26h0.016c1.684,1.07,3.258,2.062,4.58,2.896c2.345,1.448,4.864,2.534,7.508,3.259
		c15.016,4.06,64.895,20.886,67.554,49.768C528.588,382.59,522.686,403.571,518.861,414.981"/>
	<path clip-path="url(#SVGID_2_)" fill="#B59B76" d="M464.8,258.26c0,0,1.98,1.371,5.855,0.339
		c2.528-0.674,8.388-3.447,13.604-4.336c1.833-0.313,0.314-3.332-3.401-2.761c-1.79,0.277-4.97,0.414-5.781,0.456
		c-2.213,0.111-4.414-3.307-4.414-3.307L464.8,258.26z"/>
	<path clip-path="url(#SVGID_2_)" fill="#E2C294" d="M461.927,258.151c2.926,0.752,5.402,1.837,9.216-1.253
		c2.66-2.155,5.154-4.463,7.139-6.424c2.553,0.356,5.977,0.891,6.544,1.568c0.831,0.988,2.947,4.043,4.145,5.737
		c1.196,1.693,2.931,0.837,2.431-0.428c-0.502-1.265-2.402-5.832-3.419-6.776c-1.018-0.943-2.89-2.164-2.89-2.164
		s4.435,1.069,5.781,1.736c1.349,0.668,5.491,4.658,6.422,5.226c0.929,0.569,2.724-0.566,1.758-2.3
		c1.579,0.813,2.827-1.439,1.763-2.57c-1.062-1.13-4.423-5.19-6.049-6.187c-0.935-0.575-3.628-1.04-4.871-1.577
		c-0.924-0.394-0.633-0.545-0.144-0.532c2.718,0.065,4.649,0.563,8.133,0.486c2.885-0.064,3.86-2.261,1.204-2.613
		c-1.261-0.168-6.583-1.052-10.538-1.442c-2.226-0.218-5.645,1.813-8.561,3.156c-5.013,2.305-12.382,5.638-13.475,5.712
		c-6.906,0.471-12.741,0-12.741,0l-1.24,9.894C452.535,257.4,459.821,257.61,461.927,258.151"/>
	<path clip-path="url(#SVGID_2_)" fill="#B59B76" d="M486.661,245.033c0,0,1.564,0.366,3.263,0.826
		c1.707,0.472,3.5,0.999,4.118,1.437c1.112,0.821,5.194,5.598,5.209,5.611h-0.001c0.093,0.108,0.08,0.27-0.028,0.365
		c-0.108,0.091-0.273,0.079-0.365-0.03c-0.001-0.002-1.026-1.199-2.186-2.496c-1.151-1.289-2.462-2.693-2.932-3.034
		c-0.424-0.32-2.275-0.905-3.952-1.354c-1.687-0.459-3.241-0.822-3.245-0.823c-0.136-0.033-0.223-0.172-0.19-0.313
		c0.021-0.091,0.091-0.16,0.176-0.186C486.569,245.024,486.614,245.023,486.661,245.033"/>
	<rect x="506.058" y="257.26" clip-path="url(#SVGID_2_)" fill="#A0A0A0" width="109.335" height="5.65"/>
	<rect x="465.191" y="257.26" clip-path="url(#SVGID_2_)" fill="#777777" width="40.866" height="5.65"/>
	<path clip-path="url(#SVGID_2_)" fill="#A0A0A0" d="M521.818,187.111h21.449l-10.32,72.715h-21.448
		c-3.243,0-5.502-2.631-5.04-5.878l8.651-60.963C515.571,189.74,518.574,187.111,521.818,187.111"/>
	<path clip-path="url(#SVGID_2_)" fill="#E2E2E2" d="M617.054,253.948c-0.461,3.247-3.466,5.878-6.708,5.878h-96.953
		c-3.244,0-5.501-2.631-5.04-5.878l8.651-60.963c0.461-3.245,3.465-5.874,6.707-5.874h96.954c3.243,0,5.5,2.629,5.04,5.874
		L617.054,253.948z"/>
	<path clip-path="url(#SVGID_2_)" fill="#C7D3D8" d="M625.633,193.499l-8.579,60.449c-0.461,3.247-3.466,5.878-6.708,5.878h-96.954
		c-0.148,0-0.292-0.012-0.436-0.023C552.967,205.536,615.83,194.859,625.633,193.499"/>
	<path clip-path="url(#SVGID_2_)" fill="#FCFCFC" d="M559.756,218.33c-0.746,5.267,2.917,9.538,8.185,9.538
		s10.144-4.271,10.892-9.538c0.747-5.268-2.917-9.538-8.185-9.538S560.504,213.062,559.756,218.33"/>
	<polygon clip-path="url(#SVGID_2_)" fill="#A0A0A0" points="465.191,259.167 508.104,259.338 506.059,257.26 465.191,257.26 	"/>
	<path clip-path="url(#SVGID_2_)" fill="#A04575" d="M454.911,245.875l-0.897,13.866l-1.479,3.025c0,0-70.151,1.241-84.159,0.391
		c-11.112-0.661-14.355-5.084-17.455-15.283c-3.746-12.387-13.898-48.84-13.52-71.001c0.173-10.042,2.691-15.472,6.154-17.881
		c7.476-5.209,19.375,3.794,21.516,11.128c4.721,16.197,12.245,46.731,16.29,69.491
		C401.601,242.146,454.911,245.875,454.911,245.875"/>
	<path clip-path="url(#SVGID_2_)" fill="#B5598D" d="M454.911,245.876c0.724,5.252,0.774,10.09-0.897,13.866
		c-13.426,0.142-70.229,0.725-82.554-0.031c-11.112-0.677-14.355-5.084-17.455-15.283c-3.746-12.387-13.898-48.84-13.521-71.001
		c0.111-6.705,1.275-11.364,3.07-14.434c7.476-5.209,25.939,4.291,28.079,11.625c3.157,10.828,1.003,27.569,4.787,44.607
		c3.271,14.724,15.696,25.643,30.723,26.941C429.529,244.1,454.911,245.876,454.911,245.876"/>
	<path clip-path="url(#SVGID_2_)" fill="#7C3A60" d="M352.706,146.6c1.723-3.896,6.752-4.912,9.88-2.02
		c1.338,1.238,3.351,2.839,6.376,4.873c9.578,6.442,38.309,10.212,45.105,9.128c6.797-1.084,0.013-8.187,7.884-5.857
		c7.169,2.122,7.521,7.834,9.973,8.828c3.342,1.352,4.714,3.946,4.762,6.111c0.047,2.164-10.891,23.308-38.376,21.679
		c-27.486-1.629-38.877-16.613-48.286-23.16c-12.886-8.966-1.917-13.828,0.646-16.102
		C351.463,149.375,352.067,148.044,352.706,146.6"/>
	<path clip-path="url(#SVGID_2_)" fill="#7C3A60" d="M366.648,145.033c2.097-2.064,5.162-2.819,7.712-1.351
		c0.764,0.441,1.759,0.963,3.054,1.579c5.902,2.807,23.429,4.71,27.553,4.333c4.125-0.378,1.06-2.753,2.415-2.71
		c4.154,0.132,6.983,3.711,8.487,4.155c2.049,0.605,2.772,1.726,2.967,2.614c1.637,7.471-6.366,9.642-23.111,8.65
		c-16.746-0.992-23.848-7.398-29.648-10.247c-7.943-3.902-1.323-5.815,0.212-6.739C366.416,145.24,366.535,145.144,366.648,145.033"
		/>
	<path clip-path="url(#SVGID_2_)" fill="#89456A" d="M400.99,172.102c0.021-0.34-0.238-0.63-0.576-0.65
		c-5.502-0.305-26.069-6.557-36.2-11.927c-3.044-1.608-5.273-3.127-6.709-4.363c-1.313-1.082-1.903-2.067-1.952-2.323
		c0.064-0.016,0.188-0.036,0.372-0.023c0.915,0.041,2.95,0.773,5.82,2.478c9.827,5.802,25.837,13.057,42.709,15.983
		c1.372,0.239,2.684,0.388,3.931,0.462c14.313,0.848,20.581-8.234,20.628-8.318l-0.001,0.002c0.192-0.281,0.12-0.663-0.159-0.853
		c-0.28-0.193-0.662-0.121-0.854,0.159c-0.005-0.002-0.344,0.504-1.104,1.296c-0.759,0.791-1.92,1.844-3.509,2.873
		c-3.18,2.054-8.056,4.022-14.928,3.615c-1.203-0.072-2.467-0.216-3.795-0.444c-16.663-2.887-32.583-10.093-42.295-15.831
		c-2.971-1.747-5.033-2.556-6.371-2.647c-0.392-0.022-0.743,0.011-1.072,0.186c-0.336,0.164-0.586,0.563-0.592,0.931
		c0.013,1.079,0.857,2.026,2.372,3.383c1.533,1.32,3.829,2.878,6.936,4.521c10.405,5.476,30.765,11.694,36.7,12.066
		C400.68,172.698,400.97,172.438,400.99,172.102"/>
	<path clip-path="url(#SVGID_2_)" fill="#46738C" d="M329.195,373.529c-1.175,0-2.365-0.323-3.432-0.998
		c-3.001-1.899-3.894-5.87-1.995-8.872c0.157-0.249,15.846-25.086,24.801-43.234c3.351-6.796,3.806-13.054,1.248-17.168
		c-2.161-3.473-6.381-5.387-11.883-5.387h-59.355c-3.552,0-6.431-2.879-6.431-6.43c0-3.551,2.879-6.43,6.431-6.43h59.355
		c9.966,0,18.276,4.175,22.804,11.456c5.03,8.089,4.804,18.618-0.634,29.647c-9.256,18.768-24.812,43.385-25.469,44.423
		C333.411,372.471,331.326,373.529,329.195,373.529"/>
	<path clip-path="url(#SVGID_2_)" fill="#B1D8FC" d="M358.777,321.288c-0.094,0-0.191-0.021-0.283-0.066
		c-0.318-0.156-0.45-0.541-0.294-0.861c3.541-7.222,3.288-15.028-0.694-21.413c-3.773-6.052-10.309-9.812-17.059-9.812h-22.614
		c-0.355,0-0.643-0.287-0.643-0.643s0.288-0.643,0.643-0.643h22.614c7.192,0,14.145,3.991,18.151,10.417
		c4.221,6.771,4.497,15.031,0.757,22.661C359.243,321.156,359.014,321.288,358.777,321.288"/>
	<path clip-path="url(#SVGID_2_)" fill="#7C3A60" d="M405.819,185.049c0,0,16.239,36.999,4.955,57.43l22.88,1.832
		c0,0,16.078-50.902-3.581-71.632L405.819,185.049z"/>
	<path clip-path="url(#SVGID_2_)" fill="#7C3A60" d="M400.803,280.416c0,0-8.566,7.272-6.472,17.454l32.736-2.512
		c0,0-5.695-7.38-1.753-14.414L400.803,280.416z"/>
	<path clip-path="url(#SVGID_2_)" fill="#89456A" d="M402.161,154.81c-5.853,0-10.425-1.124-11.432-1.393
		c-7.078-1.894-14.231-4.107-21.263-6.575c-0.233-0.082-0.356-0.337-0.274-0.571c0.082-0.232,0.332-0.347,0.57-0.274
		c7.011,2.463,14.143,4.667,21.197,6.558c1.198,0.318,7.552,1.876,15.055,1.188c3.455-0.315,5.4-0.956,5.628-1.853
		c0.149-0.59-0.348-1.446-1.401-2.406c-0.182-0.165-0.195-0.448-0.029-0.63c0.167-0.183,0.45-0.195,0.631-0.029
		c1.346,1.227,1.906,2.332,1.665,3.285c-0.348,1.372-2.325,2.15-6.412,2.524C404.741,154.758,403.421,154.81,402.161,154.81"/>
	<path clip-path="url(#SVGID_2_)" fill="#89456A" d="M416.999,242.405c-0.083,0-0.168-0.016-0.249-0.049
		c-0.344-0.136-0.511-0.527-0.373-0.871c3.081-7.694,4.685-15.786,4.767-24.051c0.091-9.114-1.659-18.007-5.201-26.435
		c-0.143-0.342,0.017-0.735,0.358-0.878c0.34-0.138,0.735,0.016,0.878,0.358c3.613,8.599,5.398,17.672,5.305,26.969
		c-0.083,8.43-1.72,16.685-4.863,24.536C417.517,242.246,417.264,242.405,416.999,242.405"/>
	<path clip-path="url(#SVGID_2_)" fill="#89456A" d="M426.93,242.138c-0.083,0-0.168-0.016-0.249-0.047
		c-0.344-0.138-0.511-0.529-0.373-0.873c3.08-7.696,4.684-15.788,4.767-24.051c0.091-9.11-1.659-18.006-5.201-26.436
		c-0.143-0.343,0.017-0.735,0.359-0.878c0.342-0.142,0.735,0.015,0.877,0.357c3.613,8.602,5.398,17.676,5.305,26.971
		c-0.084,8.429-1.721,16.685-4.863,24.536C427.448,241.979,427.196,242.138,426.93,242.138"/>
	<path clip-path="url(#SVGID_2_)" fill="#FF335A" d="M263.54,246.802h-77.271c-4.448,0-8.054,3.606-8.054,8.054
		c0,4.448,3.606,8.053,8.054,8.053l77.271,0.001C260.231,257.112,259.588,251.659,263.54,246.802"/>
	<path clip-path="url(#SVGID_2_)" fill="#FFFFFF" d="M261.018,260.513h-74.759c-3.1,0-5.647-2.547-5.647-5.646
		c0-3.124,2.547-5.671,5.647-5.671h74.399C259.288,252.632,259.408,256.404,261.018,260.513"/>
	<path clip-path="url(#SVGID_2_)" fill="#103C89" d="M273.249,230.695h-77.271c-4.448,0-8.054,3.606-8.054,8.054
		c0,4.448,3.606,8.053,8.054,8.053l77.271,0.001C269.941,241.005,269.298,235.552,273.249,230.695"/>
	<path clip-path="url(#SVGID_2_)" fill="#FFFFFF" d="M270.728,244.405h-74.759c-3.1,0-5.647-2.547-5.647-5.646
		c0-3.124,2.547-5.671,5.647-5.671h74.399C268.998,236.524,269.118,240.296,270.728,244.405"/>
	<rect x="160.391" y="487.888" clip-path="url(#SVGID_2_)" fill="#754026" width="534.112" height="7.738"/>
	<path clip-path="url(#SVGID_2_)" fill="#E5E5E5" d="M676.666,258.81l-25.684,0.526c-0.987,0.02-1.771,0.836-1.752,1.824
		c0.021,0.988,0.838,1.77,1.824,1.75l25.685-0.526c0.986-0.02,1.771-0.836,1.751-1.824
		C678.469,259.573,677.653,258.79,676.666,258.81"/>
	<path clip-path="url(#SVGID_2_)" fill="#111111" d="M682.618,258.29l-8.578,0.176c-0.33,0.006-0.577,0.989-0.552,2.197
		s0.312,2.18,0.641,2.173l8.579-0.175c0.329-0.007,0.576-0.99,0.552-2.198S682.948,258.283,682.618,258.29"/>
	<path clip-path="url(#SVGID_2_)" fill="#111111" d="M650.759,259.484l-2.407,0.049c-0.093,0.002-0.153,0.739-0.134,1.648
		c0.018,0.908,0.107,1.642,0.2,1.64l2.407-0.049c0.093-0.002,0.153-0.739,0.134-1.647
		C650.941,260.216,650.851,259.482,650.759,259.484"/>
	<path clip-path="url(#SVGID_2_)" fill="#111111" d="M649.105,260.136l-1.503,0.031c-0.057,0.001-0.095,0.461-0.083,1.028
		c0.011,0.567,0.068,1.025,0.125,1.024l1.503-0.031c0.059-0.001,0.095-0.461,0.084-1.028
		C649.22,260.593,649.164,260.135,649.105,260.136"/>
	<rect x="160.391" y="275.149" clip-path="url(#SVGID_2_)" fill="#EAA77A" width="15.729" height="257.08"/>
	<rect x="678.774" y="275.149" clip-path="url(#SVGID_2_)" fill="#EAA77A" width="15.729" height="257.08"/>
	<path clip-path="url(#SVGID_2_)" fill="#754026" d="M153.404,280.943h564.225c4.98,0,9.017-4.037,9.017-9.017
		s-4.036-9.017-9.017-9.017H153.404c-4.98,0-9.017,4.037-9.017,9.017S148.424,280.943,153.404,280.943"/>
	<rect x="42.751" y="528.591" clip-path="url(#SVGID_2_)" fill="#99CCE0" width="785.53" height="7.276"/>
</g>
</svg>
