<svg width="253" height="248" viewBox="0 0 253 248" fill="none" xmlns="http://www.w3.org/2000/svg">
<path d="M99.6938 163.637L85.4138 186.837L112.804 219.367H140.424L166.174 186.287L150.234 163.637H99.6938Z" fill="#3F4553"/>
<path d="M85.4138 186.837C85.4138 186.837 23.9838 191.587 8.5738 207.677C-6.8362 223.767 0.413794 241.237 15.4238 241.237C43.0538 241.237 101.514 242.927 129.174 241.237L130.824 203.567L85.4138 186.837Z" fill="#3F4553"/>
<path d="M164.584 186.037C164.584 186.037 228.914 191.587 244.324 207.677C259.734 223.767 250.854 234.427 237.474 241.237C218.644 250.827 150.774 249.237 115.574 237.587L122.084 203.567L164.584 186.037Z" fill="#3F4553"/>
<path d="M167.414 217.637L163.064 206.397L168.484 203.987C168.484 203.987 167.734 197.337 174.364 196.057C180.994 194.777 188.894 199.057 196.594 195.607C203.694 192.427 212.384 189.497 220.494 193.897C221.694 194.547 222.254 195.977 221.844 197.277L221.814 197.377C221.404 198.687 220.124 199.497 218.754 199.357C215.894 199.067 210.794 199.127 205.754 202.177C197.064 207.457 167.414 217.637 167.414 217.637Z" fill="#FEBBA0"/>
<path d="M218.024 218.277C218.024 218.277 175.094 210.647 84.6638 209.467L75.9338 221.307C75.9338 221.307 98.4338 234.167 119.554 238.817C140.674 243.467 213.584 258.107 246.144 235.557L218.024 218.277Z" fill="#3F4553"/>
<path d="M119.554 238.827C97.9038 233.827 75.2538 221.007 75.2538 221.007L76.6038 218.717" stroke="#6E758F" stroke-width="1.5925" stroke-miterlimit="10" stroke-linecap="round"/>
<path d="M84.6638 209.467C84.6638 209.467 184.014 207.197 210.524 222.577" stroke="#6E758F" stroke-width="1.5925" stroke-miterlimit="10" stroke-linecap="round"/>
<path d="M35.8938 215.907C35.8938 215.907 54.0338 207.407 66.4338 212.977" stroke="#6E758F" stroke-width="1.5925" stroke-miterlimit="10" stroke-linecap="round"/>
<path d="M78.0238 219.347L84.6538 209.247L78.0238 205.657C78.0238 205.657 75.7038 199.847 69.2038 198.047C62.6938 196.257 58.0638 199.147 50.6538 195.107C43.8238 191.377 35.3838 187.787 26.9638 191.537C25.7238 192.087 25.0438 193.467 25.3538 194.797L25.3738 194.897C25.6838 196.237 26.8938 197.137 28.2638 197.107C31.1338 197.037 36.2238 197.497 41.0038 200.937C49.2538 206.877 78.0238 219.347 78.0238 219.347Z" fill="#FEBBA0"/>
<path d="M135.104 209.827L162.264 207.157" stroke="#6E758F" stroke-width="1.5925" stroke-miterlimit="10" stroke-linecap="round"/>
<path d="M100.564 198.057L115.714 209.027" stroke="#6E758F" stroke-width="1.5925" stroke-miterlimit="10" stroke-linecap="round"/>
<path d="M96.6538 48.7667C97.2938 55.0267 102.744 59.5867 108.824 58.9667C114.904 58.3467 119.314 52.7667 118.674 46.5167C118.034 40.2567 112.584 35.6967 106.504 36.3167C100.434 36.9267 96.0238 42.5067 96.6538 48.7667Z" fill="#3F4553"/>
<path d="M119.364 53.3167C119.364 53.3167 100.044 50.3967 97.0038 32.1667C94.3238 16.0567 105.134 3.14675 116.984 0.916748C116.994 0.916748 145.464 44.7967 119.364 53.3167Z" fill="#3F4553"/>
<path d="M119.804 2.64679C118.384 3.34679 117.034 4.26679 115.804 5.45679C104.794 16.0468 111.764 36.6068 121.624 45.8868C127.084 51.0168 135.064 53.4068 142.034 50.7868C152.224 46.9568 155.414 35.4168 153.344 25.1368C151.804 17.4768 147.554 10.2468 141.284 5.74679C135.014 1.25679 126.544 -0.643208 119.804 2.64679Z" fill="#FDBCA0"/>
<path d="M117.974 39.6868C116.044 41.5968 112.684 42.3768 110.104 41.4668C107.524 40.5568 105.404 38.1268 104.734 35.3068C104.134 32.7768 104.784 29.8968 106.644 28.3468C108.504 26.7968 111.854 26.8968 113.444 28.9068L117.974 39.6868Z" fill="#FDBCA0"/>
<path d="M115.154 32.9668L117.184 69.3068C117.454 76.0268 122.904 81.3668 129.624 81.4968C137.384 81.6568 143.474 74.8768 142.484 67.1768L138.384 33.4368L115.154 32.9668Z" fill="#FDBCA0"/>
<path d="M141.144 56.2167L140.634 51.2367C140.634 51.2367 130.634 54.3067 121.624 45.8767C121.624 45.8867 126.814 55.3567 141.144 56.2167Z" fill="#DF8370"/>
<path d="M111.184 27.4768C124.204 26.8068 136.084 18.0668 142.644 6.80679C142.644 6.80679 130.664 -4.56321 113.154 2.08679C98.6438 7.58679 111.184 27.4768 111.184 27.4768Z" fill="#3F4553"/>
<path d="M112.614 35.8368C111.114 35.9868 109.804 35.1768 109.684 34.0268C109.594 33.1568 110.204 32.3468 111.144 31.9268" stroke="#444359" stroke-width="1.1144" stroke-miterlimit="10" stroke-linecap="round"/>
<path d="M143.894 32.9968C144.194 32.0868 144.714 31.3668 145.294 30.6868L145.574 31.5668C144.914 31.3168 144.554 30.9368 144.184 30.5668C143.834 30.1768 143.524 29.7868 143.244 29.3668C142.684 28.5368 142.214 27.6568 141.874 26.7268C142.574 27.4368 143.214 28.1668 143.884 28.8668C144.224 29.2068 144.544 29.5568 144.894 29.8568C145.224 30.1468 145.614 30.4468 145.884 30.5168L146.694 30.7068L146.164 31.3968C145.624 32.1068 145.024 32.7668 144.194 33.2468C144.094 33.3068 143.974 33.2668 143.914 33.1768C143.884 33.1068 143.884 33.0468 143.894 32.9968Z" fill="#444359"/>
<path d="M146.824 36.1768C146.424 36.9968 145.744 37.7068 144.864 38.1368C143.994 38.5868 142.914 38.6768 141.954 38.3968C140.974 38.1268 140.214 37.4868 139.564 36.8268C139.274 36.4668 138.984 36.0968 138.744 35.7168C138.534 35.3068 138.314 34.9068 138.154 34.4868C138.524 34.7668 138.844 35.0668 139.164 35.3668L140.154 36.1868C140.854 36.6468 141.514 37.1468 142.274 37.3268C143.004 37.5568 143.784 37.5468 144.554 37.3368C145.314 37.1168 146.074 36.6868 146.824 36.1768Z" fill="#444359"/>
<path d="M136.354 23.1066C136.744 24.2666 136.964 25.4666 136.884 26.7566C136.834 27.3866 136.684 28.0766 136.214 28.6866C135.734 29.3066 134.924 29.5766 134.214 29.5566C133.484 29.5466 132.764 29.2266 132.274 28.7766C131.764 28.3266 131.364 27.8066 131.064 27.2566C130.464 26.1466 130.084 24.9866 129.894 23.7666C129.864 23.5766 129.994 23.3966 130.184 23.3566C130.364 23.3266 130.524 23.4366 130.574 23.5966L130.584 23.6166C130.924 24.6966 131.374 25.7866 131.954 26.7266C132.534 27.6366 133.324 28.4766 134.254 28.4466C134.714 28.4666 135.144 28.3466 135.404 28.0166C135.694 27.6966 135.834 27.1766 135.914 26.6466C136.064 25.5766 135.964 24.3966 135.784 23.2666V23.2466C135.754 23.0866 135.874 22.9266 136.034 22.9066C136.164 22.8866 136.304 22.9766 136.354 23.1066Z" fill="#444359"/>
<path d="M150.874 20.8367C151.204 21.8167 151.384 22.8167 151.364 23.8867C151.354 24.4167 151.254 24.9967 150.914 25.5467C150.584 26.1267 149.844 26.4867 149.204 26.4567C148.534 26.4467 147.924 26.0967 147.534 25.6867C147.134 25.2667 146.824 24.8167 146.594 24.3367C146.144 23.3767 145.864 22.3967 145.724 21.3667C145.694 21.1767 145.834 20.9967 146.034 20.9667C146.204 20.9467 146.364 21.0467 146.414 21.2067L146.424 21.2267C146.714 22.1267 147.064 23.0467 147.514 23.8467C147.964 24.6267 148.574 25.3767 149.244 25.3367C149.584 25.3467 149.854 25.2467 150.034 24.9667C150.234 24.6867 150.334 24.2567 150.394 23.8067C150.494 22.9067 150.414 21.9167 150.304 20.9767V20.9567C150.284 20.7967 150.404 20.6467 150.564 20.6167C150.694 20.6167 150.834 20.7067 150.874 20.8367Z" fill="#444359"/>
<path d="M161.674 72.607C161.584 66.507 141.804 61.627 141.804 61.627C140.564 62.997 138.434 65.3069 129.464 65.3069C120.884 65.3069 117.454 63.087 116.114 61.627H107.624C105.734 61.627 104.004 62.707 103.214 64.427C86.2037 101.637 95.7637 143.197 99.6837 163.627C100.044 165.507 135.544 164.237 151.554 165.507C155.014 165.797 162.014 94.777 161.674 72.607Z" fill="#FEE6C6"/>
<path d="M120.364 125.227C122.124 111.007 124.274 102.477 125.924 105.277C127.384 107.757 126.574 120.197 124.384 132.197C124.394 132.197 119.614 131.317 120.364 125.227Z" fill="#FEBBA0"/>
<path d="M131.984 125.227C130.224 111.007 128.074 102.477 126.424 105.277C124.964 107.757 125.774 120.197 127.964 132.197C127.954 132.197 132.734 131.317 131.984 125.227Z" fill="#FEBBA0"/>
<path d="M190.604 121.697H168.254L171.804 144.397L131.244 124.607C131.104 123.087 130.914 121.207 130.684 119.217C129.154 119.217 127.614 119.217 126.084 119.197C126.094 120.927 126.124 122.097 126.124 122.097C126.124 122.097 125.334 132.537 127.144 136.017C130.584 142.637 165.774 163.957 175.544 166.487C176.154 166.647 176.764 166.767 177.374 166.847C186.804 168.177 193.054 162.887 192.984 153.367L190.604 121.697Z" fill="#FEBBA0"/>
<path d="M121.264 119.117C120.914 121.357 120.604 123.517 120.364 125.227L80.9738 143.467L82.6338 121.707H60.2838L57.9138 153.397C57.8538 162.917 64.1038 168.197 73.5238 166.877C74.1338 166.787 74.7438 166.667 75.3538 166.517C85.1238 163.987 117.854 146.297 124.844 135.977C126.914 132.927 125.934 122.657 125.934 122.657C125.934 122.657 125.934 121.237 125.894 119.217C124.354 119.187 122.814 119.157 121.264 119.117Z" fill="#FEBBA0"/>
<path d="M88.3538 134.117C97.0938 108.267 97.0238 108.247 107.754 61.637C100.574 62.127 99.8338 60.957 94.1738 63.897C77.1938 72.717 61.2038 101.687 56.4938 134.117H88.3538Z" fill="#FEE6C6"/>
<path d="M166.174 131.567C161.034 113.257 141.804 61.6368 141.804 61.6368C161.034 60.9868 187.274 86.0569 193.554 128.217L166.174 131.567Z" fill="#FEE6C6"/>
<path d="M161.684 91.137L157.634 124.417" stroke="#EED2AD" stroke-width="1.5925" stroke-miterlimit="10" stroke-linecap="round"/>
<path d="M92.0338 96.5969L95.2538 132.197" stroke="#EED2AD" stroke-width="1.5925" stroke-miterlimit="10" stroke-linecap="round"/>
</svg>
