<svg width="415" height="516" viewBox="0 0 415 516" fill="none" xmlns="http://www.w3.org/2000/svg">
<circle cx="207.102" cy="269.982" r="246" fill="#9AA2FD"/>
<circle cx="207.102" cy="269.982" r="246" fill="#949DFF"/>
<circle cx="207.102" cy="269.982" r="211" fill="#9AA2FD"/>
<circle cx="207.102" cy="269.982" r="211" fill="#99A1FF"/>
<circle cx="207.102" cy="269.982" r="177" fill="#9AA2FD"/>
<circle cx="207.102" cy="269.982" r="177" fill="#9EA6FF"/>
<path d="M296.502 78.9824C294.931 70.7551 286.248 66.5558 282.102 65.4845C292.051 62.9135 296.72 70.8408 297.811 75.1259C308.808 68.9554 315.92 72.9833 318.102 75.7686C309.724 73.1976 300.211 76.8399 296.502 78.9824Z" fill="#B4BAFF"/>
<path d="M61.9023 94.9824C60.9423 90.2811 55.6356 87.8815 53.1023 87.2693C59.1823 85.8002 62.0356 90.3301 62.7023 92.7787C69.4223 89.2527 73.769 91.5544 75.1023 93.146C69.9823 91.6768 64.169 93.7581 61.9023 94.9824Z" fill="#B4BAFF"/>
<circle cx="207.102" cy="269.982" r="142" fill="#A3ABFF"/>
<path d="M345.351 116.008C297.351 102.508 304.351 143.008 314.351 143.008C318.459 143.008 326.975 144.008 337.351 144.008H368.851C408.851 144.008 420.351 141.341 420.851 140.508C424.351 114.008 403.185 116.508 391.851 119.508C393.685 109.674 391.751 89.8076 369.351 89.0076C346.95 88.2076 344.017 106.674 345.351 116.008Z" fill="#B4BAFF"/>
<path d="M7.85802 40.7698C-13.1694 34.8816 -10.1031 52.5463 -5.7224 52.5463C-3.92261 52.5463 -0.191839 52.9824 4.35374 52.9824H18.1532C35.6761 52.9824 40.714 51.8193 40.9333 51.4558C42.4666 39.8975 33.1939 40.9879 28.229 42.2964C29.0322 38.0075 28.1851 29.3423 18.3719 28.9934C8.55868 28.6445 7.27381 36.699 7.85802 40.7698Z" fill="#A6ADFB"/>
<circle cx="39.1023" cy="17.9824" r="6" fill="#A6ADFB"/>
<circle cx="3" cy="3" r="3" transform="matrix(1 0 0 -1 27.1023 6.98242)" fill="#A6ADFB"/>
</svg>
