<svg width="492" height="515" viewBox="0 0 492 515" fill="none" xmlns="http://www.w3.org/2000/svg">
<circle cx="246" cy="269" r="246" fill="#9AA2FD"/>
<circle cx="246" cy="269" r="246" fill="#949DFF"/>
<circle cx="246" cy="269" r="211" fill="#9AA2FD"/>
<circle cx="246" cy="269" r="211" fill="#99A1FF"/>
<circle cx="246" cy="269" r="177" fill="#9AA2FD"/>
<circle cx="246" cy="269" r="177" fill="#9EA6FF"/>
<path d="M335.4 78C333.829 69.7727 325.145 65.5733 321 64.5021C330.949 61.931 335.618 69.8584 336.709 74.1434C347.705 67.973 354.818 72.0009 357 74.7862C348.622 72.2152 339.109 75.8575 335.4 78Z" fill="#B4BAFF"/>
<path d="M100.8 94C99.84 89.2987 94.5333 86.899 92 86.2869C98.08 84.8177 100.933 89.3477 101.6 91.7963C108.32 88.2703 112.667 90.572 114 92.1635C108.88 90.6944 103.067 92.7757 100.8 94Z" fill="#B4BAFF"/>
<circle cx="246" cy="269" r="142" fill="#A3ABFF"/>
<rect x="37" y="308" width="429" height="207" fill="#8C96FF"/>
<path d="M384.248 115.025C336.249 101.525 343.248 142.025 353.248 142.025C357.357 142.025 365.873 143.025 376.249 143.025H407.749C447.748 143.025 459.249 140.358 459.749 139.525C463.249 113.025 442.082 115.525 430.749 118.525C432.582 108.692 430.649 88.8252 408.248 88.0252C385.848 87.2252 382.915 105.692 384.248 115.025Z" fill="#B4BAFF"/>
<path d="M46.7557 39.7874C25.7283 33.8992 28.7946 51.5638 33.1753 51.5638C34.9751 51.5638 38.7059 52 43.2514 52H57.0509C74.5738 52 79.6117 50.8369 79.831 50.4734C81.3643 38.9151 72.0916 40.0055 67.1267 41.314C67.9299 37.025 67.0828 28.3599 57.2696 28.011C47.4564 27.662 46.1715 35.7165 46.7557 39.7874Z" fill="#A6ADFB"/>
<circle cx="78" cy="17" r="6" fill="#A6ADFB"/>
<circle cx="3" cy="3" r="3" transform="matrix(1 0 0 -1 66 6)" fill="#A6ADFB"/>
<path d="M112.084 275L36.5 308H466.5L392.998 275H112.084Z" fill="#8C96FF"/>
<path d="M227.592 191.654L213.312 214.854L240.702 247.384H268.322L294.072 214.304L278.132 191.654H227.592Z" fill="#3F4553"/>
<path d="M213.312 214.854C213.312 214.854 151.882 219.604 136.472 235.694C121.062 251.784 128.311 269.254 143.321 269.254C170.951 269.254 229.412 270.944 257.072 269.254L258.721 231.584L213.312 214.854Z" fill="#3F4553"/>
<path d="M292.481 214.054C292.481 214.054 356.811 219.604 372.221 235.694C387.631 251.784 378.752 262.444 365.372 269.254C346.542 278.844 278.671 277.254 243.471 265.604L249.981 231.584L292.481 214.054Z" fill="#3F4553"/>
<path d="M295.311 245.654L290.961 234.414L296.381 232.004C296.381 232.004 295.631 225.354 302.261 224.074C308.891 222.794 316.791 227.074 324.491 223.624C331.591 220.444 340.281 217.514 348.391 221.914C349.591 222.564 350.151 223.994 349.741 225.294L349.711 225.394C349.301 226.704 348.021 227.514 346.651 227.374C343.791 227.084 338.691 227.144 333.651 230.194C324.961 235.474 295.311 245.654 295.311 245.654Z" fill="#FEBBA0"/>
<path d="M345.921 246.294C345.921 246.294 302.991 238.664 212.561 237.484L203.831 249.324C203.831 249.324 226.331 262.184 247.451 266.834C268.571 271.484 341.481 286.124 374.041 263.574L345.921 246.294Z" fill="#3F4553"/>
<path d="M247.451 266.844C225.801 261.844 203.151 249.024 203.151 249.024L204.501 246.734" stroke="#6E758F" stroke-width="1.5925" stroke-miterlimit="10" stroke-linecap="round"/>
<path d="M212.562 237.484C212.562 237.484 311.912 235.214 338.422 250.594" stroke="#6E758F" stroke-width="1.5925" stroke-miterlimit="10" stroke-linecap="round"/>
<path d="M163.792 243.924C163.792 243.924 181.932 235.424 194.332 240.994" stroke="#6E758F" stroke-width="1.5925" stroke-miterlimit="10" stroke-linecap="round"/>
<path d="M205.921 247.364L212.551 237.264L205.921 233.674C205.921 233.674 203.601 227.864 197.101 226.064C190.591 224.274 185.961 227.164 178.551 223.124C171.721 219.394 163.281 215.804 154.861 219.554C153.621 220.104 152.941 221.484 153.251 222.814L153.271 222.914C153.581 224.254 154.791 225.154 156.161 225.124C159.031 225.054 164.121 225.514 168.901 228.954C177.151 234.894 205.921 247.364 205.921 247.364Z" fill="#FEBBA0"/>
<path d="M263.001 237.844L290.161 235.174" stroke="#6E758F" stroke-width="1.5925" stroke-miterlimit="10" stroke-linecap="round"/>
<path d="M228.461 226.074L243.611 237.044" stroke="#6E758F" stroke-width="1.5925" stroke-miterlimit="10" stroke-linecap="round"/>
<path d="M224.551 76.7844C225.191 83.0444 230.641 87.6044 236.721 86.9844C242.801 86.3644 247.211 80.7844 246.571 74.5344C245.931 68.2744 240.481 63.7144 234.401 64.3344C228.331 64.9444 223.921 70.5244 224.551 76.7844Z" fill="#3F4553"/>
<path d="M247.261 81.3343C247.261 81.3343 227.941 78.4143 224.901 60.1843C222.221 44.0743 233.031 31.1643 244.881 28.9343C244.891 28.9343 273.361 72.8143 247.261 81.3343Z" fill="#3F4553"/>
<path d="M247.701 30.6644C246.281 31.3644 244.931 32.2844 243.701 33.4744C232.691 44.0644 239.661 64.6244 249.521 73.9044C254.981 79.0344 262.961 81.4244 269.931 78.8044C280.121 74.9744 283.311 63.4344 281.241 53.1544C279.701 45.4944 275.451 38.2644 269.181 33.7644C262.911 29.2744 254.441 27.3744 247.701 30.6644Z" fill="#FDBCA0"/>
<path d="M245.871 67.7043C243.941 69.6143 240.581 70.3944 238.001 69.4844C235.421 68.5744 233.301 66.1444 232.631 63.3244C232.031 60.7944 232.681 57.9143 234.541 56.3643C236.401 54.8143 239.751 54.9143 241.341 56.9243L245.871 67.7043Z" fill="#FDBCA0"/>
<path d="M243.051 60.9844L245.081 97.3244C245.351 104.044 250.801 109.384 257.521 109.514C265.281 109.674 271.371 102.894 270.381 95.1944L266.281 61.4544L243.051 60.9844Z" fill="#FDBCA0"/>
<path d="M269.041 84.2343L268.531 79.2543C268.531 79.2543 258.531 82.3243 249.521 73.8943C249.521 73.9043 254.711 83.3743 269.041 84.2343Z" fill="#DF8370"/>
<path d="M239.081 55.4944C252.101 54.8244 263.981 46.0844 270.541 34.8244C270.541 34.8244 258.561 23.4544 241.051 30.1044C226.541 35.6044 239.081 55.4944 239.081 55.4944Z" fill="#3F4553"/>
<path d="M240.511 63.8543C239.011 64.0043 237.701 63.1943 237.581 62.0443C237.491 61.1743 238.101 60.3643 239.041 59.9443" stroke="#444359" stroke-width="1.1144" stroke-miterlimit="10" stroke-linecap="round"/>
<path d="M271.791 61.0144C272.091 60.1044 272.611 59.3844 273.191 58.7044L273.471 59.5844C272.811 59.3344 272.451 58.9544 272.081 58.5844C271.731 58.1944 271.421 57.8044 271.141 57.3844C270.581 56.5544 270.111 55.6744 269.771 54.7444C270.471 55.4544 271.111 56.1844 271.781 56.8844C272.121 57.2244 272.441 57.5744 272.791 57.8744C273.121 58.1644 273.511 58.4644 273.781 58.5344L274.591 58.7244L274.061 59.4144C273.521 60.1244 272.921 60.7844 272.091 61.2644C271.991 61.3244 271.871 61.2844 271.811 61.1944C271.781 61.1244 271.781 61.0644 271.791 61.0144Z" fill="#444359"/>
<path d="M274.722 64.1944C274.322 65.0144 273.642 65.7244 272.762 66.1544C271.892 66.6044 270.812 66.6944 269.852 66.4144C268.872 66.1444 268.112 65.5044 267.462 64.8444C267.172 64.4844 266.882 64.1144 266.642 63.7344C266.432 63.3244 266.212 62.9244 266.052 62.5044C266.422 62.7844 266.742 63.0844 267.062 63.3844L268.052 64.2044C268.752 64.6644 269.412 65.1644 270.172 65.3444C270.902 65.5744 271.682 65.5644 272.452 65.3544C273.212 65.1344 273.972 64.7044 274.722 64.1944Z" fill="#444359"/>
<path d="M264.251 51.1244C264.641 52.2844 264.861 53.4844 264.781 54.7744C264.731 55.4044 264.581 56.0944 264.111 56.7044C263.631 57.3244 262.821 57.5944 262.111 57.5744C261.381 57.5644 260.661 57.2444 260.171 56.7944C259.661 56.3444 259.261 55.8244 258.961 55.2744C258.361 54.1644 257.981 53.0044 257.791 51.7844C257.761 51.5944 257.891 51.4144 258.081 51.3744C258.261 51.3444 258.421 51.4544 258.471 51.6144L258.481 51.6344C258.821 52.7144 259.271 53.8044 259.851 54.7444C260.431 55.6544 261.221 56.4944 262.151 56.4644C262.611 56.4844 263.041 56.3644 263.301 56.0344C263.591 55.7144 263.731 55.1944 263.811 54.6644C263.961 53.5944 263.861 52.4144 263.681 51.2844V51.2644C263.651 51.1044 263.771 50.9444 263.931 50.9244C264.061 50.9044 264.201 50.9944 264.251 51.1244Z" fill="#444359"/>
<path d="M278.771 48.8544C279.101 49.8344 279.281 50.8344 279.261 51.9044C279.251 52.4344 279.151 53.0144 278.811 53.5644C278.481 54.1444 277.741 54.5044 277.101 54.4744C276.431 54.4644 275.821 54.1144 275.431 53.7044C275.031 53.2844 274.721 52.8344 274.491 52.3544C274.041 51.3944 273.761 50.4144 273.621 49.3844C273.591 49.1944 273.731 49.0144 273.931 48.9844C274.101 48.9644 274.261 49.0644 274.311 49.2244L274.321 49.2444C274.611 50.1444 274.961 51.0644 275.411 51.8644C275.861 52.6444 276.471 53.3944 277.141 53.3544C277.481 53.3644 277.751 53.2644 277.931 52.9844C278.131 52.7044 278.231 52.2744 278.291 51.8244C278.391 50.9244 278.311 49.9344 278.201 48.9944V48.9744C278.181 48.8144 278.301 48.6644 278.461 48.6344C278.591 48.6344 278.731 48.7244 278.771 48.8544Z" fill="#444359"/>
<path d="M289.571 100.625C289.481 94.5245 269.701 89.6445 269.701 89.6445C268.461 91.0145 266.331 93.3245 257.361 93.3245C248.781 93.3245 245.351 91.1045 244.011 89.6445H235.521C233.631 89.6445 231.901 90.7245 231.111 92.4445C214.101 129.655 223.661 171.215 227.581 191.645C227.941 193.525 263.441 192.255 279.451 193.525C282.911 193.815 289.911 122.795 289.571 100.625Z" fill="#FEE6C6"/>
<path d="M248.261 153.244C250.021 139.024 252.172 130.494 253.822 133.294C255.282 135.774 254.472 148.214 252.282 160.214C252.292 160.214 247.511 159.334 248.261 153.244Z" fill="#FEBBA0"/>
<path d="M259.881 153.244C258.121 139.024 255.971 130.494 254.321 133.294C252.861 135.774 253.671 148.214 255.861 160.214C255.851 160.214 260.631 159.334 259.881 153.244Z" fill="#FEBBA0"/>
<path d="M318.501 149.715H296.151L299.701 172.415L259.141 152.625C259.001 151.105 258.811 149.225 258.581 147.235C257.051 147.235 255.511 147.235 253.981 147.215C253.991 148.945 254.021 150.115 254.021 150.115C254.021 150.115 253.231 160.555 255.041 164.035C258.481 170.655 293.671 191.975 303.441 194.505C304.051 194.665 304.661 194.785 305.271 194.865C314.701 196.195 320.951 190.905 320.881 181.385L318.501 149.715Z" fill="#FEBBA0"/>
<path d="M249.161 147.135C248.811 149.375 248.501 151.535 248.261 153.245L208.871 171.485L210.531 149.725H188.181L185.811 181.415C185.751 190.935 192.001 196.215 201.421 194.895C202.031 194.805 202.641 194.685 203.251 194.535C213.021 192.005 245.751 174.315 252.741 163.995C254.811 160.945 253.831 150.675 253.831 150.675C253.831 150.675 253.831 149.255 253.791 147.235C252.251 147.205 250.711 147.175 249.161 147.135Z" fill="#FEBBA0"/>
<path d="M216.251 162.135C224.991 136.285 224.921 136.265 235.651 89.6545C228.471 90.1445 227.731 88.9745 222.071 91.9145C205.091 100.735 189.101 129.705 184.391 162.135H216.251Z" fill="#FEE6C6"/>
<path d="M294.071 159.584C288.931 141.274 269.701 89.6544 269.701 89.6544C288.931 89.0044 315.171 114.074 321.451 156.234L294.071 159.584Z" fill="#FEE6C6"/>
<path d="M289.581 119.155L285.531 152.435" stroke="#EED2AD" stroke-width="1.5925" stroke-miterlimit="10" stroke-linecap="round"/>
<path d="M219.932 124.615L223.152 160.215" stroke="#EED2AD" stroke-width="1.5925" stroke-miterlimit="10" stroke-linecap="round"/>
</svg>
