<svg width="1176" height="574" viewBox="0 0 1176 574" fill="none" xmlns="http://www.w3.org/2000/svg">
<circle cx="588" cy="269" r="246" fill="#9AA2FD"/>
<circle cx="588" cy="269" r="246" fill="#949DFF"/>
<circle cx="588" cy="269" r="211" fill="#9AA2FD"/>
<circle cx="588" cy="269" r="211" fill="#99A1FF"/>
<circle cx="588" cy="269" r="177" fill="#9AA2FD"/>
<circle cx="588" cy="269" r="177" fill="#9EA6FF"/>
<path d="M677.4 78C675.829 69.7727 667.145 65.5733 663 64.5021C672.949 61.931 677.618 69.8584 678.709 74.1434C689.705 67.973 696.818 72.0009 699 74.7862C690.622 72.2152 681.109 75.8575 677.4 78Z" fill="#B4BAFF"/>
<path d="M442.8 94C441.84 89.2987 436.533 86.899 434 86.2869C440.08 84.8177 442.933 89.3477 443.6 91.7963C450.32 88.2703 454.667 90.572 456 92.1635C450.88 90.6944 445.067 92.7757 442.8 94Z" fill="#B4BAFF"/>
<circle cx="588" cy="269" r="142" fill="#A3ABFF"/>
<rect y="308" width="1176" height="266" fill="#8C96FF"/>
<path d="M726.248 115.025C678.249 101.525 685.248 142.025 695.248 142.025C699.357 142.025 707.873 143.025 718.249 143.025H749.749C789.748 143.025 801.249 140.358 801.749 139.525C805.249 113.025 784.082 115.525 772.749 118.525C774.582 108.692 772.649 88.8252 750.248 88.0252C727.848 87.2252 724.915 105.692 726.248 115.025Z" fill="#B4BAFF"/>
<path d="M388.756 39.7874C367.728 33.8992 370.795 51.5638 375.175 51.5638C376.975 51.5638 380.706 52 385.251 52H399.051C416.574 52 421.612 50.8369 421.831 50.4734C423.364 38.9151 414.092 40.0055 409.127 41.314C409.93 37.025 409.083 28.3599 399.27 28.011C389.456 27.662 388.172 35.7165 388.756 39.7874Z" fill="#A6ADFB"/>
<circle cx="420" cy="17" r="6" fill="#A6ADFB"/>
<circle cx="3" cy="3" r="3" transform="matrix(1 0 0 -1 408 6)" fill="#A6ADFB"/>
<path d="M454.084 275L378.5 308H808.5L734.998 275H454.084Z" fill="#8C96FF"/>
<path d="M569.592 191.654L555.312 214.854L582.702 247.384H610.322L636.072 214.304L620.132 191.654H569.592Z" fill="#3F4553"/>
<path d="M555.312 214.854C555.312 214.854 493.882 219.604 478.472 235.694C463.062 251.784 470.311 269.254 485.321 269.254C512.951 269.254 571.412 270.944 599.072 269.254L600.721 231.584L555.312 214.854Z" fill="#3F4553"/>
<path d="M634.481 214.054C634.481 214.054 698.811 219.604 714.221 235.694C729.631 251.784 720.752 262.444 707.372 269.254C688.542 278.844 620.671 277.254 585.471 265.604L591.981 231.584L634.481 214.054Z" fill="#3F4553"/>
<path d="M637.311 245.654L632.961 234.414L638.381 232.004C638.381 232.004 637.631 225.354 644.261 224.074C650.891 222.794 658.791 227.074 666.491 223.624C673.591 220.444 682.281 217.514 690.391 221.914C691.591 222.564 692.151 223.994 691.741 225.294L691.711 225.394C691.301 226.704 690.021 227.514 688.651 227.374C685.791 227.084 680.691 227.144 675.651 230.194C666.961 235.474 637.311 245.654 637.311 245.654Z" fill="#FEBBA0"/>
<path d="M687.921 246.294C687.921 246.294 644.991 238.664 554.561 237.484L545.831 249.324C545.831 249.324 568.331 262.184 589.451 266.834C610.571 271.484 683.481 286.124 716.041 263.574L687.921 246.294Z" fill="#3F4553"/>
<path d="M589.451 266.844C567.801 261.844 545.151 249.024 545.151 249.024L546.501 246.734" stroke="#6E758F" stroke-width="1.5925" stroke-miterlimit="10" stroke-linecap="round"/>
<path d="M554.562 237.484C554.562 237.484 653.912 235.214 680.422 250.594" stroke="#6E758F" stroke-width="1.5925" stroke-miterlimit="10" stroke-linecap="round"/>
<path d="M505.792 243.924C505.792 243.924 523.932 235.424 536.332 240.994" stroke="#6E758F" stroke-width="1.5925" stroke-miterlimit="10" stroke-linecap="round"/>
<path d="M547.921 247.364L554.551 237.264L547.921 233.674C547.921 233.674 545.601 227.864 539.101 226.064C532.591 224.274 527.961 227.164 520.551 223.124C513.721 219.394 505.281 215.804 496.861 219.554C495.621 220.104 494.941 221.484 495.251 222.814L495.271 222.914C495.581 224.254 496.791 225.154 498.161 225.124C501.031 225.054 506.121 225.514 510.901 228.954C519.151 234.894 547.921 247.364 547.921 247.364Z" fill="#FEBBA0"/>
<path d="M605.001 237.844L632.161 235.174" stroke="#6E758F" stroke-width="1.5925" stroke-miterlimit="10" stroke-linecap="round"/>
<path d="M570.461 226.074L585.611 237.044" stroke="#6E758F" stroke-width="1.5925" stroke-miterlimit="10" stroke-linecap="round"/>
<path d="M566.551 76.7844C567.191 83.0444 572.641 87.6044 578.721 86.9844C584.801 86.3644 589.211 80.7844 588.571 74.5344C587.931 68.2744 582.481 63.7144 576.401 64.3344C570.331 64.9444 565.921 70.5244 566.551 76.7844Z" fill="#3F4553"/>
<path d="M589.261 81.3343C589.261 81.3343 569.941 78.4143 566.901 60.1843C564.221 44.0743 575.031 31.1643 586.881 28.9343C586.891 28.9343 615.361 72.8143 589.261 81.3343Z" fill="#3F4553"/>
<path d="M589.701 30.6644C588.281 31.3644 586.931 32.2844 585.701 33.4744C574.691 44.0644 581.661 64.6244 591.521 73.9044C596.981 79.0344 604.961 81.4244 611.931 78.8044C622.121 74.9744 625.311 63.4344 623.241 53.1544C621.701 45.4944 617.451 38.2644 611.181 33.7644C604.911 29.2744 596.441 27.3744 589.701 30.6644Z" fill="#FDBCA0"/>
<path d="M587.871 67.7043C585.941 69.6143 582.581 70.3944 580.001 69.4844C577.421 68.5744 575.301 66.1444 574.631 63.3244C574.031 60.7944 574.681 57.9143 576.541 56.3643C578.401 54.8143 581.751 54.9143 583.341 56.9243L587.871 67.7043Z" fill="#FDBCA0"/>
<path d="M585.051 60.9844L587.081 97.3244C587.351 104.044 592.801 109.384 599.521 109.514C607.281 109.674 613.371 102.894 612.381 95.1944L608.281 61.4544L585.051 60.9844Z" fill="#FDBCA0"/>
<path d="M611.041 84.2343L610.531 79.2543C610.531 79.2543 600.531 82.3243 591.521 73.8943C591.521 73.9043 596.711 83.3743 611.041 84.2343Z" fill="#DF8370"/>
<path d="M581.081 55.4944C594.101 54.8244 605.981 46.0844 612.541 34.8244C612.541 34.8244 600.561 23.4544 583.051 30.1044C568.541 35.6044 581.081 55.4944 581.081 55.4944Z" fill="#3F4553"/>
<path d="M582.511 63.8543C581.011 64.0043 579.701 63.1943 579.581 62.0443C579.491 61.1743 580.101 60.3643 581.041 59.9443" stroke="#444359" stroke-width="1.1144" stroke-miterlimit="10" stroke-linecap="round"/>
<path d="M613.791 61.0144C614.091 60.1044 614.611 59.3844 615.191 58.7044L615.471 59.5844C614.811 59.3344 614.451 58.9544 614.081 58.5844C613.731 58.1944 613.421 57.8044 613.141 57.3844C612.581 56.5544 612.111 55.6744 611.771 54.7444C612.471 55.4544 613.111 56.1844 613.781 56.8844C614.121 57.2244 614.441 57.5744 614.791 57.8744C615.121 58.1644 615.511 58.4644 615.781 58.5344L616.591 58.7244L616.061 59.4144C615.521 60.1244 614.921 60.7844 614.091 61.2644C613.991 61.3244 613.871 61.2844 613.811 61.1944C613.781 61.1244 613.781 61.0644 613.791 61.0144Z" fill="#444359"/>
<path d="M616.722 64.1944C616.322 65.0144 615.642 65.7244 614.762 66.1544C613.892 66.6044 612.812 66.6944 611.852 66.4144C610.872 66.1444 610.112 65.5044 609.462 64.8444C609.172 64.4844 608.882 64.1144 608.642 63.7344C608.432 63.3244 608.212 62.9244 608.052 62.5044C608.422 62.7844 608.742 63.0844 609.062 63.3844L610.052 64.2044C610.752 64.6644 611.412 65.1644 612.172 65.3444C612.902 65.5744 613.682 65.5644 614.452 65.3544C615.212 65.1344 615.972 64.7044 616.722 64.1944Z" fill="#444359"/>
<path d="M606.251 51.1244C606.641 52.2844 606.861 53.4844 606.781 54.7744C606.731 55.4044 606.581 56.0944 606.111 56.7044C605.631 57.3244 604.821 57.5944 604.111 57.5744C603.381 57.5644 602.661 57.2444 602.171 56.7944C601.661 56.3444 601.261 55.8244 600.961 55.2744C600.361 54.1644 599.981 53.0044 599.791 51.7844C599.761 51.5944 599.891 51.4144 600.081 51.3744C600.261 51.3444 600.421 51.4544 600.471 51.6144L600.481 51.6344C600.821 52.7144 601.271 53.8044 601.851 54.7444C602.431 55.6544 603.221 56.4944 604.151 56.4644C604.611 56.4844 605.041 56.3644 605.301 56.0344C605.591 55.7144 605.731 55.1944 605.811 54.6644C605.961 53.5944 605.861 52.4144 605.681 51.2844V51.2644C605.651 51.1044 605.771 50.9444 605.931 50.9244C606.061 50.9044 606.201 50.9944 606.251 51.1244Z" fill="#444359"/>
<path d="M620.771 48.8544C621.101 49.8344 621.281 50.8344 621.261 51.9044C621.251 52.4344 621.151 53.0144 620.811 53.5644C620.481 54.1444 619.741 54.5044 619.101 54.4744C618.431 54.4644 617.821 54.1144 617.431 53.7044C617.031 53.2844 616.721 52.8344 616.491 52.3544C616.041 51.3944 615.761 50.4144 615.621 49.3844C615.591 49.1944 615.731 49.0144 615.931 48.9844C616.101 48.9644 616.261 49.0644 616.311 49.2244L616.321 49.2444C616.611 50.1444 616.961 51.0644 617.411 51.8644C617.861 52.6444 618.471 53.3944 619.141 53.3544C619.481 53.3644 619.751 53.2644 619.931 52.9844C620.131 52.7044 620.231 52.2744 620.291 51.8244C620.391 50.9244 620.311 49.9344 620.201 48.9944V48.9744C620.181 48.8144 620.301 48.6644 620.461 48.6344C620.591 48.6344 620.731 48.7244 620.771 48.8544Z" fill="#444359"/>
<path d="M631.571 100.625C631.481 94.5245 611.701 89.6445 611.701 89.6445C610.461 91.0145 608.331 93.3245 599.361 93.3245C590.781 93.3245 587.351 91.1045 586.011 89.6445H577.521C575.631 89.6445 573.901 90.7245 573.111 92.4445C556.101 129.655 565.661 171.215 569.581 191.645C569.941 193.525 605.441 192.255 621.451 193.525C624.911 193.815 631.911 122.795 631.571 100.625Z" fill="#FEE6C6"/>
<path d="M590.261 153.244C592.021 139.024 594.172 130.494 595.822 133.294C597.282 135.774 596.472 148.214 594.282 160.214C594.292 160.214 589.511 159.334 590.261 153.244Z" fill="#FEBBA0"/>
<path d="M601.881 153.244C600.121 139.024 597.971 130.494 596.321 133.294C594.861 135.774 595.671 148.214 597.861 160.214C597.851 160.214 602.631 159.334 601.881 153.244Z" fill="#FEBBA0"/>
<path d="M660.501 149.715H638.151L641.701 172.415L601.141 152.625C601.001 151.105 600.811 149.225 600.581 147.235C599.051 147.235 597.511 147.235 595.981 147.215C595.991 148.945 596.021 150.115 596.021 150.115C596.021 150.115 595.231 160.555 597.041 164.035C600.481 170.655 635.671 191.975 645.441 194.505C646.051 194.665 646.661 194.785 647.271 194.865C656.701 196.195 662.951 190.905 662.881 181.385L660.501 149.715Z" fill="#FEBBA0"/>
<path d="M591.161 147.135C590.811 149.375 590.501 151.535 590.261 153.245L550.871 171.485L552.531 149.725H530.181L527.811 181.415C527.751 190.935 534.001 196.215 543.421 194.895C544.031 194.805 544.641 194.685 545.251 194.535C555.021 192.005 587.751 174.315 594.741 163.995C596.811 160.945 595.831 150.675 595.831 150.675C595.831 150.675 595.831 149.255 595.791 147.235C594.251 147.205 592.711 147.175 591.161 147.135Z" fill="#FEBBA0"/>
<path d="M558.251 162.135C566.991 136.285 566.921 136.265 577.651 89.6545C570.471 90.1445 569.731 88.9745 564.071 91.9145C547.091 100.735 531.101 129.705 526.391 162.135H558.251Z" fill="#FEE6C6"/>
<path d="M636.071 159.584C630.931 141.274 611.701 89.6544 611.701 89.6544C630.931 89.0044 657.171 114.074 663.451 156.234L636.071 159.584Z" fill="#FEE6C6"/>
<path d="M631.581 119.155L627.531 152.435" stroke="#EED2AD" stroke-width="1.5925" stroke-miterlimit="10" stroke-linecap="round"/>
<path d="M561.932 124.615L565.152 160.215" stroke="#EED2AD" stroke-width="1.5925" stroke-miterlimit="10" stroke-linecap="round"/>
</svg>
