<svg width="107" height="31" viewBox="0 0 107 31" fill="none" xmlns="http://www.w3.org/2000/svg">
<g opacity="0.75">
<g clip-path="url(#clip0_319_3776)">
<path d="M35.6907 21.9998L35.6899 22.0045C35.3549 24.0785 36.011 25.6069 37.193 26.7707C38.3982 27.9575 40.1687 28.7792 42.0568 29.3404C45.828 30.4612 49.8555 30.4821 50.0957 30.4821H50.0958H50.0958H50.0959H50.0959H50.096H50.096H50.0961H50.0961H50.0962H50.0962H50.0963H50.0963H50.0964H50.0964H50.0965H50.0965H50.0966H50.0966H50.0967H50.0967H50.0968H50.0968H50.0969H50.0969H50.0969H50.097H50.097H50.0971H50.0971H50.0972H50.0972H50.0973H50.0973H50.0974H50.0974H50.0975H50.0975H50.0976H50.0976H50.0976H50.0977H50.0977H50.0978H50.0978H50.0979H50.0979H50.098H50.098H50.0981H50.0981H50.0981H50.0982H50.0982H50.0983H50.0983H50.0984H50.0984H50.0985H50.0985H50.0985H50.0986H50.0986H50.0987H50.0987H50.0988H50.0988H50.0988H50.0989H50.0989H50.099H50.099H50.0991H50.0991H50.0991H50.0992H50.0992H50.0993H50.0993H50.0994H50.0994H50.0994H50.0995H50.0995H50.0996H50.0996H50.0996H50.0997H50.0997H50.0998H50.0998H50.0998H50.0999H50.0999H50.1H50.1H50.1H50.1001H50.1001H50.1002H50.1002H50.1002H50.1003H50.1003H50.1004H50.1004H50.1004H50.1005H50.1005H50.1006H50.1006H50.1006H50.1007H50.1007H50.1007H50.1008H50.1008H50.1009H50.1009H50.1009H50.101H50.101H50.101H50.1011H50.1011H50.1012H50.1012H50.1012H50.1013H50.1013H50.1013H50.1014H50.1014H50.1014H50.1015H50.1015H50.1016H50.1016H50.1016H50.1017H50.1017H50.1017H50.1018H50.1018H50.1018H50.1019H50.1019H50.1019H50.102H50.102H50.102H50.1021H50.1021H50.1021H50.1022H50.1022H50.1022H50.1023H50.1023H50.1023H50.1024H50.1024H50.1024H50.1025H50.1025H50.1025H50.1026H50.1026H50.1026H50.1027H50.1027H50.1027H50.1028H50.1028H50.1028H50.1029H50.1029H50.1029H50.103H50.103H50.103H50.1031H50.1031H50.1031H50.1031H50.1032H50.1032H50.1032H50.1033H50.1033H50.1033H50.1034H50.1034H50.1034H50.1034H50.1035H50.1035H50.1035H50.1036H50.1036H50.1036H50.1037H50.1037H50.1037H50.1037H50.1038H50.1038H50.1038H50.1039H50.1039H50.1039H50.1039H50.104H50.104H50.104H50.1041H50.1041H50.1041H50.1041H50.1042H50.1042H50.1042H50.1042H50.1043H50.1043H50.1043H50.1044H50.1044H50.1044H50.1044H50.1045H50.1045H50.1045H50.1045H50.1046H50.1046H50.1046H50.1046H50.1047H50.1047H50.1047H50.1047H50.1048H50.1048H50.1048H50.1048H50.1049H50.1049H50.1049H50.1049H50.105H50.105H50.105H50.105H50.1051H50.1051H50.1051H50.1051H50.1052H50.1052H50.1052H50.1052H50.1052H50.1053H50.1053H50.1053H50.1053H50.1054H50.1054H50.1054H50.1054H50.1054H50.1055H50.1055H50.1055H50.1055H50.1056H50.1056H50.1056H50.1056H50.1056H50.1057H50.1057H50.1057H50.1057H50.1057H50.1058H50.1058H50.1058H50.1058H50.1059H50.1059H50.1059H50.1059H50.1059H50.106H50.106H50.106H50.106H50.106H50.106H50.1061H50.1061H50.1061H50.1061H50.1061H50.1062H50.1062H50.1062H50.1062H50.1062H50.1063H50.1063H50.1063H50.1063H50.1063H50.1063H50.1064H50.1064H50.1064H50.1064H50.1064H50.1065H50.1065H50.1065H50.1065H50.1065H50.1065H50.1066H50.1066H50.1066H50.1066H50.1066H50.1066H50.1067H50.1067H50.1067H50.1067H50.1067H50.1067H50.1067H50.1068H50.1068H50.1068H50.1068H50.1068H50.1068H50.1069H50.1069H50.1069H50.1069H50.1069H50.1069H50.1069H50.107H50.107H50.107H50.107H50.1071H50.1071H50.1071H50.1071H50.1072H50.1072H50.1072H50.1072H50.1073H50.1073H50.1073H50.1073H50.1074H50.1074H50.1074H50.1074H50.1074H50.1075H50.1075H50.1075H50.1075H50.1075H50.1076H50.1076H50.1076H50.1076H50.1076H50.1077H50.1077H50.1077H50.1077H50.1077H50.1077H50.1077H50.1078H50.1078H50.1078H50.1078H50.1078H50.1079H50.1079H50.1079H50.1079H50.1079H50.1079H50.108H50.108H50.108H50.108H50.108H50.108H50.1081H50.1081C50.3543 30.4821 54.5393 30.4602 58.3729 29.272C60.2925 28.6771 62.0647 27.8071 63.2215 26.5539C64.3522 25.329 64.9258 23.7074 64.4133 21.4868C64.4054 21.4531 64.3983 21.4223 64.3916 21.3929C64.3803 21.3438 64.3699 21.2986 64.3579 21.2499L64.3548 21.2373L64.3549 21.2373C64.3473 21.2027 64.3402 21.1734 64.3319 21.1393C64.3266 21.1171 64.3207 21.0929 64.3139 21.0639C64.2847 20.9402 64.2546 20.8163 64.224 20.6908L64.2234 20.6892L64.2153 20.6561C64.1596 20.4286 64.1032 20.2021 64.0451 19.9772L64.0447 19.9757C63.4883 17.7957 62.8116 15.6534 61.9359 13.6007L61.9358 13.6004C61.1712 11.8051 60.2049 10.1853 59.0736 8.57859C57.4058 6.21118 55.4917 3.70978 53.0904 2.26682L53.0902 2.26666C52.1875 1.72345 51.1469 1.40258 50.1505 1.49899L50.1024 1.50364L50.0542 1.49899C49.0577 1.40257 48.0163 1.7235 47.1136 2.26666L47.1134 2.26682C44.7121 3.70978 42.798 6.21118 41.1302 8.57859C39.9989 10.1852 39.0326 11.805 38.2671 13.6003C37.5598 15.262 36.981 16.9821 36.4911 18.7328L36.4898 18.7376L36.4898 18.7376C36.4825 18.7627 36.4756 18.7889 36.4668 18.8226L36.4642 18.8324L36.4641 18.8324C36.3974 19.0678 36.3333 19.3048 36.2708 19.5426C36.2686 19.5518 36.2664 19.5596 36.2645 19.5659L36.2638 19.5684C36.2308 19.693 36.1985 19.8188 36.1657 19.947L35.6907 21.9998ZM35.6907 21.9998C35.6994 21.9426 35.709 21.8848 35.7196 21.8256M35.6907 21.9998L35.7196 21.8256M35.7196 21.8256C35.7397 21.7159 35.7636 21.6029 35.7906 21.4862C35.8443 21.2555 35.899 21.0255 35.9547 20.7942C35.9907 20.6461 36.0263 20.5002 36.0627 20.3556L36.0629 20.355C36.097 20.2184 36.1309 20.0832 36.1656 19.9473L35.7196 21.8256ZM64.2142 20.6485L64.2143 20.6488L64.2142 20.6485Z" fill="url(#paint0_radial_319_3776)" stroke="white"/>
<circle cx="54.1024" cy="8.98242" r="1.5" fill="#D7D9FF" stroke="white"/>
<path d="M35.6904 21.9999L35.6897 22.0046C35.3547 24.0786 36.0108 25.607 37.1927 26.7708C38.398 27.9576 40.1685 28.7794 42.0565 29.3405C45.8278 30.4613 49.8552 30.4822 50.0955 30.4822H50.0955H50.0956H50.0956H50.0957H50.0957H50.0958H50.0958H50.0959H50.0959H50.096H50.096H50.0961H50.0961H50.0962H50.0962H50.0963H50.0963H50.0964H50.0964H50.0965H50.0965H50.0966H50.0966H50.0967H50.0967H50.0968H50.0968H50.0968H50.0969H50.0969H50.097H50.097H50.0971H50.0971H50.0972H50.0972H50.0973H50.0973H50.0974H50.0974H50.0975H50.0975H50.0975H50.0976H50.0976H50.0977H50.0977H50.0978H50.0978H50.0979H50.0979H50.0979H50.098H50.098H50.0981H50.0981H50.0982H50.0982H50.0983H50.0983H50.0983H50.0984H50.0984H50.0985H50.0985H50.0986H50.0986H50.0986H50.0987H50.0987H50.0988H50.0988H50.0989H50.0989H50.0989H50.099H50.099H50.0991H50.0991H50.0991H50.0992H50.0992H50.0993H50.0993H50.0994H50.0994H50.0994H50.0995H50.0995H50.0996H50.0996H50.0996H50.0997H50.0997H50.0998H50.0998H50.0998H50.0999H50.0999H50.1H50.1H50.1H50.1001H50.1001H50.1002H50.1002H50.1002H50.1003H50.1003H50.1003H50.1004H50.1004H50.1005H50.1005H50.1005H50.1006H50.1006H50.1006H50.1007H50.1007H50.1008H50.1008H50.1008H50.1009H50.1009H50.1009H50.101H50.101H50.1011H50.1011H50.1011H50.1012H50.1012H50.1012H50.1013H50.1013H50.1013H50.1014H50.1014H50.1015H50.1015H50.1015H50.1016H50.1016H50.1016H50.1017H50.1017H50.1017H50.1018H50.1018H50.1018H50.1019H50.1019H50.1019H50.102H50.102H50.102H50.1021H50.1021H50.1021H50.1022H50.1022H50.1022H50.1023H50.1023H50.1023H50.1024H50.1024H50.1024H50.1025H50.1025H50.1025H50.1026H50.1026H50.1026H50.1027H50.1027H50.1027H50.1027H50.1028H50.1028H50.1028H50.1029H50.1029H50.1029H50.103H50.103H50.103H50.1031H50.1031H50.1031H50.1031H50.1032H50.1032H50.1032H50.1033H50.1033H50.1033H50.1034H50.1034H50.1034H50.1034H50.1035H50.1035H50.1035H50.1036H50.1036H50.1036H50.1036H50.1037H50.1037H50.1037H50.1038H50.1038H50.1038H50.1038H50.1039H50.1039H50.1039H50.1039H50.104H50.104H50.104H50.1041H50.1041H50.1041H50.1041H50.1042H50.1042H50.1042H50.1042H50.1043H50.1043H50.1043H50.1043H50.1044H50.1044H50.1044H50.1044H50.1045H50.1045H50.1045H50.1045H50.1046H50.1046H50.1046H50.1046H50.1047H50.1047H50.1047H50.1047H50.1048H50.1048H50.1048H50.1048H50.1049H50.1049H50.1049H50.1049H50.105H50.105H50.105H50.105H50.105H50.1051H50.1051H50.1051H50.1051H50.1052H50.1052H50.1052H50.1052H50.1052H50.1053H50.1053H50.1053H50.1053H50.1054H50.1054H50.1054H50.1054H50.1054H50.1055H50.1055H50.1055H50.1055H50.1055H50.1056H50.1056H50.1056H50.1056H50.1056H50.1057H50.1057H50.1057H50.1057H50.1057H50.1058H50.1058H50.1058H50.1058H50.1058H50.1059H50.1059H50.1059H50.1059H50.1059H50.106H50.106H50.106H50.106H50.106H50.106H50.1061H50.1061H50.1061H50.1061H50.1061H50.1062H50.1062H50.1062H50.1062H50.1062H50.1062H50.1063H50.1063H50.1063H50.1063H50.1063H50.1063H50.1064H50.1064H50.1064H50.1064H50.1064H50.1064H50.1065H50.1065H50.1065H50.1065H50.1065H50.1065H50.1066H50.1066H50.1066H50.1066H50.1067H50.1067H50.1067H50.1067H50.1068H50.1068H50.1068H50.1069H50.1069H50.1069H50.1069H50.107H50.107H50.107H50.107H50.1071H50.1071H50.1071H50.1071H50.1071H50.1072H50.1072H50.1072H50.1072H50.1073H50.1073H50.1073H50.1073H50.1073H50.1073H50.1074H50.1074H50.1074H50.1074H50.1074H50.1075H50.1075H50.1075H50.1075H50.1075H50.1075H50.1076H50.1076H50.1076H50.1076H50.1076H50.1076H50.1077H50.1077H50.1077H50.1077H50.1077H50.1077H50.1078H50.1078H50.1078H50.1078H50.1078C50.3541 30.4822 54.539 30.4603 58.3726 29.2722C60.2922 28.6772 62.0645 27.8073 63.2213 26.554C64.352 25.3291 64.9256 23.7075 64.4131 21.487C64.4051 21.4531 64.3981 21.4223 64.3913 21.393C64.38 21.3439 64.3697 21.2987 64.3576 21.25L64.3545 21.2374L64.3547 21.2374C64.3471 21.2028 64.34 21.1735 64.3317 21.1394C64.3263 21.1172 64.3205 21.093 64.3136 21.064C64.2844 20.9403 64.2543 20.8164 64.2238 20.6909L64.2232 20.6893L64.215 20.6562C64.1679 20.4637 64.1203 20.2719 64.0715 20.0812C63.8925 19.8603 63.6973 19.6349 63.4868 19.4042C58.2406 13.6696 55.0882 11.351 53.2737 10.4649L35.6904 21.9999ZM35.6904 21.9999C35.6991 21.9427 35.7087 21.885 35.7194 21.8257M35.6904 21.9999L35.7194 21.8257M35.7194 21.8257C35.7395 21.716 35.7634 21.603 35.7904 21.4863C35.844 21.2556 35.8987 21.0256 35.9544 20.7943C35.9905 20.6463 36.026 20.5004 36.0625 20.3557L36.0626 20.3551C36.0968 20.2186 36.1307 20.0834 36.1654 19.9474L35.7194 21.8257ZM36.2635 19.5685C36.2305 19.6931 36.1983 19.8189 36.1655 19.9472L36.2635 19.5685ZM36.2635 19.5685L36.2643 19.566C36.2661 19.5597 36.2683 19.5519 36.2706 19.5427M36.2635 19.5685L36.2706 19.5427M36.2706 19.5427C36.3189 19.3589 36.3682 19.1755 36.4189 18.993C37.2564 18.3575 38.1705 17.6032 38.9461 16.8172C39.7197 16.0332 40.4013 15.1726 40.6973 14.3329C41.0724 13.2698 41.515 12.6984 41.9321 12.4107C42.3342 12.1334 42.7678 12.0816 43.2308 12.1795C43.7081 12.2806 44.205 12.5405 44.6745 12.8729C45.14 13.2024 45.5519 13.5839 45.8576 13.8965L45.8576 13.8965C46.423 14.4743 47.3124 14.5948 48.0066 14.1638L48.0069 14.1636C48.7399 13.7079 49.7145 12.8551 50.661 11.2758C51.2112 10.3584 52.3413 10.0101 53.2735 10.4648L36.2706 19.5427ZM64.214 20.6486L64.2141 20.649L64.214 20.6486Z" fill="#8589EB" stroke="white"/>
<path opacity="0.15" d="M35.6904 22.0002L35.6897 22.0048C35.3547 24.0788 36.0108 25.6072 37.1927 26.771C38.398 27.9578 40.1685 28.7796 42.0565 29.3407C45.8278 30.4615 49.8552 30.4824 50.0955 30.4824H50.0955H50.0956H50.0956H50.0957H50.0957H50.0958H50.0958H50.0959H50.0959H50.096H50.096H50.0961H50.0961H50.0962H50.0962H50.0963H50.0963H50.0964H50.0964H50.0965H50.0965H50.0966H50.0966H50.0967H50.0967H50.0968H50.0968H50.0968H50.0969H50.0969H50.097H50.097H50.0971H50.0971H50.0972H50.0972H50.0973H50.0973H50.0974H50.0974H50.0975H50.0975H50.0975H50.0976H50.0976H50.0977H50.0977H50.0978H50.0978H50.0979H50.0979H50.0979H50.098H50.098H50.0981H50.0981H50.0982H50.0982H50.0983H50.0983H50.0983H50.0984H50.0984H50.0985H50.0985H50.0986H50.0986H50.0986H50.0987H50.0987H50.0988H50.0988H50.0989H50.0989H50.0989H50.099H50.099H50.0991H50.0991H50.0991H50.0992H50.0992H50.0993H50.0993H50.0994H50.0994H50.0994H50.0995H50.0995H50.0996H50.0996H50.0996H50.0997H50.0997H50.0998H50.0998H50.0998H50.0999H50.0999H50.1H50.1H50.1H50.1001H50.1001H50.1002H50.1002H50.1002H50.1003H50.1003H50.1003H50.1004H50.1004H50.1005H50.1005H50.1005H50.1006H50.1006H50.1006H50.1007H50.1007H50.1008H50.1008H50.1008H50.1009H50.1009H50.1009H50.101H50.101H50.1011H50.1011H50.1011H50.1012H50.1012H50.1012H50.1013H50.1013H50.1013H50.1014H50.1014H50.1015H50.1015H50.1015H50.1016H50.1016H50.1016H50.1017H50.1017H50.1017H50.1018H50.1018H50.1018H50.1019H50.1019H50.1019H50.102H50.102H50.102H50.1021H50.1021H50.1021H50.1022H50.1022H50.1022H50.1023H50.1023H50.1023H50.1024H50.1024H50.1024H50.1025H50.1025H50.1025H50.1026H50.1026H50.1026H50.1027H50.1027H50.1027H50.1027H50.1028H50.1028H50.1028H50.1029H50.1029H50.1029H50.103H50.103H50.103H50.1031H50.1031H50.1031H50.1031H50.1032H50.1032H50.1032H50.1033H50.1033H50.1033H50.1034H50.1034H50.1034H50.1034H50.1035H50.1035H50.1035H50.1036H50.1036H50.1036H50.1036H50.1037H50.1037H50.1037H50.1038H50.1038H50.1038H50.1038H50.1039H50.1039H50.1039H50.1039H50.104H50.104H50.104H50.1041H50.1041H50.1041H50.1041H50.1042H50.1042H50.1042H50.1042H50.1043H50.1043H50.1043H50.1043H50.1044H50.1044H50.1044H50.1044H50.1045H50.1045H50.1045H50.1045H50.1046H50.1046H50.1046H50.1046H50.1047H50.1047H50.1047H50.1047H50.1048H50.1048H50.1048H50.1048H50.1049H50.1049H50.1049H50.1049H50.105H50.105H50.105H50.105H50.105H50.1051H50.1051H50.1051H50.1051H50.1052H50.1052H50.1052H50.1052H50.1052H50.1053H50.1053H50.1053H50.1053H50.1054H50.1054H50.1054H50.1054H50.1054H50.1055H50.1055H50.1055H50.1055H50.1055H50.1056H50.1056H50.1056H50.1056H50.1056H50.1057H50.1057H50.1057H50.1057H50.1057H50.1058H50.1058H50.1058H50.1058H50.1058H50.1059H50.1059H50.1059H50.1059H50.1059H50.106H50.106H50.106H50.106H50.106H50.106H50.1061H50.1061H50.1061H50.1061H50.1061H50.1062H50.1062H50.1062H50.1062H50.1062H50.1062H50.1063H50.1063H50.1063H50.1063H50.1063H50.1063H50.1064H50.1064H50.1064H50.1064H50.1064H50.1064H50.1065H50.1065H50.1065H50.1065H50.1065H50.1065H50.1066H50.1066H50.1066H50.1066H50.1066H50.1066H50.1066H50.1067H50.1067H50.1067H50.1067H50.1067H50.1067H50.1067H50.1068H50.1068H50.1068H50.1068H50.1068H50.1068H50.1068H50.1069H50.1069H50.1069H50.1069H50.1069H50.1069H50.1069H50.1069H50.107H50.107H50.107H50.107H50.107H50.107H50.107H50.107H50.1071H50.1071H50.1071H50.1071H50.1071H50.1071H50.1071H50.1071H50.1071H50.1072H50.1072H50.1072H50.1072H50.1072H50.1072H50.1072H50.1072H50.1072H50.1073H50.1073H50.1073H50.1073H50.1073H50.1073H50.1073H50.1073H50.1073H50.1073H50.1073H50.1074H50.1074H50.1074H50.1074H50.1074H50.1074H50.1074H50.1074H50.1074H50.1074H50.1074H50.1075H50.1075H50.1075H50.1075H50.1075H50.1075H50.1075H50.1075H50.1075H50.1075H50.1075H50.1076H50.1076H50.1076H50.1076H50.1076H50.1076H50.1076H50.1076H50.1076H50.1077H50.1077H50.1077H50.1077H50.1077H50.1077H50.1077H50.1077H50.1077H50.1077H50.1077H50.1078H50.1078H50.1078H50.1078H50.1078H50.1078H50.1078H50.1078H50.1078C50.3541 30.4824 54.539 30.4605 58.3726 29.2724C60.2922 28.6774 62.0645 27.8075 63.2213 26.5543C64.234 25.4572 64.7998 24.0419 64.5387 22.1631C64.4556 22.2172 64.3717 22.2689 64.2869 22.3187C64.2291 22.3527 64.1713 22.3851 64.1147 22.4158C64.1143 22.416 64.1139 22.4162 64.1135 22.4165L63.8751 21.977C63.6302 22.1115 63.3759 22.2277 63.1159 22.3315L35.6904 22.0002ZM35.6904 22.0002C35.6991 21.9429 35.7087 21.8852 35.7194 21.826C35.7395 21.7162 35.7634 21.6032 35.7904 21.4865C35.844 21.2558 35.8987 21.0259 35.9544 20.7946C35.9639 20.7557 35.9733 20.7169 35.9828 20.6783C36.5092 20.6338 37.0053 20.7826 37.4064 21.3051L37.4064 21.3052M35.6904 22.0002L37.4064 21.3052M37.4064 21.3052L37.408 21.3072M37.4064 21.3052L37.408 21.3072M37.408 21.3072C37.4714 21.389 37.538 21.4738 37.6078 21.558L37.408 21.3072Z" fill="white" stroke="white"/>
<path opacity="0.15" d="M35.6904 22.0001L35.6897 22.0047C35.3547 24.0787 36.0108 25.6072 37.1927 26.771C38.398 27.9578 40.1685 28.7795 42.0565 29.3407C45.8278 30.4614 49.8552 30.4824 50.0955 30.4824H50.0955H50.0956H50.0956H50.0957H50.0957H50.0958H50.0958H50.0959H50.0959H50.096H50.096H50.0961H50.0961H50.0962H50.0962H50.0963H50.0963H50.0964H50.0964H50.0965H50.0965H50.0966H50.0966H50.0967H50.0967H50.0968H50.0968H50.0968H50.0969H50.0969H50.097H50.097H50.0971H50.0971H50.0972H50.0972H50.0973H50.0973H50.0974H50.0974H50.0975H50.0975H50.0975H50.0976H50.0976H50.0977H50.0977H50.0978H50.0978H50.0979H50.0979H50.0979H50.098H50.098H50.0981H50.0981H50.0982H50.0982H50.0983H50.0983H50.0983H50.0984H50.0984H50.0985H50.0985H50.0986H50.0986H50.0986H50.0987H50.0987H50.0988H50.0988H50.0989H50.0989H50.0989H50.099H50.099H50.0991H50.0991H50.0991H50.0992H50.0992H50.0993H50.0993H50.0994H50.0994H50.0994H50.0995H50.0995H50.0996H50.0996H50.0996H50.0997H50.0997H50.0998H50.0998H50.0998H50.0999H50.0999H50.1H50.1H50.1H50.1001H50.1001H50.1002H50.1002H50.1002H50.1003H50.1003H50.1003H50.1004H50.1004H50.1005H50.1005H50.1005H50.1006H50.1006H50.1006H50.1007H50.1007H50.1008H50.1008H50.1008H50.1009H50.1009H50.1009H50.101H50.101H50.1011H50.1011H50.1011H50.1012H50.1012H50.1012H50.1013H50.1013H50.1013H50.1014H50.1014H50.1015H50.1015H50.1015H50.1016H50.1016H50.1016H50.1017H50.1017H50.1017H50.1018H50.1018H50.1018H50.1019H50.1019H50.1019H50.102H50.102H50.102H50.1021H50.1021H50.1021H50.1022H50.1022H50.1022H50.1023H50.1023H50.1023H50.1024H50.1024H50.1024H50.1025H50.1025H50.1025H50.1026H50.1026H50.1026H50.1027H50.1027H50.1027H50.1027H50.1028H50.1028H50.1028H50.1029H50.1029H50.1029H50.103H50.103H50.103H50.1031H50.1031H50.1031H50.1031H50.1032H50.1032H50.1032H50.1033H50.1033H50.1033H50.1034H50.1034H50.1034H50.1034H50.1035H50.1035H50.1035H50.1036H50.1036H50.1036H50.1036H50.1037H50.1037H50.1037H50.1038H50.1038H50.1038H50.1038H50.1039H50.1039H50.1039H50.1039H50.104H50.104H50.104H50.1041H50.1041H50.1041H50.1041H50.1042H50.1042H50.1042H50.1042H50.1043H50.1043H50.1043H50.1043H50.1044H50.1044H50.1044H50.1044H50.1045H50.1045H50.1045H50.1045H50.1046H50.1046H50.1046H50.1046H50.1047H50.1047H50.1047H50.1047H50.1048H50.1048H50.1048H50.1048H50.1049H50.1049H50.1049H50.1049H50.105H50.105H50.105H50.105H50.105H50.1051H50.1051H50.1051H50.1051H50.1052H50.1052H50.1052H50.1052H50.1052H50.1053H50.1053H50.1053H50.1053H50.1054H50.1054H50.1054H50.1054H50.1054H50.1055H50.1055H50.1055H50.1055H50.1055H50.1056H50.1056H50.1056H50.1056H50.1056H50.1057H50.1057H50.1057H50.1057H50.1057H50.1058H50.1058H50.1058H50.1058H50.1058H50.1059H50.1059H50.1059H50.1059H50.1059H50.106H50.106H50.106H50.106H50.106H50.106H50.1061H50.1061H50.1061H50.1061H50.1061H50.1062H50.1062H50.1062H50.1062H50.1062H50.1062H50.1063H50.1063H50.1063H50.1063H50.1063H50.1063H50.1064H50.1064H50.1064H50.1064H50.1064H50.1064H50.1065H50.1065H50.1065H50.1065H50.1065H50.1065H50.1066H50.1066H50.1066H50.1066H50.1066H50.1066H50.1066H50.1067H50.1067H50.1067H50.1067H50.1067H50.1067H50.1067H50.1068H50.1068H50.1068H50.1068H50.1068H50.1068H50.1068H50.1069H50.1069H50.1069H50.1069H50.1069H50.1069H50.1069H50.1069H50.107H50.107H50.107H50.107H50.107H50.107H50.107H50.107H50.1071H50.1071H50.1071H50.1071H50.1071H50.1071H50.1071H50.1071H50.1071H50.1072H50.1072H50.1072H50.1072H50.1072H50.1072H50.1072H50.1072H50.1072H50.1073H50.1073H50.1073H50.1073H50.1073H50.1073H50.1073H50.1073H50.1073H50.1073H50.1073H50.1074H50.1074H50.1074H50.1074H50.1074H50.1074H50.1074H50.1074H50.1074H50.1074H50.1074H50.1075H50.1075H50.1075H50.1075H50.1075H50.1075H50.1075H50.1075H50.1075H50.1075H50.1075H50.1076H50.1076H50.1076H50.1076H50.1076H50.1076H50.1076H50.1076H50.1076H50.1077H50.1077H50.1077H50.1077H50.1077H50.1077H50.1077H50.1077H50.1077H50.1077H50.1077H50.1078H50.1078H50.1078H50.1078H50.1078H50.1078H50.1078H50.1078H50.1078C50.3541 30.4824 54.539 30.4605 58.3726 29.2723C60.2922 28.6774 62.0645 27.8074 63.2213 26.5542C64.2786 25.4088 64.8487 23.9167 64.4993 21.9122C64.435 22.0196 64.3689 22.1284 64.3011 22.2386C64.1621 22.4658 64.0154 22.7002 63.8605 22.9375M35.6904 22.0001L41.7423 25.3487C43.2731 25.782 45.0126 24.9364 46.2008 24.0073L46.5086 24.4012C46.5087 24.4012 46.5087 24.4012 46.5088 24.4011C46.6581 24.2845 46.8059 24.16 46.9453 24.0427C46.9922 24.0032 47.0381 23.9645 47.0828 23.9272C47.2663 23.7742 47.4394 23.6354 47.6184 23.5146L47.6185 23.5145C48.7463 22.7525 50.0344 22.9131 51.3169 23.5765C52.6025 24.2414 53.7846 25.3698 54.5633 26.3352L54.9525 26.0213M35.6904 22.0001C35.6991 21.9428 35.7087 21.8851 35.7194 21.8259C35.7395 21.7162 35.7634 21.6032 35.7904 21.4865C35.844 21.2558 35.8987 21.0258 35.9544 20.7945C35.9905 20.6465 36.026 20.5006 36.0625 20.3559L36.0626 20.3553M35.6904 22.0001L36.0626 20.3553M63.8605 22.9375C62.8846 24.4419 61.6267 26.0942 60.2604 27.1323C59.5752 27.6529 58.8308 28.0439 58.0541 28.1602C57.2595 28.2792 56.4657 28.1047 55.7242 27.5555C55.392 27.3109 55.077 26.9947 54.779 26.6087C54.7074 26.5163 54.6354 26.4248 54.5629 26.3347L54.9525 26.0213M63.8605 22.9375C63.8603 22.9378 63.8602 22.938 63.86 22.9383L63.4414 22.6649L63.8608 22.937C63.8607 22.9372 63.8606 22.9373 63.8605 22.9375ZM54.9525 26.0213C53.3411 24.0236 50.0196 21.2889 47.3386 23.1002L63.8751 21.9769C63.7375 22.2017 63.5932 22.4323 63.4414 22.6649C61.5054 25.6494 58.5616 29.0356 56.0211 27.1532C55.7326 26.9409 55.4498 26.6593 55.1746 26.3028C55.1015 26.2087 55.0275 26.1145 54.9525 26.0213ZM36.0626 20.3553C36.0968 20.2187 36.1307 20.0835 36.1654 19.9476L36.0626 20.3553ZM36.3546 19.2276C36.5394 19.3072 36.7243 19.4157 36.9078 19.5596L36.1655 19.9473C36.1983 19.8191 36.2305 19.6932 36.2635 19.5687L36.2643 19.5662C36.2661 19.5599 36.2683 19.5521 36.2706 19.5429C36.2982 19.4376 36.3262 19.3325 36.3546 19.2276Z" fill="white" stroke="white"/>
<path opacity="0.15" d="M38.5793 21.9699L38.5781 21.9693C38.3593 21.8468 38.1343 21.7714 37.9068 21.7314C37.1264 21.5961 36.3044 21.8869 35.6557 22.2388C35.4053 24.1943 36.0557 25.6513 37.1927 26.7709C38.398 27.9577 40.1685 28.7794 42.0565 29.3406C45.8278 30.4614 49.8552 30.4823 50.0955 30.4823H50.0955H50.0956H50.0956H50.0957H50.0957H50.0958H50.0958H50.0959H50.0959H50.096H50.096H50.0961H50.0961H50.0962H50.0962H50.0963H50.0963H50.0964H50.0964H50.0965H50.0965H50.0966H50.0966H50.0967H50.0967H50.0968H50.0968H50.0968H50.0969H50.0969H50.097H50.097H50.0971H50.0971H50.0972H50.0972H50.0973H50.0973H50.0974H50.0974H50.0975H50.0975H50.0975H50.0976H50.0976H50.0977H50.0977H50.0978H50.0978H50.0979H50.0979H50.0979H50.098H50.098H50.0981H50.0981H50.0982H50.0982H50.0983H50.0983H50.0983H50.0984H50.0984H50.0985H50.0985H50.0986H50.0986H50.0986H50.0987H50.0987H50.0988H50.0988H50.0989H50.0989H50.0989H50.099H50.099H50.0991H50.0991H50.0991H50.0992H50.0992H50.0993H50.0993H50.0994H50.0994H50.0994H50.0995H50.0995H50.0996H50.0996H50.0996H50.0997H50.0997H50.0998H50.0998H50.0998H50.0999H50.0999H50.1H50.1H50.1H50.1001H50.1001H50.1002H50.1002H50.1002H50.1003H50.1003H50.1003H50.1004H50.1004H50.1005H50.1005H50.1005H50.1006H50.1006H50.1006H50.1007H50.1007H50.1008H50.1008H50.1008H50.1009H50.1009H50.1009H50.101H50.101H50.1011H50.1011H50.1011H50.1012H50.1012H50.1012H50.1013H50.1013H50.1013H50.1014H50.1014H50.1015H50.1015H50.1015H50.1016H50.1016H50.1016H50.1017H50.1017H50.1017H50.1018H50.1018H50.1018H50.1019H50.1019H50.1019H50.102H50.102H50.102H50.1021H50.1021H50.1021H50.1022H50.1022H50.1022H50.1023H50.1023H50.1023H50.1024H50.1024H50.1024H50.1025H50.1025H50.1025H50.1026H50.1026H50.1026H50.1027H50.1027H50.1027H50.1027H50.1028H50.1028H50.1028H50.1029H50.1029H50.1029H50.103H50.103H50.103H50.1031H50.1031H50.1031H50.1031H50.1032H50.1032H50.1032H50.1033H50.1033H50.1033H50.1034H50.1034H50.1034H50.1034H50.1035H50.1035H50.1035H50.1036H50.1036H50.1036H50.1036H50.1037H50.1037H50.1037H50.1038H50.1038H50.1038H50.1038H50.1039H50.1039H50.1039H50.1039H50.104H50.104H50.104H50.1041H50.1041H50.1041H50.1041H50.1042H50.1042H50.1042H50.1042H50.1043H50.1043H50.1043H50.1043H50.1044H50.1044H50.1044H50.1044H50.1045H50.1045H50.1045H50.1045H50.1046H50.1046H50.1046H50.1046H50.1047H50.1047H50.1047H50.1047H50.1048H50.1048H50.1048H50.1048H50.1049H50.1049H50.1049H50.1049H50.105H50.105H50.105H50.105H50.105H50.1051H50.1051H50.1051H50.1051H50.1052H50.1052H50.1052H50.1052H50.1052H50.1053H50.1053H50.1053H50.1053H50.1054H50.1054H50.1054H50.1054H50.1054H50.1055H50.1055H50.1055H50.1055H50.1055H50.1056H50.1056H50.1056H50.1056H50.1056H50.1057H50.1057H50.1057H50.1057H50.1057H50.1058H50.1058H50.1058H50.1058H50.1058H50.1059H50.1059H50.1059H50.1059H50.1059H50.106H50.106H50.106H50.106H50.106H50.106H50.1061H50.1061H50.1061H50.1061H50.1061H50.1062H50.1062H50.1062H50.1062H50.1062H50.1062H50.1063H50.1063H50.1063H50.1063H50.1063H50.1063H50.1064H50.1064H50.1064H50.1064H50.1064H50.1064H50.1065H50.1065H50.1065H50.1065H50.1065H50.1065H50.1066H50.1066H50.1066H50.1066H50.1066H50.1066H50.1066H50.1067H50.1067H50.1067H50.1067H50.1067H50.1067H50.1067H50.1068H50.1068H50.1068H50.1068H50.1068H50.1068H50.1068H50.1069H50.1069H50.1069H50.1069H50.1069H50.1069H50.1069H50.1069H50.107H50.107H50.107H50.107H50.107H50.107H50.107H50.107H50.1071H50.1071H50.1071H50.1071H50.1071H50.1071H50.1071H50.1071H50.1071H50.1072H50.1072H50.1072H50.1072H50.1072H50.1072H50.1072H50.1072H50.1072H50.1073H50.1073H50.1073H50.1073H50.1073H50.1073H50.1073H50.1073H50.1073H50.1073H50.1073H50.1074H50.1074H50.1074H50.1074H50.1074H50.1074H50.1074H50.1074H50.1074H50.1074H50.1074H50.1075H50.1075H50.1075H50.1075H50.1075H50.1075H50.1075H50.1075H50.1075H50.1075H50.1075H50.1076H50.1076H50.1076H50.1076H50.1076H50.1076H50.1076H50.1076H50.1076H50.1077H50.1077H50.1077H50.1077H50.1077H50.1077H50.1077H50.1077H50.1077H50.1077H50.1077H50.1078H50.1078H50.1078H50.1078H50.1078H50.1078H50.1078H50.1078H50.1078C50.3541 30.4823 54.539 30.4604 58.3726 29.2722C60.2922 28.6773 62.0645 27.8074 63.2213 26.5541C64.3452 25.3366 64.9187 23.7271 64.4222 21.527C64.2819 21.5955 64.15 21.7031 64.0358 21.8234C63.9611 21.9022 63.9026 21.9773 63.8634 22.0321C63.8439 22.0592 63.8297 22.0806 63.821 22.094L63.8178 22.0991L63.8089 22.1165C63.7964 22.1407 63.7782 22.1753 63.7545 22.2192C63.7071 22.307 63.6374 22.4323 63.5459 22.5865M38.5793 21.9699L62.5647 24.0144L62.1716 23.7055L62.5648 24.0143C63.0058 23.4532 63.3348 22.9427 63.5459 22.5865M38.5793 21.9699C38.9229 22.1609 39.2746 22.4771 39.604 22.9857L39.6042 22.9859M38.5793 21.9699L39.6042 22.9859M63.5459 22.5865L63.1159 22.3314L63.546 22.5863C63.546 22.5864 63.5459 22.5864 63.5459 22.5865ZM39.6042 22.9859C39.792 23.2754 39.9727 23.6279 40.1398 24.0538C40.347 24.5854 40.6293 25.0998 40.9959 25.5392C41.5832 26.244 42.3941 26.7601 43.435 26.8183L43.435 26.8183M39.6042 22.9859L43.435 26.8183M43.435 26.8183C45.0164 26.9065 46.4169 26.066 47.5247 25.3019L43.435 26.8183ZM56.0163 27.6531C55.4787 27.6479 54.9191 27.5783 54.3383 27.4313C53.6273 27.2514 52.9637 26.9031 52.3522 26.5374C52.0875 26.3791 51.8422 26.2241 51.6044 26.0738C51.2639 25.8587 50.9388 25.6533 50.5942 25.4619C50.0297 25.1483 49.5161 24.9361 49.0213 24.8855C48.546 24.8369 48.058 24.9342 47.5248 25.3018L56.0163 27.6531ZM56.0163 27.6531C56.0161 27.6531 56.016 27.6531 56.0159 27.6531L56.0211 27.1531L56.0163 27.6531ZM64.8004 20.9496L64.5392 21.0111L64.5383 21.0113L64.4768 21.0257L64.4743 21.0263L64.3136 21.0641C64.3205 21.0931 64.3263 21.1174 64.3317 21.1395C64.34 21.1736 64.3471 21.2029 64.3547 21.2375L64.3545 21.2375L64.3576 21.2501C64.3697 21.2989 64.38 21.344 64.3913 21.3931C64.398 21.4224 64.4051 21.453 64.413 21.4866C64.4129 21.4864 64.4129 21.4861 64.4128 21.4859L64.5778 21.4478L64.605 21.4415L64.6107 21.4402L64.6199 21.4381L64.8004 20.9496Z" fill="white" stroke="white"/>
<path opacity="0.15" d="M42.083 22.6535L41.9433 23.1336C42.4076 23.2687 42.9139 23.3304 43.435 23.3593C44.2642 23.4055 44.9912 23.1239 45.6297 22.8058C45.8549 22.6935 46.0823 22.5697 46.2997 22.4513C46.387 22.4037 46.4727 22.357 46.556 22.3123C46.8555 22.1516 47.1393 22.0079 47.423 21.8969C50.1983 20.8111 51.8751 21.1623 53.148 21.8387C53.7552 22.1613 54.2817 22.5634 54.8202 22.9747C54.8695 23.0124 54.9188 23.0501 54.9684 23.0878C55.5433 23.5257 56.1525 23.9759 56.8433 24.2423C59.2654 25.1765 61.0925 24.9018 62.4206 24.1393C62.9847 23.8154 63.4447 23.4119 63.8138 22.9986C64.0677 22.7164 64.2786 22.4288 64.4531 22.1597L64.4539 22.1584C64.4773 22.1221 64.5 22.0861 64.5221 22.0505C64.8221 23.9855 64.2541 25.4354 63.2213 26.5543C62.0645 27.8075 60.2922 28.6775 58.3726 29.2724C54.539 30.4606 50.3541 30.4825 50.1078 30.4825H50.1078H50.1078H50.1078H50.1078H50.1078H50.1078H50.1078H50.1078H50.1077H50.1077H50.1077H50.1077H50.1077H50.1077H50.1077H50.1077H50.1077H50.1077H50.1077H50.1076H50.1076H50.1076H50.1076H50.1076H50.1076H50.1076H50.1076H50.1076H50.1075H50.1075H50.1075H50.1075H50.1075H50.1075H50.1075H50.1075H50.1075H50.1075H50.1075H50.1074H50.1074H50.1074H50.1074H50.1074H50.1074H50.1074H50.1074H50.1074H50.1074H50.1074H50.1073H50.1073H50.1073H50.1073H50.1073H50.1073H50.1073H50.1073H50.1073H50.1073H50.1073H50.1072H50.1072H50.1072H50.1072H50.1072H50.1072H50.1072H50.1072H50.1072H50.1071H50.1071H50.1071H50.1071H50.1071H50.1071H50.1071H50.1071H50.1071H50.107H50.107H50.107H50.107H50.107H50.107H50.107H50.107H50.1069H50.1069H50.1069H50.1069H50.1069H50.1069H50.1069H50.1069H50.1068H50.1068H50.1068H50.1068H50.1068H50.1068H50.1068H50.1067H50.1067H50.1067H50.1067H50.1067H50.1067H50.1067H50.1066H50.1066H50.1066H50.1066H50.1066H50.1066H50.1066H50.1065H50.1065H50.1065H50.1065H50.1065H50.1065H50.1064H50.1064H50.1064H50.1064H50.1064H50.1064H50.1063H50.1063H50.1063H50.1063H50.1063H50.1063H50.1062H50.1062H50.1062H50.1062H50.1062H50.1062H50.1061H50.1061H50.1061H50.1061H50.1061H50.106H50.106H50.106H50.106H50.106H50.106H50.1059H50.1059H50.1059H50.1059H50.1059H50.1058H50.1058H50.1058H50.1058H50.1058H50.1057H50.1057H50.1057H50.1057H50.1057H50.1056H50.1056H50.1056H50.1056H50.1056H50.1055H50.1055H50.1055H50.1055H50.1055H50.1054H50.1054H50.1054H50.1054H50.1054H50.1053H50.1053H50.1053H50.1053H50.1052H50.1052H50.1052H50.1052H50.1052H50.1051H50.1051H50.1051H50.1051H50.105H50.105H50.105H50.105H50.105H50.1049H50.1049H50.1049H50.1049H50.1048H50.1048H50.1048H50.1048H50.1047H50.1047H50.1047H50.1047H50.1046H50.1046H50.1046H50.1046H50.1045H50.1045H50.1045H50.1045H50.1044H50.1044H50.1044H50.1044H50.1043H50.1043H50.1043H50.1043H50.1042H50.1042H50.1042H50.1042H50.1041H50.1041H50.1041H50.1041H50.104H50.104H50.104H50.1039H50.1039H50.1039H50.1039H50.1038H50.1038H50.1038H50.1038H50.1037H50.1037H50.1037H50.1036H50.1036H50.1036H50.1036H50.1035H50.1035H50.1035H50.1034H50.1034H50.1034H50.1034H50.1033H50.1033H50.1033H50.1032H50.1032H50.1032H50.1031H50.1031H50.1031H50.1031H50.103H50.103H50.103H50.1029H50.1029H50.1029H50.1028H50.1028H50.1028H50.1027H50.1027H50.1027H50.1027H50.1026H50.1026H50.1026H50.1025H50.1025H50.1025H50.1024H50.1024H50.1024H50.1023H50.1023H50.1023H50.1022H50.1022H50.1022H50.1021H50.1021H50.1021H50.102H50.102H50.102H50.1019H50.1019H50.1019H50.1018H50.1018H50.1018H50.1017H50.1017H50.1017H50.1016H50.1016H50.1016H50.1015H50.1015H50.1015H50.1014H50.1014H50.1013H50.1013H50.1013H50.1012H50.1012H50.1012H50.1011H50.1011H50.1011H50.101H50.101H50.1009H50.1009H50.1009H50.1008H50.1008H50.1008H50.1007H50.1007H50.1006H50.1006H50.1006H50.1005H50.1005H50.1005H50.1004H50.1004H50.1003H50.1003H50.1003H50.1002H50.1002H50.1002H50.1001H50.1001H50.1H50.1H50.1H50.0999H50.0999H50.0998H50.0998H50.0998H50.0997H50.0997H50.0996H50.0996H50.0996H50.0995H50.0995H50.0994H50.0994H50.0994H50.0993H50.0993H50.0992H50.0992H50.0991H50.0991H50.0991H50.099H50.099H50.0989H50.0989H50.0989H50.0988H50.0988H50.0987H50.0987H50.0986H50.0986H50.0986H50.0985H50.0985H50.0984H50.0984H50.0983H50.0983H50.0983H50.0982H50.0982H50.0981H50.0981H50.098H50.098H50.0979H50.0979H50.0979H50.0978H50.0978H50.0977H50.0977H50.0976H50.0976H50.0975H50.0975H50.0975H50.0974H50.0974H50.0973H50.0973H50.0972H50.0972H50.0971H50.0971H50.097H50.097H50.0969H50.0969H50.0968H50.0968H50.0968H50.0967H50.0967H50.0966H50.0966H50.0965H50.0965H50.0964H50.0964H50.0963H50.0963H50.0962H50.0962H50.0961H50.0961H50.096H50.096H50.0959H50.0959H50.0958H50.0958H50.0957H50.0957H50.0956H50.0956H50.0955H50.0955C49.8552 30.4825 45.8278 30.4616 42.0565 29.3408C40.1685 28.7796 38.398 27.9579 37.1927 26.7711C36.0108 25.6073 35.3547 24.0789 35.6897 22.0049L35.6904 22.0002C35.6991 21.943 35.7087 21.8852 35.7194 21.826C35.7395 21.7163 35.7634 21.6033 35.7904 21.4866C35.844 21.2559 35.8987 21.0259 35.9544 20.7946C35.9905 20.6466 36.026 20.5007 36.0625 20.356L36.0626 20.3554C36.0968 20.2188 36.1307 20.0835 36.1655 19.9474C36.1755 19.9081 36.1856 19.869 36.1956 19.83C36.5475 19.7433 36.9007 19.6843 37.2436 19.6657L37.244 19.6656C37.836 19.6331 38.3747 19.7215 38.8248 19.9712C39.2668 20.2164 39.6672 20.6409 39.95 21.3636C40.3395 22.3599 41.0639 22.879 41.944 23.1338L42.083 22.6535ZM42.083 22.6535C41.3229 22.4334 40.7383 22.0068 40.4156 21.1814L57.0232 23.7758C56.3545 23.5179 55.7549 23.0597 55.12 22.5745C53.4181 21.2739 51.4626 19.7796 47.2409 21.4312C46.8365 21.5895 46.4445 21.803 46.0519 22.0169C45.2309 22.4641 44.4072 22.9127 43.4629 22.8601C42.9599 22.8322 42.4958 22.7736 42.083 22.6535ZM64.7182 20.6083C64.7138 20.5901 64.7093 20.5718 64.7049 20.5536L64.7045 20.552L64.7045 20.5519C64.7035 20.5472 64.7026 20.5424 64.7007 20.5376L64.7182 20.6083ZM64.7182 20.6083L64.6808 20.5952M64.7182 20.6083L64.6808 20.5952M64.6808 20.5952L64.7183 20.6086C64.7459 20.7223 64.7735 20.8361 64.8004 20.9498M64.6808 20.5952C64.6533 20.674 64.6039 20.8028 64.5308 20.9671L64.5991 20.9971L64.8004 20.9498M64.8004 20.9498L64.5994 20.9973L64.8366 21.1016C64.8299 21.0724 64.8229 21.0434 64.8158 21.0144C64.8106 20.9929 64.8054 20.9714 64.8004 20.9498Z" fill="white" stroke="white"/>
</g>
<path d="M74.008 8.184C72.344 8.184 70.712 8.664 69.576 9.608C68.472 10.52 67.64 11.896 67.64 13.848C67.64 15.832 68.52 17.16 69.672 18.04C70.808 18.888 72.408 19.256 73.976 19.256C75.224 19.256 76.36 18.904 77.224 18.664C77.448 18.296 77.72 17.336 77.832 16.152C77.736 15.96 77.352 15.912 77.224 16.04C76.792 17.128 75.896 18.52 73.96 18.52C72.04 18.52 70.2 16.808 70.2 13.624C70.2 10.44 72.104 8.92 73.88 8.92C75.432 8.92 76.456 9.72 76.888 11.208C77 11.352 77.432 11.288 77.496 11.096C77.352 10.168 77.304 8.888 77.304 8.6C76.824 8.568 75.64 8.184 74.008 8.184ZM83.6953 16.696C83.6953 18.136 83.5993 18.248 82.8793 18.392L82.4153 18.488C82.2873 18.536 82.2873 18.952 82.4153 19.048C83.3273 19.016 84.1113 19 84.8953 19C85.3593 19 85.9673 19.064 86.5433 19.064C87.5193 19.064 88.7193 19.016 89.7273 18.664C90.7353 18.312 91.6153 17.448 91.5993 15.976C91.5833 14.424 90.5113 13.592 89.2473 13.32C89.1033 13.288 89.0233 13.24 89.0233 13.192C89.0233 13.112 89.1833 13.048 89.3433 13.016C89.8393 12.888 90.9753 12.36 90.9753 11.016C90.9753 10.072 90.5593 9.4 89.8713 8.984C89.1673 8.568 88.1433 8.392 86.6073 8.392C85.0073 8.392 83.8393 8.456 82.6233 8.536C82.3833 8.552 82.4153 9.032 82.5593 9.112L82.9913 9.176C83.6633 9.272 83.6953 9.432 83.6953 11.048V16.696ZM85.9033 9.96C85.9033 9.256 85.9193 9.128 86.6713 9.128C87.7753 9.128 88.6393 9.816 88.6393 11.208C88.6393 12.168 88.1273 13.048 86.7513 13.048C85.9193 13.048 85.9033 13.016 85.9033 12.6V9.96ZM85.9033 14.408C85.9033 13.768 85.9033 13.752 86.7833 13.752C88.3193 13.752 89.1193 14.728 89.1193 16.12C89.1193 17.416 88.4953 18.328 87.3113 18.328C86.0633 18.328 85.9033 17.544 85.9033 16.296V14.408ZM99.9475 16.696C99.9475 18.184 99.8515 18.328 99.1315 18.408L98.4115 18.488C98.2835 18.584 98.2835 18.952 98.4115 19.048C99.5315 19.016 100.364 19 101.132 19C101.852 19 102.652 19.016 103.692 19.048C103.804 18.952 103.804 18.584 103.692 18.488L103.052 18.408C102.332 18.312 102.236 18.184 102.236 16.696V9.64C102.236 9.224 102.284 9.176 102.668 9.176H103.628C104.828 9.176 105.052 9.928 105.324 10.952C105.404 11.08 105.836 11.048 105.916 10.904C105.884 9.992 105.996 8.696 106.156 8.152C106.124 8.104 106.012 8.04 105.916 8.04C105.82 8.04 105.772 8.056 105.708 8.088C105.564 8.424 105.324 8.44 104.268 8.44H98.3155C97.0995 8.44 97.0515 8.376 96.9715 8.104C96.9075 8.056 96.8275 8.04 96.7475 8.04C96.6675 8.04 96.5875 8.072 96.5235 8.12C96.4115 8.744 96.3315 9.736 95.9955 10.84C96.0915 11.048 96.3955 11.08 96.5875 10.984C97.0675 9.816 97.4035 9.176 98.5715 9.176H99.5635C99.9475 9.176 99.9475 9.256 99.9475 9.64V16.696Z" fill="white"/>
<path d="M5.28 10.84C5.28 10.04 5.296 9.304 5.328 8.936C5.296 8.808 5.184 8.76 5.104 8.76C4.992 8.76 4.384 9.064 3.68 9.272C3.04 9.448 2.288 9.624 1.632 9.72C1.504 9.816 1.52 10.2 1.664 10.28L2.4 10.376C3.104 10.472 3.168 10.712 3.168 11.768V16.936C3.168 18.216 3.072 18.376 2.288 18.44L1.632 18.488C1.488 18.584 1.504 19 1.664 19.048C2.24 19.016 3.2 19 4.256 19C5.248 19 6.208 19.016 6.784 19.048C6.944 19 6.96 18.584 6.816 18.488L6.16 18.44C5.376 18.376 5.28 18.216 5.28 16.936V10.84ZM15.6885 17.352C15.4645 17.352 15.3845 17.256 15.3845 17.16C15.3845 17.032 15.5285 16.808 16.2325 16.152L17.0005 15.432C18.9205 13.624 19.4165 12.728 19.4165 11.48C19.4165 9.976 18.2645 8.76 16.3925 8.76C14.8405 8.76 13.3685 9.64 12.7125 11.256C12.7445 11.512 13.0485 11.608 13.2405 11.48C13.7525 10.6 14.3925 10.008 15.3045 10.008C16.3765 10.008 17.0485 10.856 17.0485 11.96C17.0485 13.672 16.0565 15.016 14.9525 16.232C13.9925 17.288 13.0805 18.136 12.4725 18.696C12.4405 18.84 12.4885 19.016 12.6325 19.048C12.9045 19.016 13.5925 19 14.4245 19H16.9685C17.9925 19 18.5685 19.016 19.2085 19.048C19.4805 18.664 19.8485 17.56 19.9925 16.568C19.9285 16.36 19.5605 16.36 19.4485 16.472C18.9845 17.32 18.7925 17.352 17.6245 17.352H15.6885ZM27.713 9.768C28.497 9.768 29.025 10.344 29.025 10.936C29.025 11.656 28.641 12.136 28.353 12.376C27.713 12.904 26.417 13.432 25.777 13.672C25.633 14.04 25.825 14.376 26.145 14.44C26.545 14.072 27.073 13.768 27.729 13.768C28.865 13.768 29.601 14.792 29.601 16.216C29.601 18.184 28.145 19.096 27.457 19.096C27.233 19.096 26.961 19.016 26.769 18.728C26.625 18.52 26.273 17.88 25.697 17.88C25.057 17.88 24.737 18.328 24.737 18.76C24.737 19.576 25.601 19.896 26.465 19.896C27.329 19.896 28.785 19.608 30.161 18.616C31.441 17.672 32.001 16.504 32.001 15.352C32.001 13.816 30.753 12.824 29.313 12.872C29.105 12.872 28.993 12.744 29.169 12.664C30.913 11.912 31.185 11.256 31.185 10.6C31.185 9.528 30.209 8.76 28.641 8.76C27.201 8.76 25.937 9.496 25.297 10.792C25.297 10.984 25.521 11.16 25.745 11.096C26.225 10.376 26.945 9.768 27.713 9.768Z" fill="white"/>
</g>
<defs>
<radialGradient id="paint0_radial_319_3776" cx="0" cy="0" r="1" gradientUnits="userSpaceOnUse" gradientTransform="translate(50.1022 15.9822) scale(14.9075 15.0942)">
<stop offset="2.23767e-07" stop-color="#CFCFFA"/>
<stop offset="1" stop-color="#767FF7"/>
</radialGradient>
<clipPath id="clip0_319_3776">
<rect width="30" height="30" fill="white" transform="translate(35.1023 0.982422)"/>
</clipPath>
</defs>
</svg>
