<svg width="107" height="30" viewBox="0 0 107 30" fill="none" xmlns="http://www.w3.org/2000/svg">
<g clip-path="url(#clip0_370_4251)">
<path d="M35.6907 21.0174L35.69 21.022C35.3549 23.096 36.0111 24.6245 37.193 25.7883C38.3983 26.975 40.1688 27.7968 42.0568 28.3579C45.8281 29.4787 49.8555 29.4997 50.0958 29.4997H50.0958H50.0959H50.0959H50.096H50.096H50.0961H50.0961H50.0962H50.0962H50.0963H50.0963H50.0964H50.0964H50.0965H50.0965H50.0966H50.0966H50.0967H50.0967H50.0968H50.0968H50.0969H50.0969H50.0969H50.097H50.097H50.0971H50.0971H50.0972H50.0972H50.0973H50.0973H50.0974H50.0974H50.0975H50.0975H50.0976H50.0976H50.0976H50.0977H50.0977H50.0978H50.0978H50.0979H50.0979H50.098H50.098H50.0981H50.0981H50.0981H50.0982H50.0982H50.0983H50.0983H50.0984H50.0984H50.0985H50.0985H50.0985H50.0986H50.0986H50.0987H50.0987H50.0988H50.0988H50.0988H50.0989H50.0989H50.099H50.099H50.0991H50.0991H50.0991H50.0992H50.0992H50.0993H50.0993H50.0994H50.0994H50.0994H50.0995H50.0995H50.0996H50.0996H50.0996H50.0997H50.0997H50.0998H50.0998H50.0998H50.0999H50.0999H50.1H50.1H50.1H50.1001H50.1001H50.1002H50.1002H50.1002H50.1003H50.1003H50.1004H50.1004H50.1004H50.1005H50.1005H50.1006H50.1006H50.1006H50.1007H50.1007H50.1007H50.1008H50.1008H50.1009H50.1009H50.1009H50.101H50.101H50.1011H50.1011H50.1011H50.1012H50.1012H50.1012H50.1013H50.1013H50.1013H50.1014H50.1014H50.1015H50.1015H50.1015H50.1016H50.1016H50.1016H50.1017H50.1017H50.1017H50.1018H50.1018H50.1018H50.1019H50.1019H50.1019H50.102H50.102H50.1021H50.1021H50.1021H50.1022H50.1022H50.1022H50.1023H50.1023H50.1023H50.1024H50.1024H50.1024H50.1025H50.1025H50.1025H50.1026H50.1026H50.1026H50.1027H50.1027H50.1027H50.1028H50.1028H50.1028H50.1028H50.1029H50.1029H50.1029H50.103H50.103H50.103H50.1031H50.1031H50.1031H50.1032H50.1032H50.1032H50.1033H50.1033H50.1033H50.1033H50.1034H50.1034H50.1034H50.1035H50.1035H50.1035H50.1036H50.1036H50.1036H50.1036H50.1037H50.1037H50.1037H50.1038H50.1038H50.1038H50.1038H50.1039H50.1039H50.1039H50.104H50.104H50.104H50.104H50.1041H50.1041H50.1041H50.1042H50.1042H50.1042H50.1042H50.1043H50.1043H50.1043H50.1043H50.1044H50.1044H50.1044H50.1044H50.1045H50.1045H50.1045H50.1046H50.1046H50.1046H50.1046H50.1047H50.1047H50.1047H50.1047H50.1048H50.1048H50.1048H50.1048H50.1049H50.1049H50.1049H50.1049H50.105H50.105H50.105H50.105H50.1051H50.1051H50.1051H50.1051H50.1051H50.1052H50.1052H50.1052H50.1052H50.1053H50.1053H50.1053H50.1053H50.1054H50.1054H50.1054H50.1054H50.1054H50.1055H50.1055H50.1055H50.1055H50.1056H50.1056H50.1056H50.1056H50.1056H50.1057H50.1057H50.1057H50.1057H50.1058H50.1058H50.1058H50.1058H50.1058H50.1059H50.1059H50.1059H50.1059H50.1059H50.106H50.106H50.106H50.106H50.106H50.1061H50.1061H50.1061H50.1061H50.1061H50.1062H50.1062H50.1062H50.1062H50.1062H50.1062H50.1063H50.1063H50.1063H50.1063H50.1063H50.1064H50.1064H50.1064H50.1064H50.1064H50.1064H50.1065H50.1065H50.1065H50.1065H50.1065H50.1065H50.1066H50.1066H50.1066H50.1066H50.1066H50.1066H50.1067H50.1067H50.1067H50.1067H50.1067H50.1067H50.1068H50.1068H50.1068H50.1068H50.1068H50.1068H50.1069H50.1069H50.1069H50.1069H50.1069H50.1069H50.1069H50.107H50.107H50.107H50.107H50.107H50.107H50.1071H50.1071H50.1071H50.1072H50.1072H50.1072H50.1072H50.1073H50.1073H50.1073H50.1073H50.1074H50.1074H50.1074H50.1074H50.1074H50.1075H50.1075H50.1075H50.1075H50.1075H50.1076H50.1076H50.1076H50.1076H50.1076H50.1077H50.1077H50.1077H50.1077H50.1077H50.1077H50.1078H50.1078H50.1078H50.1078H50.1078H50.1078H50.1079H50.1079H50.1079H50.1079H50.1079H50.108H50.108H50.108H50.108H50.108H50.108H50.1081H50.1081H50.1081H50.1081H50.1081C50.3544 29.4997 54.5393 29.4778 58.3729 28.2896C60.2925 27.6947 62.0648 26.8247 63.2216 25.5715C64.3523 24.3466 64.9259 22.725 64.4134 20.5044C64.4054 20.4706 64.3984 20.4399 64.3916 20.4105C64.3803 20.3614 64.37 20.3162 64.3579 20.2675L64.3548 20.2549L64.355 20.2548C64.3474 20.2202 64.3403 20.191 64.332 20.1568C64.3266 20.1347 64.3207 20.1105 64.3139 20.0815C64.2847 19.9578 64.2546 19.8339 64.2241 19.7083L64.2234 19.7068L64.2153 19.6737C64.1596 19.4462 64.1032 19.2197 64.0451 18.9947L64.0447 18.9933C63.4884 16.8133 62.8116 14.671 61.936 12.6183L61.9358 12.618C61.1713 10.8227 60.205 9.20289 59.0737 7.59617C57.4059 5.22876 55.4918 2.72736 53.0905 1.2844L53.0902 1.28424C52.1875 0.741031 51.147 0.420157 50.1506 0.516564L50.1024 0.521223L50.0543 0.516564C49.0578 0.42015 48.0163 0.741076 47.1137 1.28424L47.1134 1.2844C44.7121 2.72736 42.798 5.22876 41.1302 7.59617C39.999 9.2028 39.0327 10.8226 38.2671 12.6179C37.5598 14.2796 36.981 15.9997 36.4912 17.7504L36.4898 17.7552L36.4898 17.7552C36.4825 17.7803 36.4757 17.8065 36.4668 17.8402L36.4643 17.85L36.4642 17.85C36.3975 18.0854 36.3334 18.3224 36.2709 18.5602C36.2686 18.5694 36.2664 18.5772 36.2646 18.5835L36.2638 18.586C36.2308 18.7106 36.1986 18.8364 36.1657 18.9646L35.6907 21.0174ZM35.6907 21.0174C35.6994 20.9601 35.709 20.9024 35.7197 20.8432M35.6907 21.0174L35.7197 20.8432M35.7197 20.8432C35.7398 20.7334 35.7637 20.6204 35.7907 20.5037C35.8443 20.273 35.899 20.043 35.9547 19.8117C35.9908 19.6637 36.0263 19.5178 36.0627 19.3732L36.0629 19.3726C36.0971 19.236 36.1309 19.1008 36.1657 18.9649L35.7197 20.8432ZM64.2143 19.6661L64.2143 19.6664L64.2143 19.6661Z" stroke="white"/>
<circle cx="54.1024" cy="8" r="1.5" stroke="white"/>
<path d="M35.6904 21.0175L35.6897 21.0222C35.3547 23.0961 36.0108 24.6246 37.1927 25.7884C38.398 26.9752 40.1685 27.7969 42.0566 28.3581C45.8278 29.4788 49.8552 29.4998 50.0955 29.4998H50.0956H50.0956H50.0957H50.0957H50.0958H50.0958H50.0959H50.0959H50.096H50.096H50.096H50.0961H50.0961H50.0962H50.0962H50.0963H50.0963H50.0964H50.0964H50.0965H50.0965H50.0966H50.0966H50.0967H50.0967H50.0968H50.0968H50.0969H50.0969H50.097H50.097H50.0971H50.0971H50.0971H50.0972H50.0972H50.0973H50.0973H50.0974H50.0974H50.0975H50.0975H50.0976H50.0976H50.0976H50.0977H50.0977H50.0978H50.0978H50.0979H50.0979H50.098H50.098H50.0981H50.0981H50.0981H50.0982H50.0982H50.0983H50.0983H50.0984H50.0984H50.0984H50.0985H50.0985H50.0986H50.0986H50.0987H50.0987H50.0987H50.0988H50.0988H50.0989H50.0989H50.099H50.099H50.099H50.0991H50.0991H50.0992H50.0992H50.0992H50.0993H50.0993H50.0994H50.0994H50.0995H50.0995H50.0995H50.0996H50.0996H50.0997H50.0997H50.0997H50.0998H50.0998H50.0999H50.0999H50.0999H50.1H50.1H50.1001H50.1001H50.1001H50.1002H50.1002H50.1002H50.1003H50.1003H50.1004H50.1004H50.1004H50.1005H50.1005H50.1006H50.1006H50.1006H50.1007H50.1007H50.1007H50.1008H50.1008H50.1009H50.1009H50.1009H50.101H50.101H50.101H50.1011H50.1011H50.1011H50.1012H50.1012H50.1013H50.1013H50.1013H50.1014H50.1014H50.1014H50.1015H50.1015H50.1015H50.1016H50.1016H50.1016H50.1017H50.1017H50.1017H50.1018H50.1018H50.1018H50.1019H50.1019H50.1019H50.102H50.102H50.1021H50.1021H50.1021H50.1022H50.1022H50.1022H50.1023H50.1023H50.1023H50.1023H50.1024H50.1024H50.1024H50.1025H50.1025H50.1025H50.1026H50.1026H50.1026H50.1027H50.1027H50.1027H50.1028H50.1028H50.1028H50.1029H50.1029H50.1029H50.1029H50.103H50.103H50.103H50.1031H50.1031H50.1031H50.1032H50.1032H50.1032H50.1033H50.1033H50.1033H50.1033H50.1034H50.1034H50.1034H50.1035H50.1035H50.1035H50.1035H50.1036H50.1036H50.1036H50.1037H50.1037H50.1037H50.1037H50.1038H50.1038H50.1038H50.1039H50.1039H50.1039H50.1039H50.104H50.104H50.104H50.104H50.1041H50.1041H50.1041H50.1041H50.1042H50.1042H50.1042H50.1043H50.1043H50.1043H50.1043H50.1044H50.1044H50.1044H50.1044H50.1045H50.1045H50.1045H50.1045H50.1046H50.1046H50.1046H50.1046H50.1047H50.1047H50.1047H50.1047H50.1048H50.1048H50.1048H50.1048H50.1049H50.1049H50.1049H50.1049H50.1049H50.105H50.105H50.105H50.105H50.1051H50.1051H50.1051H50.1051H50.1052H50.1052H50.1052H50.1052H50.1052H50.1053H50.1053H50.1053H50.1053H50.1054H50.1054H50.1054H50.1054H50.1054H50.1055H50.1055H50.1055H50.1055H50.1055H50.1056H50.1056H50.1056H50.1056H50.1056H50.1057H50.1057H50.1057H50.1057H50.1057H50.1058H50.1058H50.1058H50.1058H50.1058H50.1059H50.1059H50.1059H50.1059H50.1059H50.106H50.106H50.106H50.106H50.106H50.106H50.1061H50.1061H50.1061H50.1061H50.1061H50.1062H50.1062H50.1062H50.1062H50.1062H50.1062H50.1063H50.1063H50.1063H50.1063H50.1063H50.1063H50.1064H50.1064H50.1064H50.1064H50.1064H50.1064H50.1065H50.1065H50.1065H50.1065H50.1065H50.1065H50.1066H50.1066H50.1066H50.1066H50.1066H50.1067H50.1067H50.1067H50.1068H50.1068H50.1068H50.1068H50.1069H50.1069H50.1069H50.1069H50.107H50.107H50.107H50.107H50.1071H50.1071H50.1071H50.1071H50.1072H50.1072H50.1072H50.1072H50.1072H50.1073H50.1073H50.1073H50.1073H50.1073H50.1074H50.1074H50.1074H50.1074H50.1074H50.1075H50.1075H50.1075H50.1075H50.1075H50.1075H50.1075H50.1076H50.1076H50.1076H50.1076H50.1076H50.1077H50.1077H50.1077H50.1077H50.1077H50.1077H50.1078H50.1078H50.1078H50.1078H50.1078H50.1078C50.3541 29.4998 54.5391 29.4779 58.3726 28.2897C60.2922 27.6948 62.0645 26.8248 63.2213 25.5716C64.352 24.3467 64.9256 22.7251 64.4131 20.5045C64.4052 20.4707 64.3981 20.4399 64.3913 20.4105C64.38 20.3615 64.3697 20.3163 64.3576 20.2676L64.3545 20.255L64.3547 20.2549C64.3471 20.2203 64.34 20.1911 64.3317 20.1569C64.3263 20.1348 64.3205 20.1106 64.3136 20.0816C64.2844 19.9579 64.2543 19.834 64.2238 19.7085L64.2232 19.7069L64.2151 19.6738C64.1679 19.4813 64.1203 19.2895 64.0715 19.0987C63.8925 18.8778 63.6973 18.6525 63.4868 18.4218C58.2406 12.6871 55.0882 10.3686 53.2737 9.4825L35.6904 21.0175ZM35.6904 21.0175C35.6991 20.9603 35.7088 20.9025 35.7194 20.8433M35.6904 21.0175L35.7194 20.8433M35.7194 20.8433C35.7395 20.7336 35.7634 20.6206 35.7904 20.5038C35.8441 20.2732 35.8987 20.0432 35.9544 19.8119C35.9905 19.6639 36.0261 19.518 36.0625 19.3733L36.0626 19.3727C36.0968 19.2361 36.1307 19.1009 36.1654 18.965L35.7194 20.8433ZM36.2636 18.5861C36.2305 18.7107 36.1983 18.8365 36.1655 18.9647L36.2636 18.5861ZM36.2636 18.5861L36.2643 18.5836C36.2662 18.5773 36.2683 18.5695 36.2706 18.5603M36.2636 18.5861L36.2706 18.5603M36.2706 18.5603C36.3189 18.3764 36.3682 18.1931 36.4189 18.0105C37.2564 17.3751 38.1705 16.6208 38.9461 15.8348C39.7197 15.0507 40.4013 14.1902 40.6974 13.3505C41.0724 12.2874 41.515 11.716 41.9321 11.4283C42.3342 11.151 42.7678 11.0991 43.2308 11.1971C43.7081 11.2982 44.205 11.5581 44.6746 11.8905C45.14 12.22 45.5519 12.6015 45.8576 12.914L45.8576 12.9141C46.423 13.4919 47.3125 13.6123 48.0066 13.1814L48.0069 13.1812C48.7399 12.7255 49.7145 11.8726 50.661 10.2933C51.2112 9.37597 52.3413 9.0277 53.2736 9.48242L36.2706 18.5603ZM64.214 19.6662L64.2141 19.6666L64.214 19.6662Z" stroke="white"/>
<path opacity="0.15" d="M35.6904 21.0175L35.6897 21.0221C35.3547 23.0961 36.0108 24.6246 37.1927 25.7884C38.398 26.9752 40.1685 27.7969 42.0566 28.358C45.8278 29.4788 49.8552 29.4998 50.0955 29.4998H50.0956H50.0956H50.0957H50.0957H50.0958H50.0958H50.0959H50.0959H50.096H50.096H50.096H50.0961H50.0961H50.0962H50.0962H50.0963H50.0963H50.0964H50.0964H50.0965H50.0965H50.0966H50.0966H50.0967H50.0967H50.0968H50.0968H50.0969H50.0969H50.097H50.097H50.0971H50.0971H50.0971H50.0972H50.0972H50.0973H50.0973H50.0974H50.0974H50.0975H50.0975H50.0976H50.0976H50.0976H50.0977H50.0977H50.0978H50.0978H50.0979H50.0979H50.098H50.098H50.0981H50.0981H50.0981H50.0982H50.0982H50.0983H50.0983H50.0984H50.0984H50.0984H50.0985H50.0985H50.0986H50.0986H50.0987H50.0987H50.0987H50.0988H50.0988H50.0989H50.0989H50.099H50.099H50.099H50.0991H50.0991H50.0992H50.0992H50.0992H50.0993H50.0993H50.0994H50.0994H50.0995H50.0995H50.0995H50.0996H50.0996H50.0997H50.0997H50.0997H50.0998H50.0998H50.0999H50.0999H50.0999H50.1H50.1H50.1001H50.1001H50.1001H50.1002H50.1002H50.1002H50.1003H50.1003H50.1004H50.1004H50.1004H50.1005H50.1005H50.1006H50.1006H50.1006H50.1007H50.1007H50.1007H50.1008H50.1008H50.1009H50.1009H50.1009H50.101H50.101H50.101H50.1011H50.1011H50.1011H50.1012H50.1012H50.1013H50.1013H50.1013H50.1014H50.1014H50.1014H50.1015H50.1015H50.1015H50.1016H50.1016H50.1016H50.1017H50.1017H50.1017H50.1018H50.1018H50.1018H50.1019H50.1019H50.1019H50.102H50.102H50.1021H50.1021H50.1021H50.1022H50.1022H50.1022H50.1023H50.1023H50.1023H50.1023H50.1024H50.1024H50.1024H50.1025H50.1025H50.1025H50.1026H50.1026H50.1026H50.1027H50.1027H50.1027H50.1028H50.1028H50.1028H50.1029H50.1029H50.1029H50.1029H50.103H50.103H50.103H50.1031H50.1031H50.1031H50.1032H50.1032H50.1032H50.1033H50.1033H50.1033H50.1033H50.1034H50.1034H50.1034H50.1035H50.1035H50.1035H50.1035H50.1036H50.1036H50.1036H50.1037H50.1037H50.1037H50.1037H50.1038H50.1038H50.1038H50.1039H50.1039H50.1039H50.1039H50.104H50.104H50.104H50.104H50.1041H50.1041H50.1041H50.1041H50.1042H50.1042H50.1042H50.1043H50.1043H50.1043H50.1043H50.1044H50.1044H50.1044H50.1044H50.1045H50.1045H50.1045H50.1045H50.1046H50.1046H50.1046H50.1046H50.1047H50.1047H50.1047H50.1047H50.1048H50.1048H50.1048H50.1048H50.1049H50.1049H50.1049H50.1049H50.1049H50.105H50.105H50.105H50.105H50.1051H50.1051H50.1051H50.1051H50.1052H50.1052H50.1052H50.1052H50.1052H50.1053H50.1053H50.1053H50.1053H50.1054H50.1054H50.1054H50.1054H50.1054H50.1055H50.1055H50.1055H50.1055H50.1055H50.1056H50.1056H50.1056H50.1056H50.1056H50.1057H50.1057H50.1057H50.1057H50.1057H50.1058H50.1058H50.1058H50.1058H50.1058H50.1059H50.1059H50.1059H50.1059H50.1059H50.106H50.106H50.106H50.106H50.106H50.106H50.1061H50.1061H50.1061H50.1061H50.1061H50.1062H50.1062H50.1062H50.1062H50.1062H50.1062H50.1063H50.1063H50.1063H50.1063H50.1063H50.1063H50.1064H50.1064H50.1064H50.1064H50.1064H50.1064H50.1065H50.1065H50.1065H50.1065H50.1065H50.1065H50.1066H50.1066H50.1066H50.1066H50.1066H50.1066H50.1066H50.1067H50.1067H50.1067H50.1067H50.1067H50.1067H50.1067H50.1068H50.1068H50.1068H50.1068H50.1068H50.1068H50.1068H50.1069H50.1069H50.1069H50.1069H50.1069H50.1069H50.1069H50.1069H50.107H50.107H50.107H50.107H50.107H50.107H50.107H50.107H50.1071H50.1071H50.1071H50.1071H50.1071H50.1071H50.1071H50.1071H50.1071H50.1072H50.1072H50.1072H50.1072H50.1072H50.1072H50.1072H50.1072H50.1072H50.1073H50.1073H50.1073H50.1073H50.1073H50.1073H50.1073H50.1073H50.1073H50.1073H50.1074H50.1074H50.1074H50.1074H50.1074H50.1074H50.1074H50.1074H50.1074H50.1074H50.1074H50.1075H50.1075H50.1075H50.1075H50.1075H50.1075H50.1075H50.1075H50.1075H50.1075H50.1075H50.1075H50.1076H50.1076H50.1076H50.1076H50.1076H50.1076H50.1076H50.1076H50.1076H50.1077H50.1077H50.1077H50.1077H50.1077H50.1077H50.1077H50.1077H50.1077H50.1077H50.1078H50.1078H50.1078H50.1078H50.1078H50.1078H50.1078H50.1078H50.1078H50.1078H50.1078C50.3541 29.4998 54.5391 29.4779 58.3726 28.2897C60.2922 27.6948 62.0645 26.8248 63.2213 25.5716C64.234 24.4745 64.7998 23.0593 64.5387 21.1804C64.4556 21.2345 64.3717 21.2863 64.2869 21.336C64.2291 21.37 64.1713 21.4024 64.1147 21.4332C64.1143 21.4334 64.1139 21.4336 64.1135 21.4338L63.8751 20.9943C63.6302 21.1288 63.3759 21.2451 63.1159 21.3489L35.6904 21.0175ZM35.6904 21.0175C35.6991 20.9602 35.7088 20.9025 35.7194 20.8433C35.7395 20.7336 35.7634 20.6205 35.7904 20.5038C35.8441 20.2732 35.8987 20.0432 35.9544 19.8119C35.9639 19.773 35.9733 19.7343 35.9828 19.6956C36.5093 19.6512 37.0053 19.7999 37.4064 20.3225L37.4064 20.3225M35.6904 21.0175L37.4064 20.3225M37.4064 20.3225L37.408 20.3246M37.4064 20.3225L37.408 20.3246M37.408 20.3246C37.4714 20.4063 37.538 20.4911 37.6078 20.5753L37.408 20.3246Z" fill="white" stroke="white"/>
<path opacity="0.15" d="M35.6904 21.0179L35.6897 21.0226C35.3547 23.0966 36.0108 24.625 37.1927 25.7888C38.398 26.9756 40.1685 27.7974 42.0566 28.3585C45.8278 29.4793 49.8552 29.5002 50.0955 29.5002H50.0956H50.0956H50.0957H50.0957H50.0958H50.0958H50.0959H50.0959H50.096H50.096H50.096H50.0961H50.0961H50.0962H50.0962H50.0963H50.0963H50.0964H50.0964H50.0965H50.0965H50.0966H50.0966H50.0967H50.0967H50.0968H50.0968H50.0969H50.0969H50.097H50.097H50.0971H50.0971H50.0971H50.0972H50.0972H50.0973H50.0973H50.0974H50.0974H50.0975H50.0975H50.0976H50.0976H50.0976H50.0977H50.0977H50.0978H50.0978H50.0979H50.0979H50.098H50.098H50.0981H50.0981H50.0981H50.0982H50.0982H50.0983H50.0983H50.0984H50.0984H50.0984H50.0985H50.0985H50.0986H50.0986H50.0987H50.0987H50.0987H50.0988H50.0988H50.0989H50.0989H50.099H50.099H50.099H50.0991H50.0991H50.0992H50.0992H50.0992H50.0993H50.0993H50.0994H50.0994H50.0995H50.0995H50.0995H50.0996H50.0996H50.0997H50.0997H50.0997H50.0998H50.0998H50.0999H50.0999H50.0999H50.1H50.1H50.1001H50.1001H50.1001H50.1002H50.1002H50.1002H50.1003H50.1003H50.1004H50.1004H50.1004H50.1005H50.1005H50.1006H50.1006H50.1006H50.1007H50.1007H50.1007H50.1008H50.1008H50.1009H50.1009H50.1009H50.101H50.101H50.101H50.1011H50.1011H50.1011H50.1012H50.1012H50.1013H50.1013H50.1013H50.1014H50.1014H50.1014H50.1015H50.1015H50.1015H50.1016H50.1016H50.1016H50.1017H50.1017H50.1017H50.1018H50.1018H50.1018H50.1019H50.1019H50.1019H50.102H50.102H50.1021H50.1021H50.1021H50.1022H50.1022H50.1022H50.1023H50.1023H50.1023H50.1023H50.1024H50.1024H50.1024H50.1025H50.1025H50.1025H50.1026H50.1026H50.1026H50.1027H50.1027H50.1027H50.1028H50.1028H50.1028H50.1029H50.1029H50.1029H50.1029H50.103H50.103H50.103H50.1031H50.1031H50.1031H50.1032H50.1032H50.1032H50.1033H50.1033H50.1033H50.1033H50.1034H50.1034H50.1034H50.1035H50.1035H50.1035H50.1035H50.1036H50.1036H50.1036H50.1037H50.1037H50.1037H50.1037H50.1038H50.1038H50.1038H50.1039H50.1039H50.1039H50.1039H50.104H50.104H50.104H50.104H50.1041H50.1041H50.1041H50.1041H50.1042H50.1042H50.1042H50.1043H50.1043H50.1043H50.1043H50.1044H50.1044H50.1044H50.1044H50.1045H50.1045H50.1045H50.1045H50.1046H50.1046H50.1046H50.1046H50.1047H50.1047H50.1047H50.1047H50.1048H50.1048H50.1048H50.1048H50.1049H50.1049H50.1049H50.1049H50.1049H50.105H50.105H50.105H50.105H50.1051H50.1051H50.1051H50.1051H50.1052H50.1052H50.1052H50.1052H50.1052H50.1053H50.1053H50.1053H50.1053H50.1054H50.1054H50.1054H50.1054H50.1054H50.1055H50.1055H50.1055H50.1055H50.1055H50.1056H50.1056H50.1056H50.1056H50.1056H50.1057H50.1057H50.1057H50.1057H50.1057H50.1058H50.1058H50.1058H50.1058H50.1058H50.1059H50.1059H50.1059H50.1059H50.1059H50.106H50.106H50.106H50.106H50.106H50.106H50.1061H50.1061H50.1061H50.1061H50.1061H50.1062H50.1062H50.1062H50.1062H50.1062H50.1062H50.1063H50.1063H50.1063H50.1063H50.1063H50.1063H50.1064H50.1064H50.1064H50.1064H50.1064H50.1064H50.1065H50.1065H50.1065H50.1065H50.1065H50.1065H50.1066H50.1066H50.1066H50.1066H50.1066H50.1066H50.1066H50.1067H50.1067H50.1067H50.1067H50.1067H50.1067H50.1067H50.1068H50.1068H50.1068H50.1068H50.1068H50.1068H50.1068H50.1069H50.1069H50.1069H50.1069H50.1069H50.1069H50.1069H50.1069H50.107H50.107H50.107H50.107H50.107H50.107H50.107H50.107H50.1071H50.1071H50.1071H50.1071H50.1071H50.1071H50.1071H50.1071H50.1071H50.1072H50.1072H50.1072H50.1072H50.1072H50.1072H50.1072H50.1072H50.1072H50.1073H50.1073H50.1073H50.1073H50.1073H50.1073H50.1073H50.1073H50.1073H50.1073H50.1074H50.1074H50.1074H50.1074H50.1074H50.1074H50.1074H50.1074H50.1074H50.1074H50.1074H50.1075H50.1075H50.1075H50.1075H50.1075H50.1075H50.1075H50.1075H50.1075H50.1075H50.1075H50.1075H50.1076H50.1076H50.1076H50.1076H50.1076H50.1076H50.1076H50.1076H50.1076H50.1077H50.1077H50.1077H50.1077H50.1077H50.1077H50.1077H50.1077H50.1077H50.1077H50.1078H50.1078H50.1078H50.1078H50.1078H50.1078H50.1078H50.1078H50.1078H50.1078H50.1078C50.3541 29.5002 54.5391 29.4783 58.3726 28.2901C60.2922 27.6952 62.0645 26.8253 63.2213 25.572C64.2786 24.4266 64.8487 22.9345 64.4994 20.9301C64.435 21.0374 64.3689 21.1462 64.3011 21.2564C64.1621 21.4836 64.0154 21.7181 63.8605 21.9554M35.6904 21.0179L41.7423 24.3665C43.2731 24.7998 45.0126 23.9543 46.2008 23.0251L46.5086 23.4191C46.5087 23.419 46.5087 23.419 46.5088 23.4189C46.6581 23.3023 46.8059 23.1778 46.9453 23.0605C46.9922 23.021 47.0381 22.9823 47.0829 22.945C47.2664 22.792 47.4394 22.6532 47.6184 22.5324L47.6186 22.5323C48.7463 21.7704 50.0344 21.931 51.317 22.5943C52.6025 23.2592 53.7846 24.3876 54.5633 25.353L54.9525 25.0391M35.6904 21.0179C35.6991 20.9607 35.7088 20.9029 35.7194 20.8437C35.7395 20.734 35.7634 20.621 35.7904 20.5043C35.8441 20.2736 35.8987 20.0436 35.9544 19.8124C35.9905 19.6643 36.0261 19.5184 36.0625 19.3737L36.0626 19.3731M35.6904 21.0179L36.0626 19.3731M63.8605 21.9554C62.8846 23.4597 61.6267 25.112 60.2604 26.1501C59.5752 26.6707 58.8308 27.0617 58.0541 27.1781C57.2595 27.2971 56.4657 27.1225 55.7242 26.5734C55.392 26.3287 55.0771 26.0125 54.779 25.6265C54.7074 25.5342 54.6354 25.4426 54.5629 25.3525L54.9525 25.0391M63.8605 21.9554C63.8604 21.9556 63.8602 21.9558 63.86 21.9561L63.4414 21.6827L63.8609 21.9548C63.8607 21.955 63.8606 21.9552 63.8605 21.9554ZM54.9525 25.0391C53.3411 23.0414 50.0196 20.3067 47.3386 22.118L63.8751 20.9947C63.7375 21.2196 63.5932 21.4502 63.4414 21.6827C61.5054 24.6672 58.5616 28.0534 56.0211 26.171C55.7326 25.9587 55.4498 25.6771 55.1746 25.3206C55.1015 25.2265 55.0275 25.1323 54.9525 25.0391ZM36.0626 19.3731C36.0968 19.2365 36.1307 19.1013 36.1654 18.9654L36.0626 19.3731ZM36.3546 18.2455C36.5394 18.3251 36.7243 18.4335 36.9078 18.5774L36.1655 18.9651C36.1983 18.8369 36.2305 18.7111 36.2635 18.5865L36.2643 18.584C36.2662 18.5777 36.2683 18.5699 36.2706 18.5607C36.2983 18.4554 36.3262 18.3503 36.3546 18.2455Z" fill="white" stroke="white"/>
<path opacity="0.15" d="M38.5793 20.9877L38.5782 20.9871C38.3593 20.8647 38.1343 20.7892 37.9068 20.7492C37.1265 20.6139 36.3044 20.9048 35.6558 21.2567C35.4053 23.2122 36.0557 24.6692 37.1927 25.7887C38.398 26.9755 40.1685 27.7973 42.0566 28.3584C45.8278 29.4792 49.8552 29.5001 50.0955 29.5001H50.0956H50.0956H50.0957H50.0957H50.0958H50.0958H50.0959H50.0959H50.096H50.096H50.096H50.0961H50.0961H50.0962H50.0962H50.0963H50.0963H50.0964H50.0964H50.0965H50.0965H50.0966H50.0966H50.0967H50.0967H50.0968H50.0968H50.0969H50.0969H50.097H50.097H50.0971H50.0971H50.0971H50.0972H50.0972H50.0973H50.0973H50.0974H50.0974H50.0975H50.0975H50.0976H50.0976H50.0976H50.0977H50.0977H50.0978H50.0978H50.0979H50.0979H50.098H50.098H50.0981H50.0981H50.0981H50.0982H50.0982H50.0983H50.0983H50.0984H50.0984H50.0984H50.0985H50.0985H50.0986H50.0986H50.0987H50.0987H50.0987H50.0988H50.0988H50.0989H50.0989H50.099H50.099H50.099H50.0991H50.0991H50.0992H50.0992H50.0992H50.0993H50.0993H50.0994H50.0994H50.0995H50.0995H50.0995H50.0996H50.0996H50.0997H50.0997H50.0997H50.0998H50.0998H50.0999H50.0999H50.0999H50.1H50.1H50.1001H50.1001H50.1001H50.1002H50.1002H50.1002H50.1003H50.1003H50.1004H50.1004H50.1004H50.1005H50.1005H50.1006H50.1006H50.1006H50.1007H50.1007H50.1007H50.1008H50.1008H50.1009H50.1009H50.1009H50.101H50.101H50.101H50.1011H50.1011H50.1011H50.1012H50.1012H50.1013H50.1013H50.1013H50.1014H50.1014H50.1014H50.1015H50.1015H50.1015H50.1016H50.1016H50.1016H50.1017H50.1017H50.1017H50.1018H50.1018H50.1018H50.1019H50.1019H50.1019H50.102H50.102H50.1021H50.1021H50.1021H50.1022H50.1022H50.1022H50.1023H50.1023H50.1023H50.1023H50.1024H50.1024H50.1024H50.1025H50.1025H50.1025H50.1026H50.1026H50.1026H50.1027H50.1027H50.1027H50.1028H50.1028H50.1028H50.1029H50.1029H50.1029H50.1029H50.103H50.103H50.103H50.1031H50.1031H50.1031H50.1032H50.1032H50.1032H50.1033H50.1033H50.1033H50.1033H50.1034H50.1034H50.1034H50.1035H50.1035H50.1035H50.1035H50.1036H50.1036H50.1036H50.1037H50.1037H50.1037H50.1037H50.1038H50.1038H50.1038H50.1039H50.1039H50.1039H50.1039H50.104H50.104H50.104H50.104H50.1041H50.1041H50.1041H50.1041H50.1042H50.1042H50.1042H50.1043H50.1043H50.1043H50.1043H50.1044H50.1044H50.1044H50.1044H50.1045H50.1045H50.1045H50.1045H50.1046H50.1046H50.1046H50.1046H50.1047H50.1047H50.1047H50.1047H50.1048H50.1048H50.1048H50.1048H50.1049H50.1049H50.1049H50.1049H50.1049H50.105H50.105H50.105H50.105H50.1051H50.1051H50.1051H50.1051H50.1052H50.1052H50.1052H50.1052H50.1052H50.1053H50.1053H50.1053H50.1053H50.1054H50.1054H50.1054H50.1054H50.1054H50.1055H50.1055H50.1055H50.1055H50.1055H50.1056H50.1056H50.1056H50.1056H50.1056H50.1057H50.1057H50.1057H50.1057H50.1057H50.1058H50.1058H50.1058H50.1058H50.1058H50.1059H50.1059H50.1059H50.1059H50.1059H50.106H50.106H50.106H50.106H50.106H50.106H50.1061H50.1061H50.1061H50.1061H50.1061H50.1062H50.1062H50.1062H50.1062H50.1062H50.1062H50.1063H50.1063H50.1063H50.1063H50.1063H50.1063H50.1064H50.1064H50.1064H50.1064H50.1064H50.1064H50.1065H50.1065H50.1065H50.1065H50.1065H50.1065H50.1066H50.1066H50.1066H50.1066H50.1066H50.1066H50.1066H50.1067H50.1067H50.1067H50.1067H50.1067H50.1067H50.1067H50.1068H50.1068H50.1068H50.1068H50.1068H50.1068H50.1068H50.1069H50.1069H50.1069H50.1069H50.1069H50.1069H50.1069H50.1069H50.107H50.107H50.107H50.107H50.107H50.107H50.107H50.107H50.1071H50.1071H50.1071H50.1071H50.1071H50.1071H50.1071H50.1071H50.1071H50.1072H50.1072H50.1072H50.1072H50.1072H50.1072H50.1072H50.1072H50.1072H50.1073H50.1073H50.1073H50.1073H50.1073H50.1073H50.1073H50.1073H50.1073H50.1073H50.1074H50.1074H50.1074H50.1074H50.1074H50.1074H50.1074H50.1074H50.1074H50.1074H50.1074H50.1075H50.1075H50.1075H50.1075H50.1075H50.1075H50.1075H50.1075H50.1075H50.1075H50.1075H50.1075H50.1076H50.1076H50.1076H50.1076H50.1076H50.1076H50.1076H50.1076H50.1076H50.1077H50.1077H50.1077H50.1077H50.1077H50.1077H50.1077H50.1077H50.1077H50.1077H50.1078H50.1078H50.1078H50.1078H50.1078H50.1078H50.1078H50.1078H50.1078H50.1078H50.1078C50.3541 29.5001 54.5391 29.4782 58.3726 28.2901C60.2922 27.6951 62.0645 26.8252 63.2213 25.5719C64.3452 24.3544 64.9187 22.7449 64.4222 20.5448C64.2819 20.6134 64.15 20.7209 64.0358 20.8413C63.9611 20.92 63.9026 20.9952 63.8634 21.0499C63.8439 21.077 63.8297 21.0984 63.821 21.1119L63.8178 21.117L63.8089 21.1343C63.7964 21.1585 63.7783 21.1931 63.7545 21.237C63.7071 21.3248 63.6374 21.4501 63.5459 21.6043M38.5793 20.9877L62.5647 23.0322L62.1716 22.7233L62.5648 23.0322C63.0058 22.471 63.3348 21.9605 63.5459 21.6043M38.5793 20.9877C38.9229 21.1787 39.2746 21.4949 39.6041 22.0035L39.6042 22.0037M38.5793 20.9877L39.6042 22.0037M63.5459 21.6043L63.1159 21.3492L63.546 21.6041C63.546 21.6042 63.5459 21.6043 63.5459 21.6043ZM39.6042 22.0037C39.792 22.2933 39.9728 22.6457 40.1398 23.0716C40.347 23.6033 40.6293 24.1177 40.9959 24.557C41.5832 25.2618 42.3941 25.7779 43.435 25.8361L43.4351 25.8361M39.6042 22.0037L43.4351 25.8361M43.4351 25.8361C45.0164 25.9243 46.4169 25.0838 47.5247 24.3197L43.4351 25.8361ZM56.0163 26.6709C55.4788 26.6657 54.9192 26.5961 54.3383 26.4491C53.6273 26.2692 52.9637 25.9209 52.3522 25.5552C52.0875 25.3969 51.8422 25.2419 51.6044 25.0917C51.2639 24.8765 50.9388 24.6711 50.5942 24.4797C50.0297 24.1661 49.5161 23.9539 49.0213 23.9033C48.546 23.8547 48.0581 23.9521 47.5248 24.3197L56.0163 26.6709ZM56.0163 26.6709C56.0161 26.6709 56.016 26.6709 56.0159 26.6709L56.0211 26.171L56.0163 26.6709ZM64.8004 19.9675L64.5392 20.0289L64.5383 20.0291L64.4768 20.0435L64.4743 20.0441L64.3136 20.0819C64.3205 20.111 64.3263 20.1352 64.3317 20.1573C64.34 20.1915 64.3471 20.2207 64.3547 20.2553L64.3545 20.2553L64.3576 20.268C64.3697 20.3167 64.3801 20.3619 64.3913 20.4109C64.3981 20.4402 64.4051 20.4708 64.413 20.5044C64.4129 20.5042 64.4129 20.504 64.4128 20.5037L64.5778 20.4656L64.605 20.4593L64.6107 20.458L64.62 20.4559L64.8004 19.9675Z" fill="white" stroke="white"/>
<path opacity="0.15" d="M35.6904 21.0178L35.6897 21.0224C35.3547 23.0964 36.0108 24.6249 37.1927 25.7887C38.398 26.9754 40.1685 27.7972 42.0566 28.3583C45.8278 29.4791 49.8552 29.5001 50.0955 29.5001H50.0956H50.0956H50.0957H50.0957H50.0958H50.0958H50.0959H50.0959H50.096H50.096H50.096H50.0961H50.0961H50.0962H50.0962H50.0963H50.0963H50.0964H50.0964H50.0965H50.0965H50.0966H50.0966H50.0967H50.0967H50.0968H50.0968H50.0969H50.0969H50.097H50.097H50.097H50.0971H50.0971H50.0972H50.0972H50.0973H50.0973H50.0974H50.0974H50.0975H50.0975H50.0976H50.0976H50.0976H50.0977H50.0977H50.0978H50.0978H50.0979H50.0979H50.098H50.098H50.098H50.0981H50.0981H50.0982H50.0982H50.0983H50.0983H50.0984H50.0984H50.0984H50.0985H50.0985H50.0986H50.0986H50.0987H50.0987H50.0987H50.0988H50.0988H50.0989H50.0989H50.099H50.099H50.099H50.0991H50.0991H50.0992H50.0992H50.0992H50.0993H50.0993H50.0994H50.0994H50.0995H50.0995H50.0995H50.0996H50.0996H50.0997H50.0997H50.0997H50.0998H50.0998H50.0999H50.0999H50.0999H50.1H50.1H50.1001H50.1001H50.1001H50.1002H50.1002H50.1002H50.1003H50.1003H50.1004H50.1004H50.1004H50.1005H50.1005H50.1006H50.1006H50.1006H50.1007H50.1007H50.1007H50.1008H50.1008H50.1009H50.1009H50.1009H50.101H50.101H50.101H50.1011H50.1011H50.1011H50.1012H50.1012H50.1013H50.1013H50.1013H50.1014H50.1014H50.1014H50.1015H50.1015H50.1015H50.1016H50.1016H50.1016H50.1017H50.1017H50.1017H50.1018H50.1018H50.1018H50.1019H50.1019H50.1019H50.102H50.102H50.102H50.1021H50.1021H50.1021H50.1022H50.1022H50.1022H50.1023H50.1023H50.1023H50.1024H50.1024H50.1024H50.1025H50.1025H50.1025H50.1026H50.1026H50.1026H50.1027H50.1027H50.1027H50.1028H50.1028H50.1028H50.1029H50.1029H50.1029H50.1029H50.103H50.103H50.103H50.1031H50.1031H50.1031H50.1032H50.1032H50.1032H50.1032H50.1033H50.1033H50.1033H50.1034H50.1034H50.1034H50.1035H50.1035H50.1035H50.1035H50.1036H50.1036H50.1036H50.1037H50.1037H50.1037H50.1037H50.1038H50.1038H50.1038H50.1039H50.1039H50.1039H50.1039H50.104H50.104H50.104H50.104H50.1041H50.1041H50.1041H50.1041H50.1042H50.1042H50.1042H50.1043H50.1043H50.1043H50.1043H50.1044H50.1044H50.1044H50.1044H50.1045H50.1045H50.1045H50.1045H50.1046H50.1046H50.1046H50.1046H50.1047H50.1047H50.1047H50.1047H50.1048H50.1048H50.1048H50.1048H50.1049H50.1049H50.1049H50.1049H50.1049H50.105H50.105H50.105H50.105H50.1051H50.1051H50.1051H50.1051H50.1052H50.1052H50.1052H50.1052H50.1052H50.1053H50.1053H50.1053H50.1053H50.1053H50.1054H50.1054H50.1054H50.1054H50.1055H50.1055H50.1055H50.1055H50.1055H50.1056H50.1056H50.1056H50.1056H50.1056H50.1057H50.1057H50.1057H50.1057H50.1057H50.1058H50.1058H50.1058H50.1058H50.1058H50.1059H50.1059H50.1059H50.1059H50.1059H50.106H50.106H50.106H50.106H50.106H50.106H50.1061H50.1061H50.1061H50.1061H50.1061H50.1062H50.1062H50.1062H50.1062H50.1062H50.1062H50.1063H50.1063H50.1063H50.1063H50.1063H50.1063H50.1064H50.1064H50.1064H50.1064H50.1064H50.1064H50.1065H50.1065H50.1065H50.1065H50.1065H50.1065H50.1066H50.1066H50.1066H50.1066H50.1066H50.1066H50.1066H50.1067H50.1067H50.1067H50.1067H50.1067H50.1067H50.1067H50.1068H50.1068H50.1068H50.1068H50.1068H50.1068H50.1068H50.1069H50.1069H50.1069H50.1069H50.1069H50.1069H50.1069H50.1069H50.107H50.107H50.107H50.107H50.107H50.107H50.107H50.107H50.1071H50.1071H50.1071H50.1071H50.1071H50.1071H50.1071H50.1071H50.1071H50.1072H50.1072H50.1072H50.1072H50.1072H50.1072H50.1072H50.1072H50.1072H50.1073H50.1073H50.1073H50.1073H50.1073H50.1073H50.1073H50.1073H50.1073H50.1073H50.1074H50.1074H50.1074H50.1074H50.1074H50.1074H50.1074H50.1074H50.1074H50.1074H50.1074H50.1075H50.1075H50.1075H50.1075H50.1075H50.1075H50.1075H50.1075H50.1075H50.1075H50.1075H50.1076H50.1076H50.1076H50.1076H50.1076H50.1076H50.1076H50.1076H50.1076H50.1077H50.1077H50.1077H50.1077H50.1077H50.1077H50.1077H50.1077H50.1077H50.1077H50.1078H50.1078H50.1078H50.1078H50.1078H50.1078H50.1078H50.1078H50.1078H50.1078H50.1078C50.3541 29.5001 54.5391 29.4782 58.3726 28.29C60.2922 27.6951 62.0645 26.8251 63.2213 25.5719C64.2541 24.453 64.8221 23.0031 64.5221 21.0681C64.5 21.1037 64.4773 21.1397 64.4539 21.1759L64.4531 21.1772C64.2785 21.4465 64.0675 21.7342 63.8136 22.0165C63.4445 22.4297 62.9846 22.8331 62.4206 23.1568C61.0925 23.9194 59.2654 24.1941 56.8433 23.2599C56.1525 22.9935 55.5433 22.5432 54.9684 22.1054C54.9189 22.0677 54.8695 22.0299 54.8202 21.9923C54.2817 21.581 53.7552 21.1789 53.148 20.8562C51.8751 20.1799 50.1983 19.8287 47.4231 20.9144C47.1393 21.0255 46.8555 21.1692 46.556 21.3299C46.4727 21.3746 46.387 21.4213 46.2998 21.4688C46.0823 21.5873 45.855 21.7111 45.6297 21.8234C44.9913 22.1414 44.2642 22.4231 43.4351 22.3769C42.9139 22.348 42.4077 22.2862 41.9434 22.1511L42.083 21.6711M35.6904 21.0178L39.95 20.3812C40.3395 21.3775 41.0639 21.8966 41.944 22.1513L42.083 21.6711M35.6904 21.0178C35.6991 20.9605 35.7088 20.9028 35.7194 20.8436M35.6904 21.0178L35.7194 20.8436M42.083 21.6711C41.3229 21.451 40.7383 21.0244 40.4156 20.199C39.776 18.5645 38.5262 18.1119 37.2165 18.184L57.0233 22.7934C56.3545 22.5355 55.7549 22.0773 55.12 21.5921C53.4181 20.2915 51.4627 18.7972 47.2409 20.4488C46.8365 20.607 46.4445 20.8206 46.0519 21.0344C45.2309 21.4817 44.4073 21.9303 43.4629 21.8776C42.9599 21.8498 42.4959 21.7912 42.083 21.6711ZM35.7194 20.8436C35.7395 20.7339 35.7634 20.6209 35.7904 20.5042C35.8441 20.2735 35.8987 20.0435 35.9544 19.8122C35.9905 19.6642 36.0261 19.5182 36.0625 19.3736L36.0626 19.373C36.0968 19.2364 36.1307 19.1012 36.1654 18.9653L35.7194 20.8436ZM64.8004 19.9674L64.5991 20.0147L64.5309 19.9847L64.5986 20.0148L64.5079 20.0362C64.5158 20.0187 64.5235 20.0015 64.5308 19.9847C64.6039 19.8204 64.6533 19.6916 64.6808 19.6128C64.6864 19.5971 64.6911 19.5835 64.6951 19.5719C64.6952 19.5717 64.6952 19.5716 64.6953 19.5714C64.6973 19.5655 64.6991 19.56 64.7007 19.5552C64.7026 19.56 64.7036 19.5648 64.7045 19.5696C64.7091 19.5884 64.7136 19.6071 64.7182 19.6259L64.6808 19.6128L64.7183 19.6262C64.7459 19.7399 64.7735 19.8536 64.8004 19.9674ZM64.8004 19.9674L64.5994 20.0149L64.8366 20.1192C64.8299 20.09 64.8229 20.061 64.8158 20.0319C64.8106 20.0105 64.8054 19.989 64.8004 19.9674ZM36.1956 18.8476C36.1856 18.8866 36.1755 18.9257 36.1655 18.965L36.1956 18.8476ZM36.1956 18.8476C36.5476 18.7609 36.9008 18.7018 37.2436 18.6832L37.244 18.6832C37.836 18.6506 38.3747 18.7391 38.8248 18.9888C39.2668 19.2339 39.6671 19.6584 39.95 20.381L36.1956 18.8476ZM64.5078 20.0365L64.5989 20.015L64.837 20.1208C64.839 20.1299 64.8411 20.139 64.8431 20.148C64.8559 20.2 64.868 20.2524 64.88 20.3047L64.5078 20.0365Z" fill="white" stroke="white"/>
</g>
<path d="M74.008 7.20158C72.344 7.20158 70.712 7.68158 69.576 8.62558C68.472 9.53758 67.64 10.9136 67.64 12.8656C67.64 14.8496 68.52 16.1776 69.672 17.0576C70.808 17.9056 72.408 18.2736 73.976 18.2736C75.224 18.2736 76.36 17.9216 77.224 17.6816C77.448 17.3136 77.72 16.3536 77.832 15.1696C77.736 14.9776 77.352 14.9296 77.224 15.0576C76.792 16.1456 75.896 17.5376 73.96 17.5376C72.04 17.5376 70.2 15.8256 70.2 12.6416C70.2 9.45758 72.104 7.93758 73.88 7.93758C75.432 7.93758 76.456 8.73758 76.888 10.2256C77 10.3696 77.432 10.3056 77.496 10.1136C77.352 9.18558 77.304 7.90558 77.304 7.61758C76.824 7.58558 75.64 7.20158 74.008 7.20158ZM83.6953 15.7136C83.6953 17.1536 83.5993 17.2656 82.8793 17.4096L82.4153 17.5056C82.2873 17.5536 82.2873 17.9696 82.4153 18.0656C83.3273 18.0336 84.1113 18.0176 84.8953 18.0176C85.3593 18.0176 85.9673 18.0816 86.5433 18.0816C87.5193 18.0816 88.7193 18.0336 89.7273 17.6816C90.7353 17.3296 91.6153 16.4656 91.5993 14.9936C91.5833 13.4416 90.5113 12.6096 89.2473 12.3376C89.1033 12.3056 89.0233 12.2576 89.0233 12.2096C89.0233 12.1296 89.1833 12.0656 89.3433 12.0336C89.8393 11.9056 90.9753 11.3776 90.9753 10.0336C90.9753 9.08958 90.5593 8.41758 89.8713 8.00158C89.1673 7.58558 88.1433 7.40958 86.6073 7.40958C85.0073 7.40958 83.8393 7.47358 82.6233 7.55358C82.3833 7.56958 82.4153 8.04958 82.5593 8.12958L82.9913 8.19358C83.6633 8.28958 83.6953 8.44958 83.6953 10.0656V15.7136ZM85.9033 8.97758C85.9033 8.27358 85.9193 8.14558 86.6713 8.14558C87.7753 8.14558 88.6393 8.83358 88.6393 10.2256C88.6393 11.1856 88.1273 12.0656 86.7513 12.0656C85.9193 12.0656 85.9033 12.0336 85.9033 11.6176V8.97758ZM85.9033 13.4256C85.9033 12.7856 85.9033 12.7696 86.7833 12.7696C88.3193 12.7696 89.1193 13.7456 89.1193 15.1376C89.1193 16.4336 88.4953 17.3456 87.3113 17.3456C86.0633 17.3456 85.9033 16.5616 85.9033 15.3136V13.4256ZM99.9475 15.7136C99.9475 17.2016 99.8515 17.3456 99.1315 17.4256L98.4115 17.5056C98.2835 17.6016 98.2835 17.9696 98.4115 18.0656C99.5315 18.0336 100.364 18.0176 101.132 18.0176C101.852 18.0176 102.652 18.0336 103.692 18.0656C103.804 17.9696 103.804 17.6016 103.692 17.5056L103.052 17.4256C102.332 17.3296 102.236 17.2016 102.236 15.7136V8.65758C102.236 8.24158 102.284 8.19358 102.668 8.19358H103.628C104.828 8.19358 105.052 8.94558 105.324 9.96958C105.404 10.0976 105.836 10.0656 105.916 9.92158C105.884 9.00958 105.996 7.71358 106.156 7.16958C106.124 7.12158 106.012 7.05758 105.916 7.05758C105.82 7.05758 105.772 7.07358 105.708 7.10558C105.564 7.44158 105.324 7.45758 104.268 7.45758H98.3155C97.0995 7.45758 97.0515 7.39358 96.9715 7.12158C96.9075 7.07358 96.8275 7.05758 96.7475 7.05758C96.6675 7.05758 96.5875 7.08958 96.5235 7.13758C96.4115 7.76158 96.3315 8.75358 95.9955 9.85758C96.0915 10.0656 96.3955 10.0976 96.5875 10.0016C97.0675 8.83358 97.4035 8.19358 98.5715 8.19358H99.5635C99.9475 8.19358 99.9475 8.27358 99.9475 8.65758V15.7136Z" fill="white"/>
<path d="M5.28 9.85758C5.28 9.05758 5.296 8.32158 5.328 7.95358C5.296 7.82558 5.184 7.77758 5.104 7.77758C4.992 7.77758 4.384 8.08158 3.68 8.28958C3.04 8.46558 2.288 8.64158 1.632 8.73758C1.504 8.83358 1.52 9.21758 1.664 9.29758L2.4 9.39358C3.104 9.48958 3.168 9.72958 3.168 10.7856V15.9536C3.168 17.2336 3.072 17.3936 2.288 17.4576L1.632 17.5056C1.488 17.6016 1.504 18.0176 1.664 18.0656C2.24 18.0336 3.2 18.0176 4.256 18.0176C5.248 18.0176 6.208 18.0336 6.784 18.0656C6.944 18.0176 6.96 17.6016 6.816 17.5056L6.16 17.4576C5.376 17.3936 5.28 17.2336 5.28 15.9536V9.85758ZM15.6885 16.3696C15.4645 16.3696 15.3845 16.2736 15.3845 16.1776C15.3845 16.0496 15.5285 15.8256 16.2325 15.1696L17.0005 14.4496C18.9205 12.6416 19.4165 11.7456 19.4165 10.4976C19.4165 8.99358 18.2645 7.77758 16.3925 7.77758C14.8405 7.77758 13.3685 8.65758 12.7125 10.2736C12.7445 10.5296 13.0485 10.6256 13.2405 10.4976C13.7525 9.61758 14.3925 9.02558 15.3045 9.02558C16.3765 9.02558 17.0485 9.87358 17.0485 10.9776C17.0485 12.6896 16.0565 14.0336 14.9525 15.2496C13.9925 16.3056 13.0805 17.1536 12.4725 17.7136C12.4405 17.8576 12.4885 18.0336 12.6325 18.0656C12.9045 18.0336 13.5925 18.0176 14.4245 18.0176H16.9685C17.9925 18.0176 18.5685 18.0336 19.2085 18.0656C19.4805 17.6816 19.8485 16.5776 19.9925 15.5856C19.9285 15.3776 19.5605 15.3776 19.4485 15.4896C18.9845 16.3376 18.7925 16.3696 17.6245 16.3696H15.6885ZM27.713 8.78558C28.497 8.78558 29.025 9.36158 29.025 9.95358C29.025 10.6736 28.641 11.1536 28.353 11.3936C27.713 11.9216 26.417 12.4496 25.777 12.6896C25.633 13.0576 25.825 13.3936 26.145 13.4576C26.545 13.0896 27.073 12.7856 27.729 12.7856C28.865 12.7856 29.601 13.8096 29.601 15.2336C29.601 17.2016 28.145 18.1136 27.457 18.1136C27.233 18.1136 26.961 18.0336 26.769 17.7456C26.625 17.5376 26.273 16.8976 25.697 16.8976C25.057 16.8976 24.737 17.3456 24.737 17.7776C24.737 18.5936 25.601 18.9136 26.465 18.9136C27.329 18.9136 28.785 18.6256 30.161 17.6336C31.441 16.6896 32.001 15.5216 32.001 14.3696C32.001 12.8336 30.753 11.8416 29.313 11.8896C29.105 11.8896 28.993 11.7616 29.169 11.6816C30.913 10.9296 31.185 10.2736 31.185 9.61758C31.185 8.54558 30.209 7.77758 28.641 7.77758C27.201 7.77758 25.937 8.51358 25.297 9.80958C25.297 10.0016 25.521 10.1776 25.745 10.1136C26.225 9.39358 26.945 8.78558 27.713 8.78558Z" fill="white"/>
<defs>
<clipPath id="clip0_370_4251">
<rect width="30" height="30" fill="white" transform="translate(35.1023)"/>
</clipPath>
</defs>
</svg>
