<svg width="109" height="31" viewBox="0 0 109 31" fill="none" xmlns="http://www.w3.org/2000/svg">
<g clip-path="url(#clip0_319_3902)">
<path d="M51.1083 30.9821C51.1083 30.9821 51.1045 30.9821 51.0959 30.9821C50.5948 30.9821 34.7464 30.9014 36.1965 21.9247C36.206 21.8623 36.2164 21.7998 36.2278 21.7364C36.2497 21.6172 36.2753 21.4962 36.3037 21.3732C36.3578 21.1406 36.4129 20.9091 36.4689 20.6765C36.5049 20.5285 36.541 20.3806 36.578 20.2336C36.6122 20.0971 36.6463 19.9607 36.6815 19.8233C36.7147 19.6935 36.7479 19.5638 36.782 19.4351C36.783 19.4302 36.7849 19.4264 36.7858 19.4216C36.8494 19.1795 36.9149 18.9373 36.9832 18.6961C36.9918 18.6635 37.0003 18.6308 37.0098 18.5981C37.5042 16.831 38.0898 15.0899 38.8072 13.4045C39.5902 11.5682 40.5762 9.91742 41.7216 8.29063C43.3862 5.9278 45.3535 3.34204 47.856 1.83825C48.8221 1.25691 49.9704 0.891768 51.1026 1.00131C52.2347 0.891768 53.3821 1.25691 54.3482 1.83825C56.8507 3.34204 58.818 5.9278 60.4825 8.29063C61.628 9.91742 62.614 11.5682 63.396 13.4045C64.2843 15.4867 64.9685 17.6545 65.5294 19.8521C65.5882 20.0798 65.6451 20.3085 65.7011 20.5372C65.703 20.542 65.704 20.5468 65.7049 20.5516C65.7372 20.6842 65.7695 20.8168 65.8008 20.9494C65.815 21.01 65.8302 21.0695 65.8435 21.1301C65.8634 21.2108 65.8814 21.2925 65.9004 21.3732C68.1002 30.8985 51.6198 30.9821 51.1083 30.9821Z" fill="url(#paint0_radial_319_3902)"/>
<circle cx="55.1025" cy="8.98242" r="2" fill="#D7D9FF"/>
<path d="M51.108 30.9822C51.108 30.9822 51.1042 30.9822 51.0957 30.9822C50.5946 30.9822 34.7462 30.9015 36.1963 21.9248C36.2058 21.8624 36.2162 21.7999 36.2276 21.7365C36.2494 21.6174 36.275 21.4963 36.3035 21.3733C36.3576 21.1408 36.4126 20.9092 36.4686 20.6766C36.5047 20.5287 36.5408 20.3807 36.5778 20.2337C36.6119 20.0972 36.6461 19.9608 36.6812 19.8234C36.7144 19.6936 36.7476 19.5639 36.7818 19.4352C36.7828 19.4304 36.7846 19.4265 36.7856 19.4217C36.8492 19.1796 36.9147 18.9374 36.983 18.6962C37.0181 18.6693 37.0542 18.6424 37.0893 18.6155C38.7595 17.351 40.7097 15.631 41.226 14.1666C42.8042 9.69269 45.9407 12.2439 47.2152 13.5468C47.6204 13.961 48.2524 14.0436 48.7431 13.739C49.4045 13.3277 50.3241 12.534 51.2323 11.0187C51.9099 9.88871 53.3173 9.4419 54.4931 10.0155C56.394 10.9438 59.5978 13.3191 64.8563 19.0671C65.0992 19.3333 65.3241 19.5947 65.5291 19.8522C65.588 20.0799 65.6449 20.3086 65.7009 20.5373C65.7028 20.5421 65.7037 20.5469 65.7047 20.5517C65.7369 20.6843 65.7692 20.8169 65.8005 20.9495C65.8148 21.0101 65.83 21.0696 65.8432 21.1302C65.8632 21.2109 65.8812 21.2926 65.9002 21.3733C68.1 30.8986 51.6195 30.9822 51.108 30.9822Z" fill="#8589EB"/>
<path opacity="0.15" d="M51.108 30.9824C51.108 30.9824 51.1042 30.9824 51.0957 30.9824C50.5946 30.9824 34.7462 30.9017 36.1963 21.9251C36.2058 21.8626 36.2162 21.8001 36.2276 21.7367C36.2494 21.6176 36.275 21.4965 36.3035 21.3735C36.3576 21.141 36.4126 20.9094 36.4686 20.6769C36.5047 20.5289 36.5408 20.3809 36.5778 20.2339C37.3398 20.0753 38.174 20.181 38.8032 21.0007C38.8658 21.0814 38.9285 21.1612 38.993 21.239C39.3242 21.6387 39.6867 21.9933 40.091 22.2662C40.3795 22.4612 40.6889 22.615 41.0239 22.714C41.6217 22.8917 42.3012 22.8956 43.0832 22.6534C44.0616 22.3517 45.2014 21.6647 46.5471 20.4491C50.5823 16.8045 56.2535 19.4546 58.1069 21.8847C59.2685 23.4068 61.6923 23.0801 63.28 22.6159C63.5637 22.5333 63.8437 22.4401 64.116 22.3315C64.3761 22.2277 64.6304 22.1115 64.8753 21.977C64.9284 21.9481 64.9815 21.9183 65.0337 21.8876C65.178 21.803 65.3184 21.7127 65.456 21.6147C65.5823 21.5244 65.7094 21.4244 65.7816 21.2861C65.8081 21.2371 65.8262 21.1842 65.8432 21.1304C65.8632 21.2111 65.8812 21.2928 65.9002 21.3735C68.1 30.8988 51.6195 30.9824 51.108 30.9824Z" fill="white"/>
<path opacity="0.15" d="M51.108 30.9824C51.108 30.9824 51.1042 30.9824 51.0957 30.9824C50.5946 30.9824 34.7462 30.9017 36.1963 21.925C36.2058 21.8625 36.2162 21.8001 36.2276 21.7367C36.2494 21.6175 36.275 21.4964 36.3035 21.3734C36.3576 21.1409 36.4126 20.9093 36.4686 20.6768C36.5047 20.5288 36.5408 20.3808 36.5778 20.2338C36.6119 20.0974 36.6461 19.9609 36.6812 19.8235C36.7144 19.6938 36.7476 19.5641 36.7818 19.4353C36.7828 19.4305 36.7846 19.4267 36.7856 19.4219C36.8492 19.1797 36.9147 18.9376 36.983 18.6964C36.9915 18.6637 37.0001 18.6311 37.0096 18.5984C37.0361 18.6042 37.0627 18.6099 37.0893 18.6157C37.4708 18.705 37.8504 18.879 38.2167 19.1663C38.8032 19.6265 39.3555 20.377 39.8224 21.533C39.9012 21.7271 39.9781 21.9336 40.0511 22.1518C40.0644 22.1902 40.0768 22.2277 40.091 22.2661C40.5076 23.4567 41.2013 24.7049 42.38 25.2189C42.4958 25.2699 42.6172 25.3131 42.7425 25.3487C44.2733 25.782 46.0128 24.9364 47.2009 24.0073C47.5834 23.7084 47.9374 23.3711 48.3388 23.1002C51.0198 21.2889 54.3413 24.0236 55.9527 26.0213C56.0277 26.1145 56.1017 26.2087 56.1748 26.3028C56.45 26.6593 56.7328 26.9409 57.0213 27.1532C59.5618 29.0356 62.5056 25.6494 64.4416 22.6649C64.5934 22.4323 64.7376 22.2017 64.8753 21.9769C65.0888 21.63 65.2852 21.2956 65.4636 20.9824C65.5396 20.8488 65.6117 20.7191 65.681 20.5951C65.6885 20.5807 65.6971 20.5663 65.7047 20.5519C65.7369 20.6845 65.7692 20.8171 65.8005 20.9497C65.8148 21.0102 65.83 21.0698 65.8432 21.1303C65.8632 21.2111 65.8812 21.2927 65.9002 21.3734C68.1 30.8988 51.6195 30.9824 51.108 30.9824Z" fill="white"/>
<path opacity="0.15" d="M51.108 30.9823C51.108 30.9823 51.1042 30.9823 51.0957 30.9823C50.5946 30.9823 34.7462 30.9016 36.1963 21.9249C36.8995 21.5079 37.9472 21.0573 38.993 21.2389C39.272 21.2879 39.551 21.3811 39.8224 21.5329C40.2476 21.7693 40.6566 22.1469 41.0239 22.7138C41.2326 23.0357 41.4281 23.4191 41.6056 23.8717C41.7973 24.3637 42.0545 24.8287 42.38 25.2189C42.8972 25.8396 43.5871 26.2701 44.4631 26.3191C45.8591 26.3969 47.1336 25.6542 48.2411 24.8902C50.7597 23.1539 52.9054 26.2999 55.4611 26.9465C56.0039 27.084 56.524 27.1483 57.0213 27.1531C59.8702 27.1829 61.9618 25.2458 63.1718 23.7055C63.5969 23.1645 63.9139 22.6725 64.116 22.3314C64.2916 22.0354 64.3818 21.8538 64.3818 21.8538C64.3818 21.8538 64.7984 21.1457 65.4636 20.9823C65.4855 20.9756 65.5082 20.9708 65.531 20.9669C65.6174 20.9506 65.7075 20.9448 65.8005 20.9496C65.8148 21.0102 65.83 21.0697 65.8432 21.1303C65.8632 21.211 65.8812 21.2927 65.9002 21.3734C68.1 30.8987 51.6195 30.9823 51.108 30.9823Z" fill="white"/>
<path opacity="0.15" d="M51.108 30.9825C51.108 30.9825 51.1042 30.9825 51.0957 30.9825C50.5946 30.9825 34.7462 30.9018 36.1963 21.9251C36.2058 21.8627 36.2162 21.8002 36.2276 21.7368C36.2494 21.6176 36.275 21.4966 36.3035 21.3736C36.3576 21.141 36.4126 20.9095 36.4686 20.6769C36.5047 20.5289 36.5408 20.381 36.5778 20.234C36.6119 20.0975 36.6461 19.9611 36.6812 19.8237C36.7144 19.6939 36.7476 19.5642 36.7818 19.4355C36.7828 19.4306 36.7846 19.4268 36.7856 19.422C37.2525 19.2884 37.7384 19.1923 38.2167 19.1664C39.5263 19.0943 40.7762 19.5469 41.4158 21.1814C41.7385 22.0068 42.3231 22.4334 43.0832 22.6535C43.496 22.7736 43.9601 22.8322 44.4631 22.8601C45.8591 22.9379 46.9912 21.9203 48.2411 21.4312C54.0376 19.1635 55.5617 22.8264 58.0234 23.7758C60.3229 24.6627 61.9903 24.384 63.1718 23.7057C63.6823 23.4126 64.1018 23.0455 64.4416 22.665C64.675 22.4056 64.8705 22.1394 65.0337 21.8876C65.2596 21.5369 65.4228 21.2131 65.531 20.9671C65.6041 20.8028 65.6534 20.674 65.681 20.5952C65.6895 20.5712 65.6961 20.552 65.7009 20.5376C65.7028 20.5424 65.7037 20.5472 65.7047 20.552C65.7369 20.6846 65.7692 20.8172 65.8005 20.9498C65.8148 21.0104 65.83 21.0699 65.8432 21.1305C65.8632 21.2112 65.8812 21.2929 65.9002 21.3736C68.1 30.8989 51.6195 30.9825 51.108 30.9825Z" fill="white"/>
</g>
<path d="M76.008 11.184C74.344 11.184 72.712 11.664 71.576 12.608C70.472 13.52 69.64 14.896 69.64 16.848C69.64 18.832 70.52 20.16 71.672 21.04C72.808 21.888 74.408 22.256 75.976 22.256C77.224 22.256 78.36 21.904 79.224 21.664C79.448 21.296 79.72 20.336 79.832 19.152C79.736 18.96 79.352 18.912 79.224 19.04C78.792 20.128 77.896 21.52 75.96 21.52C74.04 21.52 72.2 19.808 72.2 16.624C72.2 13.44 74.104 11.92 75.88 11.92C77.432 11.92 78.456 12.72 78.888 14.208C79 14.352 79.432 14.288 79.496 14.096C79.352 13.168 79.304 11.888 79.304 11.6C78.824 11.568 77.64 11.184 76.008 11.184ZM85.6953 19.696C85.6953 21.136 85.5993 21.248 84.8793 21.392L84.4153 21.488C84.2873 21.536 84.2873 21.952 84.4153 22.048C85.3273 22.016 86.1113 22 86.8953 22C87.3593 22 87.9673 22.064 88.5433 22.064C89.5193 22.064 90.7193 22.016 91.7273 21.664C92.7353 21.312 93.6153 20.448 93.5993 18.976C93.5833 17.424 92.5113 16.592 91.2473 16.32C91.1033 16.288 91.0233 16.24 91.0233 16.192C91.0233 16.112 91.1833 16.048 91.3433 16.016C91.8393 15.888 92.9753 15.36 92.9753 14.016C92.9753 13.072 92.5593 12.4 91.8713 11.984C91.1673 11.568 90.1433 11.392 88.6073 11.392C87.0073 11.392 85.8393 11.456 84.6233 11.536C84.3833 11.552 84.4153 12.032 84.5593 12.112L84.9913 12.176C85.6633 12.272 85.6953 12.432 85.6953 14.048V19.696ZM87.9033 12.96C87.9033 12.256 87.9193 12.128 88.6713 12.128C89.7753 12.128 90.6393 12.816 90.6393 14.208C90.6393 15.168 90.1273 16.048 88.7513 16.048C87.9193 16.048 87.9033 16.016 87.9033 15.6V12.96ZM87.9033 17.408C87.9033 16.768 87.9033 16.752 88.7833 16.752C90.3193 16.752 91.1193 17.728 91.1193 19.12C91.1193 20.416 90.4953 21.328 89.3113 21.328C88.0633 21.328 87.9033 20.544 87.9033 19.296V17.408ZM101.948 19.696C101.948 21.184 101.852 21.328 101.132 21.408L100.412 21.488C100.284 21.584 100.284 21.952 100.412 22.048C101.532 22.016 102.364 22 103.132 22C103.852 22 104.652 22.016 105.692 22.048C105.804 21.952 105.804 21.584 105.692 21.488L105.052 21.408C104.332 21.312 104.236 21.184 104.236 19.696V12.64C104.236 12.224 104.284 12.176 104.668 12.176H105.628C106.828 12.176 107.052 12.928 107.324 13.952C107.404 14.08 107.836 14.048 107.916 13.904C107.884 12.992 107.996 11.696 108.156 11.152C108.124 11.104 108.012 11.04 107.916 11.04C107.82 11.04 107.772 11.056 107.708 11.088C107.564 11.424 107.324 11.44 106.268 11.44H100.316C99.0995 11.44 99.0515 11.376 98.9715 11.104C98.9075 11.056 98.8275 11.04 98.7475 11.04C98.6675 11.04 98.5875 11.072 98.5235 11.12C98.4115 11.744 98.3315 12.736 97.9955 13.84C98.0915 14.048 98.3955 14.08 98.5875 13.984C99.0675 12.816 99.4035 12.176 100.572 12.176H101.564C101.948 12.176 101.948 12.256 101.948 12.64V19.696Z" fill="#3F414E"/>
<path d="M5.28 13.84C5.28 13.04 5.296 12.304 5.328 11.936C5.296 11.808 5.184 11.76 5.104 11.76C4.992 11.76 4.384 12.064 3.68 12.272C3.04 12.448 2.288 12.624 1.632 12.72C1.504 12.816 1.52 13.2 1.664 13.28L2.4 13.376C3.104 13.472 3.168 13.712 3.168 14.768V19.936C3.168 21.216 3.072 21.376 2.288 21.44L1.632 21.488C1.488 21.584 1.504 22 1.664 22.048C2.24 22.016 3.2 22 4.256 22C5.248 22 6.208 22.016 6.784 22.048C6.944 22 6.96 21.584 6.816 21.488L6.16 21.44C5.376 21.376 5.28 21.216 5.28 19.936V13.84ZM15.6885 20.352C15.4645 20.352 15.3845 20.256 15.3845 20.16C15.3845 20.032 15.5285 19.808 16.2325 19.152L17.0005 18.432C18.9205 16.624 19.4165 15.728 19.4165 14.48C19.4165 12.976 18.2645 11.76 16.3925 11.76C14.8405 11.76 13.3685 12.64 12.7125 14.256C12.7445 14.512 13.0485 14.608 13.2405 14.48C13.7525 13.6 14.3925 13.008 15.3045 13.008C16.3765 13.008 17.0485 13.856 17.0485 14.96C17.0485 16.672 16.0565 18.016 14.9525 19.232C13.9925 20.288 13.0805 21.136 12.4725 21.696C12.4405 21.84 12.4885 22.016 12.6325 22.048C12.9045 22.016 13.5925 22 14.4245 22H16.9685C17.9925 22 18.5685 22.016 19.2085 22.048C19.4805 21.664 19.8485 20.56 19.9925 19.568C19.9285 19.36 19.5605 19.36 19.4485 19.472C18.9845 20.32 18.7925 20.352 17.6245 20.352H15.6885ZM27.713 12.768C28.497 12.768 29.025 13.344 29.025 13.936C29.025 14.656 28.641 15.136 28.353 15.376C27.713 15.904 26.417 16.432 25.777 16.672C25.633 17.04 25.825 17.376 26.145 17.44C26.545 17.072 27.073 16.768 27.729 16.768C28.865 16.768 29.601 17.792 29.601 19.216C29.601 21.184 28.145 22.096 27.457 22.096C27.233 22.096 26.961 22.016 26.769 21.728C26.625 21.52 26.273 20.88 25.697 20.88C25.057 20.88 24.737 21.328 24.737 21.76C24.737 22.576 25.601 22.896 26.465 22.896C27.329 22.896 28.785 22.608 30.161 21.616C31.441 20.672 32.001 19.504 32.001 18.352C32.001 16.816 30.753 15.824 29.313 15.872C29.105 15.872 28.993 15.744 29.169 15.664C30.913 14.912 31.185 14.256 31.185 13.6C31.185 12.528 30.209 11.76 28.641 11.76C27.201 11.76 25.937 12.496 25.297 13.792C25.297 13.984 25.521 14.16 25.745 14.096C26.225 13.376 26.945 12.768 27.713 12.768Z" fill="#3F414E"/>
<defs>
<radialGradient id="paint0_radial_319_3902" cx="0" cy="0" r="1" gradientUnits="userSpaceOnUse" gradientTransform="translate(51.1024 15.9822) scale(14.9075 15.0942)">
<stop offset="2.23767e-07" stop-color="#8485E0"/>
<stop offset="1" stop-color="#7680FC"/>
</radialGradient>
<clipPath id="clip0_319_3902">
<rect width="30" height="30" fill="white" transform="translate(36.1023 0.982422)"/>
</clipPath>
</defs>
</svg>
